<?xml version="1.0" encoding="UTF-8" standalone="no"?>
<!DOCTYPE svg PUBLIC "-//W3C//DTD SVG 1.0//EN" "http://www.w3.org/TR/2001/REC-SVG-20010904/DTD/svg10.dtd">
<!-- Generated by Microsoft Visio 11.0, SVG Export, v1.0 make_path.svg Page-1 -->
<svg xmlns="http://www.w3.org/2000/svg" xmlns:v="http://schemas.microsoft.com/visio/2003/SVGExtensions/" width="8.26772in"
		height="11.6929in" viewBox="0 0 595.276 841.89" xml:space="preserve" color-interpolation-filters="sRGB" class="st15">
	<v:documentProperties v:langID="1033" v:viewMarkup="false"/>

	<style type="text/css">
	<![CDATA[
		.st1 {fill:#3366ff;stroke:#000000;stroke-linecap:round;stroke-linejoin:round;stroke-width:0.24}
		.st2 {fill:#ff0000;stroke:#000000;stroke-linecap:round;stroke-linejoin:round;stroke-width:0.24}
		.st3 {fill:#00ff00;stroke:#000000;stroke-linecap:round;stroke-linejoin:round;stroke-width:0.24}
		.st4 {marker-end:url(#mrkr4-20);stroke:#4677bf;stroke-linecap:round;stroke-linejoin:round;stroke-width:0.24}
		.st5 {fill:#4677bf;fill-opacity:1;stroke:#4677bf;stroke-opacity:1;stroke-width:0.08695652173913}
		.st6 {marker-end:url(#mrkr4-26);stroke:#4677bf;stroke-linecap:round;stroke-linejoin:round;stroke-width:0.24}
		.st7 {fill:#ffff00;stroke:#000000;stroke-linecap:round;stroke-linejoin:round;stroke-width:0.24}
		.st8 {fill:#000000;stroke:#000000;stroke-linecap:round;stroke-linejoin:round;stroke-width:0.24}
		.st9 {fill:none;stroke:none;stroke-linecap:round;stroke-linejoin:round;stroke-width:0.72}
		.st10 {fill:#000000;font-family:Arial;font-size:0.833336em}
		.st11 {fill:none;stroke:#000000;stroke-linecap:round;stroke-linejoin:round;stroke-width:0.24}
		.st12 {fill:#ffcc00;stroke:#000000;stroke-linecap:round;stroke-linejoin:round;stroke-width:0.24}
		.st13 {font-size:1em}
		.st14 {fill:#000000;font-family:Arial;font-size:1.16666em}
		.st15 {fill:none;fill-rule:evenodd;font-size:12;overflow:visible;stroke-linecap:square;stroke-miterlimit:3}
	]]>
	</style>

	<defs id="Markers">
		<g id="lend4">
			<path d="M 2 1 L 0 0 L 2 -1 L 2 1 " style="stroke:none"/>
		</g>
		<marker id="mrkr4-20" class="st5" v:arrowType="4" v:arrowSize="2" v:setback="21.5" refX="-21.5" orient="auto"
				markerUnits="strokeWidth">
			<use xlink:href="#lend4" transform="scale(-11.5,-11.5) "/>
		</marker>
		<marker id="mrkr4-26" class="st5" v:arrowType="4" v:arrowSize="2" v:setback="23" refX="-23" orient="auto"
				markerUnits="strokeWidth">
			<use xlink:href="#lend4" transform="scale(-11.5,-11.5) "/>
		</marker>
	</defs>
	<g v:mID="0" v:index="1" v:groupContext="foregroundPage">
		<v:userDefs>
			<v:ud v:nameU="SchemeName" v:val="VT4(Default)"/>
		</v:userDefs>
		<title>Page-1</title>
		<v:pageProperties v:drawingScale="0.0393701" v:pageScale="0.0393701" v:drawingUnits="24" v:shadowOffsetX="8.50394"
				v:shadowOffsetY="-8.50394"/>
		<v:layer v:name="Flowchart" v:index="0"/>
		<v:layer v:name="Connector" v:index="1"/>
		<g id="shape1-1" v:mID="1" v:groupContext="shape" v:layerMember="1;0" transform="translate(68.0315,-708.661)">
			<title>On-page reference</title>
			<v:userDefs>
				<v:ud v:nameU="visVersion" v:val="VT0(11):26"/>
			</v:userDefs>
			<v:textBlock v:margins="rect(2,2,2,2)" v:tabSpace="42.5197"/>
			<path d="M0 827.72 A14.1732 14.1732 0 0 1 28.35 827.72 A14.1732 14.1732 0 1 1 0 827.72 Z" class="st1"/>
		</g>
		<g id="shape2-3" v:mID="2" v:groupContext="shape" v:layerMember="1;0" transform="translate(187.087,-708.661)">
			<title>On-page reference.2</title>
			<v:userDefs>
				<v:ud v:nameU="visVersion" v:val="VT0(11):26"/>
			</v:userDefs>
			<v:textBlock v:margins="rect(2,2,2,2)" v:tabSpace="42.5197"/>
			<path d="M0 827.72 A14.1732 14.1732 0 0 1 28.35 827.72 A14.1732 14.1732 0 1 1 0 827.72 Z" class="st1"/>
		</g>
		<g id="shape3-5" v:mID="3" v:groupContext="shape" v:layerMember="1;0" transform="translate(320.315,-708.661)">
			<title>On-page reference.3</title>
			<v:userDefs>
				<v:ud v:nameU="visVersion" v:val="VT0(11):26"/>
			</v:userDefs>
			<v:textBlock v:margins="rect(2,2,2,2)" v:tabSpace="42.5197"/>
			<path d="M0 827.72 A14.1732 14.1732 0 0 1 28.35 827.72 A14.1732 14.1732 0 1 1 0 827.72 Z" class="st1"/>
		</g>
		<g id="shape4-7" v:mID="4" v:groupContext="shape" v:layerMember="1;0" transform="translate(68.0315,-637.795)">
			<title>On-page reference.4</title>
			<v:userDefs>
				<v:ud v:nameU="visVersion" v:val="VT0(11):26"/>
			</v:userDefs>
			<v:textBlock v:margins="rect(2,2,2,2)" v:tabSpace="42.5197"/>
			<path d="M0 827.72 A14.1732 14.1732 0 0 1 28.35 827.72 A14.1732 14.1732 0 1 1 0 827.72 Z" class="st2"/>
		</g>
		<g id="shape5-9" v:mID="5" v:groupContext="shape" v:layerMember="1;0" transform="translate(187.087,-637.795)">
			<title>On-page reference.5</title>
			<v:userDefs>
				<v:ud v:nameU="visVersion" v:val="VT0(11):26"/>
			</v:userDefs>
			<v:textBlock v:margins="rect(2,2,2,2)" v:tabSpace="42.5197"/>
			<path d="M0 827.72 A14.1732 14.1732 0 0 1 28.35 827.72 A14.1732 14.1732 0 1 1 0 827.72 Z" class="st2"/>
		</g>
		<g id="shape14-11" v:mID="14" v:groupContext="shape" v:layerMember="0" transform="translate(248.031,1194.8) scale(1,-1)">
			<title>Manual operation</title>
			<v:custProps>
				<v:cp v:nameU="Cost" v:lbl="Cost" v:type="7" v:format="@" v:langID="1033"/>
				<v:cp v:nameU="Duration" v:lbl="Duration" v:type="2" v:langID="1033"/>
				<v:cp v:nameU="Resources" v:lbl="Resources" v:langID="1033"/>
			</v:custProps>
			<v:userDefs>
				<v:ud v:nameU="AntiScale" v:val="VT0(1):26"/>
				<v:ud v:nameU="visVersion" v:val="VT0(11):26"/>
			</v:userDefs>
			<v:textBlock v:margins="rect(2,2,2,2)" v:tabSpace="42.5197"/>
			<path d="M14.17 841.89 L56.69 841.89 L70.87 799.37 L0 799.37 L14.17 841.89 Z" class="st3"/>
		</g>
		<g id="shape6-13" v:mID="6" v:groupContext="shape" v:layerMember="0" transform="translate(113.386,1133.86) scale(1,-1)">
			<title>Manual operation.6</title>
			<v:custProps>
				<v:cp v:nameU="Cost" v:lbl="Cost" v:type="7" v:format="@" v:langID="1033"/>
				<v:cp v:nameU="Duration" v:lbl="Duration" v:type="2" v:langID="1033"/>
				<v:cp v:nameU="Resources" v:lbl="Resources" v:langID="1033"/>
			</v:custProps>
			<v:userDefs>
				<v:ud v:nameU="AntiScale" v:val="VT0(1):26"/>
				<v:ud v:nameU="visVersion" v:val="VT0(11):26"/>
			</v:userDefs>
			<v:textBlock v:margins="rect(2,2,2,2)" v:tabSpace="42.5197"/>
			<path d="M14.17 841.89 L56.69 841.89 L70.87 799.37 L0 799.37 L14.17 841.89 Z" class="st3"/>
		</g>
		<g id="shape11-15" v:mID="11" v:groupContext="shape" v:layerMember="1"
				transform="translate(443.273,-454.229) rotate(20.4723)">
			<title>Line-curve connector</title>
			<v:userDefs>
				<v:ud v:nameU="AntiScale" v:val="VT0(1):26"/>
				<v:ud v:nameU="visVersion" v:val="VT0(11):26"/>
			</v:userDefs>
			<v:textBlock v:margins="rect(4,4,4,4)" v:tabSpace="42.5197"/>
			<path d="M0 841.89 L1.86 843.33 L3.74 844.7 L5.64 846.01 L7.57 847.26 L9.51 848.45 L11.48 849.58 L13.48 850.65 L15.49
						 851.65 L17.53 852.6 L19.59 853.48 L21.67 854.3 L23.77 855.06 L25.89 855.76 L28.04 856.4 L30.21 856.97 L32.4
						 857.48 L34.62 857.94 L36.86 858.33 L39.11 858.66 L41.39 858.92 L43.7 859.13 L46.02 859.28 L48.37 859.36
						 L50.74 859.38 L53.13 859.34 L55.55 859.24 L57.98 859.08 L60.44 858.85 L62.92 858.57 L65.43 858.22 L67.95
						 857.81 L70.5 857.34 L73.07 856.81 L75.66 856.22 L78.28 855.57 L80.92 854.85 L83.57 854.07 L86.26 853.24
						 L88.96 852.34 L91.69 851.37 L94.43 850.35 L97.2 849.27 L100 848.12 L102.81 846.91 L105.65 845.65 L108.51
						 844.32 L108.83 844.16" class="st4"/>
		</g>
		<g id="shape9-21" v:mID="9" v:groupContext="shape" v:layerMember="1" transform="translate(75.1181,-708.661)">
			<title>Dynamic connector.9</title>
			<v:userDefs>
				<v:ud v:nameU="visVersion" v:val="VT0(11):26"/>
			</v:userDefs>
			<path d="M7.09 841.89 L7.09 878.89" class="st6"/>
		</g>
		<g id="shape10-27" v:mID="10" v:groupContext="shape" v:layerMember="1" transform="translate(194.173,-708.661)">
			<title>Dynamic connector.10</title>
			<v:userDefs>
				<v:ud v:nameU="visVersion" v:val="VT0(11):26"/>
			</v:userDefs>
			<path d="M7.09 841.89 L7.09 878.89" class="st6"/>
		</g>
		<g id="shape8-32" v:mID="8" v:groupContext="shape" v:layerMember="1" transform="translate(677.511,-320.345) rotate(45)">
			<title>Line-curve connector.8</title>
			<v:userDefs>
				<v:ud v:nameU="AntiScale" v:val="VT0(1):26"/>
				<v:ud v:nameU="visVersion" v:val="VT0(11):26"/>
			</v:userDefs>
			<v:textBlock v:margins="rect(4,4,4,4)" v:tabSpace="42.5197"/>
			<path d="M0 841.89 L1.34 843.08 L2.67 844.2 L4.01 845.27 L5.34 846.28 L6.68 847.23 L8.01 848.12 L9.34 848.96 L10.67 849.73
						 L12 850.44 L13.32 851.1 L14.65 851.7 L15.97 852.23 L17.29 852.71 L18.62 853.13 L19.94 853.49 L21.26 853.8
						 L22.57 854.04 L23.89 854.22 L25.2 854.35 L26.52 854.41 L27.83 854.42 L29.14 854.37 L30.45 854.26 L31.76
						 854.09 L33.07 853.86 L34.38 853.57 L35.68 853.22 L36.98 852.82 L38.29 852.35 L39.59 851.83 L40.89 851.24
						 L42.19 850.6 L43.48 849.9 L44.78 849.14 L46.08 848.32 L47.37 847.44 L48.66 846.51 L49.95 845.51 L50.23 845.28"
					class="st4"/>
		</g>
		<g id="shape12-37" v:mID="12" v:groupContext="shape" v:layerMember="1"
				transform="translate(-503.697,54.3403) rotate(-84.6233) scale(-1,1)">
			<title>Line-curve connector.12</title>
			<v:userDefs>
				<v:ud v:nameU="AntiScale" v:val="VT0(1):26"/>
				<v:ud v:nameU="visVersion" v:val="VT0(11):26"/>
			</v:userDefs>
			<v:textBlock v:margins="rect(4,4,4,4)" v:tabSpace="42.5197"/>
			<path d="M0 841.89 L6.36 842.97 L12.67 844 L18.93 844.98 L25.15 845.92 L31.33 846.8 L37.46 847.64 L43.54 848.42 L49.58
						 849.16 L55.57 849.85 L61.52 850.49 L67.42 851.08 L73.28 851.62 L79.09 852.12 L84.85 852.56 L90.57 852.96
						 L96.25 853.31 L101.88 853.6 L107.46 853.85 L113 854.05 L118.49 854.21 L123.94 854.31 L129.34 854.36 L134.69
						 854.37 L140 854.33 L145.27 854.24 L150.49 854.09 L155.66 853.9 L160.79 853.67 L165.87 853.38 L170.91 853.04
						 L175.9 852.66 L180.85 852.22 L185.75 851.74 L190.6 851.21 L195.41 850.63 L200.18 850 L204.89 849.32 L209.57
						 848.6 L214.2 847.82 L218.78 847 L223.31 846.12 L227.8 845.2 L232.25 844.23 L236.65 843.21 L237 843.13"
					class="st4"/>
		</g>
		<g id="shape13-42" v:mID="13" v:groupContext="shape" v:layerMember="0" transform="translate(340.157,1258.58) scale(1,-1)">
			<title>Manual operation.13</title>
			<v:custProps>
				<v:cp v:nameU="Cost" v:lbl="Cost" v:type="7" v:format="@" v:langID="1033"/>
				<v:cp v:nameU="Duration" v:lbl="Duration" v:type="2" v:langID="1033"/>
				<v:cp v:nameU="Resources" v:lbl="Resources" v:langID="1033"/>
			</v:custProps>
			<v:userDefs>
				<v:ud v:nameU="AntiScale" v:val="VT0(1):26"/>
				<v:ud v:nameU="visVersion" v:val="VT0(11):26"/>
			</v:userDefs>
			<v:textBlock v:margins="rect(2,2,2,2)" v:tabSpace="42.5197"/>
			<path d="M14.17 841.89 L56.69 841.89 L70.87 799.37 L0 799.37 L14.17 841.89 Z" class="st7"/>
		</g>
		<g id="shape15-44" v:mID="15" v:groupContext="shape" v:layerMember="1"
				transform="translate(750.461,-305.062) rotate(33.6901)">
			<title>Line-curve connector.15</title>
			<v:userDefs>
				<v:ud v:nameU="AntiScale" v:val="VT0(1):26"/>
				<v:ud v:nameU="visVersion" v:val="VT0(11):26"/>
			</v:userDefs>
			<v:textBlock v:margins="rect(4,4,4,4)" v:tabSpace="42.5197"/>
			<path d="M0 841.89 L1.3 843.14 L2.61 844.32 L3.95 845.45 L5.32 846.52 L6.71 847.53 L8.11 848.48 L9.55 849.37 L11 850.2
						 L12.48 850.97 L13.98 851.69 L15.5 852.34 L17.05 852.94 L18.62 853.47 L20.21 853.95 L21.82 854.37 L23.46
						 854.73 L25.12 855.03 L26.8 855.27 L28.51 855.45 L30.24 855.57 L31.99 855.64 L33.76 855.64 L35.56 855.59
						 L37.38 855.48 L39.22 855.3 L41.09 855.07 L42.97 854.78 L44.88 854.43 L46.82 854.02 L48.77 853.56 L50.75
						 853.03 L52.76 852.44 L54.78 851.8 L56.83 851.09 L58.9 850.33 L60.99 849.51 L63.11 848.63 L65.24 847.69 L67.41
						 846.69 L69.59 845.63 L71.8 844.51 L72.11 844.34" class="st4"/>
		</g>
		<g id="shape16-49" v:mID="16" v:groupContext="shape" v:layerMember="1;0" transform="translate(453.543,-708.661)">
			<title>On-page reference.16</title>
			<v:userDefs>
				<v:ud v:nameU="visVersion" v:val="VT0(11):26"/>
			</v:userDefs>
			<v:textBlock v:margins="rect(2,2,2,2)" v:tabSpace="42.5197"/>
			<path d="M0 827.72 A14.1732 14.1732 0 0 1 28.35 827.72 A14.1732 14.1732 0 1 1 0 827.72 Z" class="st1"/>
		</g>
		<g id="shape17-51" v:mID="17" v:groupContext="shape" v:layerMember="1"
				transform="translate(-356.317,-39.2438) rotate(-78.1785) scale(-1,1)">
			<title>Line-curve connector.17</title>
			<v:userDefs>
				<v:ud v:nameU="AntiScale" v:val="VT0(1):26"/>
				<v:ud v:nameU="visVersion" v:val="VT0(11):26"/>
			</v:userDefs>
			<v:textBlock v:margins="rect(4,4,4,4)" v:tabSpace="42.5197"/>
			<path d="M0 841.89 L6.74 842.87 L13.42 843.83 L20.04 844.75 L26.6 845.64 L33.1 846.5 L39.54 847.33 L45.91 848.13 L52.23
						 848.9 L58.49 849.64 L64.68 850.35 L70.82 851.02 L76.89 851.67 L82.9 852.28 L88.85 852.87 L94.74 853.42 L100.57
						 853.94 L106.34 854.43 L112.05 854.89 L117.7 855.32 L123.29 855.72 L128.82 856.09 L134.28 856.42 L139.69
						 856.73 L145.03 857 L150.32 857.25 L155.54 857.46 L160.7 857.64 L165.8 857.79 L170.84 857.91 L175.82 858
						 L180.74 858.06 L185.6 858.09 L190.4 858.09 L195.14 858.05 L199.81 857.99 L204.43 857.89 L208.98 857.77 L213.48
						 857.61 L217.91 857.42 L222.28 857.2 L226.6 856.95 L230.85 856.67 L235.04 856.36 L239.17 856.02 L243.24 855.64
						 L247.25 855.24 L251.19 854.81 L255.08 854.34 L258.91 853.84 L262.67 853.32 L266.38 852.76 L270.02 852.17
						 L273.6 851.55 L277.13 850.9 L280.59 850.21 L283.99 849.5 L287.33 848.76 L290.61 847.98 L293.83 847.18 L296.99
						 846.34 L300.08 845.48 L303.12 844.58 L306.1 843.65 L306.44 843.53" class="st4"/>
		</g>
		<g id="shape18-56" v:mID="18" v:groupContext="shape" v:layerMember="0" transform="translate(340.157,-308.976)">
			<title>Terminator</title>
			<v:custProps>
				<v:cp v:nameU="Cost" v:lbl="Cost" v:type="7" v:format="@" v:langID="1033"/>
				<v:cp v:nameU="Duration" v:lbl="Duration" v:type="2" v:langID="1033"/>
				<v:cp v:nameU="Resources" v:lbl="Resources" v:langID="1033"/>
			</v:custProps>
			<v:userDefs>
				<v:ud v:nameU="visVersion" v:val="VT0(11):26"/>
			</v:userDefs>
			<v:textBlock v:margins="rect(2,2,2,2)" v:tabSpace="42.5197"/>
			<path d="M14.17 841.89 L56.69 841.89 A14.1732 14.1732 -180 0 0 56.69 813.54 L14.17 813.54 A14.1732 14.1732 -180 1 0 14.17
						 841.89 Z" class="st8"/>
		</g>
		<g id="shape19-58" v:mID="19" v:groupContext="shape" v:layerMember="1" transform="translate(368.504,-382.677)">
			<title>Dynamic connector.19</title>
			<v:userDefs>
				<v:ud v:nameU="visVersion" v:val="VT0(11):26"/>
			</v:userDefs>
			<path d="M7.09 841.89 L7.09 881.72" class="st6"/>
		</g>
		<g id="shape20-63" v:mID="20" v:groupContext="shape" transform="translate(32.2047,-759.354)">
			<title>Sheet.20</title>
			<desc>Context</desc>
			<v:textBlock v:margins="rect(2,2,2,2)" v:tabSpace="42.5197"/>
			<v:textRect cx="50" cy="835.89" width="100.01" height="12"/>
			<rect x="0" y="829.89" width="100" height="12" class="st9"/>
			<text x="32.77" y="838.89" class="st10" v:langID="2057"><v:paragraph v:horizAlign="1"/><v:tabList/>Context</text>		</g>
		<g id="shape21-66" v:mID="21" v:groupContext="shape" transform="translate(151.26,-759.354)">
			<title>Sheet.21</title>
			<desc>Seating</desc>
			<v:textBlock v:margins="rect(2,2,2,2)" v:tabSpace="42.5197"/>
			<v:textRect cx="50" cy="835.89" width="100.01" height="12"/>
			<rect x="0" y="829.89" width="100" height="12" class="st9"/>
			<text x="33.04" y="838.89" class="st10" v:langID="2057"><v:paragraph v:horizAlign="1"/><v:tabList/>Seating</text>		</g>
		<g id="shape22-69" v:mID="22" v:groupContext="shape" v:layerMember="0" transform="translate(113.386,-368.504)">
			<title>Terminator.22</title>
			<v:custProps>
				<v:cp v:nameU="Cost" v:lbl="Cost" v:type="7" v:format="@" v:langID="1033"/>
				<v:cp v:nameU="Duration" v:lbl="Duration" v:type="2" v:langID="1033"/>
				<v:cp v:nameU="Resources" v:lbl="Resources" v:langID="1033"/>
			</v:custProps>
			<v:userDefs>
				<v:ud v:nameU="visVersion" v:val="VT0(11):26"/>
			</v:userDefs>
			<v:textBlock v:margins="rect(2,2,2,2)" v:tabSpace="42.5197"/>
			<path d="M14.17 841.89 L56.69 841.89 A14.1732 14.1732 -180 0 0 56.69 813.54 L14.17 813.54 A14.1732 14.1732 -180 1 0 14.17
						 841.89 Z" class="st8"/>
		</g>
		<g id="shape23-71" v:mID="23" v:groupContext="shape" v:layerMember="1" transform="translate(155.906,-507.402)">
			<title>Dynamic connector.23</title>
			<v:userDefs>
				<v:ud v:nameU="visVersion" v:val="VT0(11):26"/>
			</v:userDefs>
			<path d="M-7.09 841.89 L-7.09 946.92" class="st6"/>
		</g>
		<g id="shape24-76" v:mID="24" v:groupContext="shape" v:layerMember="0" transform="translate(56.6929,-255.118)">
			<title>Process</title>
			<v:custProps>
				<v:cp v:nameU="Cost" v:lbl="Cost" v:type="7" v:format="@" v:langID="1033"/>
				<v:cp v:nameU="Duration" v:lbl="Duration" v:type="2" v:langID="1033"/>
				<v:cp v:nameU="Resources" v:lbl="Resources" v:langID="1033"/>
			</v:custProps>
			<v:userDefs>
				<v:ud v:nameU="visVersion" v:val="VT0(11):26"/>
			</v:userDefs>
			<v:textBlock v:margins="rect(2,2,2,2)" v:tabSpace="42.5197"/>
			<rect x="0" y="274.961" width="184.252" height="566.929" class="st11"/>
		</g>
		<g id="shape25-78" v:mID="25" v:groupContext="shape" v:layerMember="0" transform="translate(240.945,-255.118)">
			<title>Process.25</title>
			<v:custProps>
				<v:cp v:nameU="Cost" v:lbl="Cost" v:type="7" v:format="@" v:langID="1033"/>
				<v:cp v:nameU="Duration" v:lbl="Duration" v:type="2" v:langID="1033"/>
				<v:cp v:nameU="Resources" v:lbl="Resources" v:langID="1033"/>
			</v:custProps>
			<v:userDefs>
				<v:ud v:nameU="visVersion" v:val="VT0(11):26"/>
			</v:userDefs>
			<v:textBlock v:margins="rect(2,2,2,2)" v:tabSpace="42.5197"/>
			<rect x="0" y="274.961" width="269.291" height="566.929" class="st11"/>
		</g>
		<g id="shape26-80" v:mID="26" v:groupContext="shape" transform="translate(284.488,-759.354)">
			<title>Sheet.26</title>
			<desc>Path</desc>
			<v:textBlock v:margins="rect(2,2,2,2)" v:tabSpace="42.5197"/>
			<v:textRect cx="50" cy="835.89" width="100.01" height="12"/>
			<rect x="0" y="829.89" width="100" height="12" class="st9"/>
			<text x="39.71" y="838.89" class="st10" v:langID="2057"><v:paragraph v:horizAlign="1"/><v:tabList/>Path</text>		</g>
		<g id="shape27-83" v:mID="27" v:groupContext="shape" transform="translate(417.717,-759.354)">
			<title>Sheet.27</title>
			<desc>Path</desc>
			<v:textBlock v:margins="rect(2,2,2,2)" v:tabSpace="42.5197"/>
			<v:textRect cx="50" cy="835.89" width="100.01" height="12"/>
			<rect x="0" y="829.89" width="100" height="12" class="st9"/>
			<text x="39.71" y="838.89" class="st10" v:langID="2057"><v:paragraph v:horizAlign="1"/><v:tabList/>Path</text>		</g>
		<g id="shape28-86" v:mID="28" v:groupContext="shape" v:layerMember="1;0" transform="translate(68.0315,-566.929)">
			<title>On-page reference.28</title>
			<v:userDefs>
				<v:ud v:nameU="visVersion" v:val="VT0(11):26"/>
			</v:userDefs>
			<v:textBlock v:margins="rect(2,2,2,2)" v:tabSpace="42.5197"/>
			<path d="M0 827.72 A14.1732 14.1732 0 0 1 28.35 827.72 A14.1732 14.1732 0 1 1 0 827.72 Z" class="st12"/>
		</g>
		<g id="shape7-88" v:mID="7" v:groupContext="shape" v:layerMember="1" transform="translate(75.1181,-637.795)">
			<title>Dynamic connector.7</title>
			<v:userDefs>
				<v:ud v:nameU="visVersion" v:val="VT0(11):26"/>
			</v:userDefs>
			<path d="M7.09 841.89 L7.09 878.89" class="st6"/>
		</g>
		<g id="shape29-93" v:mID="29" v:groupContext="shape" v:layerMember="1"
				transform="translate(-620.832,22.5936) rotate(-77.55) scale(-1,1)">
			<title>Line-curve connector.29</title>
			<v:userDefs>
				<v:ud v:nameU="AntiScale" v:val="VT0(1):26"/>
				<v:ud v:nameU="visVersion" v:val="VT0(11):26"/>
			</v:userDefs>
			<v:textBlock v:margins="rect(4,4,4,4)" v:tabSpace="42.5197"/>
			<path d="M0 841.89 L3.54 842.46 L7.03 843 L10.47 843.51 L13.86 844.01 L17.19 844.48 L20.48 844.92 L23.71 845.35 L26.89
						 845.74 L30.01 846.12 L33.09 846.47 L36.11 846.8 L39.08 847.1 L42 847.38 L44.87 847.63 L47.69 847.86 L50.45
						 848.07 L53.16 848.25 L55.82 848.41 L58.43 848.55 L60.98 848.66 L63.49 848.74 L65.94 848.81 L68.34 848.85
						 L70.68 848.86 L72.98 848.86 L75.22 848.82 L77.42 848.77 L79.56 848.69 L81.64 848.58 L83.68 848.45 L85.66
						 848.3 L87.6 848.13 L89.48 847.93 L91.3 847.7 L93.08 847.46 L94.8 847.18 L96.48 846.89 L98.1 846.57 L99.66
						 846.23 L101.18 845.86 L102.65 845.47 L104.06 845.05 L105.42 844.62 L106.73 844.15 L107.06 844" class="st4"/>
		</g>
		<g id="shape30-98" v:mID="30" v:groupContext="shape" transform="translate(85.0394,-668.976)">
			<title>Sheet.30</title>
			<desc>state==MAKE_PATH</desc>
			<v:textBlock v:margins="rect(2,2,2,2)" v:tabSpace="42.5197"/>
			<v:textRect cx="50" cy="835.89" width="100.01" height="12"/>
			<rect x="0" y="829.89" width="100" height="12" class="st9"/>
			<text x="3.03" y="838.89" class="st10" v:langID="2057"><v:paragraph v:horizAlign="1"/><v:tabList/>state==MAKE_PATH</text>		</g>
		<g id="shape31-101" v:mID="31" v:groupContext="shape" transform="translate(325.591,-469.89)">
			<title>Sheet.31</title>
			<desc>Path.id==Seating.pid Path.name=Seating.ln</desc>
			<v:textBlock v:margins="rect(2,2,2,2)" v:tabSpace="42.5197"/>
			<v:textRect cx="55.4724" cy="835.89" width="110.95" height="12"/>
			<rect x="0" y="829.89" width="110.945" height="12" class="st9"/>
			<text x="2" y="832.89" class="st10" v:langID="2057"><v:paragraph/><v:tabList/>Path.id==Seating.pid<v:newlineChar/><tspan
						x="2" dy="1.2em" class="st13">Path</tspan>.name=Seating.ln</text>		</g>
		<g id="shape32-105" v:mID="32" v:groupContext="shape" transform="translate(403.543,-362.504)">
			<title>Sheet.32</title>
			<desc>Path.id==Seating.id Path.name=Seating.ln</desc>
			<v:textBlock v:margins="rect(2,2,2,2)" v:tabSpace="42.5197"/>
			<v:textRect cx="56.1811" cy="835.89" width="112.37" height="12"/>
			<rect x="0" y="829.89" width="112.362" height="12" class="st9"/>
			<text x="2" y="832.89" class="st10" v:langID="2057"><v:paragraph/><v:tabList/>Path.id==Seating.id<v:newlineChar/><tspan
						x="2" dy="1.2em" class="st13">Path</tspan>.name=Seating.ln</text>		</g>
		<g id="shape33-109" v:mID="33" v:groupContext="shape" transform="translate(281.496,-277.465)">
			<title>Sheet.33</title>
			<desc>assert Path( id=Seating.id, name=Seating.ln, seat=Path.seat )</desc>
			<v:textBlock v:margins="rect(2,2,2,2)" v:tabSpace="42.5197"/>
			<v:textRect cx="87.0079" cy="835.89" width="174.02" height="12"/>
			<rect x="0" y="829.89" width="174.016" height="12" class="st9"/>
			<text x="26.83" y="826.89" class="st10" v:langID="2057"><v:paragraph v:horizAlign="1"/><v:tabList/>assert  Path( id=Seating.id, <v:newlineChar/><tspan
						x="10.44" dy="1.2em" class="st13">                           name</tspan>=Seating.ln,<v:newlineChar/><tspan
						x="17.11" dy="1.2em" class="st13">                        seat</tspan>=Path.seat )</text>		</g>
		<g id="shape34-114" v:mID="34" v:groupContext="shape" transform="translate(68.4646,-342.331)">
			<title>Sheet.34</title>
			<desc>modify Seating( pathDone = true )</desc>
			<v:textBlock v:margins="rect(2,2,2,2)" v:tabSpace="42.5197"/>
			<v:textRect cx="80.3543" cy="835.89" width="160.71" height="12"/>
			<rect x="0" y="829.89" width="160.709" height="12" class="st9"/>
			<text x="5.17" y="838.89" class="st10" v:langID="2057"><v:paragraph v:horizAlign="1"/><v:tabList/>modify Seating( pathDone = true )</text>		</g>
		<g id="shape35-117" v:mID="35" v:groupContext="shape" v:layerMember="1;0" transform="translate(56.6929,-212.598)">
			<title>On-page reference.35</title>
			<v:userDefs>
				<v:ud v:nameU="visVersion" v:val="VT0(11):26"/>
			</v:userDefs>
			<v:textBlock v:margins="rect(2,2,2,2)" v:tabSpace="42.5197"/>
			<path d="M0 827.72 A14.1732 14.1732 0 0 1 28.35 827.72 A14.1732 14.1732 0 1 1 0 827.72 Z" class="st1"/>
		</g>
		<g id="shape36-119" v:mID="36" v:groupContext="shape" v:layerMember="1;0" transform="translate(56.6929,-164.409)">
			<title>On-page reference.36</title>
			<v:userDefs>
				<v:ud v:nameU="visVersion" v:val="VT0(11):26"/>
			</v:userDefs>
			<v:textBlock v:margins="rect(2,2,2,2)" v:tabSpace="42.5197"/>
			<path d="M0 827.72 A14.1732 14.1732 0 0 1 28.35 827.72 A14.1732 14.1732 0 1 1 0 827.72 Z" class="st2"/>
		</g>
		<g id="shape37-121" v:mID="37" v:groupContext="shape" v:layerMember="1;0" transform="translate(56.6929,-121.89)">
			<title>On-page reference.37</title>
			<v:userDefs>
				<v:ud v:nameU="visVersion" v:val="VT0(11):26"/>
			</v:userDefs>
			<v:textBlock v:margins="rect(2,2,2,2)" v:tabSpace="42.5197"/>
			<path d="M0 827.72 A14.1732 14.1732 0 0 1 28.35 827.72 A14.1732 14.1732 0 1 1 0 827.72 Z" class="st12"/>
		</g>
		<g id="shape38-123" v:mID="38" v:groupContext="shape" v:layerMember="0" transform="translate(311.811,1442.83) scale(1,-1)">
			<title>Manual operation.38</title>
			<v:custProps>
				<v:cp v:nameU="Cost" v:lbl="Cost" v:type="7" v:format="@" v:langID="1033"/>
				<v:cp v:nameU="Duration" v:lbl="Duration" v:type="2" v:langID="1033"/>
				<v:cp v:nameU="Resources" v:lbl="Resources" v:langID="1033"/>
			</v:custProps>
			<v:userDefs>
				<v:ud v:nameU="AntiScale" v:val="VT0(1):26"/>
				<v:ud v:nameU="visVersion" v:val="VT0(11):26"/>
			</v:userDefs>
			<v:textBlock v:margins="rect(2,2,2,2)" v:tabSpace="42.5197"/>
			<path d="M14.17 841.89 L56.69 841.89 L70.87 799.37 L0 799.37 L14.17 841.89 Z" class="st3"/>
		</g>
		<g id="shape39-125" v:mID="39" v:groupContext="shape" v:layerMember="0" transform="translate(311.811,1509.45) scale(1,-1)">
			<title>Manual operation.39</title>
			<v:custProps>
				<v:cp v:nameU="Cost" v:lbl="Cost" v:type="7" v:format="@" v:langID="1033"/>
				<v:cp v:nameU="Duration" v:lbl="Duration" v:type="2" v:langID="1033"/>
				<v:cp v:nameU="Resources" v:lbl="Resources" v:langID="1033"/>
			</v:custProps>
			<v:userDefs>
				<v:ud v:nameU="AntiScale" v:val="VT0(1):26"/>
				<v:ud v:nameU="visVersion" v:val="VT0(11):26"/>
			</v:userDefs>
			<v:textBlock v:margins="rect(2,2,2,2)" v:tabSpace="42.5197"/>
			<path d="M14.17 841.89 L56.69 841.89 L70.87 799.37 L0 799.37 L14.17 841.89 Z" class="st7"/>
		</g>
		<g id="shape40-127" v:mID="40" v:groupContext="shape" v:layerMember="0" transform="translate(311.811,-73.7008)">
			<title>Terminator.40</title>
			<v:custProps>
				<v:cp v:nameU="Cost" v:lbl="Cost" v:type="7" v:format="@" v:langID="1033"/>
				<v:cp v:nameU="Duration" v:lbl="Duration" v:type="2" v:langID="1033"/>
				<v:cp v:nameU="Resources" v:lbl="Resources" v:langID="1033"/>
			</v:custProps>
			<v:userDefs>
				<v:ud v:nameU="visVersion" v:val="VT0(11):26"/>
			</v:userDefs>
			<v:textBlock v:margins="rect(2,2,2,2)" v:tabSpace="42.5197"/>
			<path d="M14.17 841.89 L56.69 841.89 A14.1732 14.1732 -180 0 0 56.69 813.54 L14.17 813.54 A14.1732 14.1732 -180 1 0 14.17
						 841.89 Z" class="st8"/>
		</g>
		<g id="shape41-129" v:mID="41" v:groupContext="shape" transform="translate(79.3701,-222.063)">
			<title>Sheet.41</title>
			<desc>ObjectTypeNode</desc>
			<v:textBlock v:margins="rect(2,2,2,2)" v:tabSpace="42.5197"/>
			<v:textRect cx="50" cy="835.89" width="100.01" height="12"/>
			<rect x="0" y="829.89" width="100" height="12" class="st9"/>
			<text x="12.48" y="838.89" class="st10" v:langID="2057"><v:paragraph v:horizAlign="1"/><v:tabList/>ObjectTypeNode</text>		</g>
		<g id="shape42-132" v:mID="42" v:groupContext="shape" transform="translate(70.0787,-175.291)">
			<title>Sheet.42</title>
			<desc>AlphaNode</desc>
			<v:textBlock v:margins="rect(2,2,2,2)" v:tabSpace="42.5197"/>
			<v:textRect cx="50" cy="835.89" width="100.01" height="12"/>
			<rect x="0" y="829.89" width="100" height="12" class="st9"/>
			<text x="25.26" y="838.89" class="st10" v:langID="2057"><v:paragraph v:horizAlign="1"/><v:tabList/>AlphaNode</text>		</g>
		<g id="shape43-135" v:mID="43" v:groupContext="shape" transform="translate(89.9213,-134.898)">
			<title>Sheet.43</title>
			<desc>LeftInputAdapterNode</desc>
			<v:textBlock v:margins="rect(2,2,2,2)" v:tabSpace="42.5197"/>
			<v:textRect cx="57.0866" cy="835.89" width="114.18" height="12"/>
			<rect x="0" y="829.89" width="114.173" height="12" class="st9"/>
			<text x="8.15" y="838.89" class="st10" v:langID="2057"><v:paragraph v:horizAlign="1"/><v:tabList/>LeftInputAdapterNode</text>		</g>
		<g id="shape44-138" v:mID="44" v:groupContext="shape" transform="translate(362.047,-151.197)">
			<title>Sheet.44</title>
			<desc>NotNode</desc>
			<v:textBlock v:margins="rect(2,2,2,2)" v:tabSpace="42.5197"/>
			<v:textRect cx="50" cy="835.89" width="100.01" height="12"/>
			<rect x="0" y="829.89" width="100" height="12" class="st9"/>
			<text x="30.27" y="838.89" class="st10" v:langID="2057"><v:paragraph v:horizAlign="1"/><v:tabList/>NotNode</text>		</g>
		<g id="shape45-141" v:mID="45" v:groupContext="shape" transform="translate(363.858,-212.142)">
			<title>Sheet.45</title>
			<desc>JoinNode</desc>
			<v:textBlock v:margins="rect(2,2,2,2)" v:tabSpace="42.5197"/>
			<v:textRect cx="50" cy="835.89" width="100.01" height="12"/>
			<rect x="0" y="829.89" width="100" height="12" class="st9"/>
			<text x="28.87" y="838.89" class="st10" v:langID="2057"><v:paragraph v:horizAlign="1"/><v:tabList/>JoinNode</text>		</g>
		<g id="shape46-144" v:mID="46" v:groupContext="shape" transform="translate(372.362,-81.874)">
			<title>Sheet.46</title>
			<desc>TerminalNode</desc>
			<v:textBlock v:margins="rect(2,2,2,2)" v:tabSpace="42.5197"/>
			<v:textRect cx="50" cy="835.89" width="100.01" height="12"/>
			<rect x="0" y="829.89" width="100" height="12" class="st9"/>
			<text x="18.6" y="838.89" class="st10" v:langID="2057"><v:paragraph v:horizAlign="1"/><v:tabList/>TerminalNode</text>		</g>
		<g id="shape47-147" v:mID="47" v:groupContext="shape" transform="translate(111.575,-620.787)">
			<title>Sheet.47</title>
			<desc>pathDone==true</desc>
			<v:textBlock v:margins="rect(2,2,2,2)" v:tabSpace="42.5197"/>
			<v:textRect cx="50" cy="835.89" width="100.01" height="12"/>
			<rect x="0" y="829.89" width="100" height="12" class="st9"/>
			<text x="13.86" y="838.89" class="st10" v:langID="2057"><v:paragraph v:horizAlign="1"/><v:tabList/>pathDone==true</text>		</g>
		<g id="shape48-150" v:mID="48" v:groupContext="shape" transform="translate(98.8189,-801.874)">
			<title>Sheet.48</title>
			<desc>Path Done</desc>
			<v:textBlock v:margins="rect(2,2,2,2)" v:tabSpace="42.5197"/>
			<v:textRect cx="50" cy="835.89" width="100.01" height="12"/>
			<rect x="0" y="829.89" width="100" height="12" class="st9"/>
			<text x="16.92" y="840.09" class="st14" v:langID="2057"><v:paragraph v:horizAlign="1"/><v:tabList/>Path Done</text>		</g>
		<g id="shape49-153" v:mID="49" v:groupContext="shape" transform="translate(340.157,-801.874)">
			<title>Sheet.49</title>
			<desc>Make Path</desc>
			<v:textBlock v:margins="rect(2,2,2,2)" v:tabSpace="42.5197"/>
			<v:textRect cx="50" cy="835.89" width="100.01" height="12"/>
			<rect x="0" y="829.89" width="100" height="12" class="st9"/>
			<text x="16.54" y="840.09" class="st14" v:langID="2057"><v:paragraph v:horizAlign="1"/><v:tabList/>Make Path</text>		</g>
	</g>
</svg>
