<?xml version="1.0" encoding="UTF-8" standalone="no"?>
<!DOCTYPE svg PUBLIC "-//W3C//DTD SVG 1.0//EN" "http://www.w3.org/TR/2001/REC-SVG-20010904/DTD/svg10.dtd">
<!-- Generated by Microsoft Visio 11.0, SVG Export, v1.0 bound_column.svg Page-1 -->
<svg xmlns="http://www.w3.org/2000/svg" xmlns:v="http://schemas.microsoft.com/visio/2003/SVGExtensions/" width="2.99879in"
		height="0.449594in" viewBox="0 0 215.913 32.3708" xml:space="preserve" color-interpolation-filters="sRGB" class="st7">
	<v:documentProperties v:langID="1033" v:metric="true" v:viewMarkup="false"/>

	<style type="text/css">
	<![CDATA[
		.st1 {fill:#e8eef7;stroke:#000000;stroke-linecap:round;stroke-linejoin:round;stroke-width:0.24}
		.st2 {fill:#000000;font-family:Arial;font-size:0.666664em;font-style:italic}
		.st3 {fill:#000000;font-family:Arial;font-size:0.666664em}
		.st4 {font-size:1em}
		.st5 {marker-end:url(#mrkr2-13);stroke:#4677bf;stroke-linecap:round;stroke-linejoin:round;stroke-width:0.24}
		.st6 {fill:#4677bf;fill-opacity:1;stroke:#4677bf;stroke-opacity:1;stroke-width:0.08695652173913}
		.st7 {fill:none;fill-rule:evenodd;font-size:12;overflow:visible;stroke-linecap:square;stroke-miterlimit:3}
	]]>
	</style>

	<defs id="Markers">
		<g id="lend2">
			<path d="M 1 1 L 0 0 L 1 -1 L 1 1 " style="stroke:none"/>
		</g>
		<marker id="mrkr2-13" class="st6" v:arrowType="2" v:arrowSize="2" v:setback="11.5" refX="-11.5" orient="auto"
				markerUnits="strokeWidth">
			<use xlink:href="#lend2" transform="scale(-11.5,-11.5) "/>
		</marker>
	</defs>
	<g v:mID="0" v:index="1" v:groupContext="foregroundPage">
		<title>Page-1</title>
		<v:pageProperties v:drawingScale="0.0393701" v:pageScale="0.0393701" v:drawingUnits="24" v:shadowOffsetX="8.50394"
				v:shadowOffsetY="-8.50394"/>
		<v:layer v:name="Flowchart" v:index="0"/>
		<v:layer v:name="Connector" v:index="1"/>
		<g id="shape24-1" v:mID="24" v:groupContext="shape" v:layerMember="0" transform="translate(30.8508,-1.67704)">
			<title>Process.24</title>
			<desc>factBinding</desc>
			<v:custProps>
				<v:cp v:nameU="Cost" v:lbl="Cost" v:type="7" v:format="@" v:langID="1033"/>
				<v:cp v:nameU="Duration" v:lbl="Duration" v:type="2" v:langID="1033"/>
				<v:cp v:nameU="Resources" v:lbl="Resources" v:langID="1033"/>
			</v:custProps>
			<v:userDefs>
				<v:ud v:nameU="visVersion" v:val="VT0(11):26"/>
			</v:userDefs>
			<v:textBlock v:margins="rect(2,2,2,2)" v:tabSpace="42.5197"/>
			<v:textRect cx="28.0637" cy="25.2478" width="56.13" height="14.2459"/>
			<rect x="0" y="18.1249" width="56.1275" height="14.2459" rx="2.83465" ry="2.83465" class="st1"/>
			<text x="8.28" y="27.65" class="st2" v:langID="2057"><v:paragraph v:horizAlign="1"/><v:tabList/>factBinding</text>		</g>
		<g id="shape25-4" v:mID="25" v:groupContext="shape" v:layerMember="0" transform="translate(102.46,-1.67704)">
			<title>Process.25</title>
			<desc>‘:’</desc>
			<v:custProps>
				<v:cp v:nameU="Cost" v:lbl="Cost" v:type="7" v:format="@" v:langID="1033"/>
				<v:cp v:nameU="Duration" v:lbl="Duration" v:type="2" v:langID="1033"/>
				<v:cp v:nameU="Resources" v:lbl="Resources" v:langID="1033"/>
			</v:custProps>
			<v:userDefs>
				<v:ud v:nameU="visVersion" v:val="VT0(11):26"/>
			</v:userDefs>
			<v:textBlock v:margins="rect(2,2,2,2)" v:tabSpace="42.5197"/>
			<v:textRect cx="10.6844" cy="25.2478" width="21.37" height="14.2459"/>
			<rect x="0" y="18.1249" width="21.3689" height="14.2459" rx="2.83465" ry="2.83465" class="st1"/>
			<text x="7.79" y="27.65" class="st3" v:langID="1033"><v:paragraph v:horizAlign="1"/><v:tabList/>‘<tspan class="st4"
						v:langID="2057">:</tspan>’</text>		</g>
		<g id="shape26-8" v:mID="26" v:groupContext="shape" v:layerMember="1" transform="translate(12.7052,-15.9037)">
			<title>Dynamic connector.26</title>
			<path d="M0 39.44 L10.61 39.44 a0.0171298 0.0171298 0 0 1 0.0171298 0.0171298 L10.63 39.46 a0.0171298 0.0171298 -180
						 0 0 0.0171298 0.0171298 L15.39 39.47" class="st5"/>
		</g>
		<g id="shape27-14" v:mID="27" v:groupContext="shape" v:layerMember="1" transform="translate(123.829,-1.71339)">
			<title>Dynamic connector.27</title>
			<path d="M0 25.28 L15.96 25.28" class="st5"/>
		</g>
		<g id="shape52-19" v:mID="52" v:groupContext="shape" v:layerMember="1" transform="translate(86.9783,-1.71339)">
			<title>Dynamic connector.52</title>
			<path d="M0 25.28 L12.72 25.28" class="st5"/>
		</g>
		<g id="shape82-24" v:mID="82" v:groupContext="shape" v:layerMember="1;0" transform="translate(0.24,-2.60167)">
			<title>On-page reference.82</title>
			<v:userDefs>
				<v:ud v:nameU="visVersion" v:val="VT0(11):26"/>
			</v:userDefs>
			<v:textBlock v:margins="rect(2,2,2,2)" v:tabSpace="42.5197"/>
			<path d="M0 26.14 A6.23259 6.23259 0 0 1 12.47 26.14 A6.23259 6.23259 0 1 1 0 26.14 Z" class="st1"/>
		</g>
		<g id="shape83-26" v:mID="83" v:groupContext="shape" v:layerMember="1;0" transform="translate(203.208,-2.56741)">
			<title>On-page reference.83</title>
			<v:userDefs>
				<v:ud v:nameU="visVersion" v:val="VT0(11):26"/>
			</v:userDefs>
			<v:textBlock v:margins="rect(2,2,2,2)" v:tabSpace="42.5197"/>
			<path d="M0 26.14 A6.23259 6.23259 0 0 1 12.47 26.14 A6.23259 6.23259 0 1 1 0 26.14 Z" class="st1"/>
		</g>
		<g id="shape84-28" v:mID="84" v:groupContext="shape" v:layerMember="1" transform="translate(12.7052,-15.9037)">
			<title>Dynamic connector.84</title>
			<path d="M0 39.44 L6.81 39.44 A5.66929 5.66929 -180 0 0 12.48 33.77 L12.48 30.37 A5.66929 5.66929 0 0 1 18.15 24.7 L115.09
						 24.7 A5.66929 5.66929 0 0 1 120.76 30.37 L120.76 34.94 A4.53816 4.53816 -180 0 0 125.3 39.47 L127.08 39.47"
					class="st5"/>
		</g>
		<g id="shape85-33" v:mID="85" v:groupContext="shape" v:layerMember="1" transform="translate(185.483,-1.71339)">
			<title>Dynamic connector.85</title>
			<path d="M0 25.28 L14.97 25.28" class="st5"/>
		</g>
		<g id="shape2-38" v:mID="2" v:groupContext="shape" v:layerMember="0" transform="translate(142.545,-2.13018)">
			<title>Process.74</title>
			<desc>column</desc>
			<v:custProps>
				<v:cp v:nameU="Cost" v:lbl="Cost" v:type="7" v:format="@" v:langID="1033"/>
				<v:cp v:nameU="Duration" v:lbl="Duration" v:type="2" v:langID="1033"/>
				<v:cp v:nameU="Resources" v:lbl="Resources" v:langID="1033"/>
			</v:custProps>
			<v:userDefs>
				<v:ud v:nameU="visVersion" v:val="VT0(11):26"/>
			</v:userDefs>
			<v:textBlock v:margins="rect(2,2,2,2)" v:tabSpace="42.5197"/>
			<v:textRect cx="21.4689" cy="25.701" width="42.94" height="13.3396"/>
			<rect x="0" y="19.0311" width="42.9378" height="13.3396" rx="2.83465" ry="2.83465" class="st1"/>
			<text x="8.58" y="28.1" class="st2" v:langID="2057"><v:paragraph v:horizAlign="1"/><v:tabList/>column</text>		</g>
	</g>
</svg>
