<?xml version="1.0" encoding="UTF-8" standalone="no"?>
<!DOCTYPE svg PUBLIC "-//W3C//DTD SVG 1.0//EN" "http://www.w3.org/TR/2001/REC-SVG-20010904/DTD/svg10.dtd">
<!-- Generated by Microsoft Visio 11.0, SVG Export, v1.0 column.svg Page-1 -->
<svg xmlns="http://www.w3.org/2000/svg" xmlns:v="http://schemas.microsoft.com/visio/2003/SVGExtensions/" width="4.42394in"
		height="3.00488in" viewBox="0 0 318.524 216.351" xml:space="preserve" color-interpolation-filters="sRGB" class="st7">
	<v:documentProperties v:langID="1033" v:metric="true" v:viewMarkup="false"/>

	<style type="text/css">
	<![CDATA[
		.st1 {fill:#e8eef7;stroke:#000000;stroke-linecap:round;stroke-linejoin:round;stroke-width:0.24}
		.st2 {fill:#000000;font-family:Arial;font-size:0.666664em}
		.st3 {fill:#000000;font-family:Arial;font-size:0.666664em;font-style:italic}
		.st4 {font-size:1em}
		.st5 {marker-end:url(#mrkr2-16);stroke:#4677bf;stroke-linecap:round;stroke-linejoin:round;stroke-width:0.24}
		.st6 {fill:#4677bf;fill-opacity:1;stroke:#4677bf;stroke-opacity:1;stroke-width:0.08695652173913}
		.st7 {fill:none;fill-rule:evenodd;font-size:12;overflow:visible;stroke-linecap:square;stroke-miterlimit:3}
	]]>
	</style>

	<defs id="Markers">
		<g id="lend2">
			<path d="M 1 1 L 0 0 L 1 -1 L 1 1 " style="stroke:none"/>
		</g>
		<marker id="mrkr2-16" class="st6" v:arrowType="2" v:arrowSize="2" v:setback="11.5" refX="-11.5" orient="auto"
				markerUnits="strokeWidth">
			<use xlink:href="#lend2" transform="scale(-11.5,-11.5) "/>
		</marker>
	</defs>
	<g v:mID="0" v:index="1" v:groupContext="foregroundPage">
		<title>Page-1</title>
		<v:pageProperties v:drawingScale="0.0393701" v:pageScale="0.0393701" v:drawingUnits="24" v:shadowOffsetX="8.50394"
				v:shadowOffsetY="-8.50394"/>
		<v:layer v:name="Flowchart" v:index="0"/>
		<v:layer v:name="Connector" v:index="1"/>
		<g id="shape1-1" v:mID="1" v:groupContext="shape" v:layerMember="0" transform="translate(155.291,-168.449)">
			<title>Process.103</title>
			<desc>fact</desc>
			<v:custProps>
				<v:cp v:nameU="Cost" v:lbl="Cost" v:type="7" v:format="@" v:langID="1033"/>
				<v:cp v:nameU="Duration" v:lbl="Duration" v:type="2" v:langID="1033"/>
				<v:cp v:nameU="Resources" v:lbl="Resources" v:langID="1033"/>
			</v:custProps>
			<v:userDefs>
				<v:ud v:nameU="visVersion" v:val="VT0(11):26"/>
			</v:userDefs>
			<v:textBlock v:margins="rect(2,2,2,2)" v:tabSpace="42.5197"/>
			<v:textRect cx="16.9746" cy="209.228" width="33.95" height="14.2459"/>
			<rect x="0" y="202.106" width="33.9492" height="14.2459" rx="2.83465" ry="2.83465" class="st1"/>
			<text x="10.53" y="211.63" class="st2" v:langID="2057"><v:paragraph v:horizAlign="1"/><v:tabList/>fact</text>		</g>
		<g id="shape2-4" v:mID="2" v:groupContext="shape" v:layerMember="0" transform="translate(35.3845,-168.449)">
			<title>Process.104</title>
			<desc>factBinding</desc>
			<v:custProps>
				<v:cp v:nameU="Cost" v:lbl="Cost" v:type="7" v:format="@" v:langID="1033"/>
				<v:cp v:nameU="Duration" v:lbl="Duration" v:type="2" v:langID="1033"/>
				<v:cp v:nameU="Resources" v:lbl="Resources" v:langID="1033"/>
			</v:custProps>
			<v:userDefs>
				<v:ud v:nameU="visVersion" v:val="VT0(11):26"/>
			</v:userDefs>
			<v:textBlock v:margins="rect(2,2,2,2)" v:tabSpace="42.5197"/>
			<v:textRect cx="28.0637" cy="209.228" width="56.13" height="14.2459"/>
			<rect x="0" y="202.106" width="56.1275" height="14.2459" rx="2.83465" ry="2.83465" class="st1"/>
			<text x="8.28" y="211.63" class="st3" v:langID="2057"><v:paragraph v:horizAlign="1"/><v:tabList/>factBinding</text>		</g>
		<g id="shape3-7" v:mID="3" v:groupContext="shape" v:layerMember="0" transform="translate(106.993,-168.449)">
			<title>Process.102</title>
			<desc>‘:’</desc>
			<v:custProps>
				<v:cp v:nameU="Cost" v:lbl="Cost" v:type="7" v:format="@" v:langID="1033"/>
				<v:cp v:nameU="Duration" v:lbl="Duration" v:type="2" v:langID="1033"/>
				<v:cp v:nameU="Resources" v:lbl="Resources" v:langID="1033"/>
			</v:custProps>
			<v:userDefs>
				<v:ud v:nameU="visVersion" v:val="VT0(11):26"/>
			</v:userDefs>
			<v:textBlock v:margins="rect(2,2,2,2)" v:tabSpace="42.5197"/>
			<v:textRect cx="10.6844" cy="209.228" width="21.37" height="14.2459"/>
			<rect x="0" y="202.106" width="21.3689" height="14.2459" rx="2.83465" ry="2.83465" class="st1"/>
			<text x="7.79" y="211.63" class="st2" v:langID="1033"><v:paragraph v:horizAlign="1"/><v:tabList/>‘<tspan class="st4"
						v:langID="2057">:</tspan>’</text>		</g>
		<g id="shape4-11" v:mID="4" v:groupContext="shape" v:layerMember="1" transform="translate(6.47259,-203.646)">
			<title>Dynamic connector.105</title>
			<path d="M0 216.35 L0 238.76 A5.66929 5.66929 -180 0 0 5.67 244.43 L26.15 244.43" class="st5"/>
		</g>
		<g id="shape5-17" v:mID="5" v:groupContext="shape" v:layerMember="1" transform="translate(128.362,-168.485)">
			<title>Dynamic connector.106</title>
			<path d="M0 209.26 L24.17 209.26" class="st5"/>
		</g>
		<g id="shape6-22" v:mID="6" v:groupContext="shape" v:layerMember="1" transform="translate(91.512,-168.485)">
			<title>Dynamic connector.108</title>
			<path d="M0 209.26 L12.72 209.26" class="st5"/>
		</g>
		<g id="shape7-27" v:mID="7" v:groupContext="shape" v:layerMember="0" transform="translate(34.819,-139.867)">
			<title>Process.109</title>
			<desc>‘(‘</desc>
			<v:custProps>
				<v:cp v:nameU="Cost" v:lbl="Cost" v:type="7" v:format="@" v:langID="1033"/>
				<v:cp v:nameU="Duration" v:lbl="Duration" v:type="2" v:langID="1033"/>
				<v:cp v:nameU="Resources" v:lbl="Resources" v:langID="1033"/>
			</v:custProps>
			<v:userDefs>
				<v:ud v:nameU="visVersion" v:val="VT0(11):26"/>
			</v:userDefs>
			<v:textBlock v:margins="rect(2,2,2,2)" v:tabSpace="42.5197"/>
			<v:textRect cx="10.6844" cy="209.228" width="21.37" height="14.2459"/>
			<rect x="0" y="202.106" width="21.3689" height="14.2459" rx="2.83465" ry="2.83465" class="st1"/>
			<text x="7.57" y="211.63" class="st2" v:langID="1033"><v:paragraph v:horizAlign="1"/><v:tabList/>‘<tspan class="st4"
						v:langID="2057">(</tspan>‘</text>		</g>
		<g id="shape8-31" v:mID="8" v:groupContext="shape" v:layerMember="0" transform="translate(275.764,-139.867)">
			<title>Process.110</title>
			<desc>‘)’</desc>
			<v:custProps>
				<v:cp v:nameU="Cost" v:lbl="Cost" v:type="7" v:format="@" v:langID="1033"/>
				<v:cp v:nameU="Duration" v:lbl="Duration" v:type="2" v:langID="1033"/>
				<v:cp v:nameU="Resources" v:lbl="Resources" v:langID="1033"/>
			</v:custProps>
			<v:userDefs>
				<v:ud v:nameU="visVersion" v:val="VT0(11):26"/>
			</v:userDefs>
			<v:textBlock v:margins="rect(2,2,2,2)" v:tabSpace="42.5197"/>
			<v:textRect cx="10.6844" cy="209.228" width="21.37" height="14.2459"/>
			<rect x="0" y="202.106" width="21.3689" height="14.2459" rx="2.83465" ry="2.83465" class="st1"/>
			<text x="7.57" y="211.63" class="st2" v:langID="1033"><v:paragraph v:horizAlign="1"/><v:tabList/>‘<tspan class="st4"
						v:langID="2057">)</tspan>’</text>		</g>
		<g id="shape9-35" v:mID="9" v:groupContext="shape" v:layerMember="1" transform="translate(189.241,-175.572)">
			<title>Dynamic connector.111</title>
			<path d="M0 216.35 L7.83 216.35 L7.83 230.8 L-168.65 230.8 L-168.65 244.93 L-157.18 244.93" class="st5"/>
		</g>
		<g id="shape10-40" v:mID="10" v:groupContext="shape" v:layerMember="0" transform="translate(183.638,-118.607)">
			<title>Process.113</title>
			<desc>field</desc>
			<v:custProps>
				<v:cp v:nameU="Cost" v:lbl="Cost" v:type="7" v:format="@" v:langID="1033"/>
				<v:cp v:nameU="Duration" v:lbl="Duration" v:type="2" v:langID="1033"/>
				<v:cp v:nameU="Resources" v:lbl="Resources" v:langID="1033"/>
			</v:custProps>
			<v:userDefs>
				<v:ud v:nameU="visVersion" v:val="VT0(11):26"/>
			</v:userDefs>
			<v:textBlock v:margins="rect(2,2,2,2)" v:tabSpace="42.5197"/>
			<v:textRect cx="24.6521" cy="209.228" width="49.31" height="14.2459"/>
			<rect x="0" y="202.106" width="49.3042" height="14.2459" rx="2.83465" ry="2.83465" class="st1"/>
			<text x="17.31" y="211.63" class="st3" v:langID="2057"><v:paragraph v:horizAlign="1"/><v:tabList/>field</text>		</g>
		<g id="shape11-43" v:mID="11" v:groupContext="shape" v:layerMember="0" transform="translate(70.8608,-118.534)">
			<title>Process.114</title>
			<desc>fieldBinding</desc>
			<v:custProps>
				<v:cp v:nameU="Cost" v:lbl="Cost" v:type="7" v:format="@" v:langID="1033"/>
				<v:cp v:nameU="Duration" v:lbl="Duration" v:type="2" v:langID="1033"/>
				<v:cp v:nameU="Resources" v:lbl="Resources" v:langID="1033"/>
			</v:custProps>
			<v:userDefs>
				<v:ud v:nameU="visVersion" v:val="VT0(11):26"/>
			</v:userDefs>
			<v:textBlock v:margins="rect(2,2,2,2)" v:tabSpace="42.5197"/>
			<v:textRect cx="30.8767" cy="209.228" width="61.76" height="14.2459"/>
			<rect x="0" y="202.106" width="61.7535" height="14.2459" rx="2.83465" ry="2.83465" class="st1"/>
			<text x="10.19" y="211.63" class="st3" v:langID="2057"><v:paragraph v:horizAlign="1"/><v:tabList/>fieldBinding</text>		</g>
		<g id="shape12-46" v:mID="12" v:groupContext="shape" v:layerMember="0" transform="translate(148.859,-118.607)">
			<title>Process.115</title>
			<desc>‘:’</desc>
			<v:custProps>
				<v:cp v:nameU="Cost" v:lbl="Cost" v:type="7" v:format="@" v:langID="1033"/>
				<v:cp v:nameU="Duration" v:lbl="Duration" v:type="2" v:langID="1033"/>
				<v:cp v:nameU="Resources" v:lbl="Resources" v:langID="1033"/>
			</v:custProps>
			<v:userDefs>
				<v:ud v:nameU="visVersion" v:val="VT0(11):26"/>
			</v:userDefs>
			<v:textBlock v:margins="rect(2,2,2,2)" v:tabSpace="42.5197"/>
			<v:textRect cx="10.6844" cy="209.228" width="21.37" height="14.2459"/>
			<rect x="0" y="202.106" width="21.3689" height="14.2459" rx="2.83465" ry="2.83465" class="st1"/>
			<text x="7.79" y="211.63" class="st2" v:langID="1033"><v:paragraph v:horizAlign="1"/><v:tabList/>‘<tspan class="st4"
						v:langID="2057">:</tspan>’</text>		</g>
		<g id="shape13-50" v:mID="13" v:groupContext="shape" v:layerMember="1" transform="translate(169.846,-118.643)">
			<title>Dynamic connector.117</title>
			<path d="M0.38 209.26 L11.03 209.26" class="st5"/>
		</g>
		<g id="shape15-55" v:mID="15" v:groupContext="shape" v:layerMember="1" transform="translate(132.614,-118.607)">
			<title>Dynamic connector.119</title>
			<path d="M0 209.3 L8.5 209.3 L8.5 209.23 L13.48 209.23" class="st5"/>
		</g>
		<g id="shape16-60" v:mID="16" v:groupContext="shape" v:layerMember="0" transform="translate(84.4253,-90.1878)">
			<title>Process.120</title>
			<desc>operator</desc>
			<v:custProps>
				<v:cp v:nameU="Cost" v:lbl="Cost" v:type="7" v:format="@" v:langID="1033"/>
				<v:cp v:nameU="Duration" v:lbl="Duration" v:type="2" v:langID="1033"/>
				<v:cp v:nameU="Resources" v:lbl="Resources" v:langID="1033"/>
			</v:custProps>
			<v:userDefs>
				<v:ud v:nameU="visVersion" v:val="VT0(11):26"/>
			</v:userDefs>
			<v:textBlock v:margins="rect(2,2,2,2)" v:tabSpace="42.5197"/>
			<v:textRect cx="24.6521" cy="209.228" width="49.31" height="14.2459"/>
			<rect x="0" y="202.106" width="49.3042" height="14.2459" rx="2.83465" ry="2.83465" class="st1"/>
			<text x="9.75" y="211.63" class="st3" v:langID="2057"><v:paragraph v:horizAlign="1"/><v:tabList/>operator</text>		</g>
		<g id="shape17-63" v:mID="17" v:groupContext="shape" v:layerMember="0" transform="translate(161.887,-90.1878)">
			<title>Process.121</title>
			<desc>literalConstraint</desc>
			<v:custProps>
				<v:cp v:nameU="Cost" v:lbl="Cost" v:type="7" v:format="@" v:langID="1033"/>
				<v:cp v:nameU="Duration" v:lbl="Duration" v:type="2" v:langID="1033"/>
				<v:cp v:nameU="Resources" v:lbl="Resources" v:langID="1033"/>
			</v:custProps>
			<v:userDefs>
				<v:ud v:nameU="visVersion" v:val="VT0(11):26"/>
			</v:userDefs>
			<v:textBlock v:margins="rect(2,2,2,2)" v:tabSpace="42.5197"/>
			<v:textRect cx="36.6732" cy="209.228" width="73.35" height="14.2459"/>
			<rect x="0" y="202.106" width="73.3465" height="14.2459" rx="2.83465" ry="2.83465" class="st1"/>
			<text x="8.89" y="211.63" class="st3" v:langID="2057"><v:paragraph v:horizAlign="1"/><v:tabList/>literalConstraint</text>		</g>
		<g id="shape18-66" v:mID="18" v:groupContext="shape" v:layerMember="0" transform="translate(156.545,-52.7922)">
			<title>Process.122</title>
			<desc>returnValueConstraint</desc>
			<v:custProps>
				<v:cp v:nameU="Cost" v:lbl="Cost" v:type="7" v:format="@" v:langID="1033"/>
				<v:cp v:nameU="Duration" v:lbl="Duration" v:type="2" v:langID="1033"/>
				<v:cp v:nameU="Resources" v:lbl="Resources" v:langID="1033"/>
			</v:custProps>
			<v:userDefs>
				<v:ud v:nameU="visVersion" v:val="VT0(11):26"/>
			</v:userDefs>
			<v:textBlock v:margins="rect(2,2,2,2)" v:tabSpace="42.5197"/>
			<v:textRect cx="45.0136" cy="209.228" width="90.03" height="14.2459"/>
			<rect x="0" y="202.106" width="90.0273" height="14.2459" rx="2.83465" ry="2.83465" class="st1"/>
			<text x="6.11" y="211.63" class="st3" v:langID="2057"><v:paragraph v:horizAlign="1"/><v:tabList/>returnValueConstraint</text>		</g>
		<g id="shape19-69" v:mID="19" v:groupContext="shape" v:layerMember="1" transform="translate(56.1879,-146.99)">
			<title>Dynamic connector.125</title>
			<path d="M0 216.35 L3.79 216.35 A3.79316 3.79316 0 0 1 7.59 220.14 L7.59 234.14 A3.54331 3.54331 -180 0 0 11.13 237.68
						 L11.91 237.68" class="st5"/>
		</g>
		<g id="shape20-74" v:mID="20" v:groupContext="shape" v:layerMember="1" transform="translate(133.73,-97.3107)">
			<title>Dynamic connector.126</title>
			<path d="M0 216.35 L5.31 216.35 A5.31496 5.31496 0 0 1 10.63 221.67 L10.63 248.08 A5.66929 5.66929 -180 0 0 16.3 253.75
						 L20.06 253.75" class="st5"/>
		</g>
		<g id="shape21-79" v:mID="21" v:groupContext="shape" v:layerMember="1" transform="translate(133.73,-90.2241)">
			<title>Dynamic connector.127</title>
			<path d="M0 209.26 L25.4 209.26" class="st5"/>
		</g>
		<g id="shape22-84" v:mID="22" v:groupContext="shape" v:layerMember="1" transform="translate(246.573,-59.9152)">
			<title>Dynamic connector.128</title>
			<path d="M0 216.35 L9.35 216.35 A5.66929 5.66929 -180 0 0 15.02 210.68 L15.02 134.95 A5.66929 5.66929 0 0 1 20.69 129.28
						 L26.43 129.28" class="st5"/>
		</g>
		<g id="shape23-89" v:mID="23" v:groupContext="shape" v:layerMember="1" transform="translate(235.234,-97.3107)">
			<title>Dynamic connector.129</title>
			<path d="M0 216.35 L20.69 216.35 A5.66929 5.66929 -180 0 0 26.36 210.68 L26.36 172.34 A5.66929 5.66929 0 0 1 32.03 166.67
						 L37.77 166.67" class="st5"/>
		</g>
		<g id="shape28-94" v:mID="28" v:groupContext="shape" v:layerMember="0" transform="translate(88.2929,-22.9649)">
			<title>Process.135</title>
			<desc>‘-&#62;’</desc>
			<v:custProps>
				<v:cp v:nameU="Cost" v:lbl="Cost" v:type="7" v:format="@" v:langID="1033"/>
				<v:cp v:nameU="Duration" v:lbl="Duration" v:type="2" v:langID="1033"/>
				<v:cp v:nameU="Resources" v:lbl="Resources" v:langID="1033"/>
			</v:custProps>
			<v:userDefs>
				<v:ud v:nameU="visVersion" v:val="VT0(11):26"/>
			</v:userDefs>
			<v:textBlock v:margins="rect(2,2,2,2)" v:tabSpace="42.5197"/>
			<v:textRect cx="13.8703" cy="209.228" width="27.75" height="14.2459"/>
			<rect x="0" y="202.106" width="27.7406" height="14.2459" rx="2.83465" ry="2.83465" class="st1"/>
			<text x="8.43" y="211.63" class="st2" v:langID="1033"><v:paragraph v:horizAlign="1"/><v:tabList/>‘<tspan class="st4"
						v:langID="2057">-</tspan><tspan class="st4" v:langID="2057">&#62;</tspan>’</text>		</g>
		<g id="shape29-99" v:mID="29" v:groupContext="shape" v:layerMember="1" transform="translate(232.942,-125.73)">
			<title>Dynamic connector.136</title>
			<path d="M0 216.35 L22.98 216.35 A5.66929 5.66929 -180 0 0 28.65 210.68 L28.65 200.76 A5.66929 5.66929 0 0 1 34.32 195.09
						 L40.06 195.09" class="st5"/>
		</g>
		<g id="shape30-104" v:mID="30" v:groupContext="shape" v:layerMember="1" transform="translate(232.942,-125.73)">
			<title>Dynamic connector.137</title>
			<path d="M0 216.35 L22.98 216.35 A5.66929 5.66929 0 0 1 28.65 222.02 L28.65 224.89 A5.66929 5.66929 0 0 1 22.98 230.56
						 L-157.02 230.56 A5.66929 5.66929 -180 0 0 -162.69 236.23 L-162.69 239.1 A5.66929 5.66929 -180 0 0 -157.02
						 244.77 L-151.28 244.77" class="st5"/>
		</g>
		<g id="shape31-109" v:mID="31" v:groupContext="shape" v:layerMember="1" transform="translate(232.942,-125.73)">
			<title>Dynamic connector.138</title>
			<path d="M0 216.35 L22.98 216.35 A5.66929 5.66929 0 0 1 28.65 222.02 L28.65 224.89 A5.66929 5.66929 0 0 1 22.98 230.56
						 L-157.02 230.56 A5.66929 5.66929 -180 0 0 -162.69 236.23 L-162.69 306.32 A5.66929 5.66929 -180 0 0 -157.02
						 311.99 L-147.41 311.99" class="st5"/>
		</g>
		<g id="shape32-114" v:mID="32" v:groupContext="shape" v:layerMember="0" transform="translate(164.253,-22.9649)">
			<title>Process.123</title>
			<desc>predicateConstraint</desc>
			<v:custProps>
				<v:cp v:nameU="Cost" v:lbl="Cost" v:type="7" v:format="@" v:langID="1033"/>
				<v:cp v:nameU="Duration" v:lbl="Duration" v:type="2" v:langID="1033"/>
				<v:cp v:nameU="Resources" v:lbl="Resources" v:langID="1033"/>
			</v:custProps>
			<v:userDefs>
				<v:ud v:nameU="visVersion" v:val="VT0(11):26"/>
			</v:userDefs>
			<v:textBlock v:margins="rect(2,2,2,2)" v:tabSpace="42.5197"/>
			<v:textRect cx="39.034" cy="209.228" width="78.07" height="14.2459"/>
			<rect x="0" y="202.106" width="78.068" height="14.2459" rx="2.83465" ry="2.83465" class="st1"/>
			<text x="4.34" y="211.63" class="st3" v:langID="2057"><v:paragraph v:horizAlign="1"/><v:tabList/>predicateConstraint</text>		</g>
		<g id="shape33-117" v:mID="33" v:groupContext="shape" v:layerMember="1" transform="translate(116.033,-23.0012)">
			<title>Dynamic connector.139</title>
			<path d="M0 209.26 L45.46 209.26" class="st5"/>
		</g>
		<g id="shape34-122" v:mID="34" v:groupContext="shape" v:layerMember="1" transform="translate(242.321,-30.0878)">
			<title>Dynamic connector.140</title>
			<path d="M0 216.35 L13.6 216.35 A5.66929 5.66929 -180 0 0 19.27 210.68 L19.27 105.12 A5.66929 5.66929 0 0 1 24.94 99.45
						 L30.68 99.45" class="st5"/>
		</g>
		<g id="shape35-127" v:mID="35" v:groupContext="shape" v:layerMember="1" transform="translate(56.1879,-139.903)">
			<title>Dynamic connector.116</title>
			<path d="M0 209.26 L216.82 209.26" class="st5"/>
		</g>
		<g id="shape36-132" v:mID="36" v:groupContext="shape" v:layerMember="0" transform="translate(92.4478,-0.24)">
			<title>Process.124</title>
			<desc>‘,’</desc>
			<v:custProps>
				<v:cp v:nameU="Cost" v:lbl="Cost" v:type="7" v:format="@" v:langID="1033"/>
				<v:cp v:nameU="Duration" v:lbl="Duration" v:type="2" v:langID="1033"/>
				<v:cp v:nameU="Resources" v:lbl="Resources" v:langID="1033"/>
			</v:custProps>
			<v:userDefs>
				<v:ud v:nameU="visVersion" v:val="VT0(11):26"/>
			</v:userDefs>
			<v:textBlock v:margins="rect(2,2,2,2)" v:tabSpace="42.5197"/>
			<v:textRect cx="10.6844" cy="209.228" width="21.37" height="14.2459"/>
			<rect x="0" y="202.106" width="21.3689" height="14.2459" rx="2.83465" ry="2.83465" class="st1"/>
			<text x="7.79" y="211.63" class="st2" v:langID="2057"><v:paragraph v:horizAlign="1"/><v:tabList/>‘,’</text>		</g>
		<g id="shape37-135" v:mID="37" v:groupContext="shape" v:layerMember="1" transform="translate(242.321,-30.0878)">
			<title>Dynamic connector.141</title>
			<path d="M0 216.35 L13.6 216.35 A5.66929 5.66929 0 0 1 19.27 222.02 L19.27 233.41 A5.66929 5.66929 0 0 1 13.6 239.08
						 L-125.74 239.08" class="st5"/>
		</g>
		<g id="shape38-140" v:mID="38" v:groupContext="shape" v:layerMember="1" transform="translate(246.573,-59.9152)">
			<title>Dynamic connector.142</title>
			<path d="M0 216.35 L9.35 216.35 A5.66929 5.66929 0 0 1 15.02 222.02 L15.02 263.23 A5.66929 5.66929 0 0 1 9.35 268.9 L-130
						 268.9" class="st5"/>
		</g>
		<g id="shape39-145" v:mID="39" v:groupContext="shape" v:layerMember="1" transform="translate(235.234,-97.3107)">
			<title>Dynamic connector.143</title>
			<path d="M0 216.35 L20.69 216.35 A5.66929 5.66929 0 0 1 26.36 222.02 L26.36 300.63 A5.66929 5.66929 0 0 1 20.69 306.3
						 L-118.66 306.3" class="st5"/>
		</g>
		<g id="shape40-150" v:mID="40" v:groupContext="shape" v:layerMember="1" transform="translate(232.942,-125.73)">
			<title>Dynamic connector.144</title>
			<path d="M0 216.35 L22.98 216.35 A5.66929 5.66929 0 0 1 28.65 222.02 L28.65 329.05 A5.66929 5.66929 0 0 1 22.98 334.72
						 L-116.37 334.72" class="st5"/>
		</g>
		<g id="shape41-155" v:mID="41" v:groupContext="shape" v:layerMember="1" transform="translate(92.4478,-7.36296)">
			<title>Dynamic connector.148</title>
			<path d="M0 216.35 L-30.7 216.35 A5.66929 5.66929 0 0 1 -36.37 210.68 L-36.37 103.73 A5.66929 5.66929 0 0 1 -30.7 98.06
						 L-24.35 98.06" class="st5"/>
		</g>
		<g id="shape43-160" v:mID="43" v:groupContext="shape" v:layerMember="1;0" transform="translate(0.24,-203.646)">
			<title>On-page reference</title>
			<v:userDefs>
				<v:ud v:nameU="visVersion" v:val="VT0(11):26"/>
			</v:userDefs>
			<v:textBlock v:margins="rect(2,2,2,2)" v:tabSpace="42.5197"/>
			<path d="M0 210.12 A6.23259 6.23259 0 0 1 12.47 210.12 A6.23259 6.23259 0 1 1 0 210.12 Z" class="st1"/>
		</g>
		<g id="shape44-162" v:mID="44" v:groupContext="shape" v:layerMember="1;0" transform="translate(305.818,-169.921)">
			<title>On-page reference.57</title>
			<v:userDefs>
				<v:ud v:nameU="visVersion" v:val="VT0(11):26"/>
			</v:userDefs>
			<v:textBlock v:margins="rect(2,2,2,2)" v:tabSpace="42.5197"/>
			<path d="M0 210.12 A6.23259 6.23259 0 0 1 12.47 210.12 A6.23259 6.23259 0 1 1 0 210.12 Z" class="st1"/>
		</g>
		<g id="shape45-164" v:mID="45" v:groupContext="shape" v:layerMember="1" transform="translate(6.47259,-203.646)">
			<title>Dynamic connector.7</title>
			<path d="M0 216.35 L0 224.86 A5.66929 5.66929 -180 0 0 5.67 230.52 L128.98 230.52 A5.66929 5.66929 0 0 1 134.65 236.19
						 L134.65 238.76 A5.66929 5.66929 -180 0 0 140.31 244.43 L146.06 244.43" class="st5"/>
		</g>
		<g id="shape46-169" v:mID="46" v:groupContext="shape" v:layerMember="1" transform="translate(297.133,-146.99)">
			<title>Dynamic connector.58</title>
			<path d="M0 216.35 L9.25 216.35 A5.66929 5.66929 -180 0 0 14.92 210.68 L14.92 196.18" class="st5"/>
		</g>
	</g>
</svg>
