<?xml version="1.0" encoding="UTF-8" standalone="no"?>
<!DOCTYPE svg PUBLIC "-//W3C//DTD SVG 1.0//EN" "http://www.w3.org/TR/2001/REC-SVG-20010904/DTD/svg10.dtd">
<!-- Generated by Microsoft Visio 11.0, SVG Export, v1.0 column.svg Page-1 -->
<svg xmlns="http://www.w3.org/2000/svg" xmlns:v="http://schemas.microsoft.com/visio/2003/SVGExtensions/" width="4.71024in"
		height="2.75456in" viewBox="0 0 339.138 198.328" xml:space="preserve" color-interpolation-filters="sRGB" class="st7">
	<v:documentProperties v:langID="1033" v:metric="true" v:viewMarkup="false"/>

	<style type="text/css">
	<![CDATA[
		.st1 {fill:#e8eef7;stroke:#000000;stroke-linecap:round;stroke-linejoin:round;stroke-width:0.24}
		.st2 {fill:#000000;font-family:Arial;font-size:0.666664em}
		.st3 {font-size:1em}
		.st4 {fill:#000000;font-family:Arial;font-size:0.666664em;font-style:italic}
		.st5 {marker-end:url(#mrkr2-27);stroke:#4677bf;stroke-linecap:round;stroke-linejoin:round;stroke-width:0.24}
		.st6 {fill:#4677bf;fill-opacity:1;stroke:#4677bf;stroke-opacity:1;stroke-width:0.08695652173913}
		.st7 {fill:none;fill-rule:evenodd;font-size:12;overflow:visible;stroke-linecap:square;stroke-miterlimit:3}
	]]>
	</style>

	<defs id="Markers">
		<g id="lend2">
			<path d="M 1 1 L 0 0 L 1 -1 L 1 1 " style="stroke:none"/>
		</g>
		<marker id="mrkr2-27" class="st6" v:arrowType="2" v:arrowSize="2" v:setback="11.5" refX="-11.5" orient="auto"
				markerUnits="strokeWidth">
			<use xlink:href="#lend2" transform="scale(-11.5,-11.5) "/>
		</marker>
	</defs>
	<g v:mID="0" v:index="1" v:groupContext="foregroundPage">
		<title>Page-1</title>
		<v:pageProperties v:drawingScale="0.0393701" v:pageScale="0.0393701" v:drawingUnits="24" v:shadowOffsetX="8.50394"
				v:shadowOffsetY="-8.50394"/>
		<v:layer v:name="Flowchart" v:index="0"/>
		<v:layer v:name="Connector" v:index="1"/>
		<g id="shape1-1" v:mID="1" v:groupContext="shape" v:layerMember="0" transform="translate(27.0866,-155.553)">
			<title>Process.103</title>
			<desc>fact</desc>
			<v:custProps>
				<v:cp v:nameU="Cost" v:lbl="Cost" v:type="7" v:format="@" v:langID="1033"/>
				<v:cp v:nameU="Duration" v:lbl="Duration" v:type="2" v:langID="1033"/>
				<v:cp v:nameU="Resources" v:lbl="Resources" v:langID="1033"/>
			</v:custProps>
			<v:userDefs>
				<v:ud v:nameU="visVersion" v:val="VT0(11):26"/>
			</v:userDefs>
			<v:textBlock v:margins="rect(2,2,2,2)" v:tabSpace="42.5197"/>
			<v:textRect cx="12.7559" cy="191.205" width="25.52" height="14.2459"/>
			<rect x="0" y="184.082" width="25.5118" height="14.2459" rx="2.83465" ry="2.83465" class="st1"/>
			<text x="6.3" y="193.61" class="st2" v:langID="2057"><v:paragraph v:horizAlign="1"/><v:tabList/>fact</text>		</g>
		<g id="shape7-4" v:mID="7" v:groupContext="shape" v:layerMember="0" transform="translate(65.2878,-155.553)">
			<title>Process.109</title>
			<desc>‘(‘</desc>
			<v:custProps>
				<v:cp v:nameU="Cost" v:lbl="Cost" v:type="7" v:format="@" v:langID="1033"/>
				<v:cp v:nameU="Duration" v:lbl="Duration" v:type="2" v:langID="1033"/>
				<v:cp v:nameU="Resources" v:lbl="Resources" v:langID="1033"/>
			</v:custProps>
			<v:userDefs>
				<v:ud v:nameU="visVersion" v:val="VT0(11):26"/>
			</v:userDefs>
			<v:textBlock v:margins="rect(2,2,2,2)" v:tabSpace="42.5197"/>
			<v:textRect cx="10.6844" cy="191.205" width="21.37" height="14.2459"/>
			<rect x="0" y="184.082" width="21.3689" height="14.2459" rx="2.83465" ry="2.83465" class="st1"/>
			<text x="7.57" y="193.61" class="st2" v:langID="1033"><v:paragraph v:horizAlign="1"/><v:tabList/>‘<tspan class="st3"
						v:langID="2057">(</tspan>‘</text>		</g>
		<g id="shape8-8" v:mID="8" v:groupContext="shape" v:layerMember="0" transform="translate(292.126,-155.553)">
			<title>Process.110</title>
			<desc>‘)’</desc>
			<v:custProps>
				<v:cp v:nameU="Cost" v:lbl="Cost" v:type="7" v:format="@" v:langID="1033"/>
				<v:cp v:nameU="Duration" v:lbl="Duration" v:type="2" v:langID="1033"/>
				<v:cp v:nameU="Resources" v:lbl="Resources" v:langID="1033"/>
			</v:custProps>
			<v:userDefs>
				<v:ud v:nameU="visVersion" v:val="VT0(11):26"/>
			</v:userDefs>
			<v:textBlock v:margins="rect(2,2,2,2)" v:tabSpace="42.5197"/>
			<v:textRect cx="10.6844" cy="191.205" width="21.37" height="14.2459"/>
			<rect x="0" y="184.082" width="21.3689" height="14.2459" rx="2.83465" ry="2.83465" class="st1"/>
			<text x="7.57" y="193.61" class="st2" v:langID="1033"><v:paragraph v:horizAlign="1"/><v:tabList/>‘<tspan class="st3"
						v:langID="2057">)</tspan>’</text>		</g>
		<g id="shape10-12" v:mID="10" v:groupContext="shape" v:layerMember="0" transform="translate(215.893,-134.293)">
			<title>Process.113</title>
			<desc>field</desc>
			<v:custProps>
				<v:cp v:nameU="Cost" v:lbl="Cost" v:type="7" v:format="@" v:langID="1033"/>
				<v:cp v:nameU="Duration" v:lbl="Duration" v:type="2" v:langID="1033"/>
				<v:cp v:nameU="Resources" v:lbl="Resources" v:langID="1033"/>
			</v:custProps>
			<v:userDefs>
				<v:ud v:nameU="visVersion" v:val="VT0(11):26"/>
			</v:userDefs>
			<v:textBlock v:margins="rect(2,2,2,2)" v:tabSpace="42.5197"/>
			<v:textRect cx="24.6521" cy="191.205" width="49.31" height="14.2459"/>
			<rect x="0" y="184.082" width="49.3042" height="14.2459" rx="2.83465" ry="2.83465" class="st1"/>
			<text x="17.31" y="193.61" class="st4" v:langID="2057"><v:paragraph v:horizAlign="1"/><v:tabList/>field</text>		</g>
		<g id="shape11-15" v:mID="11" v:groupContext="shape" v:layerMember="0" transform="translate(101.33,-134.221)">
			<title>Process.114</title>
			<desc>fieldBinding</desc>
			<v:custProps>
				<v:cp v:nameU="Cost" v:lbl="Cost" v:type="7" v:format="@" v:langID="1033"/>
				<v:cp v:nameU="Duration" v:lbl="Duration" v:type="2" v:langID="1033"/>
				<v:cp v:nameU="Resources" v:lbl="Resources" v:langID="1033"/>
			</v:custProps>
			<v:userDefs>
				<v:ud v:nameU="visVersion" v:val="VT0(11):26"/>
			</v:userDefs>
			<v:textBlock v:margins="rect(2,2,2,2)" v:tabSpace="42.5197"/>
			<v:textRect cx="30.8767" cy="191.205" width="61.76" height="14.2459"/>
			<rect x="0" y="184.082" width="61.7535" height="14.2459" rx="2.83465" ry="2.83465" class="st1"/>
			<text x="10.19" y="193.61" class="st4" v:langID="2057"><v:paragraph v:horizAlign="1"/><v:tabList/>fieldBinding</text>		</g>
		<g id="shape12-18" v:mID="12" v:groupContext="shape" v:layerMember="0" transform="translate(177.214,-134.293)">
			<title>Process.115</title>
			<desc>‘:’</desc>
			<v:custProps>
				<v:cp v:nameU="Cost" v:lbl="Cost" v:type="7" v:format="@" v:langID="1033"/>
				<v:cp v:nameU="Duration" v:lbl="Duration" v:type="2" v:langID="1033"/>
				<v:cp v:nameU="Resources" v:lbl="Resources" v:langID="1033"/>
			</v:custProps>
			<v:userDefs>
				<v:ud v:nameU="visVersion" v:val="VT0(11):26"/>
			</v:userDefs>
			<v:textBlock v:margins="rect(2,2,2,2)" v:tabSpace="42.5197"/>
			<v:textRect cx="10.6844" cy="191.205" width="21.37" height="14.2459"/>
			<rect x="0" y="184.082" width="21.3689" height="14.2459" rx="2.83465" ry="2.83465" class="st1"/>
			<text x="7.79" y="193.61" class="st2" v:langID="1033"><v:paragraph v:horizAlign="1"/><v:tabList/>‘<tspan class="st3"
						v:langID="2057">:</tspan>’</text>		</g>
		<g id="shape13-22" v:mID="13" v:groupContext="shape" v:layerMember="1" transform="translate(198.583,-134.33)">
			<title>Dynamic connector.117</title>
			<path d="M0 191.24 L14.55 191.24" class="st5"/>
		</g>
		<g id="shape15-28" v:mID="15" v:groupContext="shape" v:layerMember="1" transform="translate(163.062,-134.293)">
			<title>Dynamic connector.119</title>
			<path d="M0.02 191.28 L6.82 191.28 L6.82 191.21 L11.39 191.21" class="st5"/>
		</g>
		<g id="shape16-33" v:mID="16" v:groupContext="shape" v:layerMember="0" transform="translate(114.894,-105.874)">
			<title>Process.120</title>
			<desc>operator</desc>
			<v:custProps>
				<v:cp v:nameU="Cost" v:lbl="Cost" v:type="7" v:format="@" v:langID="1033"/>
				<v:cp v:nameU="Duration" v:lbl="Duration" v:type="2" v:langID="1033"/>
				<v:cp v:nameU="Resources" v:lbl="Resources" v:langID="1033"/>
			</v:custProps>
			<v:userDefs>
				<v:ud v:nameU="visVersion" v:val="VT0(11):26"/>
			</v:userDefs>
			<v:textBlock v:margins="rect(2,2,2,2)" v:tabSpace="42.5197"/>
			<v:textRect cx="19.8758" cy="191.205" width="39.76" height="14.2459"/>
			<rect x="0" y="184.082" width="39.7516" height="14.2459" rx="2.83465" ry="2.83465" class="st1"/>
			<text x="4.98" y="193.61" class="st4" v:langID="2057"><v:paragraph v:horizAlign="1"/><v:tabList/>operator</text>		</g>
		<g id="shape17-36" v:mID="17" v:groupContext="shape" v:layerMember="0" transform="translate(185.472,-105.874)">
			<title>Process.121</title>
			<desc>literalConstraint</desc>
			<v:custProps>
				<v:cp v:nameU="Cost" v:lbl="Cost" v:type="7" v:format="@" v:langID="1033"/>
				<v:cp v:nameU="Duration" v:lbl="Duration" v:type="2" v:langID="1033"/>
				<v:cp v:nameU="Resources" v:lbl="Resources" v:langID="1033"/>
			</v:custProps>
			<v:userDefs>
				<v:ud v:nameU="visVersion" v:val="VT0(11):26"/>
			</v:userDefs>
			<v:textBlock v:margins="rect(2,2,2,2)" v:tabSpace="42.5197"/>
			<v:textRect cx="36.6732" cy="191.205" width="73.35" height="14.2459"/>
			<rect x="0" y="184.082" width="73.3465" height="14.2459" rx="2.83465" ry="2.83465" class="st1"/>
			<text x="8.89" y="193.61" class="st4" v:langID="2057"><v:paragraph v:horizAlign="1"/><v:tabList/>literalConstraint</text>		</g>
		<g id="shape18-39" v:mID="18" v:groupContext="shape" v:layerMember="0" transform="translate(177.868,-52.7847)">
			<title>Process.122</title>
			<desc>returnValueConstraint</desc>
			<v:custProps>
				<v:cp v:nameU="Cost" v:lbl="Cost" v:type="7" v:format="@" v:langID="1033"/>
				<v:cp v:nameU="Duration" v:lbl="Duration" v:type="2" v:langID="1033"/>
				<v:cp v:nameU="Resources" v:lbl="Resources" v:langID="1033"/>
			</v:custProps>
			<v:userDefs>
				<v:ud v:nameU="visVersion" v:val="VT0(11):26"/>
			</v:userDefs>
			<v:textBlock v:margins="rect(2,2,2,2)" v:tabSpace="42.5197"/>
			<v:textRect cx="45.0136" cy="191.205" width="90.03" height="14.2459"/>
			<rect x="0" y="184.082" width="90.0273" height="14.2459" rx="2.83465" ry="2.83465" class="st1"/>
			<text x="6.11" y="193.61" class="st4" v:langID="2057"><v:paragraph v:horizAlign="1"/><v:tabList/>returnValueConstraint</text>		</g>
		<g id="shape19-42" v:mID="19" v:groupContext="shape" v:layerMember="1" transform="translate(86.6566,-162.676)">
			<title>Dynamic connector.125</title>
			<path d="M0 198.33 L3.79 198.33 A3.79316 3.79316 0 0 1 7.59 202.12 L7.59 216.12 A3.54331 3.54331 -180 0 0 11.13 219.66
						 L11.91 219.66" class="st5"/>
		</g>
		<g id="shape20-47" v:mID="20" v:groupContext="shape" v:layerMember="1" transform="translate(154.646,-112.997)">
			<title>Dynamic connector.126</title>
			<path d="M0 198.33 L5.31 198.33 A5.31496 5.31496 0 0 1 10.63 203.64 L10.63 245.75 A5.66929 5.66929 -180 0 0 16.3 251.42
						 L20.46 251.42" class="st5"/>
		</g>
		<g id="shape21-52" v:mID="21" v:groupContext="shape" v:layerMember="1" transform="translate(154.646,-105.91)">
			<title>Dynamic connector.127</title>
			<path d="M0 191.24 L28.07 191.24" class="st5"/>
		</g>
		<g id="shape22-57" v:mID="22" v:groupContext="shape" v:layerMember="1" transform="translate(267.895,-59.9077)">
			<title>Dynamic connector.128</title>
			<path d="M0 198.33 L5.81 198.33 A5.66929 5.66929 -180 0 0 11.47 192.66 L11.47 101.23 A5.66929 5.66929 0 0 1 17.14 95.56
						 L21.47 95.56" class="st5"/>
		</g>
		<g id="shape23-62" v:mID="23" v:groupContext="shape" v:layerMember="1" transform="translate(258.819,-112.997)">
			<title>Dynamic connector.129</title>
			<path d="M0 198.33 L14.88 198.33 A5.66929 5.66929 -180 0 0 20.55 192.66 L20.55 154.32 A5.66929 5.66929 0 0 1 26.22 148.65
						 L30.55 148.65" class="st5"/>
		</g>
		<g id="shape28-67" v:mID="28" v:groupContext="shape" v:layerMember="0" transform="translate(118.762,-24.4019)">
			<title>Process.135</title>
			<desc>‘-&#62;’</desc>
			<v:custProps>
				<v:cp v:nameU="Cost" v:lbl="Cost" v:type="7" v:format="@" v:langID="1033"/>
				<v:cp v:nameU="Duration" v:lbl="Duration" v:type="2" v:langID="1033"/>
				<v:cp v:nameU="Resources" v:lbl="Resources" v:langID="1033"/>
			</v:custProps>
			<v:userDefs>
				<v:ud v:nameU="visVersion" v:val="VT0(11):26"/>
			</v:userDefs>
			<v:textBlock v:margins="rect(2,2,2,2)" v:tabSpace="42.5197"/>
			<v:textRect cx="13.8703" cy="191.205" width="27.75" height="14.2459"/>
			<rect x="0" y="184.082" width="27.7406" height="14.2459" rx="2.83465" ry="2.83465" class="st1"/>
			<text x="8.43" y="193.61" class="st2" v:langID="1033"><v:paragraph v:horizAlign="1"/><v:tabList/>‘<tspan class="st3"
						v:langID="2057">-</tspan><tspan class="st3" v:langID="2057">&#62;</tspan>’</text>		</g>
		<g id="shape29-72" v:mID="29" v:groupContext="shape" v:layerMember="1" transform="translate(265.197,-141.416)">
			<title>Dynamic connector.136</title>
			<path d="M0 198.33 L8.5 198.33 A5.66929 5.66929 -180 0 0 14.17 192.66 L14.17 182.74 A5.66929 5.66929 0 0 1 19.84 177.07
						 L24.17 177.07" class="st5"/>
		</g>
		<g id="shape30-77" v:mID="30" v:groupContext="shape" v:layerMember="1" transform="translate(265.197,-141.416)">
			<title>Dynamic connector.137</title>
			<path d="M0 198.33 L8.5 198.33 A5.66929 5.66929 0 0 1 14.17 204 L14.17 206.87 A5.66929 5.66929 0 0 1 8.5 212.54 L-158.81
						 212.54 A5.66929 5.66929 -180 0 0 -164.48 218.21 L-164.48 221.08 A5.66929 5.66929 -180 0 0 -158.81 226.75
						 L-153.06 226.75" class="st5"/>
		</g>
		<g id="shape31-82" v:mID="31" v:groupContext="shape" v:layerMember="1" transform="translate(265.197,-141.416)">
			<title>Dynamic connector.138</title>
			<path d="M0 198.33 L8.5 198.33 A5.66929 5.66929 0 0 1 14.17 204 L14.17 206.87 A5.66929 5.66929 0 0 1 8.5 212.54 L-158.81
						 212.54 A5.66929 5.66929 -180 0 0 -164.48 218.21 L-164.48 302.55 A5.66929 5.66929 -180 0 0 -158.81 308.22
						 L-149.2 308.22" class="st5"/>
		</g>
		<g id="shape32-87" v:mID="32" v:groupContext="shape" v:layerMember="0" transform="translate(185.575,-24.4019)">
			<title>Process.123</title>
			<desc>predicateConstraint</desc>
			<v:custProps>
				<v:cp v:nameU="Cost" v:lbl="Cost" v:type="7" v:format="@" v:langID="1033"/>
				<v:cp v:nameU="Duration" v:lbl="Duration" v:type="2" v:langID="1033"/>
				<v:cp v:nameU="Resources" v:lbl="Resources" v:langID="1033"/>
			</v:custProps>
			<v:userDefs>
				<v:ud v:nameU="visVersion" v:val="VT0(11):26"/>
			</v:userDefs>
			<v:textBlock v:margins="rect(2,2,2,2)" v:tabSpace="42.5197"/>
			<v:textRect cx="39.034" cy="191.205" width="78.07" height="14.2459"/>
			<rect x="0" y="184.082" width="78.068" height="14.2459" rx="2.83465" ry="2.83465" class="st1"/>
			<text x="4.34" y="193.61" class="st4" v:langID="2057"><v:paragraph v:horizAlign="1"/><v:tabList/>predicateConstraint</text>		</g>
		<g id="shape33-90" v:mID="33" v:groupContext="shape" v:layerMember="1" transform="translate(146.502,-24.4382)">
			<title>Dynamic connector.139</title>
			<path d="M0 191.24 L36.31 191.24" class="st5"/>
		</g>
		<g id="shape34-95" v:mID="34" v:groupContext="shape" v:layerMember="1" transform="translate(263.643,-31.5249)">
			<title>Dynamic connector.140</title>
			<path d="M0 198.33 L10.06 198.33 A5.66929 5.66929 -180 0 0 15.73 192.66 L15.73 72.85 A5.66929 5.66929 0 0 1 21.4 67.18
						 L25.72 67.18" class="st5"/>
		</g>
		<g id="shape35-100" v:mID="35" v:groupContext="shape" v:layerMember="1" transform="translate(86.6566,-155.589)">
			<title>Dynamic connector.116</title>
			<path d="M0 191.24 L202.71 191.24" class="st5"/>
		</g>
		<g id="shape36-105" v:mID="36" v:groupContext="shape" v:layerMember="0" transform="translate(122.916,-1.67704)">
			<title>Process.124</title>
			<desc>‘,’</desc>
			<v:custProps>
				<v:cp v:nameU="Cost" v:lbl="Cost" v:type="7" v:format="@" v:langID="1033"/>
				<v:cp v:nameU="Duration" v:lbl="Duration" v:type="2" v:langID="1033"/>
				<v:cp v:nameU="Resources" v:lbl="Resources" v:langID="1033"/>
			</v:custProps>
			<v:userDefs>
				<v:ud v:nameU="visVersion" v:val="VT0(11):26"/>
			</v:userDefs>
			<v:textBlock v:margins="rect(2,2,2,2)" v:tabSpace="42.5197"/>
			<v:textRect cx="10.6844" cy="191.205" width="21.37" height="14.2459"/>
			<rect x="0" y="184.082" width="21.3689" height="14.2459" rx="2.83465" ry="2.83465" class="st1"/>
			<text x="7.79" y="193.61" class="st2" v:langID="2057"><v:paragraph v:horizAlign="1"/><v:tabList/>‘,’</text>		</g>
		<g id="shape37-108" v:mID="37" v:groupContext="shape" v:layerMember="1" transform="translate(263.643,-31.5249)">
			<title>Dynamic connector.141</title>
			<path d="M0 198.33 L9.78 198.33 A5.66929 5.66929 0 0 1 15.45 204 L15.45 215.38 A5.66929 5.66929 0 0 1 9.78 221.05 L-116.6
						 221.05" class="st5"/>
		</g>
		<g id="shape38-113" v:mID="38" v:groupContext="shape" v:layerMember="1" transform="translate(267.895,-59.9077)">
			<title>Dynamic connector.142</title>
			<path d="M0 198.33 L5.6 198.33 A5.60082 5.60082 0 0 1 11.2 203.93 L11.2 243.77 A5.66929 5.66929 0 0 1 5.53 249.44 L-120.85
						 249.44" class="st5"/>
		</g>
		<g id="shape39-118" v:mID="39" v:groupContext="shape" v:layerMember="1" transform="translate(258.819,-112.997)">
			<title>Dynamic connector.143</title>
			<path d="M0 198.33 L14.88 198.33 A5.66929 5.66929 0 0 1 20.55 204 L20.55 296.86 A5.66929 5.66929 0 0 1 14.88 302.53 L-111.77
						 302.53" class="st5"/>
		</g>
		<g id="shape40-123" v:mID="40" v:groupContext="shape" v:layerMember="1" transform="translate(265.197,-141.416)">
			<title>Dynamic connector.144</title>
			<path d="M0 198.33 L8.5 198.33 A5.66929 5.66929 0 0 1 14.17 204 L14.17 325.28 A5.66929 5.66929 0 0 1 8.5 330.94 L-118.15
						 330.94" class="st5"/>
		</g>
		<g id="shape41-128" v:mID="41" v:groupContext="shape" v:layerMember="1" transform="translate(122.916,-8.8)">
			<title>Dynamic connector.148</title>
			<path d="M0 198.33 L-30.7 198.33 A5.66929 5.66929 0 0 1 -36.37 192.66 L-36.37 71.45 A5.66929 5.66929 0 0 1 -30.7 65.78
						 L-24.35 65.78" class="st5"/>
		</g>
		<g id="shape43-133" v:mID="43" v:groupContext="shape" v:layerMember="1;0" transform="translate(1.5748,-184.206)">
			<title>On-page reference</title>
			<v:userDefs>
				<v:ud v:nameU="visVersion" v:val="VT0(11):26"/>
			</v:userDefs>
			<v:textBlock v:margins="rect(2,2,2,2)" v:tabSpace="42.5197"/>
			<path d="M0 192.1 A6.23259 6.23259 0 0 1 12.47 192.1 A6.23259 6.23259 0 1 1 0 192.1 Z" class="st1"/>
		</g>
		<g id="shape44-135" v:mID="44" v:groupContext="shape" v:layerMember="1;0" transform="translate(326.432,-185.623)">
			<title>On-page reference.57</title>
			<v:userDefs>
				<v:ud v:nameU="visVersion" v:val="VT0(11):26"/>
			</v:userDefs>
			<v:textBlock v:margins="rect(2,2,2,2)" v:tabSpace="42.5197"/>
			<path d="M0 192.1 A6.23259 6.23259 0 0 1 12.47 192.1 A6.23259 6.23259 0 1 1 0 192.1 Z" class="st1"/>
		</g>
		<g id="shape45-137" v:mID="45" v:groupContext="shape" v:layerMember="1" transform="translate(13.4767,-190.438)">
			<title>Dynamic connector.7</title>
			<path d="M0.56 198.33 L3.54 198.33 A2.98001 2.98001 0 0 1 6.52 201.31 L6.52 222.55 A3.54331 3.54331 -180 0 0 10.07 226.09
						 L10.85 226.09" class="st5"/>
		</g>
		<g id="shape46-142" v:mID="46" v:groupContext="shape" v:layerMember="1" transform="translate(312.877,-162.676)">
			<title>Dynamic connector.58</title>
			<path d="M0.62 198.33 L3.4 198.33 A2.78013 2.78013 -180 0 0 6.18 195.55 L6.18 172.84 A3.68867 3.68867 0 0 1 9.87 169.15
						 L10.8 169.15" class="st5"/>
		</g>
		<g id="shape47-147" v:mID="47" v:groupContext="shape" v:layerMember="0" transform="translate(176.614,-79.7502)">
			<title>Process.47</title>
			<desc>boundVariableConstraint</desc>
			<v:custProps>
				<v:cp v:nameU="Cost" v:lbl="Cost" v:type="7" v:format="@" v:langID="1033"/>
				<v:cp v:nameU="Duration" v:lbl="Duration" v:type="2" v:langID="1033"/>
				<v:cp v:nameU="Resources" v:lbl="Resources" v:langID="1033"/>
			</v:custProps>
			<v:userDefs>
				<v:ud v:nameU="visVersion" v:val="VT0(11):26"/>
			</v:userDefs>
			<v:textBlock v:margins="rect(2,2,2,2)" v:tabSpace="42.5197"/>
			<v:textRect cx="47.4803" cy="191.205" width="94.97" height="14.2459"/>
			<rect x="0" y="184.082" width="94.9606" height="14.2459" rx="2.83465" ry="2.83465" class="st1"/>
			<text x="3.45" y="193.61" class="st4" v:langID="2057"><v:paragraph v:horizAlign="1"/><v:tabList/>boundVariableConstraint</text>		</g>
		<g id="shape48-150" v:mID="48" v:groupContext="shape" v:layerMember="1" transform="translate(154.646,-112.997)">
			<title>Dynamic connector.48</title>
			<path d="M0 198.33 L5.31 198.33 A5.31496 5.31496 0 0 1 10.63 203.64 L10.63 218.78 A5.66929 5.66929 -180 0 0 16.3 224.45
						 L19.21 224.45" class="st5"/>
		</g>
		<g id="shape49-155" v:mID="49" v:groupContext="shape" v:layerMember="1" transform="translate(271.575,-86.8731)">
			<title>Dynamic connector.49</title>
			<path d="M0 198.33 L3.9 198.33 A3.89764 3.89764 0 0 1 7.8 202.23 L7.8 270.73 A5.66929 5.66929 0 0 1 2.13 276.4 L-124.53
						 276.4" class="st5"/>
		</g>
		<g id="shape50-160" v:mID="50" v:groupContext="shape" v:layerMember="1" transform="translate(271.575,-86.8731)">
			<title>Dynamic connector.50</title>
			<path d="M0 198.33 L3.9 198.33 A3.89764 3.89764 -180 0 0 7.8 194.43 L7.8 128.19 A5.66929 5.66929 0 0 1 13.46 122.53 L17.79
						 122.53" class="st5"/>
		</g>
		<g id="shape51-165" v:mID="51" v:groupContext="shape" v:layerMember="1" transform="translate(86.6566,-162.676)">
			<title>Dynamic connector.51</title>
			<path d="M0 198.33 L115.06 198.33 A5.66929 5.66929 0 0 1 120.73 204 L120.73 215.34 A4.25197 4.25197 -180 0 0 124.98 219.59
						 L126.48 219.59" class="st5"/>
		</g>
		<g id="shape9-170" v:mID="9" v:groupContext="shape" v:layerMember="1" transform="translate(51.8565,-155.589)">
			<title>Dynamic connector.9</title>
			<path d="M0.74 191.24 L10.67 191.24" class="st5"/>
		</g>
	</g>
</svg>
