<?xml version="1.0" encoding="UTF-8" standalone="no"?>
<!DOCTYPE svg PUBLIC "-//W3C//DTD SVG 1.0//EN" "http://www.w3.org/TR/2001/REC-SVG-20010904/DTD/svg10.dtd">
<!-- Generated by Microsoft Visio 11.0, SVG Export, v1.0 compoundValueRestriction.svg Page-1 -->
<svg xmlns="http://www.w3.org/2000/svg" xmlns:v="http://schemas.microsoft.com/visio/2003/SVGExtensions/" width="6.23736in"
		height="1.94883in" viewBox="0 0 449.09 140.316" xml:space="preserve" color-interpolation-filters="sRGB" class="st7">
	<v:documentProperties v:langID="1033" v:metric="true" v:viewMarkup="false"/>

	<style type="text/css">
	<![CDATA[
		.st1 {fill:#e8eef7;stroke:#000000;stroke-linecap:round;stroke-linejoin:round;stroke-width:0.24}
		.st2 {marker-end:url(#mrkr2-8);stroke:#4677bf;stroke-linecap:round;stroke-linejoin:round;stroke-width:0.24}
		.st3 {fill:#4677bf;fill-opacity:1;stroke:#4677bf;stroke-opacity:1;stroke-width:0.08695652173913}
		.st4 {fill:#000000;font-family:Arial;font-size:0.666664em;font-style:italic}
		.st5 {fill:#000000;font-family:Arial;font-size:0.666664em}
		.st6 {font-size:1em}
		.st7 {fill:none;fill-rule:evenodd;font-size:12;overflow:visible;stroke-linecap:square;stroke-miterlimit:3}
	]]>
	</style>

	<defs id="Markers">
		<g id="lend2">
			<path d="M 1 1 L 0 0 L 1 -1 L 1 1 " style="stroke:none"/>
		</g>
		<marker id="mrkr2-8" class="st3" v:arrowType="2" v:arrowSize="2" v:setback="11.5" refX="-11.5" orient="auto"
				markerUnits="strokeWidth">
			<use xlink:href="#lend2" transform="scale(-11.5,-11.5) "/>
		</marker>
	</defs>
	<g v:mID="0" v:index="1" v:groupContext="foregroundPage">
		<title>Page-1</title>
		<v:pageProperties v:drawingScale="0.0393701" v:pageScale="0.0393701" v:drawingUnits="24" v:shadowOffsetX="8.50394"
				v:shadowOffsetY="-8.50394"/>
		<v:layer v:name="Connector" v:index="0"/>
		<v:layer v:name="Flowchart" v:index="1"/>
		<g id="shape81-1" v:mID="81" v:groupContext="shape" v:layerMember="0;1" transform="translate(437.386,-113.335)">
			<title>On-page reference.66</title>
			<v:userDefs>
				<v:ud v:nameU="visVersion" v:val="VT0(11):26"/>
			</v:userDefs>
			<v:textBlock v:margins="rect(2,2,2,2)" v:tabSpace="42.5197"/>
			<path d="M0 134.58 A5.73228 5.73228 0 0 1 11.46 134.58 A5.73228 5.73228 0 1 1 0 134.58 Z" class="st1"/>
		</g>
		<g id="shape82-3" v:mID="82" v:groupContext="shape" v:layerMember="0" transform="translate(96.618,-99.6976)">
			<title>Dynamic connector.83</title>
			<path d="M0 133.23 L26.07 133.23" class="st2"/>
		</g>
		<g id="shape83-9" v:mID="83" v:groupContext="shape" v:layerMember="1" transform="translate(40.2069,-100.233)">
			<title>Process.95</title>
			<desc>‘in’ | ‘not in’</desc>
			<v:custProps>
				<v:cp v:nameU="Cost" v:lbl="Cost" v:type="7" v:format="@" v:langID="1033"/>
				<v:cp v:nameU="Duration" v:lbl="Duration" v:type="2" v:langID="1033"/>
				<v:cp v:nameU="Resources" v:lbl="Resources" v:langID="1033"/>
			</v:custProps>
			<v:userDefs>
				<v:ud v:nameU="visVersion" v:val="VT0(11):26"/>
			</v:userDefs>
			<v:textBlock v:margins="rect(2,2,2,2)" v:tabSpace="42.5197"/>
			<v:textRect cx="28.2055" cy="133.764" width="56.42" height="13.1024"/>
			<rect x="0" y="127.213" width="56.4111" height="13.1024" rx="2.83465" ry="2.83465" class="st1"/>
			<text x="8.49" y="136.16" class="st4" v:langID="2057"><v:paragraph v:horizAlign="1"/><v:tabList/>‘in’ | ‘not in’</text>		</g>
		<g id="shape84-12" v:mID="84" v:groupContext="shape" v:layerMember="0;1" transform="translate(0.24,-101.052)">
			<title>On-page reference.96</title>
			<v:userDefs>
				<v:ud v:nameU="visVersion" v:val="VT0(11):26"/>
			</v:userDefs>
			<v:textBlock v:margins="rect(2,2,2,2)" v:tabSpace="42.5197"/>
			<path d="M0 134.58 A5.73228 5.73228 0 0 1 11.46 134.58 A5.73228 5.73228 0 1 1 0 134.58 Z" class="st1"/>
		</g>
		<g id="shape85-14" v:mID="85" v:groupContext="shape" v:layerMember="0" transform="translate(11.7046,-99.6976)">
			<title>Dynamic connector.85</title>
			<path d="M0 133.23 L25.74 133.23" class="st2"/>
		</g>
		<g id="shape86-19" v:mID="86" v:groupContext="shape" v:layerMember="1" transform="translate(397.745,-112.091)">
			<title>Process.67</title>
			<desc>‘)‘</desc>
			<v:custProps>
				<v:cp v:nameU="Cost" v:lbl="Cost" v:type="7" v:format="@" v:langID="1033"/>
				<v:cp v:nameU="Duration" v:lbl="Duration" v:type="2" v:langID="1033"/>
				<v:cp v:nameU="Resources" v:lbl="Resources" v:langID="1033"/>
			</v:custProps>
			<v:userDefs>
				<v:ud v:nameU="visVersion" v:val="VT0(11):26"/>
			</v:userDefs>
			<v:textBlock v:margins="rect(2,2,2,2)" v:tabSpace="42.5197"/>
			<v:textRect cx="10.6844" cy="133.193" width="21.37" height="14.2459"/>
			<rect x="0" y="126.07" width="21.3689" height="14.2459" rx="2.83465" ry="2.83465" class="st1"/>
			<text x="7.57" y="135.59" class="st5" v:langID="1033"><v:paragraph v:horizAlign="1"/><v:tabList/>‘<tspan class="st6"
						v:langID="2057">)</tspan>‘</text>		</g>
		<g id="shape87-23" v:mID="87" v:groupContext="shape" v:layerMember="1" transform="translate(125.446,-99.6613)">
			<title>Process.87</title>
			<desc>‘(‘</desc>
			<v:custProps>
				<v:cp v:nameU="Cost" v:lbl="Cost" v:type="7" v:format="@" v:langID="1033"/>
				<v:cp v:nameU="Duration" v:lbl="Duration" v:type="2" v:langID="1033"/>
				<v:cp v:nameU="Resources" v:lbl="Resources" v:langID="1033"/>
			</v:custProps>
			<v:userDefs>
				<v:ud v:nameU="visVersion" v:val="VT0(11):26"/>
			</v:userDefs>
			<v:textBlock v:margins="rect(2,2,2,2)" v:tabSpace="42.5197"/>
			<v:textRect cx="10.6844" cy="133.193" width="21.37" height="14.2459"/>
			<rect x="0" y="126.07" width="21.3689" height="14.2459" rx="2.83465" ry="2.83465" class="st1"/>
			<text x="7.57" y="135.59" class="st5" v:langID="1033"><v:paragraph v:horizAlign="1"/><v:tabList/>‘<tspan class="st6"
						v:langID="2057">(</tspan>‘</text>		</g>
		<g id="shape88-27" v:mID="88" v:groupContext="shape" v:layerMember="1" transform="translate(256.012,-87.9242)">
			<title>Process.98</title>
			<desc>‘,‘</desc>
			<v:custProps>
				<v:cp v:nameU="Cost" v:lbl="Cost" v:type="7" v:format="@" v:langID="1033"/>
				<v:cp v:nameU="Duration" v:lbl="Duration" v:type="2" v:langID="1033"/>
				<v:cp v:nameU="Resources" v:lbl="Resources" v:langID="1033"/>
			</v:custProps>
			<v:userDefs>
				<v:ud v:nameU="visVersion" v:val="VT0(11):26"/>
			</v:userDefs>
			<v:textBlock v:margins="rect(2,2,2,2)" v:tabSpace="42.5197"/>
			<v:textRect cx="10.6844" cy="133.193" width="21.37" height="14.2459"/>
			<rect x="0" y="126.07" width="21.3689" height="14.2459" rx="2.83465" ry="2.83465" class="st1"/>
			<text x="7.79" y="135.59" class="st5" v:langID="1033"><v:paragraph v:horizAlign="1"/><v:tabList/>‘<tspan class="st6"
						v:langID="2057">,</tspan>‘</text>		</g>
		<g id="shape89-31" v:mID="89" v:groupContext="shape" v:layerMember="1" transform="translate(170.319,-126.973)">
			<title>Process.40</title>
			<desc>variable</desc>
			<v:custProps>
				<v:cp v:nameU="Cost" v:lbl="Cost" v:type="7" v:format="@" v:langID="1033"/>
				<v:cp v:nameU="Duration" v:lbl="Duration" v:type="2" v:langID="1033"/>
				<v:cp v:nameU="Resources" v:lbl="Resources" v:langID="1033"/>
			</v:custProps>
			<v:userDefs>
				<v:ud v:nameU="visVersion" v:val="VT0(11):26"/>
			</v:userDefs>
			<v:textBlock v:margins="rect(2,2,2,2)" v:tabSpace="42.5197"/>
			<v:textRect cx="20.6255" cy="133.764" width="41.26" height="13.1024"/>
			<rect x="0" y="127.213" width="41.2511" height="13.1024" rx="2.83465" ry="2.83465" class="st1"/>
			<text x="6.62" y="136.16" class="st4" v:langID="2057"><v:paragraph v:horizAlign="1"/><v:tabList/>variable</text>		</g>
		<g id="shape90-34" v:mID="90" v:groupContext="shape" v:layerMember="1" transform="translate(171.83,-100.312)">
			<title>Process.41</title>
			<desc>literal</desc>
			<v:custProps>
				<v:cp v:nameU="Cost" v:lbl="Cost" v:type="7" v:format="@" v:langID="1033"/>
				<v:cp v:nameU="Duration" v:lbl="Duration" v:type="2" v:langID="1033"/>
				<v:cp v:nameU="Resources" v:lbl="Resources" v:langID="1033"/>
			</v:custProps>
			<v:userDefs>
				<v:ud v:nameU="visVersion" v:val="VT0(11):26"/>
			</v:userDefs>
			<v:textBlock v:margins="rect(2,2,2,2)" v:tabSpace="42.5197"/>
			<v:textRect cx="20.6255" cy="133.764" width="41.26" height="13.1024"/>
			<rect x="0" y="127.213" width="41.2511" height="13.1024" rx="2.83465" ry="2.83465" class="st1"/>
			<text x="11.07" y="136.16" class="st4" v:langID="2057"><v:paragraph v:horizAlign="1"/><v:tabList/>literal</text>		</g>
		<g id="shape91-37" v:mID="91" v:groupContext="shape" v:layerMember="1" transform="translate(170.319,-73.6504)">
			<title>Process.4</title>
			<desc>returnValue</desc>
			<v:custProps>
				<v:cp v:nameU="Cost" v:lbl="Cost" v:type="7" v:format="@" v:langID="1033"/>
				<v:cp v:nameU="Duration" v:lbl="Duration" v:type="2" v:langID="1033"/>
				<v:cp v:nameU="Resources" v:lbl="Resources" v:langID="1033"/>
			</v:custProps>
			<v:userDefs>
				<v:ud v:nameU="visVersion" v:val="VT0(11):26"/>
			</v:userDefs>
			<v:textBlock v:margins="rect(2,2,2,2)" v:tabSpace="42.5197"/>
			<v:textRect cx="24.1688" cy="133.764" width="48.34" height="13.1024"/>
			<rect x="0" y="127.213" width="48.3377" height="13.1024" rx="2.83465" ry="2.83465" class="st1"/>
			<text x="3.5" y="136.16" class="st4" v:langID="2057"><v:paragraph v:horizAlign="1"/><v:tabList/>returnValue</text>		</g>
		<g id="shape92-40" v:mID="92" v:groupContext="shape" v:layerMember="1" transform="translate(304.964,-87.2882)">
			<title>Process.5</title>
			<desc>variable</desc>
			<v:custProps>
				<v:cp v:nameU="Cost" v:lbl="Cost" v:type="7" v:format="@" v:langID="1033"/>
				<v:cp v:nameU="Duration" v:lbl="Duration" v:type="2" v:langID="1033"/>
				<v:cp v:nameU="Resources" v:lbl="Resources" v:langID="1033"/>
			</v:custProps>
			<v:userDefs>
				<v:ud v:nameU="visVersion" v:val="VT0(11):26"/>
			</v:userDefs>
			<v:textBlock v:margins="rect(2,2,2,2)" v:tabSpace="42.5197"/>
			<v:textRect cx="20.6255" cy="133.764" width="41.26" height="13.1024"/>
			<rect x="0" y="127.213" width="41.2511" height="13.1024" rx="2.83465" ry="2.83465" class="st1"/>
			<text x="6.62" y="136.16" class="st4" v:langID="2057"><v:paragraph v:horizAlign="1"/><v:tabList/>variable</text>		</g>
		<g id="shape93-43" v:mID="93" v:groupContext="shape" v:layerMember="1" transform="translate(308.433,-44.422)">
			<title>Process.11</title>
			<desc>literal</desc>
			<v:custProps>
				<v:cp v:nameU="Cost" v:lbl="Cost" v:type="7" v:format="@" v:langID="1033"/>
				<v:cp v:nameU="Duration" v:lbl="Duration" v:type="2" v:langID="1033"/>
				<v:cp v:nameU="Resources" v:lbl="Resources" v:langID="1033"/>
			</v:custProps>
			<v:userDefs>
				<v:ud v:nameU="visVersion" v:val="VT0(11):26"/>
			</v:userDefs>
			<v:textBlock v:margins="rect(2,2,2,2)" v:tabSpace="42.5197"/>
			<v:textRect cx="20.6255" cy="133.764" width="41.26" height="13.1024"/>
			<rect x="0" y="127.213" width="41.2511" height="13.1024" rx="2.83465" ry="2.83465" class="st1"/>
			<text x="11.07" y="136.16" class="st4" v:langID="2057"><v:paragraph v:horizAlign="1"/><v:tabList/>literal</text>		</g>
		<g id="shape94-46" v:mID="94" v:groupContext="shape" v:layerMember="1" transform="translate(313.394,-16.9575)">
			<title>Process.12</title>
			<desc>returnValue</desc>
			<v:custProps>
				<v:cp v:nameU="Cost" v:lbl="Cost" v:type="7" v:format="@" v:langID="1033"/>
				<v:cp v:nameU="Duration" v:lbl="Duration" v:type="2" v:langID="1033"/>
				<v:cp v:nameU="Resources" v:lbl="Resources" v:langID="1033"/>
			</v:custProps>
			<v:userDefs>
				<v:ud v:nameU="visVersion" v:val="VT0(11):26"/>
			</v:userDefs>
			<v:textBlock v:margins="rect(2,2,2,2)" v:tabSpace="42.5197"/>
			<v:textRect cx="24.1688" cy="133.764" width="48.34" height="13.1024"/>
			<rect x="0" y="127.213" width="48.3377" height="13.1024" rx="2.83465" ry="2.83465" class="st1"/>
			<text x="3.5" y="136.16" class="st4" v:langID="2057"><v:paragraph v:horizAlign="1"/><v:tabList/>returnValue</text>		</g>
		<g id="shape95-49" v:mID="95" v:groupContext="shape" v:layerMember="0" transform="translate(146.815,-106.784)">
			<title>Dynamic connector.33</title>
			<path d="M0 140.32 L5.31 140.32 A5.31496 5.31496 -180 0 0 10.63 135 L10.63 119.24 A5.66929 5.66929 0 0 1 16.3 113.58
						 L20.74 113.58" class="st2"/>
		</g>
		<g id="shape96-54" v:mID="96" v:groupContext="shape" v:layerMember="0" transform="translate(146.815,-99.737)">
			<title>Dynamic connector.53</title>
			<path d="M0 133.27 L10.59 133.27 a0.0393701 0.0393701 -180 0 0 0.0393701 -0.0393701 L10.63 133.23 a0.0393701 0.0393701
						 0 0 1 0.0393701 -0.0393701 L22.25 133.19" class="st2"/>
		</g>
		<g id="shape97-59" v:mID="97" v:groupContext="shape" v:layerMember="0" transform="translate(146.815,-106.784)">
			<title>Dynamic connector.54</title>
			<path d="M0 140.32 L5.31 140.32 A5.31496 5.31496 0 0 1 10.63 145.63 L10.63 161.23 A5.66929 5.66929 -180 0 0 16.3 166.9
						 L20.74 166.9" class="st2"/>
		</g>
		<g id="shape98-64" v:mID="98" v:groupContext="shape" v:layerMember="0" transform="translate(277.381,-101.53)">
			<title>Dynamic connector.114</title>
			<path d="M0 146.8 L17.11 146.8 a0.603876 0.603876 0 0 1 0.603876 0.603876 L17.72 147.4 a0.603876 0.603876 -180 0 0 0.603876
						 0.603876 L24.82 148.01" class="st2"/>
		</g>
		<g id="shape99-69" v:mID="99" v:groupContext="shape" v:layerMember="0" transform="translate(277.381,-95.0471)">
			<title>Dynamic connector.99</title>
			<path d="M0 140.32 L12.05 140.32 A5.66929 5.66929 0 0 1 17.72 145.98 L17.72 206.18 A5.66929 5.66929 -180 0 0 23.39 211.85
						 L33.25 211.85" class="st2"/>
		</g>
		<g id="shape100-74" v:mID="100" v:groupContext="shape" v:layerMember="0" transform="translate(277.381,-95.0471)">
			<title>Dynamic connector.116</title>
			<path d="M0 140.32 L12.05 140.32 A5.66929 5.66929 0 0 1 17.72 145.98 L17.72 178.72 A5.66929 5.66929 -180 0 0 23.39 184.39
						 L28.29 184.39" class="st2"/>
		</g>
		<g id="shape101-79" v:mID="101" v:groupContext="shape" v:layerMember="0" transform="translate(211.57,-133.524)">
			<title>Dynamic connector.101</title>
			<path d="M0 140.32 L12.61 140.32 A5.66929 5.66929 0 0 1 18.28 145.98 L18.28 148.96 A5.66929 5.66929 -180 0 0 23.95 154.63
						 L183.41 154.63" class="st2"/>
		</g>
		<g id="shape102-84" v:mID="102" v:groupContext="shape" v:layerMember="0" transform="translate(346.215,-93.8394)">
			<title>Dynamic connector.102</title>
			<path d="M0 140.32 L20.48 140.32 A5.66929 5.66929 -180 0 0 26.15 134.65 L26.15 120.61 A5.66929 5.66929 0 0 1 31.82 114.94
						 L48.77 114.94" class="st2"/>
		</g>
		<g id="shape103-89" v:mID="103" v:groupContext="shape" v:layerMember="0" transform="translate(349.684,-50.9732)">
			<title>Dynamic connector.103</title>
			<path d="M0 140.32 L17.01 140.32 A5.66929 5.66929 -180 0 0 22.68 134.65 L22.68 77.74 A5.66929 5.66929 0 0 1 28.35 72.07
						 L45.3 72.07" class="st2"/>
		</g>
		<g id="shape104-94" v:mID="104" v:groupContext="shape" v:layerMember="0" transform="translate(361.732,-23.5087)">
			<title>Dynamic connector.104</title>
			<path d="M0 140.32 L5.31 140.32 A5.31496 5.31496 -180 0 0 10.63 135 L10.63 50.28 A5.66929 5.66929 0 0 1 16.3 44.61 L33.25
						 44.61" class="st2"/>
		</g>
		<g id="shape105-99" v:mID="105" v:groupContext="shape" v:layerMember="0" transform="translate(346.215,-90.9181)">
			<title>Dynamic connector.105</title>
			<path d="M0 137.39 L5.31 137.39 A5.31496 5.31496 -180 0 0 10.63 132.08 L10.63 117.69 A5.66929 5.66929 -180 0 0 4.96 112.02
						 L-73.85 112.02 A5.66929 5.66929 -180 0 0 -79.52 117.69 L-79.52 126.3" class="st2"/>
		</g>
		<g id="shape106-104" v:mID="106" v:groupContext="shape" v:layerMember="0" transform="translate(361.732,-23.5087)">
			<title>Dynamic connector.106</title>
			<path d="M0 140.32 L5.6 140.32 A5.60486 5.60486 0 0 1 11.21 145.92 L11.21 149.35 A5.66929 5.66929 0 0 1 5.54 155.02 L-89.37
						 155.02 A5.66929 5.66929 0 0 1 -95.03 149.35 L-95.03 78.66" class="st2"/>
		</g>
		<g id="shape107-109" v:mID="107" v:groupContext="shape" v:layerMember="0" transform="translate(349.684,-50.9732)">
			<title>Dynamic connector.107</title>
			<path d="M0 140.32 L5.74 140.32 A5.66929 5.66929 -180 0 0 11.41 134.65 L11.41 123.78 A5.66929 5.66929 -180 0 0 5.74 118.11
						 L-48.9 118.11 A5.66929 5.66929 0 0 1 -52.91 116.44 A2.3622 2.3622 -180 0 0 -56.26 116.44 A5.66929 5.66929
						 0 0 1 -60.28 118.11 L-77.32 118.11 A5.66929 5.66929 0 0 1 -82.99 112.44 L-82.99 106.12" class="st2"/>
		</g>
		<g id="shape108-114" v:mID="108" v:groupContext="shape" v:layerMember="0" transform="translate(213.081,-108.042)">
			<title>Dynamic connector.125</title>
			<path d="M0 141.49 L10.62 141.49 A5.66929 5.66929 0 0 1 16.29 147.16 L16.29 147.64 A5.66929 5.66929 -180 0 0 21.96 153.31
						 L40.17 153.31" class="st2"/>
		</g>
		<g id="shape109-119" v:mID="109" v:groupContext="shape" v:layerMember="0" transform="translate(213.081,-105.952)">
			<title>Dynamic connector.127</title>
			<path d="M0 139.4 L10.62 139.4 A5.66929 5.66929 -180 0 0 16.29 133.74 L16.29 132.72 A5.66929 5.66929 0 0 1 21.96 127.05
						 L181.9 127.05" class="st2"/>
		</g>
		<g id="shape110-124" v:mID="110" v:groupContext="shape" v:layerMember="0" transform="translate(218.656,-80.2016)">
			<title>Dynamic connector.128</title>
			<path d="M0 140.32 L5.36 140.32 A5.35872 5.35872 -180 0 0 10.72 134.96 L10.72 106.97 A5.66929 5.66929 0 0 1 16.39 101.3
						 L176.33 101.3" class="st2"/>
		</g>
		<g id="shape111-129" v:mID="111" v:groupContext="shape" v:layerMember="0" transform="translate(218.656,-80.2016)">
			<title>Dynamic connector.126</title>
			<path d="M0 140.32 L5.31 140.32 A5.31496 5.31496 -180 0 0 10.63 135 L10.63 131.14 A5.66929 5.66929 0 0 1 16.3 125.47
						 L34.6 125.47" class="st2"/>
		</g>
		<g id="shape137-134" v:mID="137" v:groupContext="shape" v:layerMember="0" transform="translate(419.113,-126.228)">
			<title>Dynamic connector.137</title>
			<path d="M0 147.33 L10.56 147.33 a0.0732889 0.0732889 0 0 1 0.0732889 0.0732889 L10.63 147.4 a0.0732889 0.0732889 -180
						 0 0 0.0732889 0.0732889 L15.51 147.48" class="st2"/>
		</g>
	</g>
</svg>
