<?xml version="1.0" encoding="UTF-8" standalone="no"?>
<!DOCTYPE svg PUBLIC "-//W3C//DTD SVG 1.0//EN" "http://www.w3.org/TR/2001/REC-SVG-20010904/DTD/svg10.dtd">
<!-- Generated by Microsoft Visio 11.0, SVG Export, v1.0 constraints.svg Page-1 -->
<svg xmlns="http://www.w3.org/2000/svg" xmlns:v="http://schemas.microsoft.com/visio/2003/SVGExtensions/" width="4.70892in"
		height="1.8644in" viewBox="0 0 339.042 134.237" xml:space="preserve" color-interpolation-filters="sRGB" class="st6">
	<v:documentProperties v:langID="1033" v:metric="true" v:viewMarkup="false"/>

	<style type="text/css">
	<![CDATA[
		.st1 {fill:#e8eef7;stroke:#000000;stroke-linecap:round;stroke-linejoin:round;stroke-width:0.24}
		.st2 {fill:#000000;font-family:Arial;font-size:0.666664em;font-style:italic}
		.st3 {fill:#000000;font-family:Arial;font-size:0.666664em}
		.st4 {marker-end:url(#mrkr2-19);stroke:#4677bf;stroke-linecap:round;stroke-linejoin:round;stroke-width:0.24}
		.st5 {fill:#4677bf;fill-opacity:1;stroke:#4677bf;stroke-opacity:1;stroke-width:0.08695652173913}
		.st6 {fill:none;fill-rule:evenodd;font-size:12;overflow:visible;stroke-linecap:square;stroke-miterlimit:3}
	]]>
	</style>

	<defs id="Markers">
		<g id="lend2">
			<path d="M 1 1 L 0 0 L 1 -1 L 1 1 " style="stroke:none"/>
		</g>
		<marker id="mrkr2-19" class="st5" v:arrowType="2" v:arrowSize="2" v:setback="11.5" refX="-11.5" orient="auto"
				markerUnits="strokeWidth">
			<use xlink:href="#lend2" transform="scale(-11.5,-11.5) "/>
		</marker>
	</defs>
	<g v:mID="0" v:index="1" v:groupContext="foregroundPage">
		<title>Page-1</title>
		<v:pageProperties v:drawingScale="0.0393701" v:pageScale="0.0393701" v:drawingUnits="24" v:shadowOffsetX="8.50394"
				v:shadowOffsetY="-8.50394"/>
		<v:layer v:name="Connector" v:index="0"/>
		<v:layer v:name="Flowchart" v:index="1"/>
		<g id="shape18-1" v:mID="18" v:groupContext="shape" v:layerMember="0;1" transform="translate(0.24,-121.532)">
			<title>On-page reference.68</title>
			<v:userDefs>
				<v:ud v:nameU="visVersion" v:val="VT0(11):26"/>
			</v:userDefs>
			<v:textBlock v:margins="rect(2,2,2,2)" v:tabSpace="42.5197"/>
			<path d="M0 128 A6.23259 6.23259 0 0 1 12.47 128 A6.23259 6.23259 0 1 1 0 128 Z" class="st1"/>
		</g>
		<g id="shape19-3" v:mID="19" v:groupContext="shape" v:layerMember="0;1" transform="translate(326.337,-54.6268)">
			<title>On-page reference.76</title>
			<v:userDefs>
				<v:ud v:nameU="visVersion" v:val="VT0(11):26"/>
			</v:userDefs>
			<v:textBlock v:margins="rect(2,2,2,2)" v:tabSpace="42.5197"/>
			<path d="M0 128 A6.23259 6.23259 0 0 1 12.47 128 A6.23259 6.23259 0 1 1 0 128 Z" class="st1"/>
		</g>
		<g id="shape20-5" v:mID="20" v:groupContext="shape" v:layerMember="1" transform="translate(37.6537,-92.0063)">
			<title>Process.78</title>
			<desc>constraint</desc>
			<v:custProps>
				<v:cp v:nameU="Cost" v:lbl="Cost" v:type="7" v:format="@" v:langID="1033"/>
				<v:cp v:nameU="Duration" v:lbl="Duration" v:type="2" v:langID="1033"/>
				<v:cp v:nameU="Resources" v:lbl="Resources" v:langID="1033"/>
			</v:custProps>
			<v:userDefs>
				<v:ud v:nameU="visVersion" v:val="VT0(11):26"/>
			</v:userDefs>
			<v:textBlock v:margins="rect(2,2,2,2)" v:tabSpace="42.5197"/>
			<v:textRect cx="25.2236" cy="127.686" width="50.45" height="13.1024"/>
			<rect x="0" y="121.134" width="50.4472" height="13.1024" rx="2.83465" ry="2.83465" class="st1"/>
			<text x="7.88" y="130.09" class="st2" v:langID="2057"><v:paragraph v:horizAlign="1"/><v:tabList/>constraint</text>		</g>
		<g id="shape21-8" v:mID="21" v:groupContext="shape" v:layerMember="1" transform="translate(37.6537,-57.8024)">
			<title>Process.80</title>
			<desc>constraintGroup</desc>
			<v:custProps>
				<v:cp v:nameU="Cost" v:lbl="Cost" v:type="7" v:format="@" v:langID="1033"/>
				<v:cp v:nameU="Duration" v:lbl="Duration" v:type="2" v:langID="1033"/>
				<v:cp v:nameU="Resources" v:lbl="Resources" v:langID="1033"/>
			</v:custProps>
			<v:userDefs>
				<v:ud v:nameU="visVersion" v:val="VT0(11):26"/>
			</v:userDefs>
			<v:textBlock v:margins="rect(2,2,2,2)" v:tabSpace="42.5197"/>
			<v:textRect cx="31.0372" cy="127.686" width="62.08" height="13.1024"/>
			<rect x="0" y="121.134" width="62.0744" height="13.1024" rx="2.83465" ry="2.83465" class="st1"/>
			<text x="2.57" y="130.09" class="st2" v:langID="2057"><v:paragraph v:horizAlign="1"/><v:tabList/>constraintGroup</text>		</g>
		<g id="shape22-11" v:mID="22" v:groupContext="shape" v:layerMember="1" transform="translate(153.311,-71.562)">
			<title>Process.81</title>
			<desc>‘,’ | ‘&#38;&#38;’ | ‘||’</desc>
			<v:custProps>
				<v:cp v:nameU="Cost" v:lbl="Cost" v:type="7" v:format="@" v:langID="1033"/>
				<v:cp v:nameU="Duration" v:lbl="Duration" v:type="2" v:langID="1033"/>
				<v:cp v:nameU="Resources" v:lbl="Resources" v:langID="1033"/>
			</v:custProps>
			<v:userDefs>
				<v:ud v:nameU="visVersion" v:val="VT0(11):26"/>
			</v:userDefs>
			<v:textBlock v:margins="rect(2,2,2,2)" v:tabSpace="42.5197"/>
			<v:textRect cx="22.6772" cy="127.114" width="45.36" height="14.2459"/>
			<rect x="0" y="119.991" width="45.3543" height="14.2459" rx="2.83465" ry="2.83465" class="st1"/>
			<text x="2.29" y="129.51" class="st3" v:langID="2057"><v:paragraph v:horizAlign="1"/><v:tabList/>‘,’ | ‘&#38;&#38;’ | ‘||’</text>		</g>
		<g id="shape23-14" v:mID="23" v:groupContext="shape" v:layerMember="0" transform="translate(12.7052,-127.764)">
			<title>Dynamic connector.82</title>
			<path d="M0 134.24 L5.31 134.24 A5.31496 5.31496 0 0 1 10.63 139.55 L10.63 157.77 A5.66929 5.66929 -180 0 0 16.3 163.44
						 L22.19 163.44" class="st4"/>
		</g>
		<g id="shape24-20" v:mID="24" v:groupContext="shape" v:layerMember="0" transform="translate(12.7052,-127.764)">
			<title>Dynamic connector.84</title>
			<path d="M0 134.24 L5.31 134.24 A5.31496 5.31496 0 0 1 10.63 139.55 L10.63 191.98 A5.66929 5.66929 -180 0 0 16.3 197.65
						 L22.19 197.65" class="st4"/>
		</g>
		<g id="shape25-25" v:mID="25" v:groupContext="shape" v:layerMember="0" transform="translate(88.1009,-98.5575)">
			<title>Dynamic connector.85</title>
			<path d="M0 134.24 L26.94 134.24 A5.66929 5.66929 -180 0 0 32.61 128.57 L32.61 122.89 A5.66929 5.66929 0 0 1 38.28 117.22
						 L238.8 117.22 A5.66929 5.66929 0 0 1 244.47 122.89 L244.47 162.94" class="st4"/>
		</g>
		<g id="shape26-30" v:mID="26" v:groupContext="shape" v:layerMember="0" transform="translate(88.1009,-98.5575)">
			<title>Dynamic connector.87</title>
			<path d="M0 134.24 L26.94 134.24 A5.66929 5.66929 0 0 1 32.61 139.91 L32.61 148.44 A5.66929 5.66929 -180 0 0 38.28 154.11
						 L62.45 154.11" class="st4"/>
		</g>
		<g id="shape27-35" v:mID="27" v:groupContext="shape" v:layerMember="1" transform="translate(225.028,-70.7528)">
			<title>Process.91</title>
			<desc>constraint</desc>
			<v:custProps>
				<v:cp v:nameU="Cost" v:lbl="Cost" v:type="7" v:format="@" v:langID="1033"/>
				<v:cp v:nameU="Duration" v:lbl="Duration" v:type="2" v:langID="1033"/>
				<v:cp v:nameU="Resources" v:lbl="Resources" v:langID="1033"/>
			</v:custProps>
			<v:userDefs>
				<v:ud v:nameU="visVersion" v:val="VT0(11):26"/>
			</v:userDefs>
			<v:textBlock v:margins="rect(2,2,2,2)" v:tabSpace="42.5197"/>
			<v:textRect cx="25.2236" cy="127.686" width="50.45" height="13.1024"/>
			<rect x="0" y="121.134" width="50.4472" height="13.1024" rx="2.83465" ry="2.83465" class="st1"/>
			<text x="7.88" y="130.09" class="st2" v:langID="2057"><v:paragraph v:horizAlign="1"/><v:tabList/>constraint</text>		</g>
		<g id="shape28-38" v:mID="28" v:groupContext="shape" v:layerMember="1" transform="translate(225.647,-31.9496)">
			<title>Process.148</title>
			<desc>constraintGroup</desc>
			<v:custProps>
				<v:cp v:nameU="Cost" v:lbl="Cost" v:type="7" v:format="@" v:langID="1033"/>
				<v:cp v:nameU="Duration" v:lbl="Duration" v:type="2" v:langID="1033"/>
				<v:cp v:nameU="Resources" v:lbl="Resources" v:langID="1033"/>
			</v:custProps>
			<v:userDefs>
				<v:ud v:nameU="visVersion" v:val="VT0(11):26"/>
			</v:userDefs>
			<v:textBlock v:margins="rect(2,2,2,2)" v:tabSpace="42.5197"/>
			<v:textRect cx="31.0372" cy="127.686" width="62.08" height="13.1024"/>
			<rect x="0" y="121.134" width="62.0744" height="13.1024" rx="2.83465" ry="2.83465" class="st1"/>
			<text x="2.57" y="130.09" class="st2" v:langID="2057"><v:paragraph v:horizAlign="1"/><v:tabList/>constraintGroup</text>		</g>
		<g id="shape29-41" v:mID="29" v:groupContext="shape" v:layerMember="0" transform="translate(198.665,-78.6849)">
			<title>Dynamic connector.157</title>
			<path d="M0 134.24 L9.01 134.24 A5.66929 5.66929 0 0 1 14.68 139.91 L14.68 168.75 A5.66929 5.66929 -180 0 0 20.34 174.42
						 L24.22 174.42" class="st4"/>
		</g>
		<g id="shape30-46" v:mID="30" v:groupContext="shape" v:layerMember="0" transform="translate(275.476,-77.3039)">
			<title>Dynamic connector.160</title>
			<path d="M0 134.24 L31.61 134.24 A5.66929 5.66929 0 0 1 37.28 139.91 L37.28 145.01 A5.66929 5.66929 -180 0 0 42.95 150.68
						 L48.1 150.68" class="st4"/>
		</g>
		<g id="shape31-51" v:mID="31" v:groupContext="shape" v:layerMember="0" transform="translate(287.721,-38.5008)">
			<title>Dynamic connector.162</title>
			<path d="M0 134.24 L19.01 134.24 A5.66929 5.66929 0 0 1 24.68 139.91 L24.68 146.46 A5.66929 5.66929 0 0 1 19.01 152.13
						 L-143.97 152.13 A5.66929 5.66929 0 0 1 -149.64 146.46 L-149.64 99.72 A5.66929 5.66929 0 0 1 -143.97 94.05
						 L-137.17 94.05" class="st4"/>
		</g>
		<g id="shape32-56" v:mID="32" v:groupContext="shape" v:layerMember="0" transform="translate(275.476,-70.9078)">
			<title>Dynamic connector.163</title>
			<path d="M0 127.84 L30.55 127.84 A5.66929 5.66929 -180 0 0 36.22 122.17 L36.22 109.42 A5.66929 5.66929 -180 0 0 30.55
						 103.75 L-132.23 103.75 A5.66929 5.66929 -180 0 0 -137.9 109.42 L-137.9 120.79 A5.66929 5.66929 -180 0 0
						 -132.23 126.46 L-124.92 126.46" class="st4"/>
		</g>
		<g id="shape33-61" v:mID="33" v:groupContext="shape" v:layerMember="0" transform="translate(287.721,-38.5008)">
			<title>Dynamic connector.165</title>
			<path d="M0 134.24 L20.54 134.24 A5.66929 5.66929 -180 0 0 26.21 128.57 L26.21 117.55 A5.66929 5.66929 0 0 1 31.88 111.88
						 L35.86 111.88" class="st4"/>
		</g>
		<g id="shape34-66" v:mID="34" v:groupContext="shape" v:layerMember="0" transform="translate(99.7281,-64.3536)">
			<title>Dynamic connector.20</title>
			<path d="M0 134.24 L15.32 134.24 A5.66929 5.66929 -180 0 0 20.98 128.57 L20.98 125.57 A5.66929 5.66929 0 0 1 26.65 119.91
						 L50.82 119.91" class="st4"/>
		</g>
		<g id="shape35-71" v:mID="35" v:groupContext="shape" v:layerMember="0" transform="translate(198.665,-85.081)">
			<title>Dynamic connector.69</title>
			<path d="M0 140.63 L9.94 140.63 a0.690491 0.690491 0 0 1 0.690491 0.690491 L10.63 141.32 a0.690491 0.690491 -180 0 0
						 0.690491 0.690491 L23.6 142.01" class="st4"/>
		</g>
		<g id="shape36-76" v:mID="36" v:groupContext="shape" v:layerMember="0" transform="translate(99.7281,-66.5768)">
			<title>Dynamic connector.77</title>
			<path d="M0 136.46 L16.34 136.46 A5.66929 5.66929 0 0 1 22.01 142.13 L22.01 186.34 A5.66929 5.66929 -180 0 0 27.68 192.01
						 L227.17 192.01 A5.66929 5.66929 -180 0 0 232.84 186.34 L232.84 148.95" class="st4"/>
		</g>
	</g>
</svg>
