<?xml version="1.0" encoding="UTF-8" standalone="no"?>
<!DOCTYPE svg PUBLIC "-//W3C//DTD SVG 1.0//EN" "http://www.w3.org/TR/2001/REC-SVG-20010904/DTD/svg10.dtd">
<!-- Generated by Microsoft Visio 11.0, SVG Export, v1.0 group.svg Page-1 -->
<svg xmlns="http://www.w3.org/2000/svg" xmlns:v="http://schemas.microsoft.com/visio/2003/SVGExtensions/" width="2.03886in"
		height="1.20322in" viewBox="0 0 146.798 86.632" xml:space="preserve" color-interpolation-filters="sRGB" class="st7">
	<v:documentProperties v:langID="1033" v:metric="true" v:viewMarkup="false"/>

	<style type="text/css">
	<![CDATA[
		.st1 {fill:#e8eef7;stroke:#000000;stroke-linecap:round;stroke-linejoin:round;stroke-width:0.24}
		.st2 {fill:#000000;font-family:Arial;font-size:0.666664em;font-style:italic}
		.st3 {marker-end:url(#mrkr2-9);stroke:#4677bf;stroke-linecap:round;stroke-linejoin:round;stroke-width:0.24}
		.st4 {fill:#4677bf;fill-opacity:1;stroke:#4677bf;stroke-opacity:1;stroke-width:0.08695652173913}
		.st5 {fill:#000000;font-family:Arial;font-size:0.666664em}
		.st6 {font-size:1em}
		.st7 {fill:none;fill-rule:evenodd;font-size:12;overflow:visible;stroke-linecap:square;stroke-miterlimit:3}
	]]>
	</style>

	<defs id="Markers">
		<g id="lend2">
			<path d="M 1 1 L 0 0 L 1 -1 L 1 1 " style="stroke:none"/>
		</g>
		<marker id="mrkr2-9" class="st4" v:arrowType="2" v:arrowSize="2" v:setback="11.5" refX="-11.5" orient="auto"
				markerUnits="strokeWidth">
			<use xlink:href="#lend2" transform="scale(-11.5,-11.5) "/>
		</marker>
	</defs>
	<g v:mID="0" v:index="1" v:groupContext="foregroundPage">
		<title>Page-1</title>
		<v:pageProperties v:drawingScale="0.0393701" v:pageScale="0.0393701" v:drawingUnits="24" v:shadowOffsetX="8.50394"
				v:shadowOffsetY="-8.50394"/>
		<v:layer v:name="Flowchart" v:index="0"/>
		<v:layer v:name="Connector" v:index="1"/>
		<g id="shape51-1" v:mID="51" v:groupContext="shape" v:layerMember="0" transform="translate(55.6825,-53.8625)">
			<title>Process.51</title>
			<desc>and</desc>
			<v:custProps>
				<v:cp v:nameU="Cost" v:lbl="Cost" v:type="7" v:format="@" v:langID="1033"/>
				<v:cp v:nameU="Duration" v:lbl="Duration" v:type="2" v:langID="1033"/>
				<v:cp v:nameU="Resources" v:lbl="Resources" v:langID="1033"/>
			</v:custProps>
			<v:userDefs>
				<v:ud v:nameU="visVersion" v:val="VT0(11):26"/>
			</v:userDefs>
			<v:textBlock v:margins="rect(2,2,2,2)" v:tabSpace="42.5197"/>
			<v:textRect cx="21.4689" cy="79.9622" width="42.94" height="13.3396"/>
			<rect x="0" y="73.2924" width="42.9378" height="13.3396" rx="2.83465" ry="2.83465" class="st1"/>
			<text x="14.8" y="82.36" class="st2" v:langID="2057"><v:paragraph v:horizAlign="1"/><v:tabList/>and</text>		</g>
		<g id="shape52-4" v:mID="52" v:groupContext="shape" v:layerMember="1" transform="translate(77.1514,-70.9538)">
			<title>Dynamic connector.52</title>
			<path d="M0 90.38 L0 85.07 A5.31496 5.31496 -180 0 0 -5.31 79.75 L-26.43 79.75 A5.66929 5.66929 -180 0 0 -32.1 85.42
						 L-32.1 91.74 A5.31496 5.31496 -180 0 0 -26.78 97.05 L-24.23 97.05" class="st3"/>
		</g>
		<g id="shape53-10" v:mID="53" v:groupContext="shape" v:layerMember="0" transform="translate(0.24,-36.8546)">
			<title>Process.53</title>
			<desc>‘(‘</desc>
			<v:custProps>
				<v:cp v:nameU="Cost" v:lbl="Cost" v:type="7" v:format="@" v:langID="1033"/>
				<v:cp v:nameU="Duration" v:lbl="Duration" v:type="2" v:langID="1033"/>
				<v:cp v:nameU="Resources" v:lbl="Resources" v:langID="1033"/>
			</v:custProps>
			<v:userDefs>
				<v:ud v:nameU="visVersion" v:val="VT0(11):26"/>
			</v:userDefs>
			<v:textBlock v:margins="rect(2,2,2,2)" v:tabSpace="42.5197"/>
			<v:textRect cx="10.0047" cy="79.9622" width="20.01" height="13.3396"/>
			<rect x="0" y="73.2924" width="20.0095" height="13.3396" rx="2.83465" ry="2.83465" class="st1"/>
			<text x="6.89" y="82.36" class="st5" v:langID="1033"><v:paragraph v:horizAlign="1"/><v:tabList/>‘<tspan class="st6"
						v:langID="2057">(</tspan>‘</text>		</g>
		<g id="shape54-14" v:mID="54" v:groupContext="shape" v:layerMember="0" transform="translate(55.2644,-19.4299)">
			<title>Process.54</title>
			<desc>or</desc>
			<v:custProps>
				<v:cp v:nameU="Cost" v:lbl="Cost" v:type="7" v:format="@" v:langID="1033"/>
				<v:cp v:nameU="Duration" v:lbl="Duration" v:type="2" v:langID="1033"/>
				<v:cp v:nameU="Resources" v:lbl="Resources" v:langID="1033"/>
			</v:custProps>
			<v:userDefs>
				<v:ud v:nameU="visVersion" v:val="VT0(11):26"/>
			</v:userDefs>
			<v:textBlock v:margins="rect(2,2,2,2)" v:tabSpace="42.5197"/>
			<v:textRect cx="21.4689" cy="79.9622" width="42.94" height="13.3396"/>
			<rect x="0" y="73.2924" width="42.9378" height="13.3396" rx="2.83465" ry="2.83465" class="st1"/>
			<text x="17.92" y="82.36" class="st2" v:langID="2057"><v:paragraph v:horizAlign="1"/><v:tabList/>or</text>		</g>
		<g id="shape55-17" v:mID="55" v:groupContext="shape" v:layerMember="0" transform="translate(126.549,-36.8546)">
			<title>Process.55</title>
			<desc>‘)’</desc>
			<v:custProps>
				<v:cp v:nameU="Cost" v:lbl="Cost" v:type="7" v:format="@" v:langID="1033"/>
				<v:cp v:nameU="Duration" v:lbl="Duration" v:type="2" v:langID="1033"/>
				<v:cp v:nameU="Resources" v:lbl="Resources" v:langID="1033"/>
			</v:custProps>
			<v:userDefs>
				<v:ud v:nameU="visVersion" v:val="VT0(11):26"/>
			</v:userDefs>
			<v:textBlock v:margins="rect(2,2,2,2)" v:tabSpace="42.5197"/>
			<v:textRect cx="10.0047" cy="79.9622" width="20.01" height="13.3396"/>
			<rect x="0" y="73.2924" width="20.0095" height="13.3396" rx="2.83465" ry="2.83465" class="st1"/>
			<text x="6.89" y="82.36" class="st5" v:langID="1033"><v:paragraph v:horizAlign="1"/><v:tabList/>‘<tspan class="st6"
						v:langID="2057">)</tspan>’</text>		</g>
		<g id="shape57-21" v:mID="57" v:groupContext="shape" v:layerMember="1" transform="translate(76.7333,-15.6782)">
			<title>Dynamic connector.57</title>
			<path d="M0 82.88 L0 88.2 A5.31496 5.31496 0 0 1 -5.31 93.51 L-26.43 93.51 A5.66929 5.66929 0 0 1 -32.1 87.84 L-32.1
						 81.53 A5.31496 5.31496 0 0 1 -26.78 76.21 L-24.23 76.21" class="st3"/>
		</g>
		<g id="shape58-26" v:mID="58" v:groupContext="shape" v:layerMember="1" transform="translate(98.6204,-60.5323)">
			<title>Dynamic connector.58</title>
			<path d="M0 86.63 L8.44 86.63 A5.66929 5.66929 0 0 1 14.11 92.3 L14.11 97.97 A5.66929 5.66929 -180 0 0 19.78 103.64 L25.17
						 103.64" class="st3"/>
		</g>
		<g id="shape59-31" v:mID="59" v:groupContext="shape" v:layerMember="1" transform="translate(98.2022,-26.0997)">
			<title>Dynamic connector.59</title>
			<path d="M0 86.63 L8.86 86.63 A5.66929 5.66929 -180 0 0 14.53 80.96 L14.53 74.88 A5.66929 5.66929 0 0 1 20.2 69.21 L25.59
						 69.21" class="st3"/>
		</g>
		<g id="shape60-36" v:mID="60" v:groupContext="shape" v:layerMember="1" transform="translate(20.2495,-43.5244)">
			<title>Dynamic connector.60</title>
			<path d="M0 86.63 L8.5 86.63 A5.66929 5.66929 -180 0 0 14.17 80.96 L14.17 75.29 A5.66929 5.66929 0 0 1 19.84 69.62 L32.67
						 69.62" class="st3"/>
		</g>
		<g id="shape61-41" v:mID="61" v:groupContext="shape" v:layerMember="1" transform="translate(20.2495,-43.5244)">
			<title>Dynamic connector.61</title>
			<path d="M0 86.63 L7.09 86.63 A5.66929 5.66929 0 0 1 12.76 92.3 L12.76 98.39 A5.66929 5.66929 -180 0 0 18.43 104.06 L32.25
						 104.06" class="st3"/>
		</g>
		<g id="shape56-46" v:mID="56" v:groupContext="shape" v:layerMember="1" transform="translate(76.7333,-32.7696)">
			<title>Dynamic connector.56</title>
			<path d="M0 86.63 L0 83.41 A3.22021 3.22021 -180 0 0 -3.22 80.19 L-26.01 80.19 A5.66929 5.66929 0 0 1 -31.68 74.52 L-31.68
						 64.18 A5.31496 5.31496 0 0 1 -26.37 58.87 L-23.81 58.87" class="st3"/>
		</g>
		<g id="shape62-51" v:mID="62" v:groupContext="shape" v:layerMember="1" transform="translate(77.1514,-53.8625)">
			<title>Dynamic connector.62</title>
			<path d="M0 86.63 L0 89.53 A2.89711 2.89711 0 0 1 -2.9 92.43 L-26.85 92.43 A5.66929 5.66929 -180 0 0 -32.52 98.1 L-32.52
						 109.08 A5.31496 5.31496 -180 0 0 -27.2 114.39 L-24.65 114.39" class="st3"/>
		</g>
	</g>
</svg>
