<?xml version="1.0" encoding="UTF-8" standalone="no"?>
<!DOCTYPE svg PUBLIC "-//W3C//DTD SVG 1.0//EN" "http://www.w3.org/TR/2001/REC-SVG-20010904/DTD/svg10.dtd">
<!-- Generated by Microsoft Visio 11.0, SVG Export, v1.0 literal_constraints.svg Page-1 -->
<svg xmlns="http://www.w3.org/2000/svg" xmlns:v="http://schemas.microsoft.com/visio/2003/SVGExtensions/" width="2.46817in"
		height="2.05002in" viewBox="0 0 177.708 147.602" xml:space="preserve" color-interpolation-filters="sRGB" class="st5">
	<v:documentProperties v:langID="1033" v:metric="true" v:viewMarkup="false"/>

	<style type="text/css">
	<![CDATA[
		.st1 {fill:#e8eef7;stroke:#000000;stroke-linecap:round;stroke-linejoin:round;stroke-width:0.24}
		.st2 {fill:#000000;font-family:Arial;font-size:0.666664em;font-style:italic}
		.st3 {marker-end:url(#mrkr2-25);stroke:#4677bf;stroke-linecap:round;stroke-linejoin:round;stroke-width:0.24}
		.st4 {fill:#4677bf;fill-opacity:1;stroke:#4677bf;stroke-opacity:1;stroke-width:0.08695652173913}
		.st5 {fill:none;fill-rule:evenodd;font-size:12;overflow:visible;stroke-linecap:square;stroke-miterlimit:3}
	]]>
	</style>

	<defs id="Markers">
		<g id="lend2">
			<path d="M 1 1 L 0 0 L 1 -1 L 1 1 " style="stroke:none"/>
		</g>
		<marker id="mrkr2-25" class="st4" v:arrowType="2" v:arrowSize="2" v:setback="11.5" refX="-11.5" orient="auto"
				markerUnits="strokeWidth">
			<use xlink:href="#lend2" transform="scale(-11.5,-11.5) "/>
		</marker>
	</defs>
	<g v:mID="0" v:index="1" v:groupContext="foregroundPage">
		<title>Page-1</title>
		<v:pageProperties v:drawingScale="0.0393701" v:pageScale="0.0393701" v:drawingUnits="24" v:shadowOffsetX="8.50394"
				v:shadowOffsetY="-8.50394"/>
		<v:layer v:name="Connector" v:index="0"/>
		<v:layer v:name="Flowchart" v:index="1"/>
		<g id="shape51-1" v:mID="51" v:groupContext="shape" v:layerMember="0;1" transform="translate(0.24,-133.069)">
			<title>On-page reference.187</title>
			<v:userDefs>
				<v:ud v:nameU="visVersion" v:val="VT0(11):26"/>
			</v:userDefs>
			<v:textBlock v:margins="rect(2,2,2,2)" v:tabSpace="42.5197"/>
			<path d="M0 141.87 A5.73228 5.73228 0 0 1 11.46 141.87 A5.73228 5.73228 0 1 1 0 141.87 Z" class="st1"/>
		</g>
		<g id="shape52-3" v:mID="52" v:groupContext="shape" v:layerMember="0;1" transform="translate(166.004,-133.069)">
			<title>On-page reference.188</title>
			<v:userDefs>
				<v:ud v:nameU="visVersion" v:val="VT0(11):26"/>
			</v:userDefs>
			<v:textBlock v:margins="rect(2,2,2,2)" v:tabSpace="42.5197"/>
			<path d="M0 141.87 A5.73228 5.73228 0 0 1 11.46 141.87 A5.73228 5.73228 0 1 1 0 141.87 Z" class="st1"/>
		</g>
		<g id="shape53-5" v:mID="53" v:groupContext="shape" v:layerMember="1" transform="translate(59.5782,-132.251)">
			<title>Process.190</title>
			<desc>numeric</desc>
			<v:custProps>
				<v:cp v:nameU="Cost" v:lbl="Cost" v:type="7" v:format="@" v:langID="1033"/>
				<v:cp v:nameU="Duration" v:lbl="Duration" v:type="2" v:langID="1033"/>
				<v:cp v:nameU="Resources" v:lbl="Resources" v:langID="1033"/>
			</v:custProps>
			<v:userDefs>
				<v:ud v:nameU="visVersion" v:val="VT0(11):26"/>
			</v:userDefs>
			<v:textBlock v:margins="rect(2,2,2,2)" v:tabSpace="42.5197"/>
			<v:textRect cx="31.0372" cy="141.051" width="62.08" height="13.1024"/>
			<rect x="0" y="134.499" width="62.0744" height="13.1024" rx="2.83465" ry="2.83465" class="st1"/>
			<text x="16.8" y="143.45" class="st2" v:langID="2057"><v:paragraph v:horizAlign="1"/><v:tabList/>numeric</text>		</g>
		<g id="shape54-8" v:mID="54" v:groupContext="shape" v:layerMember="1" transform="translate(59.5782,-103.169)">
			<title>Process.184</title>
			<desc>date</desc>
			<v:custProps>
				<v:cp v:nameU="Cost" v:lbl="Cost" v:type="7" v:format="@" v:langID="1033"/>
				<v:cp v:nameU="Duration" v:lbl="Duration" v:type="2" v:langID="1033"/>
				<v:cp v:nameU="Resources" v:lbl="Resources" v:langID="1033"/>
			</v:custProps>
			<v:userDefs>
				<v:ud v:nameU="visVersion" v:val="VT0(11):26"/>
			</v:userDefs>
			<v:textBlock v:margins="rect(2,2,2,2)" v:tabSpace="42.5197"/>
			<v:textRect cx="31.0372" cy="141.051" width="62.08" height="13.1024"/>
			<rect x="0" y="134.499" width="62.0744" height="13.1024" rx="2.83465" ry="2.83465" class="st1"/>
			<text x="23.24" y="143.45" class="st2" v:langID="2057"><v:paragraph v:horizAlign="1"/><v:tabList/>date</text>		</g>
		<g id="shape55-11" v:mID="55" v:groupContext="shape" v:layerMember="1" transform="translate(59.5782,-75.4155)">
			<title>Process.185</title>
			<desc>string</desc>
			<v:custProps>
				<v:cp v:nameU="Cost" v:lbl="Cost" v:type="7" v:format="@" v:langID="1033"/>
				<v:cp v:nameU="Duration" v:lbl="Duration" v:type="2" v:langID="1033"/>
				<v:cp v:nameU="Resources" v:lbl="Resources" v:langID="1033"/>
			</v:custProps>
			<v:userDefs>
				<v:ud v:nameU="visVersion" v:val="VT0(11):26"/>
			</v:userDefs>
			<v:textBlock v:margins="rect(2,2,2,2)" v:tabSpace="42.5197"/>
			<v:textRect cx="31.0372" cy="141.051" width="62.08" height="13.1024"/>
			<rect x="0" y="134.499" width="62.0744" height="13.1024" rx="2.83465" ry="2.83465" class="st1"/>
			<text x="21.24" y="143.45" class="st2" v:langID="2057"><v:paragraph v:horizAlign="1"/><v:tabList/>string</text>		</g>
		<g id="shape56-14" v:mID="56" v:groupContext="shape" v:layerMember="1" transform="translate(59.5782,-50.7597)">
			<title>Process.195</title>
			<desc>boolean</desc>
			<v:custProps>
				<v:cp v:nameU="Cost" v:lbl="Cost" v:type="7" v:format="@" v:langID="1033"/>
				<v:cp v:nameU="Duration" v:lbl="Duration" v:type="2" v:langID="1033"/>
				<v:cp v:nameU="Resources" v:lbl="Resources" v:langID="1033"/>
			</v:custProps>
			<v:userDefs>
				<v:ud v:nameU="visVersion" v:val="VT0(11):26"/>
			</v:userDefs>
			<v:textBlock v:margins="rect(2,2,2,2)" v:tabSpace="42.5197"/>
			<v:textRect cx="31.0372" cy="141.051" width="62.08" height="13.1024"/>
			<rect x="0" y="134.499" width="62.0744" height="13.1024" rx="2.83465" ry="2.83465" class="st1"/>
			<text x="16.79" y="143.45" class="st2" v:langID="2057"><v:paragraph v:horizAlign="1"/><v:tabList/>boolean</text>		</g>
		<g id="shape57-17" v:mID="57" v:groupContext="shape" v:layerMember="1" transform="translate(59.5782,-24.555)">
			<title>Process.196</title>
			<desc>enum</desc>
			<v:custProps>
				<v:cp v:nameU="Cost" v:lbl="Cost" v:type="7" v:format="@" v:langID="1033"/>
				<v:cp v:nameU="Duration" v:lbl="Duration" v:type="2" v:langID="1033"/>
				<v:cp v:nameU="Resources" v:lbl="Resources" v:langID="1033"/>
			</v:custProps>
			<v:userDefs>
				<v:ud v:nameU="visVersion" v:val="VT0(11):26"/>
			</v:userDefs>
			<v:textBlock v:margins="rect(2,2,2,2)" v:tabSpace="42.5197"/>
			<v:textRect cx="31.0372" cy="141.051" width="62.08" height="13.1024"/>
			<rect x="0" y="134.499" width="62.0744" height="13.1024" rx="2.83465" ry="2.83465" class="st1"/>
			<text x="21.02" y="143.45" class="st2" v:langID="2057"><v:paragraph v:horizAlign="1"/><v:tabList/>enum</text>		</g>
		<g id="shape58-20" v:mID="58" v:groupContext="shape" v:layerMember="0" transform="translate(11.7046,-138.802)">
			<title>Dynamic connector.186</title>
			<path d="M0 147.6 L23.97 147.6 A5.66929 5.66929 0 0 1 29.64 153.27 L29.64 249.63 A5.66929 5.66929 -180 0 0 35.31 255.3
						 L45.11 255.3" class="st3"/>
		</g>
		<g id="shape59-26" v:mID="59" v:groupContext="shape" v:layerMember="0" transform="translate(11.7046,-138.802)">
			<title>Dynamic connector.189</title>
			<path d="M0 147.6 L23.97 147.6 A5.66929 5.66929 0 0 1 29.64 153.27 L29.64 223.42 A5.66929 5.66929 -180 0 0 35.31 229.09
						 L45.11 229.09" class="st3"/>
		</g>
		<g id="shape60-31" v:mID="60" v:groupContext="shape" v:layerMember="0" transform="translate(11.7046,-138.802)">
			<title>Dynamic connector.191</title>
			<path d="M0 147.6 L23.97 147.6 A5.66929 5.66929 0 0 1 29.64 153.27 L29.64 198.77 A5.66929 5.66929 -180 0 0 35.31 204.44
						 L45.11 204.44" class="st3"/>
		</g>
		<g id="shape61-36" v:mID="61" v:groupContext="shape" v:layerMember="0" transform="translate(11.7046,-138.802)">
			<title>Dynamic connector.192</title>
			<path d="M0 147.6 L23.97 147.6 A5.66929 5.66929 0 0 1 29.64 153.27 L29.64 171.01 A5.66929 5.66929 -180 0 0 35.31 176.68
						 L45.11 176.68" class="st3"/>
		</g>
		<g id="shape62-41" v:mID="62" v:groupContext="shape" v:layerMember="0" transform="translate(11.7046,-131.715)">
			<title>Dynamic connector.197</title>
			<path d="M0 140.52 L23.29 140.52 L45.11 140.52" class="st3"/>
		</g>
		<g id="shape63-46" v:mID="63" v:groupContext="shape" v:layerMember="0" transform="translate(121.653,-31.1061)">
			<title>Dynamic connector.198</title>
			<path d="M0 147.6 L8.98 147.6 A5.66929 5.66929 -180 0 0 14.65 141.93 L14.65 45.58 A5.66929 5.66929 0 0 1 20.32 39.91
						 L41.59 39.91" class="st3"/>
		</g>
		<g id="shape64-51" v:mID="64" v:groupContext="shape" v:layerMember="0" transform="translate(121.653,-145.888)">
			<title>Dynamic connector.199</title>
			<path d="M0 154.69 L26.99 154.69 L41.59 154.69" class="st3"/>
		</g>
		<g id="shape65-56" v:mID="65" v:groupContext="shape" v:layerMember="0" transform="translate(121.653,-109.72)">
			<title>Dynamic connector.200</title>
			<path d="M0 147.6 L8.98 147.6 A5.66929 5.66929 -180 0 0 14.65 141.93 L14.65 124.19 A5.66929 5.66929 0 0 1 20.32 118.52
						 L41.59 118.52" class="st3"/>
		</g>
		<g id="shape66-61" v:mID="66" v:groupContext="shape" v:layerMember="0" transform="translate(121.653,-81.9667)">
			<title>Dynamic connector.201</title>
			<path d="M0 147.6 L8.98 147.6 A5.66929 5.66929 -180 0 0 14.65 141.93 L14.65 96.44 A5.66929 5.66929 0 0 1 20.32 90.77
						 L41.59 90.77" class="st3"/>
		</g>
		<g id="shape67-66" v:mID="67" v:groupContext="shape" v:layerMember="0" transform="translate(121.653,-57.3109)">
			<title>Dynamic connector.202</title>
			<path d="M0 147.6 L8.98 147.6 A5.66929 5.66929 -180 0 0 14.65 141.93 L14.65 71.78 A5.66929 5.66929 0 0 1 20.32 66.11
						 L41.59 66.11" class="st3"/>
		</g>
		<g id="shape74-71" v:mID="74" v:groupContext="shape" v:layerMember="1" transform="translate(59.5782,-0.24)">
			<title>Process.74</title>
			<desc>regexp</desc>
			<v:custProps>
				<v:cp v:nameU="Cost" v:lbl="Cost" v:type="7" v:format="@" v:langID="1033"/>
				<v:cp v:nameU="Duration" v:lbl="Duration" v:type="2" v:langID="1033"/>
				<v:cp v:nameU="Resources" v:lbl="Resources" v:langID="1033"/>
			</v:custProps>
			<v:userDefs>
				<v:ud v:nameU="visVersion" v:val="VT0(11):26"/>
			</v:userDefs>
			<v:textBlock v:margins="rect(2,2,2,2)" v:tabSpace="42.5197"/>
			<v:textRect cx="31.0372" cy="141.051" width="62.08" height="13.1024"/>
			<rect x="0" y="134.499" width="62.0744" height="13.1024" rx="2.83465" ry="2.83465" class="st1"/>
			<text x="18.79" y="143.45" class="st2" v:langID="2057"><v:paragraph v:horizAlign="1"/><v:tabList/>regexp</text>		</g>
		<g id="shape75-74" v:mID="75" v:groupContext="shape" v:layerMember="0" transform="translate(11.7046,-138.802)">
			<title>Dynamic connector.75</title>
			<path d="M0 147.6 L23.97 147.6 A5.66929 5.66929 0 0 1 29.64 153.27 L29.64 273.94 A5.66929 5.66929 -180 0 0 35.31 279.61
						 L45.11 279.61" class="st3"/>
		</g>
		<g id="shape76-79" v:mID="76" v:groupContext="shape" v:layerMember="0" transform="translate(121.653,-6.79118)">
			<title>Dynamic connector.76</title>
			<path d="M0 147.6 L8.98 147.6 A5.66929 5.66929 -180 0 0 14.65 141.93 L14.65 21.26 A5.66929 5.66929 0 0 1 20.32 15.59
						 L41.59 15.59" class="st3"/>
		</g>
	</g>
</svg>
