<?xml version="1.0" encoding="UTF-8" standalone="no"?>
<!DOCTYPE svg PUBLIC "-//W3C//DTD SVG 1.0//EN" "http://www.w3.org/TR/2001/REC-SVG-20010904/DTD/svg10.dtd">
<!-- Generated by Microsoft Visio 11.0, SVG Export, v1.0 literal.svg Page-1 -->
<svg xmlns="http://www.w3.org/2000/svg" xmlns:v="http://schemas.microsoft.com/visio/2003/SVGExtensions/" width="2.46817in"
		height="1.32456in" viewBox="0 0 177.708 95.3687" xml:space="preserve" color-interpolation-filters="sRGB" class="st5">
	<v:documentProperties v:langID="1033" v:metric="true" v:viewMarkup="false"/>

	<style type="text/css">
	<![CDATA[
		.st1 {fill:#e8eef7;stroke:#000000;stroke-linecap:round;stroke-linejoin:round;stroke-width:0.24}
		.st2 {fill:#000000;font-family:Arial;font-size:0.666664em;font-style:italic}
		.st3 {marker-end:url(#mrkr2-20);stroke:#4677bf;stroke-linecap:round;stroke-linejoin:round;stroke-width:0.24}
		.st4 {fill:#4677bf;fill-opacity:1;stroke:#4677bf;stroke-opacity:1;stroke-width:0.08695652173913}
		.st5 {fill:none;fill-rule:evenodd;font-size:12;overflow:visible;stroke-linecap:square;stroke-miterlimit:3}
	]]>
	</style>

	<defs id="Markers">
		<g id="lend2">
			<path d="M 1 1 L 0 0 L 1 -1 L 1 1 " style="stroke:none"/>
		</g>
		<marker id="mrkr2-20" class="st4" v:arrowType="2" v:arrowSize="2" v:setback="11.5" refX="-11.5" orient="auto"
				markerUnits="strokeWidth">
			<use xlink:href="#lend2" transform="scale(-11.5,-11.5) "/>
		</marker>
	</defs>
	<g v:mID="0" v:index="1" v:groupContext="foregroundPage">
		<title>Page-1</title>
		<v:pageProperties v:drawingScale="0.0393701" v:pageScale="0.0393701" v:drawingUnits="24" v:shadowOffsetX="8.50394"
				v:shadowOffsetY="-8.50394"/>
		<v:layer v:name="Connector" v:index="0"/>
		<v:layer v:name="Flowchart" v:index="1"/>
		<g id="shape39-1" v:mID="39" v:groupContext="shape" v:layerMember="0;1" transform="translate(166.004,-82.5498)">
			<title>On-page reference.42</title>
			<v:userDefs>
				<v:ud v:nameU="visVersion" v:val="VT0(11):26"/>
			</v:userDefs>
			<v:textBlock v:margins="rect(2,2,2,2)" v:tabSpace="42.5197"/>
			<path d="M0 89.64 A5.73228 5.73228 0 0 1 11.46 89.64 A5.73228 5.73228 0 1 1 0 89.64 Z" class="st1"/>
		</g>
		<g id="shape40-3" v:mID="40" v:groupContext="shape" v:layerMember="1" transform="translate(59.5782,-81.7309)">
			<title>Process.99</title>
			<desc>numeric</desc>
			<v:custProps>
				<v:cp v:nameU="Cost" v:lbl="Cost" v:type="7" v:format="@" v:langID="1033"/>
				<v:cp v:nameU="Duration" v:lbl="Duration" v:type="2" v:langID="1033"/>
				<v:cp v:nameU="Resources" v:lbl="Resources" v:langID="1033"/>
			</v:custProps>
			<v:userDefs>
				<v:ud v:nameU="visVersion" v:val="VT0(11):26"/>
			</v:userDefs>
			<v:textBlock v:margins="rect(2,2,2,2)" v:tabSpace="42.5197"/>
			<v:textRect cx="31.0372" cy="88.8175" width="62.08" height="13.1024"/>
			<rect x="0" y="82.2663" width="62.0744" height="13.1024" rx="2.83465" ry="2.83465" class="st1"/>
			<text x="16.8" y="91.22" class="st2" v:langID="2057"><v:paragraph v:horizAlign="1"/><v:tabList/>numeric</text>		</g>
		<g id="shape41-6" v:mID="41" v:groupContext="shape" v:layerMember="1" transform="translate(59.5782,-52.6494)">
			<title>Process.100</title>
			<desc>date</desc>
			<v:custProps>
				<v:cp v:nameU="Cost" v:lbl="Cost" v:type="7" v:format="@" v:langID="1033"/>
				<v:cp v:nameU="Duration" v:lbl="Duration" v:type="2" v:langID="1033"/>
				<v:cp v:nameU="Resources" v:lbl="Resources" v:langID="1033"/>
			</v:custProps>
			<v:userDefs>
				<v:ud v:nameU="visVersion" v:val="VT0(11):26"/>
			</v:userDefs>
			<v:textBlock v:margins="rect(2,2,2,2)" v:tabSpace="42.5197"/>
			<v:textRect cx="31.0372" cy="88.8175" width="62.08" height="13.1024"/>
			<rect x="0" y="82.2663" width="62.0744" height="13.1024" rx="2.83465" ry="2.83465" class="st1"/>
			<text x="23.24" y="91.22" class="st2" v:langID="2057"><v:paragraph v:horizAlign="1"/><v:tabList/>date</text>		</g>
		<g id="shape42-9" v:mID="42" v:groupContext="shape" v:layerMember="1" transform="translate(59.5782,-24.8958)">
			<title>Process.101</title>
			<desc>string</desc>
			<v:custProps>
				<v:cp v:nameU="Cost" v:lbl="Cost" v:type="7" v:format="@" v:langID="1033"/>
				<v:cp v:nameU="Duration" v:lbl="Duration" v:type="2" v:langID="1033"/>
				<v:cp v:nameU="Resources" v:lbl="Resources" v:langID="1033"/>
			</v:custProps>
			<v:userDefs>
				<v:ud v:nameU="visVersion" v:val="VT0(11):26"/>
			</v:userDefs>
			<v:textBlock v:margins="rect(2,2,2,2)" v:tabSpace="42.5197"/>
			<v:textRect cx="31.0372" cy="88.8175" width="62.08" height="13.1024"/>
			<rect x="0" y="82.2663" width="62.0744" height="13.1024" rx="2.83465" ry="2.83465" class="st1"/>
			<text x="21.24" y="91.22" class="st2" v:langID="2057"><v:paragraph v:horizAlign="1"/><v:tabList/>string</text>		</g>
		<g id="shape43-12" v:mID="43" v:groupContext="shape" v:layerMember="1" transform="translate(59.5782,-0.24)">
			<title>Process.102</title>
			<desc>boolean</desc>
			<v:custProps>
				<v:cp v:nameU="Cost" v:lbl="Cost" v:type="7" v:format="@" v:langID="1033"/>
				<v:cp v:nameU="Duration" v:lbl="Duration" v:type="2" v:langID="1033"/>
				<v:cp v:nameU="Resources" v:lbl="Resources" v:langID="1033"/>
			</v:custProps>
			<v:userDefs>
				<v:ud v:nameU="visVersion" v:val="VT0(11):26"/>
			</v:userDefs>
			<v:textBlock v:margins="rect(2,2,2,2)" v:tabSpace="42.5197"/>
			<v:textRect cx="31.0372" cy="88.8175" width="62.08" height="13.1024"/>
			<rect x="0" y="82.2663" width="62.0744" height="13.1024" rx="2.83465" ry="2.83465" class="st1"/>
			<text x="16.79" y="91.22" class="st2" v:langID="2057"><v:paragraph v:horizAlign="1"/><v:tabList/>boolean</text>		</g>
		<g id="shape46-15" v:mID="46" v:groupContext="shape" v:layerMember="0" transform="translate(11.7046,-88.2821)">
			<title>Dynamic connector.105</title>
			<path d="M0 95.37 L23.97 95.37 A5.66929 5.66929 0 0 1 29.64 101.04 L29.64 171.19 A5.66929 5.66929 -180 0 0 35.31 176.86
						 L45.11 176.86" class="st3"/>
		</g>
		<g id="shape47-21" v:mID="47" v:groupContext="shape" v:layerMember="0" transform="translate(11.7046,-88.2821)">
			<title>Dynamic connector.106</title>
			<path d="M0 95.37 L23.97 95.37 A5.66929 5.66929 0 0 1 29.64 101.04 L29.64 146.53 A5.66929 5.66929 -180 0 0 35.31 152.2
						 L45.11 152.2" class="st3"/>
		</g>
		<g id="shape48-26" v:mID="48" v:groupContext="shape" v:layerMember="0" transform="translate(11.7046,-88.2821)">
			<title>Dynamic connector.107</title>
			<path d="M0 95.37 L23.97 95.37 A5.66929 5.66929 0 0 1 29.64 101.04 L29.64 118.78 A5.66929 5.66929 -180 0 0 35.31 124.45
						 L45.11 124.45" class="st3"/>
		</g>
		<g id="shape49-31" v:mID="49" v:groupContext="shape" v:layerMember="0" transform="translate(11.7046,-81.1954)">
			<title>Dynamic connector.108</title>
			<path d="M0 88.28 L45.11 88.28" class="st3"/>
		</g>
		<g id="shape51-36" v:mID="51" v:groupContext="shape" v:layerMember="0" transform="translate(121.653,-95.3687)">
			<title>Dynamic connector.110</title>
			<path d="M0 102.46 L41.59 102.46" class="st3"/>
		</g>
		<g id="shape52-41" v:mID="52" v:groupContext="shape" v:layerMember="0" transform="translate(121.653,-59.2006)">
			<title>Dynamic connector.111</title>
			<path d="M0 95.37 L8.98 95.37 A5.66929 5.66929 -180 0 0 14.65 89.7 L14.65 71.96 A5.66929 5.66929 0 0 1 20.32 66.29 L41.59
						 66.29" class="st3"/>
		</g>
		<g id="shape53-46" v:mID="53" v:groupContext="shape" v:layerMember="0" transform="translate(121.653,-31.447)">
			<title>Dynamic connector.112</title>
			<path d="M0 95.37 L8.98 95.37 A5.66929 5.66929 -180 0 0 14.65 89.7 L14.65 44.2 A5.66929 5.66929 0 0 1 20.32 38.53 L41.59
						 38.53" class="st3"/>
		</g>
		<g id="shape54-51" v:mID="54" v:groupContext="shape" v:layerMember="0" transform="translate(121.653,-6.79118)">
			<title>Dynamic connector.113</title>
			<path d="M0 95.37 L8.98 95.37 A5.66929 5.66929 -180 0 0 14.65 89.7 L14.65 19.55 A5.66929 5.66929 0 0 1 20.32 13.88 L41.59
						 13.88" class="st3"/>
		</g>
		<g id="shape55-56" v:mID="55" v:groupContext="shape" v:layerMember="0;1" transform="translate(0.24,-82.5498)">
			<title>On-page reference.115</title>
			<v:userDefs>
				<v:ud v:nameU="visVersion" v:val="VT0(11):26"/>
			</v:userDefs>
			<v:textBlock v:margins="rect(2,2,2,2)" v:tabSpace="42.5197"/>
			<path d="M0 89.64 A5.73228 5.73228 0 0 1 11.46 89.64 A5.73228 5.73228 0 1 1 0 89.64 Z" class="st1"/>
		</g>
	</g>
</svg>
