<?xml version="1.0" encoding="UTF-8" standalone="no"?>
<!DOCTYPE svg PUBLIC "-//W3C//DTD SVG 1.0//EN" "http://www.w3.org/TR/2001/REC-SVG-20010904/DTD/svg10.dtd">
<!-- Generated by Microsoft Visio 11.0, SVG Export, v1.0 rule_attributes.svg Page-1 -->
<svg xmlns="http://www.w3.org/2000/svg" xmlns:v="http://schemas.microsoft.com/visio/2003/SVGExtensions/" width="3.90316in"
		height="1.86039in" viewBox="0 0 281.027 133.948" xml:space="preserve" color-interpolation-filters="sRGB" class="st7">
	<v:documentProperties v:langID="1033" v:metric="true" v:viewMarkup="false"/>

	<style type="text/css">
	<![CDATA[
		.st1 {fill:#e8eef7;stroke:#000000;stroke-linecap:round;stroke-linejoin:round;stroke-width:0.24}
		.st2 {fill:#000000;font-family:Arial;font-size:0.666664em}
		.st3 {font-size:1em}
		.st4 {marker-end:url(#mrkr2-16);stroke:#4677bf;stroke-linecap:round;stroke-linejoin:round;stroke-width:0.24}
		.st5 {fill:#4677bf;fill-opacity:1;stroke:#4677bf;stroke-opacity:1;stroke-width:0.08695652173913}
		.st6 {fill:#000000;font-family:Arial;font-size:0.666664em;font-style:italic}
		.st7 {fill:none;fill-rule:evenodd;font-size:12;overflow:visible;stroke-linecap:square;stroke-miterlimit:3}
	]]>
	</style>

	<defs id="Markers">
		<g id="lend2">
			<path d="M 1 1 L 0 0 L 1 -1 L 1 1 " style="stroke:none"/>
		</g>
		<marker id="mrkr2-16" class="st5" v:arrowType="2" v:arrowSize="2" v:setback="11.5" refX="-11.5" orient="auto"
				markerUnits="strokeWidth">
			<use xlink:href="#lend2" transform="scale(-11.5,-11.5) "/>
		</marker>
	</defs>
	<g v:mID="0" v:index="1" v:groupContext="foregroundPage">
		<title>Page-1</title>
		<v:pageProperties v:drawingScale="0.0393701" v:pageScale="0.0393701" v:drawingUnits="24" v:shadowOffsetX="8.50394"
				v:shadowOffsetY="-8.50394"/>
		<v:layer v:name="Flowchart" v:index="0"/>
		<v:layer v:name="Connector" v:index="1"/>
		<g id="shape5-1" v:mID="5" v:groupContext="shape" v:layerMember="0" transform="translate(64.9004,-104.813)">
			<title>Process.89</title>
			<desc>‘no-loop’</desc>
			<v:custProps>
				<v:cp v:nameU="Cost" v:lbl="Cost" v:type="7" v:format="@" v:langID="1033"/>
				<v:cp v:nameU="Duration" v:lbl="Duration" v:type="2" v:langID="1033"/>
				<v:cp v:nameU="Resources" v:lbl="Resources" v:langID="1033"/>
			</v:custProps>
			<v:userDefs>
				<v:ud v:nameU="visVersion" v:val="VT0(11):26"/>
			</v:userDefs>
			<v:textBlock v:margins="rect(2,2,2,2)" v:tabSpace="42.5197"/>
			<v:textRect cx="23.2137" cy="127.24" width="46.43" height="13.4147"/>
			<rect x="0" y="120.533" width="46.4273" height="13.4147" rx="2.83465" ry="2.83465" class="st1"/>
			<text x="8.1" y="129.64" class="st2" v:langID="1033"><v:paragraph v:horizAlign="1"/><v:tabList/>‘n<tspan class="st3"
						v:langID="2057">o</tspan><tspan class="st3" v:langID="2057">-</tspan>l<tspan class="st3" v:langID="2057">oop</tspan>’</text>		</g>
		<g id="shape8-7" v:mID="8" v:groupContext="shape" v:layerMember="0" transform="translate(64.9004,-77.4243)">
			<title>Process.90</title>
			<desc>‘salience’</desc>
			<v:custProps>
				<v:cp v:nameU="Cost" v:lbl="Cost" v:type="7" v:format="@" v:langID="1033"/>
				<v:cp v:nameU="Duration" v:lbl="Duration" v:type="2" v:langID="1033"/>
				<v:cp v:nameU="Resources" v:lbl="Resources" v:langID="1033"/>
			</v:custProps>
			<v:userDefs>
				<v:ud v:nameU="visVersion" v:val="VT0(11):26"/>
			</v:userDefs>
			<v:textBlock v:margins="rect(2,2,2,2)" v:tabSpace="42.5197"/>
			<v:textRect cx="23.2137" cy="127.24" width="46.43" height="13.4147"/>
			<rect x="0" y="120.533" width="46.4273" height="13.4147" rx="2.83465" ry="2.83465" class="st1"/>
			<text x="6.77" y="129.64" class="st2" v:langID="1033"><v:paragraph v:horizAlign="1"/><v:tabList/>‘<tspan class="st3"
						v:langID="2057">salience</tspan>’</text>		</g>
		<g id="shape10-11" v:mID="10" v:groupContext="shape" v:layerMember="1" transform="translate(11.9778,-104.433)">
			<title>Dynamic connector.91</title>
			<path d="M0 126.86 L50.16 126.86" class="st4"/>
		</g>
		<g id="shape27-17" v:mID="27" v:groupContext="shape" v:layerMember="1" transform="translate(18.3206,-111.52)">
			<title>Dynamic connector.92</title>
			<path d="M0 133.95 L11.64 133.95 A5.66929 5.66929 0 0 1 17.31 139.62 L17.31 155.67 A5.66929 5.66929 -180 0 0 22.98 161.34
						 L43.82 161.34" class="st4"/>
		</g>
		<g id="shape35-22" v:mID="35" v:groupContext="shape" v:layerMember="0" transform="translate(51.2499,-50.036)">
			<title>Process.93</title>
			<desc>‘agenda-group’</desc>
			<v:custProps>
				<v:cp v:nameU="Cost" v:lbl="Cost" v:type="7" v:format="@" v:langID="1033"/>
				<v:cp v:nameU="Duration" v:lbl="Duration" v:type="2" v:langID="1033"/>
				<v:cp v:nameU="Resources" v:lbl="Resources" v:langID="1033"/>
			</v:custProps>
			<v:userDefs>
				<v:ud v:nameU="visVersion" v:val="VT0(11):26"/>
			</v:userDefs>
			<v:textBlock v:margins="rect(2,2,2,2)" v:tabSpace="42.5197"/>
			<v:textRect cx="36.8641" cy="127.24" width="73.73" height="13.4147"/>
			<rect x="0" y="120.533" width="73.7282" height="13.4147" rx="2.83465" ry="2.83465" class="st1"/>
			<text x="10.19" y="129.64" class="st2" v:langID="1033"><v:paragraph v:horizAlign="1"/><v:tabList/>‘a<tspan class="st3"
						v:langID="2057">genda</tspan><tspan class="st3" v:langID="2057">-</tspan>g<tspan class="st3"
						v:langID="2057">roup</tspan>’</text>		</g>
		<g id="shape41-28" v:mID="41" v:groupContext="shape" v:layerMember="0" transform="translate(58.7694,-0.379282)">
			<title>Process.94</title>
			<desc>‘duration’</desc>
			<v:custProps>
				<v:cp v:nameU="Cost" v:lbl="Cost" v:type="7" v:format="@" v:langID="1033"/>
				<v:cp v:nameU="Duration" v:lbl="Duration" v:type="2" v:langID="1033"/>
				<v:cp v:nameU="Resources" v:lbl="Resources" v:langID="1033"/>
			</v:custProps>
			<v:userDefs>
				<v:ud v:nameU="visVersion" v:val="VT0(11):26"/>
			</v:userDefs>
			<v:textBlock v:margins="rect(2,2,2,2)" v:tabSpace="42.5197"/>
			<v:textRect cx="29.3446" cy="127.24" width="58.69" height="13.4147"/>
			<rect x="0" y="120.533" width="58.6892" height="13.4147" rx="2.83465" ry="2.83465" class="st1"/>
			<text x="13.12" y="129.64" class="st2" v:langID="1033"><v:paragraph v:horizAlign="1"/><v:tabList/>‘<tspan class="st3"
						v:langID="2057">duration</tspan>’</text>		</g>
		<g id="shape42-32" v:mID="42" v:groupContext="shape" v:layerMember="1" transform="translate(18.3206,-111.52)">
			<title>Dynamic connector.95</title>
			<path d="M0 133.95 L11.64 133.95 A5.66929 5.66929 0 0 1 17.31 139.62 L17.31 183.06 A5.66929 5.66929 -180 0 0 22.98 188.72
						 L30.17 188.72" class="st4"/>
		</g>
		<g id="shape43-37" v:mID="43" v:groupContext="shape" v:layerMember="1" transform="translate(18.3206,-111.52)">
			<title>Dynamic connector.96</title>
			<path d="M0 133.95 L11.64 133.95 A5.66929 5.66929 0 0 1 17.31 139.62 L17.31 232.71 A5.66929 5.66929 -180 0 0 22.98 238.38
						 L37.69 238.38" class="st4"/>
		</g>
		<g id="shape44-42" v:mID="44" v:groupContext="shape" v:layerMember="1" transform="translate(111.328,-118.607)">
			<title>Dynamic connector.98</title>
			<v:textBlock v:margins="rect(4,4,4,4)" v:tabSpace="42.5197"/>
			<path d="M0 141.03 L32.06 141.03" class="st4"/>
		</g>
		<g id="shape45-47" v:mID="45" v:groupContext="shape" v:layerMember="1" transform="translate(117.459,-5.68434E-014)">
			<title>Dynamic connector.99</title>
			<path d="M0 126.86 L25.13 126.86" class="st4"/>
		</g>
		<g id="shape46-52" v:mID="46" v:groupContext="shape" v:layerMember="1" transform="translate(111.328,-84.1316)">
			<title>Dynamic connector.100</title>
			<path d="M0 133.95 L9.6 133.95 A5.66929 5.66929 -180 0 0 15.27 128.28 L15.27 112.23 A5.66929 5.66929 0 0 1 20.94 106.56
						 L58.66 106.56" class="st4"/>
		</g>
		<g id="shape47-57" v:mID="47" v:groupContext="shape" v:layerMember="1" transform="translate(124.978,-56.7433)">
			<title>Dynamic connector.101</title>
			<path d="M0 133.95 L5.31 133.95 A5.31496 5.31496 -180 0 0 10.63 128.63 L10.63 84.44 A5.27187 5.27187 0 0 1 15.9 79.17
						 L18.41 79.17" class="st4"/>
		</g>
		<g id="shape48-62" v:mID="48" v:groupContext="shape" v:layerMember="0" transform="translate(146.152,-104.813)">
			<title>Process.156</title>
			<desc>value</desc>
			<v:custProps>
				<v:cp v:nameU="Cost" v:lbl="Cost" v:type="7" v:format="@" v:langID="1033"/>
				<v:cp v:nameU="Duration" v:lbl="Duration" v:type="2" v:langID="1033"/>
				<v:cp v:nameU="Resources" v:lbl="Resources" v:langID="1033"/>
			</v:custProps>
			<v:userDefs>
				<v:ud v:nameU="visVersion" v:val="VT0(11):26"/>
			</v:userDefs>
			<v:textBlock v:margins="rect(2,2,2,2)" v:tabSpace="42.5197"/>
			<v:textRect cx="18.4976" cy="127.24" width="37" height="13.4147"/>
			<rect x="0" y="120.533" width="36.9953" height="13.4147" rx="2.83465" ry="2.83465" class="st1"/>
			<text x="8.94" y="129.64" class="st6" v:langID="2057"><v:paragraph v:horizAlign="1"/><v:tabList/>value</text>		</g>
		<g id="shape49-65" v:mID="49" v:groupContext="shape" v:layerMember="1;0" transform="translate(255.158,-105.651)">
			<title>On-page reference.157</title>
			<v:userDefs>
				<v:ud v:nameU="visVersion" v:val="VT0(11):26"/>
			</v:userDefs>
			<v:textBlock v:margins="rect(2,2,2,2)" v:tabSpace="42.5197"/>
			<path d="M0 128.08 A5.86892 5.86892 0 0 1 11.74 128.08 A5.86892 5.86892 0 0 1 0 128.08 Z" class="st1"/>
		</g>
		<g id="shape50-67" v:mID="50" v:groupContext="shape" v:layerMember="0" transform="translate(206.89,-120.293)">
			<title>Process.160</title>
			<desc>;</desc>
			<v:custProps>
				<v:cp v:nameU="Cost" v:lbl="Cost" v:type="7" v:format="@" v:langID="1033"/>
				<v:cp v:nameU="Duration" v:lbl="Duration" v:type="2" v:langID="1033"/>
				<v:cp v:nameU="Resources" v:lbl="Resources" v:langID="1033"/>
			</v:custProps>
			<v:userDefs>
				<v:ud v:nameU="visVersion" v:val="VT0(11):26"/>
			</v:userDefs>
			<v:textBlock v:margins="rect(2,2,2,2)" v:tabSpace="42.5197"/>
			<v:textRect cx="10.061" cy="127.24" width="20.13" height="13.4147"/>
			<rect x="0" y="120.533" width="20.122" height="13.4147" rx="2.83465" ry="2.83465" class="st1"/>
			<text x="8.94" y="129.64" class="st2" v:langID="2057"><v:paragraph v:horizAlign="1"/><v:tabList/>;</text>		</g>
		<g id="shape51-70" v:mID="51" v:groupContext="shape" v:layerMember="1" transform="translate(183.147,-111.52)">
			<title>Dynamic connector.161</title>
			<path d="M0 133.95 L5.31 133.95 A5.31496 5.31496 -180 0 0 10.63 128.63 L10.63 124.14 A5.66929 5.66929 0 0 1 16.3 118.47
						 L20.98 118.47" class="st4"/>
		</g>
		<g id="shape52-75" v:mID="52" v:groupContext="shape" v:layerMember="1" transform="translate(227.012,-127)">
			<title>Dynamic connector.162</title>
			<path d="M0 133.95 L5.31 133.95 A5.31496 5.31496 0 0 1 10.63 139.26 L10.63 143.76 A5.66929 5.66929 -180 0 0 16.3 149.43
						 L25.39 149.43" class="st4"/>
		</g>
		<g id="shape53-80" v:mID="53" v:groupContext="shape" v:layerMember="1" transform="translate(183.147,-104.433)">
			<title>Dynamic connector.163</title>
			<path d="M0 126.86 L69.25 126.86" class="st4"/>
		</g>
		<g id="shape54-85" v:mID="54" v:groupContext="shape" v:layerMember="1;0" transform="translate(0.24,-105.651)">
			<title>On-page reference.164</title>
			<v:userDefs>
				<v:ud v:nameU="visVersion" v:val="VT0(11):26"/>
			</v:userDefs>
			<v:textBlock v:margins="rect(2,2,2,2)" v:tabSpace="42.5197"/>
			<path d="M0 128.08 A5.86892 5.86892 0 0 1 11.74 128.08 A5.86892 5.86892 0 0 1 0 128.08 Z" class="st1"/>
		</g>
		<g id="shape58-87" v:mID="58" v:groupContext="shape" v:layerMember="0" transform="translate(145.346,-0.379282)">
			<title>Process.201</title>
			<desc>duration-value (ms)</desc>
			<v:custProps>
				<v:cp v:nameU="Cost" v:lbl="Cost" v:type="7" v:format="@" v:langID="1033"/>
				<v:cp v:nameU="Duration" v:lbl="Duration" v:type="2" v:langID="1033"/>
				<v:cp v:nameU="Resources" v:lbl="Resources" v:langID="1033"/>
			</v:custProps>
			<v:userDefs>
				<v:ud v:nameU="visVersion" v:val="VT0(11):26"/>
			</v:userDefs>
			<v:textBlock v:margins="rect(2,2,2,2)" v:tabSpace="42.5197"/>
			<v:textRect cx="48.6282" cy="127.24" width="97.26" height="13.4147"/>
			<rect x="0" y="120.533" width="97.2563" height="13.4147" rx="2.83465" ry="2.83465" class="st1"/>
			<text x="14.17" y="129.64" class="st2" v:langID="1033"><v:paragraph v:horizAlign="1"/><v:tabList/>duration-value (ms)</text>		</g>
		<g id="shape59-90" v:mID="59" v:groupContext="shape" v:layerMember="1" transform="translate(242.602,-7.08661)">
			<title>Dynamic connector.202</title>
			<path d="M0 133.95 L12.76 133.95 A5.66929 5.66929 -180 0 0 18.43 128.28 L18.43 38.14" class="st4"/>
		</g>
		<g id="shape60-95" v:mID="60" v:groupContext="shape" v:layerMember="0" transform="translate(51.4584,-25.5118)">
			<title>Process.60</title>
			<desc>‘auto-focus’</desc>
			<v:custProps>
				<v:cp v:nameU="Cost" v:lbl="Cost" v:type="7" v:format="@" v:langID="1033"/>
				<v:cp v:nameU="Duration" v:lbl="Duration" v:type="2" v:langID="1033"/>
				<v:cp v:nameU="Resources" v:lbl="Resources" v:langID="1033"/>
			</v:custProps>
			<v:userDefs>
				<v:ud v:nameU="visVersion" v:val="VT0(11):26"/>
			</v:userDefs>
			<v:textBlock v:margins="rect(2,2,2,2)" v:tabSpace="42.5197"/>
			<v:textRect cx="36.8641" cy="127.24" width="73.73" height="13.4147"/>
			<rect x="0" y="120.533" width="73.7282" height="13.4147" rx="2.83465" ry="2.83465" class="st1"/>
			<text x="16.42" y="129.64" class="st2" v:langID="1033"><v:paragraph v:horizAlign="1"/><v:tabList/>‘<tspan class="st3"
						v:langID="2057">auto</tspan><tspan class="st3" v:langID="2057">-</tspan><tspan class="st3" v:langID="2057">focus</tspan>’</text>		</g>
		<g id="shape61-101" v:mID="61" v:groupContext="shape" v:layerMember="1" transform="translate(11.9778,-111.52)">
			<title>Dynamic connector.61</title>
			<path d="M0 133.95 L18.19 133.95 A5.66929 5.66929 0 0 1 23.86 139.62 L23.86 207.58 A5.66929 5.66929 -180 0 0 29.53 213.25
						 L36.72 213.25" class="st4"/>
		</g>
		<g id="shape62-106" v:mID="62" v:groupContext="shape" v:layerMember="1" transform="translate(125.187,-32.2191)">
			<title>Dynamic connector.62</title>
			<path d="M0 133.95 L5.31 133.95 A5.31496 5.31496 -180 0 0 10.63 128.63 L10.63 59.81 A5.16762 5.16762 0 0 1 15.8 54.65
						 L18.21 54.65" class="st4"/>
		</g>
	</g>
</svg>
