<?xml version="1.0" encoding="UTF-8"?>
<!-- Generated by Microsoft Visio 11.0, SVG Export, v1.0 rule_attributes.svg Page-1 --><svg xmlns="http://www.w3.org/2000/svg" xmlns:v="http://schemas.microsoft.com/visio/2003/SVGExtensions/" xmlns:xlink="http://www.w3.org/1999/xlink" width="3.71024in" height="1.85852in" viewBox="0 0 267.137 133.813" xml:space="preserve" color-interpolation-filters="sRGB" class="st6" preserveAspectRatio="xMidYMid meet" zoomAndPan="magnify" version="1.0" contentScriptType="text/ecmascript" contentStyleType="text/css">
	<v:documentProperties v:langID="1033" v:metric="true" v:viewMarkup="false"/>

	<style type="text/css" xml:space="preserve">
	
		.st1 {fill:#e8eef7;stroke:#000000;stroke-linecap:round;stroke-linejoin:round;stroke-width:0.24}
		.st2 {fill:#000000;font-family:Arial;font-size:0.666664em}
		.st3 {marker-end:url(#mrkr2-12);stroke:#4677bf;stroke-linecap:round;stroke-linejoin:round;stroke-width:0.24}
		.st4 {fill:#4677bf;fill-opacity:1;stroke:#4677bf;stroke-opacity:1;stroke-width:0.086956386131125}
		.st5 {fill:#000000;font-family:Arial;font-size:0.666664em;font-style:italic}
		.st6 {fill:none;fill-rule:evenodd;font-size:12;overflow:visible;stroke-linecap:square;stroke-miterlimit:3}
	
	</style>

	<defs id="Markers">
		<g id="lend2">
			<path d="M 1 1 L 0 0 L 1 -1 L 1 1 " style="stroke:none"/>
		</g>
		<marker xmlns="http://www.w3.org/TR/xhtml1/transitional" overflow="visible" id="mrkr2-12" class="st4" v:arrowType="2" v:arrowSize="2" v:setback="0" refX="-0" orient="auto" markerUnits="strokeWidth" preserveAspectRatio="xMidYMid meet">
			<use xmlns="http://www.w3.org/2000/svg" xlink:href="#lend2" transform="scale(-11.500017934187,-11.500017934187) " xlink:type="simple" xlink:show="embed" xlink:actuate="onLoad"/>
		</marker>
	</defs>
	<g v:mID="0" v:index="1" v:groupContext="foregroundPage">
		<title content="structured text">Page-1</title>
		<v:pageProperties v:drawingScale="0.0393701" v:pageScale="0.0393701" v:drawingUnits="24" v:shadowOffsetX="8.50394" v:shadowOffsetY="-8.50394"/>
		<v:layer v:name="Flowchart" v:index="0"/>
		<v:layer v:name="Connector" v:index="1"/>
		<g id="shape1-1" v:mID="1" v:groupContext="shape" v:layerMember="0" transform="translate(64.9003,-104.673)">
			<title content="structured text">Process.89</title>
			<desc content="structured text">‘no-loop’</desc>
			<v:custProps>
				<v:cp v:nameU="Cost" v:lbl="Cost" v:type="7" v:format="@" v:langID="1033"/>
				<v:cp v:nameU="Duration" v:lbl="Duration" v:type="2" v:langID="1033"/>
				<v:cp v:nameU="Resources" v:lbl="Resources" v:langID="1033"/>
			</v:custProps>
			<v:userDefs>
				<v:ud v:nameU="visVersion" v:val="VT0(11):26"/>
			</v:userDefs>
			<v:textBlock v:margins="rect(2,2,2,2)" v:tabSpace="42.5196"/>
			<v:textRect cx="23.2135" cy="127.103" width="46.44" height="13.4147"/>
			<path d="M-0 130.97 A2.83472 2.83472 -180 0 0 2.83 133.81 L43.59 133.81 A2.83472 2.83472 -180 0 0 46.43 130.97 L46.43        123.23 A2.83472 2.83472 -180 0 0 43.59 120.39 L2.83 120.39 A2.83472 2.83472 -180 0 0 -0 123.23 L0 130.97        Z" class="st1"/>
			<text x="8.1" y="129.5" class="st2" v:langID="1033"><v:paragraph v:horizAlign="1"/><v:tabList/>‘no-loop’</text>		</g>
		<g id="shape2-4" v:mID="2" v:groupContext="shape" v:layerMember="0" transform="translate(65.1966,-85.6582)">
			<title content="structured text">Process.90</title>
			<desc content="structured text">‘salience’</desc>
			<v:custProps>
				<v:cp v:nameU="Cost" v:lbl="Cost" v:type="7" v:format="@" v:langID="1033"/>
				<v:cp v:nameU="Duration" v:lbl="Duration" v:type="2" v:langID="1033"/>
				<v:cp v:nameU="Resources" v:lbl="Resources" v:langID="1033"/>
			</v:custProps>
			<v:userDefs>
				<v:ud v:nameU="visVersion" v:val="VT0(11):26"/>
			</v:userDefs>
			<v:textBlock v:margins="rect(2,2,2,2)" v:tabSpace="42.5196"/>
			<v:textRect cx="23.2135" cy="127.103" width="46.44" height="13.4147"/>
			<path d="M-0 130.97 A2.83472 2.83472 -180 0 0 2.83 133.81 L43.59 133.81 A2.83472 2.83472 -180 0 0 46.43 130.97 L46.43        123.23 A2.83472 2.83472 -180 0 0 43.59 120.39 L2.83 120.39 A2.83472 2.83472 -180 0 0 -0 123.23 L0 130.97        Z" class="st1"/>
			<text x="6.77" y="129.5" class="st2" v:langID="1033"><v:paragraph v:horizAlign="1"/><v:tabList/>‘salience’</text>		</g>
		<g id="shape3-7" v:mID="3" v:groupContext="shape" v:layerMember="1" transform="translate(11.9778,-111.381)">
			<title content="structured text">Dynamic connector.91</title>
			<path d="M0 133.81 L50.16 133.81 L52.92 133.81" class="st3"/>
		</g>
		<g id="shape4-13" v:mID="4" v:groupContext="shape" v:layerMember="1" transform="translate(18.3206,-91.9863)">
			<title content="structured text">Dynamic connector.92</title>
			<path d="M0 114.42 L11.71 114.42 A5.70531 4.01384 180 0 1 17.42 118.43 L17.42 129.79 A5.70531 4.01384 -0 0 0 23.13 133.81        L44.1 133.81 L44.12 133.81 L46.88 133.81" class="st3"/>
		</g>
		<g id="shape5-18" v:mID="5" v:groupContext="shape" v:layerMember="0" transform="translate(51.0233,-68.6503)">
			<title content="structured text">Process.93</title>
			<desc content="structured text">‘agenda-group’</desc>
			<v:custProps>
				<v:cp v:nameU="Cost" v:lbl="Cost" v:type="7" v:format="@" v:langID="1033"/>
				<v:cp v:nameU="Duration" v:lbl="Duration" v:type="2" v:langID="1033"/>
				<v:cp v:nameU="Resources" v:lbl="Resources" v:langID="1033"/>
			</v:custProps>
			<v:userDefs>
				<v:ud v:nameU="visVersion" v:val="VT0(11):26"/>
			</v:userDefs>
			<v:textBlock v:margins="rect(2,2,2,2)" v:tabSpace="42.5196"/>
			<v:textRect cx="36.8638" cy="127.103" width="73.74" height="13.4147"/>
			<path d="M-0 130.97 A2.83472 2.83472 -180 0 0 2.83 133.81 L70.89 133.81 A2.83472 2.83472 -180 0 0 73.73 130.97 L73.73        123.23 A2.83472 2.83472 -180 0 0 70.89 120.39 L2.83 120.39 A2.83472 2.83472 -180 0 0 0 123.23 L0 130.97        Z" class="st1"/>
			<text x="10.18" y="129.5" class="st2" v:langID="1033"><v:paragraph v:horizAlign="1"/><v:tabList/>‘agenda-group’</text>		</g>
		<g id="shape6-21" v:mID="6" v:groupContext="shape" v:layerMember="0" transform="translate(58.5291,-0.618942)">
			<title content="structured text">Process.94</title>
			<desc content="structured text">‘duration’</desc>
			<v:custProps>
				<v:cp v:nameU="Cost" v:lbl="Cost" v:type="7" v:format="@" v:langID="1033"/>
				<v:cp v:nameU="Duration" v:lbl="Duration" v:type="2" v:langID="1033"/>
				<v:cp v:nameU="Resources" v:lbl="Resources" v:langID="1033"/>
			</v:custProps>
			<v:userDefs>
				<v:ud v:nameU="visVersion" v:val="VT0(11):26"/>
			</v:userDefs>
			<v:textBlock v:margins="rect(2,2,2,2)" v:tabSpace="42.5196"/>
			<v:textRect cx="29.3443" cy="127.103" width="58.7" height="13.4147"/>
			<path d="M0 130.97 A2.83472 2.83472 -180 0 0 2.83 133.81 L55.85 133.81 A2.83472 2.83472 -180 0 0 58.69 130.97 L58.69        123.23 A2.83472 2.83472 -180 0 0 55.85 120.39 L2.83 120.39 A2.83472 2.83472 -180 0 0 0 123.23 L0 130.97        Z" class="st1"/>
			<text x="13.11" y="129.5" class="st2" v:langID="1033"><v:paragraph v:horizAlign="1"/><v:tabList/>‘duration’</text>		</g>
		<g id="shape7-24" v:mID="7" v:groupContext="shape" v:layerMember="1" transform="translate(18.3206,-76.3957)">
			<title content="structured text">Dynamic connector.95</title>
			<path d="M0 98.83 L11.64 98.83 A5.66928 3.62107 180 0 1 17.31 102.45 L17.31 130.19 A5.66928 3.62107 -0 0 0 22.98 133.81        L30.17 133.81 L32.93 133.81" class="st3"/>
		</g>
		<g id="shape8-29" v:mID="8" v:groupContext="shape" v:layerMember="1" transform="translate(18.3206,-6.94841)">
			<title content="structured text">Dynamic connector.96</title>
			<path d="M0 29.38 L11.64 29.38 A5.66928 5.66928 0 0 1 17.31 35.05 L17.31 128.14 A5.66928 5.66928 -180 0 0 22.98 133.81        L37.69 133.81 L40.45 133.81" class="st3"/>
		</g>
		<g id="shape9-34" v:mID="9" v:groupContext="shape" v:layerMember="1" transform="translate(111.328,-111.385)">
			<title content="structured text">Dynamic connector.98</title>
			<path d="M0 133.81 L32.06 133.81 L34.82 133.81" class="st3"/>
		</g>
		<g id="shape10-39" v:mID="10" v:groupContext="shape" v:layerMember="1" transform="translate(117.459,-6.94841)">
			<title content="structured text">Dynamic connector.99</title>
			<path d="M0 133.81 L25.13 133.81 L27.89 133.81" class="st3"/>
		</g>
		<g id="shape11-44" v:mID="11" v:groupContext="shape" v:layerMember="1" transform="translate(111.328,-93.4036)">
			<title content="structured text">Dynamic connector.100</title>
			<path d="M0 133.81 L9.6 133.81 A5.66928 3.72081 -0 0 0 15.27 130.09 L15.27 119.55 A5.66928 3.72081 180 0 1 20.94 115.83        L58.66 115.83 L61.42 115.83" class="st3"/>
		</g>
		<g id="shape12-49" v:mID="12" v:groupContext="shape" v:layerMember="1" transform="translate(124.978,-76.3957)">
			<title content="structured text">Dynamic connector.101</title>
			<path d="M0 133.81 L5.31 133.81 A5.31495 3.39446 -0 0 0 10.63 130.41 L10.63 102.19 A5.27186 3.36694 180 0 1 15.9 98.82        L18.41 98.82 L21.17 98.82" class="st3"/>
		</g>
		<g id="shape13-54" v:mID="13" v:groupContext="shape" v:layerMember="0" transform="translate(146.152,-104.673)">
			<title content="structured text">Process.156</title>
			<desc content="structured text">value</desc>
			<v:custProps>
				<v:cp v:nameU="Cost" v:lbl="Cost" v:type="7" v:format="@" v:langID="1033"/>
				<v:cp v:nameU="Duration" v:lbl="Duration" v:type="2" v:langID="1033"/>
				<v:cp v:nameU="Resources" v:lbl="Resources" v:langID="1033"/>
			</v:custProps>
			<v:userDefs>
				<v:ud v:nameU="visVersion" v:val="VT0(11):26"/>
			</v:userDefs>
			<v:textBlock v:margins="rect(2,2,2,2)" v:tabSpace="42.5196"/>
			<v:textRect cx="18.4974" cy="127.103" width="37.01" height="13.4147"/>
			<path d="M0 130.97 A2.83472 2.83472 -180 0 0 2.83 133.81 L34.16 133.81 A2.83472 2.83472 -180 0 0 37 130.97 L37 123.23        A2.83472 2.83472 -180 0 0 34.16 120.39 L2.83 120.39 A2.83472 2.83472 -180 0 0 0 123.23 L0 130.97 Z" class="st1"/>
			<text x="8.93" y="129.5" class="st5" v:langID="1033"><v:paragraph v:horizAlign="1"/><v:tabList/>value</text>		</g>
		<g id="shape14-57" v:mID="14" v:groupContext="shape" v:layerMember="1;0" transform="translate(255.157,-105.509)">
			<title content="structured text">On-page reference.157</title>
			<v:userDefs>
				<v:ud v:nameU="visVersion" v:val="VT0(11):26"/>
			</v:userDefs>
			<path d="M0 127.94 A5.86999 5.86999 0 0 1 11.74 127.94 A5.86999 5.86999 0 0 1 0 127.94 Z" class="st1"/>
		</g>
		<g id="shape15-59" v:mID="15" v:groupContext="shape" v:layerMember="0" transform="translate(206.889,-120.153)">
			<title content="structured text">Process.160</title>
			<desc content="structured text">;</desc>
			<v:custProps>
				<v:cp v:nameU="Cost" v:lbl="Cost" v:type="7" v:format="@" v:langID="1033"/>
				<v:cp v:nameU="Duration" v:lbl="Duration" v:type="2" v:langID="1033"/>
				<v:cp v:nameU="Resources" v:lbl="Resources" v:langID="1033"/>
			</v:custProps>
			<v:userDefs>
				<v:ud v:nameU="visVersion" v:val="VT0(11):26"/>
			</v:userDefs>
			<v:textBlock v:margins="rect(2,2,2,2)" v:tabSpace="42.5196"/>
			<v:textRect cx="10.0608" cy="127.103" width="20.14" height="13.4147"/>
			<path d="M0 130.97 A2.83472 2.83472 -180 0 0 2.83 133.81 L17.29 133.81 A2.83472 2.83472 -180 0 0 20.12 130.97 L20.12        123.23 A2.83472 2.83472 -180 0 0 17.29 120.39 L2.83 120.39 A2.83472 2.83472 -180 0 0 -0 123.23 L0 130.97        Z" class="st1"/>
			<text x="8.95" y="129.5" class="st2" v:langID="1033"><v:paragraph v:horizAlign="1"/><v:tabList/>;</text>		</g>
		<g id="shape16-62" v:mID="16" v:groupContext="shape" v:layerMember="1" transform="translate(183.147,-111.378)">
			<title content="structured text">Dynamic connector.161</title>
			<path d="M0 133.81 L5.31 133.81 A5.31495 5.31495 -180 0 0 10.63 128.49 L10.63 124 A5.66928 5.66928 0 0 1 16.3 118.33        L20.98 118.33 L23.74 118.33" class="st3"/>
		</g>
		<g id="shape17-67" v:mID="17" v:groupContext="shape" v:layerMember="1" transform="translate(227.011,-111.378)">
			<title content="structured text">Dynamic connector.162</title>
			<path d="M0 118.33 L5.31 118.33 A5.31495 5.31495 0 0 1 10.63 123.64 L10.63 128.14 A5.66928 5.66928 -180 0 0 16.3 133.81        L25.39 133.81 L28.15 133.81" class="st3"/>
		</g>
		<g id="shape18-72" v:mID="18" v:groupContext="shape" v:layerMember="1" transform="translate(183.147,-111.381)">
			<title content="structured text">Dynamic connector.163</title>
			<path d="M0 133.81 L69.25 133.81 L72.01 133.81" class="st3"/>
		</g>
		<g id="shape19-77" v:mID="19" v:groupContext="shape" v:layerMember="1;0" transform="translate(0.24,-105.509)">
			<title content="structured text">On-page reference.164</title>
			<v:userDefs>
				<v:ud v:nameU="visVersion" v:val="VT0(11):26"/>
			</v:userDefs>
			<path d="M0 127.94 A5.86999 5.86999 0 0 1 11.74 127.94 A5.86999 5.86999 0 0 1 0 127.94 Z" class="st1"/>
		</g>
		<g id="shape20-79" v:mID="20" v:groupContext="shape" v:layerMember="0" transform="translate(145.346,-0.240005)">
			<title content="structured text">Process.201</title>
			<desc content="structured text">duration-value (ms)</desc>
			<v:custProps>
				<v:cp v:nameU="Cost" v:lbl="Cost" v:type="7" v:format="@" v:langID="1033"/>
				<v:cp v:nameU="Duration" v:lbl="Duration" v:type="2" v:langID="1033"/>
				<v:cp v:nameU="Resources" v:lbl="Resources" v:langID="1033"/>
			</v:custProps>
			<v:userDefs>
				<v:ud v:nameU="visVersion" v:val="VT0(11):26"/>
			</v:userDefs>
			<v:textBlock v:margins="rect(2,2,2,2)" v:tabSpace="42.5196"/>
			<v:textRect cx="48.628" cy="127.103" width="97.27" height="13.4147"/>
			<path d="M-0 130.97 A2.83472 2.83472 -180 0 0 2.83 133.81 L94.42 133.81 A2.83472 2.83472 -180 0 0 97.26 130.97 L97.26        123.23 A2.83472 2.83472 -180 0 0 94.42 120.39 L2.83 120.39 A2.83472 2.83472 -180 0 0 0 123.23 L0 130.97        Z" class="st1"/>
			<text x="14.16" y="129.5" class="st2" v:langID="1033"><v:paragraph v:horizAlign="1"/><v:tabList/>duration-value (ms)</text>		</g>
		<g id="shape21-82" v:mID="21" v:groupContext="shape" v:layerMember="1" transform="translate(242.601,-6.94502)">
			<title content="structured text">Dynamic connector.202</title>
			<path d="M0 133.81 L12.76 133.81 A5.66928 5.66928 -180 0 0 18.43 128.14 L18.43 38 L18.43 35.24" class="st3"/>
		</g>
		<g id="shape22-87" v:mID="22" v:groupContext="shape" v:layerMember="0" transform="translate(51.0233,-51.6424)">
			<title content="structured text">Process.60</title>
			<desc content="structured text">‘auto-focus’</desc>
			<v:custProps>
				<v:cp v:nameU="Cost" v:lbl="Cost" v:type="7" v:format="@" v:langID="1033"/>
				<v:cp v:nameU="Duration" v:lbl="Duration" v:type="2" v:langID="1033"/>
				<v:cp v:nameU="Resources" v:lbl="Resources" v:langID="1033"/>
			</v:custProps>
			<v:userDefs>
				<v:ud v:nameU="visVersion" v:val="VT0(11):26"/>
			</v:userDefs>
			<v:textBlock v:margins="rect(2,2,2,2)" v:tabSpace="42.5196"/>
			<v:textRect cx="36.8638" cy="127.103" width="73.74" height="13.4147"/>
			<path d="M-0 130.97 A2.83472 2.83472 -180 0 0 2.83 133.81 L70.89 133.81 A2.83472 2.83472 -180 0 0 73.73 130.97 L73.73        123.23 A2.83472 2.83472 -180 0 0 70.89 120.39 L2.83 120.39 A2.83472 2.83472 -180 0 0 -0 123.23 L0 130.97        Z" class="st1"/>
			<text x="16.41" y="129.5" class="st2" v:langID="1033"><v:paragraph v:horizAlign="1"/><v:tabList/>‘auto-focus’</text>		</g>
		<g id="shape23-90" v:mID="23" v:groupContext="shape" v:layerMember="1" transform="translate(11.9778,-59.3879)">
			<title content="structured text">Dynamic connector.61</title>
			<path d="M0 81.82 L18.19 81.82 A5.66928 3.71688 180 0 1 23.86 85.53 L23.86 130.09 A5.66928 3.71688 -0 0 0 29.53 133.81        L36.72 133.81 L39.48 133.81" class="st3"/>
		</g>
		<g id="shape24-95" v:mID="24" v:groupContext="shape" v:layerMember="1" transform="translate(125.187,-56.5532)">
			<title content="structured text">Dynamic connector.62</title>
			<path d="M0 133.81 L5.31 133.81 A5.31495 3.6745 -0 0 0 10.63 130.13 L10.63 82.55 A5.16761 3.57264 180 0 1 15.8 78.98        L18.21 78.98 L20.97 78.98" class="st3"/>
		</g>
		<g id="shape25-100" v:mID="25" v:groupContext="shape" v:layerMember="0" transform="translate(52.4406,-31.0415)">
			<title content="structured text">Process.25</title>
			<desc content="structured text">‘auto-focus’</desc>
			<v:custProps>
				<v:cp v:nameU="Cost" v:lbl="Cost" v:type="7" v:format="@" v:langID="1033"/>
				<v:cp v:nameU="Duration" v:lbl="Duration" v:type="2" v:langID="1033"/>
				<v:cp v:nameU="Resources" v:lbl="Resources" v:langID="1033"/>
			</v:custProps>
			<v:userDefs>
				<v:ud v:nameU="visVersion" v:val="VT0(11):26"/>
			</v:userDefs>
			<v:textBlock v:margins="rect(2,2,2,2)" v:tabSpace="42.5196"/>
			<v:textRect cx="36.8638" cy="127.103" width="73.74" height="13.4147"/>
			<path d="M0 130.97 A2.83472 2.83472 -180 0 0 2.83 133.81 L70.89 133.81 A2.83472 2.83472 -180 0 0 73.73 130.97 L73.73        123.23 A2.83472 2.83472 -180 0 0 70.89 120.39 L2.83 120.39 A2.83472 2.83472 -180 0 0 -0 123.23 L0 130.97        Z" class="st1"/>
			<text x="6.63" y="129.5" class="st2" v:langID="1033"><v:paragraph v:horizAlign="1"/><v:tabList/>‘activation-group’</text>		</g>
		<g id="shape26-103" v:mID="26" v:groupContext="shape" v:layerMember="1" transform="translate(11.7796,-36.7108)">
			<title content="structured text">Dynamic connector.26</title>
			<path d="M0 59.14 L18.19 59.14 A5.66928 5.33811 180 0 1 23.86 64.48 L23.86 128.47 A5.66928 5.33811 -0 0 0 29.53 133.81        L36.72 133.81 L39.48 133.81" class="st3"/>
		</g>
		<g id="shape27-108" v:mID="27" v:groupContext="shape" v:layerMember="1" transform="translate(125.197,-40.9628)">
			<title content="structured text">Dynamic connector.27</title>
			<path d="M0 133.81 L5.31 133.81 A5.31495 4.74968 -0 0 0 10.63 129.05 L10.63 67.55 A5.16761 4.61801 180 0 1 15.8 62.94        L18.21 62.94 L20.97 62.94" class="st3"/>
		</g>
	</g>
</svg>