<?xml version="1.0" encoding="UTF-8" standalone="no"?>
<!DOCTYPE svg PUBLIC "-//W3C//DTD SVG 1.0//EN" "http://www.w3.org/TR/2001/REC-SVG-20010904/DTD/svg10.dtd">
<!-- Generated by Microsoft Visio 11.0, SVG Export, v1.0 rule.svg Page-1 -->
<svg xmlns="http://www.w3.org/2000/svg" xmlns:v="http://schemas.microsoft.com/visio/2003/SVGExtensions/" width="1.83894in"
		height="3.48899in" viewBox="0 0 132.404 251.208" xml:space="preserve" color-interpolation-filters="sRGB" class="st9">
	<v:documentProperties v:langID="1033" v:metric="true" v:viewMarkup="false"/>

	<style type="text/css">
	<![CDATA[
		.st1 {marker-end:url(#mrkr2-6);stroke:#4677bf;stroke-linecap:round;stroke-linejoin:round;stroke-width:0.24}
		.st2 {fill:#4677bf;fill-opacity:1;stroke:#4677bf;stroke-opacity:1;stroke-width:0.08695652173913}
		.st3 {fill:#e8eef7;stroke:#000000;stroke-linecap:round;stroke-linejoin:round;stroke-width:0.24}
		.st4 {fill:#000000;font-family:Arial;font-size:0.666664em}
		.st5 {font-size:1em}
		.st6 {fill:#000000;font-family:Arial;font-size:0.666664em;font-style:italic}
		.st7 {fill:none;stroke:none;stroke-linecap:round;stroke-linejoin:round;stroke-width:0.72}
		.st8 {fill:#000000;font-family:Arial;font-size:1.00001em;font-weight:bold}
		.st9 {fill:none;fill-rule:evenodd;font-size:12;overflow:visible;stroke-linecap:square;stroke-miterlimit:3}
	]]>
	</style>

	<defs id="Markers">
		<g id="lend2">
			<path d="M 1 1 L 0 0 L 1 -1 L 1 1 " style="stroke:none"/>
		</g>
		<marker id="mrkr2-6" class="st2" v:arrowType="2" v:arrowSize="2" v:setback="11.5" refX="-11.5" orient="auto"
				markerUnits="strokeWidth">
			<use xlink:href="#lend2" transform="scale(-11.5,-11.5) "/>
		</marker>
	</defs>
	<g v:mID="0" v:index="1" v:groupContext="foregroundPage">
		<title>Page-1</title>
		<v:pageProperties v:drawingScale="0.0393701" v:pageScale="0.0393701" v:drawingUnits="24" v:shadowOffsetX="8.50394"
				v:shadowOffsetY="-8.50394"/>
		<v:layer v:name="Connector" v:index="0"/>
		<v:layer v:name="Flowchart" v:index="1"/>
		<g id="shape2-1" v:mID="2" v:groupContext="shape" v:layerMember="0" transform="translate(69.6255,-205.988)">
			<title>Dynamic connector.4</title>
			<path d="M0.15 258.06 L6.96 258.06 L6.96 258.53 L11.26 258.53" class="st1"/>
		</g>
		<g id="shape3-7" v:mID="3" v:groupContext="shape" v:layerMember="1" transform="translate(36.7067,-192.523)">
			<title>Process.1</title>
			<desc>‘rule’</desc>
			<v:custProps>
				<v:cp v:nameU="Cost" v:lbl="Cost" v:type="7" v:format="@" v:langID="1033"/>
				<v:cp v:nameU="Duration" v:lbl="Duration" v:type="2" v:langID="1033"/>
				<v:cp v:nameU="Resources" v:lbl="Resources" v:langID="1033"/>
			</v:custProps>
			<v:userDefs>
				<v:ud v:nameU="visVersion" v:val="VT0(11):26"/>
			</v:userDefs>
			<v:textBlock v:margins="rect(2,2,2,2)" v:tabSpace="42.5197"/>
			<v:textRect cx="16.5354" cy="244.593" width="33.08" height="13.2283"/>
			<rect x="0" y="237.979" width="33.0709" height="13.2283" rx="2.83465" ry="2.83465" class="st3"/>
			<text x="8.08" y="246.99" class="st4" v:langID="1033"><v:paragraph v:horizAlign="1"/><v:tabList/>‘<tspan class="st5"
						v:langID="2057">rule</tspan>’</text>		</g>
		<g id="shape4-11" v:mID="4" v:groupContext="shape" v:layerMember="1" transform="translate(57.6787,-163.705)">
			<title>Process.4</title>
			<desc>attributes</desc>
			<v:custProps>
				<v:cp v:nameU="Cost" v:lbl="Cost" v:type="7" v:format="@" v:langID="1033"/>
				<v:cp v:nameU="Duration" v:lbl="Duration" v:type="2" v:langID="1033"/>
				<v:cp v:nameU="Resources" v:lbl="Resources" v:langID="1033"/>
			</v:custProps>
			<v:userDefs>
				<v:ud v:nameU="visVersion" v:val="VT0(11):26"/>
			</v:userDefs>
			<v:textBlock v:margins="rect(2,2,2,2)" v:tabSpace="42.5197"/>
			<v:textRect cx="22.6329" cy="244.593" width="45.27" height="13.2283"/>
			<rect x="0" y="237.979" width="45.2657" height="13.2283" rx="2.83465" ry="2.83465" class="st3"/>
			<text x="6.17" y="246.99" class="st6" v:langID="2057"><v:paragraph v:horizAlign="1"/><v:tabList/>attribute<tspan
						class="st5" v:langID="1033">s</tspan></text>		</g>
		<g id="shape7-15" v:mID="7" v:groupContext="shape" v:layerMember="0" transform="translate(116.718,-198.665)">
			<title>Dynamic connector.3</title>
			<path d="M0 251.21 L6.11 251.21 A5.66929 5.66929 0 0 1 11.78 256.88 L11.78 259.71 A5.66929 5.66929 0 0 1 6.11 265.38
						 L-67.23 265.38 A5.66929 5.66929 -180 0 0 -72.9 271.05 L-72.9 273.88 A5.66929 5.66929 -180 0 0 -67.23 279.55
						 L-61.8 279.55" class="st1"/>
		</g>
		<g id="shape9-20" v:mID="9" v:groupContext="shape" v:layerMember="1" transform="translate(36.3745,-21.9723)">
			<title>Process.58</title>
			<desc>‘end’</desc>
			<v:custProps>
				<v:cp v:nameU="Cost" v:lbl="Cost" v:type="7" v:format="@" v:langID="1033"/>
				<v:cp v:nameU="Duration" v:lbl="Duration" v:type="2" v:langID="1033"/>
				<v:cp v:nameU="Resources" v:lbl="Resources" v:langID="1033"/>
			</v:custProps>
			<v:userDefs>
				<v:ud v:nameU="visVersion" v:val="VT0(11):26"/>
			</v:userDefs>
			<v:textBlock v:margins="rect(2,2,2,2)" v:tabSpace="42.5197"/>
			<v:textRect cx="20.6693" cy="244.593" width="41.34" height="13.2283"/>
			<rect x="0" y="237.979" width="41.3386" height="13.2283" rx="2.83465" ry="2.83465" class="st3"/>
			<text x="12.22" y="246.99" class="st4" v:langID="1033"><v:paragraph v:horizAlign="1"/><v:tabList/>‘<tspan class="st5"
						v:langID="2057">end</tspan>’</text>		</g>
		<g id="shape11-24" v:mID="11" v:groupContext="shape" v:layerMember="0" transform="translate(102.944,-163.232)">
			<title>Dynamic connector.60</title>
			<path d="M0 244.12 L12.8 244.12 A5.66929 5.66929 -180 0 0 18.47 238.45 L18.47 235.62 A5.66929 5.66929 -180 0 0 12.8 229.95
						 L-53.46 229.95 A5.66929 5.66929 -180 0 0 -59.13 235.62 L-59.13 238.45 A5.66929 5.66929 -180 0 0 -53.46 244.12
						 L-48.03 244.12" class="st1"/>
		</g>
		<g id="shape12-29" v:mID="12" v:groupContext="shape" v:layerMember="1" transform="translate(58.3135,-134.886)">
			<title>Process.61</title>
			<desc>‘when’</desc>
			<v:custProps>
				<v:cp v:nameU="Cost" v:lbl="Cost" v:type="7" v:format="@" v:langID="1033"/>
				<v:cp v:nameU="Duration" v:lbl="Duration" v:type="2" v:langID="1033"/>
				<v:cp v:nameU="Resources" v:lbl="Resources" v:langID="1033"/>
			</v:custProps>
			<v:userDefs>
				<v:ud v:nameU="visVersion" v:val="VT0(11):26"/>
			</v:userDefs>
			<v:textBlock v:margins="rect(2,2,2,2)" v:tabSpace="42.5197"/>
			<v:textRect cx="18.0856" cy="244.593" width="36.18" height="13.2283"/>
			<rect x="0" y="237.979" width="36.1713" height="13.2283" rx="2.83465" ry="2.83465" class="st3"/>
			<text x="6.74" y="246.99" class="st4" v:langID="1033"><v:paragraph v:horizAlign="1"/><v:tabList/>‘<tspan class="st5"
						v:langID="2057">when</tspan>’</text>		</g>
		<g id="shape13-33" v:mID="13" v:groupContext="shape" v:layerMember="0" transform="translate(102.944,-170.319)">
			<title>Dynamic connector.62</title>
			<path d="M0 251.21 L12.8 251.21 A5.66929 5.66929 0 0 1 18.47 256.88 L18.47 259.71 A5.66929 5.66929 0 0 1 12.8 265.38
						 L-53.81 265.38 A5.66929 5.66929 -180 0 0 -59.48 271.05 L-59.48 274.36 A5.66929 5.66929 -180 0 0 -53.81 280.03
						 L-47.39 280.03" class="st1"/>
		</g>
		<g id="shape14-38" v:mID="14" v:groupContext="shape" v:layerMember="0" transform="translate(116.718,-198.665)">
			<title>Dynamic connector.64</title>
			<path d="M0 251.21 L6.11 251.21 A5.66929 5.66929 0 0 1 11.78 256.88 L11.78 259.71 A5.66929 5.66929 0 0 1 6.11 265.38
						 L-67.59 265.38 A5.66929 5.66929 -180 0 0 -73.26 271.05 L-73.26 302.7 A5.66929 5.66929 -180 0 0 -67.59 308.37
						 L-61.16 308.37" class="st1"/>
		</g>
		<g id="shape19-43" v:mID="19" v:groupContext="shape" v:layerMember="1" transform="translate(58.3135,-78.6652)">
			<title>Process.62</title>
			<desc>‘then’</desc>
			<v:custProps>
				<v:cp v:nameU="Cost" v:lbl="Cost" v:type="7" v:format="@" v:langID="1033"/>
				<v:cp v:nameU="Duration" v:lbl="Duration" v:type="2" v:langID="1033"/>
				<v:cp v:nameU="Resources" v:lbl="Resources" v:langID="1033"/>
			</v:custProps>
			<v:userDefs>
				<v:ud v:nameU="visVersion" v:val="VT0(11):26"/>
			</v:userDefs>
			<v:textBlock v:margins="rect(2,2,2,2)" v:tabSpace="42.5197"/>
			<v:textRect cx="18.0856" cy="244.593" width="36.18" height="13.2283"/>
			<rect x="0" y="237.979" width="36.1713" height="13.2283" rx="2.83465" ry="2.83465" class="st3"/>
			<text x="8.51" y="246.99" class="st4" v:langID="1033"><v:paragraph v:horizAlign="1"/><v:tabList/>‘<tspan class="st5"
						v:langID="2057">then</tspan>’</text>		</g>
		<g id="shape20-47" v:mID="20" v:groupContext="shape" v:layerMember="1" transform="translate(79.5733,-106.539)">
			<title>Process.69</title>
			<desc>LHS</desc>
			<v:custProps>
				<v:cp v:nameU="Cost" v:lbl="Cost" v:type="7" v:format="@" v:langID="1033"/>
				<v:cp v:nameU="Duration" v:lbl="Duration" v:type="2" v:langID="1033"/>
				<v:cp v:nameU="Resources" v:lbl="Resources" v:langID="1033"/>
			</v:custProps>
			<v:userDefs>
				<v:ud v:nameU="visVersion" v:val="VT0(11):26"/>
			</v:userDefs>
			<v:textBlock v:margins="rect(2,2,2,2)" v:tabSpace="42.5197"/>
			<v:textRect cx="18.0856" cy="244.593" width="36.18" height="13.2283"/>
			<rect x="0" y="237.979" width="36.1713" height="13.2283" rx="2.83465" ry="2.83465" class="st3"/>
			<text x="10.29" y="246.99" class="st6" v:langID="2057"><v:paragraph v:horizAlign="1"/><v:tabList/>LHS</text>		</g>
		<g id="shape24-50" v:mID="24" v:groupContext="shape" v:layerMember="0" transform="translate(115.745,-113.153)">
			<title>Dynamic connector.73</title>
			<path d="M0 251.21 L7.09 251.21 A5.66929 5.66929 0 0 1 12.76 256.88 L12.76 259.24 A5.66929 5.66929 0 0 1 7.09 264.91
						 L-66.61 264.91 A5.66929 5.66929 -180 0 0 -72.28 270.58 L-72.28 273.41 A5.66929 5.66929 -180 0 0 -66.61 279.08
						 L-60.19 279.08" class="st1"/>
		</g>
		<g id="shape30-55" v:mID="30" v:groupContext="shape" transform="translate(0.72,-239.047)">
			<title>Sheet.30</title>
			<desc>rule</desc>
			<v:textBlock v:margins="rect(2,2,2,2)" v:tabSpace="42.5197"/>
			<v:textRect cx="18.5359" cy="246.247" width="37.08" height="9.92126"/>
			<rect x="0" y="241.286" width="37.0719" height="9.92126" class="st7"/>
			<text x="7.52" y="249.85" class="st8" v:langID="2057"><v:paragraph v:horizAlign="1"/><v:tabList/>rule</text>		</g>
		<g id="shape31-58" v:mID="31" v:groupContext="shape" v:layerMember="0;1" transform="translate(8.02807,-218.437)">
			<title>On-page reference.135</title>
			<v:userDefs>
				<v:ud v:nameU="visVersion" v:val="VT0(11):26"/>
			</v:userDefs>
			<v:textBlock v:margins="rect(2,2,2,2)" v:tabSpace="42.5197"/>
			<path d="M0 245.42 A5.7874 5.7874 0 0 1 11.57 245.42 A5.7874 5.7874 0 1 1 0 245.42 Z" class="st3"/>
		</g>
		<g id="shape32-60" v:mID="32" v:groupContext="shape" v:layerMember="0" transform="translate(19.6029,-224.224)">
			<title>Dynamic connector.136</title>
			<path d="M0 251.21 L3.07 251.21 A3.06684 3.06684 0 0 1 6.13 254.27 L6.13 270.81 A5.48508 5.48508 -180 0 0 11.62 276.29
						 L14.34 276.29" class="st1"/>
		</g>
		<g id="shape34-65" v:mID="34" v:groupContext="shape" v:layerMember="0;1" transform="translate(97.3194,-0.24)">
			<title>On-page reference.138</title>
			<v:userDefs>
				<v:ud v:nameU="visVersion" v:val="VT0(11):26"/>
			</v:userDefs>
			<v:textBlock v:margins="rect(2,2,2,2)" v:tabSpace="42.5197"/>
			<path d="M0 245.42 A5.7874 5.7874 0 0 1 11.57 245.42 A5.7874 5.7874 0 1 1 0 245.42 Z" class="st3"/>
		</g>
		<g id="shape36-67" v:mID="36" v:groupContext="shape" v:layerMember="0" transform="translate(77.7131,-28.5865)">
			<title>Dynamic connector.140</title>
			<path d="M0 251.21 L5.31 251.21 A5.31496 5.31496 0 0 1 10.63 256.52 L10.63 269.28 A4.48819 4.48819 -180 0 0 15.12 273.77
						 L16.85 273.77" class="st1"/>
		</g>
		<g id="shape6-72" v:mID="6" v:groupContext="shape" v:layerMember="1" transform="translate(83.6467,-192.051)">
			<title>Process.6</title>
			<desc>name</desc>
			<v:custProps>
				<v:cp v:nameU="Cost" v:lbl="Cost" v:type="7" v:format="@" v:langID="1033"/>
				<v:cp v:nameU="Duration" v:lbl="Duration" v:type="2" v:langID="1033"/>
				<v:cp v:nameU="Resources" v:lbl="Resources" v:langID="1033"/>
			</v:custProps>
			<v:userDefs>
				<v:ud v:nameU="visVersion" v:val="VT0(11):26"/>
			</v:userDefs>
			<v:textBlock v:margins="rect(2,2,2,2)" v:tabSpace="42.5197"/>
			<v:textRect cx="16.5354" cy="244.593" width="33.08" height="13.2283"/>
			<rect x="0" y="237.979" width="33.0709" height="13.2283" rx="2.83465" ry="2.83465" class="st3"/>
			<text x="6.52" y="246.99" class="st6" v:langID="2057"><v:paragraph v:horizAlign="1"/><v:tabList/>name</text>		</g>
		<g id="shape37-75" v:mID="37" v:groupContext="shape" v:layerMember="0" transform="translate(94.4848,-141.5)">
			<title>Dynamic connector.37</title>
			<path d="M0 251.21 L21.26 251.21 A5.66929 5.66929 0 0 1 26.93 256.88 L26.93 259.24 A5.66929 5.66929 0 0 1 21.26 264.91
						 L-24.45 264.91 A5.66929 5.66929 -180 0 0 -30.12 270.58 L-30.12 273.88 A5.66929 5.66929 -180 0 0 -24.45 279.55
						 L-17.67 279.55" class="st1"/>
		</g>
		<g id="shape28-80" v:mID="28" v:groupContext="shape" v:layerMember="1" transform="translate(79.5733,-50.3187)">
			<title>Process.28</title>
			<desc>RHS</desc>
			<v:custProps>
				<v:cp v:nameU="Cost" v:lbl="Cost" v:type="7" v:format="@" v:langID="1033"/>
				<v:cp v:nameU="Duration" v:lbl="Duration" v:type="2" v:langID="1033"/>
				<v:cp v:nameU="Resources" v:lbl="Resources" v:langID="1033"/>
			</v:custProps>
			<v:userDefs>
				<v:ud v:nameU="visVersion" v:val="VT0(11):26"/>
			</v:userDefs>
			<v:textBlock v:margins="rect(2,2,2,2)" v:tabSpace="42.5197"/>
			<v:textRect cx="18.0856" cy="244.593" width="36.18" height="13.2283"/>
			<rect x="0" y="237.979" width="36.1713" height="13.2283" rx="2.83465" ry="2.83465" class="st3"/>
			<text x="9.63" y="246.99" class="st6" v:langID="2057"><v:paragraph v:horizAlign="1"/><v:tabList/>RHS</text>		</g>
		<g id="shape38-83" v:mID="38" v:groupContext="shape" v:layerMember="0" transform="translate(115.745,-56.9329)">
			<title>Dynamic connector.38</title>
			<path d="M0 251.21 L5.31 251.21 A5.31496 5.31496 0 0 1 10.63 256.52 L10.63 259.71 A5.66929 5.66929 0 0 1 4.96 265.38
						 L-84.33 265.38 A5.66929 5.66929 -180 0 0 -90 271.05 L-90 274.24 A5.31496 5.31496 -180 0 0 -84.69 279.55
						 L-82.13 279.55" class="st1"/>
		</g>
		<g id="shape39-88" v:mID="39" v:groupContext="shape" v:layerMember="0" transform="translate(94.4848,-85.2794)">
			<title>Dynamic connector.39</title>
			<path d="M0 251.21 L21.26 251.21 A5.66929 5.66929 0 0 1 26.93 256.88 L26.93 259.71 A5.66929 5.66929 0 0 1 21.26 265.38
						 L-31.18 265.38 A5.66929 5.66929 -180 0 0 -36.85 271.05 L-36.85 273.88 A5.66929 5.66929 -180 0 0 -31.18 279.55
						 L-17.67 279.55" class="st1"/>
		</g>
	</g>
</svg>
