<?xml version="1.0" encoding="UTF-8" standalone="no"?>
<!DOCTYPE svg PUBLIC "-//W3C//DTD SVG 1.0//EN" "http://www.w3.org/TR/2001/REC-SVG-20010904/DTD/svg10.dtd">
<!-- Generated by Microsoft Visio 11.0, SVG Export, v1.0 singleValueRestriction.svg Page-1 -->
<svg xmlns="http://www.w3.org/2000/svg" xmlns:v="http://schemas.microsoft.com/visio/2003/SVGExtensions/" width="2.46817in"
		height="1.34836in" viewBox="0 0 177.708 97.0821" xml:space="preserve" color-interpolation-filters="sRGB" class="st5">
	<v:documentProperties v:langID="1033" v:metric="true" v:viewMarkup="false"/>

	<style type="text/css">
	<![CDATA[
		.st1 {fill:#e8eef7;stroke:#000000;stroke-linecap:round;stroke-linejoin:round;stroke-width:0.24}
		.st2 {fill:#000000;font-family:Arial;font-size:0.666664em;font-style:italic}
		.st3 {marker-end:url(#mrkr2-20);stroke:#4677bf;stroke-linecap:round;stroke-linejoin:round;stroke-width:0.24}
		.st4 {fill:#4677bf;fill-opacity:1;stroke:#4677bf;stroke-opacity:1;stroke-width:0.08695652173913}
		.st5 {fill:none;fill-rule:evenodd;font-size:12;overflow:visible;stroke-linecap:square;stroke-miterlimit:3}
	]]>
	</style>

	<defs id="Markers">
		<g id="lend2">
			<path d="M 1 1 L 0 0 L 1 -1 L 1 1 " style="stroke:none"/>
		</g>
		<marker id="mrkr2-20" class="st4" v:arrowType="2" v:arrowSize="2" v:setback="11.5" refX="-11.5" orient="auto"
				markerUnits="strokeWidth">
			<use xlink:href="#lend2" transform="scale(-11.5,-11.5) "/>
		</marker>
	</defs>
	<g v:mID="0" v:index="1" v:groupContext="foregroundPage">
		<title>Page-1</title>
		<v:pageProperties v:drawingScale="0.0393701" v:pageScale="0.0393701" v:drawingUnits="24" v:shadowOffsetX="8.50394"
				v:shadowOffsetY="-8.50394"/>
		<v:layer v:name="Connector" v:index="0"/>
		<v:layer v:name="Flowchart" v:index="1"/>
		<g id="shape112-1" v:mID="112" v:groupContext="shape" v:layerMember="0;1" transform="translate(166.004,-82.5498)">
			<title>On-page reference.129</title>
			<v:userDefs>
				<v:ud v:nameU="visVersion" v:val="VT0(11):26"/>
			</v:userDefs>
			<v:textBlock v:margins="rect(2,2,2,2)" v:tabSpace="42.5197"/>
			<path d="M0 91.35 A5.73228 5.73228 0 0 1 11.46 91.35 A5.73228 5.73228 0 1 1 0 91.35 Z" class="st1"/>
		</g>
		<g id="shape113-3" v:mID="113" v:groupContext="shape" v:layerMember="1" transform="translate(45.2872,-81.7309)">
			<title>Process.130</title>
			<desc>literalRestriction</desc>
			<v:custProps>
				<v:cp v:nameU="Cost" v:lbl="Cost" v:type="7" v:format="@" v:langID="1033"/>
				<v:cp v:nameU="Duration" v:lbl="Duration" v:type="2" v:langID="1033"/>
				<v:cp v:nameU="Resources" v:lbl="Resources" v:langID="1033"/>
			</v:custProps>
			<v:userDefs>
				<v:ud v:nameU="visVersion" v:val="VT0(11):26"/>
			</v:userDefs>
			<v:textBlock v:margins="rect(2,2,2,2)" v:tabSpace="42.5197"/>
			<v:textRect cx="43.937" cy="90.5309" width="87.88" height="13.1024"/>
			<rect x="0" y="83.9797" width="87.874" height="13.1024" rx="2.83465" ry="2.83465" class="st1"/>
			<text x="15.47" y="92.93" class="st2" v:langID="2057"><v:paragraph v:horizAlign="1"/><v:tabList/>literalRestriction</text>		</g>
		<g id="shape114-6" v:mID="114" v:groupContext="shape" v:layerMember="1" transform="translate(45.2872,-52.6494)">
			<title>Process.131</title>
			<desc>variableRestriction</desc>
			<v:custProps>
				<v:cp v:nameU="Cost" v:lbl="Cost" v:type="7" v:format="@" v:langID="1033"/>
				<v:cp v:nameU="Duration" v:lbl="Duration" v:type="2" v:langID="1033"/>
				<v:cp v:nameU="Resources" v:lbl="Resources" v:langID="1033"/>
			</v:custProps>
			<v:userDefs>
				<v:ud v:nameU="visVersion" v:val="VT0(11):26"/>
			</v:userDefs>
			<v:textBlock v:margins="rect(2,2,2,2)" v:tabSpace="42.5197"/>
			<v:textRect cx="43.937" cy="90.5309" width="87.88" height="13.1024"/>
			<rect x="0" y="83.9797" width="87.874" height="13.1024" rx="2.83465" ry="2.83465" class="st1"/>
			<text x="11.02" y="92.93" class="st2" v:langID="2057"><v:paragraph v:horizAlign="1"/><v:tabList/>variableRestriction</text>		</g>
		<g id="shape115-9" v:mID="115" v:groupContext="shape" v:layerMember="1" transform="translate(45.2872,-24.8958)">
			<title>Process.115</title>
			<desc>returnValueRestriction</desc>
			<v:custProps>
				<v:cp v:nameU="Cost" v:lbl="Cost" v:type="7" v:format="@" v:langID="1033"/>
				<v:cp v:nameU="Duration" v:lbl="Duration" v:type="2" v:langID="1033"/>
				<v:cp v:nameU="Resources" v:lbl="Resources" v:langID="1033"/>
			</v:custProps>
			<v:userDefs>
				<v:ud v:nameU="visVersion" v:val="VT0(11):26"/>
			</v:userDefs>
			<v:textBlock v:margins="rect(2,2,2,2)" v:tabSpace="42.5197"/>
			<v:textRect cx="43.937" cy="90.5309" width="87.88" height="13.1024"/>
			<rect x="0" y="83.9797" width="87.874" height="13.1024" rx="2.83465" ry="2.83465" class="st1"/>
			<text x="4.35" y="92.93" class="st2" v:langID="2057"><v:paragraph v:horizAlign="1"/><v:tabList/>returnValueRestriction</text>		</g>
		<g id="shape116-12" v:mID="116" v:groupContext="shape" v:layerMember="1" transform="translate(45.2872,-0.24)">
			<title>Process.133</title>
			<desc>regexpRestriction</desc>
			<v:custProps>
				<v:cp v:nameU="Cost" v:lbl="Cost" v:type="7" v:format="@" v:langID="1033"/>
				<v:cp v:nameU="Duration" v:lbl="Duration" v:type="2" v:langID="1033"/>
				<v:cp v:nameU="Resources" v:lbl="Resources" v:langID="1033"/>
			</v:custProps>
			<v:userDefs>
				<v:ud v:nameU="visVersion" v:val="VT0(11):26"/>
			</v:userDefs>
			<v:textBlock v:margins="rect(2,2,2,2)" v:tabSpace="42.5197"/>
			<v:textRect cx="43.937" cy="90.5309" width="87.88" height="13.1024"/>
			<rect x="0" y="83.9797" width="87.874" height="13.1024" rx="2.83465" ry="2.83465" class="st1"/>
			<text x="12.8" y="92.93" class="st2" v:langID="2057"><v:paragraph v:horizAlign="1"/><v:tabList/>regexpRestriction</text>		</g>
		<g id="shape117-15" v:mID="117" v:groupContext="shape" v:layerMember="0" transform="translate(11.7046,-88.2821)">
			<title>Dynamic connector.117</title>
			<path d="M0 97.08 L17.38 97.08 A5.66929 5.66929 0 0 1 23.05 102.75 L23.05 173.31 A5.26612 5.26612 -180 0 0 28.32 178.57
						 L30.82 178.57" class="st3"/>
		</g>
		<g id="shape118-21" v:mID="118" v:groupContext="shape" v:layerMember="0" transform="translate(11.7046,-88.2821)">
			<title>Dynamic connector.135</title>
			<path d="M0 97.08 L17.38 97.08 A5.66929 5.66929 0 0 1 23.05 102.75 L23.05 148.65 A5.26612 5.26612 -180 0 0 28.32 153.92
						 L30.82 153.92" class="st3"/>
		</g>
		<g id="shape119-26" v:mID="119" v:groupContext="shape" v:layerMember="0" transform="translate(11.7046,-88.2821)">
			<title>Dynamic connector.136</title>
			<path d="M0 97.08 L17.28 97.08 A5.66929 5.66929 0 0 1 22.95 102.75 L22.95 120.85 A5.31496 5.31496 -180 0 0 28.27 126.16
						 L30.82 126.16" class="st3"/>
		</g>
		<g id="shape120-31" v:mID="120" v:groupContext="shape" v:layerMember="0" transform="translate(11.7046,-81.1954)">
			<title>Dynamic connector.137</title>
			<path d="M0 90 L30.82 90" class="st3"/>
		</g>
		<g id="shape121-36" v:mID="121" v:groupContext="shape" v:layerMember="0" transform="translate(133.161,-95.3687)">
			<title>Dynamic connector.138</title>
			<path d="M0 104.17 L30.08 104.17" class="st3"/>
		</g>
		<g id="shape122-41" v:mID="122" v:groupContext="shape" v:layerMember="0" transform="translate(133.161,-59.2006)">
			<title>Dynamic connector.142</title>
			<path d="M0 97.08 L4.25 97.08 A4.25197 4.25197 -180 0 0 8.5 92.83 L8.5 73.67 A5.66929 5.66929 0 0 1 14.17 68 L30.08 68"
					class="st3"/>
		</g>
		<g id="shape123-46" v:mID="123" v:groupContext="shape" v:layerMember="0" transform="translate(133.161,-31.447)">
			<title>Dynamic connector.143</title>
			<path d="M0 97.08 L4.25 97.08 A4.25197 4.25197 -180 0 0 8.5 92.83 L8.5 45.92 A5.66929 5.66929 0 0 1 14.17 40.25 L30.08
						 40.25" class="st3"/>
		</g>
		<g id="shape124-51" v:mID="124" v:groupContext="shape" v:layerMember="0" transform="translate(133.161,-6.79118)">
			<title>Dynamic connector.144</title>
			<path d="M0 97.08 L4.25 97.08 A4.25197 4.25197 -180 0 0 8.5 92.83 L8.5 21.26 A5.66929 5.66929 0 0 1 14.17 15.59 L30.08
						 15.59" class="st3"/>
		</g>
		<g id="shape125-56" v:mID="125" v:groupContext="shape" v:layerMember="0;1" transform="translate(0.24,-82.5498)">
			<title>On-page reference.145</title>
			<v:userDefs>
				<v:ud v:nameU="visVersion" v:val="VT0(11):26"/>
			</v:userDefs>
			<v:textBlock v:margins="rect(2,2,2,2)" v:tabSpace="42.5197"/>
			<path d="M0 91.35 A5.73228 5.73228 0 0 1 11.46 91.35 A5.73228 5.73228 0 1 1 0 91.35 Z" class="st1"/>
		</g>
	</g>
</svg>
