<!--
  Licensed to the Apache Software Foundation (ASF) under one
  or more contributor license agreements.  See the NOTICE file
  distributed with this work for additional information
  regarding copyright ownership.  The ASF licenses this file
  to you under the Apache License, Version 2.0 (the
  "License"); you may not use this file except in compliance
  with the License.  You may obtain a copy of the License at

    http://www.apache.org/licenses/LICENSE-2.0

  Unless required by applicable law or agreed to in writing,
  software distributed under the License is distributed on an
  "AS IS" BASIS, WITHOUT WARRANTIES OR CONDITIONS OF ANY
  KIND, either express or implied.  See the License for the
  specific language governing permissions and limitations
  under the License.
  -->

<svg id="e779e8b0-9344-42ce-8e70-6c88b764af05" data-name="artwork" xmlns="http://www.w3.org/2000/svg" width="760" height="362.068"><defs><style>.a7ee0d0b-4124-43b8-b4ff-b74146a99d1f,.b432a2a9-a810-4a8a-800a-c79ca8b3523e,.bba2f497-545c-40d6-a42f-9348b5f3fb93,.bdd81fb9-a54f-4c02-99c0-416c06dd8219,.becfb18b-c8b4-4fd6-9954-c0d179f36e2f,.e3a2a355-476d-4f21-bed1-409efff7923f,.f4295670-49c4-4938-9c0a-c2dc7ce62362,.f4ebfb7e-47b0-437b-b37e-9556f60160c5,.fa8dfbb7-84fe-4861-8e5a-0aaedb3ee21b{fill:none}.a7ee0d0b-4124-43b8-b4ff-b74146a99d1f,.bba2f497-545c-40d6-a42f-9348b5f3fb93,.bdd81fb9-a54f-4c02-99c0-416c06dd8219,.e3a2a355-476d-4f21-bed1-409efff7923f,.fa8dfbb7-84fe-4861-8e5a-0aaedb3ee21b{stroke:#adadad}.a7ee0d0b-4124-43b8-b4ff-b74146a99d1f,.bba2f497-545c-40d6-a42f-9348b5f3fb93,.bdd81fb9-a54f-4c02-99c0-416c06dd8219,.e3a2a355-476d-4f21-bed1-409efff7923f,.f4295670-49c4-4938-9c0a-c2dc7ce62362,.fa8dfbb7-84fe-4861-8e5a-0aaedb3ee21b{stroke-linecap:round;stroke-linejoin:round}.bdd81fb9-a54f-4c02-99c0-416c06dd8219{stroke-dasharray:3 3}.bba2f497-545c-40d6-a42f-9348b5f3fb93{stroke-dasharray:3.057 3.057}.fa8dfbb7-84fe-4861-8e5a-0aaedb3ee21b{stroke-dasharray:2.954 2.954}.a7ee0d0b-4124-43b8-b4ff-b74146a99d1f{stroke-dasharray:2.989 2.989}.a8e4d0d4-2d8d-4993-96c3-1db7fe8c997a{fill:#e5f0fa}.b2fc4e18-a3ba-4d9a-8679-ba166b55bdef,.bfa4d964-72ee-4fd5-b412-ff2a9a43b396{font-size:12px}.a28cd8b2-59c0-4e48-a89f-f46069e2c045,.b2fc4e18-a3ba-4d9a-8679-ba166b55bdef,.bfa4d964-72ee-4fd5-b412-ff2a9a43b396{fill:#151515}.b2fc4e18-a3ba-4d9a-8679-ba166b55bdef{font-family:RedHatText,&quot;Red Hat Text&quot;,Overpass,&quot;Helvetica Neue&quot;,Arial,sans-serif;font-weight:500}.bbb88a0d-3b82-4f4f-8aaa-f21e506af7f5{fill:#e8e8e8}.becfb18b-c8b4-4fd6-9954-c0d179f36e2f{stroke:#f3f3f3;stroke-width:1.5px}.b432a2a9-a810-4a8a-800a-c79ca8b3523e,.becfb18b-c8b4-4fd6-9954-c0d179f36e2f,.f4ebfb7e-47b0-437b-b37e-9556f60160c5{stroke-miterlimit:10}.f4295670-49c4-4938-9c0a-c2dc7ce62362,.f4ebfb7e-47b0-437b-b37e-9556f60160c5{stroke:#151515}.b432a2a9-a810-4a8a-800a-c79ca8b3523e{stroke:#06c;stroke-width:2px}.e2c49b68-d8f0-4b9a-aaf0-16b878d37a0d{fill:#06c}.bfa4d964-72ee-4fd5-b412-ff2a9a43b396{font-family:RedHatText,&quot;Red Hat Text&quot;,Overpass,&quot;Helvetica Neue&quot;,Arial,sans-serif}</style></defs><path class="e3a2a355-476d-4f21-bed1-409efff7923f" d="M510.5 199.683v1.5H509"/><path class="bdd81fb9-a54f-4c02-99c0-416c06dd8219" d="M506 201.183H3.5"/><path class="e3a2a355-476d-4f21-bed1-409efff7923f" d="M2 201.183H.5v-1.5"/><path class="bba2f497-545c-40d6-a42f-9348b5f3fb93" d="M.5 196.626V94.212"/><path class="e3a2a355-476d-4f21-bed1-409efff7923f" d="M.5 92.683v-1.5H2"/><path class="bdd81fb9-a54f-4c02-99c0-416c06dd8219" d="M5 91.183h502.5"/><path class="e3a2a355-476d-4f21-bed1-409efff7923f" d="M509 91.183h1.5v1.5"/><path class="bba2f497-545c-40d6-a42f-9348b5f3fb93" d="M510.5 95.741v102.414"/><path class="e3a2a355-476d-4f21-bed1-409efff7923f" d="M759.5 294.683v1.5H758"/><path class="fa8dfbb7-84fe-4861-8e5a-0aaedb3ee21b" d="M755.046 296.183H567.477"/><path class="e3a2a355-476d-4f21-bed1-409efff7923f" d="M566 296.183h-1.5v-1.5"/><path class="a7ee0d0b-4124-43b8-b4ff-b74146a99d1f" d="M564.5 291.694V24.178"/><path class="e3a2a355-476d-4f21-bed1-409efff7923f" d="M564.5 22.683v-1.5h1.5"/><path class="fa8dfbb7-84fe-4861-8e5a-0aaedb3ee21b" d="M568.954 21.183h187.569"/><path class="e3a2a355-476d-4f21-bed1-409efff7923f" d="M758 21.183h1.5v1.5"/><path class="a7ee0d0b-4124-43b8-b4ff-b74146a99d1f" d="M759.5 25.672v267.517"/><path class="a8e4d0d4-2d8d-4993-96c3-1db7fe8c997a" d="M15.5 126.183h140v60h-140z"/><text class="b2fc4e18-a3ba-4d9a-8679-ba166b55bdef" transform="translate(53.287 153.23)">Documents<tspan x="-1.913" y="13">data images</tspan></text><path class="a8e4d0d4-2d8d-4993-96c3-1db7fe8c997a" d="M185.5 126.183h140v60h-140z"/><text class="b2fc4e18-a3ba-4d9a-8679-ba166b55bdef" transform="translate(205.443 159.231)">Machine Learning</text><path class="a8e4d0d4-2d8d-4993-96c3-1db7fe8c997a" d="M355.5 126.183h140v60h-140z"/><text class="b2fc4e18-a3ba-4d9a-8679-ba166b55bdef" transform="translate(377.748 159.231)">Predictive Model</text><path class="bbb88a0d-3b82-4f4f-8aaa-f21e506af7f5" d="M579.5 126.183h140v60h-140z"/><text class="b2fc4e18-a3ba-4d9a-8679-ba166b55bdef" transform="translate(606.607 153.23)">Decision Model<tspan x="23.568" y="13">(DMN)</tspan></text><path class="bbb88a0d-3b82-4f4f-8aaa-f21e506af7f5" d="M579.5 36.183h140v60h-140z"/><text class="b2fc4e18-a3ba-4d9a-8679-ba166b55bdef" transform="translate(624.769 63.23)">Business<tspan x="11.195" y="13">Data</tspan></text><path class="becfb18b-c8b4-4fd6-9954-c0d179f36e2f" d="M165.5 171.183v-55h-140"/><path class="becfb18b-c8b4-4fd6-9954-c0d179f36e2f" d="M160.5 176.183v-55h-140"/><g><path class="f4ebfb7e-47b0-437b-b37e-9556f60160c5" d="M649.5 96.183v20.324"/><path class="a28cd8b2-59c0-4e48-a89f-f46069e2c045" d="M644.514 115.048l4.986 8.635 4.986-8.635h-9.972z"/></g><g><path class="f4ebfb7e-47b0-437b-b37e-9556f60160c5" d="M175.824 156.183H155.5"/><path class="a28cd8b2-59c0-4e48-a89f-f46069e2c045" d="M174.365 151.197l8.635 4.986-8.635 4.987v-9.973z"/></g><g><path class="f4ebfb7e-47b0-437b-b37e-9556f60160c5" d="M345.824 156.183H325.5"/><path class="a28cd8b2-59c0-4e48-a89f-f46069e2c045" d="M344.365 151.197l8.635 4.986-8.635 4.987v-9.973z"/></g><g><path class="f4ebfb7e-47b0-437b-b37e-9556f60160c5" d="M579.5 66.183h-489v50.324"/><path class="a28cd8b2-59c0-4e48-a89f-f46069e2c045" d="M85.514 115.048l4.986 8.635 4.986-8.635h-9.972z"/></g><path class="f4ebfb7e-47b0-437b-b37e-9556f60160c5" d="M90.5 106.183h335v20"/><g><path class="f4ebfb7e-47b0-437b-b37e-9556f60160c5" d="M719.5 251.183h25v-185h-15.324"/><path class="a28cd8b2-59c0-4e48-a89f-f46069e2c045" d="M730.635 61.197L722 66.183l8.635 4.987v-9.973z"/></g><path class="bbb88a0d-3b82-4f4f-8aaa-f21e506af7f5" d="M579.5 221.183h140v60h-140z"/><text class="b2fc4e18-a3ba-4d9a-8679-ba166b55bdef" transform="translate(624.769 248.23)">Business<tspan x="3.462" y="13">Actions</tspan></text><g><path class="f4ebfb7e-47b0-437b-b37e-9556f60160c5" d="M649.5 186.183v25.324"/><path class="a28cd8b2-59c0-4e48-a89f-f46069e2c045" d="M644.514 210.048l4.986 8.635 4.986-8.635h-9.972z"/></g><g><path class="b432a2a9-a810-4a8a-800a-c79ca8b3523e" d="M440.5 186.183v25h193.658V195.86"/><path class="e2c49b68-d8f0-4b9a-aaf0-16b878d37a0d" d="M639.145 197.319l-4.987-8.636-4.986 8.636h9.973z"/></g><g><path class="b432a2a9-a810-4a8a-800a-c79ca8b3523e" d="M440.5 116.507v-10.324h193.658v20"/><path class="e2c49b68-d8f0-4b9a-aaf0-16b878d37a0d" d="M445.486 115.048l-4.986 8.635-4.986-8.635h9.972z"/></g><g><text class="bfa4d964-72ee-4fd5-b412-ff2a9a43b396" transform="translate(.511 226.569)">Knowlege Discovery / Machine Learning</text><path class="f4295670-49c4-4938-9c0a-c2dc7ce62362" d="M219.975 223.668l22.984-27.985"/></g><g><text class="bfa4d964-72ee-4fd5-b412-ff2a9a43b396" transform="translate(564 322.069)">Decision Automation</text><path class="f4295670-49c4-4938-9c0a-c2dc7ce62362" d="M680.794 319.168l22.984-27.985"/></g><g><text transform="translate(679.182 345.086)" font-size="10" fill="#f3f3f3" font-family="RedHatText,&quot;Red Hat Text&quot;,Overpass,&quot;Helvetica Neue&quot;,Arial,sans-serif">123_RHPAM_1020</text><path fill="none" d="M.01 322.068h760v40H.01z"/></g></svg>