<!--
  Licensed to the Apache Software Foundation (ASF) under one
  or more contributor license agreements.  See the NOTICE file
  distributed with this work for additional information
  regarding copyright ownership.  The ASF licenses this file
  to you under the Apache License, Version 2.0 (the
  "License"); you may not use this file except in compliance
  with the License.  You may obtain a copy of the License at

    http://www.apache.org/licenses/LICENSE-2.0

  Unless required by applicable law or agreed to in writing,
  software distributed under the License is distributed on an
  "AS IS" BASIS, WITHOUT WARRANTIES OR CONDITIONS OF ANY
  KIND, either express or implied.  See the License for the
  specific language governing permissions and limitations
  under the License.
  -->

<svg id="e11a2189-52a5-4485-a90f-1053a2f66440" data-name="artwork" xmlns="http://www.w3.org/2000/svg" width="760" height="384.41"><defs><style>.a89f7c2b-f116-48d0-8fb5-e49104077332{fill:#f3f3f3}.ab72102d-c27b-4e4d-9fec-10ee9213e627{fill:#bfd9f2}.ba2ca2ee-663a-4418-aa23-3aad40ea41f1{font-size:12px;font-family:RedHatText,&quot;Red Hat Text&quot;,Overpass,&quot;Helvetica Neue&quot;,Arial,sans-serif;font-weight:700;fill:#151515}.bfc8c05e-77ab-49b9-b926-d77879c927fb{fill:#151515}.ed39e33e-9bf0-41f7-bf4e-715724b5ec87{fill:#e5f0fa}.b9a1651b-8d88-46bb-bf37-ed57acc6e2d2{fill:#e8e8e8}</style></defs><path class="a89f7c2b-f116-48d0-8fb5-e49104077332" d="M72.5 208.225v55l80 22.5 75-22.5v-55l-75-22.5-80 22.5z"/><path fill="#99c2eb" d="M232.499 208.225v55l75 22.5 75-22.5v-55l-75-22.5-75 22.5z"/><path class="ab72102d-c27b-4e4d-9fec-10ee9213e627" d="M154.999 125.678v55l75 22.5 75-22.5v-55l-75-22.5-75 22.5z"/><text transform="translate(679.182 367.427)" font-size="10" font-family="RedHatText,&quot;Red Hat Text&quot;,Overpass,&quot;Helvetica Neue&quot;,Arial,sans-serif" fill="#f3f3f3">123_RHPAM_1020</text><path fill="none" d="M.01 344.41h760v40H.01z"/><text class="ba2ca2ee-663a-4418-aa23-3aad40ea41f1" transform="translate(288.953 232.447)">Maths<tspan x="-20.31" y="13">Optimization</tspan></text><path class="a89f7c2b-f116-48d0-8fb5-e49104077332" d="M232.499 43.183v55l75 22.5 75-22.5v-55l-75-22.5-75 22.5zM309.999 125.678v55l75 22.5 75-22.5v-55l-75-22.5-75 22.5zM387.499 208.225v55l75 22.5 75-22.5v-55l-75-22.5-75 22.5z"/><path class="ed39e33e-9bf0-41f7-bf4e-715724b5ec87" d="M154.999 290.074v55l75 22.5 75-22.5v-55l-75-22.5-75 22.5z"/><text class="ba2ca2ee-663a-4418-aa23-3aad40ea41f1" transform="translate(205.046 314.296)">Machine<tspan x="-1.607" y="13">Learning</tspan></text><path class="ab72102d-c27b-4e4d-9fec-10ee9213e627" d="M0 290.074v55l70 22.5 80-22.5v-55l-80-22.5-70 22.5z"/><path class="bfc8c05e-77ab-49b9-b926-d77879c927fb" d="M24.569 305.9l3.73 5.086-.036-5.086h1.943v8.4h-1.823l-3.85-5.253.036 5.253h-1.943v-8.4zM31.614 312.521c0-1.139.888-1.8 2.41-1.8a4.027 4.027 0 011.44.288v-.5c0-.6-.4-.9-1.223-.9a4.608 4.608 0 00-1.739.432l-.672-1.354a6.85 6.85 0 012.843-.672c1.715 0 2.71.851 2.71 2.326v3.959h-1.919v-.539a2.466 2.466 0 01-1.715.635 1.926 1.926 0 01-2.135-1.875zm2.735.587a2.11 2.11 0 001.115-.311v-.791a4.641 4.641 0 00-1.068-.133c-.635 0-.995.216-.995.612s.348.623.948.623zM39.666 309.606h-1.2v-1.5h1.2v-1.714l1.942-.4v2.11h1.656v1.5h-1.656v2.4c0 .551.216.743.817.743a2.6 2.6 0 00.791-.132v1.571a5.408 5.408 0 01-1.331.192c-1.463 0-2.219-.672-2.219-1.99zM46.24 311.718a1.03 1.03 0 001.031 1.151 1.256 1.256 0 001.033-.515v-4.247h1.942v6.193H48.3v-1.007a2.287 2.287 0 01-1.955 1.1 2 2 0 01-2.051-2.111v-4.174h1.946zM51.762 308.107H53.7v1.4c.4-1.032.947-1.524 1.68-1.524a1.326 1.326 0 01.647.157v1.667a2.115 2.115 0 00-.912-.192 1.712 1.712 0 00-1.415.768v3.917h-1.938zM56.777 312.521c0-1.139.888-1.8 2.411-1.8a4.026 4.026 0 011.439.288v-.5c0-.6-.4-.9-1.223-.9a4.613 4.613 0 00-1.739.432l-.672-1.354a6.85 6.85 0 012.843-.672c1.715 0 2.71.851 2.71 2.326v3.959h-1.919v-.539a2.467 2.467 0 01-1.715.635 1.926 1.926 0 01-2.135-1.875zm2.735.587a2.11 2.11 0 001.115-.311v-.791a4.632 4.632 0 00-1.067-.133c-.636 0-1 .216-1 .612s.352.623.952.623zM65.956 314.3h-1.942v-8.575l1.942-.3zM70.229 305.9h2.063v6.633h4.162v1.767h-6.225zM77.537 312.521c0-1.139.888-1.8 2.411-1.8a4.026 4.026 0 011.439.288v-.5c0-.6-.4-.9-1.223-.9a4.608 4.608 0 00-1.739.432l-.672-1.354a6.846 6.846 0 012.843-.672c1.715 0 2.71.851 2.71 2.326v3.959h-1.919v-.539a2.467 2.467 0 01-1.715.635 1.926 1.926 0 01-2.135-1.875zm2.734.587a2.111 2.111 0 001.116-.311v-.791a4.641 4.641 0 00-1.068-.133c-.635 0-1 .216-1 .612s.353.623.952.623zM84.773 308.107h1.943v1.008a2.285 2.285 0 011.955-1.1 2 2 0 012.051 2.11v4.175h-1.943v-3.609a1.03 1.03 0 00-1.032-1.152 1.251 1.251 0 00-1.031.516v4.245h-1.943zM91.913 311.166a2.97 2.97 0 012.879-3.095 2.154 2.154 0 011.679.781v-.745h1.907v6.273c0 1.667-1.151 2.591-3.263 2.591a5.938 5.938 0 01-2.566-.552l.6-1.4a4.381 4.381 0 001.9.479c.923 0 1.4-.384 1.4-1.139v-.887a2.322 2.322 0 01-1.8.815 2.934 2.934 0 01-2.736-3.121zM95.3 312.7a1.5 1.5 0 001.151-.492v-2.063a1.579 1.579 0 00-1.151-.479 1.447 1.447 0 00-1.476 1.511A1.463 1.463 0 0095.3 312.7zM101.788 311.718a1.03 1.03 0 001.031 1.151 1.256 1.256 0 001.033-.515v-4.247h1.942v6.193h-1.942v-1.007a2.287 2.287 0 01-1.956 1.1 2 2 0 01-2.05-2.111v-4.174h1.942zM107.021 312.521c0-1.139.888-1.8 2.412-1.8a4.025 4.025 0 011.438.288v-.5c0-.6-.395-.9-1.223-.9a4.613 4.613 0 00-1.739.432l-.672-1.354a6.85 6.85 0 012.843-.672c1.715 0 2.71.851 2.71 2.326v3.959h-1.919v-.539a2.467 2.467 0 01-1.715.635 1.926 1.926 0 01-2.135-1.875zm2.735.587a2.11 2.11 0 001.115-.311v-.791a4.632 4.632 0 00-1.067-.133c-.636 0-1 .216-1 .612s.352.623.952.623zM113.981 311.166a2.97 2.97 0 012.879-3.095 2.152 2.152 0 011.679.781v-.745h1.907v6.273c0 1.667-1.151 2.591-3.262 2.591a5.94 5.94 0 01-2.567-.552l.6-1.4a4.377 4.377 0 001.895.479c.923 0 1.4-.384 1.4-1.139v-.887a2.324 2.324 0 01-1.8.815 2.934 2.934 0 01-2.731-3.121zm3.383 1.535a1.505 1.505 0 001.152-.492v-2.063a1.579 1.579 0 00-1.152-.479 1.447 1.447 0 00-1.475 1.511 1.463 1.463 0 001.475 1.522zM124.947 314.416a3.2 3.2 0 01-3.262-3.2A3.1 3.1 0 01124.8 308a3.041 3.041 0 013.047 3.286v.419h-4.258a1.484 1.484 0 001.451 1.164 1.536 1.536 0 001.224-.515l1.283 1.067a3.611 3.611 0 01-2.6.995zm-1.355-3.813h2.459a1.289 1.289 0 00-1.26-1.092 1.229 1.229 0 00-1.199 1.089zM43.1 318.9h4.1a2.744 2.744 0 110 5.47h-2.033v2.93H43.1zm2.063 1.7v2.123h1.667c.84 0 1.248-.456 1.248-1.068s-.408-1.055-1.235-1.055zM51.444 321.107h1.943v1.4c.4-1.032.948-1.524 1.679-1.524a1.327 1.327 0 01.648.157v1.667a2.115 2.115 0 00-.912-.192 1.71 1.71 0 00-1.415.768v3.917h-1.943zM59.7 321.012a3.2 3.2 0 11-3.226 3.2 3.151 3.151 0 013.226-3.2zm1.343 3.2a1.356 1.356 0 10-2.674 0 1.353 1.353 0 102.674 0zM68.47 325.125l1.151 1.14a3.254 3.254 0 01-2.518 1.151 3.2 3.2 0 110-6.4 3.35 3.35 0 012.579 1.139l-1.188 1.187a1.617 1.617 0 00-1.319-.671 1.546 1.546 0 00.048 3.07 1.5 1.5 0 001.247-.616zM73.631 327.416a3.2 3.2 0 01-3.263-3.2A3.105 3.105 0 0173.486 321a3.041 3.041 0 013.047 3.286v.419h-4.258a1.486 1.486 0 001.452 1.164 1.534 1.534 0 001.223-.515l1.283 1.067a3.607 3.607 0 01-2.602.995zm-1.356-3.816h2.459a1.288 1.288 0 00-1.259-1.092 1.23 1.23 0 00-1.2 1.092zM78.1 325.365a4 4 0 001.991.624c.551 0 .887-.192.887-.5 0-.24-.18-.372-.576-.444l-1.187-.216c-1.2-.227-1.823-.839-1.823-1.8 0-1.271.971-2.026 2.591-2.026a4.973 4.973 0 012.518.707l-.888 1.235a3.5 3.5 0 00-1.774-.527c-.468 0-.744.155-.744.432 0 .252.156.359.636.443l1.163.216c1.223.228 1.871.851 1.859 1.787.012 1.212-1.14 2.123-2.662 2.123a5.057 5.057 0 01-2.843-.756zM84.228 325.365a4 4 0 001.991.624c.552 0 .886-.192.886-.5 0-.24-.179-.372-.575-.444l-1.187-.216c-1.2-.227-1.823-.839-1.823-1.8 0-1.271.971-2.026 2.59-2.026a4.974 4.974 0 012.519.707l-.888 1.235a3.5 3.5 0 00-1.774-.527c-.468 0-.744.155-.744.432 0 .252.156.359.635.443l1.163.216c1.224.228 1.872.851 1.86 1.787.012 1.212-1.14 2.123-2.662 2.123a5.057 5.057 0 01-2.843-.756zM89.892 319.068a1.1 1.1 0 012.194 0 1.1 1.1 0 01-2.194 0zm2.062 8.228h-1.942v-6.189h1.942zM93.468 321.107h1.942v1.008a2.287 2.287 0 011.955-1.1 2 2 0 012.051 2.11v4.175h-1.942v-3.609a1.031 1.031 0 00-1.033-1.152 1.252 1.252 0 00-1.031.516v4.245h-1.942zM100.607 324.166a2.97 2.97 0 012.879-3.095 2.152 2.152 0 011.679.781v-.745h1.907v6.273c0 1.667-1.151 2.591-3.262 2.591a5.94 5.94 0 01-2.567-.552l.6-1.4a4.377 4.377 0 001.895.479c.923 0 1.4-.384 1.4-1.139v-.887a2.324 2.324 0 01-1.8.815 2.934 2.934 0 01-2.731-3.121zm3.383 1.535a1.505 1.505 0 001.152-.492v-2.063a1.579 1.579 0 00-1.152-.479 1.447 1.447 0 00-1.475 1.511 1.463 1.463 0 001.475 1.522z"/><path class="a89f7c2b-f116-48d0-8fb5-e49104077332" d="M309.999 290.074v55l75 22.5 75-22.5v-55l-75-22.5-75 22.5z"/><path class="b9a1651b-8d88-46bb-bf37-ed57acc6e2d2" d="M385 367.574l75-22.5v-54.998l-75 22.5v54.998zM385 203.178l75-22.5v-54.999l-75 22.5v54.999zM462.499 285.725l75-22.5v-54.999l-75 22.5v54.999zM152.5 285.725l75-22.5v-54.999l-75 22.5v54.999z"/><g><path class="bfc8c05e-77ab-49b9-b926-d77879c927fb" d="M211.117 141.5h3.418a4.2 4.2 0 110 8.4h-3.418zm2.063 1.763v4.869h1.355a2.244 2.244 0 002.087-2.41 2.283 2.283 0 00-2.087-2.459zM219.938 141.672a1.1 1.1 0 012.194 0 1.1 1.1 0 01-2.194 0zM222 149.9h-1.942v-6.188H222zM223.237 146.769a2.97 2.97 0 012.879-3.094 2.153 2.153 0 011.679.78v-.744h1.905v6.272c0 1.667-1.151 2.591-3.263 2.591a5.924 5.924 0 01-2.566-.552l.6-1.4a4.38 4.38 0 001.895.48c.923 0 1.4-.384 1.4-1.14v-.887a2.322 2.322 0 01-1.8.815 2.934 2.934 0 01-2.729-3.121zm3.383 1.535a1.5 1.5 0 001.151-.492v-2.062a1.574 1.574 0 00-1.151-.48 1.447 1.447 0 00-1.475 1.511 1.463 1.463 0 001.475 1.519zM231.1 141.672a1.1 1.1 0 012.194 0 1.1 1.1 0 01-2.194 0zm2.062 8.227h-1.942v-6.188h1.942zM235.488 145.21h-1.2v-1.5h1.2V142l1.943-.4v2.111h1.655v1.5h-1.655v2.4c0 .551.215.743.816.743a2.6 2.6 0 00.791-.132v1.572a5.441 5.441 0 01-1.331.191c-1.463 0-2.219-.671-2.219-1.99zM239.881 148.125c0-1.14.888-1.8 2.41-1.8a4.022 4.022 0 011.439.288v-.5c0-.6-.395-.9-1.222-.9a4.6 4.6 0 00-1.739.432l-.672-1.355a6.842 6.842 0 012.842-.672c1.715 0 2.71.851 2.71 2.326v3.956h-1.919v-.539a2.463 2.463 0 01-1.714.635 1.925 1.925 0 01-2.135-1.871zm2.734.587a2.108 2.108 0 001.115-.312v-.791a4.631 4.631 0 00-1.067-.132c-.636 0-1 .215-1 .611s.353.624.952.624zM249.06 149.9h-1.943v-8.575l1.943-.3zM196.357 154.5h3.418a4.2 4.2 0 110 8.4h-3.418zm2.063 1.763v4.869h1.355a2.244 2.244 0 002.087-2.41 2.283 2.283 0 00-2.087-2.459zM208.284 163.02a3.2 3.2 0 01-3.263-3.2 3.105 3.105 0 013.119-3.214 3.042 3.042 0 013.047 3.286v.42h-4.258a1.484 1.484 0 001.451 1.163 1.536 1.536 0 001.224-.515l1.283 1.067a3.612 3.612 0 01-2.603.993zm-1.355-3.814h2.459a1.29 1.29 0 00-1.26-1.092 1.229 1.229 0 00-1.199 1.092zM216.694 160.729l1.152 1.139a3.254 3.254 0 01-2.519 1.152 3.2 3.2 0 010-6.405 3.348 3.348 0 012.579 1.139l-1.187 1.187a1.621 1.621 0 00-1.32-.671 1.546 1.546 0 00.048 3.07 1.5 1.5 0 001.247-.611zM218.749 154.672a1.1 1.1 0 012.194 0 1.1 1.1 0 01-2.194 0zm2.063 8.227h-1.943v-6.188h1.943zM222.673 160.968a4.007 4.007 0 001.991.624c.551 0 .887-.192.887-.5 0-.239-.18-.371-.575-.443l-1.188-.216c-1.2-.228-1.823-.84-1.823-1.8 0-1.272.972-2.027 2.591-2.027a4.971 4.971 0 012.518.708l-.887 1.235a3.5 3.5 0 00-1.775-.528c-.468 0-.744.156-.744.432 0 .252.156.36.636.444l1.163.215c1.223.228 1.871.852 1.859 1.787.012 1.212-1.139 2.124-2.662 2.124a5.057 5.057 0 01-2.843-.756zM228.337 154.672a1.1 1.1 0 012.194 0 1.1 1.1 0 01-2.194 0zm2.063 8.228h-1.942v-6.188h1.942zM234.863 156.615a3.2 3.2 0 11-3.226 3.2 3.151 3.151 0 013.226-3.2zm1.343 3.2a1.356 1.356 0 10-2.674 0 1.353 1.353 0 102.674 0zM239.341 156.711h1.942v1.007a2.287 2.287 0 011.955-1.1 2 2 0 012.051 2.111v4.171h-1.942v-3.61a1.032 1.032 0 00-1.033-1.152 1.254 1.254 0 00-1.031.516v4.246h-1.942zM246.637 154.672a1.1 1.1 0 012.194 0 1.1 1.1 0 01-2.194 0zm2.063 8.228h-1.942v-6.188h1.942zM250.213 156.711h1.942v1.007a2.287 2.287 0 011.955-1.1 2 2 0 012.051 2.111v4.171h-1.942v-3.61a1.031 1.031 0 00-1.032-1.152 1.254 1.254 0 00-1.032.516v4.246h-1.942zM257.353 159.769a2.969 2.969 0 012.878-3.094 2.151 2.151 0 011.679.78v-.744h1.907v6.272c0 1.667-1.151 2.591-3.262 2.591a5.925 5.925 0 01-2.567-.552l.6-1.4a4.38 4.38 0 001.895.48c.923 0 1.4-.384 1.4-1.139v-.888a2.323 2.323 0 01-1.8.816 2.934 2.934 0 01-2.73-3.122zm3.382 1.535a1.505 1.505 0 001.152-.492v-2.062a1.576 1.576 0 00-1.152-.48 1.447 1.447 0 00-1.475 1.511 1.463 1.463 0 001.475 1.519z"/></g><g><path class="ed39e33e-9bf0-41f7-bf4e-715724b5ec87" d="M464.999 290.074v55l75 22.5 75-22.5v-55l-75-22.5-75 22.5z"/><text class="ba2ca2ee-663a-4418-aa23-3aad40ea41f1" transform="translate(513.714 320.797)">Robotics</text></g><path class="b9a1651b-8d88-46bb-bf37-ed57acc6e2d2" d="M307.499 120.683l75-22.5V43.185l-75 22.5v54.998z"/></svg>