<?xml version="1.0" encoding="UTF-8" standalone="no"?>
<!-- Created with Inkscape (http://www.inkscape.org/) -->

<svg
   xmlns:dc="http://purl.org/dc/elements/1.1/"
   xmlns:cc="http://creativecommons.org/ns#"
   xmlns:rdf="http://www.w3.org/1999/02/22-rdf-syntax-ns#"
   xmlns:svg="http://www.w3.org/2000/svg"
   xmlns="http://www.w3.org/2000/svg"
   xmlns:sodipodi="http://sodipodi.sourceforge.net/DTD/sodipodi-0.dtd"
   xmlns:inkscape="http://www.inkscape.org/namespaces/inkscape"
   id="svg2"
   sodipodi:version="0.32"
   inkscape:version="0.48.3.1 r9886"
   width="42"
   height="28"
   sodipodi:docname="vehicle.svg"
   inkscape:output_extension="org.inkscape.output.svg.inkscape"
   inkscape:export-filename="vehicle.png"
   inkscape:export-xdpi="90"
   inkscape:export-ydpi="90"
   version="1.1">
  <metadata
     id="metadata7">
    <rdf:RDF>
      <cc:Work
         rdf:about="">
        <dc:format>image/svg+xml</dc:format>
        <dc:type
           rdf:resource="http://purl.org/dc/dcmitype/StillImage" />
        <dc:creator>
          <cc:Agent>
            <dc:title>www.optaplanner.org</dc:title>
          </cc:Agent>
        </dc:creator>
        <dc:title />
        <dc:rights>
          <cc:Agent>
            <dc:title>www.optaplanner.org</dc:title>
          </cc:Agent>
        </dc:rights>
        <dc:language>en</dc:language>
        <cc:license
            rdf:resource="https://www.optaplanner.org/code/license.html" />
      </cc:Work>
    </rdf:RDF>
  </metadata>
  <defs
     id="defs5">
    <inkscape:perspective
       sodipodi:type="inkscape:persp3d"
       inkscape:vp_x="0 : 10 : 1"
       inkscape:vp_y="0 : 1000 : 0"
       inkscape:vp_z="40 : 10 : 1"
       inkscape:persp3d-origin="20 : 6.6666667 : 1"
       id="perspective3249" />
  </defs>
  <sodipodi:namedview
     inkscape:window-height="991"
     inkscape:window-width="1680"
     inkscape:pageshadow="2"
     inkscape:pageopacity="0.0"
     guidetolerance="10.0"
     gridtolerance="10.0"
     objecttolerance="10.0"
     borderopacity="1.0"
     bordercolor="#666666"
     pagecolor="#ffffff"
     id="base"
     inkscape:zoom="20.392857"
     inkscape:cx="16.867859"
     inkscape:cy="12.582312"
     inkscape:window-x="1680"
     inkscape:window-y="27"
     inkscape:current-layer="svg2"
     inkscape:grid-points="true"
     inkscape:object-nodes="true"
     inkscape:guide-points="true"
     inkscape:object-points="true"
     inkscape:object-bbox="true"
     showgrid="true"
     inkscape:window-maximized="1"
     fit-margin-top="0"
     fit-margin-left="0"
     fit-margin-right="0"
     fit-margin-bottom="0" />
  <g
     id="g3053"
     transform="matrix(1.5,0,0,1.5,-9.5114138,-1.0205959)">
    <circle
       style="fill:#2e3436;stroke:#2e3436;stroke-width:0.58399999"
       sodipodi:ry="14.263"
       sodipodi:rx="14.263"
       sodipodi:cy="78.394997"
       sodipodi:cx="170.978"
       id="circle4994-2-0"
       r="14.263"
       cy="78.394997"
       cx="170.978"
       transform="matrix(-0.10628078,0.0048,0.00956527,-0.12,49.203056,22.805455)"
       d="m 185.241,78.394997 c 0,7.877237 -6.38577,14.262999 -14.263,14.262999 -7.87724,0 -14.263,-6.385762 -14.263,-14.262999 0,-7.877237 6.38576,-14.263 14.263,-14.263 7.87723,0 14.263,6.385763 14.263,14.263 z" />
    <circle
       style="fill:#2e3436;stroke:#2e3436;stroke-width:0.58399999"
       sodipodi:ry="14.263"
       sodipodi:rx="14.263"
       sodipodi:cy="78.394997"
       sodipodi:cx="170.978"
       id="circle4990-5"
       r="14.263"
       cy="78.394997"
       cx="170.978"
       transform="matrix(-0.10628078,-0.0048,0.00956527,0.12,41.673042,8.6597144)"
       d="m 185.241,78.394997 c 0,7.877237 -6.38577,14.262999 -14.263,14.262999 -7.87724,0 -14.263,-6.385762 -14.263,-14.262999 0,-7.877237 6.38576,-14.263 14.263,-14.263 7.87723,0 14.263,6.385763 14.263,14.263 z" />
    <circle
       style="fill:#2e3436;stroke:#2e3436;stroke-width:0.58399999"
       sodipodi:ry="14.263"
       sodipodi:rx="14.263"
       sodipodi:cy="78.394997"
       sodipodi:cx="170.978"
       id="circle4986-7"
       r="14.263"
       cy="78.394997"
       cx="170.978"
       transform="matrix(-0.10628078,-0.0048,0.00956527,0.12,41.516792,8.7144034)"
       d="m 185.241,78.394997 c 0,7.877237 -6.38577,14.262999 -14.263,14.262999 -7.87724,0 -14.263,-6.385762 -14.263,-14.262999 0,-7.877237 6.38576,-14.263 14.263,-14.263 7.87723,0 14.263,6.385763 14.263,14.263 z" />
    <circle
       style="fill:#2e3436;stroke:#2e3436;stroke-width:0.58399999"
       sodipodi:ry="14.263"
       sodipodi:rx="14.263"
       sodipodi:cy="78.394997"
       sodipodi:cx="170.978"
       id="circle4992-4"
       r="14.263"
       cy="78.394997"
       cx="170.978"
       transform="matrix(-0.10628078,-0.0048,0.00956527,0.12,41.9141,8.6629314)"
       d="m 185.241,78.394997 c 0,7.877237 -6.38577,14.262999 -14.263,14.262999 -7.87724,0 -14.263,-6.385762 -14.263,-14.262999 0,-7.877237 6.38576,-14.263 14.263,-14.263 7.87723,0 14.263,6.385763 14.263,14.263 z" />
    <circle
       style="fill:#2e3436;stroke:#2e3436;stroke-width:0.58399999"
       sodipodi:ry="14.263"
       sodipodi:rx="14.263"
       sodipodi:cy="78.394997"
       sodipodi:cx="170.978"
       id="circle4994-2"
       r="14.263"
       cy="78.394997"
       cx="170.978"
       transform="matrix(-0.10628078,0.0048,0.00956527,-0.12,41.898475,25.742592)"
       d="m 185.241,78.394997 c 0,7.877237 -6.38577,14.262999 -14.263,14.262999 -7.87724,0 -14.263,-6.385762 -14.263,-14.262999 0,-7.877237 6.38576,-14.263 14.263,-14.263 7.87723,0 14.263,6.385763 14.263,14.263 z" />
    <path
       sodipodi:nodetypes="cssccssccc"
       style="fill:#2e3436"
       inkscape:connector-curvature="0"
       d="m 22.264993,8.6339835 c -0.06271,0.0309 -0.145794,0.11805 -0.145794,0.28185 l 0,7.2467995 c 0,0.26565 0.131392,0.36375 0.29735,0.282 l 7.640271,-3.765149 c 0.06271,-0.0309 0.145795,-0.1281 0.145795,-0.28185 l 0,-7.2468009 c 0,-0.2394 -0.131282,-0.36375 -0.297351,-0.28185 l -7.640271,3.7650004 z"
       id="path2996-6-2-4-8" />
    <circle
       style="fill:#2e3436;stroke:#2e3436;stroke-width:0.58399999"
       sodipodi:ry="14.263"
       sodipodi:rx="14.263"
       sodipodi:cy="78.394997"
       sodipodi:cx="170.978"
       id="circle4990"
       r="14.263"
       cy="78.394997"
       cx="170.978"
       transform="matrix(-0.10628078,-0.0048,0.00956527,0.12,35.541133,7.1567109)"
       d="m 185.241,78.394997 c 0,7.877237 -6.38577,14.262999 -14.263,14.262999 -7.87724,0 -14.263,-6.385762 -14.263,-14.262999 0,-7.877237 6.38576,-14.263 14.263,-14.263 7.87723,0 14.263,6.385763 14.263,14.263 z" />
    <circle
       style="fill:#2e3436;stroke:#2e3436;stroke-width:0.58399999"
       sodipodi:ry="14.263"
       sodipodi:rx="14.263"
       sodipodi:cy="78.394997"
       sodipodi:cx="170.978"
       id="circle4992"
       r="14.263"
       cy="78.394997"
       cx="170.978"
       transform="matrix(-0.10628078,-0.0048,0.00956527,0.12,35.782191,7.1599279)"
       d="m 185.241,78.394997 c 0,7.877237 -6.38577,14.262999 -14.263,14.262999 -7.87724,0 -14.263,-6.385762 -14.263,-14.262999 0,-7.877237 6.38576,-14.263 14.263,-14.263 7.87723,0 14.263,6.385763 14.263,14.263 z" />
    <circle
       style="fill:#2e3436;stroke:#2e3436;stroke-width:0.58399999"
       sodipodi:ry="14.263"
       sodipodi:rx="14.263"
       sodipodi:cy="78.394997"
       sodipodi:cx="170.978"
       id="circle4994"
       r="14.263"
       cy="78.394997"
       cx="170.978"
       transform="matrix(-0.10628078,-0.0048,0.00956527,0.12,35.766566,7.0661779)"
       d="m 185.241,78.394997 c 0,7.877237 -6.38577,14.262999 -14.263,14.262999 -7.87724,0 -14.263,-6.385762 -14.263,-14.262999 0,-7.877237 6.38576,-14.263 14.263,-14.263 7.87723,0 14.263,6.385763 14.263,14.263 z" />
    <circle
       d="m 185.241,78.394997 c 0,7.877237 -6.38577,14.262999 -14.263,14.262999 -7.87724,0 -14.263,-6.385762 -14.263,-14.262999 0,-7.877237 6.38576,-14.263 14.263,-14.263 7.87723,0 14.263,6.385763 14.263,14.263 z"
       transform="matrix(-0.10628078,-0.0048,0.00956527,0.12,29.592009,5.4775587)"
       cx="170.978"
       cy="78.394997"
       r="14.263"
       id="circle4964"
       sodipodi:cx="170.978"
       sodipodi:cy="78.394997"
       sodipodi:rx="14.263"
       sodipodi:ry="14.263"
       style="fill:#2e3436;stroke:#2e3436;stroke-width:0.58399999" />
    <circle
       d="m 185.241,78.394997 c 0,7.877237 -6.38577,14.262999 -14.263,14.262999 -7.87724,0 -14.263,-6.385762 -14.263,-14.262999 0,-7.877237 6.38576,-14.263 14.263,-14.263 7.87723,0 14.263,6.385763 14.263,14.263 z"
       transform="matrix(-0.10628078,-0.0048,0.00956527,0.12,29.490446,5.4424017)"
       cx="170.978"
       cy="78.394997"
       r="14.263"
       id="circle4980"
       sodipodi:cx="170.978"
       sodipodi:cy="78.394997"
       sodipodi:rx="14.263"
       sodipodi:ry="14.263"
       style="fill:#2e3436;stroke:#2e3436;stroke-width:0.58399999" />
    <circle
       d="m 185.241,78.394997 c 0,7.877237 -6.38577,14.262999 -14.263,14.262999 -7.87724,0 -14.263,-6.385762 -14.263,-14.262999 0,-7.877237 6.38576,-14.263 14.263,-14.263 7.87723,0 14.263,6.385763 14.263,14.263 z"
       transform="matrix(-0.10628078,-0.0048,0.00956527,0.12,29.748259,5.4228697)"
       cx="170.978"
       cy="78.394997"
       r="14.263"
       id="circle4966"
       sodipodi:cx="170.978"
       sodipodi:cy="78.394997"
       sodipodi:rx="14.263"
       sodipodi:ry="14.263"
       style="fill:#2e3436;stroke:#2e3436;stroke-width:0.58399999" />
    <circle
       d="m 185.241,78.394997 c 0,7.877237 -6.38577,14.262999 -14.263,14.262999 -7.87724,0 -14.263,-6.385762 -14.263,-14.262999 0,-7.877237 6.38576,-14.263 14.263,-14.263 7.87723,0 14.263,6.385763 14.263,14.263 z"
       transform="matrix(-0.10628078,-0.0048,0.00956527,0.12,29.989317,5.4260867)"
       cx="170.978"
       cy="78.394997"
       r="14.263"
       id="circle4968"
       sodipodi:cx="170.978"
       sodipodi:cy="78.394997"
       sodipodi:rx="14.263"
       sodipodi:ry="14.263"
       style="fill:#2e3436;stroke:#2e3436;stroke-width:0.58399999" />
    <circle
       d="m 185.241,78.394997 c 0,7.877237 -6.38577,14.262999 -14.263,14.262999 -7.87724,0 -14.263,-6.385762 -14.263,-14.262999 0,-7.877237 6.38576,-14.263 14.263,-14.263 7.87723,0 14.263,6.385763 14.263,14.263 z"
       transform="matrix(-0.10628078,-0.0048,0.00956527,0.12,29.973692,5.3323367)"
       cx="170.978"
       cy="78.394997"
       r="14.263"
       id="circle4970"
       sodipodi:cx="170.978"
       sodipodi:cy="78.394997"
       sodipodi:rx="14.263"
       sodipodi:ry="14.263"
       style="fill:#2e3436;stroke:#2e3436;stroke-width:0.58399999" />
    <circle
       style="fill:#2e3436;stroke:#2e3436;stroke-width:0.58399999"
       sodipodi:ry="14.263"
       sodipodi:rx="14.263"
       sodipodi:cy="78.394997"
       sodipodi:cx="170.978"
       id="circle107-8-4-4-3-0"
       r="14.263"
       cy="78.394997"
       cx="170.978"
       transform="matrix(-0.10628078,-0.0048,0.00956527,0.12,26.277446,4.4168985)"
       d="m 185.241,78.394997 c 0,7.877237 -6.38577,14.262999 -14.263,14.262999 -7.87724,0 -14.263,-6.385762 -14.263,-14.262999 0,-7.877237 6.38576,-14.263 14.263,-14.263 7.87723,0 14.263,6.385763 14.263,14.263 z" />
    <circle
       style="fill:#2e3436;stroke:#2e3436;stroke-width:0.58399999"
       sodipodi:ry="14.263"
       sodipodi:rx="14.263"
       sodipodi:cy="78.394997"
       sodipodi:cx="170.978"
       id="circle107-8-4-4-3-4-8-1"
       r="14.263"
       cy="78.394997"
       cx="170.978"
       transform="matrix(-0.10628078,-0.0048,0.00956527,0.12,26.433696,4.3622095)"
       d="m 185.241,78.394997 c 0,7.877237 -6.38577,14.262999 -14.263,14.262999 -7.87724,0 -14.263,-6.385762 -14.263,-14.262999 0,-7.877237 6.38576,-14.263 14.263,-14.263 7.87723,0 14.263,6.385763 14.263,14.263 z" />
    <circle
       style="fill:#2e3436;stroke:#2e3436;stroke-width:0.58399999"
       sodipodi:ry="14.263"
       sodipodi:rx="14.263"
       sodipodi:cy="78.394997"
       sodipodi:cx="170.978"
       id="circle107-8-4-4-3-4-8-9-5"
       r="14.263"
       cy="78.394997"
       cx="170.978"
       transform="matrix(-0.10628078,-0.0048,0.00956527,0.12,26.674754,4.3654265)"
       d="m 185.241,78.394997 c 0,7.877237 -6.38577,14.262999 -14.263,14.262999 -7.87724,0 -14.263,-6.385762 -14.263,-14.262999 0,-7.877237 6.38576,-14.263 14.263,-14.263 7.87723,0 14.263,6.385763 14.263,14.263 z" />
    <circle
       style="fill:#2e3436;stroke:#2e3436;stroke-width:0.58399999"
       sodipodi:ry="14.263"
       sodipodi:rx="14.263"
       sodipodi:cy="78.394997"
       sodipodi:cx="170.978"
       id="circle107-8-4-4-3-4-8-9-7-3"
       r="14.263"
       cy="78.394997"
       cx="170.978"
       transform="matrix(-0.10628078,-0.0048,0.00956527,0.12,26.659129,4.2716765)"
       d="m 185.241,78.394997 c 0,7.877237 -6.38577,14.262999 -14.263,14.262999 -7.87724,0 -14.263,-6.385762 -14.263,-14.262999 0,-7.877237 6.38576,-14.263 14.263,-14.263 7.87723,0 14.263,6.385763 14.263,14.263 z" />
    <path
       style="fill:#2e3436"
       inkscape:connector-curvature="0"
       d="m 20.881431,8.096068 c 0.111917,0.0309 0.260217,0.11805 0.260217,0.28185 v 7.2468 c 0,0.26565 -0.234512,0.36375 -0.530716,0.282 L 6.974458,12.141568 c -0.111917,-0.0309 -0.260217,-0.1281 -0.260217,-0.28185 v -7.2468 c 0,-0.2394 0.234314,-0.36375 0.530716,-0.28185 l 13.636474,3.765 0,0 z"
       id="path2996" />
    <polygon
       transform="matrix(0.19773322,0,0,0.15,3.2604349,3.426568)"
       style="fill:#555753"
       points="19.174,56.07 19.174,7.758 19.174,7.758 88.139,32.858 88.139,81.17 "
       id="polygon2998" />
    <polygon
       transform="matrix(0.20033345,0,0,0.15,3.2105781,3.426568)"
       style="fill:#babdb6"
       points="19.174,9.589 19.174,9.589 86.24,34 86.24,80.48 19.174,56.07 "
       id="polygon3000" />
    <path
       style="fill:#888a85"
       inkscape:connector-curvature="0"
       d="m 20.02241,8.6315354 c 0.116284,0.03233 0.270371,0.1236705 0.270371,0.2950515 V 15.478928 L 7.051772,11.797533 V 5.025315 l 12.970638,3.6062204 0,0 z"
       id="path3002" />
    <path
       style="fill:#d3d7cf"
       inkscape:connector-curvature="0"
       d="m 17.973845,7.9567336 c 0.407543,1.3271755 0.321734,2.8181384 -0.357632,4.2699844 -0.374141,0.799082 -0.895327,1.51739 -1.523823,2.137306 L 7.051772,11.804781 V 4.8650677 l 10.922073,3.0916659 0,0 z"
       id="path3018" />
    <path
       style="fill:#58595b;fill-rule:evenodd"
       inkscape:connector-curvature="0"
       clip-rule="evenodd"
       d="m 7.174798,6.7350488 7.007964,2.0604 c 0.232671,0.0684 0.105658,0.35025 -0.127198,0.282 l -7.007778,-2.0604 c -0.23267,-0.0684 -0.105658,-0.3504 0.127012,-0.282 l 0,0 z m 0,1.0389 7.007964,2.0604 c 0.232671,0.0684 0.105658,0.3502502 -0.127198,0.2818502 L 7.047786,8.0557988 c -0.23267,-0.06825 -0.105658,-0.35025 0.127012,-0.28185 l 0,0 z m 0,1.0389 7.007964,2.0604002 c 0.232671,0.0684 0.105658,0.35025 -0.127198,0.28185 L 7.047786,9.0946988 c -0.23267,-0.0684 -0.105658,-0.35025 0.127012,-0.28185 l 0,0 z"
       id="path3024" />
    <path
       style="fill:#2e3436"
       inkscape:connector-curvature="0"
       d="m 20.881431,8.096068 c -0.06271,0.0309 -0.145794,0.11805 -0.145794,0.28185 v 7.2468 c 0,0.26565 0.131392,0.36375 0.29735,0.282 l 7.640272,-3.76515 c 0.06271,-0.0309 0.145795,-0.1281 0.145795,-0.28185 V 4.6129181 c 0,-0.2394 -0.131282,-0.36375 -0.297351,-0.28185 l -7.640272,3.7649999 0,0 z"
       id="path2996-6" />
    <polygon
       transform="matrix(-0.11078638,0,0,0.15,30.75416,3.4265681)"
       style="fill:#555753"
       points="19.174,7.758 19.174,7.758 88.139,32.858 88.139,81.17 19.174,56.07 "
       id="polygon2998-0" />
    <polygon
       transform="matrix(-0.11078638,0,0,0.15,30.75416,3.4265681)"
       style="fill:#babdb6"
       points="19.174,9.589 19.174,9.589 86.24,34 86.24,80.48 19.174,56.07 "
       id="polygon3000-1" />
    <path
       sodipodi:nodetypes="cscccc"
       style="fill:#888a85"
       inkscape:connector-curvature="0"
       d="m 21.529972,8.6357762 c -0.06366,0.032092 -0.147999,0.122759 -0.147999,0.2928765 l 0,6.5040343 7.247969,-3.595619 0,-6.7346839 z"
       id="path3002-9" />
    <path
       sodipodi:nodetypes="cssccsscc"
       style="fill:#2e3436"
       inkscape:connector-curvature="0"
       d="m 28.573149,4.2749007 c 0,0 0.205038,0.2456923 0.05679,0.3153674 l -7.41098,3.4831499 c -0.24042,0.1129969 -0.234512,0.36375 -0.530716,0.282 L 7.051772,4.590268 C 7.217303,4.1586099 6.776364,4.3751753 6.914865,4.308418 L 13.63527,1.0691987 c 0.215656,-0.10394588 0.388451,-0.14795722 0.684853,-0.066057 z"
       id="path2996-8" />
    <path
       sodipodi:nodetypes="cssccsscc"
       style="fill:#555753"
       inkscape:connector-curvature="0"
       d="m 28.251035,4.3972797 c 0,0 0.186086,0.086265 0.04138,0.1558345 l -7.241429,3.4812987 c -0.299531,0.143999 -0.31158,0.1549572 -0.592371,0.00553 L 7.454105,4.491459 C 7.141809,4.3868285 7.145275,4.3931238 7.332612,4.3036371 l 6.550853,-3.1292004 c 0.211565,-0.1010598 0.203486,-0.1001354 0.499888,-0.027642 z"
       id="path2996-8-9" />
    <path
       sodipodi:nodetypes="csccccccc"
       style="fill:#babdb6"
       inkscape:connector-curvature="0"
       d="m 28.251035,4.3972797 c 0,0 0.144896,-0.069174 0,0 l -7.468731,3.5655943 0,0 -13.434282,-3.6438231 0,0 6.634569,-3.2339115 c -0.0036,0.00174 -0.296402,-0.072493 0,0 z"
       id="path2996-8-9-1" />
    <path
       sodipodi:nodetypes="cscccc"
       style="fill:#888a85"
       inkscape:connector-curvature="0"
       d="m 20.498103,7.6922839 c 0.261043,0.1161722 0.379563,0.049271 0.510737,-0.01335 L 28.006116,4.3385158 13.982591,1.0851394 7.602858,4.1771505 z"
       id="path3002-9-3" />
    <path
       sodipodi:nodetypes="cssccssccc"
       style="fill:#2e3436"
       inkscape:connector-curvature="0"
       d="m 22.220799,8.6008379 c -0.06271,0.0309 -0.145794,0.11805 -0.145794,0.28185 l 0,7.2468001 c 0,0.26565 0.131392,0.36375 0.29735,0.282 l 7.640271,-3.76515 c 0.06271,-0.0309 0.145795,-0.1281 0.145795,-0.28185 l 0,-7.2468005 c 0,-0.2394 -0.131282,-0.36375 -0.297351,-0.28185 l -7.640271,3.7650004 z"
       id="path2996-6-2-4" />
    <circle
       style="fill:#2e3436;stroke:#2e3436;stroke-width:0.58399999"
       sodipodi:ry="14.263"
       sodipodi:rx="14.263"
       sodipodi:cy="78.394997"
       sodipodi:cx="170.978"
       id="circle107-8-4-4-3-4-1"
       r="14.263"
       cy="78.394997"
       cx="170.978"
       transform="matrix(-0.10628078,-0.0048,0.00956527,0.12,26.175883,4.3817415)"
       d="m 185.241,78.394997 c 0,7.877237 -6.38577,14.262999 -14.263,14.262999 -7.87724,0 -14.263,-6.385762 -14.263,-14.262999 0,-7.877237 6.38576,-14.263 14.263,-14.263 7.87723,0 14.263,6.385763 14.263,14.263 z" />
    <circle
       style="fill:#2e3436;stroke:#2e3436;stroke-width:0.58399999"
       sodipodi:ry="14.263"
       sodipodi:rx="14.263"
       sodipodi:cy="78.394997"
       sodipodi:cx="170.978"
       id="circle107-8-4-4-8-2"
       r="14.263"
       cy="78.394997"
       cx="170.978"
       transform="matrix(-0.10628078,-0.0048,0.00956527,0.12,26.185893,4.4280645)"
       d="m 185.241,78.394997 c 0,7.877237 -6.38577,14.262999 -14.263,14.262999 -7.87724,0 -14.263,-6.385762 -14.263,-14.262999 0,-7.877237 6.38576,-14.263 14.263,-14.263 7.87723,0 14.263,6.385763 14.263,14.263 z" />
    <circle
       style="fill:#2e3436;stroke:#2e3436;stroke-width:0.58399999"
       sodipodi:ry="14.263"
       sodipodi:rx="14.263"
       sodipodi:cy="78.394997"
       sodipodi:cx="170.978"
       id="circle107-8-4-4-5"
       r="14.263"
       cy="78.394997"
       cx="170.978"
       transform="matrix(-0.10628078,-0.0048,0.00956527,0.12,26.185893,4.4280645)"
       d="m 185.241,78.394997 c 0,7.877237 -6.38577,14.262999 -14.263,14.262999 -7.87724,0 -14.263,-6.385762 -14.263,-14.262999 0,-7.877237 6.38576,-14.263 14.263,-14.263 7.87723,0 14.263,6.385763 14.263,14.263 z" />
    <circle
       style="fill:#2e3436;stroke:#2e3436;stroke-width:0.58399999"
       sodipodi:ry="14.263"
       sodipodi:rx="14.263"
       sodipodi:cy="78.394997"
       sodipodi:cx="170.978"
       id="circle107-8-4-2"
       r="14.263"
       cy="78.394997"
       cx="170.978"
       transform="matrix(-0.10628078,-0.0048,0.00956527,0.12,26.185893,4.4280645)"
       d="m 185.241,78.394997 c 0,7.877237 -6.38577,14.262999 -14.263,14.262999 -7.87724,0 -14.263,-6.385762 -14.263,-14.262999 0,-7.877237 6.38576,-14.263 14.263,-14.263 7.87723,0 14.263,6.385763 14.263,14.263 z" />
    <circle
       style="fill:#2e3436;stroke:#2e3436;stroke-width:0.58399999"
       sodipodi:ry="14.263"
       sodipodi:rx="14.263"
       sodipodi:cy="78.394997"
       sodipodi:cx="170.978"
       id="circle107-8-3"
       r="14.263"
       cy="78.394997"
       cx="170.978"
       transform="matrix(-0.10628078,-0.0048,0.00956527,0.12,26.175883,4.3817415)"
       d="m 185.241,78.394997 c 0,7.877237 -6.38577,14.262999 -14.263,14.262999 -7.87724,0 -14.263,-6.385762 -14.263,-14.262999 0,-7.877237 6.38576,-14.263 14.263,-14.263 7.87723,0 14.263,6.385763 14.263,14.263 z" />
    <circle
       style="fill:#555753;fill-opacity:1;stroke:#2e3436;stroke-width:0.58278751;stroke-miterlimit:4;stroke-dasharray:none"
       sodipodi:ry="14.263"
       sodipodi:rx="14.263"
       sodipodi:cy="78.394997"
       sodipodi:cx="170.978"
       id="circle107-3-2-1"
       r="14.263"
       cy="78.394997"
       cx="170.978"
       transform="matrix(-0.11164127,-0.0048,0.01004771,0.12,26.915621,4.4170605)"
       d="m 185.241,78.394997 c 0,7.877237 -6.38577,14.262999 -14.263,14.262999 -7.87724,0 -14.263,-6.385762 -14.263,-14.262999 0,-7.877237 6.38576,-14.263 14.263,-14.263 7.87723,0 14.263,6.385763 14.263,14.263 z" />
    <circle
       style="fill:#d3d7cf;stroke:#babdb6;stroke-width:0.88346666"
       sodipodi:ry="8.0080004"
       sodipodi:rx="8.0080004"
       sodipodi:cy="78.394997"
       sodipodi:cx="170.97701"
       id="circle109-3-5-4"
       r="8.0080004"
       cy="78.394997"
       cx="170.97701"
       transform="matrix(-0.11164127,-0.0048,0.01004771,0.12,26.915621,4.4170605)"
       d="m 178.98501,78.394997 c 0,4.422696 -3.58531,8.008 -8.008,8.008 -4.4227,0 -8.00801,-3.585304 -8.00801,-8.008 0,-4.422697 3.58531,-8.008001 8.00801,-8.008001 4.42269,0 8.008,3.585304 8.008,8.008001 z" />
    <circle
       d="m 185.241,78.394997 c 0,7.877237 -6.38577,14.262999 -14.263,14.262999 -7.87724,0 -14.263,-6.385762 -14.263,-14.262999 0,-7.877237 6.38576,-14.263 14.263,-14.263 7.87723,0 14.263,6.385763 14.263,14.263 z"
       transform="matrix(-0.10628078,-0.0048,0.00956527,0.12,29.490446,5.4424017)"
       cx="170.978"
       cy="78.394997"
       r="14.263"
       id="circle4972"
       sodipodi:cx="170.978"
       sodipodi:cy="78.394997"
       sodipodi:rx="14.263"
       sodipodi:ry="14.263"
       style="fill:#2e3436;stroke:#2e3436;stroke-width:0.58399999" />
    <circle
       d="m 185.241,78.394997 c 0,7.877237 -6.38577,14.262999 -14.263,14.262999 -7.87724,0 -14.263,-6.385762 -14.263,-14.262999 0,-7.877237 6.38576,-14.263 14.263,-14.263 7.87723,0 14.263,6.385763 14.263,14.263 z"
       transform="matrix(-0.10628078,-0.0048,0.00956527,0.12,29.500456,5.4887247)"
       cx="170.978"
       cy="78.394997"
       r="14.263"
       id="circle4974"
       sodipodi:cx="170.978"
       sodipodi:cy="78.394997"
       sodipodi:rx="14.263"
       sodipodi:ry="14.263"
       style="fill:#2e3436;stroke:#2e3436;stroke-width:0.58399999" />
    <circle
       d="m 185.241,78.394997 c 0,7.877237 -6.38577,14.262999 -14.263,14.262999 -7.87724,0 -14.263,-6.385762 -14.263,-14.262999 0,-7.877237 6.38576,-14.263 14.263,-14.263 7.87723,0 14.263,6.385763 14.263,14.263 z"
       transform="matrix(-0.10628078,-0.0048,0.00956527,0.12,29.500456,5.4887247)"
       cx="170.978"
       cy="78.394997"
       r="14.263"
       id="circle4976"
       sodipodi:cx="170.978"
       sodipodi:cy="78.394997"
       sodipodi:rx="14.263"
       sodipodi:ry="14.263"
       style="fill:#2e3436;stroke:#2e3436;stroke-width:0.58399999" />
    <circle
       d="m 185.241,78.394997 c 0,7.877237 -6.38577,14.262999 -14.263,14.262999 -7.87724,0 -14.263,-6.385762 -14.263,-14.262999 0,-7.877237 6.38576,-14.263 14.263,-14.263 7.87723,0 14.263,6.385763 14.263,14.263 z"
       transform="matrix(-0.10628078,-0.0048,0.00956527,0.12,29.500456,5.4887247)"
       cx="170.978"
       cy="78.394997"
       r="14.263"
       id="circle4978"
       sodipodi:cx="170.978"
       sodipodi:cy="78.394997"
       sodipodi:rx="14.263"
       sodipodi:ry="14.263"
       style="fill:#2e3436;stroke:#2e3436;stroke-width:0.58399999" />
    <circle
       d="m 185.241,78.394997 c 0,7.877237 -6.38577,14.262999 -14.263,14.262999 -7.87724,0 -14.263,-6.385762 -14.263,-14.262999 0,-7.877237 6.38576,-14.263 14.263,-14.263 7.87723,0 14.263,6.385763 14.263,14.263 z"
       transform="matrix(-0.11164127,-0.0048,0.01004771,0.12,30.230184,5.4777207)"
       cx="170.978"
       cy="78.394997"
       r="14.263"
       id="circle4982"
       sodipodi:cx="170.978"
       sodipodi:cy="78.394997"
       sodipodi:rx="14.263"
       sodipodi:ry="14.263"
       style="fill:#555753;fill-opacity:1;stroke:#2e3436;stroke-width:0.58278751;stroke-miterlimit:4;stroke-dasharray:none" />
    <circle
       d="m 178.98501,78.394997 c 0,4.422696 -3.58531,8.008 -8.008,8.008 -4.4227,0 -8.00801,-3.585304 -8.00801,-8.008 0,-4.422697 3.58531,-8.008001 8.00801,-8.008001 4.42269,0 8.008,3.585304 8.008,8.008001 z"
       transform="matrix(-0.11164127,-0.0048,0.01004771,0.12,30.230184,5.4777207)"
       cx="170.97701"
       cy="78.394997"
       r="8.0080004"
       id="circle4984"
       sodipodi:cx="170.97701"
       sodipodi:cy="78.394997"
       sodipodi:rx="8.0080004"
       sodipodi:ry="8.0080004"
       style="fill:#d3d7cf;stroke:#babdb6;stroke-width:0.88346666" />
    <circle
       style="fill:#2e3436;stroke:#2e3436;stroke-width:0.58399999"
       sodipodi:ry="14.263"
       sodipodi:rx="14.263"
       sodipodi:cy="78.394997"
       sodipodi:cx="170.978"
       id="circle4986"
       r="14.263"
       cy="78.394997"
       cx="170.978"
       transform="matrix(-0.10628078,-0.0048,0.00956527,0.12,35.384883,7.2113999)"
       d="m 185.241,78.394997 c 0,7.877237 -6.38577,14.262999 -14.263,14.262999 -7.87724,0 -14.263,-6.385762 -14.263,-14.262999 0,-7.877237 6.38576,-14.263 14.263,-14.263 7.87723,0 14.263,6.385763 14.263,14.263 z" />
    <circle
       style="fill:#2e3436;stroke:#2e3436;stroke-width:0.58399999"
       sodipodi:ry="14.263"
       sodipodi:rx="14.263"
       sodipodi:cy="78.394997"
       sodipodi:cx="170.978"
       id="circle4988"
       r="14.263"
       cy="78.394997"
       cx="170.978"
       transform="matrix(-0.10628078,-0.0048,0.00956527,0.12,35.28332,7.1762429)"
       d="m 185.241,78.394997 c 0,7.877237 -6.38577,14.262999 -14.263,14.262999 -7.87724,0 -14.263,-6.385762 -14.263,-14.262999 0,-7.877237 6.38576,-14.263 14.263,-14.263 7.87723,0 14.263,6.385763 14.263,14.263 z" />
    <circle
       style="fill:#2e3436;stroke:#2e3436;stroke-width:0.58399999"
       sodipodi:ry="14.263"
       sodipodi:rx="14.263"
       sodipodi:cy="78.394997"
       sodipodi:cx="170.978"
       id="circle4996"
       r="14.263"
       cy="78.394997"
       cx="170.978"
       transform="matrix(-0.10628078,-0.0048,0.00956527,0.12,35.28332,7.1762429)"
       d="m 185.241,78.394997 c 0,7.877237 -6.38577,14.262999 -14.263,14.262999 -7.87724,0 -14.263,-6.385762 -14.263,-14.262999 0,-7.877237 6.38576,-14.263 14.263,-14.263 7.87723,0 14.263,6.385763 14.263,14.263 z" />
    <circle
       style="fill:#2e3436;stroke:#2e3436;stroke-width:0.58399999"
       sodipodi:ry="14.263"
       sodipodi:rx="14.263"
       sodipodi:cy="78.394997"
       sodipodi:cx="170.978"
       id="circle4998"
       r="14.263"
       cy="78.394997"
       cx="170.978"
       transform="matrix(-0.10628078,-0.0048,0.00956527,0.12,35.29333,7.2225659)"
       d="m 185.241,78.394997 c 0,7.877237 -6.38577,14.262999 -14.263,14.262999 -7.87724,0 -14.263,-6.385762 -14.263,-14.262999 0,-7.877237 6.38576,-14.263 14.263,-14.263 7.87723,0 14.263,6.385763 14.263,14.263 z" />
    <circle
       style="fill:#2e3436;stroke:#2e3436;stroke-width:0.58399999"
       sodipodi:ry="14.263"
       sodipodi:rx="14.263"
       sodipodi:cy="78.394997"
       sodipodi:cx="170.978"
       id="circle5000"
       r="14.263"
       cy="78.394997"
       cx="170.978"
       transform="matrix(-0.10628078,-0.0048,0.00956527,0.12,35.29333,7.2225659)"
       d="m 185.241,78.394997 c 0,7.877237 -6.38577,14.262999 -14.263,14.262999 -7.87724,0 -14.263,-6.385762 -14.263,-14.262999 0,-7.877237 6.38576,-14.263 14.263,-14.263 7.87723,0 14.263,6.385763 14.263,14.263 z" />
    <circle
       style="fill:#2e3436;stroke:#2e3436;stroke-width:0.58399999"
       sodipodi:ry="14.263"
       sodipodi:rx="14.263"
       sodipodi:cy="78.394997"
       sodipodi:cx="170.978"
       id="circle5002"
       r="14.263"
       cy="78.394997"
       cx="170.978"
       transform="matrix(-0.10628078,-0.0048,0.00956527,0.12,35.29333,7.2225659)"
       d="m 185.241,78.394997 c 0,7.877237 -6.38577,14.262999 -14.263,14.262999 -7.87724,0 -14.263,-6.385762 -14.263,-14.262999 0,-7.877237 6.38576,-14.263 14.263,-14.263 7.87723,0 14.263,6.385763 14.263,14.263 z" />
    <circle
       style="fill:#555753;fill-opacity:1;stroke:#2e3436;stroke-width:0.58278751;stroke-miterlimit:4;stroke-dasharray:none"
       sodipodi:ry="14.263"
       sodipodi:rx="14.263"
       sodipodi:cy="78.394997"
       sodipodi:cx="170.978"
       id="circle5004"
       r="14.263"
       cy="78.394997"
       cx="170.978"
       transform="matrix(-0.11164127,-0.0048,0.01004771,0.12,36.023058,7.2115619)"
       d="m 185.241,78.394997 c 0,7.877237 -6.38577,14.262999 -14.263,14.262999 -7.87724,0 -14.263,-6.385762 -14.263,-14.262999 0,-7.877237 6.38576,-14.263 14.263,-14.263 7.87723,0 14.263,6.385763 14.263,14.263 z" />
    <circle
       style="fill:#d3d7cf;stroke:#babdb6;stroke-width:0.88346666"
       sodipodi:ry="8.0080004"
       sodipodi:rx="8.0080004"
       sodipodi:cy="78.394997"
       sodipodi:cx="170.97701"
       id="circle5006"
       r="8.0080004"
       cy="78.394997"
       cx="170.97701"
       transform="matrix(-0.11164127,-0.0048,0.01004771,0.12,36.023058,7.2115619)"
       d="m 178.98501,78.394997 c 0,4.422696 -3.58531,8.008 -8.008,8.008 -4.4227,0 -8.00801,-3.585304 -8.00801,-8.008 0,-4.422697 3.58531,-8.008001 8.00801,-8.008001 4.42269,0 8.008,3.585304 8.008,8.008001 z" />
    <path
       sodipodi:nodetypes="cssccsccc"
       style="fill:#2e3436"
       inkscape:connector-curvature="0"
       d="m 22.167402,8.8328573 c -0.06798,0.030217 -0.159149,0.1154448 -0.158046,0.2756224 l 0.0479,6.9609333 c 0.0031,0.433673 0.34629,0.51542 0.34629,0.51542 l 3.745398,1.049812 c 0,0 0.260051,-0.114833 0.263495,-0.265165 l 0.157423,-6.871624 c 0,0 -0.04804,-0.247606 -0.228064,-0.167515 z"
       id="path2996-6-2-4-1" />
    <path
       sodipodi:nodetypes="cscccssccc"
       style="fill:#2e3436"
       inkscape:connector-curvature="0"
       d="m 26.030022,9.823994 c -0.06271,0.0309 -0.145794,0.11805 -0.145794,0.28185 l 0,7.246801 c 0,0 0,0 0.264716,0.282 l 7.672905,-3.76515 c 0.06271,-0.0309 0.145795,-0.1281 0.145795,-0.28185 l 0,-7.2468011 c 0,-0.2394 -0.131282,-0.36375 -0.297351,-0.28185 L 26.030022,9.823994 z"
       id="path2996-6-2" />
    <polygon
       transform="matrix(-0.11078638,0,0,0.15,35.90275,5.1544939)"
       style="fill:#555753"
       points="88.139,32.858 88.139,81.17 19.174,56.07 19.174,7.758 19.174,7.758 "
       id="polygon2998-0-0" />
    <polygon
       transform="matrix(-0.11078638,0,0,0.15,35.90275,5.1544939)"
       style="fill:#555753"
       points="86.24,34 86.24,80.48 19.174,56.07 19.174,9.589 19.174,9.589 "
       id="polygon3000-1-3" />
    <path
       sodipodi:nodetypes="ccscccccc"
       style="fill:#555753"
       inkscape:connector-curvature="0"
       d="M 30.889779,5.0938292 C 30.48229,4.9679799 29.9887,4.7765422 29.9887,4.7765422 l -7.065044,3.4642272 c -0.510242,0.2501885 -0.285811,0.319852 -0.285811,0.319852 l 3.392177,1.2633726 0.508599,-0.2603963 7.267273,-3.5258039 c 0,0 -0.518945,-0.2144821 -1.193242,-0.3756504 z"
       id="path2996-6-2-4-1-8" />
    <path
       sodipodi:nodetypes="cssccsccc"
       style="fill:#555753"
       inkscape:connector-curvature="0"
       d="m 22.394834,8.8335027 c -0.05909,0.030106 -0.183302,0.048725 -0.181565,0.2082929 l 0.07479,6.8684294 c 0.0047,0.432023 0.300988,0.513479 0.300988,0.513479 l 3.178072,0.891178 c 0,0 0.14005,-0.125419 0.140636,-0.275214 l 0.02634,-6.735262 c 0,0 0.01348,-0.257722 -0.231374,-0.288418 z"
       id="path2996-6-2-4-1-6" />
    <path
       id="polygon3000-1-3-3"
       sodipodi:nodetypes="ccccc"
       inkscape:connector-curvature="0"
       d="m 26.569503,10.276591 0,2.284293 0.0054,0.925667 c 0.0089,0.73867 6.978009,-2.570837 6.982679,-3.203494 l -0.02748,-3.4315145"
       style="fill:#888a85" />
    <path
       id="polygon3000-1-3-3-4"
       sodipodi:nodetypes="ccssc"
       inkscape:connector-curvature="0"
       d="m 25.644669,10.37968 0.0221,3.174661 -0.731404,-0.140599 C 23.779981,13.191641 22.500388,11.147934 22.490244,10.715557 L 22.4575,9.3198989"
       style="fill:#888a85" />
    <path
       id="polygon3000-1-3-3-9"
       sodipodi:nodetypes="ccccc"
       inkscape:connector-curvature="0"
       d="m 26.219704,15.637364 0,0.625845 0.0017,0.253612 c 0.0029,0.202379 2.202737,-0.723882 2.204232,-0.897216 l -0.0088,-0.940159"
       style="fill:#d3d7cf" />
    <path
       id="polygon3000-1-3-3-9-6"
       sodipodi:nodetypes="ccccc"
       inkscape:connector-curvature="0"
       d="m 31.555641,13.169707 0,0.625845 0.0017,0.253612 c 0.0029,0.202379 2.144258,-0.720369 2.145753,-0.893703 l -0.0088,-0.940159"
       style="fill:#d3d7cf" />
    <circle
       style="fill:#2e3436;stroke:#2e3436;stroke-width:0.58399999"
       sodipodi:ry="14.263"
       sodipodi:rx="14.263"
       sodipodi:cy="78.394997"
       sodipodi:cx="170.978"
       id="circle4988-3"
       r="14.263"
       cy="78.394997"
       cx="170.978"
       transform="matrix(-0.10628078,-0.0048,0.00956527,0.12,41.415229,8.6792464)"
       d="m 185.241,78.394997 c 0,7.877237 -6.38577,14.262999 -14.263,14.262999 -7.87724,0 -14.263,-6.385762 -14.263,-14.262999 0,-7.877237 6.38576,-14.263 14.263,-14.263 7.87723,0 14.263,6.385763 14.263,14.263 z" />
    <circle
       style="fill:#2e3436;stroke:#2e3436;stroke-width:0.58399999"
       sodipodi:ry="14.263"
       sodipodi:rx="14.263"
       sodipodi:cy="78.394997"
       sodipodi:cx="170.978"
       id="circle4996-2"
       r="14.263"
       cy="78.394997"
       cx="170.978"
       transform="matrix(-0.10628078,-0.0048,0.00956527,0.12,41.415229,8.6792464)"
       d="m 185.241,78.394997 c 0,7.877237 -6.38577,14.262999 -14.263,14.262999 -7.87724,0 -14.263,-6.385762 -14.263,-14.262999 0,-7.877237 6.38576,-14.263 14.263,-14.263 7.87723,0 14.263,6.385763 14.263,14.263 z" />
    <circle
       style="fill:#2e3436;stroke:#2e3436;stroke-width:0.58399999"
       sodipodi:ry="14.263"
       sodipodi:rx="14.263"
       sodipodi:cy="78.394997"
       sodipodi:cx="170.978"
       id="circle4998-7"
       r="14.263"
       cy="78.394997"
       cx="170.978"
       transform="matrix(-0.10628078,-0.0048,0.00956527,0.12,41.425239,8.7255694)"
       d="m 185.241,78.394997 c 0,7.877237 -6.38577,14.262999 -14.263,14.262999 -7.87724,0 -14.263,-6.385762 -14.263,-14.262999 0,-7.877237 6.38576,-14.263 14.263,-14.263 7.87723,0 14.263,6.385763 14.263,14.263 z" />
    <circle
       style="fill:#2e3436;stroke:#2e3436;stroke-width:0.58399999"
       sodipodi:ry="14.263"
       sodipodi:rx="14.263"
       sodipodi:cy="78.394997"
       sodipodi:cx="170.978"
       id="circle5000-5"
       r="14.263"
       cy="78.394997"
       cx="170.978"
       transform="matrix(-0.10628078,-0.0048,0.00956527,0.12,41.425239,8.7255694)"
       d="m 185.241,78.394997 c 0,7.877237 -6.38577,14.262999 -14.263,14.262999 -7.87724,0 -14.263,-6.385762 -14.263,-14.262999 0,-7.877237 6.38576,-14.263 14.263,-14.263 7.87723,0 14.263,6.385763 14.263,14.263 z" />
    <circle
       style="fill:#2e3436;stroke:#2e3436;stroke-width:0.58399999"
       sodipodi:ry="14.263"
       sodipodi:rx="14.263"
       sodipodi:cy="78.394997"
       sodipodi:cx="170.978"
       id="circle5002-6"
       r="14.263"
       cy="78.394997"
       cx="170.978"
       transform="matrix(-0.10628078,-0.0048,0.00956527,0.12,41.425239,8.7255694)"
       d="m 185.241,78.394997 c 0,7.877237 -6.38577,14.262999 -14.263,14.262999 -7.87724,0 -14.263,-6.385762 -14.263,-14.262999 0,-7.877237 6.38576,-14.263 14.263,-14.263 7.87723,0 14.263,6.385763 14.263,14.263 z" />
    <circle
       style="fill:#555753;fill-opacity:1;stroke:#2e3436;stroke-width:0.58278751;stroke-miterlimit:4;stroke-dasharray:none"
       sodipodi:ry="14.263"
       sodipodi:rx="14.263"
       sodipodi:cy="78.394997"
       sodipodi:cx="170.978"
       id="circle5004-2"
       r="14.263"
       cy="78.394997"
       cx="170.978"
       transform="matrix(-0.11164127,-0.0048,0.01004771,0.12,42.154967,8.7145654)"
       d="m 185.241,78.394997 c 0,7.877237 -6.38577,14.262999 -14.263,14.262999 -7.87724,0 -14.263,-6.385762 -14.263,-14.262999 0,-7.877237 6.38576,-14.263 14.263,-14.263 7.87723,0 14.263,6.385763 14.263,14.263 z" />
    <circle
       style="fill:#d3d7cf;stroke:#babdb6;stroke-width:0.88346666"
       sodipodi:ry="8.0080004"
       sodipodi:rx="8.0080004"
       sodipodi:cy="78.394997"
       sodipodi:cx="170.97701"
       id="circle5006-0"
       r="8.0080004"
       cy="78.394997"
       cx="170.97701"
       transform="matrix(-0.11164127,-0.0048,0.01004771,0.12,42.154967,8.7145654)"
       d="m 178.98501,78.394997 c 0,4.422696 -3.58531,8.008 -8.008,8.008 -4.4227,0 -8.00801,-3.585304 -8.00801,-8.008 0,-4.422697 3.58531,-8.008001 8.00801,-8.008001 4.42269,0 8.008,3.585304 8.008,8.008001 z" />
  </g>
</svg>
