<?xml version="1.0" encoding="UTF-8" standalone="no"?><svg xmlns="http://www.w3.org/2000/svg" xmlns:xlink="http://www.w3.org/1999/xlink" contentScriptType="application/ecmascript" contentStyleType="text/css" height="598px" preserveAspectRatio="none" style="width:3354px;height:598px;" version="1.1" viewBox="0 0 3354 598" width="3354px" zoomAndPan="magnify"><defs><filter height="300%" id="f156c563bibhka" width="300%" x="-1" y="-1"><feGaussianBlur result="blurOut" stdDeviation="2.0"/><feColorMatrix in="blurOut" result="blurOut2" type="matrix" values="0 0 0 0 0 0 0 0 0 0 0 0 0 0 0 0 0 0 .4 0"/><feOffset dx="4.0" dy="4.0" in="blurOut2" result="blurOut3"/><feBlend in="SourceGraphic" in2="blurOut3" mode="normal"/></filter></defs><g><!--MD5=[fd25c7d2a7c26c2f6d6733b46501defc]
cluster Global view--><polygon fill="#FFFFFF" filter="url(#f156c563bibhka)" points="22,24,119,24,126,46.2969,3332,46.2969,3332,586,22,586,22,24" style="stroke: #000000; stroke-width: 1.5;"/><line style="stroke: #000000; stroke-width: 1.5;" x1="22" x2="126" y1="46.2969" y2="46.2969"/><text fill="#000000" font-family="sans-serif" font-size="14" font-weight="bold" lengthAdjust="spacingAndGlyphs" textLength="91" x="26" y="38.9951">Global view</text><!--MD5=[6b251d59c736add0e8a8a09482f49587]
cluster General API--><polygon fill="#FFFFFF" filter="url(#f156c563bibhka)" points="1153,446,1251,446,1258,468.2969,2197,468.2969,2197,562,1153,562,1153,446" style="stroke: #000000; stroke-width: 1.5;"/><line style="stroke: #000000; stroke-width: 1.5;" x1="1153" x2="1258" y1="468.2969" y2="468.2969"/><text fill="#000000" font-family="sans-serif" font-size="14" font-weight="bold" lengthAdjust="spacingAndGlyphs" textLength="92" x="1157" y="460.9951">General API</text><polygon fill="#FFFFFF" filter="url(#f156c563bibhka)" points="46,68,861.5,68,868.5,78,3308,78,3308,396,46,396,46,68" style="stroke: #000000; stroke-width: 1.5;"/><line style="stroke: #000000; stroke-width: 1.5;" x1="46" x2="868.5" y1="78" y2="78"/><!--MD5=[f3405b93a79c5bda7b033908889fc110]
cluster KOGITO--><polygon fill="#FFFFFF" filter="url(#f156c563bibhka)" points="70,92,137,92,144,114.2969,1135,114.2969,1135,372,70,372,70,92" style="stroke: #000000; stroke-width: 1.5;"/><line style="stroke: #000000; stroke-width: 1.5;" x1="70" x2="144" y1="114.2969" y2="114.2969"/><text fill="#000000" font-family="sans-serif" font-size="14" font-weight="bold" lengthAdjust="spacingAndGlyphs" textLength="61" x="74" y="106.9951">KOGITO</text><!--MD5=[a1193b29d19ea680462f03d37faf1746]
cluster MODELS--><polygon fill="#FFFFFF" filter="url(#f156c563bibhka)" points="1159,256,1229,256,1236,278.2969,2192,278.2969,2192,372,1159,372,1159,256" style="stroke: #000000; stroke-width: 1.5;"/><line style="stroke: #000000; stroke-width: 1.5;" x1="1159" x2="1236" y1="278.2969" y2="278.2969"/><text fill="#000000" font-family="sans-serif" font-size="14" font-weight="bold" lengthAdjust="spacingAndGlyphs" textLength="64" x="1163" y="270.9951">MODELS</text><!--MD5=[2c9c5ba1d76f4e8489fe440083108d88]
cluster DROOLS--><polygon fill="#FFFFFF" filter="url(#f156c563bibhka)" points="2216,92,2286,92,2293,114.2969,3284,114.2969,3284,372,2216,372,2216,92" style="stroke: #000000; stroke-width: 1.5;"/><line style="stroke: #000000; stroke-width: 1.5;" x1="2216" x2="2293" y1="114.2969" y2="114.2969"/><text fill="#000000" font-family="sans-serif" font-size="14" font-weight="bold" lengthAdjust="spacingAndGlyphs" textLength="64" x="2220" y="106.9951">DROOLS</text><!--MD5=[22c2f471c122e6570021f983bc168b92]
entity runtime_api--><rect fill="#FEFECE" filter="url(#f156c563bibhka)" height="62.5938" style="stroke: #A80036; stroke-width: 1.5;" width="489" x="1169.75" y="482.5"/><rect fill="#FEFECE" height="10" style="stroke: #A80036; stroke-width: 1.5;" width="15" x="1638.75" y="487.5"/><rect fill="#FEFECE" height="2" style="stroke: #A80036; stroke-width: 1.5;" width="4" x="1636.75" y="489.5"/><rect fill="#FEFECE" height="2" style="stroke: #A80036; stroke-width: 1.5;" width="4" x="1636.75" y="493.5"/><text fill="#000000" font-family="sans-serif" font-size="14" lengthAdjust="spacingAndGlyphs" textLength="141" x="1184.75" y="515.4951">General Runtime API</text><text fill="#000000" font-family="sans-serif" font-size="14" lengthAdjust="spacingAndGlyphs" textLength="449" x="1184.75" y="531.792">This component defines Runtime APIs commons to all containers</text><!--MD5=[3fa85a1487740b18f8b8c4b882d288c8]
entity compile_api--><rect fill="#FEFECE" filter="url(#f156c563bibhka)" height="62.5938" style="stroke: #A80036; stroke-width: 1.5;" width="487" x="1693.75" y="482.5"/><rect fill="#FEFECE" height="10" style="stroke: #A80036; stroke-width: 1.5;" width="15" x="2160.75" y="487.5"/><rect fill="#FEFECE" height="2" style="stroke: #A80036; stroke-width: 1.5;" width="4" x="2158.75" y="489.5"/><rect fill="#FEFECE" height="2" style="stroke: #A80036; stroke-width: 1.5;" width="4" x="2158.75" y="493.5"/><text fill="#000000" font-family="sans-serif" font-size="14" lengthAdjust="spacingAndGlyphs" textLength="139" x="1708.75" y="515.4951">General Compile API</text><text fill="#000000" font-family="sans-serif" font-size="14" lengthAdjust="spacingAndGlyphs" textLength="447" x="1708.75" y="531.792">This component defines Compile APIs commons to all containers</text><!--MD5=[8d971d8c69b3e5d0248f73f2b5470454]
entity kogito_runtime_api--><rect fill="#FEFECE" filter="url(#f156c563bibhka)" height="62.5938" style="stroke: #A80036; stroke-width: 1.5;" width="425" x="198.75" y="292.5"/><rect fill="#FEFECE" height="10" style="stroke: #A80036; stroke-width: 1.5;" width="15" x="603.75" y="297.5"/><rect fill="#FEFECE" height="2" style="stroke: #A80036; stroke-width: 1.5;" width="4" x="601.75" y="299.5"/><rect fill="#FEFECE" height="2" style="stroke: #A80036; stroke-width: 1.5;" width="4" x="601.75" y="303.5"/><text fill="#000000" font-family="sans-serif" font-size="14" lengthAdjust="spacingAndGlyphs" textLength="188" x="213.75" y="325.4951">Kogito-specific Runtime API</text><text fill="#000000" font-family="sans-serif" font-size="14" lengthAdjust="spacingAndGlyphs" textLength="385" x="213.75" y="341.792">This component defines Runtime APIs specific to Kogito</text><!--MD5=[ba33549708aea94934825cb5c19a721b]
entity kogito_compile_api--><rect fill="#FEFECE" filter="url(#f156c563bibhka)" height="62.5938" style="stroke: #A80036; stroke-width: 1.5;" width="423" x="686.75" y="292.5"/><rect fill="#FEFECE" height="10" style="stroke: #A80036; stroke-width: 1.5;" width="15" x="1089.75" y="297.5"/><rect fill="#FEFECE" height="2" style="stroke: #A80036; stroke-width: 1.5;" width="4" x="1087.75" y="299.5"/><rect fill="#FEFECE" height="2" style="stroke: #A80036; stroke-width: 1.5;" width="4" x="1087.75" y="303.5"/><text fill="#000000" font-family="sans-serif" font-size="14" lengthAdjust="spacingAndGlyphs" textLength="186" x="701.75" y="325.4951">Kogito-specific Compile API</text><text fill="#000000" font-family="sans-serif" font-size="14" lengthAdjust="spacingAndGlyphs" textLength="383" x="701.75" y="341.792">This component defines Compile APIs specific to Kogito</text><!--MD5=[8dad4d4f936a268a3e661df7e36783ec]
entity kogito_model_runtime--><rect fill="#FEFECE" filter="url(#f156c563bibhka)" height="62.5938" style="stroke: #A80036; stroke-width: 1.5;" width="500" x="86" y="128.5"/><rect fill="#FEFECE" height="10" style="stroke: #A80036; stroke-width: 1.5;" width="15" x="566" y="133.5"/><rect fill="#FEFECE" height="2" style="stroke: #A80036; stroke-width: 1.5;" width="4" x="564" y="135.5"/><rect fill="#FEFECE" height="2" style="stroke: #A80036; stroke-width: 1.5;" width="4" x="564" y="139.5"/><text fill="#000000" font-family="sans-serif" font-size="14" lengthAdjust="spacingAndGlyphs" textLength="266" x="101" y="161.4951">Kogito Model-specific Runtime adapter</text><text fill="#000000" font-family="sans-serif" font-size="14" lengthAdjust="spacingAndGlyphs" textLength="460" x="101" y="177.792">This component defines Model-specific Runtime adapter for Kogito</text><!--MD5=[e78fe2e3284c3eaa1edb10ff8a163353]
entity kogito_model_compile--><rect fill="#FEFECE" filter="url(#f156c563bibhka)" height="62.5938" style="stroke: #A80036; stroke-width: 1.5;" width="498" x="621" y="128.5"/><rect fill="#FEFECE" height="10" style="stroke: #A80036; stroke-width: 1.5;" width="15" x="1099" y="133.5"/><rect fill="#FEFECE" height="2" style="stroke: #A80036; stroke-width: 1.5;" width="4" x="1097" y="135.5"/><rect fill="#FEFECE" height="2" style="stroke: #A80036; stroke-width: 1.5;" width="4" x="1097" y="139.5"/><text fill="#000000" font-family="sans-serif" font-size="14" lengthAdjust="spacingAndGlyphs" textLength="264" x="636" y="161.4951">Kogito Model-specific Compile adapter</text><text fill="#000000" font-family="sans-serif" font-size="14" lengthAdjust="spacingAndGlyphs" textLength="458" x="636" y="177.792">This component defines Model-specific Compile adapter for Kogito</text><!--MD5=[86681f84e44cffb18ebf347717fa2b21]
entity model_runtime--><rect fill="#FEFECE" filter="url(#f156c563bibhka)" height="62.5938" style="stroke: #A80036; stroke-width: 1.5;" width="484" x="1175" y="292.5"/><rect fill="#FEFECE" height="10" style="stroke: #A80036; stroke-width: 1.5;" width="15" x="1639" y="297.5"/><rect fill="#FEFECE" height="2" style="stroke: #A80036; stroke-width: 1.5;" width="4" x="1637" y="299.5"/><rect fill="#FEFECE" height="2" style="stroke: #A80036; stroke-width: 1.5;" width="4" x="1637" y="303.5"/><text fill="#000000" font-family="sans-serif" font-size="14" lengthAdjust="spacingAndGlyphs" textLength="161" x="1190" y="325.4951">Model-specific Runtime</text><text fill="#000000" font-family="sans-serif" font-size="14" lengthAdjust="spacingAndGlyphs" textLength="444" x="1190" y="341.792">This component defines Model-specific Runtime implementation</text><!--MD5=[4c6ad019f6973a4c184f097c103173e0]
entity model_compile--><rect fill="#FEFECE" filter="url(#f156c563bibhka)" height="62.5938" style="stroke: #A80036; stroke-width: 1.5;" width="482" x="1694" y="292.5"/><rect fill="#FEFECE" height="10" style="stroke: #A80036; stroke-width: 1.5;" width="15" x="2156" y="297.5"/><rect fill="#FEFECE" height="2" style="stroke: #A80036; stroke-width: 1.5;" width="4" x="2154" y="299.5"/><rect fill="#FEFECE" height="2" style="stroke: #A80036; stroke-width: 1.5;" width="4" x="2154" y="303.5"/><text fill="#000000" font-family="sans-serif" font-size="14" lengthAdjust="spacingAndGlyphs" textLength="159" x="1709" y="325.4951">Model-specific Compile</text><text fill="#000000" font-family="sans-serif" font-size="14" lengthAdjust="spacingAndGlyphs" textLength="442" x="1709" y="341.792">This component defines Model-specific Compile implementation</text><!--MD5=[1efa11e41a1ece60f484c238c717e46e]
entity drools_runtime_api--><rect fill="#FEFECE" filter="url(#f156c563bibhka)" height="62.5938" style="stroke: #A80036; stroke-width: 1.5;" width="426" x="2241" y="292.5"/><rect fill="#FEFECE" height="10" style="stroke: #A80036; stroke-width: 1.5;" width="15" x="2647" y="297.5"/><rect fill="#FEFECE" height="2" style="stroke: #A80036; stroke-width: 1.5;" width="4" x="2645" y="299.5"/><rect fill="#FEFECE" height="2" style="stroke: #A80036; stroke-width: 1.5;" width="4" x="2645" y="303.5"/><text fill="#000000" font-family="sans-serif" font-size="14" lengthAdjust="spacingAndGlyphs" textLength="189" x="2256" y="325.4951">Drools-specific Runtime API</text><text fill="#000000" font-family="sans-serif" font-size="14" lengthAdjust="spacingAndGlyphs" textLength="386" x="2256" y="341.792">This component defines Runtime APIs specific to Drools</text><!--MD5=[fac3111bf0b196f1b7f65fe8b8347b1e]
entity drools_compile_api--><rect fill="#FEFECE" filter="url(#f156c563bibhka)" height="62.5938" style="stroke: #A80036; stroke-width: 1.5;" width="424" x="2726" y="292.5"/><rect fill="#FEFECE" height="10" style="stroke: #A80036; stroke-width: 1.5;" width="15" x="3130" y="297.5"/><rect fill="#FEFECE" height="2" style="stroke: #A80036; stroke-width: 1.5;" width="4" x="3128" y="299.5"/><rect fill="#FEFECE" height="2" style="stroke: #A80036; stroke-width: 1.5;" width="4" x="3128" y="303.5"/><text fill="#000000" font-family="sans-serif" font-size="14" lengthAdjust="spacingAndGlyphs" textLength="187" x="2741" y="325.4951">Drools-specific Compile API</text><text fill="#000000" font-family="sans-serif" font-size="14" lengthAdjust="spacingAndGlyphs" textLength="384" x="2741" y="341.792">This component defines Compile APIs specific to Drools</text><!--MD5=[3f0873561cd177e5835d66dfb9d009d1]
entity drools_model_runtime--><rect fill="#FEFECE" filter="url(#f156c563bibhka)" height="62.5938" style="stroke: #A80036; stroke-width: 1.5;" width="501" x="2232.75" y="128.5"/><rect fill="#FEFECE" height="10" style="stroke: #A80036; stroke-width: 1.5;" width="15" x="2713.75" y="133.5"/><rect fill="#FEFECE" height="2" style="stroke: #A80036; stroke-width: 1.5;" width="4" x="2711.75" y="135.5"/><rect fill="#FEFECE" height="2" style="stroke: #A80036; stroke-width: 1.5;" width="4" x="2711.75" y="139.5"/><text fill="#000000" font-family="sans-serif" font-size="14" lengthAdjust="spacingAndGlyphs" textLength="267" x="2247.75" y="161.4951">Drools Model-specific Runtime adapter</text><text fill="#000000" font-family="sans-serif" font-size="14" lengthAdjust="spacingAndGlyphs" textLength="461" x="2247.75" y="177.792">This component defines Model-specific Runtime adapter for Drools</text><!--MD5=[710b2cef9e51b23ca10eeeed7769caff]
entity drools_model_compile--><rect fill="#FEFECE" filter="url(#f156c563bibhka)" height="62.5938" style="stroke: #A80036; stroke-width: 1.5;" width="499" x="2768.75" y="128.5"/><rect fill="#FEFECE" height="10" style="stroke: #A80036; stroke-width: 1.5;" width="15" x="3247.75" y="133.5"/><rect fill="#FEFECE" height="2" style="stroke: #A80036; stroke-width: 1.5;" width="4" x="3245.75" y="135.5"/><rect fill="#FEFECE" height="2" style="stroke: #A80036; stroke-width: 1.5;" width="4" x="3245.75" y="139.5"/><text fill="#000000" font-family="sans-serif" font-size="14" lengthAdjust="spacingAndGlyphs" textLength="265" x="2783.75" y="161.4951">Drools Model-specific Compile adapter</text><text fill="#000000" font-family="sans-serif" font-size="14" lengthAdjust="spacingAndGlyphs" textLength="459" x="2783.75" y="177.792">This component defines Model-specific Compile adapter for Drools</text><!--MD5=[29636d31496012ffd7a48e28a14d45bb]
link model_runtime to runtime_api--><path d="M1416.51,355.624 C1415.98,388.945 1415.13,442.153 1414.57,477.334 " fill="none" id="model_runtime-&gt;runtime_api" style="stroke: #A80036; stroke-width: 1.0;"/><polygon fill="#A80036" points="1414.49,482.389,1418.6335,473.4541,1414.57,477.3896,1410.6345,473.3262,1414.49,482.389" style="stroke: #A80036; stroke-width: 1.0;"/><text fill="#000000" font-family="sans-serif" font-size="13" lengthAdjust="spacingAndGlyphs" textLength="76" x="1417" y="425.0669">implements</text><!--MD5=[056a6de964342ab95dda4b3012381b95]
link model_compile to compile_api--><path d="M1935.33,355.624 C1935.68,388.945 1936.25,442.153 1936.62,477.334 " fill="none" id="model_compile-&gt;compile_api" style="stroke: #A80036; stroke-width: 1.0;"/><polygon fill="#A80036" points="1936.67,482.389,1940.5746,473.3472,1936.6171,477.3893,1932.5751,473.4318,1936.67,482.389" style="stroke: #A80036; stroke-width: 1.0;"/><text fill="#000000" font-family="sans-serif" font-size="13" lengthAdjust="spacingAndGlyphs" textLength="76" x="1938" y="425.0669">implements</text><!--MD5=[5b17a7ead8c334ca097fdecda2547910]
link kogito_runtime_api to runtime_api--><path d="M498.769,355.504 C548.266,371.786 611.528,391.075 669,404 C832.376,440.741 1018.8,468.006 1164.29,486.078 " fill="none" id="kogito_runtime_api-&gt;runtime_api" style="stroke: #A80036; stroke-width: 1.0; stroke-dasharray: 7.0,7.0;"/><polygon fill="#A80036" points="1169.45,486.717,1161.0097,481.6414,1164.4879,486.1026,1160.0267,489.5808,1169.45,486.717" style="stroke: #A80036; stroke-width: 1.0;"/><text fill="#000000" font-family="sans-serif" font-size="13" lengthAdjust="spacingAndGlyphs" textLength="40" x="791" y="425.0669">inherit</text><!--MD5=[d72850af6daf534b104238bb17f4a348]
link kogito_model_runtime to kogito_runtime_api--><path d="M350.283,191.852 C362.899,219.102 381.294,258.835 394.527,287.418 " fill="none" id="kogito_model_runtime-&gt;kogito_runtime_api" style="stroke: #A80036; stroke-width: 1.0;"/><polygon fill="#A80036" points="396.77,292.263,396.6197,282.4153,394.6698,287.7255,389.3596,285.7756,396.77,292.263" style="stroke: #A80036; stroke-width: 1.0;"/><text fill="#000000" font-family="sans-serif" font-size="13" lengthAdjust="spacingAndGlyphs" textLength="76" x="373" y="235.0669">implements</text><!--MD5=[ffa5a1c614bf2cb035df7cdcf41a057a]
link kogito_model_runtime to model_runtime--><path d="M586.107,190.302 C591.79,190.882 597.427,191.45 603,192 C839.599,215.372 902.402,198.768 1135,248 C1192.38,260.144 1255.53,276.642 1307.5,291.073 " fill="none" id="kogito_model_runtime-&gt;model_runtime" style="stroke: #A80036; stroke-width: 1.0; stroke-dasharray: 7.0,7.0;"/><polygon fill="#A80036" points="1312.49,292.462,1304.8774,286.2131,1307.67,291.1326,1302.7504,293.9252,1312.49,292.462" style="stroke: #A80036; stroke-width: 1.0;"/><text fill="#000000" font-family="sans-serif" font-size="13" lengthAdjust="spacingAndGlyphs" textLength="23" x="1096" y="235.0669">use</text><!--MD5=[3637ee3bc1bbae548ff1d493adc20196]
link kogito_compile_api to compile_api--><path d="M985.529,355.525 C1035.75,372.019 1100.31,391.507 1159,404 C1249.26,423.213 1272.98,423.023 1365,430 C1433.71,435.21 1606.89,427.545 1675,438 C1733.1,446.918 1796.52,464.845 1846.41,480.936 " fill="none" id="kogito_compile_api-&gt;compile_api" style="stroke: #A80036; stroke-width: 1.0; stroke-dasharray: 7.0,7.0;"/><polygon fill="#A80036" points="1851.19,482.487,1843.8636,475.9049,1846.434,480.9441,1841.3949,483.5145,1851.19,482.487" style="stroke: #A80036; stroke-width: 1.0;"/><text fill="#000000" font-family="sans-serif" font-size="13" lengthAdjust="spacingAndGlyphs" textLength="40" x="1366" y="425.0669">inherit</text><!--MD5=[720d78253af4cf968a72844fe201390b]
link kogito_model_compile to kogito_compile_api--><path d="M875.332,191.852 C880.023,218.989 886.853,258.507 891.789,287.063 " fill="none" id="kogito_model_compile-&gt;kogito_compile_api" style="stroke: #A80036; stroke-width: 1.0;"/><polygon fill="#A80036" points="892.687,292.263,895.0961,282.7133,891.8356,287.336,887.2129,284.0756,892.687,292.263" style="stroke: #A80036; stroke-width: 1.0;"/><text fill="#000000" font-family="sans-serif" font-size="13" lengthAdjust="spacingAndGlyphs" textLength="76" x="885" y="235.0669">implements</text><!--MD5=[fcfe7f229fd6dd1a358ee4e6a908e253]
link kogito_model_compile to model_compile--><path d="M1119.06,176.62 C1279.2,189.428 1491.14,211.547 1676,248 C1730.73,258.792 1790.62,275.786 1839.01,290.871 " fill="none" id="kogito_model_compile-&gt;model_compile" style="stroke: #A80036; stroke-width: 1.0; stroke-dasharray: 7.0,7.0;"/><polygon fill="#A80036" points="1843.96,292.418,1836.5739,285.903,1839.1901,290.9185,1834.1747,293.5348,1843.96,292.418" style="stroke: #A80036; stroke-width: 1.0;"/><text fill="#000000" font-family="sans-serif" font-size="13" lengthAdjust="spacingAndGlyphs" textLength="23" x="1635" y="235.0669">use</text><!--MD5=[14faaaf02276900eec43f320d917487b]
link drools_runtime_api to runtime_api--><path d="M2363.89,355.562 C2313.74,371.712 2249.91,390.855 2192,404 C2118.32,420.724 2099.26,423.34 2024,430 C1946.95,436.819 1752.47,426.372 1676,438 C1617.89,446.836 1554.47,464.761 1504.58,480.871 " fill="none" id="drools_runtime_api-&gt;runtime_api" style="stroke: #A80036; stroke-width: 1.0; stroke-dasharray: 7.0,7.0;"/><polygon fill="#A80036" points="1499.8,482.424,1509.5951,483.4515,1504.556,480.8811,1507.1264,475.8419,1499.8,482.424" style="stroke: #A80036; stroke-width: 1.0;"/><text fill="#000000" font-family="sans-serif" font-size="13" lengthAdjust="spacingAndGlyphs" textLength="40" x="2155" y="425.0669">inherit</text><!--MD5=[7dc2146ad472cfeb9fded90c2c9b3683]
link drools_model_runtime to drools_runtime_api--><path d="M2477.48,191.852 C2472.62,218.989 2465.55,258.507 2460.43,287.063 " fill="none" id="drools_model_runtime-&gt;drools_runtime_api" style="stroke: #A80036; stroke-width: 1.0;"/><polygon fill="#A80036" points="2459.5,292.263,2465.022,284.1078,2460.3802,287.3411,2457.1469,282.6994,2459.5,292.263" style="stroke: #A80036; stroke-width: 1.0;"/><text fill="#000000" font-family="sans-serif" font-size="13" lengthAdjust="spacingAndGlyphs" textLength="76" x="2472" y="235.0669">implements</text><!--MD5=[3230d9ed1b5685fa43562121f8ae81e1]
link drools_model_runtime to model_runtime--><path d="M2232.73,176.669 C2072.5,189.479 1860.74,211.583 1676,248 C1621.27,258.788 1561.38,275.782 1512.99,290.868 " fill="none" id="drools_model_runtime-&gt;model_runtime" style="stroke: #A80036; stroke-width: 1.0; stroke-dasharray: 7.0,7.0;"/><polygon fill="#A80036" points="1508.04,292.415,1517.8223,293.5585,1512.8139,290.9285,1515.4439,285.9202,1508.04,292.415" style="stroke: #A80036; stroke-width: 1.0;"/><text fill="#000000" font-family="sans-serif" font-size="13" lengthAdjust="spacingAndGlyphs" textLength="23" x="1808" y="235.0669">use</text><!--MD5=[ef0f5beadfe8079f7c7288a30c7a7102]
link drools_compile_api to compile_api--><path d="M2851.98,355.573 C2803.46,371.877 2741.42,391.165 2685,404 C2520.28,441.472 2332.09,468.819 2185.68,486.749 " fill="none" id="drools_compile_api-&gt;compile_api" style="stroke: #A80036; stroke-width: 1.0; stroke-dasharray: 7.0,7.0;"/><polygon fill="#A80036" points="2180.49,487.383,2189.9132,490.2472,2185.4521,486.7688,2188.9305,482.3077,2180.49,487.383" style="stroke: #A80036; stroke-width: 1.0;"/><text fill="#000000" font-family="sans-serif" font-size="13" lengthAdjust="spacingAndGlyphs" textLength="40" x="2646" y="425.0669">inherit</text><!--MD5=[9811537689db8b64edfa29b1e4654c85]
link drools_model_compile to drools_compile_api--><path d="M3002.76,191.852 C2989.25,219.214 2969.52,259.163 2955.4,287.772 " fill="none" id="drools_model_compile-&gt;drools_compile_api" style="stroke: #A80036; stroke-width: 1.0;"/><polygon fill="#A80036" points="2953.18,292.263,2960.7489,285.9613,2955.392,287.7789,2953.5744,282.422,2953.18,292.263" style="stroke: #A80036; stroke-width: 1.0;"/><text fill="#000000" font-family="sans-serif" font-size="13" lengthAdjust="spacingAndGlyphs" textLength="76" x="2988" y="235.0669">implements</text><!--MD5=[ebfc8ec132b319baaf12b372ba511fc1]
link drools_model_compile to model_compile--><path d="M2768.59,190.124 C2762.67,190.762 2756.8,191.388 2751,192 C2513.24,217.086 2450.8,202.967 2216,248 C2157.27,259.264 2092.74,276.157 2040.35,291.06 " fill="none" id="drools_model_compile-&gt;model_compile" style="stroke: #A80036; stroke-width: 1.0; stroke-dasharray: 7.0,7.0;"/><polygon fill="#A80036" points="2035.32,292.496,2045.072,293.8742,2040.1283,291.1247,2042.8778,286.181,2035.32,292.496" style="stroke: #A80036; stroke-width: 1.0;"/><text fill="#000000" font-family="sans-serif" font-size="13" lengthAdjust="spacingAndGlyphs" textLength="23" x="2372" y="235.0669">use</text><!--MD5=[c1314b7fc820106e7895d23e262d64bb]
@startuml
top to bottom direction

package "Global view" {

package "General API" {

    component runtime_api [
        General Runtime API
        This component defines Runtime APIs commons to all containers
        ]

    component compile_api [
        General Compile API
        This component defines Compile APIs commons to all containers
        ]
}

package {
  package "KOGITO" {
    component kogito_runtime_api [
            Kogito-specific Runtime API
            This component defines Runtime APIs specific to Kogito
     ]

    component kogito_compile_api [
            Kogito-specific Compile API
            This component defines Compile APIs specific to Kogito
    ]

    component kogito_model_runtime [
            Kogito Model-specific Runtime adapter
            This component defines Model-specific Runtime adapter for Kogito
    ]

    component kogito_model_compile [
             Kogito Model-specific Compile adapter
             This component defines Model-specific Compile adapter for Kogito
    ]
  }

  package "MODELS" {
        component model_runtime [
             Model-specific Runtime
             This component defines Model-specific Runtime implementation
        ]

        component model_compile [
             Model-specific Compile
             This component defines Model-specific Compile implementation
        ]
  }

  package "DROOLS" {
      component drools_runtime_api [
              Drools-specific Runtime API
              This component defines Runtime APIs specific to Drools
      ]

      component drools_compile_api [
               Drools-specific Compile API
               This component defines Compile APIs specific to Drools
      ]

      component drools_model_runtime [
               Drools Model-specific Runtime adapter
               This component defines Model-specific Runtime adapter for Drools
      ]

      component drools_model_compile [
              Drools Model-specific Compile adapter
              This component defines Model-specific Compile adapter for Drools
      ]

  }

}

model_runtime -> runtime_api : implements
model_compile -> compile_api : implements
kogito_runtime_api .> runtime_api : inherit
kogito_model_runtime -> kogito_runtime_api : implements
kogito_model_runtime .> model_runtime : use
kogito_compile_api .> compile_api : inherit
kogito_model_compile -> kogito_compile_api : implements
kogito_model_compile .> model_compile : use
drools_runtime_api .> runtime_api : inherit
drools_model_runtime -> drools_runtime_api : implements
drools_model_runtime .> model_runtime : use
drools_compile_api .> compile_api : inherit
drools_model_compile -> drools_compile_api : implements
drools_model_compile .> model_compile : use

}

@enduml

PlantUML version 1.2020.09(Sun May 10 12:51:06 CEST 2020)
(GPL source distribution)
Java Runtime: OpenJDK Runtime Environment
JVM: OpenJDK 64-Bit Server VM
Java Version: 11.0.7+10-b765.65
Operating System: Linux
Default Encoding: UTF-8
Language: en
Country: US
--></g></svg>