<?xml version="1.0" encoding="UTF-8" standalone="no"?>
<!-- Created with Inkscape (http://www.inkscape.org/) -->

<svg
    xmlns:dc="http://purl.org/dc/elements/1.1/"
    xmlns:cc="http://creativecommons.org/ns#"
    xmlns:rdf="http://www.w3.org/1999/02/22-rdf-syntax-ns#"
    xmlns="http://www.w3.org/2000/svg"
    xmlns:sodipodi="http://sodipodi.sourceforge.net/DTD/sodipodi-0.dtd"
    xmlns:inkscape="http://www.inkscape.org/namespaces/inkscape"
    id="svg2"
    sodipodi:version="0.32"
    inkscape:version="0.91 r13725"
    width="156"
    height="156"
    sodipodi:docname="partiallySolvedNQueens04Explained.svg"
    inkscape:output_extension="org.inkscape.output.svg.inkscape"
    inkscape:export-filename="partiallySolvedNQueens04Explained.png"
    inkscape:export-xdpi="90"
    inkscape:export-ydpi="90"
    version="1.0">
  <metadata
     id="metadata7">
    <rdf:RDF>
      <cc:Work
         rdf:about="">
        <dc:format>image/svg+xml</dc:format>
        <dc:type
           rdf:resource="http://purl.org/dc/dcmitype/StillImage" />
        <dc:creator>
          <cc:Agent>
            <dc:title>www.optaplanner.org</dc:title>
          </cc:Agent>
        </dc:creator>
        <dc:title />
        <dc:rights>
          <cc:Agent>
            <dc:title>www.optaplanner.org</dc:title>
          </cc:Agent>
        </dc:rights>
        <dc:language>en</dc:language>
        <cc:license
           rdf:resource="https://www.optaplanner.org/code/license.html" />
      </cc:Work>
    </rdf:RDF>
  </metadata>
  <defs
     id="defs5">
    <inkscape:perspective
       sodipodi:type="inkscape:persp3d"
       inkscape:vp_x="0 : 526.18109 : 1"
       inkscape:vp_y="0 : 1000 : 0"
       inkscape:vp_z="744.09448 : 526.18109 : 1"
       inkscape:persp3d-origin="372.04724 : 350.78739 : 1"
       id="perspective4852" />
  </defs>
  <sodipodi:namedview
     inkscape:window-height="704"
     inkscape:window-width="1366"
     inkscape:pageshadow="2"
     inkscape:pageopacity="1"
     guidetolerance="10.0"
     gridtolerance="10.0"
     objecttolerance="10.0"
     borderopacity="1.0"
     bordercolor="#666666"
     pagecolor="#ffffff"
     id="base"
     inkscape:zoom="3.1282051"
     inkscape:cx="78"
     inkscape:cy="78"
     inkscape:window-x="0"
     inkscape:window-y="27"
     inkscape:current-layer="svg2"
     inkscape:grid-points="true"
     inkscape:object-nodes="true"
     inkscape:guide-points="true"
     inkscape:object-points="true"
     inkscape:object-bbox="true"
     showgrid="true"
     inkscape:window-maximized="1" />
  <g
     id="g8089"
     transform="translate(-79.5,-811.86218)">
    <rect
       y="921.86218"
       x="100.5"
       height="30"
       width="30"
       id="rect2165"
       style="fill:#babdb6;fill-opacity:1;fill-rule:nonzero;stroke:#000000;stroke-width:1;stroke-linecap:round;stroke-linejoin:round;stroke-miterlimit:4;stroke-dasharray:none;stroke-opacity:1" />
    <rect
       y="921.86218"
       x="130.5"
       height="30"
       width="30"
       id="rect4107"
       style="fill:#ffffff;fill-opacity:1;fill-rule:nonzero;stroke:#000000;stroke-width:1;stroke-linecap:round;stroke-linejoin:round;stroke-miterlimit:4;stroke-dasharray:none;stroke-opacity:1" />
    <rect
       y="921.86218"
       x="160.5"
       height="30"
       width="30"
       id="rect5078"
       style="fill:#babdb6;fill-opacity:1;fill-rule:nonzero;stroke:#000000;stroke-width:1;stroke-linecap:round;stroke-linejoin:round;stroke-miterlimit:4;stroke-dasharray:none;stroke-opacity:1" />
    <rect
       y="921.86218"
       x="190.5"
       height="30"
       width="30"
       id="rect5080"
       style="fill:#ffffff;fill-opacity:1;fill-rule:nonzero;stroke:#000000;stroke-width:1;stroke-linecap:round;stroke-linejoin:round;stroke-miterlimit:4;stroke-dasharray:none;stroke-opacity:1" />
    <rect
       y="891.86218"
       x="130.5"
       height="30"
       width="30"
       id="rect5082"
       style="fill:#babdb6;fill-opacity:1;fill-rule:nonzero;stroke:#000000;stroke-width:1;stroke-linecap:round;stroke-linejoin:round;stroke-miterlimit:4;stroke-dasharray:none;stroke-opacity:1" />
    <rect
       y="891.86218"
       x="160.5"
       height="30"
       width="30"
       id="rect5084"
       style="fill:#ffffff;fill-opacity:1;fill-rule:nonzero;stroke:#000000;stroke-width:1;stroke-linecap:round;stroke-linejoin:round;stroke-miterlimit:4;stroke-dasharray:none;stroke-opacity:1" />
    <rect
       y="891.86218"
       x="100.5"
       height="30"
       width="30"
       id="rect5086"
       style="fill:#ffffff;fill-opacity:1;fill-rule:nonzero;stroke:#000000;stroke-width:1;stroke-linecap:round;stroke-linejoin:round;stroke-miterlimit:4;stroke-dasharray:none;stroke-opacity:1" />
    <rect
       y="891.86218"
       x="190.5"
       height="30"
       width="30"
       id="rect5088"
       style="fill:#babdb6;fill-opacity:1;fill-rule:nonzero;stroke:#000000;stroke-width:1;stroke-linecap:round;stroke-linejoin:round;stroke-miterlimit:4;stroke-dasharray:none;stroke-opacity:1" />
    <rect
       y="861.86218"
       x="100.5"
       height="30"
       width="30"
       id="rect5090"
       style="fill:#babdb6;fill-opacity:1;fill-rule:nonzero;stroke:#000000;stroke-width:1;stroke-linecap:round;stroke-linejoin:round;stroke-miterlimit:4;stroke-dasharray:none;stroke-opacity:1" />
    <rect
       y="861.86218"
       x="130.5"
       height="30"
       width="30"
       id="rect5092"
       style="fill:#ffffff;fill-opacity:1;fill-rule:nonzero;stroke:#000000;stroke-width:1;stroke-linecap:round;stroke-linejoin:round;stroke-miterlimit:4;stroke-dasharray:none;stroke-opacity:1" />
    <rect
       y="861.86218"
       x="160.5"
       height="30"
       width="30"
       id="rect5094"
       style="fill:#babdb6;fill-opacity:1;fill-rule:nonzero;stroke:#000000;stroke-width:1;stroke-linecap:round;stroke-linejoin:round;stroke-miterlimit:4;stroke-dasharray:none;stroke-opacity:1" />
    <rect
       y="861.86218"
       x="190.5"
       height="30"
       width="30"
       id="rect5096"
       style="fill:#ffffff;fill-opacity:1;fill-rule:nonzero;stroke:#000000;stroke-width:1;stroke-linecap:round;stroke-linejoin:round;stroke-miterlimit:4;stroke-dasharray:none;stroke-opacity:1" />
    <rect
       y="831.86218"
       x="130.5"
       height="30"
       width="30"
       id="rect5098"
       style="fill:#babdb6;fill-opacity:1;fill-rule:nonzero;stroke:#000000;stroke-width:1;stroke-linecap:round;stroke-linejoin:round;stroke-miterlimit:4;stroke-dasharray:none;stroke-opacity:1" />
    <rect
       y="831.86218"
       x="160.5"
       height="30"
       width="30"
       id="rect5100"
       style="fill:#ffffff;fill-opacity:1;fill-rule:nonzero;stroke:#000000;stroke-width:1;stroke-linecap:round;stroke-linejoin:round;stroke-miterlimit:4;stroke-dasharray:none;stroke-opacity:1" />
    <rect
       y="831.86218"
       x="100.5"
       height="30"
       width="30"
       id="rect5102"
       style="fill:#ffffff;fill-opacity:1;fill-rule:nonzero;stroke:#000000;stroke-width:1;stroke-linecap:round;stroke-linejoin:round;stroke-miterlimit:4;stroke-dasharray:none;stroke-opacity:1" />
    <rect
       y="831.86218"
       x="190.5"
       height="30"
       width="30"
       id="rect5104"
       style="fill:#babdb6;fill-opacity:1;fill-rule:nonzero;stroke:#000000;stroke-width:1;stroke-linecap:round;stroke-linejoin:round;stroke-miterlimit:4;stroke-dasharray:none;stroke-opacity:1" />
  </g>
  <circle
     style="fill:#ef2929;fill-opacity:1;fill-rule:nonzero;stroke:#a40000;stroke-width:1;stroke-linecap:round;stroke-linejoin:round;stroke-miterlimit:4;stroke-dasharray:none;stroke-opacity:1"
     id="path5169"
     cx="36"
     cy="65"
     r="12" />
  <circle
     id="path3430"
     style="fill:#ef2929;fill-opacity:1;fill-rule:nonzero;stroke:#a40000;stroke-width:1;stroke-linecap:round;stroke-linejoin:round;stroke-miterlimit:4;stroke-dasharray:none;stroke-opacity:1"
     cx="126"
     cy="35.000019"
     r="12" />
  <g
     id="g2236"
     transform="translate(-79.5,-811.86218)">
    <path
       id="path2249"
       d="m 101.06653,847.36213 46.19398,0 72.59054,0 0,0"
       style="fill:none;fill-opacity:0.75;fill-rule:evenodd;stroke:#a40000;stroke-width:1px;stroke-linecap:round;stroke-linejoin:round;stroke-opacity:1"
       inkscape:connector-curvature="0" />
    <path
       id="path3221"
       d="m 145.00005,831.86632 0,46.66343 0,73.32823 0,0"
       style="fill:none;fill-opacity:0.75;fill-rule:evenodd;stroke:#a40000;stroke-width:1px;stroke-linecap:round;stroke-linejoin:round;stroke-opacity:1"
       inkscape:connector-curvature="0" />
    <path
       id="path3223"
       d="m 130.50005,832.86214 c 88.99999,88.99999 88.99999,88.99999 88.99999,88.99999"
       style="fill:none;fill-opacity:0.75;fill-rule:evenodd;stroke:#a40000;stroke-width:0.99999994px;stroke-linecap:round;stroke-linejoin:round;stroke-opacity:1"
       inkscape:connector-curvature="0" />
    <path
       id="path4198"
       d="M 100.5,891.86218 C 159.5,832.86218 159.5,832.86218 159.5,832.86218 L 159.5,832.86218"
       style="fill:none;fill-opacity:0.75000000000000000;fill-rule:evenodd;stroke:#a40000;stroke-width:1px;stroke-linecap:round;stroke-linejoin:round;stroke-opacity:1" />
  </g>
  <g
     id="g8107"
     transform="translate(-29.5,-821.86218)">
    <rect
       y="871.86218"
       x="50.5"
       height="30"
       width="30"
       id="rect8109"
       style="fill:none;fill-opacity:1;fill-rule:nonzero;stroke:#000000;stroke-width:1;stroke-linecap:round;stroke-linejoin:round;stroke-miterlimit:4;stroke-dasharray:none;stroke-opacity:1" />
    <path
       sodipodi:nodetypes="ccccc"
       id="path8111"
       d="M 65,894.0583 L 60.259168,881.36218 L 60,894.31116 L 62.432525,894.86218 L 65,894.0583 z"
       style="fill:#fce94f;fill-opacity:1;fill-rule:nonzero;stroke:#000000;stroke-width:0.99999994000000003;stroke-linecap:round;stroke-linejoin:round;stroke-miterlimit:4;stroke-opacity:1" />
    <path
       sodipodi:nodetypes="ccccc"
       id="path8113"
       d="M 66,894.0583 L 70.740832,881.36218 L 71,894.31116 L 68.567475,894.86218 L 66,894.0583 z"
       style="fill:#fce94f;fill-opacity:1;fill-rule:nonzero;stroke:#000000;stroke-width:0.99999994000000003;stroke-linecap:round;stroke-linejoin:round;stroke-miterlimit:4;stroke-opacity:1" />
    <path
       sodipodi:nodetypes="ccccc"
       id="path8115"
       d="M 62,894.04086 L 55,882.86218 L 56.843843,894.29921 L 59.352339,894.86218 L 62,894.04086 z"
       style="fill:#fce94f;fill-opacity:1;fill-rule:nonzero;stroke:#000000;stroke-width:0.99999994000000003;stroke-linecap:round;stroke-linejoin:round;stroke-miterlimit:4;stroke-opacity:1" />
    <path
       sodipodi:nodetypes="ccccc"
       id="path8117"
       d="M 69,894.04086 L 76,882.86218 L 74.156157,894.29921 L 71.647661,894.86218 L 69,894.04086 z"
       style="fill:#fce94f;fill-opacity:1;fill-rule:nonzero;stroke:#000000;stroke-width:0.99999994000000003;stroke-linecap:round;stroke-linejoin:round;stroke-miterlimit:4;stroke-opacity:1" />
    <path
       transform="matrix(0.3254386,0,0,0.2248485,49.68421,684.2765)"
       d="m 37.843667,874.30286 a 6.1455526,8.8948793 0 0 1 -6.145553,8.89488 6.1455526,8.8948793 0 0 1 -6.145552,-8.89488 6.1455526,8.8948793 0 0 1 6.145552,-8.89488 6.1455526,8.8948793 0 0 1 6.145553,8.89488 z"
       sodipodi:ry="8.8948793"
       sodipodi:rx="6.1455526"
       sodipodi:cy="874.30286"
       sodipodi:cx="31.698114"
       id="path8119"
       style="fill:#fce94f;fill-opacity:1;fill-rule:nonzero;stroke:#000000;stroke-width:3.69675325999999993;stroke-linecap:round;stroke-linejoin:round;stroke-miterlimit:4;stroke-dasharray:none;stroke-opacity:1"
       sodipodi:type="arc" />
    <path
       transform="matrix(0.3254386,0,0,0.2248485,60.68421,684.2765)"
       d="m 37.843667,874.30286 a 6.1455526,8.8948793 0 0 1 -6.145553,8.89488 6.1455526,8.8948793 0 0 1 -6.145552,-8.89488 6.1455526,8.8948793 0 0 1 6.145552,-8.89488 6.1455526,8.8948793 0 0 1 6.145553,8.89488 z"
       sodipodi:ry="8.8948793"
       sodipodi:rx="6.1455526"
       sodipodi:cy="874.30286"
       sodipodi:cx="31.698114"
       id="path8121"
       style="fill:#fce94f;fill-opacity:1;fill-rule:nonzero;stroke:#000000;stroke-width:3.69675325999999993;stroke-linecap:round;stroke-linejoin:round;stroke-miterlimit:4;stroke-dasharray:none;stroke-opacity:1"
       sodipodi:type="arc" />
    <path
       transform="matrix(0.3254386,0,0,0.2248485,44.18421,686.2765)"
       d="m 37.843667,874.30286 a 6.1455526,8.8948793 0 0 1 -6.145553,8.89488 6.1455526,8.8948793 0 0 1 -6.145552,-8.89488 6.1455526,8.8948793 0 0 1 6.145552,-8.89488 6.1455526,8.8948793 0 0 1 6.145553,8.89488 z"
       sodipodi:ry="8.8948793"
       sodipodi:rx="6.1455526"
       sodipodi:cy="874.30286"
       sodipodi:cx="31.698114"
       id="path8123"
       style="fill:#fce94f;fill-opacity:1;fill-rule:nonzero;stroke:#000000;stroke-width:3.69675325999999993;stroke-linecap:round;stroke-linejoin:round;stroke-miterlimit:4;stroke-dasharray:none;stroke-opacity:1"
       sodipodi:type="arc" />
    <path
       transform="matrix(0.3254386,0,0,0.2248485,66.18421,686.2765)"
       d="m 37.843667,874.30286 a 6.1455526,8.8948793 0 0 1 -6.145553,8.89488 6.1455526,8.8948793 0 0 1 -6.145552,-8.89488 6.1455526,8.8948793 0 0 1 6.145552,-8.89488 6.1455526,8.8948793 0 0 1 6.145553,8.89488 z"
       sodipodi:ry="8.8948793"
       sodipodi:rx="6.1455526"
       sodipodi:cy="874.30286"
       sodipodi:cx="31.698114"
       id="path8125"
       style="fill:#fce94f;fill-opacity:1;fill-rule:nonzero;stroke:#000000;stroke-width:3.69675325999999993;stroke-linecap:round;stroke-linejoin:round;stroke-miterlimit:4;stroke-dasharray:none;stroke-opacity:1"
       sodipodi:type="arc" />
    <path
       sodipodi:nodetypes="ccccc"
       id="path8127"
       d="M 68.000002,894.0957 L 65.506898,880.86221 L 63.000002,893.8597 L 65.368588,894.86221 L 68.000002,894.0957 z"
       style="fill:#fce94f;fill-opacity:1;fill-rule:nonzero;stroke:#000000;stroke-width:1;stroke-linecap:round;stroke-linejoin:round;stroke-miterlimit:4;stroke-opacity:1" />
    <path
       transform="matrix(0.3254386,0,0,0.2248485,55.18421,683.2765)"
       d="m 37.843667,874.30286 a 6.1455526,8.8948793 0 0 1 -6.145553,8.89488 6.1455526,8.8948793 0 0 1 -6.145552,-8.89488 6.1455526,8.8948793 0 0 1 6.145552,-8.89488 6.1455526,8.8948793 0 0 1 6.145553,8.89488 z"
       sodipodi:ry="8.8948793"
       sodipodi:rx="6.1455526"
       sodipodi:cy="874.30286"
       sodipodi:cx="31.698114"
       id="path8129"
       style="fill:#fce94f;fill-opacity:1;fill-rule:nonzero;stroke:#000000;stroke-width:3.69675325999999993;stroke-linecap:round;stroke-linejoin:round;stroke-miterlimit:4;stroke-dasharray:none;stroke-opacity:1"
       sodipodi:type="arc" />
    <path
       transform="matrix(0.9454765,0,0,1.2119233,18.553015,-205.05171)"
       d="m 59.702156,907.57715 a 10.047844,1.6502695 0 0 1 -10.047844,1.65027 10.047844,1.6502695 0 0 1 -10.047844,-1.65027 10.047844,1.6502695 0 0 1 10.047844,-1.65027 10.047844,1.6502695 0 0 1 10.047844,1.65027 z"
       sodipodi:ry="1.6502695"
       sodipodi:rx="10.047844"
       sodipodi:cy="907.57715"
       sodipodi:cx="49.654312"
       id="path8131"
       style="fill:#fce94f;fill-opacity:1;fill-rule:nonzero;stroke:#000000;stroke-width:0.93419403000000001;stroke-linecap:round;stroke-linejoin:round;stroke-miterlimit:4;stroke-dasharray:none;stroke-opacity:1"
       sodipodi:type="arc" />
  </g>
  <g
     id="g8133"
     transform="translate(60.5,-851.86218)">
    <rect
       y="871.86218"
       x="50.5"
       height="30"
       width="30"
       id="rect8135"
       style="fill:none;fill-opacity:1;fill-rule:nonzero;stroke:#000000;stroke-width:1;stroke-linecap:round;stroke-linejoin:round;stroke-miterlimit:4;stroke-dasharray:none;stroke-opacity:1" />
    <path
       sodipodi:nodetypes="ccccc"
       id="path8137"
       d="M 65,894.0583 L 60.259168,881.36218 L 60,894.31116 L 62.432525,894.86218 L 65,894.0583 z"
       style="fill:#fce94f;fill-opacity:1;fill-rule:nonzero;stroke:#000000;stroke-width:0.99999994000000003;stroke-linecap:round;stroke-linejoin:round;stroke-miterlimit:4;stroke-opacity:1" />
    <path
       sodipodi:nodetypes="ccccc"
       id="path8139"
       d="M 66,894.0583 L 70.740832,881.36218 L 71,894.31116 L 68.567475,894.86218 L 66,894.0583 z"
       style="fill:#fce94f;fill-opacity:1;fill-rule:nonzero;stroke:#000000;stroke-width:0.99999994000000003;stroke-linecap:round;stroke-linejoin:round;stroke-miterlimit:4;stroke-opacity:1" />
    <path
       sodipodi:nodetypes="ccccc"
       id="path8141"
       d="M 62,894.04086 L 55,882.86218 L 56.843843,894.29921 L 59.352339,894.86218 L 62,894.04086 z"
       style="fill:#fce94f;fill-opacity:1;fill-rule:nonzero;stroke:#000000;stroke-width:0.99999994000000003;stroke-linecap:round;stroke-linejoin:round;stroke-miterlimit:4;stroke-opacity:1" />
    <path
       sodipodi:nodetypes="ccccc"
       id="path8143"
       d="M 69,894.04086 L 76,882.86218 L 74.156157,894.29921 L 71.647661,894.86218 L 69,894.04086 z"
       style="fill:#fce94f;fill-opacity:1;fill-rule:nonzero;stroke:#000000;stroke-width:0.99999994000000003;stroke-linecap:round;stroke-linejoin:round;stroke-miterlimit:4;stroke-opacity:1" />
    <path
       transform="matrix(0.3254386,0,0,0.2248485,49.68421,684.2765)"
       d="m 37.843667,874.30286 a 6.1455526,8.8948793 0 0 1 -6.145553,8.89488 6.1455526,8.8948793 0 0 1 -6.145552,-8.89488 6.1455526,8.8948793 0 0 1 6.145552,-8.89488 6.1455526,8.8948793 0 0 1 6.145553,8.89488 z"
       sodipodi:ry="8.8948793"
       sodipodi:rx="6.1455526"
       sodipodi:cy="874.30286"
       sodipodi:cx="31.698114"
       id="path8145"
       style="fill:#fce94f;fill-opacity:1;fill-rule:nonzero;stroke:#000000;stroke-width:3.69675325999999993;stroke-linecap:round;stroke-linejoin:round;stroke-miterlimit:4;stroke-dasharray:none;stroke-opacity:1"
       sodipodi:type="arc" />
    <path
       transform="matrix(0.3254386,0,0,0.2248485,60.68421,684.2765)"
       d="m 37.843667,874.30286 a 6.1455526,8.8948793 0 0 1 -6.145553,8.89488 6.1455526,8.8948793 0 0 1 -6.145552,-8.89488 6.1455526,8.8948793 0 0 1 6.145552,-8.89488 6.1455526,8.8948793 0 0 1 6.145553,8.89488 z"
       sodipodi:ry="8.8948793"
       sodipodi:rx="6.1455526"
       sodipodi:cy="874.30286"
       sodipodi:cx="31.698114"
       id="path8147"
       style="fill:#fce94f;fill-opacity:1;fill-rule:nonzero;stroke:#000000;stroke-width:3.69675325999999993;stroke-linecap:round;stroke-linejoin:round;stroke-miterlimit:4;stroke-dasharray:none;stroke-opacity:1"
       sodipodi:type="arc" />
    <path
       transform="matrix(0.3254386,0,0,0.2248485,44.18421,686.2765)"
       d="m 37.843667,874.30286 a 6.1455526,8.8948793 0 0 1 -6.145553,8.89488 6.1455526,8.8948793 0 0 1 -6.145552,-8.89488 6.1455526,8.8948793 0 0 1 6.145552,-8.89488 6.1455526,8.8948793 0 0 1 6.145553,8.89488 z"
       sodipodi:ry="8.8948793"
       sodipodi:rx="6.1455526"
       sodipodi:cy="874.30286"
       sodipodi:cx="31.698114"
       id="path8149"
       style="fill:#fce94f;fill-opacity:1;fill-rule:nonzero;stroke:#000000;stroke-width:3.69675325999999993;stroke-linecap:round;stroke-linejoin:round;stroke-miterlimit:4;stroke-dasharray:none;stroke-opacity:1"
       sodipodi:type="arc" />
    <path
       transform="matrix(0.3254386,0,0,0.2248485,66.18421,686.2765)"
       d="m 37.843667,874.30286 a 6.1455526,8.8948793 0 0 1 -6.145553,8.89488 6.1455526,8.8948793 0 0 1 -6.145552,-8.89488 6.1455526,8.8948793 0 0 1 6.145552,-8.89488 6.1455526,8.8948793 0 0 1 6.145553,8.89488 z"
       sodipodi:ry="8.8948793"
       sodipodi:rx="6.1455526"
       sodipodi:cy="874.30286"
       sodipodi:cx="31.698114"
       id="path8151"
       style="fill:#fce94f;fill-opacity:1;fill-rule:nonzero;stroke:#000000;stroke-width:3.69675325999999993;stroke-linecap:round;stroke-linejoin:round;stroke-miterlimit:4;stroke-dasharray:none;stroke-opacity:1"
       sodipodi:type="arc" />
    <path
       sodipodi:nodetypes="ccccc"
       id="path8153"
       d="M 68.000002,894.0957 L 65.506898,880.86221 L 63.000002,893.8597 L 65.368588,894.86221 L 68.000002,894.0957 z"
       style="fill:#fce94f;fill-opacity:1;fill-rule:nonzero;stroke:#000000;stroke-width:1;stroke-linecap:round;stroke-linejoin:round;stroke-miterlimit:4;stroke-opacity:1" />
    <path
       transform="matrix(0.3254386,0,0,0.2248485,55.18421,683.2765)"
       d="m 37.843667,874.30286 a 6.1455526,8.8948793 0 0 1 -6.145553,8.89488 6.1455526,8.8948793 0 0 1 -6.145552,-8.89488 6.1455526,8.8948793 0 0 1 6.145552,-8.89488 6.1455526,8.8948793 0 0 1 6.145553,8.89488 z"
       sodipodi:ry="8.8948793"
       sodipodi:rx="6.1455526"
       sodipodi:cy="874.30286"
       sodipodi:cx="31.698114"
       id="path8155"
       style="fill:#fce94f;fill-opacity:1;fill-rule:nonzero;stroke:#000000;stroke-width:3.69675325999999993;stroke-linecap:round;stroke-linejoin:round;stroke-miterlimit:4;stroke-dasharray:none;stroke-opacity:1"
       sodipodi:type="arc" />
    <path
       transform="matrix(0.9454765,0,0,1.2119233,18.553015,-205.05171)"
       d="m 59.702156,907.57715 a 10.047844,1.6502695 0 0 1 -10.047844,1.65027 10.047844,1.6502695 0 0 1 -10.047844,-1.65027 10.047844,1.6502695 0 0 1 10.047844,-1.65027 10.047844,1.6502695 0 0 1 10.047844,1.65027 z"
       sodipodi:ry="1.6502695"
       sodipodi:rx="10.047844"
       sodipodi:cy="907.57715"
       sodipodi:cx="49.654312"
       id="path8157"
       style="fill:#fce94f;fill-opacity:1;fill-rule:nonzero;stroke:#000000;stroke-width:0.93419403000000001;stroke-linecap:round;stroke-linejoin:round;stroke-miterlimit:4;stroke-dasharray:none;stroke-opacity:1"
       sodipodi:type="arc" />
  </g>
  <g
     id="g8159"
     transform="translate(30.5,-791.86218)">
    <rect
       y="871.86218"
       x="50.5"
       height="30"
       width="30"
       id="rect8161"
       style="fill:none;fill-opacity:1;fill-rule:nonzero;stroke:#000000;stroke-width:1;stroke-linecap:round;stroke-linejoin:round;stroke-miterlimit:4;stroke-dasharray:none;stroke-opacity:1" />
    <path
       sodipodi:nodetypes="ccccc"
       id="path8163"
       d="M 65,894.0583 L 60.259168,881.36218 L 60,894.31116 L 62.432525,894.86218 L 65,894.0583 z"
       style="fill:#fce94f;fill-opacity:1;fill-rule:nonzero;stroke:#000000;stroke-width:0.99999994000000003;stroke-linecap:round;stroke-linejoin:round;stroke-miterlimit:4;stroke-opacity:1" />
    <path
       sodipodi:nodetypes="ccccc"
       id="path8165"
       d="M 66,894.0583 L 70.740832,881.36218 L 71,894.31116 L 68.567475,894.86218 L 66,894.0583 z"
       style="fill:#fce94f;fill-opacity:1;fill-rule:nonzero;stroke:#000000;stroke-width:0.99999994000000003;stroke-linecap:round;stroke-linejoin:round;stroke-miterlimit:4;stroke-opacity:1" />
    <path
       sodipodi:nodetypes="ccccc"
       id="path8167"
       d="M 62,894.04086 L 55,882.86218 L 56.843843,894.29921 L 59.352339,894.86218 L 62,894.04086 z"
       style="fill:#fce94f;fill-opacity:1;fill-rule:nonzero;stroke:#000000;stroke-width:0.99999994000000003;stroke-linecap:round;stroke-linejoin:round;stroke-miterlimit:4;stroke-opacity:1" />
    <path
       sodipodi:nodetypes="ccccc"
       id="path8169"
       d="M 69,894.04086 L 76,882.86218 L 74.156157,894.29921 L 71.647661,894.86218 L 69,894.04086 z"
       style="fill:#fce94f;fill-opacity:1;fill-rule:nonzero;stroke:#000000;stroke-width:0.99999994000000003;stroke-linecap:round;stroke-linejoin:round;stroke-miterlimit:4;stroke-opacity:1" />
    <path
       transform="matrix(0.3254386,0,0,0.2248485,49.68421,684.2765)"
       d="m 37.843667,874.30286 a 6.1455526,8.8948793 0 0 1 -6.145553,8.89488 6.1455526,8.8948793 0 0 1 -6.145552,-8.89488 6.1455526,8.8948793 0 0 1 6.145552,-8.89488 6.1455526,8.8948793 0 0 1 6.145553,8.89488 z"
       sodipodi:ry="8.8948793"
       sodipodi:rx="6.1455526"
       sodipodi:cy="874.30286"
       sodipodi:cx="31.698114"
       id="path8171"
       style="fill:#fce94f;fill-opacity:1;fill-rule:nonzero;stroke:#000000;stroke-width:3.69675325999999993;stroke-linecap:round;stroke-linejoin:round;stroke-miterlimit:4;stroke-dasharray:none;stroke-opacity:1"
       sodipodi:type="arc" />
    <path
       transform="matrix(0.3254386,0,0,0.2248485,60.68421,684.2765)"
       d="m 37.843667,874.30286 a 6.1455526,8.8948793 0 0 1 -6.145553,8.89488 6.1455526,8.8948793 0 0 1 -6.145552,-8.89488 6.1455526,8.8948793 0 0 1 6.145552,-8.89488 6.1455526,8.8948793 0 0 1 6.145553,8.89488 z"
       sodipodi:ry="8.8948793"
       sodipodi:rx="6.1455526"
       sodipodi:cy="874.30286"
       sodipodi:cx="31.698114"
       id="path8173"
       style="fill:#fce94f;fill-opacity:1;fill-rule:nonzero;stroke:#000000;stroke-width:3.69675325999999993;stroke-linecap:round;stroke-linejoin:round;stroke-miterlimit:4;stroke-dasharray:none;stroke-opacity:1"
       sodipodi:type="arc" />
    <path
       transform="matrix(0.3254386,0,0,0.2248485,44.18421,686.2765)"
       d="m 37.843667,874.30286 a 6.1455526,8.8948793 0 0 1 -6.145553,8.89488 6.1455526,8.8948793 0 0 1 -6.145552,-8.89488 6.1455526,8.8948793 0 0 1 6.145552,-8.89488 6.1455526,8.8948793 0 0 1 6.145553,8.89488 z"
       sodipodi:ry="8.8948793"
       sodipodi:rx="6.1455526"
       sodipodi:cy="874.30286"
       sodipodi:cx="31.698114"
       id="path8175"
       style="fill:#fce94f;fill-opacity:1;fill-rule:nonzero;stroke:#000000;stroke-width:3.69675325999999993;stroke-linecap:round;stroke-linejoin:round;stroke-miterlimit:4;stroke-dasharray:none;stroke-opacity:1"
       sodipodi:type="arc" />
    <path
       transform="matrix(0.3254386,0,0,0.2248485,66.18421,686.2765)"
       d="m 37.843667,874.30286 a 6.1455526,8.8948793 0 0 1 -6.145553,8.89488 6.1455526,8.8948793 0 0 1 -6.145552,-8.89488 6.1455526,8.8948793 0 0 1 6.145552,-8.89488 6.1455526,8.8948793 0 0 1 6.145553,8.89488 z"
       sodipodi:ry="8.8948793"
       sodipodi:rx="6.1455526"
       sodipodi:cy="874.30286"
       sodipodi:cx="31.698114"
       id="path8177"
       style="fill:#fce94f;fill-opacity:1;fill-rule:nonzero;stroke:#000000;stroke-width:3.69675325999999993;stroke-linecap:round;stroke-linejoin:round;stroke-miterlimit:4;stroke-dasharray:none;stroke-opacity:1"
       sodipodi:type="arc" />
    <path
       sodipodi:nodetypes="ccccc"
       id="path8179"
       d="M 68.000002,894.0957 L 65.506898,880.86221 L 63.000002,893.8597 L 65.368588,894.86221 L 68.000002,894.0957 z"
       style="fill:#fce94f;fill-opacity:1;fill-rule:nonzero;stroke:#000000;stroke-width:1;stroke-linecap:round;stroke-linejoin:round;stroke-miterlimit:4;stroke-opacity:1" />
    <path
       transform="matrix(0.3254386,0,0,0.2248485,55.18421,683.2765)"
       d="m 37.843667,874.30286 a 6.1455526,8.8948793 0 0 1 -6.145553,8.89488 6.1455526,8.8948793 0 0 1 -6.145552,-8.89488 6.1455526,8.8948793 0 0 1 6.145552,-8.89488 6.1455526,8.8948793 0 0 1 6.145553,8.89488 z"
       sodipodi:ry="8.8948793"
       sodipodi:rx="6.1455526"
       sodipodi:cy="874.30286"
       sodipodi:cx="31.698114"
       id="path8181"
       style="fill:#fce94f;fill-opacity:1;fill-rule:nonzero;stroke:#000000;stroke-width:3.69675325999999993;stroke-linecap:round;stroke-linejoin:round;stroke-miterlimit:4;stroke-dasharray:none;stroke-opacity:1"
       sodipodi:type="arc" />
    <path
       transform="matrix(0.9454765,0,0,1.2119233,18.553015,-205.05171)"
       d="m 59.702156,907.57715 a 10.047844,1.6502695 0 0 1 -10.047844,1.65027 10.047844,1.6502695 0 0 1 -10.047844,-1.65027 10.047844,1.6502695 0 0 1 10.047844,-1.65027 10.047844,1.6502695 0 0 1 10.047844,1.65027 z"
       sodipodi:ry="1.6502695"
       sodipodi:rx="10.047844"
       sodipodi:cy="907.57715"
       sodipodi:cx="49.654312"
       id="path8183"
       style="fill:#fce94f;fill-opacity:1;fill-rule:nonzero;stroke:#000000;stroke-width:0.93419403000000001;stroke-linecap:round;stroke-linejoin:round;stroke-miterlimit:4;stroke-dasharray:none;stroke-opacity:1"
       sodipodi:type="arc" />
  </g>
  <g
     id="g8075"
     transform="translate(0.5,-851.86218)">
    <rect
       y="871.86218"
       x="50.5"
       height="30"
       width="30"
       id="rect5126"
       style="fill:none;fill-opacity:1;fill-rule:nonzero;stroke:#000000;stroke-width:1;stroke-linecap:round;stroke-linejoin:round;stroke-miterlimit:4;stroke-dasharray:none;stroke-opacity:1" />
    <path
       sodipodi:nodetypes="ccccc"
       id="path8065"
       d="M 65,894.0583 L 60.259168,881.36218 L 60,894.31116 L 62.432525,894.86218 L 65,894.0583 z"
       style="fill:#fce94f;fill-opacity:1;fill-rule:nonzero;stroke:#000000;stroke-width:0.99999994000000003;stroke-linecap:round;stroke-linejoin:round;stroke-miterlimit:4;stroke-opacity:1" />
    <path
       sodipodi:nodetypes="ccccc"
       id="path8069"
       d="M 66,894.0583 L 70.740832,881.36218 L 71,894.31116 L 68.567475,894.86218 L 66,894.0583 z"
       style="fill:#fce94f;fill-opacity:1;fill-rule:nonzero;stroke:#000000;stroke-width:0.99999994000000003;stroke-linecap:round;stroke-linejoin:round;stroke-miterlimit:4;stroke-opacity:1" />
    <path
       sodipodi:nodetypes="ccccc"
       id="path8071"
       d="M 62,894.04086 L 55,882.86218 L 56.843843,894.29921 L 59.352339,894.86218 L 62,894.04086 z"
       style="fill:#fce94f;fill-opacity:1;fill-rule:nonzero;stroke:#000000;stroke-width:0.99999994000000003;stroke-linecap:round;stroke-linejoin:round;stroke-miterlimit:4;stroke-opacity:1" />
    <path
       sodipodi:nodetypes="ccccc"
       id="path8073"
       d="M 69,894.04086 L 76,882.86218 L 74.156157,894.29921 L 71.647661,894.86218 L 69,894.04086 z"
       style="fill:#fce94f;fill-opacity:1;fill-rule:nonzero;stroke:#000000;stroke-width:0.99999994000000003;stroke-linecap:round;stroke-linejoin:round;stroke-miterlimit:4;stroke-opacity:1" />
    <path
       transform="matrix(0.3254386,0,0,0.2248485,49.68421,684.2765)"
       d="m 37.843667,874.30286 a 6.1455526,8.8948793 0 0 1 -6.145553,8.89488 6.1455526,8.8948793 0 0 1 -6.145552,-8.89488 6.1455526,8.8948793 0 0 1 6.145552,-8.89488 6.1455526,8.8948793 0 0 1 6.145553,8.89488 z"
       sodipodi:ry="8.8948793"
       sodipodi:rx="6.1455526"
       sodipodi:cy="874.30286"
       sodipodi:cx="31.698114"
       id="path8037"
       style="fill:#fce94f;fill-opacity:1;fill-rule:nonzero;stroke:#000000;stroke-width:3.69675325999999993;stroke-linecap:round;stroke-linejoin:round;stroke-miterlimit:4;stroke-dasharray:none;stroke-opacity:1"
       sodipodi:type="arc" />
    <path
       transform="matrix(0.3254386,0,0,0.2248485,60.68421,684.2765)"
       d="m 37.843667,874.30286 a 6.1455526,8.8948793 0 0 1 -6.145553,8.89488 6.1455526,8.8948793 0 0 1 -6.145552,-8.89488 6.1455526,8.8948793 0 0 1 6.145552,-8.89488 6.1455526,8.8948793 0 0 1 6.145553,8.89488 z"
       sodipodi:ry="8.8948793"
       sodipodi:rx="6.1455526"
       sodipodi:cy="874.30286"
       sodipodi:cx="31.698114"
       id="path8039"
       style="fill:#fce94f;fill-opacity:1;fill-rule:nonzero;stroke:#000000;stroke-width:3.69675325999999993;stroke-linecap:round;stroke-linejoin:round;stroke-miterlimit:4;stroke-dasharray:none;stroke-opacity:1"
       sodipodi:type="arc" />
    <path
       transform="matrix(0.3254386,0,0,0.2248485,44.18421,686.2765)"
       d="m 37.843667,874.30286 a 6.1455526,8.8948793 0 0 1 -6.145553,8.89488 6.1455526,8.8948793 0 0 1 -6.145552,-8.89488 6.1455526,8.8948793 0 0 1 6.145552,-8.89488 6.1455526,8.8948793 0 0 1 6.145553,8.89488 z"
       sodipodi:ry="8.8948793"
       sodipodi:rx="6.1455526"
       sodipodi:cy="874.30286"
       sodipodi:cx="31.698114"
       id="path8041"
       style="fill:#fce94f;fill-opacity:1;fill-rule:nonzero;stroke:#000000;stroke-width:3.69675325999999993;stroke-linecap:round;stroke-linejoin:round;stroke-miterlimit:4;stroke-dasharray:none;stroke-opacity:1"
       sodipodi:type="arc" />
    <path
       transform="matrix(0.3254386,0,0,0.2248485,66.18421,686.2765)"
       d="m 37.843667,874.30286 a 6.1455526,8.8948793 0 0 1 -6.145553,8.89488 6.1455526,8.8948793 0 0 1 -6.145552,-8.89488 6.1455526,8.8948793 0 0 1 6.145552,-8.89488 6.1455526,8.8948793 0 0 1 6.145553,8.89488 z"
       sodipodi:ry="8.8948793"
       sodipodi:rx="6.1455526"
       sodipodi:cy="874.30286"
       sodipodi:cx="31.698114"
       id="path8043"
       style="fill:#fce94f;fill-opacity:1;fill-rule:nonzero;stroke:#000000;stroke-width:3.69675325999999993;stroke-linecap:round;stroke-linejoin:round;stroke-miterlimit:4;stroke-dasharray:none;stroke-opacity:1"
       sodipodi:type="arc" />
    <path
       sodipodi:nodetypes="ccccc"
       id="path8061"
       d="M 68.000002,894.0957 L 65.506898,880.86221 L 63.000002,893.8597 L 65.368588,894.86221 L 68.000002,894.0957 z"
       style="fill:#fce94f;fill-opacity:1;fill-rule:nonzero;stroke:#000000;stroke-width:1;stroke-linecap:round;stroke-linejoin:round;stroke-miterlimit:4;stroke-opacity:1" />
    <path
       transform="matrix(0.3254386,0,0,0.2248485,55.18421,683.2765)"
       d="m 37.843667,874.30286 a 6.1455526,8.8948793 0 0 1 -6.145553,8.89488 6.1455526,8.8948793 0 0 1 -6.145552,-8.89488 6.1455526,8.8948793 0 0 1 6.145552,-8.89488 6.1455526,8.8948793 0 0 1 6.145553,8.89488 z"
       sodipodi:ry="8.8948793"
       sodipodi:rx="6.1455526"
       sodipodi:cy="874.30286"
       sodipodi:cx="31.698114"
       id="path5124"
       style="fill:#fce94f;fill-opacity:1;fill-rule:nonzero;stroke:#000000;stroke-width:3.69675325999999993;stroke-linecap:round;stroke-linejoin:round;stroke-miterlimit:4;stroke-dasharray:none;stroke-opacity:1"
       sodipodi:type="arc" />
    <path
       transform="matrix(0.9454765,0,0,1.2119233,18.553015,-205.05171)"
       d="m 59.702156,907.57715 a 10.047844,1.6502695 0 0 1 -10.047844,1.65027 10.047844,1.6502695 0 0 1 -10.047844,-1.65027 10.047844,1.6502695 0 0 1 10.047844,-1.65027 10.047844,1.6502695 0 0 1 10.047844,1.65027 z"
       sodipodi:ry="1.6502695"
       sodipodi:rx="10.047844"
       sodipodi:cy="907.57715"
       sodipodi:cx="49.654312"
       id="path5128"
       style="fill:#fce94f;fill-opacity:1;fill-rule:nonzero;stroke:#000000;stroke-width:0.93419403000000001;stroke-linecap:round;stroke-linejoin:round;stroke-miterlimit:4;stroke-dasharray:none;stroke-opacity:1"
       sodipodi:type="arc" />
  </g>
  <g
     id="g3220"
     transform="translate(-79.5,-811.86218)" />
  <g
     id="g3277"
     transform="translate(-79.5,-811.86218)">
    <path
       transform="scale(1.0397801,0.9617418)"
       style="font-size:14.26302528px;font-style:normal;font-weight:normal;opacity:0.09090899;fill:#000000;fill-opacity:1;stroke:none;stroke-width:1px;stroke-linecap:butt;stroke-linejoin:miter;stroke-opacity:1;font-family:Bitstream Vera Sans"
       d=""
       id="text3304" />
    <path
       style="font-size:14.26302528px;font-style:normal;font-weight:normal;opacity:0.09090899;fill:#000000;fill-opacity:1;stroke:none;stroke-width:1px;stroke-linecap:butt;stroke-linejoin:miter;stroke-opacity:1;font-family:Bitstream Vera Sans"
       d=""
       id="text3324"
       transform="scale(1.0397801,0.9617418)" />
  </g>
  <g
     id="g5308"
     transform="translate(-79.5,-811.86218)">
    <text
       transform="scale(1.0446886,0.9572231)"
       id="text2242"
       y="864.33582"
       x="105.18259"
       style="font-size:14.33035374px;font-style:normal;font-weight:normal;fill:#000000;fill-opacity:1;stroke:none;stroke-width:1px;stroke-linecap:butt;stroke-linejoin:miter;stroke-opacity:1;font-family:Bitstream Vera Sans"
       xml:space="preserve"><tspan
         y="864.33582"
         x="105.18259"
         id="tspan2244"
         sodipodi:role="line">A</tspan></text>
    <text
       transform="scale(1.1873587,0.8422055)"
       id="text3336"
       y="982.37567"
       x="116.31025"
       style="font-size:16.28741074px;font-style:normal;font-weight:normal;fill:#000000;fill-opacity:1;stroke:none;stroke-width:1px;stroke-linecap:butt;stroke-linejoin:miter;stroke-opacity:1;font-family:Bitstream Vera Sans"
       xml:space="preserve"><tspan
         id="tspan3340"
         y="982.37567"
         x="116.31025"
         sodipodi:role="line">B</tspan></text>
    <text
       transform="scale(1.1342596,0.8816324)"
       id="text3344"
       y="938.23114"
       x="149.03542"
       style="font-size:14.99653721px;font-style:normal;font-weight:normal;fill:#000000;fill-opacity:1;stroke:none;stroke-width:1px;stroke-linecap:butt;stroke-linejoin:miter;stroke-opacity:1;font-family:Bitstream Vera Sans"
       xml:space="preserve"><tspan
         y="938.23114"
         x="149.03542"
         id="tspan3346"
         sodipodi:role="line">C</tspan></text>
    <text
       transform="scale(1.0907069,0.9168366)"
       id="text3348"
       y="902.40961"
       x="181.89893"
       style="font-size:14.96160507px;font-style:normal;font-weight:normal;fill:#000000;fill-opacity:1;stroke:none;stroke-width:1px;stroke-linecap:butt;stroke-linejoin:miter;stroke-opacity:1;font-family:Bitstream Vera Sans"
       xml:space="preserve"><tspan
         y="902.40961"
         x="181.89893"
         id="tspan3350"
         sodipodi:role="line">D</tspan></text>
    <g
       transform="translate(0.4999876,-0.5000605)"
       id="g4074">
      <text
         xml:space="preserve"
         style="font-size:16.19810677px;font-style:normal;font-weight:normal;fill:#000000;fill-opacity:1;stroke:none;stroke-width:1px;stroke-linecap:butt;stroke-linejoin:miter;stroke-opacity:1;font-family:Bitstream Vera Sans"
         x="67.903915"
         y="1044.647"
         id="text3352"
         transform="scale(1.2251409,0.8162327)"><tspan
           sodipodi:role="line"
           id="tspan3354"
           x="67.903915"
           y="1044.647">0</tspan></text>
      <text
         xml:space="preserve"
         style="font-size:17.77658844px;font-style:normal;font-weight:normal;fill:#000000;fill-opacity:1;stroke:none;stroke-width:1px;stroke-linecap:butt;stroke-linejoin:miter;stroke-opacity:1;font-family:Bitstream Vera Sans"
         x="63.251419"
         y="1144.1229"
         id="text3356"
         transform="scale(1.2959246,0.7716499)"><tspan
           sodipodi:role="line"
           id="tspan3358"
           x="63.251419"
           y="1144.1229">1</tspan></text>
      <text
         xml:space="preserve"
         style="font-size:17.06092262px;font-style:normal;font-weight:normal;fill:#000000;fill-opacity:1;stroke:none;stroke-width:1px;stroke-linecap:butt;stroke-linejoin:miter;stroke-opacity:1;font-family:Bitstream Vera Sans"
         x="65.482925"
         y="1155.9114"
         id="text3360"
         transform="scale(1.2662496,0.7897337)"><tspan
           sodipodi:role="line"
           id="tspan3362"
           x="65.482925"
           y="1155.9114">2</tspan></text>
      <text
         xml:space="preserve"
         style="font-size:16.76036072px;font-style:normal;font-weight:normal;fill:#000000;fill-opacity:1;stroke:none;stroke-width:1px;stroke-linecap:butt;stroke-linejoin:miter;stroke-opacity:1;font-family:Bitstream Vera Sans"
         x="66.700623"
         y="1172.045"
         id="text3364"
         transform="scale(1.2430621,0.804465)"><tspan
           sodipodi:role="line"
           id="tspan3366"
           x="66.700623"
           y="1172.045">3</tspan></text>
    </g>
  </g>
</svg>
