<!--
  Licensed to the Apache Software Foundation (ASF) under one
  or more contributor license agreements.  See the NOTICE file
  distributed with this work for additional information
  regarding copyright ownership.  The ASF licenses this file
  to you under the Apache License, Version 2.0 (the
  "License"); you may not use this file except in compliance
  with the License.  You may obtain a copy of the License at

    http://www.apache.org/licenses/LICENSE-2.0

  Unless required by applicable law or agreed to in writing,
  software distributed under the License is distributed on an
  "AS IS" BASIS, WITHOUT WARRANTIES OR CONDITIONS OF ANY
  KIND, either express or implied.  See the License for the
  specific language governing permissions and limitations
  under the License.
  -->

<svg width="694px" height="233px"
 viewBox="0.00 0.00 694.05 233.00" xmlns="http://www.w3.org/2000/svg" xmlns:xlink="http://www.w3.org/1999/xlink">
<g id="graph0" class="graph" transform="scale(1.0 1.0) rotate(0) translate(4 229)">
<title>example&#45;impacting&#45;sub&#45;graph</title>
<polygon fill="#ffffff" stroke="transparent" points="-4,4 -4,-229 690.0519,-229 690.0519,4 -4,4"/>
<!-- CustomerCheck_12 -->
<g id="node1" class="node">
<title>CustomerCheck_12</title>
<ellipse fill="#add8e6" stroke="#add8e6" cx="102.6909" cy="-207" rx="102.8821" ry="18"/>
<text text-anchor="middle" x="102.6909" y="-203.3" font-family="Times,serif" font-size="14.00" fill="#000000">CustomerCheck_12</text>
</g>
<!-- PriceCheck_11 -->
<g id="node2" class="node">
<title>PriceCheck_11</title>
<ellipse fill="#add8e6" stroke="#add8e6" cx="358.6246" cy="-126" rx="81.4863" ry="18"/>
<text text-anchor="middle" x="358.6246" y="-122.3" font-family="Times,serif" font-size="14.00" fill="#000000">PriceCheck_11</text>
</g>
<!-- CustomerCheck_12&#45;&gt;PriceCheck_11 -->
<g id="edge1" class="edge">
<title>CustomerCheck_12&#45;&gt;PriceCheck_11</title>
<path fill="none" stroke="#000000" stroke-dasharray="5,2" d="M162.1146,-192.2578C176.3519,-188.4829 191.4604,-184.2751 205.3818,-180 239.7836,-169.4355 277.9555,-155.9895 307.5961,-145.1578"/>
<polygon fill="#000000" stroke="#000000" points="309.123,-148.3256 317.3032,-141.5926 306.7096,-141.7548 309.123,-148.3256"/>
</g>
<!-- StatusCheck_11 -->
<g id="node6" class="node">
<title>StatusCheck_11</title>
<ellipse fill="#ffa500" stroke="#ffa500" cx="598.9596" cy="-99" rx="87.1846" ry="18"/>
<text text-anchor="middle" x="598.9596" y="-95.3" font-family="Times,serif" font-size="14.00" fill="#000000">StatusCheck_11</text>
</g>
<!-- PriceCheck_11&#45;&gt;StatusCheck_11 -->
<g id="edge2" class="edge">
<title>PriceCheck_11&#45;&gt;StatusCheck_11</title>
<path fill="none" stroke="#000000" d="M417.4171,-113.498C443.1493,-109.823 474.0139,-106.1121 502.9331,-103.1605"/>
<polygon fill="#000000" stroke="#000000" points="503.4661,-106.6248 513.0693,-102.1494 502.7713,-99.6593 503.4661,-106.6248"/>
</g>
<!-- CustomerCheck_11 -->
<g id="node3" class="node">
<title>CustomerCheck_11</title>
<ellipse fill="#add8e6" stroke="#add8e6" cx="102.6909" cy="-153" rx="102.8821" ry="18"/>
<text text-anchor="middle" x="102.6909" y="-149.3" font-family="Times,serif" font-size="14.00" fill="#000000">CustomerCheck_11</text>
</g>
<!-- CustomerCheck_11&#45;&gt;PriceCheck_11 -->
<g id="edge3" class="edge">
<title>CustomerCheck_11&#45;&gt;PriceCheck_11</title>
<path fill="none" stroke="#000000" stroke-dasharray="5,2" d="M190.7687,-143.7081C218.0785,-140.8271 248.0814,-137.6619 275.0742,-134.8142"/>
<polygon fill="#000000" stroke="#000000" points="275.6826,-138.2696 285.2601,-133.7397 274.9481,-131.3082 275.6826,-138.2696"/>
</g>
<!-- CustomerCheck_14 -->
<g id="node4" class="node">
<title>CustomerCheck_14</title>
<ellipse fill="#add8e6" stroke="#add8e6" cx="102.6909" cy="-99" rx="102.8821" ry="18"/>
<text text-anchor="middle" x="102.6909" y="-95.3" font-family="Times,serif" font-size="14.00" fill="#000000">CustomerCheck_14</text>
</g>
<!-- CustomerCheck_14&#45;&gt;PriceCheck_11 -->
<g id="edge4" class="edge">
<title>CustomerCheck_14&#45;&gt;PriceCheck_11</title>
<path fill="none" stroke="#000000" d="M190.7687,-108.2919C218.0785,-111.1729 248.0814,-114.3381 275.0742,-117.1858"/>
<polygon fill="#000000" stroke="#000000" points="274.9481,-120.6918 285.2601,-118.2603 275.6826,-113.7304 274.9481,-120.6918"/>
</g>
<!-- CustomerCheck_13 -->
<g id="node5" class="node">
<title>CustomerCheck_13</title>
<ellipse fill="#add8e6" stroke="#add8e6" cx="102.6909" cy="-45" rx="102.8821" ry="18"/>
<text text-anchor="middle" x="102.6909" y="-41.3" font-family="Times,serif" font-size="14.00" fill="#000000">CustomerCheck_13</text>
</g>
<!-- CustomerCheck_13&#45;&gt;PriceCheck_11 -->
<g id="edge5" class="edge">
<title>CustomerCheck_13&#45;&gt;PriceCheck_11</title>
<path fill="none" stroke="#000000" d="M162.7178,-59.6869C176.7937,-63.433 191.6795,-67.6419 205.3818,-72 237.9502,-82.3586 245.16,-87.6088 277.3818,-99 285.6288,-101.9155 294.3776,-104.9175 302.9617,-107.812"/>
<polygon fill="#000000" stroke="#000000" points="301.9539,-111.1656 312.5478,-111.0241 304.178,-104.5283 301.9539,-111.1656"/>
</g>
<!-- StatusCheck_11&#45;&gt;PriceCheck_11 -->
<g id="edge6" class="edge">
<title>StatusCheck_11&#45;&gt;PriceCheck_11</title>
<path fill="none" stroke="#000000" stroke-dasharray="5,2" d="M537.8613,-111.8295C511.0917,-115.6103 479.1163,-119.404 449.6332,-122.346"/>
<polygon fill="#000000" stroke="#000000" points="448.9351,-118.8973 439.3212,-123.3496 449.6133,-125.8644 448.9351,-118.8973"/>
</g>
<!-- PriceCheck_13 -->
<g id="node7" class="node">
<title>PriceCheck_13</title>
<ellipse fill="#add8e6" stroke="#add8e6" cx="358.6246" cy="-72" rx="81.4863" ry="18"/>
<text text-anchor="middle" x="358.6246" y="-68.3" font-family="Times,serif" font-size="14.00" fill="#000000">PriceCheck_13</text>
</g>
<!-- PriceCheck_13&#45;&gt;StatusCheck_11 -->
<g id="edge7" class="edge">
<title>PriceCheck_13&#45;&gt;StatusCheck_11</title>
<path fill="none" stroke="#000000" stroke-dasharray="5,2" d="M431.3852,-80.1742C456.8667,-83.0368 485.7352,-86.28 512.2438,-89.2581"/>
<polygon fill="#000000" stroke="#000000" points="511.9477,-92.7467 522.276,-90.3851 512.7293,-85.7905 511.9477,-92.7467"/>
</g>
<!-- PriceCheck_12 -->
<g id="node8" class="node">
<title>PriceCheck_12</title>
<ellipse fill="#add8e6" stroke="#add8e6" cx="358.6246" cy="-18" rx="81.4863" ry="18"/>
<text text-anchor="middle" x="358.6246" y="-14.3" font-family="Times,serif" font-size="14.00" fill="#000000">PriceCheck_12</text>
</g>
<!-- PriceCheck_12&#45;&gt;StatusCheck_11 -->
<g id="edge8" class="edge">
<title>PriceCheck_12&#45;&gt;StatusCheck_11</title>
<path fill="none" stroke="#000000" stroke-dasharray="5,2" d="M404.1884,-33.0859C415.8263,-36.9547 428.3138,-41.1194 439.8674,-45 474.5475,-56.6483 513.4343,-69.845 544.081,-80.2767"/>
<polygon fill="#000000" stroke="#000000" points="543.1314,-83.6507 553.7259,-83.561 545.3879,-77.0243 543.1314,-83.6507"/>
</g>
</g>
</svg>
