<svg id="Layer_1" data-name="Layer 1" xmlns="http://www.w3.org/2000/svg" width="370.0004" height="60.0257" viewBox="0 0 370.0004 60.0257"><defs><style>.cls-1{fill:#afd4eb;}.cls-2{fill:#f48227;}.cls-3{fill:#fff;}.cls-4{fill:#014e64;}.cls-5{fill:none;}</style></defs><title>Task_Console_Logo_60x370</title><path class="cls-1" d="M3.3515,45.1257l20.8,12.3,22.7-12.1-4.9-15.1-6.3,5.5s2.6,4.8,1.3,5.1l-5.5-.5-5.8,3.2-4.5-1.8-1.5-1.4-2.1-.5-3,1.4-1.2-1.2.9-3.3-3.1-2.9-4.5-2.8Z"/><polygon class="cls-1" points="20.951 30.626 24.851 33.026 28.951 31.226 32.951 33.426 34.651 35.226 36.951 38.026 36.851 40.826 33.151 39.826 26.651 39.426 19.851 39.526 15.551 40.426 13.251 40.026 14.851 35.126 20.951 30.626"/><polygon class="cls-2" points="10.751 18.226 22.351 17.526 24.851 19.826 27.351 17.826 39.151 18.126 40.751 21.826 41.051 27.926 40.151 32.926 36.651 35.426 34.651 35.226 31.751 32.526 28.951 31.226 26.451 32.626 21.151 31.426 18.651 32.326 14.851 35.126 11.051 33.726 8.351 30.226 8.151 26.626 10.751 18.226"/><polygon class="cls-2" points="19.851 39.526 24.451 39.726 29.551 39.826 30.851 40.626 27.351 43.326 22.051 43.026 19.851 39.526"/><polygon class="cls-3" points="3.351 2.226 12.951 3.926 15.951 8.426 22.751 4.326 27.951 4.326 33.551 8.326 38.351 3.826 47.651 2.626 47.651 5.626 44.551 12.126 45.351 17.526 41.151 20.626 39.251 18.226 26.651 17.926 24.951 19.926 23.251 17.626 10.851 18.326 9.251 20.226 5.151 18.626 4.651 15.226 5.151 11.926 4.251 8.626 2.051 4.626 3.351 2.226"/><path class="cls-4" d="M11.0515,21.5257c2.1-8.7,8.8-15.8,14.1-15.9,4.4.3,12.1,6.5,14.1,15.9l2.4.3c-1.4-9.4-8.4-18-16.5-18s-13.9,8-16.3,17.7Z"/><path class="cls-4" d="M36.6515,49.6257a14.5625,14.5625,0,0,1,0-5.1s.6,4.3,1.4,4.5Z"/><path class="cls-4" d="M31.0515,53.0257a14.5625,14.5625,0,0,1,0-5.1s.6,4.3,1.4,4.5Z"/><path class="cls-4" d="M13.7515,49.7257a14.5625,14.5625,0,0,0,0-5.1s-.6,4.3-1.4,4.5Z"/><path class="cls-4" d="M19.3515,53.2257a14.5625,14.5625,0,0,0,0-5.1s-.6,4.3-1.4,4.5Z"/><polygon class="cls-4" points="7.451 19.226 1.551 46.326 25.251 60.026 49.051 46.326 43.051 19.526 38.951 20.526 44.351 44.426 25.251 55.226 6.051 44.326 11.251 20.226 7.451 19.226"/><path class="cls-4" d="M39.8515,17.5257s3.3.7,4-1.6c0,0,.5-1.9-.7-2.8a2.3487,2.3487,0,0,0-1.4-.7l4.4-8.2-7.2,1.1-3,5.2-3-3,2.5-4.3a3.3409,3.3409,0,0,1,2.7-1.9l7.8-1.2s5.7-.7,4.2,5.2l-3.3,6.1a6.5443,6.5443,0,0,1-1.4,8.8,6.8255,6.8255,0,0,1-4.9,1.5Z"/><path class="cls-4" d="M10.7515,17.5257s-3.3.7-4-1.6c0,0-.5-1.9.7-2.8a2.3487,2.3487,0,0,1,1.4-.7l-4.6-8.3,7.2,1.1,3,5.2,2.9-3-2.4-4.3a3.3409,3.3409,0,0,0-2.7-1.9l-7.8-1.2s-5.7-.7-4.2,5.2l3.3,6.1a6.5443,6.5443,0,0,0,1.4,8.8,6.8255,6.8255,0,0,0,4.9,1.5Z"/><path class="cls-4" d="M29.5515,39.8257a5.4241,5.4241,0,0,1-7.6,1,4.7406,4.7406,0,0,1-1-1h-3.6a8.9172,8.9172,0,0,0,12.1,3.7,8.279,8.279,0,0,0,3.7-3.7Z"/><ellipse class="cls-5" cx="25.3515" cy="13.2257" rx="12.1" ry="11.5"/><path class="cls-4" d="M19.0515,6.2257a11.54,11.54,0,0,1,6-1.4c2.1,0,5.3,1.9,6.9,2.7,1.9.4,2.5-.4,4,.3a12.4732,12.4732,0,0,0-16.9-4.9,12.914,12.914,0,0,0-5,5.1A25.0733,25.0733,0,0,1,19.0515,6.2257Z"/><path class="cls-4" d="M36.0515,36.7257a6.7467,6.7467,0,0,0,5.8-6.5l-2.3-8.2s2.5,12.8-4.7,12.4Z"/><path class="cls-4" d="M14.1515,36.7257a6.7467,6.7467,0,0,1-5.8-6.5l2.3-8.2s-2.5,12.8,4.7,12.4Z"/><rect class="cls-4" x="30.7587" y="20.7484" width="2.7" height="7.5999" transform="translate(-7.9539 29.8943) rotate(-45)"/><rect class="cls-4" x="28.341" y="23.1427" width="7.5999" height="2.7" transform="translate(-7.9051 29.9009) rotate(-45)"/><path class="cls-4" d="M14.4515,24.7257s4.2-6.1,8.5,0C22.9515,24.7257,19.0515,30.3257,14.4515,24.7257Z"/><path class="cls-4" d="M25.0515,40.5257a26.6269,26.6269,0,0,1,9.7,1.5s3.6,1.2,3.5-2.2-4-7.6-7.4-9.1a5.6377,5.6377,0,0,1-.4-1.2,1.0006,1.0006,0,0,0-1.4-.3l-.2.2a5.8339,5.8339,0,0,1-3.8,2.1v2.4a4.4521,4.4521,0,0,0,3.1-1,1.3908,1.3908,0,0,1,1.9,0,13.7462,13.7462,0,0,1,5.7,6s.7,1.9-.9.8a13.3553,13.3553,0,0,0-1.8-.7,3.7194,3.7194,0,0,0-1-2.2,3.75,3.75,0,0,1,0,2.1,25.1225,25.1225,0,0,0-2.7-.4,3.1679,3.1679,0,0,0-.9-2.3,4.1083,4.1083,0,0,1,0,2.2,20.4542,20.4542,0,0,0-3.5,0Z"/><path class="cls-4" d="M25.4515,40.5257a26.6269,26.6269,0,0,0-9.7,1.5s-3.6,1.2-3.5-2.2,4-7.6,7.4-9.1a5.6377,5.6377,0,0,0,.4-1.2,1.0006,1.0006,0,0,1,1.4-.3l.2.2a6.296,6.296,0,0,0,3.8,2.1v2.4a4.4521,4.4521,0,0,1-3.1-1,1.3908,1.3908,0,0,0-1.9,0,13.7462,13.7462,0,0,0-5.7,6s-.7,1.9.9.8a13.3553,13.3553,0,0,1,1.8-.7,3.7194,3.7194,0,0,1,1-2.2,3.75,3.75,0,0,0,0,2.1,25.1225,25.1225,0,0,1,2.7-.4,3.1679,3.1679,0,0,1,.9-2.3,4.1083,4.1083,0,0,0,0,2.2,20.4542,20.4542,0,0,1,3.5,0Z"/><polygon class="cls-4" points="10.651 19.426 22.751 18.726 25.051 21.226 27.551 18.826 39.751 19.426 38.951 17.026 26.551 16.126 25.051 18.026 23.751 16.226 11.051 17.026 10.651 19.426"/><path class="cls-3" d="M70.6415,12.7971h29.834v4.6474H88.1815V47.778H82.9344V17.4445H70.6415Z"/><path class="cls-3" d="M100.6229,40.4821c0-4.7978,3.8975-7.7461,10.294-7.7461a17.962,17.962,0,0,1,6.9463,1.3994V31.4372c0-3.5982-2.1485-5.3975-6.1963-5.3975a18.0786,18.0786,0,0,0-7.8955,2.149l-1.85-3.7481a23.81,23.81,0,0,1,10.4443-2.5981c6.5967,0,10.3945,3.248,10.3945,9.0947V47.778h-4.8974V45.5788a12.0645,12.0645,0,0,1-7.8955,2.6494C104.4208,48.2282,100.6229,45.08,100.6229,40.4821ZM111.1171,44.53a9.7828,9.7828,0,0,0,6.7461-2.3985V37.7331a13.22,13.22,0,0,0-6.5469-1.5488c-3.6475,0-5.8965,1.6494-5.8965,4.1982C105.42,42.8307,107.7186,44.53,111.1171,44.53Z"/><path class="cls-3" d="M128.8046,41.1813a13.3261,13.3261,0,0,0,8.2959,3.1983c3.5976,0,6.0966-1.5489,6.0966-3.7979,0-1.7988-1.3-2.8486-4.0976-3.248l-4.5977-.6494c-5.0478-.75-7.5957-3.0987-7.5957-7.0459,0-4.5977,3.9971-7.6963,9.9444-7.6963a17.4418,17.4418,0,0,1,10.2441,3.2485l-2.5488,3.2979a14.14,14.14,0,0,0-8.0449-2.6485c-3.0489,0-5.0977,1.3994-5.0977,3.4483,0,1.8491,1.1992,2.7485,4.1982,3.1977l4.5967.65c5.0479.749,7.6963,3.1475,7.6963,7.0957,0,4.5479-4.5976,7.9961-10.6445,7.9961a16.7779,16.7779,0,0,1-11.1436-3.748Z"/><path class="cls-3" d="M151.7391,12.7971l4.9971-1.0992V33.5358L169.08,22.342h5.8466L161.8339,34.2858l13.792,13.4922H169.03l-12.294-11.9932V47.778h-4.9971Z"/><path class="cls-3" d="M216.35,38.7829l3.4482,3.498a19.25,19.25,0,0,1-13.9922,6.0469,18.0425,18.0425,0,1,1,0-36.08,18.98,18.98,0,0,1,14.0928,6.0464L216.4,21.8923a13.9017,13.9017,0,0,0-10.5948-4.7974,12.8287,12.8287,0,0,0-12.9931,13.1929A12.9223,12.9223,0,0,0,205.9559,43.48,13.5728,13.5728,0,0,0,216.35,38.7829Z"/><path class="cls-3" d="M235.4364,21.8425a13.2178,13.2178,0,1,1-13.2432,13.1923A13.0543,13.0543,0,0,1,235.4364,21.8425Zm8.2949,13.1923a8.3331,8.3331,0,1,0-16.6406,0c0,4.9473,3.6484,8.8457,8.3457,8.8457A8.534,8.534,0,0,0,243.7313,35.0348Z"/><path class="cls-3" d="M253.3739,22.342h4.9971v2.5488a10.4748,10.4748,0,0,1,7.6465-3.0483,9.4962,9.4962,0,0,1,9.9448,9.9443V47.778h-4.9971V32.6364c0-3.998-2.4492-6.4463-6.2974-6.4463a7.1883,7.1883,0,0,0-6.2968,3.2979v18.29h-4.9971Z"/><path class="cls-3" d="M282.0053,41.1813a13.3261,13.3261,0,0,0,8.2958,3.1983c3.5977,0,6.0967-1.5489,6.0967-3.7979,0-1.7988-1.3-2.8486-4.0976-3.248l-4.5977-.6494c-5.0478-.75-7.5957-3.0987-7.5957-7.0459,0-4.5977,3.9971-7.6963,9.9443-7.6963a17.4421,17.4421,0,0,1,10.2442,3.2485l-2.5488,3.2979a14.14,14.14,0,0,0-8.045-2.6485c-3.0488,0-5.0976,1.3994-5.0976,3.4483,0,1.8491,1.1992,2.7485,4.1982,3.1977l4.5967.65c5.0479.749,7.6963,3.1475,7.6963,7.0957,0,4.5479-4.5977,7.9961-10.6445,7.9961A16.7777,16.7777,0,0,1,279.307,44.48Z"/><path class="cls-3" d="M317.2836,21.8425A13.2178,13.2178,0,1,1,304.04,35.0348,13.0543,13.0543,0,0,1,317.2836,21.8425Zm8.2949,13.1923a8.3331,8.3331,0,1,0-16.6406,0c0,4.9473,3.6484,8.8457,8.3457,8.8457A8.5341,8.5341,0,0,0,325.5785,35.0348Z"/><path class="cls-3" d="M340.2181,47.778h-4.997V12.7971l4.997-1.0992Z"/><path class="cls-3" d="M358.307,48.2282a13.0893,13.0893,0,0,1-13.3428-13.1934,12.781,12.781,0,0,1,12.7432-13.0927c6.9961,0,12.293,5.7968,12.293,13.2929v1.4493H349.9115a8.5811,8.5811,0,0,0,8.5957,7.2959,9.8943,9.8943,0,0,0,6.4463-2.2491l3.1982,3.1485A15.171,15.171,0,0,1,358.307,48.2282Zm-8.3457-15.292h15.0918c-.749-3.8979-3.748-6.7964-7.4453-6.7964C353.7592,26.14,350.7113,28.8884,349.9613,32.9362Z"/></svg>