<?xml version="1.0" encoding="UTF-8" standalone="no"?>
<!-- Created with Inkscape (http://www.inkscape.org/) -->
<svg
   xmlns:dc="http://purl.org/dc/elements/1.1/"
   xmlns:cc="http://creativecommons.org/ns#"
   xmlns:rdf="http://www.w3.org/1999/02/22-rdf-syntax-ns#"
   xmlns:svg="http://www.w3.org/2000/svg"
   xmlns="http://www.w3.org/2000/svg"
   xmlns:xlink="http://www.w3.org/1999/xlink"
   xmlns:sodipodi="http://sodipodi.sourceforge.net/DTD/sodipodi-0.dtd"
   xmlns:inkscape="http://www.inkscape.org/namespaces/inkscape"
   width="484.28891"
   height="215.68813"
   id="svg2"
   sodipodi:version="0.32"
   inkscape:version="0.46"
   version="1.0"
   sodipodi:docname="Male_Person.svg"
   inkscape:output_extension="org.inkscape.output.svg.inkscape"
   inkscape:export-filename="/mnt/data/sd/projects/ganymede2/jbossrules/drools-docs/drools-docs-expert/src/main/docbook/images/Chapter-Rule_Engine/Male_Person.png"
   inkscape:export-xdpi="90"
   inkscape:export-ydpi="90">
  <sodipodi:namedview
     id="base"
     pagecolor="#ffffff"
     bordercolor="#666666"
     borderopacity="1.0"
     gridtolerance="10000"
     guidetolerance="10000"
     objecttolerance="10"
     inkscape:pageopacity="0.0"
     inkscape:pageshadow="2"
     inkscape:zoom="1.462"
     inkscape:cx="338.84998"
     inkscape:cy="68.016379"
     inkscape:document-units="px"
     inkscape:current-layer="layer1"
     showgrid="true"
     inkscape:window-width="1680"
     inkscape:window-height="977"
     inkscape:window-x="0"
     inkscape:window-y="25">
    <inkscape:grid
       type="xygrid"
       id="grid2383"
       visible="true"
       enabled="true"
       spacingx="5px"
       spacingy="5px" />
  </sodipodi:namedview>
  <defs
     id="defs4">
    <marker
       inkscape:stockid="Arrow2Send"
       orient="auto"
       refY="0"
       refX="0"
       id="Arrow2Send"
       style="overflow:visible">
      <path
         id="path3797"
         style="font-size:12px;fill-rule:evenodd;stroke-width:0.625;stroke-linejoin:round"
         d="M 8.7185878,4.0337352 L -2.2072895,0.016013256 L 8.7185884,-4.0017078 C 6.97309,-1.6296469 6.9831476,1.6157441 8.7185878,4.0337352 z"
         transform="matrix(-0.3,0,0,-0.3,0.69,0)" />
    </marker>
    <linearGradient
       id="linearGradient3711">
      <stop
         style="stop-color:#ffdd55;stop-opacity:1;"
         offset="0"
         id="stop3713" />
      <stop
         id="stop3719"
         offset="0.5"
         style="stop-color:#ffffff;stop-opacity:1" />
      <stop
         style="stop-color:#ffdd55;stop-opacity:1"
         offset="1"
         id="stop3715" />
    </linearGradient>
    <linearGradient
       id="linearGradient3500">
      <stop
         style="stop-color:#d35fbc;stop-opacity:1"
         offset="0"
         id="stop3502" />
      <stop
         id="stop3516"
         offset="0.5"
         style="stop-color:#ffffff;stop-opacity:1" />
      <stop
         style="stop-color:#d35fbc;stop-opacity:1"
         offset="1"
         id="stop3504" />
    </linearGradient>
    <linearGradient
       id="linearGradient3334">
      <stop
         id="stop3336"
         offset="0"
         style="stop-color:#217844;stop-opacity:1" />
      <stop
         style="stop-color:#ffffff;stop-opacity:1"
         offset="0.5001412"
         id="stop3338" />
      <stop
         id="stop3340"
         offset="1"
         style="stop-color:#217844;stop-opacity:1" />
    </linearGradient>
    <linearGradient
       id="linearGradient3186">
      <stop
         style="stop-color:#3771c8;stop-opacity:1"
         offset="0"
         id="stop3188" />
      <stop
         id="stop3198"
         offset="0.5001412"
         style="stop-color:#ffffff;stop-opacity:1" />
      <stop
         style="stop-color:#3771c8;stop-opacity:1"
         offset="1"
         id="stop3190" />
    </linearGradient>
    <linearGradient
       inkscape:collect="always"
       xlink:href="#linearGradient3186"
       id="linearGradient3479"
       gradientUnits="userSpaceOnUse"
       gradientTransform="translate(-41.039672,0)"
       x1="49.320026"
       y1="87.275543"
       x2="200.02463"
       y2="87.275543" />
    <linearGradient
       inkscape:collect="always"
       xlink:href="#linearGradient3334"
       id="linearGradient3491"
       gradientUnits="userSpaceOnUse"
       gradientTransform="translate(342.32061,0)"
       x1="49.320026"
       y1="87.275543"
       x2="200.02463"
       y2="87.275543" />
    <filter
       inkscape:collect="always"
       id="filter3697">
      <feGaussianBlur
         inkscape:collect="always"
         stdDeviation="1.135"
         id="feGaussianBlur3699" />
    </filter>
    <linearGradient
       inkscape:collect="always"
       xlink:href="#linearGradient3500"
       id="linearGradient3707"
       gradientUnits="userSpaceOnUse"
       x1="182.90891"
       y1="87.659912"
       x2="380.01389"
       y2="87.659912" />
    <linearGradient
       inkscape:collect="always"
       xlink:href="#linearGradient3711"
       id="linearGradient3717"
       x1="200"
       y1="205"
       x2="335"
       y2="205"
       gradientUnits="userSpaceOnUse" />
    <filter
       inkscape:collect="always"
       id="filter3749">
      <feGaussianBlur
         inkscape:collect="always"
         stdDeviation="0.76"
         id="feGaussianBlur3751" />
    </filter>
    <linearGradient
       inkscape:collect="always"
       xlink:href="#linearGradient3711"
       id="linearGradient6121"
       gradientUnits="userSpaceOnUse"
       x1="200"
       y1="205"
       x2="335"
       y2="205" />
  </defs>
  <metadata
     id="metadata7">
    <rdf:RDF>
      <cc:Work
         rdf:about="">
        <dc:format>image/svg+xml</dc:format>
        <dc:type
           rdf:resource="http://purl.org/dc/dcmitype/StillImage" />
      </cc:Work>
    </rdf:RDF>
  </metadata>
  <g
     inkscape:label="Layer 1"
     inkscape:groupmode="layer"
     id="layer1"
     transform="translate(-8.3316963,-19.811879)">
    <g
       id="g3481">
      <path
         sodipodi:nodetypes="ccsccsc"
         d="M 109.26033,34.905938 C 109.26033,26.574017 109.26033,116.76214 109.26033,125.09406 C 109.26033,133.42598 86.719518,140.18812 58.946016,140.18812 C 31.172514,140.18812 8.6317003,133.42598 8.6317003,125.09406 C 8.6317003,116.76214 8.6317003,26.574017 8.6317003,34.905938 C 8.6317003,43.237859 31.172514,49.999997 58.946016,49.999997 C 86.719518,49.999997 109.26033,43.237859 109.26033,34.905938 z"
         style="fill:url(#linearGradient3479);fill-opacity:1;fill-rule:nonzero;stroke:none;stroke-width:0.70269495;stroke-linecap:butt;stroke-linejoin:miter;stroke-miterlimit:4;stroke-opacity:1"
         id="path3159" />
      <path
         id="path2385"
         d="M 108.96033,34.905938 C 108.96033,43.237859 86.419518,49.999997 58.646012,49.999997 C 30.872509,49.999997 8.3316963,43.237859 8.3316963,34.905938 C 8.3316963,26.574018 30.872509,19.811879 58.646012,19.811879 C 86.419518,19.811879 108.96033,26.574018 108.96033,34.905938 z"
         style="fill:#87aade;fill-opacity:1;fill-rule:nonzero;stroke:none;stroke-width:0.70269495;stroke-linecap:butt;stroke-linejoin:miter;stroke-miterlimit:4;stroke-opacity:1" />
      <path
         id="text3212"
         d="M 33.635794,76.844271 C 33.635787,77.842941 33.33057,78.559201 32.720144,78.993052 C 32.692804,79.014988 32.660915,79.035911 32.624479,79.05582 C 32.068704,79.408476 31.139476,79.493776 29.877916,79.14458 C 29.877916,79.14458 28.566789,78.763367 28.566789,78.763367 C 28.566789,78.763367 28.566789,82.319367 28.566789,82.319367 C 28.566789,82.319367 26.404106,81.736749 26.404106,81.736749 C 26.404106,81.736749 26.404106,79.335749 26.404106,76.934749 C 26.404106,74.533749 26.404106,72.132749 26.404106,72.132749 C 26.404106,72.132749 30.068856,73.112627 30.068856,73.112627 C 30.998169,73.318887 31.699711,73.605254 32.173486,73.971727 C 32.255478,74.036601 32.337477,74.106132 32.419482,74.180323 C 33.230349,74.929629 33.635787,75.81761 33.635794,76.844271 M 31.421833,76.436906 C 31.421827,75.587578 30.887163,75.090475 29.850882,74.811297 C 29.850882,74.811297 28.566789,74.465367 28.566789,74.465367 C 28.566789,74.465367 28.566789,77.013367 28.566789,77.013367 C 28.566789,77.013367 29.864399,77.362938 29.864399,77.362938 C 30.891669,77.639685 31.421827,77.286243 31.421833,76.436906 M 41.025482,81.524929 C 41.025482,81.524929 36.515956,80.827655 36.515956,80.827655 C 36.515956,80.827655 36.502179,81.245169 36.502179,81.245169 C 36.502179,81.245169 36.502179,81.259169 36.502179,81.259169 C 36.502176,81.856503 36.727194,82.321783 37.177231,82.655006 C 37.379284,82.803475 37.604301,82.900087 37.852283,82.944844 C 38.283945,83.022754 38.632684,82.890224 38.891369,82.591273 C 39.029943,82.424455 39.099233,82.229046 39.099238,82.005045 C 39.099238,82.005045 40.983909,82.414975 40.983909,82.414975 C 40.983902,82.610976 40.891516,82.845077 40.706751,83.117279 C 40.180146,84.003191 39.381009,84.444068 38.309339,84.439912 C 38.133801,84.442771 37.957899,84.433906 37.7834,84.402411 C 36.580244,84.185258 35.657215,83.579998 35.014309,82.586629 C 34.55509,81.878414 34.325481,81.076307 34.325481,80.180305 C 34.325481,78.910976 34.711224,77.991265 35.482713,77.421169 C 36.079696,76.978256 36.828221,76.838022 37.728294,77.000465 C 39.060024,77.240831 40.018471,77.918041 40.58203,79.165416 C 40.877658,79.833095 41.025475,80.582265 41.025482,81.412929 C 41.025482,81.412929 41.025482,81.524929 41.025482,81.524929 M 38.988375,80.015166 C 38.932938,79.017898 38.536515,78.490344 37.810954,78.359384 C 37.021093,78.216832 36.584836,78.632759 36.502179,79.607169 C 36.502179,79.607169 38.988375,80.015166 38.988375,80.015166 M 46.045132,80.154053 C 46.045132,80.154053 45.905961,80.1389 45.905961,80.1389 C 45.005984,80.040914 44.486412,80.497675 44.347244,81.509184 C 44.310129,81.747812 44.291572,82.049125 44.291575,82.413122 C 44.291575,82.413122 44.291575,85.129122 44.291575,85.129122 C 44.291575,85.129122 42.245842,84.905714 42.245842,84.905714 C 42.245842,84.905714 42.245842,83.127714 42.245842,81.349714 C 42.245842,79.571714 42.245842,77.793714 42.245842,77.793714 C 42.245842,77.793714 44.152404,78.001969 44.152404,78.001969 C 44.152404,78.001969 44.152404,79.331969 44.152404,79.331969 C 44.152404,79.331969 44.180238,79.335 44.180238,79.335 C 44.4493,78.384303 44.917842,77.945319 45.585867,78.018048 C 45.687921,78.029166 45.84101,78.055168 46.045132,78.096053 C 46.045132,78.096053 46.045132,80.154053 46.045132,80.154053 M 52.686817,83.53991 C 52.68681,84.575911 52.163709,85.282471 51.121473,85.594712 C 50.646875,85.745059 50.116449,85.797802 49.530191,85.752938 C 47.901684,85.628314 46.864067,84.984555 46.41872,83.80673 C 46.37233,83.671014 46.330578,83.531135 46.293466,83.387092 C 46.293466,83.387092 48.064537,83.288777 48.064537,83.288777 C 48.166898,83.837945 48.590308,84.183013 49.334771,84.323983 C 49.427825,84.340438 49.525534,84.352582 49.627902,84.360415 C 50.158324,84.401007 50.530553,84.30816 50.74459,84.081871 C 50.828337,84.004282 50.870213,83.90482 50.870218,83.783485 C 50.870213,83.48482 50.670139,83.278176 50.269998,83.163552 C 50.269998,83.163552 50.074577,83.120598 50.074577,83.120598 C 48.976496,82.887235 48.213427,82.656174 47.785365,82.427413 C 46.975765,82.00146 46.571808,81.354736 46.571809,80.505399 C 46.571808,79.441405 47.096739,78.772055 48.148289,78.479186 C 48.585656,78.36333 49.069554,78.325694 49.599984,78.366279 C 50.893477,78.465272 51.777785,79.041946 52.253282,80.090211 C 52.253282,80.090211 52.393132,80.418566 52.393132,80.418566 C 52.393132,80.418566 50.870218,80.731485 50.870218,80.731485 C 50.70271,80.084005 50.242075,79.731422 49.488315,79.673733 C 48.818299,79.659798 48.464682,79.842737 48.427461,80.22255 C 48.427458,80.521222 48.683366,80.741472 49.195185,80.883301 C 49.195185,80.883301 50.842301,81.275349 50.842301,81.275349 C 51.838008,81.57555 52.430419,82.095597 52.616892,82.878733 C 52.663502,83.076854 52.68681,83.297246 52.686817,83.53991 M 60.312078,82.555307 C 60.312068,83.731309 59.929458,84.658889 59.164248,85.338047 C 58.548334,85.888785 57.787782,86.157348 56.882591,86.143737 C 55.641443,86.125073 54.714644,85.56405 54.099305,84.55609 C 53.707723,83.912966 53.511933,83.157404 53.511934,82.289401 C 53.511933,81.029406 53.903513,80.076533 54.686676,79.430779 C 55.274044,78.944141 56.005387,78.738553 56.882591,78.751737 C 58.161059,78.770968 59.108248,79.284545 59.724158,80.292466 C 60.116098,80.923698 60.312068,81.677978 60.312078,82.555307 M 58.100407,82.536049 C 58.100402,81.612053 58.007082,80.980651 57.82045,80.64184 C 57.568483,80.320723 57.260529,80.143426 56.896589,80.109947 C 56.1407,80.098586 55.749535,80.715745 55.721568,82.011802 C 55.721568,82.011802 55.721568,82.235802 55.721568,82.235802 C 55.721565,83.402471 55.894046,84.156974 56.239014,84.499313 C 56.40683,84.674939 56.621294,84.767808 56.882591,84.771737 C 57.666468,84.783525 58.072406,84.11763 58.100407,82.774049 C 58.100402,82.699385 58.100402,82.620052 58.100407,82.536049 M 67.535138,85.964741 C 67.535138,85.964741 65.478188,86.020321 65.478188,86.020321 C 65.478188,86.020321 65.478188,81.834321 65.478188,81.834321 C 65.478188,81.124992 65.328868,80.688524 65.030258,80.524915 C 65.030258,80.524915 64.750298,80.431036 64.750298,80.431036 C 64.750298,80.431036 64.540328,80.420126 64.540328,80.420126 C 63.803098,80.430983 63.434488,81.033742 63.434488,82.228404 C 63.434488,82.228404 63.434488,86.050404 63.434488,86.050404 C 63.434488,86.050404 61.376788,86.071318 61.376788,86.071318 C 61.376788,86.071318 61.376788,84.293318 61.376788,82.515318 C 61.376788,80.737318 61.376788,78.959318 61.376788,78.959318 C 61.376788,78.959318 63.322498,78.940052 63.322498,78.940052 C 63.322498,78.940052 63.322498,80.144052 63.322498,80.144052 C 63.322498,80.144052 63.350498,80.14364 63.350498,80.14364 C 63.714448,79.344956 64.269698,78.898117 65.016258,78.803121 C 65.137568,78.782675 65.263548,78.771488 65.394198,78.769558 C 66.486048,78.753493 67.157528,79.205538 67.409268,80.146337 C 67.493178,80.487946 67.535128,80.929413 67.535138,81.470741 C 67.535138,81.470741 67.535138,85.964741 67.535138,85.964741 M 71.424038,85.79182 C 71.424038,85.79182 69.228288,85.889454 69.228288,85.889454 C 69.228288,85.889454 69.228288,83.719454 69.228288,83.719454 C 69.228288,83.719454 71.424038,83.62182 71.424038,83.62182 C 71.424038,83.62182 71.424038,85.79182 71.424038,85.79182 M 78.952048,82.86387 C 78.952048,83.899871 78.432338,84.66918 77.392918,85.1718 C 76.919618,85.408838 76.391078,85.56349 75.804748,85.60738 C 74.176038,85.729297 73.138308,85.242309 72.691578,84.146415 C 72.645048,84.019233 72.603168,83.887035 72.565928,83.74982 C 72.565928,83.74982 74.338898,83.365105 74.338898,83.365105 C 74.441278,83.898777 74.864738,84.179745 75.609298,84.20801 C 75.702368,84.210378 75.800088,84.20773 75.902468,84.200065 C 76.432958,84.160357 76.803608,83.993186 77.017058,83.727801 C 77.100588,83.634914 77.142348,83.527802 77.142348,83.406467 C 77.142348,83.107802 76.942808,82.937705 76.543748,82.896173 C 76.543748,82.896173 76.348858,82.888914 76.348858,82.888914 C 75.253758,82.856129 74.487818,82.709961 74.059698,82.546005 C 73.249988,82.242618 72.845138,81.666257 72.845138,80.81692 C 72.845138,79.752926 73.370988,78.994898 74.422668,78.542835 C 74.860098,78.360766 75.344048,78.249872 75.874548,78.210155 C 77.168208,78.113326 78.047198,78.503508 78.520508,79.479797 C 78.520508,79.479797 78.659708,79.786981 78.659708,79.786981 C 78.659708,79.786981 77.142348,80.354467 77.142348,80.354467 C 76.975298,79.737585 76.516728,79.478092 75.762858,79.534515 C 75.092758,79.622014 74.739108,79.858487 74.701868,80.243935 C 74.701868,80.542607 74.957818,80.724115 75.469698,80.78846 C 75.469698,80.78846 77.114508,80.90343 77.114508,80.90343 C 78.107518,81.021753 78.696828,81.458368 78.882448,82.213277 C 78.928838,82.404342 78.952048,82.621206 78.952048,82.86387 M 86.465808,80.897173 C 86.465808,80.897173 81.953998,81.579737 81.953998,81.579737 C 81.953998,81.579737 81.940128,82.001676 81.940128,82.001676 C 81.940128,82.001676 81.940128,82.015676 81.940128,82.015676 C 81.940128,82.613011 82.166588,83.00601 82.619488,83.194675 C 82.822828,83.27824 83.049278,83.302572 83.298838,83.267673 C 83.733268,83.206924 84.079878,82.990454 84.338678,82.618262 C 84.477318,82.412209 84.546638,82.197182 84.546638,81.97318 C 84.546638,81.97318 86.424448,81.800451 86.424448,81.800451 C 86.424448,81.996453 86.332528,82.259961 86.148698,82.590971 C 85.624778,83.644492 84.828558,84.332424 83.756368,84.631692 C 83.580758,84.68425 83.405138,84.722809 83.229518,84.747367 C 82.018688,84.91669 81.091218,84.619541 80.441578,83.811347 C 79.977558,83.235398 79.745538,82.499425 79.745538,81.603423 C 79.745538,80.334094 80.137758,79.32306 80.914158,78.505148 C 81.514958,77.870473 82.268248,77.489798 83.174058,77.363122 C 84.514288,77.175711 85.463918,77.610802 86.024608,78.678804 C 86.318738,79.252389 86.465808,79.95451 86.465808,80.785173 C 86.465808,80.785173 86.465808,80.897173 86.465808,80.897173 M 84.435728,80.014691 C 84.380268,79.033118 83.987438,78.593385 83.257248,78.695489 C 82.462348,78.806654 82.023318,79.362715 81.940128,80.363676 C 81.940128,80.363676 84.435728,80.014691 84.435728,80.014691 M 93.987798,82.535755 C 93.987798,82.535755 91.658948,83.087285 91.658948,83.087285 C 91.658948,83.087285 90.222158,80.947517 90.222158,80.947517 C 90.222158,80.947517 88.796748,83.693032 88.796748,83.693032 C 88.796748,83.693032 87.031958,84.003556 87.031958,84.003556 C 87.031958,84.003556 89.346408,79.764611 89.346408,79.764611 C 89.346408,79.764611 87.349068,76.835759 87.349068,76.835759 C 87.349068,76.835759 89.702178,76.397791 89.702178,76.397791 C 89.702178,76.397791 90.810558,78.09047 90.810558,78.09047 C 90.810558,78.09047 91.918938,75.919148 91.918938,75.919148 C 91.918938,75.919148 93.649198,75.512248 93.649198,75.512248 C 93.649198,75.512248 91.658948,79.265285 91.658948,79.265285 C 91.658948,79.265285 93.987798,82.535755 93.987798,82.535755 M 32.92514,95.978549 C 32.92514,95.978549 31.256627,95.671998 29.621097,95.231394 C 27.985568,94.790789 26.350038,94.350184 26.350038,94.350184 C 26.350038,94.350184 26.350038,92.670184 26.350038,92.670184 C 26.350038,92.670184 27.985568,93.110789 29.621097,93.551394 C 31.256627,93.991998 32.92514,94.298549 32.92514,94.298549 C 32.92514,94.298549 32.92514,95.978549 32.92514,95.978549 M 32.92514,99.338549 C 32.92514,99.338549 31.256627,99.031998 29.621097,98.591394 C 27.985568,98.150789 26.350038,97.710184 26.350038,97.710184 C 26.350038,97.710184 26.350038,96.030184 26.350038,96.030184 C 26.350038,96.030184 27.985568,96.470789 29.621097,96.911394 C 31.256627,97.351998 32.92514,97.658549 32.92514,97.658549 C 32.92514,97.658549 32.92514,99.338549 32.92514,99.338549 M 41.198273,97.383677 C 41.198273,97.383677 39.51193,97.202387 37.844965,96.901523 C 36.178,96.600659 34.511034,96.299795 34.511034,96.299795 C 34.511034,96.299795 34.511034,94.619795 34.511034,94.619795 C 34.511034,94.619795 36.178,94.920659 37.844965,95.221523 C 39.51193,95.522387 41.198273,95.703677 41.198273,95.703677 C 41.198273,95.703677 41.198273,97.383677 41.198273,97.383677 M 41.198273,100.74368 C 41.198273,100.74368 39.51193,100.56239 37.844965,100.26152 C 36.178,99.960659 34.511034,99.659795 34.511034,99.659795 C 34.511034,99.659795 34.511034,97.979795 34.511034,97.979795 C 34.511034,97.979795 36.178,98.280659 37.844965,98.581523 C 39.51193,98.882387 41.198273,99.063677 41.198273,99.063677 C 41.198273,99.063677 41.198273,100.74368 41.198273,100.74368 M 52.000895,95.506744 C 52.000889,95.534751 51.804785,96.133011 51.413949,97.279095 C 51.413949,97.279095 50.660184,97.221412 50.660184,97.221412 C 50.269339,96.015509 50.073918,95.398555 50.073922,95.370547 C 50.073922,95.370547 50.073922,93.550547 50.073922,93.550547 C 50.073922,93.550547 52.000895,93.686744 52.000895,93.686744 C 52.000895,93.686744 52.000895,95.506744 52.000895,95.506744 M 48.705978,95.265864 C 48.705976,95.293872 48.510556,95.880916 48.119717,97.027 C 48.119717,97.027 47.365952,96.969317 47.365952,96.969317 C 46.97511,95.763414 46.779912,95.144066 46.779912,95.116058 C 46.779912,95.116058 46.779912,93.296058 46.779912,93.296058 C 46.779912,93.296058 48.705978,93.445864 48.705978,93.445864 C 48.705978,93.445864 48.705978,95.265864 48.705978,95.265864 M 63.390088,103.55106 C 63.390088,103.55106 61.332388,103.57065 61.332388,103.57065 C 61.332388,103.57065 61.332388,99.27265 61.332388,99.27265 C 61.332378,98.712655 61.253058,98.352129 61.094428,98.191072 C 60.945098,98.048831 60.716478,97.975393 60.408528,97.970758 C 59.792608,97.961501 59.451998,98.339046 59.386678,99.103392 C 59.377338,99.243255 59.372678,99.467185 59.372678,99.775181 C 59.372678,99.775181 59.372678,103.54118 59.372678,103.54118 C 59.372678,103.54118 57.314994,103.51024 57.314994,103.51024 C 57.314994,103.51024 57.314994,99.254239 57.314994,99.254239 C 57.31499,98.54491 57.137683,98.117577 56.783074,97.97224 C 56.783074,97.97224 56.475229,97.894046 56.475229,97.894046 C 56.475229,97.894046 56.391319,97.890234 56.391319,97.890234 C 55.794621,97.863126 55.458981,98.202542 55.384397,98.908482 C 55.365748,99.047638 55.356425,99.303882 55.356427,99.677211 C 55.356427,99.677211 55.356427,103.44321 55.356427,103.44321 C 55.356427,103.44321 53.300628,103.3498 53.300628,103.3498 C 53.300628,103.3498 53.300628,101.5718 53.300628,99.793801 C 53.300628,98.015801 53.300628,96.2378 53.300628,96.2378 C 53.300628,96.2378 55.258532,96.326763 55.258532,96.326763 C 55.258532,96.326763 55.258532,97.418763 55.258532,97.418763 C 55.258532,97.418763 55.286502,97.420033 55.286502,97.420033 C 55.640786,96.614804 56.297811,96.24295 57.259002,96.257397 C 58.117534,96.270314 58.752104,96.667189 59.162718,97.448024 C 59.181368,97.466977 59.195368,97.490521 59.204708,97.518655 C 59.503328,96.832486 60.063238,96.439572 60.884458,96.339914 C 61.015088,96.323219 61.145738,96.31585 61.276398,96.317808 C 62.480208,96.335917 63.175438,96.83889 63.362098,97.909469 C 63.390068,98.086397 63.404068,98.277524 63.404088,98.482851 C 63.404088,98.482851 63.400588,99.749903 63.397088,101.01696 C 63.393588,102.28401 63.390088,103.55106 63.390088,103.55106 M 71.159398,103.30359 C 71.159398,103.30359 69.117488,103.39438 69.117488,103.39438 C 69.042898,103.07103 69.010258,102.73182 69.019588,102.37673 C 69.019588,102.34874 69.019588,102.32074 69.019588,102.29273 C 68.534748,103.01429 67.956678,103.44133 67.285368,103.57385 C 67.117538,103.60931 66.940378,103.63119 66.753918,103.63948 C 65.812208,103.68135 65.153538,103.34776 64.780258,102.71859 C 64.602958,102.42254 64.514298,102.06918 64.514298,101.65851 C 64.514298,100.50118 65.218868,99.739476 66.627988,99.373397 C 66.991938,99.284044 67.756218,99.138247 68.921688,98.965087 C 68.921688,98.965087 68.921688,98.797087 68.921688,98.797087 C 68.921688,98.190425 68.786488,97.813771 68.516108,97.667122 C 68.357598,97.590176 68.152478,97.557296 67.900738,97.568484 C 67.313338,97.594609 66.931058,97.81694 66.753918,98.235478 C 66.697968,98.359304 66.669988,98.500117 66.669988,98.658779 C 66.669988,98.658779 64.724268,98.505419 64.724268,98.505419 C 64.864248,97.392697 65.583788,96.714848 66.879788,96.367881 C 67.262048,96.266891 67.672298,96.206649 68.110518,96.187156 C 69.089518,96.143632 69.840078,96.324925 70.362218,96.731034 C 70.772448,97.058131 70.991558,97.561722 71.019538,98.241806 C 71.019538,98.241806 71.019538,98.927806 71.019538,98.927806 C 71.019538,98.927806 71.019538,102.24581 71.019538,102.24581 C 71.019528,102.66581 71.066148,103.01839 71.159398,103.30359 M 68.921688,100.00109 C 67.746898,100.18399 67.042948,100.49996 66.809858,100.94899 C 66.735258,101.09231 66.697968,101.2433 66.697968,101.40197 C 66.697968,101.87797 66.898428,102.16772 67.299358,102.27122 C 67.392588,102.29508 67.495158,102.30452 67.607038,102.29954 C 68.213078,102.2726 68.618658,101.91856 68.823788,101.23744 C 68.889058,101.01054 68.921688,100.76642 68.921688,100.50509 C 68.921688,100.50509 68.921688,100.00109 68.921688,100.00109 M 74.455608,103.06837 C 74.455608,103.06837 72.403428,103.22199 72.403428,103.22199 C 72.403428,103.22199 72.403428,100.82099 72.403428,98.419985 C 72.403428,96.018984 72.403428,93.617984 72.403428,93.617984 C 72.403428,93.617984 74.455608,93.464369 74.455608,93.464369 C 74.455608,93.464369 74.455608,95.86537 74.455608,98.26637 C 74.455608,100.66737 74.455608,103.06837 74.455608,103.06837 M 82.357798,99.02327 C 82.357798,99.02327 77.826208,99.559688 77.826208,99.559688 C 77.826208,99.559688 77.812288,99.981169 77.812288,99.981169 C 77.812288,99.981169 77.812288,99.995169 77.812288,99.995169 C 77.812288,100.5925 78.039658,100.99297 78.494408,101.19657 C 78.698568,101.28685 78.925948,101.31865 79.176518,101.29198 C 79.612708,101.24556 79.960728,101.04052 80.220578,100.67687 C 80.359788,100.47539 80.429388,100.26265 80.429388,100.03864 C 80.429388,100.03864 82.316198,99.925086 82.316198,99.925086 C 82.316198,100.12109 82.223768,100.38135 82.038918,100.70586 C 81.512068,101.74087 80.712448,102.40718 79.635908,102.67109 C 79.459578,102.71786 79.283248,102.75062 79.106918,102.76939 C 77.891168,102.89878 76.958478,102.55937 76.308838,101.75117 C 75.844818,101.17522 75.611038,100.41988 75.611038,99.52388 C 75.611038,98.254551 76.002578,97.243106 76.782148,96.450802 C 77.385388,95.835942 78.141738,95.480114 79.051238,95.383314 C 80.396908,95.240107 81.350308,95.701497 81.914138,96.789311 C 82.209898,97.373289 82.357798,98.080607 82.357798,98.91127 C 82.357798,98.91127 82.357798,99.02327 82.357798,99.02327 M 80.318028,98.076495 C 80.262348,97.093093 79.867918,96.640404 79.134758,96.718425 C 78.336628,96.803371 77.895808,97.344952 77.812288,98.343169 C 77.812288,98.343169 80.318028,98.076495 80.318028,98.076495 M 88.522728,93.457248 C 88.522718,93.485258 88.329688,94.12122 87.943648,95.365139 C 87.943648,95.365139 87.199128,95.496141 87.199128,95.496141 C 86.813078,94.388077 86.620058,93.82004 86.620058,93.792032 C 86.620058,93.792032 86.620058,91.972032 86.620058,91.972032 C 86.620058,91.972032 88.522728,91.637248 88.522728,91.637248 C 88.522728,91.637248 88.522728,93.457248 88.522728,93.457248 M 85.268898,94.029777 C 85.268898,94.057785 85.076098,94.695148 84.687888,95.925428 C 84.687888,95.925428 83.939208,96.030123 83.939208,96.030123 C 83.551008,94.908417 83.356908,94.333561 83.356908,94.305553 C 83.356908,94.305553 83.356908,92.485553 83.356908,92.485553 C 83.356908,92.485553 85.268898,92.209777 85.268898,92.209777 C 85.268898,92.209777 85.268898,94.029777 85.268898,94.029777"
         style="font-size:14px;font-style:normal;font-variant:normal;font-weight:bold;font-stretch:normal;fill:#162d50;fill-opacity:1;stroke:none;stroke-width:1px;stroke-linecap:butt;stroke-linejoin:miter;stroke-opacity:1;font-family:UnBom;-inkscape-font-specification:UnBom Bold" />
    </g>
    <g
       id="g3493">
      <path
         id="path3206"
         style="fill:url(#linearGradient3491);fill-opacity:1;fill-rule:nonzero;stroke:none;stroke-width:0.70269495;stroke-linecap:butt;stroke-linejoin:miter;stroke-miterlimit:4;stroke-opacity:1"
         d="M 492.62061,34.905938 C 492.62061,26.574017 492.62061,116.76214 492.62061,125.09406 C 492.62061,133.42598 470.0798,140.18812 442.3063,140.18812 C 414.5328,140.18812 391.99198,133.42598 391.99198,125.09406 C 391.99198,116.76214 391.99198,26.574017 391.99198,34.905938 C 391.99198,43.237859 414.5328,49.999997 442.3063,49.999997 C 470.0798,49.999997 492.62061,43.237859 492.62061,34.905938 z"
         sodipodi:nodetypes="ccsccsc" />
      <path
         style="fill:#5fd38d;fill-opacity:1;fill-rule:nonzero;stroke:none;stroke-width:0.70269495;stroke-linecap:butt;stroke-linejoin:miter;stroke-miterlimit:4;stroke-opacity:1"
         d="M 492.62061,34.905939 C 492.62061,43.237859 470.0798,49.999998 442.3063,49.999998 C 414.5328,49.999998 391.99198,43.237859 391.99198,34.905939 C 391.99198,26.574018 414.5328,19.81188 442.3063,19.81188 C 470.0798,19.81188 492.62061,26.574018 492.62061,34.905939 z"
         id="path3208" />
      <path
         id="text3342"
         d="M 425.41368,86.130653 C 425.41367,87.129324 425.10309,87.877379 424.48192,88.374817 C 424.4541,88.399601 424.42165,88.423846 424.38457,88.447551 C 423.81902,88.858101 422.89008,88.961445 421.59588,88.772325 C 421.59588,88.772325 420.25316,88.542057 420.25316,88.542057 C 420.25316,88.542057 420.25316,92.098057 420.25316,92.098057 C 420.25316,92.098057 418.04251,91.73694 418.04251,91.73694 C 418.04251,91.73694 418.04251,89.33594 418.04251,86.93494 C 418.04251,84.53394 418.04251,82.13294 418.04251,82.13294 C 418.04251,82.13294 421.79001,82.723293 421.79001,82.723293 C 422.73292,82.854286 423.44353,83.093317 423.92565,83.410437 C 424.00908,83.466769 424.09252,83.527759 424.17597,83.593408 C 425.0011,84.258246 425.41367,85.103993 425.41368,86.130653 M 423.1628,85.937992 C 423.16279,85.088665 422.63124,84.59016 421.56814,84.442473 C 421.56814,84.442473 420.25316,84.244057 420.25316,84.244057 C 420.25316,84.244057 420.25316,86.792057 420.25316,86.792057 C 420.25316,86.792057 421.58201,86.992399 421.58201,86.992399 C 422.63586,87.138798 423.16279,86.78733 423.1628,85.937992 M 432.87624,90.230345 C 432.87624,90.230345 428.3254,89.894478 428.3254,89.894478 C 428.3254,89.894478 428.31146,90.313174 428.31146,90.313174 C 428.31146,90.313174 428.31146,90.327174 428.31146,90.327174 C 428.31146,90.924509 428.53912,91.370469 428.99447,91.665054 C 429.1989,91.796175 429.42657,91.873468 429.67747,91.896933 C 430.11422,91.937781 430.46362,91.790068 430.72445,91.470098 C 430.86417,91.29202 430.93403,91.09098 430.93404,90.866979 C 430.93404,90.866979 432.83432,91.123769 432.83432,91.123769 C 432.83431,91.31977 432.74116,91.561378 432.55487,91.848594 C 432.0239,92.777295 431.21815,93.283107 430.1376,93.36603 C 429.96061,93.383152 429.78433,93.376927 429.60778,93.360414 C 428.39044,93.246562 427.45531,92.732272 426.80633,91.779829 C 426.34276,91.100847 426.11098,90.313357 426.11098,89.417355 C 426.11098,88.148026 426.4994,87.213038 427.27998,86.576704 C 427.884,86.082535 428.64135,85.878034 429.55202,85.9632 C 430.89945,86.089226 431.86089,86.705282 432.42911,87.906865 C 432.72719,88.550523 432.87623,89.287681 432.87624,90.118345 C 432.87624,90.118345 432.87624,90.230345 432.87624,90.230345 M 430.82226,88.886109 C 430.76636,87.893345 430.36977,87.383687 429.63566,87.315022 C 428.83649,87.240284 428.39509,87.693668 428.31146,88.675174 C 428.31146,88.675174 430.82226,88.886109 430.82226,88.886109 M 437.92339,88.5274 C 437.92339,88.5274 437.78343,88.524568 437.78343,88.524568 C 436.87834,88.506255 436.35629,88.997565 436.21656,90.01564 C 436.1793,90.25602 436.16067,90.558208 436.16067,90.922205 C 436.16067,90.922205 436.16067,93.638205 436.16067,93.638205 C 436.16067,93.638205 434.10669,93.511968 434.10669,93.511968 C 434.10669,93.511968 434.10669,91.733968 434.10669,89.955968 C 434.10669,88.177968 434.10669,86.399968 434.10669,86.399968 C 434.10669,86.399968 436.02094,86.517617 436.02094,86.517617 C 436.02094,86.517617 436.02094,87.847617 436.02094,87.847617 C 436.02094,87.847617 436.04889,87.849335 436.04889,87.849335 C 436.31903,86.885944 436.7897,86.418463 437.46152,86.432052 C 437.56416,86.434137 437.71811,86.446586 437.92339,86.4694 C 437.92339,86.4694 437.92339,88.5274 437.92339,88.5274 M 444.5834,91.501767 C 444.58339,92.537768 444.06085,93.285616 443.01581,93.656465 C 442.53993,93.8335 442.00808,93.91607 441.42025,93.904173 C 439.78736,93.871125 438.74698,93.285403 438.29911,92.147004 C 438.25245,92.015395 438.21046,91.879212 438.17314,91.738455 C 438.17314,91.738455 439.95065,91.52243 439.95065,91.52243 C 440.05328,92.065842 440.47784,92.387101 441.2243,92.486207 C 441.31761,92.49743 441.41558,92.504079 441.51822,92.506156 C 442.05007,92.516921 442.42331,92.403142 442.63792,92.164817 C 442.72188,92.082519 442.76387,91.980701 442.76388,91.859367 C 442.76387,91.560701 442.56327,91.365308 442.16205,91.273186 C 442.16205,91.273186 441.9661,91.24122 441.9661,91.24122 C 440.86506,91.069606 440.09994,90.881454 439.67073,90.676765 C 438.85895,90.296338 438.45306,89.681457 438.45306,88.83212 C 438.45306,87.768126 438.98025,87.06013 440.03463,86.708129 C 440.47317,86.567679 440.95837,86.502832 441.49023,86.513589 C 442.7872,86.539845 443.67363,87.063009 444.14951,88.080305 C 444.14951,88.080305 444.28948,88.39955 444.28948,88.39955 C 444.28948,88.39955 442.76388,88.807367 442.76388,88.807367 C 442.59592,88.169306 442.13404,87.842625 441.37826,87.827323 C 440.70644,87.851065 440.35187,88.053889 440.31455,88.435795 C 440.31454,88.734467 440.57114,88.940326 441.08434,89.053374 C 441.08434,89.053374 442.73589,89.3528 442.73589,89.3528 C 443.73428,89.59701 444.32679,90.074153 444.51342,90.845144 C 444.56007,91.040229 444.58339,91.259103 444.5834,91.501767 M 452.2081,90.050123 C 452.20809,91.226125 451.82613,92.182269 451.06222,92.918555 C 450.44735,93.515275 449.68741,93.82333 448.78231,93.84114 C 447.54129,93.865561 446.61286,93.393831 445.99703,92.425949 C 445.60514,91.808329 445.40919,91.06552 445.40919,90.197517 C 445.40919,88.937522 445.80108,87.959144 446.58488,87.262381 C 447.17272,86.737488 447.9052,86.466407 448.78231,86.44914 C 450.06064,86.423992 451.00632,86.869233 451.62119,87.831173 C 452.01245,88.433145 452.20809,89.172794 452.2081,90.050123 M 450,90.191179 C 449.99999,89.267183 449.90668,88.63902 449.72007,88.306687 C 449.46812,87.994317 449.1602,87.82771 448.79631,87.806865 C 448.04049,87.821744 447.6486,88.478122 447.62061,89.776 C 447.62061,89.776 447.62061,90 447.62061,90 C 447.6206,91.166669 447.79323,91.909939 448.13848,92.22981 C 448.30643,92.394506 448.52104,92.474283 448.78231,92.46914 C 449.5661,92.453718 449.97199,91.773732 450,90.429179 C 449.99999,90.354515 449.99999,90.275182 450,90.191179 M 459.40992,92.999084 C 459.40992,92.999084 457.36257,93.206668 457.36257,93.206668 C 457.36257,93.206668 457.36257,89.020668 457.36257,89.020668 C 457.36257,88.311339 457.214,87.887736 456.91689,87.749856 C 456.91689,87.749856 456.63834,87.680099 456.63834,87.680099 C 456.63834,87.680099 456.42916,87.684041 456.42916,87.684041 C 455.69318,87.727999 455.32521,88.347307 455.32521,89.541969 C 455.32521,89.541969 455.32521,93.363969 455.32521,93.363969 C 455.32521,93.363969 453.27101,93.486646 453.27101,93.486646 C 453.27101,93.486646 453.27101,91.708646 453.27101,89.930646 C 453.27101,88.152646 453.27101,86.374646 453.27101,86.374646 C 453.27101,86.374646 455.21341,86.258646 455.21341,86.258646 C 455.21341,86.258646 455.21341,87.462646 455.21341,87.462646 C 455.21341,87.462646 455.24136,87.460977 455.24136,87.460977 C 455.60469,86.645952 456.16016,86.18859 456.90296,86.029268 C 457.02366,85.99837 457.14901,85.976328 457.279,85.963141 C 458.36535,85.853001 459.03386,86.26122 459.28457,87.187793 C 459.36812,87.52466 459.40991,87.963757 459.40992,88.505084 C 459.40992,88.505084 459.40992,92.999084 459.40992,92.999084"
         style="font-size:14px;font-style:normal;font-variant:normal;font-weight:bold;font-stretch:normal;fill:#0b2817;fill-opacity:1;stroke:none;stroke-width:1px;stroke-linecap:butt;stroke-linejoin:miter;stroke-opacity:1;font-family:UnBom;-inkscape-font-specification:UnBom Bold" />
    </g>
    <g
       id="g3701"
       transform="translate(-11.153305,-10.329957)">
      <rect
         style="opacity:1;fill:#999999;fill-opacity:1;fill-rule:nonzero;stroke:#999999;stroke-width:1;stroke-linecap:butt;stroke-linejoin:miter;stroke-miterlimit:4;stroke-dasharray:none;stroke-opacity:1;filter:url(#filter3697)"
         id="rect3498"
         width="150"
         height="75"
         x="190"
         y="55"
         ry="6.7218855e-07" />
      <rect
         ry="6.7218855e-07"
         y="50.159912"
         x="182.90891"
         height="75"
         width="150"
         id="rect3462"
         style="opacity:1;fill:url(#linearGradient3707);fill-opacity:1;fill-rule:nonzero;stroke:none;stroke-width:1;stroke-linecap:butt;stroke-linejoin:miter;stroke-miterlimit:4;stroke-dasharray:none;stroke-opacity:1" />
      <text
         id="text3466"
         y="91.285912"
         x="205.19836"
         style="font-size:14px;font-style:normal;font-variant:normal;font-weight:bold;font-stretch:normal;fill:#501644;fill-opacity:1;stroke:none;stroke-width:1px;stroke-linecap:butt;stroke-linejoin:miter;stroke-opacity:1;font-family:UnBom;-inkscape-font-specification:UnBom Bold"
         xml:space="preserve"><tspan
           y="91.285912"
           x="205.19836"
           id="tspan3468"
           sodipodi:role="line">Inference Engine</tspan></text>
    </g>
    <g
       id="g6114">
      <g
         transform="translate(-2.1988525,0)"
         id="g3753">
        <rect
           ry="6.7218855e-07"
           y="185"
           x="205"
           height="50"
           width="100"
           id="rect3709"
           style="opacity:1;fill:#999999;fill-opacity:1;fill-rule:nonzero;stroke:#999999;stroke-width:1;stroke-linecap:butt;stroke-linejoin:miter;stroke-miterlimit:4;stroke-dasharray:none;stroke-opacity:1;filter:url(#filter3749)" />
        <rect
           style="opacity:1;fill:url(#linearGradient6121);fill-opacity:1;fill-rule:nonzero;stroke:none;stroke-width:1;stroke-linecap:butt;stroke-linejoin:miter;stroke-miterlimit:4;stroke-dasharray:none;stroke-opacity:1"
           id="rect3464"
           width="100"
           height="50"
           x="200"
           y="180"
           ry="6.7218855e-07" />
        <text
           xml:space="preserve"
           style="font-size:14px;font-style:normal;font-variant:normal;font-weight:bold;font-stretch:normal;fill:#554400;fill-opacity:1;stroke:none;stroke-width:1px;stroke-linecap:butt;stroke-linejoin:miter;stroke-opacity:1;font-family:UnBom;-inkscape-font-specification:UnBom Bold"
           x="229.59467"
           y="209.73199"
           id="text3470"><tspan
             sodipodi:role="line"
             id="tspan3472"
             x="229.59467"
             y="209.73199">Result</tspan></text>
      </g>
    </g>
    <path
       style="fill:none;fill-rule:evenodd;stroke:#808080;stroke-width:6;stroke-linecap:butt;stroke-linejoin:miter;marker-end:url(#Arrow2Send);stroke-miterlimit:4;stroke-dasharray:none;stroke-opacity:1"
       d="M 109.26033,79.999999 L 171.7556,79.999999"
       id="path3759"
       inkscape:connector-type="polyline"
       inkscape:connection-start="#g3481"
       inkscape:connection-end="#g3701" />
    <path
       style="fill:none;fill-rule:evenodd;stroke:#808080;stroke-width:6;stroke-linecap:butt;stroke-linejoin:miter;marker-end:url(#Arrow2Send);stroke-miterlimit:4;stroke-dasharray:none;stroke-opacity:1"
       d="M 391.99198,79.999999 L 329.3467,79.999999"
       id="path5064"
       inkscape:connector-type="polyline"
       inkscape:connection-start="#g3493"
       inkscape:connection-end="#g3701" />
    <path
       style="fill:none;fill-rule:evenodd;stroke:#808080;stroke-width:6;stroke-linecap:butt;stroke-linejoin:miter;marker-end:url(#Arrow2Send);stroke-miterlimit:4;stroke-dasharray:none;stroke-opacity:1"
       d="M 250.55115,120.17004 L 250.55115,180"
       id="path5587"
       inkscape:connector-type="polyline"
       inkscape:connection-start="#g3701"
       inkscape:connection-end="#g3753" />
  </g>
</svg>
