<?xml version="1.0" encoding="UTF-8" standalone="no"?>
<!-- Generator: Adobe Illustrator 16.0.0, SVG Export Plug-In . SVG Version: 6.00 Build 0)  -->

<svg
   xmlns:dc="http://purl.org/dc/elements/1.1/"
   xmlns:cc="http://creativecommons.org/ns#"
   xmlns:rdf="http://www.w3.org/1999/02/22-rdf-syntax-ns#"
   xmlns:svg="http://www.w3.org/2000/svg"
   xmlns="http://www.w3.org/2000/svg"
   xmlns:sodipodi="http://sodipodi.sourceforge.net/DTD/sodipodi-0.dtd"
   xmlns:inkscape="http://www.inkscape.org/namespaces/inkscape"
   version="1.1"
   id="Layer_1"
   x="0px"
   y="0px"
   width="600px"
   height="103.333px"
   viewBox="0 0 600 103.333"
   enable-background="new 0 0 600 103.333"
   xml:space="preserve"
   inkscape:version="0.48.3.1 r9886"
   sodipodi:docname="optaPlannerLogo.svg"
   inkscape:export-filename="optaPlannerLogo.png"
   inkscape:export-xdpi="90"
   inkscape:export-ydpi="90"><metadata
   id="metadata169"><rdf:RDF><cc:Work
       rdf:about=""><dc:format>image/svg+xml</dc:format><dc:type
         rdf:resource="http://purl.org/dc/dcmitype/StillImage" /><dc:title></dc:title></cc:Work></rdf:RDF></metadata><defs
   id="defs167" /><sodipodi:namedview
   pagecolor="#ffffff"
   bordercolor="#666666"
   borderopacity="1"
   objecttolerance="10"
   gridtolerance="10"
   guidetolerance="10"
   inkscape:pageopacity="0"
   inkscape:pageshadow="2"
   inkscape:window-width="1680"
   inkscape:window-height="991"
   id="namedview165"
   showgrid="false"
   inkscape:zoom="1.1766667"
   inkscape:cx="328.47559"
   inkscape:cy="13.160427"
   inkscape:window-x="0"
   inkscape:window-y="27"
   inkscape:window-maximized="1"
   inkscape:current-layer="Layer_1" />
<g
   id="g3">
	<g
   id="g5">
		<path
   fill="#454545"
   d="M40.835,6.287c21.367,0,36.206,15.432,36.206,36.799S62.203,79.886,40.835,79.886    c-21.368,0-36.206-15.432-36.206-36.799S19.468,6.287,40.835,6.287z M40.835,73.95c18.3,0,29.677-13.454,29.677-30.864    c0-17.411-11.376-30.864-29.677-30.864c-18.301,0-29.677,13.453-29.677,30.864C11.158,60.497,22.535,73.95,40.835,73.95z"
   id="path7" />
		<path
   fill="#454545"
   d="M84.258,32.403h5.935v8.013h0.198c3.66-6.331,11.475-9.2,18.3-9.2c14.047,0,24.039,10.09,24.039,24.038    s-9.991,24.038-24.039,24.038c-6.826,0-14.64-2.869-18.3-9.2h-0.198v30.567h-5.935V32.403z M108.692,73.95    c11.179,0,18.103-8.408,18.103-18.696s-6.924-18.696-18.103-18.696c-10.782,0-19.092,8.408-19.092,18.696    S97.91,73.95,108.692,73.95z"
   id="path9" />
		<path
   fill="#454545"
   d="M163.887,37.745h-13.058V67.52c0,4.056,2.375,6.43,6.331,6.43c2.275,0,4.649-0.692,6.727-1.583    l0.495,5.342c-2.176,0.791-5.441,1.583-7.716,1.583c-8.507,0-11.771-5.243-11.771-11.772V37.745h-9.893v-5.342h9.893V19.246h5.935    v13.157h13.058V37.745z"
   id="path11" />
		<path
   fill="#454545"
   d="M205.531,58.914c0,8.903,0.198,13.948,0.89,19.191h-5.54c-0.396-2.275-0.594-4.847-0.594-7.419h-0.198    c-3.363,5.837-8.31,8.606-16.025,8.606c-7.815,0-16.125-3.858-16.125-13.552c0-13.948,16.322-15.333,25.324-15.333h6.925v-2.77    c0-7.914-5.54-11.079-12.86-11.079c-5.342,0-9.892,1.682-13.948,5.144l-3.462-4.056c4.353-4.155,11.475-6.43,17.41-6.43    c11.08,0,18.202,4.946,18.202,16.52V58.914z M193.66,55.155c-9.892,0-19.784,2.473-19.784,10.288c0,5.639,5.44,8.507,10.387,8.507    c12.662,0,15.927-8.112,15.927-15.729v-3.067H193.66z"
   id="path13" />
		<path
   fill="#454545"
   d="M218.586,8.068h20.18c9.892,0,22.554,3.858,22.554,18.499c0,12.662-10.09,18.301-21.07,18.301h-15.135    v33.238h-6.529V8.068z M225.115,38.932h14.838c7.419,0,14.838-3.166,14.838-12.365c0-9.002-7.716-12.563-15.234-12.563h-14.442    V38.932z"
   id="path15" />
		<path
   fill="#454545"
   d="M270.219,3.319h5.936v74.786h-5.936V3.319z"
   id="path17" />
		<path
   fill="#454545"
   d="M324.031,58.914c0,8.903,0.197,13.948,0.891,19.191h-5.54c-0.396-2.275-0.594-4.847-0.594-7.419h-0.198    c-3.363,5.837-8.309,8.606-16.025,8.606c-7.814,0-16.124-3.858-16.124-13.552c0-13.948,16.322-15.333,25.324-15.333h6.925v-2.77    c0-7.914-5.54-11.079-12.86-11.079c-5.342,0-9.892,1.682-13.948,5.144l-3.462-4.056c4.353-4.155,11.475-6.43,17.41-6.43    c11.079,0,18.202,4.946,18.202,16.52V58.914z M312.16,55.155c-9.892,0-19.784,2.473-19.784,10.288    c0,5.639,5.44,8.507,10.387,8.507c12.662,0,15.927-8.112,15.927-15.729v-3.067H312.16z"
   id="path19" />
		<path
   fill="#454545"
   d="M335.404,45.263c0-3.363-0.495-10.486-0.495-12.86h5.936c0.099,3.363,0.198,7.122,0.396,8.013h0.297    c2.374-5.045,8.211-9.2,15.63-9.2c14.245,0,17.41,9.694,17.41,19.686v27.204h-5.935V51.198c0-7.419-2.078-14.641-11.476-14.641    c-8.804,0-15.827,6.133-15.827,18.696v22.851h-5.936V45.263z"
   id="path21" />
		<path
   fill="#454545"
   d="M385.951,45.263c0-3.363-0.495-10.486-0.495-12.86h5.936c0.099,3.363,0.198,7.122,0.396,8.013h0.297    c2.374-5.045,8.211-9.2,15.63-9.2c14.245,0,17.41,9.694,17.41,19.686v27.204h-5.935V51.198c0-7.419-2.078-14.641-11.476-14.641    c-8.804,0-15.827,6.133-15.827,18.696v22.851h-5.936V45.263z"
   id="path23" />
		<path
   fill="#454545"
   d="M476.858,69.499c-4.649,6.925-11.673,9.793-19.784,9.793c-13.948,0-23.148-9.991-23.148-24.137    c0-13.651,9.497-23.939,22.852-23.939c14.047,0,21.466,10.782,21.466,21.367v4.155h-38.382c0,4.946,3.462,17.212,17.312,17.212    c6.034,0,12.365-3.166,15.333-8.112L476.858,69.499z M472.308,51.396c0-8.112-7.023-14.838-15.827-14.838    c-12.959,0-16.619,12.464-16.619,14.838H472.308z"
   id="path25" />
		<path
   fill="#454545"
   d="M487.045,45.263c0-3.363-0.495-10.486-0.495-12.86h5.936c0.099,3.363,0.198,7.122,0.396,8.013    c2.968-5.342,7.716-9.2,14.542-9.2c1.187,0,2.275,0.198,3.462,0.495l-0.692,5.836c-0.89-0.297-1.682-0.396-2.275-0.396    c-10.287,0-14.937,7.123-14.937,16.025v24.929h-5.936V45.263z"
   id="path27" />
	</g>
	<g
   id="g29">
		<path
   fill="#DCE9C5"
   d="M598.046,31.012c0.002-3.095-0.964-6.263-2.934-8.934l-0.003-0.004c-2.948-4.007-7.555-6.161-12.166-6.153    c-1.125-0.002-2.26,0.13-3.375,0.389c-6.528-4.405-14.188-6.707-21.896-6.701c-5.219-0.003-10.483,1.066-15.44,3.205l-4.632-6.238    l-4.726,10.9l-0.712,1.644c-8.872,7.637-13.577,18.58-13.568,29.619c-0.003,3.754,0.563,7.533,1.666,11.207    c-1.359,2.328-2.084,4.961-2.079,7.604c-0.003,3.1,0.97,6.27,2.938,8.941c2.941,3.998,7.53,6.154,12.137,6.154    c0.012,0,0.02,0,0.031,0c1.352,0,2.713-0.195,4.043-0.566c6.188,3.771,13.268,5.744,20.397,5.738c0.002,0,0.008,0,0.014,0    c4.942,0,9.928-0.951,14.654-2.869l4.784,6.566l5.722-12.908c9.087-7.66,13.905-18.738,13.896-29.914    c0.002-3.166-0.399-6.348-1.179-9.469C597.217,36.754,598.051,33.889,598.046,31.012z"
   id="path31" />
		<g
   id="g33">
			<g
   id="g35">
				
					<radialGradient
   id="SVGID_1_"
   cx="465.0547"
   cy="37.4385"
   r="62.0662"
   gradientTransform="matrix(1.2008 0 0 1.2008 -2.6494 5.1397)"
   gradientUnits="userSpaceOnUse">
					<stop
   offset="0"
   style="stop-color:#558B3E"
   id="stop38" />
					<stop
   offset="1"
   style="stop-color:#C4DE8F"
   id="stop40" />
				</radialGradient>
				<path
   fill="url(#SVGID_1_)"
   d="M531.738,67.549c2.389-4.428,5.776-8.404,10.089-11.574l0,0c6.254-4.605,13.547-6.83,20.764-6.83      l0,0c4.927,0,9.82,1.031,14.349,3.051l0,0l-1.549,3.48c-4.037-1.797-8.404-2.719-12.8-2.719l0,0      c-6.438,0.002-12.917,1.977-18.506,6.088l0,0c-3.852,2.832-6.862,6.375-8.993,10.314l0,0l0.003,0.004L531.738,67.549      L531.738,67.549z"
   id="path42" />
			</g>
			
				<radialGradient
   id="SVGID_2_"
   cx="465.0547"
   cy="37.4375"
   r="62.0712"
   gradientTransform="matrix(1.2008 0 0 1.2008 -2.6494 5.1397)"
   gradientUnits="userSpaceOnUse">
				<stop
   offset="0"
   style="stop-color:#558B3E"
   id="stop45" />
				<stop
   offset="1"
   style="stop-color:#C4DE8F"
   id="stop47" />
			</radialGradient>
			<polygon
   fill="url(#SVGID_2_)"
   points="548.099,50.348 555.788,51.621 550.843,57.641    "
   id="polygon49" />
			<g
   id="g51">
				
					<radialGradient
   id="SVGID_3_"
   cx="555.8438"
   cy="50.1992"
   r="74.1949"
   gradientTransform="matrix(1.0045 0 0 1.0045 -2.5566 -0.3306)"
   gradientUnits="userSpaceOnUse">
					<stop
   offset="0"
   style="stop-color:#558B3E"
   id="stop54" />
					<stop
   offset="1"
   style="stop-color:#C4DE8F"
   id="stop56" />
				</radialGradient>
				<path
   fill="url(#SVGID_3_)"
   d="M531.726,67.816c-10.545-14.348-7.469-34.523,6.874-45.072l0,0      c14.349-10.55,34.522-7.47,45.071,6.877l0,0c10.546,14.342,7.472,34.518-6.871,45.068l0,0      C562.453,85.236,542.276,82.156,531.726,67.816L531.726,67.816z M535.139,65.305c9.183,12.443,26.673,15.115,39.149,5.971l0,0      c12.442-9.18,15.108-26.672,5.971-39.146l0,0c-9.184-12.444-26.674-15.112-39.147-5.973l0,0      C528.665,35.342,526.001,52.83,535.139,65.305L535.139,65.305z"
   id="path58" />
			</g>
			<g
   id="g60">
				<g
   id="g62">
					
						<radialGradient
   id="SVGID_4_"
   cx="465.0547"
   cy="37.438"
   r="62.0649"
   gradientTransform="matrix(1.2008 0 0 1.2008 -2.6494 5.1397)"
   gradientUnits="userSpaceOnUse">
						<stop
   offset="0"
   style="stop-color:#558B3E"
   id="stop65" />
						<stop
   offset="1"
   style="stop-color:#C4DE8F"
   id="stop67" />
					</radialGradient>
					<path
   fill="url(#SVGID_4_)"
   d="M528.042,63.949l0.074-1.902c0.468-11.867,6.155-23.447,16.473-31.035l0,0       c7.217-5.305,15.631-7.871,23.956-7.871l0,0c3.103,0,6.195,0.354,9.213,1.062l0,0l1.853,0.431l-1.264,5.461l-3.717-0.863       l0.397-1.701c-2.14-0.385-4.309-0.576-6.482-0.576l0,0c-7.545,0-15.152,2.318-21.699,7.133l0,0       c-8.798,6.471-13.868,16.127-14.793,26.213l0,0l1.745,0.068v0.002l-0.154,3.805L528.042,63.949L528.042,63.949z"
   id="path69" />
				</g>
			</g>
			<g
   id="g71">
				
					<radialGradient
   id="SVGID_5_"
   cx="555.8428"
   cy="50.2012"
   r="74.1957"
   gradientTransform="matrix(1.0045 0 0 1.0045 -2.5566 -0.3306)"
   gradientUnits="userSpaceOnUse">
					<stop
   offset="0"
   style="stop-color:#558B3E"
   id="stop74" />
					<stop
   offset="1"
   style="stop-color:#C4DE8F"
   id="stop76" />
				</radialGradient>
				<path
   fill="url(#SVGID_5_)"
   d="M530.626,69.488l1.1-4.094c11.333,3.053,23.88,1.109,34.065-6.381l0,0      c9.781-7.193,15.329-17.992,16.165-29.225l0,0l4.226,0.312c-0.922,12.41-7.066,24.377-17.881,32.326l0,0      C557.043,70.707,543.144,72.857,530.626,69.488L530.626,69.488z M530.623,69.484c0.002,0.002,0.002,0.002,0.003,0.004l0,0l0,0      L530.623,69.484L530.623,69.484z"
   id="path78" />
			</g>
			
				<radialGradient
   id="SVGID_6_"
   cx="465.0508"
   cy="37.4307"
   r="62.0462"
   gradientTransform="matrix(1.2008 0 0 1.2008 -2.6494 5.1397)"
   gradientUnits="userSpaceOnUse">
				<stop
   offset="0"
   style="stop-color:#558B3E"
   id="stop81" />
				<stop
   offset="1"
   style="stop-color:#C4DE8F"
   id="stop83" />
			</radialGradient>
			<polygon
   fill="url(#SVGID_6_)"
   points="539.174,20.208 543.815,26.464 536.074,27.354    "
   id="polygon85" />
			
				<radialGradient
   id="SVGID_7_"
   cx="465.0518"
   cy="37.4375"
   r="62.0596"
   gradientTransform="matrix(1.2008 0 0 1.2008 -2.6494 5.1397)"
   gradientUnits="userSpaceOnUse">
				<stop
   offset="0"
   style="stop-color:#558B3E"
   id="stop88" />
				<stop
   offset="1"
   style="stop-color:#C4DE8F"
   id="stop90" />
			</radialGradient>
			<polygon
   fill="url(#SVGID_7_)"
   points="544.689,28.535 549.33,34.795 541.591,35.686    "
   id="polygon92" />
			
				<radialGradient
   id="SVGID_8_"
   cx="465.0547"
   cy="37.4375"
   r="62.0644"
   gradientTransform="matrix(1.2008 0 0 1.2008 -2.6494 5.1397)"
   gradientUnits="userSpaceOnUse">
				<stop
   offset="0"
   style="stop-color:#558B3E"
   id="stop95" />
				<stop
   offset="1"
   style="stop-color:#C4DE8F"
   id="stop97" />
			</radialGradient>
			<polygon
   fill="url(#SVGID_8_)"
   points="571.136,71.566 575.724,77.863 578.883,70.74    "
   id="polygon99" />
			
				<radialGradient
   id="SVGID_9_"
   cx="465.0537"
   cy="37.4409"
   r="62.0564"
   gradientTransform="matrix(1.2008 0 0 1.2008 -2.6494 5.1397)"
   gradientUnits="userSpaceOnUse">
				<stop
   offset="0"
   style="stop-color:#558B3E"
   id="stop102" />
				<stop
   offset="1"
   style="stop-color:#C4DE8F"
   id="stop104" />
			</radialGradient>
			<polygon
   fill="url(#SVGID_9_)"
   points="551.264,63.885 553.935,71.205 558.94,65.232    "
   id="polygon106" />
			
				<radialGradient
   id="SVGID_10_"
   cx="461.502"
   cy="14.5303"
   r="13.0343"
   gradientTransform="matrix(1.1117 0 0 1.1117 19.8594 50.7172)"
   gradientUnits="userSpaceOnUse">
				<stop
   offset="0"
   style="stop-color:#558B3E"
   id="stop109" />
				<stop
   offset="0.3134"
   style="stop-color:#588C3F"
   id="stop111" />
				<stop
   offset="0.4865"
   style="stop-color:#5F9042"
   id="stop113" />
				<stop
   offset="0.6255"
   style="stop-color:#6C9849"
   id="stop115" />
				<stop
   offset="0.7463"
   style="stop-color:#7DA454"
   id="stop117" />
				<stop
   offset="0.8553"
   style="stop-color:#93B467"
   id="stop119" />
				<stop
   offset="0.9543"
   style="stop-color:#B1CC7F"
   id="stop121" />
				<stop
   offset="1"
   style="stop-color:#C4DE8F"
   id="stop123" />
			</radialGradient>
			<circle
   fill="url(#SVGID_10_)"
   cx="533.283"
   cy="67.546"
   r="8.234"
   id="circle125" />
			
				<radialGradient
   id="SVGID_11_"
   cx="506.7725"
   cy="-18.3921"
   r="18.0057"
   gradientTransform="matrix(1.1117 0 0 1.1117 19.8594 50.7172)"
   gradientUnits="userSpaceOnUse">
				<stop
   offset="0"
   style="stop-color:#558B3E"
   id="stop128" />
				<stop
   offset="0.3134"
   style="stop-color:#588C3F"
   id="stop130" />
				<stop
   offset="0.4865"
   style="stop-color:#5F9042"
   id="stop132" />
				<stop
   offset="0.6255"
   style="stop-color:#6C9849"
   id="stop134" />
				<stop
   offset="0.7463"
   style="stop-color:#7DA454"
   id="stop136" />
				<stop
   offset="0.8553"
   style="stop-color:#93B467"
   id="stop138" />
				<stop
   offset="0.9543"
   style="stop-color:#B1CC7F"
   id="stop140" />
				<stop
   offset="1"
   style="stop-color:#C4DE8F"
   id="stop142" />
			</radialGradient>
			<path
   fill="url(#SVGID_11_)"
   d="M589.583,26.144c2.696,3.667,1.909,8.821-1.753,11.515c-3.663,2.693-8.819,1.91-11.513-1.756     c-2.694-3.664-1.908-8.818,1.756-11.512C581.736,21.696,586.89,22.482,589.583,26.144z"
   id="path144" />
			
				<radialGradient
   id="SVGID_12_"
   cx="497.1689"
   cy="2.1851"
   r="15.105"
   gradientTransform="matrix(1.1117 0 0 1.1117 19.8594 50.7172)"
   gradientUnits="userSpaceOnUse">
				<stop
   offset="0"
   style="stop-color:#558B3E"
   id="stop147" />
				<stop
   offset="0.3134"
   style="stop-color:#588C3F"
   id="stop149" />
				<stop
   offset="0.4865"
   style="stop-color:#5F9042"
   id="stop151" />
				<stop
   offset="0.6255"
   style="stop-color:#6C9849"
   id="stop153" />
				<stop
   offset="0.7463"
   style="stop-color:#7DA454"
   id="stop155" />
				<stop
   offset="0.8553"
   style="stop-color:#93B467"
   id="stop157" />
				<stop
   offset="0.9543"
   style="stop-color:#B1CC7F"
   id="stop159" />
				<stop
   offset="1"
   style="stop-color:#C4DE8F"
   id="stop161" />
			</radialGradient>
			<circle
   fill="url(#SVGID_12_)"
   cx="573.604"
   cy="53.608"
   r="8.234"
   id="circle163" />
		</g>
	</g>
</g>
</svg>