<?xml version="1.0" encoding="UTF-8" standalone="no"?>
<!DOCTYPE svg PUBLIC "-//W3C//DTD SVG 1.0//EN" "http://www.w3.org/TR/2001/REC-SVG-20010904/DTD/svg10.dtd">
<!-- Generated by Microsoft Visio 11.0, SVG Export, v1.0 multiRestriction.svg Page-1 -->
<svg xmlns="http://www.w3.org/2000/svg" xmlns:v="http://schemas.microsoft.com/visio/2003/SVGExtensions/" width="2.3295in"
		height="0.863263in" viewBox="0 0 167.724 62.1549" xml:space="preserve" color-interpolation-filters="sRGB" class="st6">
	<v:documentProperties v:langID="1033" v:metric="true" v:viewMarkup="false"/>

	<style type="text/css">
	<![CDATA[
		.st1 {fill:#e8eef7;stroke:#000000;stroke-linecap:round;stroke-linejoin:round;stroke-width:0.24}
		.st2 {fill:#000000;font-family:Arial;font-size:0.666664em;font-style:italic}
		.st3 {marker-end:url(#mrkr2-11);stroke:#4677bf;stroke-linecap:round;stroke-linejoin:round;stroke-width:0.24}
		.st4 {fill:#4677bf;fill-opacity:1;stroke:#4677bf;stroke-opacity:1;stroke-width:0.08695652173913}
		.st5 {fill:#000000;font-family:Arial;font-size:0.666664em}
		.st6 {fill:none;fill-rule:evenodd;font-size:12;overflow:visible;stroke-linecap:square;stroke-miterlimit:3}
	]]>
	</style>

	<defs id="Markers">
		<g id="lend2">
			<path d="M 1 1 L 0 0 L 1 -1 L 1 1 " style="stroke:none"/>
		</g>
		<marker id="mrkr2-11" class="st4" v:arrowType="2" v:arrowSize="2" v:setback="11.5" refX="-11.5" orient="auto"
				markerUnits="strokeWidth">
			<use xlink:href="#lend2" transform="scale(-11.5,-11.5) "/>
		</marker>
	</defs>
	<g v:mID="0" v:index="1" v:groupContext="foregroundPage">
		<title>Page-1</title>
		<v:pageProperties v:drawingScale="0.0393701" v:pageScale="0.0393701" v:drawingUnits="24" v:shadowOffsetX="8.50394"
				v:shadowOffsetY="-8.50394"/>
		<v:layer v:name="Connector" v:index="0"/>
		<v:layer v:name="Flowchart" v:index="1"/>
		<g id="shape60-1" v:mID="60" v:groupContext="shape" v:layerMember="0;1" transform="translate(156.02,-25.7518)">
			<title>On-page reference.60</title>
			<v:userDefs>
				<v:ud v:nameU="visVersion" v:val="VT0(11):26"/>
			</v:userDefs>
			<v:textBlock v:margins="rect(2,2,2,2)" v:tabSpace="42.5197"/>
			<path d="M0 56.42 A5.73228 5.73228 0 0 1 11.46 56.42 A5.73228 5.73228 0 1 1 0 56.42 Z" class="st1"/>
		</g>
		<g id="shape61-3" v:mID="61" v:groupContext="shape" v:layerMember="1" transform="translate(56.8695,-48.8126)">
			<title>Process.61</title>
			<desc>restriction</desc>
			<v:custProps>
				<v:cp v:nameU="Cost" v:lbl="Cost" v:type="7" v:format="@" v:langID="1033"/>
				<v:cp v:nameU="Duration" v:lbl="Duration" v:type="2" v:langID="1033"/>
				<v:cp v:nameU="Resources" v:lbl="Resources" v:langID="1033"/>
			</v:custProps>
			<v:userDefs>
				<v:ud v:nameU="visVersion" v:val="VT0(11):26"/>
			</v:userDefs>
			<v:textBlock v:margins="rect(2,2,2,2)" v:tabSpace="42.5197"/>
			<v:textRect cx="31.0372" cy="55.6038" width="62.08" height="13.1024"/>
			<rect x="0" y="49.0526" width="62.0744" height="13.1024" rx="2.83465" ry="2.83465" class="st1"/>
			<text x="13.69" y="58" class="st2" v:langID="2057"><v:paragraph v:horizAlign="1"/><v:tabList/>restriction</text>		</g>
		<g id="shape64-6" v:mID="64" v:groupContext="shape" v:layerMember="0" transform="translate(11.7046,-31.4841)">
			<title>Dynamic connector.64</title>
			<path d="M0 62.15 L14.05 62.15 A5.66929 5.66929 -180 0 0 19.72 56.49 L19.72 43.94 A5.66929 5.66929 0 0 1 25.39 38.28
						 L42.4 38.28" class="st3"/>
		</g>
		<g id="shape65-12" v:mID="65" v:groupContext="shape" v:layerMember="0" transform="translate(118.944,-55.3638)">
			<title>Dynamic connector.65</title>
			<path d="M0 62.15 L18.54 62.15 A5.66929 5.66929 0 0 1 24.21 67.82 L24.21 80.37 A5.66929 5.66929 -180 0 0 29.88 86.03
						 L34.32 86.03" class="st3"/>
		</g>
		<g id="shape68-17" v:mID="68" v:groupContext="shape" v:layerMember="0;1" transform="translate(0.24,-25.7518)">
			<title>On-page reference.68</title>
			<v:userDefs>
				<v:ud v:nameU="visVersion" v:val="VT0(11):26"/>
			</v:userDefs>
			<v:textBlock v:margins="rect(2,2,2,2)" v:tabSpace="42.5197"/>
			<path d="M0 56.42 A5.73228 5.73228 0 0 1 11.46 56.42 A5.73228 5.73228 0 1 1 0 56.42 Z" class="st1"/>
		</g>
		<g id="shape69-19" v:mID="69" v:groupContext="shape" v:layerMember="1" transform="translate(65.4369,-24.3345)">
			<title>Process.69</title>
			<desc>‘&#38;&#38;’ | ‘||’</desc>
			<v:custProps>
				<v:cp v:nameU="Cost" v:lbl="Cost" v:type="7" v:format="@" v:langID="1033"/>
				<v:cp v:nameU="Duration" v:lbl="Duration" v:type="2" v:langID="1033"/>
				<v:cp v:nameU="Resources" v:lbl="Resources" v:langID="1033"/>
			</v:custProps>
			<v:userDefs>
				<v:ud v:nameU="visVersion" v:val="VT0(11):26"/>
			</v:userDefs>
			<v:textBlock v:margins="rect(2,2,2,2)" v:tabSpace="42.5197"/>
			<v:textRect cx="22.6772" cy="55.032" width="45.36" height="14.2459"/>
			<rect x="0" y="47.909" width="45.3543" height="14.2459" rx="2.83465" ry="2.83465" class="st1"/>
			<text x="8.44" y="57.43" class="st5" v:langID="2057"><v:paragraph v:horizAlign="1"/><v:tabList/>‘&#38;&#38;’ | ‘||’</text>		</g>
		<g id="shape144-22" v:mID="144" v:groupContext="shape" v:layerMember="0" transform="translate(118.944,-55.3638)">
			<title>Dynamic connector.144</title>
			<path d="M0 62.15 L18.54 62.15 A5.66929 5.66929 0 0 1 24.21 67.82 L24.21 80.37 A5.66929 5.66929 -180 0 0 29.88 86.03
						 L34.32 86.03" class="st3"/>
		</g>
		<g id="shape145-27" v:mID="145" v:groupContext="shape" v:layerMember="0" transform="translate(121.954,-55.3638)">
			<title>Dynamic connector.145</title>
			<path d="M-3.01 62.15 L2.3 62.15 A5.31496 5.31496 0 0 1 7.62 67.47 L7.62 80.39 A5.66929 5.66929 0 0 1 1.95 86.06 L-8.4
						 86.06" class="st3"/>
		</g>
		<g id="shape146-32" v:mID="146" v:groupContext="shape" v:layerMember="0" transform="translate(68.2398,-31.4574)">
			<title>Dynamic connector.146</title>
			<path d="M-2.8 62.15 L-16.33 62.15 A5.66929 5.66929 0 0 1 -22 56.49 L-22 43.56 A5.31496 5.31496 0 0 1 -16.69 38.25 L-14.13
						 38.25" class="st3"/>
		</g>
		<g id="shape29-37" v:mID="29" v:groupContext="shape" v:layerMember="1" transform="translate(57.0768,-0.24)">
			<title>Process.29</title>
			<desc>restrictionGroup</desc>
			<v:custProps>
				<v:cp v:nameU="Cost" v:lbl="Cost" v:type="7" v:format="@" v:langID="1033"/>
				<v:cp v:nameU="Duration" v:lbl="Duration" v:type="2" v:langID="1033"/>
				<v:cp v:nameU="Resources" v:lbl="Resources" v:langID="1033"/>
			</v:custProps>
			<v:userDefs>
				<v:ud v:nameU="visVersion" v:val="VT0(11):26"/>
			</v:userDefs>
			<v:textBlock v:margins="rect(2,2,2,2)" v:tabSpace="42.5197"/>
			<v:textRect cx="31.0372" cy="55.6038" width="62.08" height="13.1024"/>
			<rect x="0" y="49.0526" width="62.0744" height="13.1024" rx="2.83465" ry="2.83465" class="st1"/>
			<text x="2.57" y="58" class="st2" v:langID="2057"><v:paragraph v:horizAlign="1"/><v:tabList/>restrictionGroup</text>		</g>
		<g id="shape30-40" v:mID="30" v:groupContext="shape" v:layerMember="0" transform="translate(122.058,-6.79118)">
			<title>Dynamic connector.30</title>
			<path d="M-2.91 62.15 L2.41 62.15 A5.31496 5.31496 -180 0 0 7.72 56.84 L7.72 43.16 A5.66929 5.66929 -180 0 0 2.05 37.49
						 L-8.51 37.49" class="st3"/>
		</g>
		<g id="shape31-45" v:mID="31" v:groupContext="shape" v:layerMember="0" transform="translate(68.3435,-31.4574)">
			<title>Dynamic connector.31</title>
			<path d="M-2.91 62.15 L-16.23 62.15 A5.66929 5.66929 -180 0 0 -21.9 67.82 L-21.9 81.51 A5.31496 5.31496 -180 0 0 -16.58
						 86.82 L-14.03 86.82" class="st3"/>
		</g>
		<g id="shape32-50" v:mID="32" v:groupContext="shape" v:layerMember="0" transform="translate(11.7046,-31.4841)">
			<title>Dynamic connector.32</title>
			<path d="M0 62.15 L14.05 62.15 A5.66929 5.66929 0 0 1 19.72 67.82 L19.72 81.18 A5.66929 5.66929 -180 0 0 25.39 86.85
						 L42.61 86.85" class="st3"/>
		</g>
		<g id="shape33-55" v:mID="33" v:groupContext="shape" v:layerMember="0" transform="translate(119.151,-6.79118)">
			<title>Dynamic connector.33</title>
			<path d="M0 62.15 L18.54 62.15 A5.66929 5.66929 -180 0 0 24.21 56.49 L24.21 43.13 A5.66929 5.66929 0 0 1 29.88 37.46
						 L34.11 37.46" class="st3"/>
		</g>
	</g>
</svg>
