<?xml version="1.0" encoding="UTF-8" standalone="no"?>
<!DOCTYPE svg PUBLIC "-//W3C//DTD SVG 1.0//EN" "http://www.w3.org/TR/2001/REC-SVG-20010904/DTD/svg10.dtd">
<!-- Generated by Microsoft Visio 11.0, SVG Export, v1.0 Tables.svg Page-1 -->
<svg xmlns="http://www.w3.org/2000/svg" xmlns:v="http://schemas.microsoft.com/visio/2003/SVGExtensions/" width="5.84551in"
		height="3.46457in" viewBox="0 0 420.877 249.449" xml:space="preserve" color-interpolation-filters="sRGB" class="st5">
	<v:documentProperties v:langID="1033" v:metric="true" v:viewMarkup="false"/>

	<style type="text/css">
	<![CDATA[
		.st1 {fill:#e8eef7;stroke:none;stroke-linecap:round;stroke-linejoin:round;stroke-width:0.75}
		.st2 {stroke:#000000;stroke-linecap:round;stroke-linejoin:round;stroke-width:0.75}
		.st3 {stroke:none;stroke-linecap:round;stroke-linejoin:round;stroke-width:0.75}
		.st4 {fill:#000000;font-family:Arial;font-size:1.5003em}
		.st5 {fill:none;fill-rule:evenodd;font-size:12;overflow:visible;stroke-linecap:square;stroke-miterlimit:3}
	]]>
	</style>

	<g v:mID="0" v:index="1" v:groupContext="foregroundPage">
		<title>Page-1</title>
		<v:pageProperties v:drawingScale="0.0393701" v:pageScale="0.0393701" v:drawingUnits="24" v:shadowOffsetX="8.50394"
				v:shadowOffsetY="-8.50394"/>
		<g id="shape3-1" v:mID="3" v:groupContext="shape" transform="translate(226.772,-111.421)">
			<title>Sheet.3</title>
			<path d="M0 155.68 L0 249.45 L194.1 249.45 L194.1 155.68 L0 155.68 L0 155.68 Z" class="st1"/>
		</g>
		<g id="shape4-3" v:mID="4" v:groupContext="shape" transform="translate(226.772,-111.421)">
			<title>Sheet.4</title>
			<path d="M0 249.45 L194.1 249.45 L194.1 155.68 L0 155.68 L0 249.45" class="st2"/>
		</g>
		<g id="shape5-6" v:mID="5" v:groupContext="shape" transform="translate(234.266,-174.283)">
			<title>Sheet.5</title>
			<desc>Date date</desc>
			<v:textBlock v:margins="rect(0,0,0,0)" v:tabSpace="42.5197"/>
			<v:textRect cx="48.2003" cy="238.645" width="96.41" height="21.6079"/>
			<path d="M96.4 227.84 L0 227.84 L0 249.45 L96.4 249.45 L96.4 227.84" class="st3"/>
			<text x="9.16" y="244.05" class="st4" v:langID="1033"><v:paragraph v:horizAlign="1"/><v:tabList/>Date date</text>		</g>
		<g id="shape6-10" v:mID="6" v:groupContext="shape" transform="translate(234.266,-152.528)">
			<title>Sheet.6</title>
			<desc>double amount</desc>
			<v:textBlock v:margins="rect(0,0,0,0)" v:tabSpace="42.5197"/>
			<v:textRect cx="71.8006" cy="238.645" width="143.61" height="21.6079"/>
			<path d="M143.6 227.84 L0 227.84 L0 249.45 L143.6 249.45 L143.6 227.84" class="st3"/>
			<text x="12.24" y="244.05" class="st4" v:langID="1033"><v:paragraph v:horizAlign="1"/><v:tabList/>double amount</text>		</g>
		<g id="shape7-14" v:mID="7" v:groupContext="shape" transform="translate(234.266,-130.774)">
			<title>Sheet.7</title>
			<desc>int type</desc>
			<v:textBlock v:margins="rect(0,0,0,0)" v:tabSpace="42.5197"/>
			<v:textRect cx="36.6859" cy="238.645" width="73.38" height="21.6079"/>
			<path d="M73.37 227.84 L0 227.84 L0 249.45 L73.37 249.45 L73.37 227.84" class="st3"/>
			<text x="12.65" y="244.05" class="st4" v:langID="1033"><v:paragraph v:horizAlign="1"/><v:tabList/>int type</text>		</g>
		<g id="shape8-18" v:mID="8" v:groupContext="shape" transform="translate(234.266,-110.52)">
			<title>Sheet.8</title>
			<desc>long accountNo</desc>
			<v:textBlock v:margins="rect(0,0,0,0)" v:tabSpace="42.5197"/>
			<v:textRect cx="75.248" cy="238.645" width="150.5" height="21.6079"/>
			<path d="M150.5 227.84 L0 227.84 L0 249.45 L150.5 249.45 L150.5 227.84" class="st3"/>
			<text x="12.69" y="244.05" class="st4" v:langID="1033"><v:paragraph v:horizAlign="1"/><v:tabList/>long accountNo</text>		</g>
		<g id="shape9-22" v:mID="9" v:groupContext="shape" transform="translate(226.772,-205.19)">
			<title>Sheet.9</title>
			<path d="M0 205.19 L0 249.45 L123.66 249.45 L123.66 205.19 L0 205.19 L0 205.19 Z" class="st1"/>
		</g>
		<g id="shape10-24" v:mID="10" v:groupContext="shape" transform="translate(226.772,-205.19)">
			<title>Sheet.10</title>
			<path d="M0 249.45 L123.66 249.45 L123.66 205.19 L0 205.19 L0 249.45" class="st2"/>
		</g>
		<g id="shape11-27" v:mID="11" v:groupContext="shape" transform="translate(254.501,-215.541)">
			<title>Sheet.11</title>
			<desc>Cashflow</desc>
			<v:textBlock v:margins="rect(0,0,0,0)" v:tabSpace="42.5197"/>
			<v:textRect cx="45.8852" cy="238.645" width="91.78" height="21.6079"/>
			<path d="M91.77 227.84 L0 227.84 L0 249.45 L91.77 249.45 L91.77 227.84" class="st3"/>
			<text x="8.85" y="244.05" class="st4" v:langID="1033"><v:paragraph v:horizAlign="1"/><v:tabList/>Cashflow</text>		</g>
		<g id="shape12-31" v:mID="12" v:groupContext="shape" transform="translate(0,-141.955)">
			<title>Sheet.12</title>
			<path d="M0 186.44 L0 249.45 L194.1 249.45 L194.1 186.44 L0 186.44 L0 186.44 Z" class="st1"/>
		</g>
		<g id="shape13-33" v:mID="13" v:groupContext="shape" transform="translate(0,-141.955)">
			<title>Sheet.13</title>
			<path d="M0 249.45 L194.1 249.45 L194.1 186.44 L0 186.44 L0 249.45" class="st2"/>
		</g>
		<g id="shape14-36" v:mID="14" v:groupContext="shape" transform="translate(8.99328,-172.56)">
			<title>Sheet.14</title>
			<desc>long accountNo</desc>
			<v:textBlock v:margins="rect(0,0,0,0)" v:tabSpace="42.5197"/>
			<v:textRect cx="75.248" cy="238.645" width="150.5" height="21.6079"/>
			<path d="M150.5 227.84 L0 227.84 L0 249.45 L150.5 249.45 L150.5 227.84" class="st3"/>
			<text x="12.69" y="244.05" class="st4" v:langID="1033"><v:paragraph v:horizAlign="1"/><v:tabList/>long accountNo</text>		</g>
		<g id="shape15-40" v:mID="15" v:groupContext="shape" transform="translate(8.99328,-150.806)">
			<title>Sheet.15</title>
			<desc>double balance</desc>
			<v:textBlock v:margins="rect(0,0,0,0)" v:tabSpace="42.5197"/>
			<v:textRect cx="73.5344" cy="238.645" width="147.07" height="21.6079"/>
			<path d="M147.07 227.84 L0 227.84 L0 249.45 L147.07 249.45 L147.07 227.84" class="st3"/>
			<text x="12.46" y="244.05" class="st4" v:langID="1033"><v:paragraph v:horizAlign="1"/><v:tabList/>double balance</text>		</g>
		<g id="shape16-44" v:mID="16" v:groupContext="shape" transform="translate(6.39488E-014,-204.967)">
			<title>Sheet.16</title>
			<path d="M0 205.19 L0 249.45 L123.66 249.45 L123.66 205.19 L0 205.19 L0 205.19 Z" class="st1"/>
		</g>
		<g id="shape17-46" v:mID="17" v:groupContext="shape" transform="translate(6.39488E-014,-204.967)">
			<title>Sheet.17</title>
			<path d="M0 249.45 L123.66 249.45 L123.66 205.19 L0 205.19 L0 249.45" class="st2"/>
		</g>
		<g id="shape18-49" v:mID="18" v:groupContext="shape" transform="translate(32.2259,-214.569)">
			<title>Sheet.18</title>
			<desc>Account</desc>
			<v:textBlock v:margins="rect(0,0,0,0)" v:tabSpace="42.5197"/>
			<v:textRect cx="40.7144" cy="238.645" width="81.43" height="21.6079"/>
			<path d="M81.43 227.84 L0 227.84 L0 249.45 L81.43 249.45 L81.43 227.84" class="st3"/>
			<text x="8.2" y="244.05" class="st4" v:langID="1033"><v:paragraph v:horizAlign="1"/><v:tabList/>Account</text>		</g>
		<g id="shape19-53" v:mID="19" v:groupContext="shape" transform="translate(1.48565,-2.84217E-014)">
			<title>Sheet.19</title>
			<path d="M0 186.44 L0 249.45 L194.1 249.45 L194.1 186.44 L0 186.44 L0 186.44 Z" class="st1"/>
		</g>
		<g id="shape20-55" v:mID="20" v:groupContext="shape" transform="translate(1.48565,-2.84217E-014)">
			<title>Sheet.20</title>
			<path d="M0 249.45 L194.1 249.45 L194.1 186.44 L0 186.44 L0 249.45" class="st2"/>
		</g>
		<g id="shape21-58" v:mID="21" v:groupContext="shape" transform="translate(8.98005,-31.3555)">
			<title>Sheet.21</title>
			<desc>Date start</desc>
			<v:textBlock v:margins="rect(0,0,0,0)" v:tabSpace="42.5197"/>
			<v:textRect cx="48.1853" cy="238.645" width="96.38" height="21.6079"/>
			<path d="M96.37 227.84 L0 227.84 L0 249.45 L96.37 249.45 L96.37 227.84" class="st3"/>
			<text x="0" y="244.05" class="st4" v:langID="1033"><v:paragraph/><v:tabList/>Date start</text>		</g>
		<g id="shape22-62" v:mID="22" v:groupContext="shape" transform="translate(8.98005,-9.60107)">
			<title>Sheet.22</title>
			<desc>Date end</desc>
			<v:textBlock v:margins="rect(0,0,0,0)" v:tabSpace="42.5197"/>
			<v:textRect cx="45.3241" cy="238.645" width="90.65" height="21.6079"/>
			<path d="M90.65 227.84 L0 227.84 L0 249.45 L90.65 249.45 L90.65 227.84" class="st3"/>
			<text x="0" y="244.05" class="st4" v:langID="1033"><v:paragraph/><v:tabList/>Date end</text>		</g>
		<g id="shape23-66" v:mID="23" v:groupContext="shape" transform="translate(1.48565,-63.0128)">
			<title>Sheet.23</title>
			<path d="M0 205.19 L0 249.45 L175.21 249.45 L175.21 205.19 L0 205.19 L0 205.19 Z" class="st1"/>
		</g>
		<g id="shape24-68" v:mID="24" v:groupContext="shape" transform="translate(1.48565,-63.0128)">
			<title>Sheet.24</title>
			<path d="M0 249.45 L175.21 249.45 L175.21 205.19 L0 205.19 L0 249.45" class="st2"/>
		</g>
		<g id="shape25-71" v:mID="25" v:groupContext="shape" transform="translate(13.4767,-72.6139)">
			<title>Sheet.25</title>
			<desc>AccountingPeriod</desc>
			<v:textBlock v:margins="rect(0,0,0,0)" v:tabSpace="42.5197"/>
			<v:textRect cx="84.4527" cy="238.645" width="168.91" height="21.6079"/>
			<path d="M168.91 227.84 L0 227.84 L0 249.45 L168.91 249.45 L168.91 227.84" class="st3"/>
			<text x="0" y="244.05" class="st4" v:langID="1033"><v:paragraph/><v:tabList/>AccountingPeriod</text>		</g>
	</g>
</svg>
