<?xml version="1.0" encoding="UTF-8" standalone="no"?>
<!DOCTYPE svg PUBLIC "-//W3C//DTD SVG 1.0//EN" "http://www.w3.org/TR/2001/REC-SVG-20010904/DTD/svg10.dtd">
<!-- Generated by Microsoft Visio 11.0, SVG Export, v1.0 make_path.svg Page-1 -->
<svg xmlns="http://www.w3.org/2000/svg" xmlns:v="http://schemas.microsoft.com/visio/2003/SVGExtensions/" width="8.26772in"
		height="11.6929in" viewBox="0 0 595.276 841.889" xml:space="preserve" color-interpolation-filters="sRGB" class="st14">
	<v:documentProperties v:langID="1033" v:metric="true"/>

	<style type="text/css">
	<![CDATA[
		.st1 {fill:#3366ff;stroke:#000000;stroke-linecap:round;stroke-linejoin:round;stroke-width:0.24}
		.st2 {fill:#ff0000;stroke:#000000;stroke-linecap:round;stroke-linejoin:round;stroke-width:0.24}
		.st3 {fill:#00ff00;stroke:#000000;stroke-linecap:round;stroke-linejoin:round;stroke-width:0.24}
		.st4 {marker-end:url(#mrkr4-20);stroke:#4677bf;stroke-linecap:round;stroke-linejoin:round;stroke-width:0.24}
		.st5 {fill:#4677bf;fill-opacity:1;stroke:#4677bf;stroke-opacity:1;stroke-width:0.086956408572192}
		.st6 {fill:#ffff00;stroke:#000000;stroke-linecap:round;stroke-linejoin:round;stroke-width:0.24}
		.st7 {fill:#000000;stroke:#000000;stroke-linecap:round;stroke-linejoin:round;stroke-width:0.24}
		.st8 {fill:none;stroke:none;stroke-linecap:round;stroke-linejoin:round;stroke-width:0.719999}
		.st9 {fill:#000000;font-family:Arial;font-size:0.833336em}
		.st10 {fill:none;stroke:#000000;stroke-linecap:round;stroke-linejoin:round;stroke-width:0.24}
		.st11 {fill:#ffcc00;stroke:#000000;stroke-linecap:round;stroke-linejoin:round;stroke-width:0.24}
		.st12 {font-size:1em}
		.st13 {fill:#000000;font-family:Arial;font-size:1.16666em}
		.st14 {fill:none;fill-rule:evenodd;font-size:12;overflow:visible;stroke-linecap:square;stroke-miterlimit:3}
	]]>
	</style>

	<defs id="Markers">
		<g id="lend4">
			<path d="M 2 1 L 0 0 L 2 -1 L 2 1 " style="stroke:none"/>
		</g>
		<marker id="mrkr4-20" class="st5" v:arrowType="4" v:arrowSize="2" v:setback="0" refX="-0" orient="auto"
				markerUnits="strokeWidth">
			<use xlink:href="#lend4" transform="scale(-11.500014966347,-11.500014966347) "/>
		</marker>
	</defs>
	<g v:mID="0" v:index="1" v:groupContext="foregroundPage">
		<v:userDefs>
			<v:ud v:nameU="SchemeName" v:val="VT4(Default)"/>
		</v:userDefs>
		<title>Page-1</title>
		<v:pageProperties v:drawingScale="0.0393701" v:pageScale="0.0393701" v:drawingUnits="24" v:shadowOffsetX="8.50393"
				v:shadowOffsetY="-8.50393"/>
		<v:layer v:name="Flowchart" v:index="0"/>
		<v:layer v:name="Connector" v:index="1"/>
		<g id="shape1-1" v:mID="1" v:groupContext="shape" v:layerMember="1;0" transform="translate(68.0317,-708.655)">
			<title>On-page reference</title>
			<v:userDefs>
				<v:ud v:nameU="visVersion" v:val="VT0(11):26"/>
			</v:userDefs>
			<path d="M0 827.71 A14.175 14.175 0 0 1 28.35 827.71 A14.175 14.175 0 0 1 0 827.71 Z" class="st1"/>
		</g>
		<g id="shape2-3" v:mID="2" v:groupContext="shape" v:layerMember="1;0" transform="translate(187.087,-708.655)">
			<title>On-page reference.2</title>
			<v:userDefs>
				<v:ud v:nameU="visVersion" v:val="VT0(11):26"/>
			</v:userDefs>
			<path d="M0 827.71 A14.175 14.175 0 1 1 28.35 827.71 A14.175 14.175 0 0 1 0 827.71 Z" class="st1"/>
		</g>
		<g id="shape3-5" v:mID="3" v:groupContext="shape" v:layerMember="1;0" transform="translate(320.315,-708.655)">
			<title>On-page reference.3</title>
			<v:userDefs>
				<v:ud v:nameU="visVersion" v:val="VT0(11):26"/>
			</v:userDefs>
			<path d="M0 827.71 A14.175 14.175 0 1 1 28.35 827.71 A14.175 14.175 0 0 1 0 827.71 Z" class="st1"/>
		</g>
		<g id="shape4-7" v:mID="4" v:groupContext="shape" v:layerMember="1;0" transform="translate(68.0317,-637.789)">
			<title>On-page reference.4</title>
			<v:userDefs>
				<v:ud v:nameU="visVersion" v:val="VT0(11):26"/>
			</v:userDefs>
			<path d="M0 827.71 A14.175 14.175 0 0 1 28.35 827.71 A14.175 14.175 0 0 1 0 827.71 Z" class="st2"/>
		</g>
		<g id="shape5-9" v:mID="5" v:groupContext="shape" v:layerMember="1;0" transform="translate(187.087,-637.789)">
			<title>On-page reference.5</title>
			<v:userDefs>
				<v:ud v:nameU="visVersion" v:val="VT0(11):26"/>
			</v:userDefs>
			<path d="M0 827.71 A14.175 14.175 0 1 1 28.35 827.71 A14.175 14.175 0 0 1 0 827.71 Z" class="st2"/>
		</g>
		<g id="shape6-11" v:mID="6" v:groupContext="shape" v:layerMember="0" transform="translate(248.031,1194.8) scale(1,-1)">
			<title>Manual operation</title>
			<v:custProps>
				<v:cp v:nameU="Cost" v:lbl="Cost" v:type="7" v:format="@" v:langID="1033"/>
				<v:cp v:nameU="Duration" v:lbl="Duration" v:type="2" v:langID="1033"/>
				<v:cp v:nameU="Resources" v:lbl="Resources" v:langID="1033"/>
			</v:custProps>
			<v:userDefs>
				<v:ud v:nameU="AntiScale" v:val="VT0(1):26"/>
				<v:ud v:nameU="visVersion" v:val="VT0(11):26"/>
			</v:userDefs>
			<path d="M14.17 841.89 L56.69 841.89 L70.87 799.37 L0 799.37 L14.17 841.89 Z" class="st3"/>
		</g>
		<g id="shape7-13" v:mID="7" v:groupContext="shape" v:layerMember="0" transform="translate(113.386,1133.86) scale(1,-1)">
			<title>Manual operation.6</title>
			<v:custProps>
				<v:cp v:nameU="Cost" v:lbl="Cost" v:type="7" v:format="@" v:langID="1033"/>
				<v:cp v:nameU="Duration" v:lbl="Duration" v:type="2" v:langID="1033"/>
				<v:cp v:nameU="Resources" v:lbl="Resources" v:langID="1033"/>
			</v:custProps>
			<v:userDefs>
				<v:ud v:nameU="AntiScale" v:val="VT0(1):26"/>
				<v:ud v:nameU="visVersion" v:val="VT0(11):26"/>
			</v:userDefs>
			<path d="M14.17 841.89 L56.69 841.89 L70.87 799.37 L0 799.37 L14.17 841.89 Z" class="st3"/>
		</g>
		<g id="shape8-15" v:mID="8" v:groupContext="shape" v:layerMember="1"
				transform="translate(437.156,-437.843) rotate(20.4723)">
			<title>Line-curve connector</title>
			<v:userDefs>
				<v:ud v:nameU="AntiScale" v:val="VT0(1):26"/>
				<v:ud v:nameU="visVersion" v:val="VT0(11):26"/>
			</v:userDefs>
			<path d="M0 824.4 L1.86 825.84 L3.74 827.21 L5.64 828.52 L7.57 829.77 L9.51 830.96 L11.48 832.09 L13.48 833.16 L15.49
						 834.16 L17.53 835.11 L19.59 835.99 L21.67 836.81 L23.77 837.57 L25.89 838.27 L28.04 838.91 L30.21 839.48
						 L32.4 839.99 L34.62 840.45 L36.86 840.84 L39.11 841.17 L41.39 841.43 L43.7 841.64 L46.02 841.79 L48.37 841.87
						 L50.74 841.89 L53.13 841.85 L55.55 841.75 L57.98 841.59 L60.44 841.36 L62.92 841.08 L65.43 840.73 L67.95
						 840.32 L70.5 839.85 L73.07 839.32 L75.66 838.73 L78.28 838.08 L80.92 837.36 L83.57 836.58 L86.26 835.75
						 L88.96 834.85 L91.69 833.88 L94.43 832.86 L97.2 831.78 L100 830.63 L102.81 829.42 L105.65 828.16 L108.51
						 826.83 L108.83 826.67 L113.45 824.36" class="st4"/>
		</g>
		<g id="shape9-21" v:mID="9" v:groupContext="shape" v:layerMember="1" transform="translate(82.2083,-666.14)">
			<title>Dynamic connector.9</title>
			<v:userDefs>
				<v:ud v:nameU="visVersion" v:val="VT0(11):26"/>
			</v:userDefs>
			<path d="M0 799.37 L0 836.37 L0 841.89" class="st4"/>
		</g>
		<g id="shape10-26" v:mID="10" v:groupContext="shape" v:layerMember="1" transform="translate(201.263,-666.14)">
			<title>Dynamic connector.10</title>
			<v:userDefs>
				<v:ud v:nameU="visVersion" v:val="VT0(11):26"/>
			</v:userDefs>
			<path d="M0 799.37 L0 836.37 L0 841.89" class="st4"/>
		</g>
		<g id="shape11-31" v:mID="11" v:groupContext="shape" v:layerMember="1" transform="translate(668.65,-311.485) rotate(45)">
			<title>Line-curve connector.8</title>
			<v:userDefs>
				<v:ud v:nameU="AntiScale" v:val="VT0(1):26"/>
				<v:ud v:nameU="visVersion" v:val="VT0(11):26"/>
			</v:userDefs>
			<path d="M0 829.36 L1.34 830.55 L2.67 831.67 L4.01 832.74 L5.34 833.75 L6.68 834.7 L8.01 835.59 L9.34 836.43 L10.67 837.2
						 L12 837.91 L13.32 838.57 L14.65 839.17 L15.97 839.7 L17.29 840.18 L18.62 840.6 L19.94 840.96 L21.26 841.27
						 L22.57 841.51 L23.89 841.69 L25.2 841.82 L26.52 841.88 L27.83 841.89 L29.14 841.84 L30.45 841.73 L31.76
						 841.56 L33.07 841.33 L34.38 841.04 L35.68 840.69 L36.98 840.29 L38.29 839.82 L39.59 839.3 L40.89 838.71
						 L42.19 838.07 L43.48 837.37 L44.78 836.61 L46.08 835.79 L47.37 834.91 L48.66 833.98 L49.95 832.98 L50.23
						 832.75 L54.22 829.47" class="st4"/>
		</g>
		<g id="shape12-36" v:mID="12" v:groupContext="shape" v:layerMember="1"
				transform="translate(-491.271,55.5096) rotate(-84.6233) scale(-1,1)">
			<title>Line-curve connector.12</title>
			<v:userDefs>
				<v:ud v:nameU="AntiScale" v:val="VT0(1):26"/>
				<v:ud v:nameU="visVersion" v:val="VT0(11):26"/>
			</v:userDefs>
			<path d="M0 829.41 L6.36 830.49 L12.67 831.52 L18.93 832.5 L25.15 833.44 L31.33 834.32 L37.46 835.16 L43.54 835.94 L49.58
						 836.68 L55.57 837.37 L61.52 838.01 L67.42 838.6 L73.28 839.14 L79.09 839.64 L84.85 840.08 L90.57 840.48
						 L96.25 840.83 L101.88 841.12 L107.46 841.37 L113 841.57 L118.49 841.73 L123.94 841.83 L129.34 841.88 L134.69
						 841.89 L140 841.85 L145.27 841.76 L150.49 841.61 L155.66 841.42 L160.79 841.19 L165.87 840.9 L170.91 840.56
						 L175.9 840.18 L180.85 839.74 L185.75 839.26 L190.6 838.73 L195.41 838.15 L200.18 837.52 L204.89 836.84 L209.57
						 836.12 L214.2 835.34 L218.78 834.52 L223.31 833.64 L227.8 832.72 L232.25 831.75 L236.65 830.73 L237 830.65
						 L242.03 829.5" class="st4"/>
		</g>
		<g id="shape13-41" v:mID="13" v:groupContext="shape" v:layerMember="0" transform="translate(340.157,1258.58) scale(1,-1)">
			<title>Manual operation.13</title>
			<v:custProps>
				<v:cp v:nameU="Cost" v:lbl="Cost" v:type="7" v:format="@" v:langID="1033"/>
				<v:cp v:nameU="Duration" v:lbl="Duration" v:type="2" v:langID="1033"/>
				<v:cp v:nameU="Resources" v:lbl="Resources" v:langID="1033"/>
			</v:custProps>
			<v:userDefs>
				<v:ud v:nameU="AntiScale" v:val="VT0(1):26"/>
				<v:ud v:nameU="visVersion" v:val="VT0(11):26"/>
			</v:userDefs>
			<path d="M14.17 841.89 L56.69 841.89 L70.87 799.37 L0 799.37 L14.17 841.89 Z" class="st6"/>
		</g>
		<g id="shape14-43" v:mID="14" v:groupContext="shape" v:layerMember="1"
				transform="translate(742.833,-293.621) rotate(33.6901)">
			<title>Line-curve connector.15</title>
			<v:userDefs>
				<v:ud v:nameU="AntiScale" v:val="VT0(1):26"/>
				<v:ud v:nameU="visVersion" v:val="VT0(11):26"/>
			</v:userDefs>
			<path d="M0 828.14 L1.3 829.39 L2.61 830.57 L3.95 831.7 L5.32 832.77 L6.71 833.78 L8.11 834.73 L9.55 835.62 L11 836.45
						 L12.48 837.22 L13.98 837.94 L15.5 838.59 L17.05 839.19 L18.62 839.72 L20.21 840.2 L21.82 840.62 L23.46 840.98
						 L25.12 841.28 L26.8 841.52 L28.51 841.7 L30.24 841.82 L31.99 841.89 L33.76 841.89 L35.56 841.84 L37.38 841.73
						 L39.22 841.55 L41.09 841.32 L42.97 841.03 L44.88 840.68 L46.82 840.27 L48.77 839.81 L50.75 839.28 L52.76
						 838.69 L54.78 838.05 L56.83 837.34 L58.9 836.58 L60.99 835.76 L63.11 834.88 L65.24 833.94 L67.41 832.94
						 L69.59 831.88 L71.8 830.76 L72.11 830.59 L76.63 828.11" class="st4"/>
		</g>
		<g id="shape15-48" v:mID="15" v:groupContext="shape" v:layerMember="1;0" transform="translate(453.543,-708.655)">
			<title>On-page reference.16</title>
			<v:userDefs>
				<v:ud v:nameU="visVersion" v:val="VT0(11):26"/>
			</v:userDefs>
			<path d="M0 827.71 A14.175 14.175 0 1 1 28.35 827.71 A14.175 14.175 0 0 1 0 827.71 Z" class="st1"/>
		</g>
		<g id="shape16-50" v:mID="16" v:groupContext="shape" v:layerMember="1"
				transform="translate(-340.46,-35.925) rotate(-78.1785) scale(-1,1)">
			<title>Line-curve connector.17</title>
			<v:userDefs>
				<v:ud v:nameU="AntiScale" v:val="VT0(1):26"/>
				<v:ud v:nameU="visVersion" v:val="VT0(11):26"/>
			</v:userDefs>
			<path d="M0 825.69 L6.74 826.67 L13.42 827.63 L20.04 828.55 L26.6 829.44 L33.1 830.3 L39.54 831.13 L45.91 831.93 L52.23
						 832.7 L58.49 833.44 L64.68 834.15 L70.82 834.82 L76.89 835.47 L82.9 836.08 L88.85 836.67 L94.74 837.22 L100.57
						 837.74 L106.34 838.23 L112.05 838.69 L117.7 839.12 L123.29 839.52 L128.82 839.89 L134.28 840.22 L139.69
						 840.53 L145.03 840.8 L150.32 841.05 L155.54 841.26 L160.7 841.44 L165.8 841.59 L170.84 841.71 L175.82 841.8
						 L180.74 841.86 L185.6 841.89 L190.4 841.89 L195.14 841.85 L199.81 841.79 L204.43 841.69 L208.98 841.57 L213.48
						 841.41 L217.91 841.22 L222.28 841 L226.6 840.75 L230.85 840.47 L235.04 840.16 L239.17 839.82 L243.24 839.44
						 L247.25 839.04 L251.19 838.61 L255.08 838.14 L258.91 837.64 L262.67 837.12 L266.38 836.56 L270.02 835.97
						 L273.6 835.35 L277.13 834.7 L280.59 834.01 L283.99 833.3 L287.33 832.56 L290.61 831.78 L293.83 830.98 L296.99
						 830.14 L300.08 829.28 L303.12 828.38 L306.1 827.45 L306.44 827.33 L311.31 825.61" class="st4"/>
		</g>
		<g id="shape17-55" v:mID="17" v:groupContext="shape" v:layerMember="0" transform="translate(340.152,-308.976)">
			<title>Terminator</title>
			<v:custProps>
				<v:cp v:nameU="Cost" v:lbl="Cost" v:type="7" v:format="@" v:langID="1033"/>
				<v:cp v:nameU="Duration" v:lbl="Duration" v:type="2" v:langID="1033"/>
				<v:cp v:nameU="Resources" v:lbl="Resources" v:langID="1033"/>
			</v:custProps>
			<v:userDefs>
				<v:ud v:nameU="visVersion" v:val="VT0(11):26"/>
			</v:userDefs>
			<path d="M14.17 841.89 L56.69 841.89 A14.175 14.175 -180 0 0 56.69 813.54 L14.17 813.54 A14.175 14.175 -180 1 0 14.17
						 841.89 Z" class="st7"/>
		</g>
		<g id="shape18-57" v:mID="18" v:groupContext="shape" v:layerMember="1" transform="translate(375.594,-337.327)">
			<title>Dynamic connector.19</title>
			<v:userDefs>
				<v:ud v:nameU="visVersion" v:val="VT0(11):26"/>
			</v:userDefs>
			<path d="M0 796.54 L0 836.37 L0 841.89" class="st4"/>
		</g>
		<g id="shape19-62" v:mID="19" v:groupContext="shape" transform="translate(32.205,-759.353)">
			<title>Sheet.19</title>
			<desc>Context</desc>
			<v:userDefs/>
			<v:textBlock v:margins="rect(2,2,2,2)" v:tabSpace="42.5196"/>
			<v:textRect cx="49.9996" cy="835.889" width="100.01" height="12"/>
			<rect x="0" y="829.889" width="99.9999" height="12" class="st8"/>
			<text x="32.76" y="838.89" class="st9" v:langID="1033"><v:paragraph v:horizAlign="1"/><v:tabList/>Context</text>		</g>
		<g id="shape20-65" v:mID="20" v:groupContext="shape" transform="translate(151.26,-759.353)">
			<title>Sheet.20</title>
			<desc>Seating</desc>
			<v:userDefs/>
			<v:textBlock v:margins="rect(2,2,2,2)" v:tabSpace="42.5196"/>
			<v:textRect cx="49.9996" cy="835.889" width="100.01" height="12"/>
			<rect x="0" y="829.889" width="99.9999" height="12" class="st8"/>
			<text x="33.04" y="838.89" class="st9" v:langID="1033"><v:paragraph v:horizAlign="1"/><v:tabList/>Seating</text>		</g>
		<g id="shape21-68" v:mID="21" v:groupContext="shape" v:layerMember="0" transform="translate(113.381,-368.503)">
			<title>Terminator.22</title>
			<v:custProps>
				<v:cp v:nameU="Cost" v:lbl="Cost" v:type="7" v:format="@" v:langID="1033"/>
				<v:cp v:nameU="Duration" v:lbl="Duration" v:type="2" v:langID="1033"/>
				<v:cp v:nameU="Resources" v:lbl="Resources" v:langID="1033"/>
			</v:custProps>
			<v:userDefs>
				<v:ud v:nameU="visVersion" v:val="VT0(11):26"/>
			</v:userDefs>
			<path d="M14.17 841.89 L56.69 841.89 A14.175 14.175 -180 1 0 56.69 813.54 L14.17 813.54 A14.175 14.175 -180 1 0 14.17
						 841.89 Z" class="st7"/>
		</g>
		<g id="shape22-70" v:mID="22" v:groupContext="shape" v:layerMember="1" transform="translate(148.816,-396.851)">
			<title>Dynamic connector.23</title>
			<v:userDefs>
				<v:ud v:nameU="visVersion" v:val="VT0(11):26"/>
			</v:userDefs>
			<path d="M0 731.34 L0 836.37 L0 841.89" class="st4"/>
		</g>
		<g id="shape23-75" v:mID="23" v:groupContext="shape" v:layerMember="0" transform="translate(56.6932,-255.118)">
			<title>Process</title>
			<v:custProps>
				<v:cp v:nameU="Cost" v:lbl="Cost" v:type="7" v:format="@" v:langID="1033"/>
				<v:cp v:nameU="Duration" v:lbl="Duration" v:type="2" v:langID="1033"/>
				<v:cp v:nameU="Resources" v:lbl="Resources" v:langID="1033"/>
			</v:custProps>
			<v:userDefs>
				<v:ud v:nameU="visVersion" v:val="VT0(11):26"/>
			</v:userDefs>
			<rect x="0" y="274.961" width="184.252" height="566.928" class="st10"/>
		</g>
		<g id="shape24-77" v:mID="24" v:groupContext="shape" v:layerMember="0" transform="translate(240.945,-255.118)">
			<title>Process.25</title>
			<v:custProps>
				<v:cp v:nameU="Cost" v:lbl="Cost" v:type="7" v:format="@" v:langID="1033"/>
				<v:cp v:nameU="Duration" v:lbl="Duration" v:type="2" v:langID="1033"/>
				<v:cp v:nameU="Resources" v:lbl="Resources" v:langID="1033"/>
			</v:custProps>
			<v:userDefs>
				<v:ud v:nameU="visVersion" v:val="VT0(11):26"/>
			</v:userDefs>
			<rect x="0" y="274.961" width="269.291" height="566.928" class="st10"/>
		</g>
		<g id="shape25-79" v:mID="25" v:groupContext="shape" transform="translate(284.488,-759.353)">
			<title>Sheet.25</title>
			<desc>Path</desc>
			<v:userDefs/>
			<v:textBlock v:margins="rect(2,2,2,2)" v:tabSpace="42.5196"/>
			<v:textRect cx="49.9996" cy="835.889" width="100.01" height="12"/>
			<rect x="0" y="829.889" width="99.9999" height="12" class="st8"/>
			<text x="39.71" y="838.89" class="st9" v:langID="1033"><v:paragraph v:horizAlign="1"/><v:tabList/>Path</text>		</g>
		<g id="shape26-82" v:mID="26" v:groupContext="shape" transform="translate(417.717,-759.353)">
			<title>Sheet.26</title>
			<desc>Path</desc>
			<v:userDefs/>
			<v:textBlock v:margins="rect(2,2,2,2)" v:tabSpace="42.5196"/>
			<v:textRect cx="49.9996" cy="835.889" width="100.01" height="12"/>
			<rect x="0" y="829.889" width="99.9999" height="12" class="st8"/>
			<text x="39.71" y="838.89" class="st9" v:langID="1033"><v:paragraph v:horizAlign="1"/><v:tabList/>Path</text>		</g>
		<g id="shape27-85" v:mID="27" v:groupContext="shape" v:layerMember="1;0" transform="translate(68.0317,-566.923)">
			<title>On-page reference.28</title>
			<v:userDefs>
				<v:ud v:nameU="visVersion" v:val="VT0(11):26"/>
			</v:userDefs>
			<path d="M0 827.71 A14.175 14.175 0 0 1 28.35 827.71 A14.175 14.175 0 0 1 0 827.71 Z" class="st11"/>
		</g>
		<g id="shape28-87" v:mID="28" v:groupContext="shape" v:layerMember="1" transform="translate(82.2083,-595.274)">
			<title>Dynamic connector.7</title>
			<v:userDefs>
				<v:ud v:nameU="visVersion" v:val="VT0(11):26"/>
			</v:userDefs>
			<path d="M0 799.37 L0 836.37 L0 841.89" class="st4"/>
		</g>
		<g id="shape29-92" v:mID="29" v:groupContext="shape" v:layerMember="1"
				transform="translate(-614.025,24.0962) rotate(-77.55) scale(-1,1)">
			<title>Line-curve connector.29</title>
			<v:userDefs>
				<v:ud v:nameU="AntiScale" v:val="VT0(1):26"/>
				<v:ud v:nameU="visVersion" v:val="VT0(11):26"/>
			</v:userDefs>
			<path d="M0 834.92 L3.54 835.49 L7.03 836.03 L10.47 836.54 L13.86 837.04 L17.19 837.51 L20.48 837.95 L23.71 838.38 L26.89
						 838.77 L30.01 839.15 L33.09 839.5 L36.11 839.83 L39.08 840.13 L42 840.41 L44.87 840.66 L47.69 840.89 L50.45
						 841.1 L53.16 841.28 L55.82 841.44 L58.43 841.58 L60.98 841.69 L63.49 841.77 L65.94 841.84 L68.34 841.88
						 L70.68 841.89 L72.98 841.89 L75.22 841.85 L77.42 841.8 L79.56 841.72 L81.64 841.61 L83.68 841.48 L85.66
						 841.33 L87.6 841.16 L89.48 840.96 L91.3 840.73 L93.08 840.49 L94.8 840.21 L96.48 839.92 L98.1 839.6 L99.66
						 839.26 L101.18 838.89 L102.65 838.5 L104.06 838.08 L105.42 837.65 L106.73 837.18 L107.06 837.03 L111.76
						 834.89" class="st4"/>
		</g>
		<g id="shape30-97" v:mID="30" v:groupContext="shape" transform="translate(85.0396,-668.975)">
			<title>Sheet.30</title>
			<desc>state==MAKE_PATH</desc>
			<v:userDefs/>
			<v:textBlock v:margins="rect(2,2,2,2)" v:tabSpace="42.5196"/>
			<v:textRect cx="49.9996" cy="835.889" width="100.01" height="12"/>
			<rect x="0" y="829.889" width="99.9999" height="12" class="st8"/>
			<text x="3.03" y="838.89" class="st9" v:langID="1033"><v:paragraph v:horizAlign="1"/><v:tabList/>state==MAKE_PATH</text>		</g>
		<g id="shape31-100" v:mID="31" v:groupContext="shape" transform="translate(325.591,-469.889)">
			<title>Sheet.31</title>
			<desc>Path.id==Seating.pid Path.name=Seating.ln</desc>
			<v:userDefs/>
			<v:textBlock v:margins="rect(2,2,2,2)" v:tabSpace="42.5196"/>
			<v:textRect cx="55.472" cy="835.889" width="110.95" height="12"/>
			<rect x="0" y="829.889" width="110.945" height="12" class="st8"/>
			<text x="2" y="832.89" class="st9" v:langID="1033"><v:paragraph/><v:tabList/>Path.id==Seating.pid<v:newlineChar/><tspan
						x="2" dy="1.2em" class="st12">Path</tspan>.name=Seating.ln</text>		</g>
		<g id="shape32-104" v:mID="32" v:groupContext="shape" transform="translate(403.543,-362.503)">
			<title>Sheet.32</title>
			<desc>Path.id==Seating.id Path.name=Seating.ln</desc>
			<v:userDefs/>
			<v:textBlock v:margins="rect(2,2,2,2)" v:tabSpace="42.5196"/>
			<v:textRect cx="56.1807" cy="835.889" width="112.37" height="12"/>
			<rect x="0" y="829.889" width="112.362" height="12" class="st8"/>
			<text x="2" y="832.89" class="st9" v:langID="1033"><v:paragraph/><v:tabList/>Path.id==Seating.id<v:newlineChar/><tspan
						x="2" dy="1.2em" class="st12">Path</tspan>.name=Seating.ln</text>		</g>
		<g id="shape33-108" v:mID="33" v:groupContext="shape" transform="translate(281.496,-277.465)">
			<title>Sheet.33</title>
			<desc>assert Path( id=Seating.id, name=Seating.ln, seat=Path.seat )</desc>
			<v:userDefs/>
			<v:textBlock v:margins="rect(2,2,2,2)" v:tabSpace="42.5196"/>
			<v:textRect cx="87.0074" cy="835.889" width="174.02" height="12"/>
			<rect x="0" y="829.889" width="174.016" height="12" class="st8"/>
			<text x="26.82" y="826.89" class="st9" v:langID="1033"><v:paragraph v:horizAlign="1"/><v:tabList/>assert  Path( id=Seating.id, <v:newlineChar/><tspan
						x="10.43" dy="1.2em" class="st12">                           name</tspan>=Seating.ln,<v:newlineChar/><tspan
						x="17.11" dy="1.2em" class="st12">                        seat</tspan>=Path.seat )</text>		</g>
		<g id="shape34-113" v:mID="34" v:groupContext="shape" transform="translate(68.4648,-342.331)">
			<title>Sheet.34</title>
			<desc>modify Seating( pathDone = true )</desc>
			<v:userDefs/>
			<v:textBlock v:margins="rect(2,2,2,2)" v:tabSpace="42.5196"/>
			<v:textRect cx="80.3538" cy="835.889" width="160.71" height="12"/>
			<rect x="0" y="829.889" width="160.709" height="12" class="st8"/>
			<text x="5.17" y="838.89" class="st9" v:langID="1033"><v:paragraph v:horizAlign="1"/><v:tabList/>modify Seating( pathDone = true )</text>		</g>
		<g id="shape35-116" v:mID="35" v:groupContext="shape" v:layerMember="1;0" transform="translate(56.6932,-212.593)">
			<title>On-page reference.35</title>
			<v:userDefs>
				<v:ud v:nameU="visVersion" v:val="VT0(11):26"/>
			</v:userDefs>
			<path d="M0 827.71 A14.175 14.175 0 0 1 28.35 827.71 A14.175 14.175 0 0 1 0 827.71 Z" class="st1"/>
		</g>
		<g id="shape36-118" v:mID="36" v:groupContext="shape" v:layerMember="1;0" transform="translate(56.6932,-164.404)">
			<title>On-page reference.36</title>
			<v:userDefs>
				<v:ud v:nameU="visVersion" v:val="VT0(11):26"/>
			</v:userDefs>
			<path d="M0 827.71 A14.175 14.175 0 0 1 28.35 827.71 A14.175 14.175 0 0 1 0 827.71 Z" class="st2"/>
		</g>
		<g id="shape37-120" v:mID="37" v:groupContext="shape" v:layerMember="1;0" transform="translate(56.6932,-121.885)">
			<title>On-page reference.37</title>
			<v:userDefs>
				<v:ud v:nameU="visVersion" v:val="VT0(11):26"/>
			</v:userDefs>
			<path d="M0 827.71 A14.175 14.175 0 0 1 28.35 827.71 A14.175 14.175 0 0 1 0 827.71 Z" class="st11"/>
		</g>
		<g id="shape38-122" v:mID="38" v:groupContext="shape" v:layerMember="0" transform="translate(311.811,1442.83) scale(1,-1)">
			<title>Manual operation.38</title>
			<v:custProps>
				<v:cp v:nameU="Cost" v:lbl="Cost" v:type="7" v:format="@" v:langID="1033"/>
				<v:cp v:nameU="Duration" v:lbl="Duration" v:type="2" v:langID="1033"/>
				<v:cp v:nameU="Resources" v:lbl="Resources" v:langID="1033"/>
			</v:custProps>
			<v:userDefs>
				<v:ud v:nameU="AntiScale" v:val="VT0(1):26"/>
				<v:ud v:nameU="visVersion" v:val="VT0(11):26"/>
			</v:userDefs>
			<path d="M14.17 841.89 L56.69 841.89 L70.87 799.37 L0 799.37 L14.17 841.89 Z" class="st3"/>
		</g>
		<g id="shape39-124" v:mID="39" v:groupContext="shape" v:layerMember="0" transform="translate(311.811,1509.45) scale(1,-1)">
			<title>Manual operation.39</title>
			<v:custProps>
				<v:cp v:nameU="Cost" v:lbl="Cost" v:type="7" v:format="@" v:langID="1033"/>
				<v:cp v:nameU="Duration" v:lbl="Duration" v:type="2" v:langID="1033"/>
				<v:cp v:nameU="Resources" v:lbl="Resources" v:langID="1033"/>
			</v:custProps>
			<v:userDefs>
				<v:ud v:nameU="AntiScale" v:val="VT0(1):26"/>
				<v:ud v:nameU="visVersion" v:val="VT0(11):26"/>
			</v:userDefs>
			<path d="M14.17 841.89 L56.69 841.89 L70.87 799.37 L0 799.37 L14.17 841.89 Z" class="st6"/>
		</g>
		<g id="shape40-126" v:mID="40" v:groupContext="shape" v:layerMember="0" transform="translate(311.806,-73.7007)">
			<title>Terminator.40</title>
			<v:custProps>
				<v:cp v:nameU="Cost" v:lbl="Cost" v:type="7" v:format="@" v:langID="1033"/>
				<v:cp v:nameU="Duration" v:lbl="Duration" v:type="2" v:langID="1033"/>
				<v:cp v:nameU="Resources" v:lbl="Resources" v:langID="1033"/>
			</v:custProps>
			<v:userDefs>
				<v:ud v:nameU="visVersion" v:val="VT0(11):26"/>
			</v:userDefs>
			<path d="M14.17 841.89 L56.69 841.89 A14.175 14.175 -180 0 0 56.69 813.54 L14.17 813.54 A14.175 14.175 -180 1 0 14.17
						 841.89 Z" class="st7"/>
		</g>
		<g id="shape41-128" v:mID="41" v:groupContext="shape" transform="translate(79.3703,-222.063)">
			<title>Sheet.41</title>
			<desc>ObjectTypeNode</desc>
			<v:userDefs/>
			<v:textBlock v:margins="rect(2,2,2,2)" v:tabSpace="42.5196"/>
			<v:textRect cx="49.9996" cy="835.889" width="100.01" height="12"/>
			<rect x="0" y="829.889" width="99.9999" height="12" class="st8"/>
			<text x="12.47" y="838.89" class="st9" v:langID="1033"><v:paragraph v:horizAlign="1"/><v:tabList/>ObjectTypeNode</text>		</g>
		<g id="shape42-131" v:mID="42" v:groupContext="shape" transform="translate(70.0789,-175.291)">
			<title>Sheet.42</title>
			<desc>AlphaNode</desc>
			<v:userDefs/>
			<v:textBlock v:margins="rect(2,2,2,2)" v:tabSpace="42.5196"/>
			<v:textRect cx="49.9996" cy="835.889" width="100.01" height="12"/>
			<rect x="0" y="829.889" width="99.9999" height="12" class="st8"/>
			<text x="25.25" y="838.89" class="st9" v:langID="1033"><v:paragraph v:horizAlign="1"/><v:tabList/>AlphaNode</text>		</g>
		<g id="shape43-134" v:mID="43" v:groupContext="shape" transform="translate(89.9215,-134.898)">
			<title>Sheet.43</title>
			<desc>LeftInputAdapterNode</desc>
			<v:userDefs/>
			<v:textBlock v:margins="rect(2,2,2,2)" v:tabSpace="42.5196"/>
			<v:textRect cx="57.0862" cy="835.889" width="114.18" height="12"/>
			<rect x="0" y="829.889" width="114.173" height="12" class="st8"/>
			<text x="8.17" y="838.89" class="st9" v:langID="1033"><v:paragraph v:horizAlign="1"/><v:tabList/>LeftInputAdapterNode</text>		</g>
		<g id="shape44-137" v:mID="44" v:groupContext="shape" transform="translate(362.047,-151.197)">
			<title>Sheet.44</title>
			<desc>NotNode</desc>
			<v:userDefs/>
			<v:textBlock v:margins="rect(2,2,2,2)" v:tabSpace="42.5196"/>
			<v:textRect cx="49.9996" cy="835.889" width="100.01" height="12"/>
			<rect x="0" y="829.889" width="99.9999" height="12" class="st8"/>
			<text x="30.26" y="838.89" class="st9" v:langID="1033"><v:paragraph v:horizAlign="1"/><v:tabList/>NotNode</text>		</g>
		<g id="shape45-140" v:mID="45" v:groupContext="shape" transform="translate(363.858,-212.142)">
			<title>Sheet.45</title>
			<desc>JoinNode</desc>
			<v:userDefs/>
			<v:textBlock v:margins="rect(2,2,2,2)" v:tabSpace="42.5196"/>
			<v:textRect cx="49.9996" cy="835.889" width="100.01" height="12"/>
			<rect x="0" y="829.889" width="99.9999" height="12" class="st8"/>
			<text x="28.87" y="838.89" class="st9" v:langID="1033"><v:paragraph v:horizAlign="1"/><v:tabList/>JoinNode</text>		</g>
		<g id="shape46-143" v:mID="46" v:groupContext="shape" transform="translate(372.362,-81.8739)">
			<title>Sheet.46</title>
			<desc>TerminalNode</desc>
			<v:userDefs/>
			<v:textBlock v:margins="rect(2,2,2,2)" v:tabSpace="42.5196"/>
			<v:textRect cx="49.9996" cy="835.889" width="100.01" height="12"/>
			<rect x="0" y="829.889" width="99.9999" height="12" class="st8"/>
			<text x="18.59" y="838.89" class="st9" v:langID="1033"><v:paragraph v:horizAlign="1"/><v:tabList/>TerminalNode</text>		</g>
		<g id="shape47-146" v:mID="47" v:groupContext="shape" transform="translate(111.575,-620.786)">
			<title>Sheet.47</title>
			<desc>pathDone==true</desc>
			<v:userDefs/>
			<v:textBlock v:margins="rect(2,2,2,2)" v:tabSpace="42.5196"/>
			<v:textRect cx="49.9996" cy="835.889" width="100.01" height="12"/>
			<rect x="0" y="829.889" width="99.9999" height="12" class="st8"/>
			<text x="11.91" y="838.89" class="st9" v:langID="1033"><v:paragraph v:horizAlign="1"/><v:tabList/>pathDone==<tspan
						class="st12" v:langID="2057">false</tspan></text>		</g>
		<g id="shape48-150" v:mID="48" v:groupContext="shape" transform="translate(98.8191,-801.873)">
			<title>Sheet.48</title>
			<desc>Path Done</desc>
			<v:userDefs/>
			<v:textBlock v:margins="rect(2,2,2,2)" v:tabSpace="42.5196"/>
			<v:textRect cx="49.9996" cy="835.889" width="100.01" height="12"/>
			<rect x="0" y="829.889" width="99.9999" height="12" class="st8"/>
			<text x="16.92" y="840.09" class="st13" v:langID="1033"><v:paragraph v:horizAlign="1"/><v:tabList/>Path Done</text>		</g>
		<g id="shape49-153" v:mID="49" v:groupContext="shape" transform="translate(340.157,-801.873)">
			<title>Sheet.49</title>
			<desc>Make Path</desc>
			<v:userDefs/>
			<v:textBlock v:margins="rect(2,2,2,2)" v:tabSpace="42.5196"/>
			<v:textRect cx="49.9996" cy="835.889" width="100.01" height="12"/>
			<rect x="0" y="829.889" width="99.9999" height="12" class="st8"/>
			<text x="16.53" y="840.09" class="st13" v:langID="1033"><v:paragraph v:horizAlign="1"/><v:tabList/>Make Path</text>		</g>
	</g>
</svg>
