<?xml version="1.0" encoding="UTF-8" standalone="no"?>
<!-- Created with Inkscape (http://www.inkscape.org/) -->

<svg
   xmlns:dc="http://purl.org/dc/elements/1.1/"
   xmlns:cc="http://creativecommons.org/ns#"
   xmlns:rdf="http://www.w3.org/1999/02/22-rdf-syntax-ns#"
   xmlns:svg="http://www.w3.org/2000/svg"
   xmlns="http://www.w3.org/2000/svg"
   xmlns:xlink="http://www.w3.org/1999/xlink"
   xmlns:sodipodi="http://sodipodi.sourceforge.net/DTD/sodipodi-0.dtd"
   xmlns:inkscape="http://www.inkscape.org/namespaces/inkscape"
   id="svg2"
   sodipodi:version="0.32"
   inkscape:version="0.91 r13725"
   width="64"
   height="64"
   sodipodi:docname="taskAssigningLogo.svg"
   inkscape:output_extension="org.inkscape.output.svg.inkscape"
   inkscape:export-filename="taskAssigningLogo.png"
   inkscape:export-xdpi="90"
   inkscape:export-ydpi="90"
   version="1.1">
  <metadata
     id="metadata7">
    <rdf:RDF>
      <cc:Work
         rdf:about="">
        <dc:format>image/svg+xml</dc:format>
        <dc:type
           rdf:resource="http://purl.org/dc/dcmitype/StillImage" />
        <dc:creator>
          <cc:Agent>
            <dc:title>www.optaplanner.org</dc:title>
          </cc:Agent>
        </dc:creator>
        <dc:title />
        <dc:rights>
          <cc:Agent>
            <dc:title>www.optaplanner.org</dc:title>
          </cc:Agent>
        </dc:rights>
        <dc:language>en</dc:language>
        <cc:license
           rdf:resource="https://www.optaplanner.org/code/license.html" />
      </cc:Work>
    </rdf:RDF>
  </metadata>
  <defs
     id="defs5">
    <linearGradient
       id="linearGradient3889">
      <stop
         style="stop-color:#ffffff;stop-opacity:1;"
         offset="0"
         id="stop3891" />
      <stop
         style="stop-color:#f7f7f7;stop-opacity:1;"
         offset="1"
         id="stop3893" />
    </linearGradient>
    <linearGradient
       id="linearGradient3863">
      <stop
         id="stop3879"
         offset="0"
         style="stop-color:#ffffff;stop-opacity:1;" />
      <stop
         style="stop-color:#eeeeec;stop-opacity:1;"
         offset="1"
         id="stop3867" />
    </linearGradient>
    <linearGradient
       id="linearGradient3855">
      <stop
         style="stop-color:#eeeeec;stop-opacity:1;"
         offset="0"
         id="stop3857" />
      <stop
         style="stop-color:#eeeeec;stop-opacity:0;"
         offset="1"
         id="stop3859" />
    </linearGradient>
    <linearGradient
       id="linearGradient3063">
      <stop
         style="stop-color:#ffffff;stop-opacity:1;"
         offset="0"
         id="stop3065" />
      <stop
         style="stop-color:#ffffff;stop-opacity:0;"
         offset="1"
         id="stop3067" />
    </linearGradient>
    <linearGradient
       inkscape:collect="always"
       xlink:href="#linearGradient1322"
       id="linearGradient4975"
       x1="34.892849"
       y1="36.422989"
       x2="45.918697"
       y2="48.547989"
       gradientUnits="userSpaceOnUse"
       gradientTransform="translate(-18.01785,2.428811)" />
    <linearGradient
       id="linearGradient1322">
      <stop
         id="stop1324"
         offset="0.0000000"
         style="stop-color:#729fcf" />
      <stop
         id="stop1326"
         offset="1.0000000"
         style="stop-color:#5187d6;stop-opacity:1.0000000;" />
    </linearGradient>
    <linearGradient
       gradientTransform="translate(-1.9043922e-7,16.000001)"
       inkscape:collect="always"
       xlink:href="#linearGradient7916"
       id="linearGradient7922"
       x1="16.874998"
       y1="22.851799"
       x2="27.900846"
       y2="34.976799"
       gradientUnits="userSpaceOnUse" />
    <linearGradient
       id="linearGradient7916">
      <stop
         style="stop-color:#ffffff;stop-opacity:1;"
         offset="0"
         id="stop7918" />
      <stop
         style="stop-color:#ffffff;stop-opacity:0.34020618;"
         offset="1.0000000"
         id="stop7920" />
    </linearGradient>
    <radialGradient
       inkscape:collect="always"
       xlink:href="#linearGradient2091"
       id="radialGradient2097"
       cx="23.070683"
       cy="35.127438"
       fx="23.070683"
       fy="35.127438"
       r="10.31934"
       gradientTransform="matrix(0.914812,0.01265023,-0.00821502,0.213562,2.253914,27.18889)"
       gradientUnits="userSpaceOnUse" />
    <linearGradient
       inkscape:collect="always"
       id="linearGradient2091">
      <stop
         style="stop-color:#000000;stop-opacity:1;"
         offset="0"
         id="stop2093" />
      <stop
         style="stop-color:#000000;stop-opacity:0;"
         offset="1"
         id="stop2095" />
    </linearGradient>
    <radialGradient
       r="10.31934"
       fy="35.127438"
       fx="23.070683"
       cy="35.127438"
       cx="23.070683"
       gradientTransform="matrix(0.914812,0.01265023,-0.00821502,0.213562,2.253914,27.18889)"
       gradientUnits="userSpaceOnUse"
       id="radialGradient3083"
       xlink:href="#linearGradient2091"
       inkscape:collect="always" />
    <radialGradient
       inkscape:collect="always"
       xlink:href="#linearGradient2091"
       id="radialGradient3037"
       gradientUnits="userSpaceOnUse"
       gradientTransform="matrix(0.914812,0.01265023,-0.00821502,0.213562,2.253914,27.18889)"
       cx="23.070683"
       cy="35.127438"
       fx="23.070683"
       fy="35.127438"
       r="10.31934" />
    <linearGradient
       id="linearGradient2667">
      <stop
         id="stop2669"
         offset="0.0000000"
         style="stop-color:#ffffff;stop-opacity:1.0000000;" />
      <stop
         id="stop2671"
         offset="1.0000000"
         style="stop-color:#fcfcff;stop-opacity:0.0000000;" />
    </linearGradient>
    <linearGradient
       id="linearGradient4163">
      <stop
         style="stop-color:#3b74bc;stop-opacity:1.0000000;"
         offset="0.0000000"
         id="stop4165" />
      <stop
         style="stop-color:#2d5990;stop-opacity:1.0000000;"
         offset="1.0000000"
         id="stop4167" />
    </linearGradient>
    <linearGradient
       id="linearGradient3824">
      <stop
         style="stop-color:#ffffff;stop-opacity:1;"
         offset="0"
         id="stop3826" />
      <stop
         style="stop-color:#c9c9c9;stop-opacity:1.0000000;"
         offset="1.0000000"
         id="stop3828" />
    </linearGradient>
    <linearGradient
       id="linearGradient3800">
      <stop
         style="stop-color:#f4d9b1;stop-opacity:1.0000000;"
         offset="0.0000000"
         id="stop3802" />
      <stop
         style="stop-color:#df9725;stop-opacity:1.0000000;"
         offset="1.0000000"
         id="stop3804" />
    </linearGradient>
    <linearGradient
       inkscape:collect="always"
       xlink:href="#linearGradient4356"
       id="linearGradient4362"
       x1="20.661695"
       y1="35.817974"
       x2="22.626925"
       y2="36.217758"
       gradientUnits="userSpaceOnUse"
       gradientTransform="matrix(0.983375,0.181588,-0.181588,0.983375,6.231716,-2.651466)" />
    <linearGradient
       inkscape:collect="always"
       id="linearGradient4356">
      <stop
         style="stop-color:#000000;stop-opacity:1;"
         offset="0"
         id="stop4358" />
      <stop
         style="stop-color:#000000;stop-opacity:0;"
         offset="1"
         id="stop4360" />
    </linearGradient>
    <linearGradient
       inkscape:collect="always"
       xlink:href="#linearGradient4356"
       id="linearGradient4366"
       gradientUnits="userSpaceOnUse"
       x1="22.686766"
       y1="36.3904"
       x2="21.408455"
       y2="35.739632"
       gradientTransform="matrix(-0.977685,0.210075,0.210075,0.977685,55.1096,-3.945209)" />
    <radialGradient
       inkscape:collect="always"
       xlink:href="#linearGradient3800"
       id="radialGradient3180"
       gradientUnits="userSpaceOnUse"
       gradientTransform="matrix(0.787998,0,0,0.787998,6.221198,3.617627)"
       cx="29.344931"
       cy="17.064077"
       fx="29.344931"
       fy="17.064077"
       r="9.1620579" />
    <radialGradient
       inkscape:collect="always"
       xlink:href="#linearGradient3290-7"
       id="radialGradient11162"
       gradientUnits="userSpaceOnUse"
       cx="29.288071"
       cy="15.720984"
       fx="29.158466"
       fy="15.755712"
       r="8.9020796" />
    <linearGradient
       id="linearGradient3290-7">
      <stop
         style="stop-color:#fffcde;stop-opacity:1.0000000;"
         offset="0.0000000"
         id="stop3292-1" />
      <stop
         id="stop3294-7"
         offset="0.64485979"
         style="stop-color:#f6e76a;stop-opacity:1.0000000;" />
      <stop
         style="stop-color:#ffb738;stop-opacity:1.0000000;"
         offset="1.0000000"
         id="stop3296-6" />
    </linearGradient>
    <radialGradient
       inkscape:collect="always"
       xlink:href="#aigrd2"
       id="radialGradient11164"
       gradientUnits="userSpaceOnUse"
       gradientTransform="matrix(0.617019,0,0,0.617019,407.23526,917.18872)"
       cx="25.0527"
       cy="39.5928"
       fx="25.0527"
       fy="39.5928"
       r="15.7572" />
    <radialGradient
       gradientUnits="userSpaceOnUse"
       fy="39.5928"
       fx="25.0527"
       r="15.7572"
       cy="39.5928"
       cx="25.0527"
       id="aigrd2"
       gradientTransform="matrix(0.617019,0,0,0.617019,357.23526,915.18886)">
      <stop
         id="stop8602"
         style="stop-color:#777777;stop-opacity:1.0000000;"
         offset="0.0000000" />
      <stop
         id="stop8604"
         style="stop-color:#000000"
         offset="1" />
    </radialGradient>
    <radialGradient
       inkscape:collect="always"
       xlink:href="#linearGradient3063"
       id="radialGradient11166"
       gradientUnits="userSpaceOnUse"
       gradientTransform="matrix(1.402663,0,0,1.115648,462.27552,855.82941)"
       cx="15.491823"
       cy="10.943316"
       fx="15.491823"
       fy="10.943316"
       r="18.370251" />
    <radialGradient
       inkscape:collect="always"
       xlink:href="#linearGradient8543"
       id="radialGradient11168"
       gradientUnits="userSpaceOnUse"
       gradientTransform="matrix(0.224796,0.01017229,-0.00975947,0.215674,394.63387,800.87806)"
       cx="500.97794"
       cy="286.46918"
       fx="500.97794"
       fy="286.46918"
       r="40.975471" />
    <linearGradient
       id="linearGradient8543">
      <stop
         id="stop8545"
         offset="0"
         style="stop-color:#fffef5;stop-opacity:0.94117647;" />
      <stop
         id="stop8547"
         offset="1"
         style="stop-color:#729fcf;stop-opacity:1;" />
    </linearGradient>
    <radialGradient
       inkscape:collect="always"
       xlink:href="#linearGradient8543"
       id="radialGradient11170"
       gradientUnits="userSpaceOnUse"
       gradientTransform="matrix(0.272962,-0.071724,0.05616202,0.213737,389.96694,831.47119)"
       cx="293.81989"
       cy="243.06874"
       fx="293.81989"
       fy="243.06874"
       r="48.782982" />
    <radialGradient
       inkscape:collect="always"
       xlink:href="#linearGradient11202"
       id="radialGradient11172"
       gradientUnits="userSpaceOnUse"
       gradientTransform="matrix(0.08174351,0.01024998,-0.04335971,0.345793,474.63692,771.27189)"
       cx="424.99243"
       cy="270.67969"
       fx="424.99243"
       fy="270.67969"
       r="38.451698" />
    <linearGradient
       id="linearGradient11202">
      <stop
         id="stop11204"
         offset="0"
         style="stop-color:#729fcf;stop-opacity:0;" />
      <stop
         id="stop11206"
         offset="1"
         style="stop-color:#729fcf;stop-opacity:1;" />
    </linearGradient>
    <radialGradient
       inkscape:collect="always"
       xlink:href="#linearGradient8543"
       id="radialGradient11174"
       gradientUnits="userSpaceOnUse"
       gradientTransform="matrix(0.105628,-0.03147023,0.06692574,0.10918117,422.49746,838.92989)"
       cx="340.35886"
       cy="409.83737"
       fx="340.35886"
       fy="409.83737"
       r="103.26014" />
    <radialGradient
       inkscape:collect="always"
       xlink:href="#linearGradient8543"
       id="radialGradient11176"
       gradientUnits="userSpaceOnUse"
       gradientTransform="matrix(0.163532,-0.00357184,0.01078108,0.05544169,422.33164,848.92599)"
       cx="420.87839"
       cy="685.99139"
       fx="420.87839"
       fy="685.99139"
       r="235.88632" />
    <radialGradient
       inkscape:collect="always"
       xlink:href="#linearGradient3290-7"
       id="radialGradient11150"
       gradientUnits="userSpaceOnUse"
       cx="29.288071"
       cy="15.720984"
       fx="29.158466"
       fy="15.755712"
       r="8.9020796" />
    <radialGradient
       inkscape:collect="always"
       xlink:href="#aigrd2"
       id="radialGradient11152"
       gradientUnits="userSpaceOnUse"
       gradientTransform="matrix(0.617019,0,0,0.617019,357.23526,917.18872)"
       cx="25.0527"
       cy="39.5928"
       fx="25.0527"
       fy="39.5928"
       r="15.7572" />
    <radialGradient
       gradientUnits="userSpaceOnUse"
       fy="39.5928"
       fx="25.0527"
       r="15.7572"
       cy="39.5928"
       cx="25.0527"
       id="radialGradient5114"
       gradientTransform="matrix(0.617019,0,0,0.617019,357.23526,915.18886)">
      <stop
         id="stop5116"
         style="stop-color:#777777;stop-opacity:1.0000000;"
         offset="0.0000000" />
      <stop
         id="stop5118"
         style="stop-color:#000000"
         offset="1" />
    </radialGradient>
    <radialGradient
       inkscape:collect="always"
       xlink:href="#linearGradient11202"
       id="radialGradient11154"
       gradientUnits="userSpaceOnUse"
       cx="18.240929"
       cy="21.817987"
       fx="18.240929"
       fy="21.817987"
       r="8.3085051" />
    <radialGradient
       inkscape:collect="always"
       xlink:href="#linearGradient3063"
       id="radialGradient11156"
       gradientUnits="userSpaceOnUse"
       gradientTransform="matrix(1.913572,0,0,1.662023,352.54125,895.50104)"
       cx="15.414371"
       cy="13.078408"
       fx="15.414371"
       fy="13.078408"
       r="6.65625" />
    <radialGradient
       inkscape:collect="always"
       xlink:href="#linearGradient11202"
       id="radialGradient11158"
       gradientUnits="userSpaceOnUse"
       cx="18.240929"
       cy="21.817987"
       fx="18.240929"
       fy="21.817987"
       r="8.3085051" />
    <radialGradient
       inkscape:collect="always"
       xlink:href="#linearGradient3063"
       id="radialGradient11160"
       gradientUnits="userSpaceOnUse"
       gradientTransform="matrix(1.913572,0,0,1.662023,328.01091,895.50104)"
       cx="15.414371"
       cy="13.078408"
       fx="15.414371"
       fy="13.078408"
       r="6.65625" />
  </defs>
  <sodipodi:namedview
     inkscape:window-height="991"
     inkscape:window-width="1680"
     inkscape:pageshadow="2"
     inkscape:pageopacity="0.0"
     guidetolerance="10.0"
     gridtolerance="10.0"
     objecttolerance="10.0"
     borderopacity="1.0"
     bordercolor="#666666"
     pagecolor="#ffffff"
     id="base"
     inkscape:zoom="8.7173008"
     inkscape:cx="21.367685"
     inkscape:cy="41.670116"
     inkscape:window-x="0"
     inkscape:window-y="27"
     inkscape:current-layer="svg2"
     inkscape:grid-points="true"
     inkscape:object-nodes="true"
     inkscape:guide-points="true"
     inkscape:object-points="true"
     inkscape:object-bbox="true"
     showgrid="true"
     inkscape:window-maximized="1"
     inkscape:snap-global="true"
     showguides="true"
     inkscape:guide-bbox="true" />
  <g
     id="g11050"
     transform="matrix(0.56219815,0,0,0.56219815,-193.76936,-506.02684)">
    <circle
       style="color:#000000;display:inline;overflow:visible;visibility:visible;fill:url(#radialGradient11150);fill-opacity:1;fill-rule:evenodd;stroke:#9c8c0a;stroke-width:0.48004404;stroke-linecap:round;stroke-linejoin:round;stroke-miterlimit:4;stroke-dasharray:none;stroke-dashoffset:0;stroke-opacity:1;marker:none"
       id="path11052"
       transform="matrix(2.083142,0,0,2.083142,307.63331,890.72708)"
       cx="31.112698"
       cy="19.008621"
       r="8.6620579" />
    <g
       id="g11054"
       transform="matrix(1,0,0,3.6666667,348.18046,856.21932)">
      <ellipse
         style="color:#000000;display:inline;overflow:visible;visibility:visible;fill:#000000;fill-opacity:1;fill-rule:evenodd;stroke:none;stroke-width:0.99999946;marker:none"
         id="path11056"
         transform="translate(-2.875,-0.625)"
         cx="36"
         cy="19.1875"
         rx="2.375"
         ry="0.5625" />
      <ellipse
         transform="translate(-20.25,-0.625)"
         id="path11058"
         style="color:#000000;display:inline;overflow:visible;visibility:visible;fill:#000000;fill-opacity:1;fill-rule:evenodd;stroke:none;stroke-width:0.99999946;marker:none"
         cx="36"
         cy="19.1875"
         rx="2.375"
         ry="0.5625" />
    </g>
    <circle
       id="path11060"
       style="color:#000000;display:inline;overflow:visible;visibility:visible;opacity:0.67721522;fill:none;stroke:#ffffff;stroke-width:0.50510627;stroke-linecap:round;stroke-linejoin:round;stroke-miterlimit:4;stroke-dasharray:none;stroke-dashoffset:0;stroke-opacity:1;marker:none"
       transform="matrix(1.979782,0,0,1.979782,310.84918,892.69186)"
       cx="31.112698"
       cy="19.008621"
       r="8.6620579" />
    <path
       style="color:#000000;display:inline;overflow:visible;visibility:visible;opacity:0.36000001;fill:#ffffff;fill-opacity:1;fill-rule:nonzero;stroke:none;stroke-width:1;marker:none"
       d="m 378.83789,935.99156 c -1.48898,2.57898 -3.22998,4.43762 -6.32921,4.43762 -3.01107,0 -5.21532,-2.14214 -6.59099,-4.52488 1.25843,1.50845 3.10135,3.24124 6.4601,3.24124 4.01319,0 4.7149,-1.43487 6.4601,-3.15398 z"
       id="path11062"
       sodipodi:nodetypes="czczc"
       inkscape:connector-curvature="0" />
    <path
       sodipodi:nodetypes="czczc"
       id="path11064"
       d="m 378.83789,935.64252 c -1.48898,2.57898 -3.22998,4.43763 -6.32921,4.43763 -3.01107,0 -5.21532,-2.14214 -6.59099,-4.52489 1.25843,1.50845 3.10135,3.24124 6.4601,3.24124 4.01319,0 4.7149,-1.43487 6.4601,-3.15398 z"
       style="fill:url(#radialGradient11152);fill-rule:nonzero;stroke:none"
       inkscape:connector-curvature="0" />
    <g
       style="stroke:#414141;stroke-opacity:1"
       transform="translate(348.55546,909.96932)"
       id="g11066">
      <circle
         style="color:#000000;display:inline;overflow:visible;visibility:visible;fill:none;stroke:#414141;stroke-width:0.99999946;stroke-linecap:round;stroke-linejoin:round;stroke-miterlimit:4;stroke-dasharray:none;stroke-dashoffset:0;stroke-opacity:1;marker:none"
         id="path11068"
         cx="11.490486"
         cy="12.467883"
         r="9.5459423" />
      <circle
         id="path11070"
         style="color:#000000;display:inline;overflow:visible;visibility:visible;fill:none;stroke:#414141;stroke-width:0.99999946;stroke-linecap:round;stroke-linejoin:round;stroke-miterlimit:4;stroke-dasharray:none;stroke-dashoffset:0;stroke-opacity:1;marker:none"
         transform="translate(24.57196,0)"
         cx="11.490486"
         cy="12.467883"
         r="9.5459423" />
      <path
         transform="matrix(-0.40175,-0.479532,0.479532,-0.40175,22.40521,22.90045)"
         sodipodi:type="arc"
         style="color:#000000;display:inline;overflow:visible;visibility:visible;fill:none;stroke:#414141;stroke-width:1.59850872;stroke-linecap:round;stroke-linejoin:round;stroke-miterlimit:4;stroke-dasharray:none;stroke-dashoffset:0;stroke-opacity:1;marker:none"
         id="path11072"
         sodipodi:cx="11.490486"
         sodipodi:cy="12.467883"
         sodipodi:rx="9.5459423"
         sodipodi:ry="9.5459423"
         d="m 21.036428,12.467883 a 9.5459423,9.5459423 0 0 1 -7.821452,9.388884"
         sodipodi:start="0"
         sodipodi:end="1.3891474"
         sodipodi:open="true" />
    </g>
    <circle
       style="color:#000000;visibility:visible;fill:url(#radialGradient11154);fill-opacity:1;fill-rule:evenodd;stroke:#3063a3;stroke-width:0.968844;stroke-linecap:round;stroke-linejoin:miter;stroke-miterlimit:10;stroke-dashoffset:0;stroke-opacity:1;marker:none"
       id="path11074"
       transform="matrix(1.032158,0,0,1.032158,366.44153,903.35472)"
       cx="17.589281"
       cy="18.478292"
       r="8.3085051" />
    <path
       style="color:#000000;display:inline;overflow:visible;visibility:visible;opacity:0.83422457;fill:url(#radialGradient11156);fill-opacity:1;fill-rule:evenodd;stroke:none;stroke-width:1;marker:none"
       d="m 384.43457,914.9379 c -3.84313,0 -6.95519,3.11205 -6.95519,6.95519 0,1.10991 0.31018,2.13114 0.7728,3.06257 0.92424,0.34066 1.90604,0.57244 2.94809,0.57244 4.55408,0 8.19112,-3.58782 8.47216,-8.07145 -1.27743,-1.50958 -3.10695,-2.51875 -5.23786,-2.51875 z"
       id="path11076"
       inkscape:connector-curvature="0" />
    <circle
       transform="matrix(1.032158,0,0,1.032158,341.9112,903.35472)"
       id="path11078"
       style="color:#000000;visibility:visible;fill:url(#radialGradient11158);fill-opacity:1;fill-rule:evenodd;stroke:#3063a3;stroke-width:0.968844;stroke-linecap:round;stroke-linejoin:miter;stroke-miterlimit:10;stroke-dashoffset:0;stroke-opacity:1;marker:none"
       cx="17.589281"
       cy="18.478292"
       r="8.3085051" />
    <path
       id="path11080"
       d="m 359.90424,914.9379 c -3.84313,0 -6.95519,3.11205 -6.95519,6.95519 0,1.10991 0.31018,2.13114 0.7728,3.06257 0.92424,0.34066 1.90604,0.57244 2.94809,0.57244 4.55408,0 8.19112,-3.58782 8.47216,-8.07145 -1.27742,-1.50958 -3.10695,-2.51875 -5.23786,-2.51875 z"
       style="color:#000000;display:inline;overflow:visible;visibility:visible;opacity:0.83422457;fill:url(#radialGradient11160);fill-opacity:1;fill-rule:evenodd;stroke:none;stroke-width:1;marker:none"
       inkscape:connector-curvature="0" />
  </g>
  <g
     id="g11094"
     transform="matrix(0.56219815,0,0,0.56219815,-259.44471,-476.02685)">
    <circle
       style="color:#000000;display:inline;overflow:visible;visibility:visible;fill:url(#radialGradient11162);fill-opacity:1;fill-rule:evenodd;stroke:#9c8c0a;stroke-width:0.48004404;stroke-linecap:round;stroke-linejoin:round;stroke-miterlimit:4;stroke-dasharray:none;stroke-dashoffset:0;stroke-opacity:1;marker:none"
       id="path11096"
       transform="matrix(2.083142,0,0,2.083142,424.45285,890.72708)"
       cx="31.112698"
       cy="19.008621"
       r="8.6620579" />
    <circle
       id="path11098"
       style="color:#000000;display:inline;overflow:visible;visibility:visible;opacity:0.67721522;fill:none;stroke:#ffffff;stroke-width:0.50510627;stroke-linecap:round;stroke-linejoin:round;stroke-miterlimit:4;stroke-dasharray:none;stroke-dashoffset:0;stroke-opacity:1;marker:none"
       transform="matrix(1.979782,0,0,1.979782,427.66872,892.69186)"
       cx="31.112698"
       cy="19.008621"
       r="8.6620579" />
    <g
       id="g11100"
       transform="matrix(1,0,0,0.79220779,465.35356,915.73049)">
      <path
         id="path11102"
         d="m 21.398158,15.321428 c 0,2.5 -1.125,4.5 -2.5,4.5 -1.375,0 -2.625,-2 -2.625,-4.5 0,-2.5 1.125,-4.5 2.5,-4.5 1.375,0 2.5,2 2.5,4.5 l 0.125,0 z"
         style="opacity:0.36000001;fill:#ffffff;fill-rule:nonzero;stroke:none"
         inkscape:connector-curvature="0" />
      <path
         id="path11104"
         d="m 30.688512,15.321428 c 0,2.5 -1.125,4.5 -2.5,4.5 -1.375,0 -2.5,-2 -2.5,-4.5 0,-2.5 1.125,-4.5 2.5,-4.5 1.375,0 2.5,2 2.5,4.5 z"
         style="opacity:0.36000001;fill:#ffffff;fill-rule:nonzero;stroke:none"
         inkscape:connector-curvature="0" />
      <path
         id="path11106"
         d="m 21.398158,14.696428 c 0,2.5 -1.125,4.5 -2.5,4.5 -1.375,0 -2.5,-2 -2.5,-4.5 0,-2.5 1.125,-4.5 2.5,-4.5 1.375,0 2.5,2 2.5,4.5 z"
         style="fill:#000000;fill-rule:nonzero;stroke:none"
         inkscape:connector-curvature="0" />
      <path
         id="path11108"
         d="m 30.688512,14.696428 c 0,2.5 -1.125,4.5 -2.5,4.5 -1.375,0 -2.5,-2 -2.5,-4.5 0,-2.5 1.125,-4.5 2.5,-4.5 1.375,0 2.5,2 2.5,4.5 z"
         style="fill:#000000;fill-rule:nonzero;stroke:none"
         inkscape:connector-curvature="0" />
    </g>
    <g
       transform="translate(66.887227,0)"
       id="g11110">
      <path
         inkscape:connector-curvature="0"
         sodipodi:nodetypes="czczc"
         id="path11112"
         d="m 428.83789,935.99156 c -1.48898,2.57898 -3.22998,4.43762 -6.32921,4.43762 -3.01107,0 -5.21532,-2.14214 -6.59099,-4.52488 1.25843,1.50845 3.10135,3.24124 6.4601,3.24124 4.01319,0 4.7149,-1.43487 6.4601,-3.15398 z"
         style="color:#000000;display:inline;overflow:visible;visibility:visible;opacity:0.36000001;fill:#ffffff;fill-opacity:1;fill-rule:nonzero;stroke:none;stroke-width:1;marker:none" />
      <path
         inkscape:connector-curvature="0"
         style="fill:url(#radialGradient11164);fill-rule:nonzero;stroke:none"
         d="m 428.83789,935.64252 c -1.48898,2.57898 -3.22998,4.43763 -6.32921,4.43763 -3.01107,0 -5.21532,-2.14214 -6.59099,-4.52489 1.25843,1.50845 3.10135,3.24124 6.4601,3.24124 4.01319,0 4.7149,-1.43487 6.4601,-3.15398 z"
         id="path11114"
         sodipodi:nodetypes="czczc" />
    </g>
    <g
       transform="matrix(0.78428658,0,0,0.78428658,103.22656,231.02279)"
       id="g11116">
      <path
         inkscape:connector-curvature="0"
         style="fill:#729fcf;fill-opacity:1;stroke:#204a87;stroke-width:1.27504408;stroke-miterlimit:4;stroke-dasharray:none;stroke-opacity:1"
         d="m 491.66626,856.95629 c -2.77254,0.0389 -5.28693,0.71069 -7.51847,1.83944 -1.09275,2.15183 -4.69058,4.70974 -6.16533,4.98193 -2.89978,3.45927 -4.78023,7.80348 -5.4935,11.98006 -4.4e-4,0.003 4.4e-4,0.005 0,0.008 -1.18636,1.54972 -1.69001,3.3966 -1.37735,5.53256 0.0852,0.58229 6.04701,2.82955 8.18464,3.55678 4.63482,1.57677 22.94826,1.34715 25.1295,0.45825 1.81105,-0.73805 8.6858,-2.40146 8.8919,-3.78075 0.30555,-2.04483 -0.14484,-3.8412 -1.2306,-5.37294 -0.009,-0.0556 -0.0185,-0.11148 -0.0283,-0.16735 -0.78126,-4.43886 -2.84736,-8.88902 -5.94264,-12.36918 -2.09381,-0.21743 -6.13962,-3.57636 -7.11943,-5.2237 -2.15265,-0.92097 -4.52181,-1.4428 -7.07552,-1.4428 -0.0853,0 -0.17004,-10e-4 -0.25488,0 z"
         id="path11118"
         sodipodi:nodetypes="cccscsssscsccscc" />
      <path
         inkscape:connector-curvature="0"
         style="opacity:0.59444424;fill:url(#radialGradient11166);fill-opacity:1;stroke:none"
         d="m 491.10726,858.55735 c -2.32956,0.11657 -4.44097,0.72504 -6.34375,1.6875 -1.01073,1.99031 -4.3547,4.37324 -5.71875,4.625 -2.68211,3.19961 -4.40278,7.19943 -5.0625,11.0625 -4.1e-4,0.002 4e-4,0.0289 0,0.0313 -1.09731,1.43339 -1.35269,2.64312 -1.35269,2.64312 4.92041,2.09044 7.53627,-0.83848 14.21353,-3.06959 12.59928,1.92314 18.74834,1.00445 22.51416,-3.66728 0.007,-0.009 -0.004,-0.0209 0,-0.0313 -0.99119,-2.58283 -2.43227,-5.04611 -4.28125,-7.125 -1.93664,-0.20111 -5.6875,-3.28881 -6.59375,-4.8125 -1.99107,-0.85184 -4.16923,-1.34375 -6.53125,-1.34375 -0.0789,0 -0.17153,-0.001 -0.25,0 -0.20035,0.003 -0.39633,-0.01 -0.59375,0 z"
         id="path11120"
         sodipodi:nodetypes="cccssccscccssc" />
      <path
         inkscape:connector-curvature="0"
         style="fill:url(#radialGradient11168);fill-opacity:1;fill-rule:evenodd;stroke:none"
         d="m 503.20507,863.45441 2.50088,1.12539 c 0,0 -3.58403,4.8221 -6.66901,8.48494 1.031,-3.84776 4.18897,-9.61033 4.16813,-9.61033 z"
         id="path11122"
         sodipodi:nodetypes="cccc" />
      <path
         inkscape:connector-curvature="0"
         style="fill:url(#radialGradient11170);fill-opacity:1;fill-rule:evenodd;stroke:none"
         d="m 484.38594,859.93233 c 0.78468,4.7408 6.50229,11.48599 6.00212,12.00701 -1.86547,-1.86547 -7.0804,-6.84822 -8.00282,-9.92294 0,-0.0834 2.0007,-2.06323 2.0007,-2.08407 z"
         id="path11124"
         sodipodi:nodetypes="cccc" />
      <path
         inkscape:connector-curvature="0"
         style="fill:url(#radialGradient11172);fill-opacity:1;fill-rule:evenodd;stroke:none"
         d="m 498.72433,859.59888 c -1.76764,7.14271 -4.2515,11.25674 -4.2515,11.25674 0,0 6.33556,-8.75586 6.33556,-9.17267 0,0 -1.58389,-1.50053 -2.08406,-2.08407 z"
         id="path11126"
         sodipodi:nodetypes="ccsc" />
      <path
         inkscape:connector-curvature="0"
         style="fill:url(#radialGradient11174);fill-opacity:1;fill-rule:evenodd;stroke:none"
         d="m 484.6956,879.94492 -0.0447,-6.6717 14.49372,0 1.64261,-0.8809 -16.93147,0 0.0447,7.41826 0.79514,0.13434 z"
         id="path11128"
         sodipodi:nodetypes="ccccccc" />
      <path
         inkscape:connector-curvature="0"
         style="fill:#204a87;fill-opacity:1;fill-rule:evenodd;stroke:none"
         d="m 499.557,873.21093 0.0817,6.83544 0.68615,-0.1497 0.012,-7.56664 -0.77981,0.8809 z"
         id="path11130"
         sodipodi:nodetypes="ccccc" />
      <path
         inkscape:connector-curvature="0"
         style="opacity:0.66666667;fill:url(#radialGradient11176);fill-opacity:1;fill-rule:evenodd;stroke:none"
         d="m 512.14319,878.56909 c -2.98867,1.7349 -37.55411,1.79027 -39.51362,0.0377 -0.006,0.75455 -0.98869,1.92388 -0.28189,2.27353 4.04915,2.00299 9.6211,4.19664 24.46108,3.91207 5.22138,-0.10013 12.39267,-1.5066 15.19384,-3.37817 0.76729,-1.47417 0.14055,-2.84506 0.14055,-2.84506 z"
         id="path11132"
         sodipodi:nodetypes="ccssccc" />
    </g>
  </g>
  <rect
     ry="2"
     rx="2"
     y="15.000005"
     x="32.5"
     height="4"
     width="7"
     id="rect3105"
     style="fill:#ad7fa8;stroke:#555753;stroke-width:0.99999994;stroke-linecap:round;stroke-linejoin:round;stroke-miterlimit:4;stroke-dasharray:none" />
  <rect
     style="fill:#ad7fa8;stroke:#555753;stroke-width:0.99999994;stroke-linecap:round;stroke-linejoin:round;stroke-miterlimit:4;stroke-dasharray:none"
     id="rect3107"
     width="14"
     height="4"
     x="32.5"
     y="42.42374"
     rx="2"
     ry="2" />
  <rect
     ry="2"
     rx="1.9999999"
     y="15.000005"
     x="40.5"
     height="4"
     width="19"
     id="rect3109"
     style="fill:#ad7fa8;stroke:#555753;stroke-width:0.99999994;stroke-linecap:round;stroke-linejoin:round;stroke-miterlimit:4;stroke-dasharray:none" />
  <rect
     style="fill:#ad7fa8;stroke:#555753;stroke-width:1;stroke-linecap:round;stroke-linejoin:round;stroke-miterlimit:4;stroke-dasharray:none"
     id="rect3111"
     width="12"
     height="4"
     x="47.5"
     y="42.42374"
     rx="2"
     ry="2" />
</svg>
