<?xml version="1.0" encoding="UTF-8" standalone="no"?>
<!DOCTYPE svg PUBLIC "-//W3C//DTD SVG 1.0//EN" "http://www.w3.org/TR/2001/REC-SVG-20010904/DTD/svg10.dtd">
<!-- Generated by Microsoft Visio 11.0, SVG Export, v1.0 and.svg Page-1 -->
<svg xmlns="http://www.w3.org/2000/svg" xmlns:v="http://schemas.microsoft.com/visio/2003/SVGExtensions/" width="2.32372in"
		height="0.670169in" viewBox="0 0 167.308 48.2522" xml:space="preserve" color-interpolation-filters="sRGB" class="st7">
	<v:documentProperties v:langID="1033" v:metric="true" v:viewMarkup="false"/>

	<style type="text/css">
	<![CDATA[
		.st1 {fill:#e8eef7;stroke:#000000;stroke-linecap:round;stroke-linejoin:round;stroke-width:0.24}
		.st2 {fill:#000000;font-family:Arial;font-size:0.666664em}
		.st3 {font-size:1em}
		.st4 {fill:#000000;font-family:Arial;font-size:0.666664em;font-style:italic}
		.st5 {marker-end:url(#mrkr2-13);stroke:#4677bf;stroke-linecap:round;stroke-linejoin:round;stroke-width:0.24}
		.st6 {fill:#4677bf;fill-opacity:1;stroke:#4677bf;stroke-opacity:1;stroke-width:0.08695652173913}
		.st7 {fill:none;fill-rule:evenodd;font-size:12;overflow:visible;stroke-linecap:square;stroke-miterlimit:3}
	]]>
	</style>

	<defs id="Markers">
		<g id="lend2">
			<path d="M 1 1 L 0 0 L 1 -1 L 1 1 " style="stroke:none"/>
		</g>
		<marker id="mrkr2-13" class="st6" v:arrowType="2" v:arrowSize="2" v:setback="11.5" refX="-11.5" orient="auto"
				markerUnits="strokeWidth">
			<use xlink:href="#lend2" transform="scale(-11.5,-11.5) "/>
		</marker>
	</defs>
	<g v:mID="0" v:index="1" v:groupContext="foregroundPage">
		<title>Page-1</title>
		<v:pageProperties v:drawingScale="0.0393701" v:pageScale="0.0393701" v:drawingUnits="24" v:shadowOffsetX="8.50394"
				v:shadowOffsetY="-8.50394"/>
		<v:layer v:name="Flowchart" v:index="0"/>
		<v:layer v:name="Connector" v:index="1"/>
		<g id="shape88-1" v:mID="88" v:groupContext="shape" v:layerMember="0" transform="translate(110.375,-34.6725)">
			<title>Process.88</title>
			<desc>‘&#38;&#38;’</desc>
			<v:custProps>
				<v:cp v:nameU="Cost" v:lbl="Cost" v:type="7" v:format="@" v:langID="1033"/>
				<v:cp v:nameU="Duration" v:lbl="Duration" v:type="2" v:langID="1033"/>
				<v:cp v:nameU="Resources" v:lbl="Resources" v:langID="1033"/>
			</v:custProps>
			<v:userDefs>
				<v:ud v:nameU="visVersion" v:val="VT0(11):26"/>
			</v:userDefs>
			<v:textBlock v:margins="rect(2,2,2,2)" v:tabSpace="42.5197"/>
			<v:textRect cx="9.63712" cy="41.5824" width="19.28" height="13.3396"/>
			<rect x="0" y="34.9125" width="19.2742" height="13.3396" rx="2.83465" ry="2.83465" class="st1"/>
			<text x="2.51" y="43.98" class="st2" v:langID="1033"><v:paragraph v:horizAlign="1"/><v:tabList/>‘<tspan class="st3"
						v:langID="2057">&#38;&#38;</tspan>’</text>		</g>
		<g id="shape89-5" v:mID="89" v:groupContext="shape" v:layerMember="0" transform="translate(38.7995,-16.9141)">
			<title>Process.89</title>
			<desc>column</desc>
			<v:custProps>
				<v:cp v:nameU="Cost" v:lbl="Cost" v:type="7" v:format="@" v:langID="1033"/>
				<v:cp v:nameU="Duration" v:lbl="Duration" v:type="2" v:langID="1033"/>
				<v:cp v:nameU="Resources" v:lbl="Resources" v:langID="1033"/>
			</v:custProps>
			<v:userDefs>
				<v:ud v:nameU="visVersion" v:val="VT0(11):26"/>
			</v:userDefs>
			<v:textBlock v:margins="rect(2,2,2,2)" v:tabSpace="42.5197"/>
			<v:textRect cx="21.4689" cy="41.5824" width="42.94" height="13.3396"/>
			<rect x="0" y="34.9125" width="42.9378" height="13.3396" rx="2.83465" ry="2.83465" class="st1"/>
			<text x="8.58" y="43.98" class="st4" v:langID="2057"><v:paragraph v:horizAlign="1"/><v:tabList/>column</text>		</g>
		<g id="shape97-8" v:mID="97" v:groupContext="shape" v:layerMember="1" transform="translate(81.7374,-23.584)">
			<title>Dynamic connector.97</title>
			<path d="M0 48.25 L5.46 48.25 A5.46021 5.46021 -180 0 0 10.92 42.79 L10.92 36.16 A5.66929 5.66929 0 0 1 16.59 30.49 L25.88
						 30.49" class="st5"/>
		</g>
		<g id="shape98-14" v:mID="98" v:groupContext="shape" v:layerMember="1;0" transform="translate(0.24,-17.7479)">
			<title>On-page reference.98</title>
			<v:userDefs>
				<v:ud v:nameU="visVersion" v:val="VT0(11):26"/>
			</v:userDefs>
			<v:textBlock v:margins="rect(2,2,2,2)" v:tabSpace="42.5197"/>
			<path d="M0 42.42 A5.83609 5.83609 0 1 1 11.67 42.42 A5.83609 5.83609 0 0 1 0 42.42 Z" class="st1"/>
		</g>
		<g id="shape99-16" v:mID="99" v:groupContext="shape" v:layerMember="1;0" transform="translate(155.395,-17.7479)">
			<title>On-page reference.99</title>
			<v:userDefs>
				<v:ud v:nameU="visVersion" v:val="VT0(11):26"/>
			</v:userDefs>
			<v:textBlock v:margins="rect(2,2,2,2)" v:tabSpace="42.5197"/>
			<path d="M0 42.42 A5.83609 5.83609 0 1 1 11.67 42.42 A5.83609 5.83609 0 0 1 0 42.42 Z" class="st1"/>
		</g>
		<g id="shape100-18" v:mID="100" v:groupContext="shape" v:layerMember="1" transform="translate(11.9122,-16.4973)">
			<title>Dynamic connector.100</title>
			<path d="M0 41.17 L24.13 41.17" class="st5"/>
		</g>
		<g id="shape110-23" v:mID="110" v:groupContext="shape" v:layerMember="0" transform="translate(108.391,-0.24)">
			<title>Process.110</title>
			<desc>‘and’</desc>
			<v:custProps>
				<v:cp v:nameU="Cost" v:lbl="Cost" v:type="7" v:format="@" v:langID="1033"/>
				<v:cp v:nameU="Duration" v:lbl="Duration" v:type="2" v:langID="1033"/>
				<v:cp v:nameU="Resources" v:lbl="Resources" v:langID="1033"/>
			</v:custProps>
			<v:userDefs>
				<v:ud v:nameU="visVersion" v:val="VT0(11):26"/>
			</v:userDefs>
			<v:textBlock v:margins="rect(2,2,2,2)" v:tabSpace="42.5197"/>
			<v:textRect cx="11.9052" cy="41.5824" width="23.82" height="13.3396"/>
			<rect x="0" y="34.9125" width="23.8103" height="13.3396" rx="2.83465" ry="2.83465" class="st1"/>
			<text x="3.45" y="43.98" class="st2" v:langID="1033"><v:paragraph v:horizAlign="1"/><v:tabList/>‘<tspan class="st3"
						v:langID="2057">and</tspan>’</text>		</g>
		<g id="shape111-27" v:mID="111" v:groupContext="shape" v:layerMember="1" transform="translate(81.7374,-23.584)">
			<title>Dynamic connector.111</title>
			<path d="M0 48.25 L5.46 48.25 A5.46021 5.46021 0 0 1 10.92 53.71 L10.92 59.26 A5.66929 5.66929 -180 0 0 16.59 64.93 L23.89
						 64.93" class="st5"/>
		</g>
		<g id="shape91-32" v:mID="91" v:groupContext="shape" v:layerMember="1" transform="translate(129.649,-41.3424)">
			<title>Dynamic connector.91</title>
			<path d="M0 48.25 L9.07 48.25 A5.66929 5.66929 0 0 1 14.74 53.92 L14.74 60.51 A5.50249 5.50249 -180 0 0 20.24 66.01 L22.99
						 66.01" class="st5"/>
		</g>
		<g id="shape112-37" v:mID="112" v:groupContext="shape" v:layerMember="1" transform="translate(132.201,-6.90982)">
			<title>Dynamic connector.112</title>
			<path d="M0 48.25 L7.19 48.25 A5.66929 5.66929 -180 0 0 12.85 42.58 L12.85 36.75 A5.16971 5.16971 0 0 1 18.02 31.58 L20.43
						 31.58" class="st5"/>
		</g>
	</g>
</svg>
