<?xml version="1.0" encoding="UTF-8" standalone="no"?>
<!DOCTYPE svg PUBLIC "-//W3C//DTD SVG 1.0//EN" "http://www.w3.org/TR/2001/REC-SVG-20010904/DTD/svg10.dtd">
<!-- Generated by Microsoft Visio 11.0, SVG Export, v1.0 column.svg Page-1 -->
<svg xmlns="http://www.w3.org/2000/svg" xmlns:v="http://schemas.microsoft.com/visio/2003/SVGExtensions/" width="4.42394in"
		height="3.22275in" viewBox="0 0 318.524 232.038" xml:space="preserve" color-interpolation-filters="sRGB" class="st7">
	<v:documentProperties v:langID="1033" v:metric="true" v:viewMarkup="false"/>

	<style type="text/css">
	<![CDATA[
		.st1 {fill:#e8eef7;stroke:#000000;stroke-linecap:round;stroke-linejoin:round;stroke-width:0.24}
		.st2 {fill:#000000;font-family:Arial;font-size:0.666664em}
		.st3 {fill:#000000;font-family:Arial;font-size:0.666664em;font-style:italic}
		.st4 {font-size:1em}
		.st5 {marker-end:url(#mrkr2-16);stroke:#4677bf;stroke-linecap:round;stroke-linejoin:round;stroke-width:0.24}
		.st6 {fill:#4677bf;fill-opacity:1;stroke:#4677bf;stroke-opacity:1;stroke-width:0.08695652173913}
		.st7 {fill:none;fill-rule:evenodd;font-size:12;overflow:visible;stroke-linecap:square;stroke-miterlimit:3}
	]]>
	</style>

	<defs id="Markers">
		<g id="lend2">
			<path d="M 1 1 L 0 0 L 1 -1 L 1 1 " style="stroke:none"/>
		</g>
		<marker id="mrkr2-16" class="st6" v:arrowType="2" v:arrowSize="2" v:setback="11.5" refX="-11.5" orient="auto"
				markerUnits="strokeWidth">
			<use xlink:href="#lend2" transform="scale(-11.5,-11.5) "/>
		</marker>
	</defs>
	<g v:mID="0" v:index="1" v:groupContext="foregroundPage">
		<title>Page-1</title>
		<v:pageProperties v:drawingScale="0.0393701" v:pageScale="0.0393701" v:drawingUnits="24" v:shadowOffsetX="8.50394"
				v:shadowOffsetY="-8.50394"/>
		<v:layer v:name="Flowchart" v:index="0"/>
		<v:layer v:name="Connector" v:index="1"/>
		<g id="shape1-1" v:mID="1" v:groupContext="shape" v:layerMember="0" transform="translate(155.291,-184.135)">
			<title>Process.103</title>
			<desc>fact</desc>
			<v:custProps>
				<v:cp v:nameU="Cost" v:lbl="Cost" v:type="7" v:format="@" v:langID="1033"/>
				<v:cp v:nameU="Duration" v:lbl="Duration" v:type="2" v:langID="1033"/>
				<v:cp v:nameU="Resources" v:lbl="Resources" v:langID="1033"/>
			</v:custProps>
			<v:userDefs>
				<v:ud v:nameU="visVersion" v:val="VT0(11):26"/>
			</v:userDefs>
			<v:textBlock v:margins="rect(2,2,2,2)" v:tabSpace="42.5197"/>
			<v:textRect cx="16.9746" cy="224.915" width="33.95" height="14.2459"/>
			<rect x="0" y="217.792" width="33.9492" height="14.2459" rx="2.83465" ry="2.83465" class="st1"/>
			<text x="10.53" y="227.31" class="st2" v:langID="2057"><v:paragraph v:horizAlign="1"/><v:tabList/>fact</text>		</g>
		<g id="shape2-4" v:mID="2" v:groupContext="shape" v:layerMember="0" transform="translate(35.3845,-184.135)">
			<title>Process.104</title>
			<desc>factBinding</desc>
			<v:custProps>
				<v:cp v:nameU="Cost" v:lbl="Cost" v:type="7" v:format="@" v:langID="1033"/>
				<v:cp v:nameU="Duration" v:lbl="Duration" v:type="2" v:langID="1033"/>
				<v:cp v:nameU="Resources" v:lbl="Resources" v:langID="1033"/>
			</v:custProps>
			<v:userDefs>
				<v:ud v:nameU="visVersion" v:val="VT0(11):26"/>
			</v:userDefs>
			<v:textBlock v:margins="rect(2,2,2,2)" v:tabSpace="42.5197"/>
			<v:textRect cx="28.0637" cy="224.915" width="56.13" height="14.2459"/>
			<rect x="0" y="217.792" width="56.1275" height="14.2459" rx="2.83465" ry="2.83465" class="st1"/>
			<text x="8.28" y="227.31" class="st3" v:langID="2057"><v:paragraph v:horizAlign="1"/><v:tabList/>factBinding</text>		</g>
		<g id="shape3-7" v:mID="3" v:groupContext="shape" v:layerMember="0" transform="translate(106.993,-184.135)">
			<title>Process.102</title>
			<desc>‘:’</desc>
			<v:custProps>
				<v:cp v:nameU="Cost" v:lbl="Cost" v:type="7" v:format="@" v:langID="1033"/>
				<v:cp v:nameU="Duration" v:lbl="Duration" v:type="2" v:langID="1033"/>
				<v:cp v:nameU="Resources" v:lbl="Resources" v:langID="1033"/>
			</v:custProps>
			<v:userDefs>
				<v:ud v:nameU="visVersion" v:val="VT0(11):26"/>
			</v:userDefs>
			<v:textBlock v:margins="rect(2,2,2,2)" v:tabSpace="42.5197"/>
			<v:textRect cx="10.6844" cy="224.915" width="21.37" height="14.2459"/>
			<rect x="0" y="217.792" width="21.3689" height="14.2459" rx="2.83465" ry="2.83465" class="st1"/>
			<text x="7.79" y="227.31" class="st2" v:langID="1033"><v:paragraph v:horizAlign="1"/><v:tabList/>‘<tspan class="st4"
						v:langID="2057">:</tspan>’</text>		</g>
		<g id="shape4-11" v:mID="4" v:groupContext="shape" v:layerMember="1" transform="translate(6.47259,-219.333)">
			<title>Dynamic connector.105</title>
			<path d="M0 232.04 L0 254.44 A5.66929 5.66929 -180 0 0 5.67 260.11 L26.15 260.11" class="st5"/>
		</g>
		<g id="shape5-17" v:mID="5" v:groupContext="shape" v:layerMember="1" transform="translate(128.362,-184.171)">
			<title>Dynamic connector.106</title>
			<path d="M0 224.95 L24.17 224.95" class="st5"/>
		</g>
		<g id="shape6-22" v:mID="6" v:groupContext="shape" v:layerMember="1" transform="translate(91.512,-184.171)">
			<title>Dynamic connector.108</title>
			<path d="M0 224.95 L12.72 224.95" class="st5"/>
		</g>
		<g id="shape7-27" v:mID="7" v:groupContext="shape" v:layerMember="0" transform="translate(34.819,-155.553)">
			<title>Process.109</title>
			<desc>‘(‘</desc>
			<v:custProps>
				<v:cp v:nameU="Cost" v:lbl="Cost" v:type="7" v:format="@" v:langID="1033"/>
				<v:cp v:nameU="Duration" v:lbl="Duration" v:type="2" v:langID="1033"/>
				<v:cp v:nameU="Resources" v:lbl="Resources" v:langID="1033"/>
			</v:custProps>
			<v:userDefs>
				<v:ud v:nameU="visVersion" v:val="VT0(11):26"/>
			</v:userDefs>
			<v:textBlock v:margins="rect(2,2,2,2)" v:tabSpace="42.5197"/>
			<v:textRect cx="10.6844" cy="224.915" width="21.37" height="14.2459"/>
			<rect x="0" y="217.792" width="21.3689" height="14.2459" rx="2.83465" ry="2.83465" class="st1"/>
			<text x="7.57" y="227.31" class="st2" v:langID="1033"><v:paragraph v:horizAlign="1"/><v:tabList/>‘<tspan class="st4"
						v:langID="2057">(</tspan>‘</text>		</g>
		<g id="shape8-31" v:mID="8" v:groupContext="shape" v:layerMember="0" transform="translate(275.764,-155.553)">
			<title>Process.110</title>
			<desc>‘)’</desc>
			<v:custProps>
				<v:cp v:nameU="Cost" v:lbl="Cost" v:type="7" v:format="@" v:langID="1033"/>
				<v:cp v:nameU="Duration" v:lbl="Duration" v:type="2" v:langID="1033"/>
				<v:cp v:nameU="Resources" v:lbl="Resources" v:langID="1033"/>
			</v:custProps>
			<v:userDefs>
				<v:ud v:nameU="visVersion" v:val="VT0(11):26"/>
			</v:userDefs>
			<v:textBlock v:margins="rect(2,2,2,2)" v:tabSpace="42.5197"/>
			<v:textRect cx="10.6844" cy="224.915" width="21.37" height="14.2459"/>
			<rect x="0" y="217.792" width="21.3689" height="14.2459" rx="2.83465" ry="2.83465" class="st1"/>
			<text x="7.57" y="227.31" class="st2" v:langID="1033"><v:paragraph v:horizAlign="1"/><v:tabList/>‘<tspan class="st4"
						v:langID="2057">)</tspan>’</text>		</g>
		<g id="shape9-35" v:mID="9" v:groupContext="shape" v:layerMember="1" transform="translate(189.241,-191.258)">
			<title>Dynamic connector.111</title>
			<path d="M0 232.04 L7.83 232.04 L7.83 246.48 L-168.65 246.48 L-168.65 260.62 L-157.18 260.62" class="st5"/>
		</g>
		<g id="shape10-40" v:mID="10" v:groupContext="shape" v:layerMember="0" transform="translate(183.638,-134.293)">
			<title>Process.113</title>
			<desc>field</desc>
			<v:custProps>
				<v:cp v:nameU="Cost" v:lbl="Cost" v:type="7" v:format="@" v:langID="1033"/>
				<v:cp v:nameU="Duration" v:lbl="Duration" v:type="2" v:langID="1033"/>
				<v:cp v:nameU="Resources" v:lbl="Resources" v:langID="1033"/>
			</v:custProps>
			<v:userDefs>
				<v:ud v:nameU="visVersion" v:val="VT0(11):26"/>
			</v:userDefs>
			<v:textBlock v:margins="rect(2,2,2,2)" v:tabSpace="42.5197"/>
			<v:textRect cx="24.6521" cy="224.915" width="49.31" height="14.2459"/>
			<rect x="0" y="217.792" width="49.3042" height="14.2459" rx="2.83465" ry="2.83465" class="st1"/>
			<text x="17.31" y="227.31" class="st3" v:langID="2057"><v:paragraph v:horizAlign="1"/><v:tabList/>field</text>		</g>
		<g id="shape11-43" v:mID="11" v:groupContext="shape" v:layerMember="0" transform="translate(70.8608,-134.221)">
			<title>Process.114</title>
			<desc>fieldBinding</desc>
			<v:custProps>
				<v:cp v:nameU="Cost" v:lbl="Cost" v:type="7" v:format="@" v:langID="1033"/>
				<v:cp v:nameU="Duration" v:lbl="Duration" v:type="2" v:langID="1033"/>
				<v:cp v:nameU="Resources" v:lbl="Resources" v:langID="1033"/>
			</v:custProps>
			<v:userDefs>
				<v:ud v:nameU="visVersion" v:val="VT0(11):26"/>
			</v:userDefs>
			<v:textBlock v:margins="rect(2,2,2,2)" v:tabSpace="42.5197"/>
			<v:textRect cx="30.8767" cy="224.915" width="61.76" height="14.2459"/>
			<rect x="0" y="217.792" width="61.7535" height="14.2459" rx="2.83465" ry="2.83465" class="st1"/>
			<text x="10.19" y="227.31" class="st3" v:langID="2057"><v:paragraph v:horizAlign="1"/><v:tabList/>fieldBinding</text>		</g>
		<g id="shape12-46" v:mID="12" v:groupContext="shape" v:layerMember="0" transform="translate(148.859,-134.293)">
			<title>Process.115</title>
			<desc>‘:’</desc>
			<v:custProps>
				<v:cp v:nameU="Cost" v:lbl="Cost" v:type="7" v:format="@" v:langID="1033"/>
				<v:cp v:nameU="Duration" v:lbl="Duration" v:type="2" v:langID="1033"/>
				<v:cp v:nameU="Resources" v:lbl="Resources" v:langID="1033"/>
			</v:custProps>
			<v:userDefs>
				<v:ud v:nameU="visVersion" v:val="VT0(11):26"/>
			</v:userDefs>
			<v:textBlock v:margins="rect(2,2,2,2)" v:tabSpace="42.5197"/>
			<v:textRect cx="10.6844" cy="224.915" width="21.37" height="14.2459"/>
			<rect x="0" y="217.792" width="21.3689" height="14.2459" rx="2.83465" ry="2.83465" class="st1"/>
			<text x="7.79" y="227.31" class="st2" v:langID="1033"><v:paragraph v:horizAlign="1"/><v:tabList/>‘<tspan class="st4"
						v:langID="2057">:</tspan>’</text>		</g>
		<g id="shape13-50" v:mID="13" v:groupContext="shape" v:layerMember="1" transform="translate(169.846,-134.33)">
			<title>Dynamic connector.117</title>
			<path d="M0.38 224.95 L11.03 224.95" class="st5"/>
		</g>
		<g id="shape15-55" v:mID="15" v:groupContext="shape" v:layerMember="1" transform="translate(132.614,-134.293)">
			<title>Dynamic connector.119</title>
			<path d="M0 224.99 L8.5 224.99 L8.5 224.91 L13.48 224.91" class="st5"/>
		</g>
		<g id="shape16-60" v:mID="16" v:groupContext="shape" v:layerMember="0" transform="translate(84.4253,-105.874)">
			<title>Process.120</title>
			<desc>operator</desc>
			<v:custProps>
				<v:cp v:nameU="Cost" v:lbl="Cost" v:type="7" v:format="@" v:langID="1033"/>
				<v:cp v:nameU="Duration" v:lbl="Duration" v:type="2" v:langID="1033"/>
				<v:cp v:nameU="Resources" v:lbl="Resources" v:langID="1033"/>
			</v:custProps>
			<v:userDefs>
				<v:ud v:nameU="visVersion" v:val="VT0(11):26"/>
			</v:userDefs>
			<v:textBlock v:margins="rect(2,2,2,2)" v:tabSpace="42.5197"/>
			<v:textRect cx="24.6521" cy="224.915" width="49.31" height="14.2459"/>
			<rect x="0" y="217.792" width="49.3042" height="14.2459" rx="2.83465" ry="2.83465" class="st1"/>
			<text x="9.75" y="227.31" class="st3" v:langID="2057"><v:paragraph v:horizAlign="1"/><v:tabList/>operator</text>		</g>
		<g id="shape17-63" v:mID="17" v:groupContext="shape" v:layerMember="0" transform="translate(164.15,-105.874)">
			<title>Process.121</title>
			<desc>literalConstraint</desc>
			<v:custProps>
				<v:cp v:nameU="Cost" v:lbl="Cost" v:type="7" v:format="@" v:langID="1033"/>
				<v:cp v:nameU="Duration" v:lbl="Duration" v:type="2" v:langID="1033"/>
				<v:cp v:nameU="Resources" v:lbl="Resources" v:langID="1033"/>
			</v:custProps>
			<v:userDefs>
				<v:ud v:nameU="visVersion" v:val="VT0(11):26"/>
			</v:userDefs>
			<v:textBlock v:margins="rect(2,2,2,2)" v:tabSpace="42.5197"/>
			<v:textRect cx="36.6732" cy="224.915" width="73.35" height="14.2459"/>
			<rect x="0" y="217.792" width="73.3465" height="14.2459" rx="2.83465" ry="2.83465" class="st1"/>
			<text x="8.89" y="227.31" class="st3" v:langID="2057"><v:paragraph v:horizAlign="1"/><v:tabList/>literalConstraint</text>		</g>
		<g id="shape18-66" v:mID="18" v:groupContext="shape" v:layerMember="0" transform="translate(156.545,-52.7847)">
			<title>Process.122</title>
			<desc>returnValueConstraint</desc>
			<v:custProps>
				<v:cp v:nameU="Cost" v:lbl="Cost" v:type="7" v:format="@" v:langID="1033"/>
				<v:cp v:nameU="Duration" v:lbl="Duration" v:type="2" v:langID="1033"/>
				<v:cp v:nameU="Resources" v:lbl="Resources" v:langID="1033"/>
			</v:custProps>
			<v:userDefs>
				<v:ud v:nameU="visVersion" v:val="VT0(11):26"/>
			</v:userDefs>
			<v:textBlock v:margins="rect(2,2,2,2)" v:tabSpace="42.5197"/>
			<v:textRect cx="45.0136" cy="224.915" width="90.03" height="14.2459"/>
			<rect x="0" y="217.792" width="90.0273" height="14.2459" rx="2.83465" ry="2.83465" class="st1"/>
			<text x="6.11" y="227.31" class="st3" v:langID="2057"><v:paragraph v:horizAlign="1"/><v:tabList/>returnValueConstraint</text>		</g>
		<g id="shape19-69" v:mID="19" v:groupContext="shape" v:layerMember="1" transform="translate(56.1879,-162.676)">
			<title>Dynamic connector.125</title>
			<path d="M0 232.04 L3.79 232.04 A3.79316 3.79316 0 0 1 7.59 235.83 L7.59 249.83 A3.54331 3.54331 -180 0 0 11.13 253.37
						 L11.91 253.37" class="st5"/>
		</g>
		<g id="shape20-74" v:mID="20" v:groupContext="shape" v:layerMember="1" transform="translate(133.73,-112.997)">
			<title>Dynamic connector.126</title>
			<path d="M0 232.04 L5.31 232.04 A5.31496 5.31496 0 0 1 10.63 237.35 L10.63 279.46 A5.66929 5.66929 -180 0 0 16.3 285.13
						 L20.06 285.13" class="st5"/>
		</g>
		<g id="shape21-79" v:mID="21" v:groupContext="shape" v:layerMember="1" transform="translate(133.73,-105.91)">
			<title>Dynamic connector.127</title>
			<path d="M0 224.95 L27.66 224.95" class="st5"/>
		</g>
		<g id="shape22-84" v:mID="22" v:groupContext="shape" v:layerMember="1" transform="translate(246.573,-59.9077)">
			<title>Dynamic connector.128</title>
			<path d="M0 232.04 L9.35 232.04 A5.66929 5.66929 -180 0 0 15.02 226.37 L15.02 134.94 A5.66929 5.66929 0 0 1 20.69 129.27
						 L26.43 129.27" class="st5"/>
		</g>
		<g id="shape23-89" v:mID="23" v:groupContext="shape" v:layerMember="1" transform="translate(237.496,-112.997)">
			<title>Dynamic connector.129</title>
			<path d="M0 232.04 L18.43 232.04 A5.66929 5.66929 -180 0 0 24.09 226.37 L24.09 188.03 A5.66929 5.66929 0 0 1 29.76 182.36
						 L35.51 182.36" class="st5"/>
		</g>
		<g id="shape28-94" v:mID="28" v:groupContext="shape" v:layerMember="0" transform="translate(88.2929,-24.4019)">
			<title>Process.135</title>
			<desc>‘-&#62;’</desc>
			<v:custProps>
				<v:cp v:nameU="Cost" v:lbl="Cost" v:type="7" v:format="@" v:langID="1033"/>
				<v:cp v:nameU="Duration" v:lbl="Duration" v:type="2" v:langID="1033"/>
				<v:cp v:nameU="Resources" v:lbl="Resources" v:langID="1033"/>
			</v:custProps>
			<v:userDefs>
				<v:ud v:nameU="visVersion" v:val="VT0(11):26"/>
			</v:userDefs>
			<v:textBlock v:margins="rect(2,2,2,2)" v:tabSpace="42.5197"/>
			<v:textRect cx="13.8703" cy="224.915" width="27.75" height="14.2459"/>
			<rect x="0" y="217.792" width="27.7406" height="14.2459" rx="2.83465" ry="2.83465" class="st1"/>
			<text x="8.43" y="227.31" class="st2" v:langID="1033"><v:paragraph v:horizAlign="1"/><v:tabList/>‘<tspan class="st4"
						v:langID="2057">-</tspan><tspan class="st4" v:langID="2057">&#62;</tspan>’</text>		</g>
		<g id="shape29-99" v:mID="29" v:groupContext="shape" v:layerMember="1" transform="translate(232.942,-141.416)">
			<title>Dynamic connector.136</title>
			<path d="M0 232.04 L22.98 232.04 A5.66929 5.66929 -180 0 0 28.65 226.37 L28.65 216.45 A5.66929 5.66929 0 0 1 34.32 210.78
						 L40.06 210.78" class="st5"/>
		</g>
		<g id="shape30-104" v:mID="30" v:groupContext="shape" v:layerMember="1" transform="translate(232.942,-141.416)">
			<title>Dynamic connector.137</title>
			<path d="M0 232.04 L22.98 232.04 A5.66929 5.66929 0 0 1 28.65 237.71 L28.65 240.58 A5.66929 5.66929 0 0 1 22.98 246.25
						 L-157.02 246.25 A5.66929 5.66929 -180 0 0 -162.69 251.92 L-162.69 254.79 A5.66929 5.66929 -180 0 0 -157.02
						 260.46 L-151.28 260.46" class="st5"/>
		</g>
		<g id="shape31-109" v:mID="31" v:groupContext="shape" v:layerMember="1" transform="translate(232.942,-141.416)">
			<title>Dynamic connector.138</title>
			<path d="M0 232.04 L22.98 232.04 A5.66929 5.66929 0 0 1 28.65 237.71 L28.65 240.58 A5.66929 5.66929 0 0 1 22.98 246.25
						 L-157.02 246.25 A5.66929 5.66929 -180 0 0 -162.69 251.92 L-162.69 336.26 A5.66929 5.66929 -180 0 0 -157.02
						 341.93 L-147.41 341.93" class="st5"/>
		</g>
		<g id="shape32-114" v:mID="32" v:groupContext="shape" v:layerMember="0" transform="translate(164.253,-24.4019)">
			<title>Process.123</title>
			<desc>predicateConstraint</desc>
			<v:custProps>
				<v:cp v:nameU="Cost" v:lbl="Cost" v:type="7" v:format="@" v:langID="1033"/>
				<v:cp v:nameU="Duration" v:lbl="Duration" v:type="2" v:langID="1033"/>
				<v:cp v:nameU="Resources" v:lbl="Resources" v:langID="1033"/>
			</v:custProps>
			<v:userDefs>
				<v:ud v:nameU="visVersion" v:val="VT0(11):26"/>
			</v:userDefs>
			<v:textBlock v:margins="rect(2,2,2,2)" v:tabSpace="42.5197"/>
			<v:textRect cx="39.034" cy="224.915" width="78.07" height="14.2459"/>
			<rect x="0" y="217.792" width="78.068" height="14.2459" rx="2.83465" ry="2.83465" class="st1"/>
			<text x="4.34" y="227.31" class="st3" v:langID="2057"><v:paragraph v:horizAlign="1"/><v:tabList/>predicateConstraint</text>		</g>
		<g id="shape33-117" v:mID="33" v:groupContext="shape" v:layerMember="1" transform="translate(116.033,-24.4382)">
			<title>Dynamic connector.139</title>
			<path d="M0 224.95 L45.46 224.95" class="st5"/>
		</g>
		<g id="shape34-122" v:mID="34" v:groupContext="shape" v:layerMember="1" transform="translate(242.321,-31.5249)">
			<title>Dynamic connector.140</title>
			<path d="M0 232.04 L13.6 232.04 A5.66929 5.66929 -180 0 0 19.27 226.37 L19.27 106.56 A5.66929 5.66929 0 0 1 24.94 100.89
						 L30.68 100.89" class="st5"/>
		</g>
		<g id="shape35-127" v:mID="35" v:groupContext="shape" v:layerMember="1" transform="translate(56.1879,-155.589)">
			<title>Dynamic connector.116</title>
			<path d="M0 224.95 L216.82 224.95" class="st5"/>
		</g>
		<g id="shape36-132" v:mID="36" v:groupContext="shape" v:layerMember="0" transform="translate(92.4478,-1.67704)">
			<title>Process.124</title>
			<desc>‘,’</desc>
			<v:custProps>
				<v:cp v:nameU="Cost" v:lbl="Cost" v:type="7" v:format="@" v:langID="1033"/>
				<v:cp v:nameU="Duration" v:lbl="Duration" v:type="2" v:langID="1033"/>
				<v:cp v:nameU="Resources" v:lbl="Resources" v:langID="1033"/>
			</v:custProps>
			<v:userDefs>
				<v:ud v:nameU="visVersion" v:val="VT0(11):26"/>
			</v:userDefs>
			<v:textBlock v:margins="rect(2,2,2,2)" v:tabSpace="42.5197"/>
			<v:textRect cx="10.6844" cy="224.915" width="21.37" height="14.2459"/>
			<rect x="0" y="217.792" width="21.3689" height="14.2459" rx="2.83465" ry="2.83465" class="st1"/>
			<text x="7.79" y="227.31" class="st2" v:langID="2057"><v:paragraph v:horizAlign="1"/><v:tabList/>‘,’</text>		</g>
		<g id="shape37-135" v:mID="37" v:groupContext="shape" v:layerMember="1" transform="translate(242.321,-31.5249)">
			<title>Dynamic connector.141</title>
			<path d="M0 232.04 L13.6 232.04 A5.66929 5.66929 0 0 1 19.27 237.71 L19.27 249.09 A5.66929 5.66929 0 0 1 13.6 254.76
						 L-125.74 254.76" class="st5"/>
		</g>
		<g id="shape38-140" v:mID="38" v:groupContext="shape" v:layerMember="1" transform="translate(246.573,-59.9077)">
			<title>Dynamic connector.142</title>
			<path d="M0 232.04 L9.35 232.04 A5.66929 5.66929 0 0 1 15.02 237.71 L15.02 277.48 A5.66929 5.66929 0 0 1 9.35 283.15
						 L-130 283.15" class="st5"/>
		</g>
		<g id="shape39-145" v:mID="39" v:groupContext="shape" v:layerMember="1" transform="translate(237.496,-112.997)">
			<title>Dynamic connector.143</title>
			<path d="M0 232.04 L18.43 232.04 A5.66929 5.66929 0 0 1 24.09 237.71 L24.09 330.57 A5.66929 5.66929 0 0 1 18.43 336.23
						 L-120.92 336.23" class="st5"/>
		</g>
		<g id="shape40-150" v:mID="40" v:groupContext="shape" v:layerMember="1" transform="translate(232.942,-141.416)">
			<title>Dynamic connector.144</title>
			<path d="M0 232.04 L22.98 232.04 A5.66929 5.66929 0 0 1 28.65 237.71 L28.65 358.98 A5.66929 5.66929 0 0 1 22.98 364.65
						 L-116.37 364.65" class="st5"/>
		</g>
		<g id="shape41-155" v:mID="41" v:groupContext="shape" v:layerMember="1" transform="translate(92.4478,-8.8)">
			<title>Dynamic connector.148</title>
			<path d="M0 232.04 L-30.7 232.04 A5.66929 5.66929 0 0 1 -36.37 226.37 L-36.37 105.16 A5.66929 5.66929 0 0 1 -30.7 99.49
						 L-24.35 99.49" class="st5"/>
		</g>
		<g id="shape43-160" v:mID="43" v:groupContext="shape" v:layerMember="1;0" transform="translate(0.24,-219.333)">
			<title>On-page reference</title>
			<v:userDefs>
				<v:ud v:nameU="visVersion" v:val="VT0(11):26"/>
			</v:userDefs>
			<v:textBlock v:margins="rect(2,2,2,2)" v:tabSpace="42.5197"/>
			<path d="M0 225.81 A6.23259 6.23259 0 0 1 12.47 225.81 A6.23259 6.23259 0 1 1 0 225.81 Z" class="st1"/>
		</g>
		<g id="shape44-162" v:mID="44" v:groupContext="shape" v:layerMember="1;0" transform="translate(305.818,-185.608)">
			<title>On-page reference.57</title>
			<v:userDefs>
				<v:ud v:nameU="visVersion" v:val="VT0(11):26"/>
			</v:userDefs>
			<v:textBlock v:margins="rect(2,2,2,2)" v:tabSpace="42.5197"/>
			<path d="M0 225.81 A6.23259 6.23259 0 0 1 12.47 225.81 A6.23259 6.23259 0 1 1 0 225.81 Z" class="st1"/>
		</g>
		<g id="shape45-164" v:mID="45" v:groupContext="shape" v:layerMember="1" transform="translate(6.47259,-219.333)">
			<title>Dynamic connector.7</title>
			<path d="M0 232.04 L0 240.54 A5.66929 5.66929 -180 0 0 5.67 246.21 L128.98 246.21 A5.66929 5.66929 0 0 1 134.65 251.88
						 L134.65 254.44 A5.66929 5.66929 -180 0 0 140.31 260.11 L146.06 260.11" class="st5"/>
		</g>
		<g id="shape46-169" v:mID="46" v:groupContext="shape" v:layerMember="1" transform="translate(297.133,-162.676)">
			<title>Dynamic connector.58</title>
			<path d="M0 232.04 L9.25 232.04 A5.66929 5.66929 -180 0 0 14.92 226.37 L14.92 211.87" class="st5"/>
		</g>
		<g id="shape47-174" v:mID="47" v:groupContext="shape" v:layerMember="0" transform="translate(155.291,-79.7502)">
			<title>Process.47</title>
			<desc>boundVariableConstraint</desc>
			<v:custProps>
				<v:cp v:nameU="Cost" v:lbl="Cost" v:type="7" v:format="@" v:langID="1033"/>
				<v:cp v:nameU="Duration" v:lbl="Duration" v:type="2" v:langID="1033"/>
				<v:cp v:nameU="Resources" v:lbl="Resources" v:langID="1033"/>
			</v:custProps>
			<v:userDefs>
				<v:ud v:nameU="visVersion" v:val="VT0(11):26"/>
			</v:userDefs>
			<v:textBlock v:margins="rect(2,2,2,2)" v:tabSpace="42.5197"/>
			<v:textRect cx="47.4803" cy="224.915" width="94.97" height="14.2459"/>
			<rect x="0" y="217.792" width="94.9606" height="14.2459" rx="2.83465" ry="2.83465" class="st1"/>
			<text x="3.45" y="227.31" class="st3" v:langID="2057"><v:paragraph v:horizAlign="1"/><v:tabList/>boundVariableConstraint</text>		</g>
		<g id="shape48-177" v:mID="48" v:groupContext="shape" v:layerMember="1" transform="translate(133.73,-112.997)">
			<title>Dynamic connector.48</title>
			<path d="M0 232.04 L5.31 232.04 A5.31496 5.31496 0 0 1 10.63 237.35 L10.63 252.7 A5.46601 5.46601 -180 0 0 16.1 258.16
						 L18.8 258.16" class="st5"/>
		</g>
		<g id="shape49-182" v:mID="49" v:groupContext="shape" v:layerMember="1" transform="translate(250.252,-86.8731)">
			<title>Dynamic connector.49</title>
			<path d="M0 232.04 L5.67 232.04 A5.66929 5.66929 0 0 1 11.34 237.71 L11.34 304.44 A5.66929 5.66929 0 0 1 5.67 310.11
						 L-133.68 310.11" class="st5"/>
		</g>
		<g id="shape50-187" v:mID="50" v:groupContext="shape" v:layerMember="1" transform="translate(250.252,-86.8731)">
			<title>Dynamic connector.50</title>
			<path d="M0 232.04 L5.67 232.04 A5.66929 5.66929 -180 0 0 11.34 226.37 L11.34 161.9 A5.66929 5.66929 0 0 1 17.01 156.23
						 L22.75 156.23" class="st5"/>
		</g>
	</g>
</svg>
