<?xml version="1.0" encoding="UTF-8" standalone="no"?>
<!DOCTYPE svg PUBLIC "-//W3C//DTD SVG 1.0//EN" "http://www.w3.org/TR/2001/REC-SVG-20010904/DTD/svg10.dtd">
<!-- Generated by Microsoft Visio 11.0, SVG Export, v1.0 column.svg Page-1 -->
<svg xmlns="http://www.w3.org/2000/svg" xmlns:v="http://schemas.microsoft.com/visio/2003/SVGExtensions/" width="4.6118in"
		height="3.02484in" viewBox="0 0 332.05 217.788" xml:space="preserve" color-interpolation-filters="sRGB" class="st6">
	<v:documentProperties v:langID="1033" v:metric="true" v:viewMarkup="false"/>

	<style type="text/css">
	<![CDATA[
		.st1 {fill:#e8eef7;stroke:#000000;stroke-linecap:round;stroke-linejoin:round;stroke-width:0.24}
		.st2 {fill:#000000;font-family:Arial;font-size:0.666664em}
		.st3 {font-size:1em}
		.st4 {marker-end:url(#mrkr2-16);stroke:#4677bf;stroke-linecap:round;stroke-linejoin:round;stroke-width:0.24}
		.st5 {fill:#4677bf;fill-opacity:1;stroke:#4677bf;stroke-opacity:1;stroke-width:0.08695652173913}
		.st6 {fill:none;fill-rule:evenodd;font-size:12;overflow:visible;stroke-linecap:square;stroke-miterlimit:3}
	]]>
	</style>

	<defs id="Markers">
		<g id="lend2">
			<path d="M 1 1 L 0 0 L 1 -1 L 1 1 " style="stroke:none"/>
		</g>
		<marker id="mrkr2-16" class="st5" v:arrowType="2" v:arrowSize="2" v:setback="11.5" refX="-11.5" orient="auto"
				markerUnits="strokeWidth">
			<use xlink:href="#lend2" transform="scale(-11.5,-11.5) "/>
		</marker>
	</defs>
	<g v:mID="0" v:index="1" v:groupContext="foregroundPage">
		<title>Page-1</title>
		<v:pageProperties v:drawingScale="0.0393701" v:pageScale="0.0393701" v:drawingUnits="24" v:shadowOffsetX="8.50394"
				v:shadowOffsetY="-8.50394"/>
		<v:layer v:name="Flowchart" v:index="0"/>
		<v:layer v:name="Connector" v:index="1"/>
		<g id="shape1-1" v:mID="1" v:groupContext="shape" v:layerMember="0" transform="translate(155.291,-169.886)">
			<title>Process.103</title>
			<desc>fact</desc>
			<v:custProps>
				<v:cp v:nameU="Cost" v:lbl="Cost" v:type="7" v:format="@" v:langID="1033"/>
				<v:cp v:nameU="Duration" v:lbl="Duration" v:type="2" v:langID="1033"/>
				<v:cp v:nameU="Resources" v:lbl="Resources" v:langID="1033"/>
			</v:custProps>
			<v:userDefs>
				<v:ud v:nameU="visVersion" v:val="VT0(11):26"/>
			</v:userDefs>
			<v:textBlock v:margins="rect(2,2,2,2)" v:tabSpace="42.5197"/>
			<v:textRect cx="16.9746" cy="210.666" width="33.95" height="14.2459"/>
			<rect x="0" y="203.543" width="33.9492" height="14.2459" rx="2.83465" ry="2.83465" class="st1"/>
			<text x="10.53" y="213.07" class="st2" v:langID="2057"><v:paragraph v:horizAlign="1"/><v:tabList/>fact</text>		</g>
		<g id="shape2-4" v:mID="2" v:groupContext="shape" v:layerMember="0" transform="translate(35.3845,-169.886)">
			<title>Process.104</title>
			<desc>factBinding</desc>
			<v:custProps>
				<v:cp v:nameU="Cost" v:lbl="Cost" v:type="7" v:format="@" v:langID="1033"/>
				<v:cp v:nameU="Duration" v:lbl="Duration" v:type="2" v:langID="1033"/>
				<v:cp v:nameU="Resources" v:lbl="Resources" v:langID="1033"/>
			</v:custProps>
			<v:userDefs>
				<v:ud v:nameU="visVersion" v:val="VT0(11):26"/>
			</v:userDefs>
			<v:textBlock v:margins="rect(2,2,2,2)" v:tabSpace="42.5197"/>
			<v:textRect cx="28.0637" cy="210.666" width="56.13" height="14.2459"/>
			<rect x="0" y="203.543" width="56.1275" height="14.2459" rx="2.83465" ry="2.83465" class="st1"/>
			<text x="8.28" y="213.07" class="st2" v:langID="2057"><v:paragraph v:horizAlign="1"/><v:tabList/>factBinding</text>		</g>
		<g id="shape3-7" v:mID="3" v:groupContext="shape" v:layerMember="0" transform="translate(106.993,-169.886)">
			<title>Process.102</title>
			<desc>‘:’</desc>
			<v:custProps>
				<v:cp v:nameU="Cost" v:lbl="Cost" v:type="7" v:format="@" v:langID="1033"/>
				<v:cp v:nameU="Duration" v:lbl="Duration" v:type="2" v:langID="1033"/>
				<v:cp v:nameU="Resources" v:lbl="Resources" v:langID="1033"/>
			</v:custProps>
			<v:userDefs>
				<v:ud v:nameU="visVersion" v:val="VT0(11):26"/>
			</v:userDefs>
			<v:textBlock v:margins="rect(2,2,2,2)" v:tabSpace="42.5197"/>
			<v:textRect cx="10.6844" cy="210.666" width="21.37" height="14.2459"/>
			<rect x="0" y="203.543" width="21.3689" height="14.2459" rx="2.83465" ry="2.83465" class="st1"/>
			<text x="7.79" y="213.07" class="st2" v:langID="1033"><v:paragraph v:horizAlign="1"/><v:tabList/>‘<tspan class="st3"
						v:langID="2057">:</tspan>’</text>		</g>
		<g id="shape4-11" v:mID="4" v:groupContext="shape" v:layerMember="1" transform="translate(6.47259,-205.083)">
			<title>Dynamic connector.105</title>
			<path d="M0 217.79 L0 240.19 A5.66929 5.66929 -180 0 0 5.67 245.86 L26.15 245.86" class="st4"/>
		</g>
		<g id="shape5-17" v:mID="5" v:groupContext="shape" v:layerMember="1" transform="translate(128.362,-169.922)">
			<title>Dynamic connector.106</title>
			<path d="M0 210.7 L24.17 210.7" class="st4"/>
		</g>
		<g id="shape6-22" v:mID="6" v:groupContext="shape" v:layerMember="1" transform="translate(91.512,-169.922)">
			<title>Dynamic connector.108</title>
			<path d="M0 210.7 L12.72 210.7" class="st4"/>
		</g>
		<g id="shape7-27" v:mID="7" v:groupContext="shape" v:layerMember="0" transform="translate(34.819,-141.304)">
			<title>Process.109</title>
			<desc>‘(‘</desc>
			<v:custProps>
				<v:cp v:nameU="Cost" v:lbl="Cost" v:type="7" v:format="@" v:langID="1033"/>
				<v:cp v:nameU="Duration" v:lbl="Duration" v:type="2" v:langID="1033"/>
				<v:cp v:nameU="Resources" v:lbl="Resources" v:langID="1033"/>
			</v:custProps>
			<v:userDefs>
				<v:ud v:nameU="visVersion" v:val="VT0(11):26"/>
			</v:userDefs>
			<v:textBlock v:margins="rect(2,2,2,2)" v:tabSpace="42.5197"/>
			<v:textRect cx="10.6844" cy="210.666" width="21.37" height="14.2459"/>
			<rect x="0" y="203.543" width="21.3689" height="14.2459" rx="2.83465" ry="2.83465" class="st1"/>
			<text x="7.57" y="213.07" class="st2" v:langID="1033"><v:paragraph v:horizAlign="1"/><v:tabList/>‘<tspan class="st3"
						v:langID="2057">(</tspan>‘</text>		</g>
		<g id="shape8-31" v:mID="8" v:groupContext="shape" v:layerMember="0" transform="translate(275.764,-141.304)">
			<title>Process.110</title>
			<desc>‘)’</desc>
			<v:custProps>
				<v:cp v:nameU="Cost" v:lbl="Cost" v:type="7" v:format="@" v:langID="1033"/>
				<v:cp v:nameU="Duration" v:lbl="Duration" v:type="2" v:langID="1033"/>
				<v:cp v:nameU="Resources" v:lbl="Resources" v:langID="1033"/>
			</v:custProps>
			<v:userDefs>
				<v:ud v:nameU="visVersion" v:val="VT0(11):26"/>
			</v:userDefs>
			<v:textBlock v:margins="rect(2,2,2,2)" v:tabSpace="42.5197"/>
			<v:textRect cx="10.6844" cy="210.666" width="21.37" height="14.2459"/>
			<rect x="0" y="203.543" width="21.3689" height="14.2459" rx="2.83465" ry="2.83465" class="st1"/>
			<text x="7.57" y="213.07" class="st2" v:langID="1033"><v:paragraph v:horizAlign="1"/><v:tabList/>‘<tspan class="st3"
						v:langID="2057">)</tspan>’</text>		</g>
		<g id="shape9-35" v:mID="9" v:groupContext="shape" v:layerMember="1" transform="translate(189.241,-177.009)">
			<title>Dynamic connector.111</title>
			<path d="M0 217.79 L7.83 217.79 L7.83 232.23 L-168.65 232.23 L-168.65 246.37 L-157.18 246.37" class="st4"/>
		</g>
		<g id="shape10-40" v:mID="10" v:groupContext="shape" v:layerMember="0" transform="translate(183.638,-120.044)">
			<title>Process.113</title>
			<desc>field</desc>
			<v:custProps>
				<v:cp v:nameU="Cost" v:lbl="Cost" v:type="7" v:format="@" v:langID="1033"/>
				<v:cp v:nameU="Duration" v:lbl="Duration" v:type="2" v:langID="1033"/>
				<v:cp v:nameU="Resources" v:lbl="Resources" v:langID="1033"/>
			</v:custProps>
			<v:userDefs>
				<v:ud v:nameU="visVersion" v:val="VT0(11):26"/>
			</v:userDefs>
			<v:textBlock v:margins="rect(2,2,2,2)" v:tabSpace="42.5197"/>
			<v:textRect cx="24.6521" cy="210.666" width="49.31" height="14.2459"/>
			<rect x="0" y="203.543" width="49.3042" height="14.2459" rx="2.83465" ry="2.83465" class="st1"/>
			<text x="17.31" y="213.07" class="st2" v:langID="2057"><v:paragraph v:horizAlign="1"/><v:tabList/>field</text>		</g>
		<g id="shape11-43" v:mID="11" v:groupContext="shape" v:layerMember="0" transform="translate(70.8608,-119.971)">
			<title>Process.114</title>
			<desc>fieldBinding</desc>
			<v:custProps>
				<v:cp v:nameU="Cost" v:lbl="Cost" v:type="7" v:format="@" v:langID="1033"/>
				<v:cp v:nameU="Duration" v:lbl="Duration" v:type="2" v:langID="1033"/>
				<v:cp v:nameU="Resources" v:lbl="Resources" v:langID="1033"/>
			</v:custProps>
			<v:userDefs>
				<v:ud v:nameU="visVersion" v:val="VT0(11):26"/>
			</v:userDefs>
			<v:textBlock v:margins="rect(2,2,2,2)" v:tabSpace="42.5197"/>
			<v:textRect cx="30.8767" cy="210.666" width="61.76" height="14.2459"/>
			<rect x="0" y="203.543" width="61.7535" height="14.2459" rx="2.83465" ry="2.83465" class="st1"/>
			<text x="10.19" y="213.07" class="st2" v:langID="2057"><v:paragraph v:horizAlign="1"/><v:tabList/>fieldBinding</text>		</g>
		<g id="shape12-46" v:mID="12" v:groupContext="shape" v:layerMember="0" transform="translate(148.859,-120.044)">
			<title>Process.115</title>
			<desc>‘:’</desc>
			<v:custProps>
				<v:cp v:nameU="Cost" v:lbl="Cost" v:type="7" v:format="@" v:langID="1033"/>
				<v:cp v:nameU="Duration" v:lbl="Duration" v:type="2" v:langID="1033"/>
				<v:cp v:nameU="Resources" v:lbl="Resources" v:langID="1033"/>
			</v:custProps>
			<v:userDefs>
				<v:ud v:nameU="visVersion" v:val="VT0(11):26"/>
			</v:userDefs>
			<v:textBlock v:margins="rect(2,2,2,2)" v:tabSpace="42.5197"/>
			<v:textRect cx="10.6844" cy="210.666" width="21.37" height="14.2459"/>
			<rect x="0" y="203.543" width="21.3689" height="14.2459" rx="2.83465" ry="2.83465" class="st1"/>
			<text x="7.79" y="213.07" class="st2" v:langID="1033"><v:paragraph v:horizAlign="1"/><v:tabList/>‘<tspan class="st3"
						v:langID="2057">:</tspan>’</text>		</g>
		<g id="shape13-50" v:mID="13" v:groupContext="shape" v:layerMember="1" transform="translate(169.846,-120.08)">
			<title>Dynamic connector.117</title>
			<path d="M0.38 210.7 L11.03 210.7" class="st4"/>
		</g>
		<g id="shape15-55" v:mID="15" v:groupContext="shape" v:layerMember="1" transform="translate(132.614,-120.044)">
			<title>Dynamic connector.119</title>
			<path d="M0 210.74 L8.5 210.74 L8.5 210.67 L13.48 210.67" class="st4"/>
		</g>
		<g id="shape16-60" v:mID="16" v:groupContext="shape" v:layerMember="0" transform="translate(84.4253,-91.6248)">
			<title>Process.120</title>
			<desc>operator</desc>
			<v:custProps>
				<v:cp v:nameU="Cost" v:lbl="Cost" v:type="7" v:format="@" v:langID="1033"/>
				<v:cp v:nameU="Duration" v:lbl="Duration" v:type="2" v:langID="1033"/>
				<v:cp v:nameU="Resources" v:lbl="Resources" v:langID="1033"/>
			</v:custProps>
			<v:userDefs>
				<v:ud v:nameU="visVersion" v:val="VT0(11):26"/>
			</v:userDefs>
			<v:textBlock v:margins="rect(2,2,2,2)" v:tabSpace="42.5197"/>
			<v:textRect cx="24.6521" cy="210.666" width="49.31" height="14.2459"/>
			<rect x="0" y="203.543" width="49.3042" height="14.2459" rx="2.83465" ry="2.83465" class="st1"/>
			<text x="9.75" y="213.07" class="st2" v:langID="2057"><v:paragraph v:horizAlign="1"/><v:tabList/>operator</text>		</g>
		<g id="shape17-63" v:mID="17" v:groupContext="shape" v:layerMember="0" transform="translate(161.887,-91.6248)">
			<title>Process.121</title>
			<desc>literalConstraint</desc>
			<v:custProps>
				<v:cp v:nameU="Cost" v:lbl="Cost" v:type="7" v:format="@" v:langID="1033"/>
				<v:cp v:nameU="Duration" v:lbl="Duration" v:type="2" v:langID="1033"/>
				<v:cp v:nameU="Resources" v:lbl="Resources" v:langID="1033"/>
			</v:custProps>
			<v:userDefs>
				<v:ud v:nameU="visVersion" v:val="VT0(11):26"/>
			</v:userDefs>
			<v:textBlock v:margins="rect(2,2,2,2)" v:tabSpace="42.5197"/>
			<v:textRect cx="36.6732" cy="210.666" width="73.35" height="14.2459"/>
			<rect x="0" y="203.543" width="73.3465" height="14.2459" rx="2.83465" ry="2.83465" class="st1"/>
			<text x="8.89" y="213.07" class="st2" v:langID="2057"><v:paragraph v:horizAlign="1"/><v:tabList/>literalConstraint</text>		</g>
		<g id="shape18-66" v:mID="18" v:groupContext="shape" v:layerMember="0" transform="translate(156.545,-54.2293)">
			<title>Process.122</title>
			<desc>returnValueConstraint</desc>
			<v:custProps>
				<v:cp v:nameU="Cost" v:lbl="Cost" v:type="7" v:format="@" v:langID="1033"/>
				<v:cp v:nameU="Duration" v:lbl="Duration" v:type="2" v:langID="1033"/>
				<v:cp v:nameU="Resources" v:lbl="Resources" v:langID="1033"/>
			</v:custProps>
			<v:userDefs>
				<v:ud v:nameU="visVersion" v:val="VT0(11):26"/>
			</v:userDefs>
			<v:textBlock v:margins="rect(2,2,2,2)" v:tabSpace="42.5197"/>
			<v:textRect cx="45.0136" cy="210.666" width="90.03" height="14.2459"/>
			<rect x="0" y="203.543" width="90.0273" height="14.2459" rx="2.83465" ry="2.83465" class="st1"/>
			<text x="6.11" y="213.07" class="st2" v:langID="2057"><v:paragraph v:horizAlign="1"/><v:tabList/>returnValueConstraint</text>		</g>
		<g id="shape19-69" v:mID="19" v:groupContext="shape" v:layerMember="1" transform="translate(56.1879,-148.427)">
			<title>Dynamic connector.125</title>
			<path d="M0 217.79 L3.79 217.79 A3.79316 3.79316 0 0 1 7.59 221.58 L7.59 235.58 A3.54331 3.54331 -180 0 0 11.13 239.12
						 L11.91 239.12" class="st4"/>
		</g>
		<g id="shape20-74" v:mID="20" v:groupContext="shape" v:layerMember="1" transform="translate(133.73,-98.7478)">
			<title>Dynamic connector.126</title>
			<path d="M0 217.79 L5.31 217.79 A5.31496 5.31496 0 0 1 10.63 223.1 L10.63 249.51 A5.66929 5.66929 -180 0 0 16.3 255.18
						 L20.06 255.18" class="st4"/>
		</g>
		<g id="shape21-79" v:mID="21" v:groupContext="shape" v:layerMember="1" transform="translate(133.73,-91.6611)">
			<title>Dynamic connector.127</title>
			<path d="M0 210.7 L25.4 210.7" class="st4"/>
		</g>
		<g id="shape22-84" v:mID="22" v:groupContext="shape" v:layerMember="1" transform="translate(246.573,-61.3522)">
			<title>Dynamic connector.128</title>
			<path d="M0 217.79 L9.35 217.79 A5.66929 5.66929 -180 0 0 15.02 212.12 L15.02 136.38 A5.66929 5.66929 0 0 1 20.69 130.71
						 L26.43 130.71" class="st4"/>
		</g>
		<g id="shape23-89" v:mID="23" v:groupContext="shape" v:layerMember="1" transform="translate(235.234,-98.7478)">
			<title>Dynamic connector.129</title>
			<path d="M0 217.79 L20.69 217.79 A5.66929 5.66929 -180 0 0 26.36 212.12 L26.36 173.78 A5.66929 5.66929 0 0 1 32.03 168.11
						 L37.77 168.11" class="st4"/>
		</g>
		<g id="shape28-94" v:mID="28" v:groupContext="shape" v:layerMember="0" transform="translate(88.2929,-24.4019)">
			<title>Process.135</title>
			<desc>‘-&#62;’</desc>
			<v:custProps>
				<v:cp v:nameU="Cost" v:lbl="Cost" v:type="7" v:format="@" v:langID="1033"/>
				<v:cp v:nameU="Duration" v:lbl="Duration" v:type="2" v:langID="1033"/>
				<v:cp v:nameU="Resources" v:lbl="Resources" v:langID="1033"/>
			</v:custProps>
			<v:userDefs>
				<v:ud v:nameU="visVersion" v:val="VT0(11):26"/>
			</v:userDefs>
			<v:textBlock v:margins="rect(2,2,2,2)" v:tabSpace="42.5197"/>
			<v:textRect cx="13.8703" cy="210.666" width="27.75" height="14.2459"/>
			<rect x="0" y="203.543" width="27.7406" height="14.2459" rx="2.83465" ry="2.83465" class="st1"/>
			<text x="8.43" y="213.07" class="st2" v:langID="1033"><v:paragraph v:horizAlign="1"/><v:tabList/>‘<tspan class="st3"
						v:langID="2057">-</tspan><tspan class="st3" v:langID="2057">&#62;</tspan>’</text>		</g>
		<g id="shape29-99" v:mID="29" v:groupContext="shape" v:layerMember="1" transform="translate(232.942,-127.167)">
			<title>Dynamic connector.136</title>
			<path d="M0 217.79 L22.98 217.79 A5.66929 5.66929 -180 0 0 28.65 212.12 L28.65 202.2 A5.66929 5.66929 0 0 1 34.32 196.53
						 L40.06 196.53" class="st4"/>
		</g>
		<g id="shape30-104" v:mID="30" v:groupContext="shape" v:layerMember="1" transform="translate(232.942,-127.167)">
			<title>Dynamic connector.137</title>
			<path d="M0 217.79 L22.98 217.79 A5.66929 5.66929 0 0 1 28.65 223.46 L28.65 226.33 A5.66929 5.66929 0 0 1 22.98 232 L-157.02
						 232 A5.66929 5.66929 -180 0 0 -162.69 237.67 L-162.69 240.54 A5.66929 5.66929 -180 0 0 -157.02 246.21 L-151.28
						 246.21" class="st4"/>
		</g>
		<g id="shape31-109" v:mID="31" v:groupContext="shape" v:layerMember="1" transform="translate(232.942,-127.167)">
			<title>Dynamic connector.138</title>
			<path d="M0 217.79 L22.98 217.79 A5.66929 5.66929 0 0 1 28.65 223.46 L28.65 226.33 A5.66929 5.66929 0 0 1 22.98 232 L-157.02
						 232 A5.66929 5.66929 -180 0 0 -162.69 237.67 L-162.69 307.76 A5.66929 5.66929 -180 0 0 -157.02 313.43 L-147.41
						 313.43" class="st4"/>
		</g>
		<g id="shape32-114" v:mID="32" v:groupContext="shape" v:layerMember="0" transform="translate(164.253,-24.4019)">
			<title>Process.123</title>
			<desc>predicateConstraint</desc>
			<v:custProps>
				<v:cp v:nameU="Cost" v:lbl="Cost" v:type="7" v:format="@" v:langID="1033"/>
				<v:cp v:nameU="Duration" v:lbl="Duration" v:type="2" v:langID="1033"/>
				<v:cp v:nameU="Resources" v:lbl="Resources" v:langID="1033"/>
			</v:custProps>
			<v:userDefs>
				<v:ud v:nameU="visVersion" v:val="VT0(11):26"/>
			</v:userDefs>
			<v:textBlock v:margins="rect(2,2,2,2)" v:tabSpace="42.5197"/>
			<v:textRect cx="39.034" cy="210.666" width="78.07" height="14.2459"/>
			<rect x="0" y="203.543" width="78.068" height="14.2459" rx="2.83465" ry="2.83465" class="st1"/>
			<text x="4.34" y="213.07" class="st2" v:langID="2057"><v:paragraph v:horizAlign="1"/><v:tabList/>predicateConstraint</text>		</g>
		<g id="shape33-117" v:mID="33" v:groupContext="shape" v:layerMember="1" transform="translate(116.033,-24.4382)">
			<title>Dynamic connector.139</title>
			<path d="M0 210.7 L45.46 210.7" class="st4"/>
		</g>
		<g id="shape34-122" v:mID="34" v:groupContext="shape" v:layerMember="1" transform="translate(242.321,-31.5249)">
			<title>Dynamic connector.140</title>
			<path d="M0 217.79 L13.6 217.79 A5.66929 5.66929 -180 0 0 19.27 212.12 L19.27 106.56 A5.66929 5.66929 0 0 1 24.94 100.89
						 L30.68 100.89" class="st4"/>
		</g>
		<g id="shape35-127" v:mID="35" v:groupContext="shape" v:layerMember="1" transform="translate(56.1879,-141.34)">
			<title>Dynamic connector.116</title>
			<path d="M0 210.7 L216.82 210.7" class="st4"/>
		</g>
		<g id="shape36-132" v:mID="36" v:groupContext="shape" v:layerMember="0" transform="translate(92.4478,-1.67704)">
			<title>Process.124</title>
			<desc>,</desc>
			<v:custProps>
				<v:cp v:nameU="Cost" v:lbl="Cost" v:type="7" v:format="@" v:langID="1033"/>
				<v:cp v:nameU="Duration" v:lbl="Duration" v:type="2" v:langID="1033"/>
				<v:cp v:nameU="Resources" v:lbl="Resources" v:langID="1033"/>
			</v:custProps>
			<v:userDefs>
				<v:ud v:nameU="visVersion" v:val="VT0(11):26"/>
			</v:userDefs>
			<v:textBlock v:margins="rect(2,2,2,2)" v:tabSpace="42.5197"/>
			<v:textRect cx="10.6844" cy="210.666" width="21.37" height="14.2459"/>
			<rect x="0" y="203.543" width="21.3689" height="14.2459" rx="2.83465" ry="2.83465" class="st1"/>
			<text x="9.56" y="213.07" class="st2" v:langID="2057"><v:paragraph v:horizAlign="1"/><v:tabList/>,</text>		</g>
		<g id="shape37-135" v:mID="37" v:groupContext="shape" v:layerMember="1" transform="translate(242.321,-31.5249)">
			<title>Dynamic connector.141</title>
			<path d="M0 217.79 L13.6 217.79 A5.66929 5.66929 0 0 1 19.27 223.46 L19.27 234.84 A5.66929 5.66929 0 0 1 13.6 240.51
						 L-125.74 240.51" class="st4"/>
		</g>
		<g id="shape38-140" v:mID="38" v:groupContext="shape" v:layerMember="1" transform="translate(246.573,-61.3522)">
			<title>Dynamic connector.142</title>
			<path d="M0 217.79 L9.35 217.79 A5.66929 5.66929 0 0 1 15.02 223.46 L15.02 264.67 A5.66929 5.66929 0 0 1 9.35 270.34
						 L-130 270.34" class="st4"/>
		</g>
		<g id="shape39-145" v:mID="39" v:groupContext="shape" v:layerMember="1" transform="translate(235.234,-98.7478)">
			<title>Dynamic connector.143</title>
			<path d="M0 217.79 L20.69 217.79 A5.66929 5.66929 0 0 1 26.36 223.46 L26.36 302.07 A5.66929 5.66929 0 0 1 20.69 307.74
						 L-118.66 307.74" class="st4"/>
		</g>
		<g id="shape40-150" v:mID="40" v:groupContext="shape" v:layerMember="1" transform="translate(232.942,-127.167)">
			<title>Dynamic connector.144</title>
			<path d="M0 217.79 L22.98 217.79 A5.66929 5.66929 0 0 1 28.65 223.46 L28.65 330.49 A5.66929 5.66929 0 0 1 22.98 336.16
						 L-116.37 336.16" class="st4"/>
		</g>
		<g id="shape41-155" v:mID="41" v:groupContext="shape" v:layerMember="1" transform="translate(92.4478,-8.8)">
			<title>Dynamic connector.148</title>
			<path d="M0 217.79 L-30.7 217.79 A5.66929 5.66929 0 0 1 -36.37 212.12 L-36.37 105.16 A5.66929 5.66929 0 0 1 -30.7 99.49
						 L-24.35 99.49" class="st4"/>
		</g>
		<g id="shape43-160" v:mID="43" v:groupContext="shape" v:layerMember="1;0" transform="translate(0.24,-205.083)">
			<title>On-page reference</title>
			<v:userDefs>
				<v:ud v:nameU="visVersion" v:val="VT0(11):26"/>
			</v:userDefs>
			<v:textBlock v:margins="rect(2,2,2,2)" v:tabSpace="42.5197"/>
			<path d="M0 211.56 A6.23259 6.23259 0 0 1 12.47 211.56 A6.23259 6.23259 0 1 1 0 211.56 Z" class="st1"/>
		</g>
		<g id="shape44-162" v:mID="44" v:groupContext="shape" v:layerMember="1;0" transform="translate(305.818,-171.358)">
			<title>On-page reference.57</title>
			<v:userDefs>
				<v:ud v:nameU="visVersion" v:val="VT0(11):26"/>
			</v:userDefs>
			<v:textBlock v:margins="rect(2,2,2,2)" v:tabSpace="42.5197"/>
			<path d="M0 211.56 A6.23259 6.23259 0 0 1 12.47 211.56 A6.23259 6.23259 0 1 1 0 211.56 Z" class="st1"/>
		</g>
		<g id="shape45-164" v:mID="45" v:groupContext="shape" v:layerMember="1" transform="translate(6.47259,-205.083)">
			<title>Dynamic connector.7</title>
			<path d="M0 217.79 L0 226.29 A5.66929 5.66929 -180 0 0 5.67 231.96 L128.98 231.96 A5.66929 5.66929 0 0 1 134.65 237.63
						 L134.65 240.19 A5.66929 5.66929 -180 0 0 140.31 245.86 L146.06 245.86" class="st4"/>
		</g>
		<g id="shape46-169" v:mID="46" v:groupContext="shape" v:layerMember="1" transform="translate(297.133,-148.427)">
			<title>Dynamic connector.58</title>
			<path d="M0 217.79 L9.25 217.79 A5.66929 5.66929 -180 0 0 14.92 212.12 L14.92 197.62" class="st4"/>
		</g>
	</g>
</svg>
