<?xml version="1.0" encoding="UTF-8" standalone="no"?>
<!DOCTYPE svg PUBLIC "-//W3C//DTD SVG 1.0//EN" "http://www.w3.org/TR/2001/REC-SVG-20010904/DTD/svg10.dtd">
<!-- Generated by Microsoft Visio 11.0, SVG Export, v1.0 fieldConstraint.svg Page-1 -->
<svg xmlns="http://www.w3.org/2000/svg" xmlns:v="http://schemas.microsoft.com/visio/2003/SVGExtensions/" width="5.04572in"
		height="1.50777in" viewBox="0 0 363.292 108.559" xml:space="preserve" color-interpolation-filters="sRGB" class="st6">
	<v:documentProperties v:langID="1033" v:metric="true" v:viewMarkup="false"/>

	<style type="text/css">
	<![CDATA[
		.st1 {fill:#e8eef7;stroke:#000000;stroke-linecap:round;stroke-linejoin:round;stroke-width:0.24}
		.st2 {fill:#000000;font-family:Arial;font-size:0.666664em;font-style:italic}
		.st3 {marker-end:url(#mrkr2-20);stroke:#4677bf;stroke-linecap:round;stroke-linejoin:round;stroke-width:0.24}
		.st4 {fill:#4677bf;fill-opacity:1;stroke:#4677bf;stroke-opacity:1;stroke-width:0.08695652173913}
		.st5 {fill:#000000;font-family:Arial;font-size:0.666664em}
		.st6 {fill:none;fill-rule:evenodd;font-size:12;overflow:visible;stroke-linecap:square;stroke-miterlimit:3}
	]]>
	</style>

	<defs id="Markers">
		<g id="lend2">
			<path d="M 1 1 L 0 0 L 1 -1 L 1 1 " style="stroke:none"/>
		</g>
		<marker id="mrkr2-20" class="st4" v:arrowType="2" v:arrowSize="2" v:setback="11.5" refX="-11.5" orient="auto"
				markerUnits="strokeWidth">
			<use xlink:href="#lend2" transform="scale(-11.5,-11.5) "/>
		</marker>
	</defs>
	<g v:mID="0" v:index="1" v:groupContext="foregroundPage">
		<title>Page-1</title>
		<v:pageProperties v:drawingScale="0.0393701" v:pageScale="0.0393701" v:drawingUnits="24" v:shadowOffsetX="8.50394"
				v:shadowOffsetY="-8.50394"/>
		<v:layer v:name="Connector" v:index="0"/>
		<v:layer v:name="Flowchart" v:index="1"/>
		<g id="shape58-1" v:mID="58" v:groupContext="shape" v:layerMember="0;1" transform="translate(351.587,-80.9014)">
			<title>On-page reference.144</title>
			<v:userDefs>
				<v:ud v:nameU="visVersion" v:val="VT0(11):26"/>
			</v:userDefs>
			<v:textBlock v:margins="rect(2,2,2,2)" v:tabSpace="42.5197"/>
			<path d="M0 102.83 A5.73228 5.73228 0 0 1 11.46 102.83 A5.73228 5.73228 0 1 1 0 102.83 Z" class="st1"/>
		</g>
		<g id="shape59-3" v:mID="59" v:groupContext="shape" v:layerMember="1" transform="translate(231.815,-80.0825)">
			<title>Process.145</title>
			<desc>singleValueRestrion</desc>
			<v:custProps>
				<v:cp v:nameU="Cost" v:lbl="Cost" v:type="7" v:format="@" v:langID="1033"/>
				<v:cp v:nameU="Duration" v:lbl="Duration" v:type="2" v:langID="1033"/>
				<v:cp v:nameU="Resources" v:lbl="Resources" v:langID="1033"/>
			</v:custProps>
			<v:userDefs>
				<v:ud v:nameU="visVersion" v:val="VT0(11):26"/>
			</v:userDefs>
			<v:textBlock v:margins="rect(2,2,2,2)" v:tabSpace="42.5197"/>
			<v:textRect cx="47.5636" cy="102.008" width="95.13" height="13.1024"/>
			<rect x="0" y="95.4568" width="95.1273" height="13.1024" rx="2.83465" ry="2.83465" class="st1"/>
			<text x="12" y="104.41" class="st2" v:langID="2057"><v:paragraph v:horizAlign="1"/><v:tabList/>singleValueRestrion</text>		</g>
		<g id="shape60-6" v:mID="60" v:groupContext="shape" v:layerMember="1" transform="translate(231.074,-53.4683)">
			<title>Process.146</title>
			<desc>compoundValueRestrion</desc>
			<v:custProps>
				<v:cp v:nameU="Cost" v:lbl="Cost" v:type="7" v:format="@" v:langID="1033"/>
				<v:cp v:nameU="Duration" v:lbl="Duration" v:type="2" v:langID="1033"/>
				<v:cp v:nameU="Resources" v:lbl="Resources" v:langID="1033"/>
			</v:custProps>
			<v:userDefs>
				<v:ud v:nameU="visVersion" v:val="VT0(11):26"/>
			</v:userDefs>
			<v:textBlock v:margins="rect(2,2,2,2)" v:tabSpace="42.5197"/>
			<v:textRect cx="47.5636" cy="102.008" width="95.13" height="13.1024"/>
			<rect x="0" y="95.4568" width="95.1273" height="13.1024" rx="2.83465" ry="2.83465" class="st1"/>
			<text x="3.77" y="104.41" class="st2" v:langID="2057"><v:paragraph v:horizAlign="1"/><v:tabList/>compoundValueRestrion</text>		</g>
		<g id="shape61-9" v:mID="61" v:groupContext="shape" v:layerMember="1" transform="translate(231.074,-26.8542)">
			<title>Process.147</title>
			<desc>returnValueRestriction</desc>
			<v:custProps>
				<v:cp v:nameU="Cost" v:lbl="Cost" v:type="7" v:format="@" v:langID="1033"/>
				<v:cp v:nameU="Duration" v:lbl="Duration" v:type="2" v:langID="1033"/>
				<v:cp v:nameU="Resources" v:lbl="Resources" v:langID="1033"/>
			</v:custProps>
			<v:userDefs>
				<v:ud v:nameU="visVersion" v:val="VT0(11):26"/>
			</v:userDefs>
			<v:textBlock v:margins="rect(2,2,2,2)" v:tabSpace="42.5197"/>
			<v:textRect cx="47.5636" cy="102.008" width="95.13" height="13.1024"/>
			<rect x="0" y="95.4568" width="95.1273" height="13.1024" rx="2.83465" ry="2.83465" class="st1"/>
			<text x="8" y="104.41" class="st2" v:langID="2057"><v:paragraph v:horizAlign="1"/><v:tabList/>returnValueRestriction</text>		</g>
		<g id="shape62-12" v:mID="62" v:groupContext="shape" v:layerMember="1" transform="translate(228.406,-0.24)">
			<title>Process.149</title>
			<desc>regexpRestriction</desc>
			<v:custProps>
				<v:cp v:nameU="Cost" v:lbl="Cost" v:type="7" v:format="@" v:langID="1033"/>
				<v:cp v:nameU="Duration" v:lbl="Duration" v:type="2" v:langID="1033"/>
				<v:cp v:nameU="Resources" v:lbl="Resources" v:langID="1033"/>
			</v:custProps>
			<v:userDefs>
				<v:ud v:nameU="visVersion" v:val="VT0(11):26"/>
			</v:userDefs>
			<v:textBlock v:margins="rect(2,2,2,2)" v:tabSpace="42.5197"/>
			<v:textRect cx="47.5636" cy="102.008" width="95.13" height="13.1024"/>
			<rect x="0" y="95.4568" width="95.1273" height="13.1024" rx="2.83465" ry="2.83465" class="st1"/>
			<text x="16.45" y="104.41" class="st2" v:langID="2057"><v:paragraph v:horizAlign="1"/><v:tabList/>regexpRestriction</text>		</g>
		<g id="shape63-15" v:mID="63" v:groupContext="shape" v:layerMember="0" transform="translate(207.169,-86.6337)">
			<title>Dynamic connector.151</title>
			<path d="M0 108.56 L7.5 108.56 A5.66929 5.66929 0 0 1 13.17 114.23 L13.17 184.37 A4.03383 4.03383 -180 0 0 17.2 188.4
						 L18.48 188.4" class="st3"/>
		</g>
		<g id="shape64-21" v:mID="64" v:groupContext="shape" v:layerMember="0" transform="translate(207.169,-86.6337)">
			<title>Dynamic connector.152</title>
			<path d="M0 108.56 L7.5 108.56 A5.66929 5.66929 0 0 1 13.17 114.23 L13.17 156.42 A5.36783 5.36783 -180 0 0 18.54 161.79
						 L21.14 161.79" class="st3"/>
		</g>
		<g id="shape65-26" v:mID="65" v:groupContext="shape" v:layerMember="0" transform="translate(207.169,-86.6337)">
			<title>Dynamic connector.153</title>
			<path d="M0 108.56 L7.4 108.56 A5.66929 5.66929 0 0 1 13.07 114.23 L13.07 129.76 A5.41668 5.41668 -180 0 0 18.49 135.17
						 L21.14 135.17" class="st3"/>
		</g>
		<g id="shape66-31" v:mID="66" v:groupContext="shape" v:layerMember="0" transform="translate(207.169,-79.5471)">
			<title>Dynamic connector.154</title>
			<path d="M0 101.47 L21.89 101.47" class="st3"/>
		</g>
		<g id="shape67-36" v:mID="67" v:groupContext="shape" v:layerMember="0" transform="translate(326.942,-93.7203)">
			<title>Dynamic connector.155</title>
			<path d="M0 115.65 L21.89 115.65" class="st3"/>
		</g>
		<g id="shape68-41" v:mID="68" v:groupContext="shape" v:layerMember="0" transform="translate(326.201,-60.0195)">
			<title>Dynamic connector.156</title>
			<path d="M0 108.56 L5.31 108.56 A5.31496 5.31496 -180 0 0 10.63 103.24 L10.63 87.61 A5.66929 5.66929 0 0 1 16.3 81.94
						 L22.63 81.94" class="st3"/>
		</g>
		<g id="shape69-46" v:mID="69" v:groupContext="shape" v:layerMember="0" transform="translate(326.201,-33.4054)">
			<title>Dynamic connector.158</title>
			<path d="M0 108.56 L5.31 108.56 A5.31496 5.31496 -180 0 0 10.63 103.24 L10.63 61 A5.66929 5.66929 0 0 1 16.3 55.33 L22.63
						 55.33" class="st3"/>
		</g>
		<g id="shape70-51" v:mID="70" v:groupContext="shape" v:layerMember="0" transform="translate(323.533,-6.79118)">
			<title>Dynamic connector.161</title>
			<path d="M0 108.56 L7.63 108.56 A5.66929 5.66929 -180 0 0 13.3 102.89 L13.3 34.39 A5.66929 5.66929 0 0 1 18.97 28.72
						 L25.29 28.72" class="st3"/>
		</g>
		<g id="shape72-56" v:mID="72" v:groupContext="shape" v:layerMember="1" transform="translate(156.232,-80.0825)">
			<title>Process.164</title>
			<desc>fieldName</desc>
			<v:custProps>
				<v:cp v:nameU="Cost" v:lbl="Cost" v:type="7" v:format="@" v:langID="1033"/>
				<v:cp v:nameU="Duration" v:lbl="Duration" v:type="2" v:langID="1033"/>
				<v:cp v:nameU="Resources" v:lbl="Resources" v:langID="1033"/>
			</v:custProps>
			<v:userDefs>
				<v:ud v:nameU="visVersion" v:val="VT0(11):26"/>
			</v:userDefs>
			<v:textBlock v:margins="rect(2,2,2,2)" v:tabSpace="42.5197"/>
			<v:textRect cx="25.4689" cy="102.008" width="50.94" height="13.1024"/>
			<rect x="0" y="95.4568" width="50.9378" height="13.1024" rx="2.83465" ry="2.83465" class="st1"/>
			<text x="7.47" y="104.41" class="st2" v:langID="2057"><v:paragraph v:horizAlign="1"/><v:tabList/>fieldName</text>		</g>
		<g id="shape73-59" v:mID="73" v:groupContext="shape" v:layerMember="1" transform="translate(36.3498,-80.0825)">
			<title>Process.168</title>
			<desc>fieldBinding</desc>
			<v:custProps>
				<v:cp v:nameU="Cost" v:lbl="Cost" v:type="7" v:format="@" v:langID="1033"/>
				<v:cp v:nameU="Duration" v:lbl="Duration" v:type="2" v:langID="1033"/>
				<v:cp v:nameU="Resources" v:lbl="Resources" v:langID="1033"/>
			</v:custProps>
			<v:userDefs>
				<v:ud v:nameU="visVersion" v:val="VT0(11):26"/>
			</v:userDefs>
			<v:textBlock v:margins="rect(2,2,2,2)" v:tabSpace="42.5197"/>
			<v:textRect cx="25.4689" cy="102.008" width="50.94" height="13.1024"/>
			<rect x="0" y="95.4568" width="50.9378" height="13.1024" rx="2.83465" ry="2.83465" class="st1"/>
			<text x="4.79" y="104.41" class="st2" v:langID="2057"><v:paragraph v:horizAlign="1"/><v:tabList/>fieldBinding</text>		</g>
		<g id="shape74-62" v:mID="74" v:groupContext="shape" v:layerMember="1" transform="translate(111.933,-80.0825)">
			<title>Process.169</title>
			<desc>:</desc>
			<v:custProps>
				<v:cp v:nameU="Cost" v:lbl="Cost" v:type="7" v:format="@" v:langID="1033"/>
				<v:cp v:nameU="Duration" v:lbl="Duration" v:type="2" v:langID="1033"/>
				<v:cp v:nameU="Resources" v:lbl="Resources" v:langID="1033"/>
			</v:custProps>
			<v:userDefs>
				<v:ud v:nameU="visVersion" v:val="VT0(11):26"/>
			</v:userDefs>
			<v:textBlock v:margins="rect(2,2,2,2)" v:tabSpace="42.5197"/>
			<v:textRect cx="9.82677" cy="102.008" width="19.66" height="13.1024"/>
			<rect x="0" y="95.4568" width="19.6535" height="13.1024" rx="2.83465" ry="2.83465" class="st1"/>
			<text x="8.71" y="104.41" class="st5" v:langID="2057"><v:paragraph v:horizAlign="1"/><v:tabList/>:</text>		</g>
		<g id="shape75-65" v:mID="75" v:groupContext="shape" v:layerMember="0;1" transform="translate(0.24,-80.9014)">
			<title>On-page reference.170</title>
			<v:userDefs>
				<v:ud v:nameU="visVersion" v:val="VT0(11):26"/>
			</v:userDefs>
			<v:textBlock v:margins="rect(2,2,2,2)" v:tabSpace="42.5197"/>
			<path d="M0 102.83 A5.73228 5.73228 0 0 1 11.46 102.83 A5.73228 5.73228 0 1 1 0 102.83 Z" class="st1"/>
		</g>
		<g id="shape76-67" v:mID="76" v:groupContext="shape" v:layerMember="0" transform="translate(11.7046,-79.5471)">
			<title>Dynamic connector.171</title>
			<path d="M0 101.47 L21.89 101.47" class="st3"/>
		</g>
		<g id="shape77-72" v:mID="77" v:groupContext="shape" v:layerMember="0" transform="translate(87.2876,-79.5471)">
			<title>Dynamic connector.172</title>
			<path d="M0 101.47 L21.89 101.47" class="st3"/>
		</g>
		<g id="shape78-77" v:mID="78" v:groupContext="shape" v:layerMember="0" transform="translate(131.586,-79.5471)">
			<title>Dynamic connector.173</title>
			<path d="M0 101.47 L21.89 101.47" class="st3"/>
		</g>
		<g id="shape79-82" v:mID="79" v:groupContext="shape" v:layerMember="0" transform="translate(11.7046,-79.5471)">
			<title>Dynamic connector.174</title>
			<path d="M0 101.47 L8.5 101.47 A5.66929 5.66929 -180 0 0 14.17 95.8 L14.17 94.02 A5.66929 5.66929 0 0 1 19.84 88.35 L118.35
						 88.35 A5.66929 5.66929 0 0 1 124.02 94.02 L124.02 95.8 A5.66929 5.66929 -180 0 0 129.69 101.47 L141.77 101.47"
					class="st3"/>
		</g>
	</g>
</svg>
