<?xml version="1.0" encoding="UTF-8"?>
<!-- Generated by Microsoft Visio 11.0, SVG Export, v1.0 pattern.svg Page-1 --><svg xmlns="http://www.w3.org/2000/svg" xmlns:v="http://schemas.microsoft.com/visio/2003/SVGExtensions/" xmlns:xlink="http://www.w3.org/1999/xlink" width="2.23803in" height="1.4954in" viewBox="0 0 161.138 107.669" xml:space="preserve" color-interpolation-filters="sRGB" class="st5" preserveAspectRatio="xMidYMid meet" zoomAndPan="magnify" version="1.0" contentScriptType="text/ecmascript" contentStyleType="text/css">
	<v:documentProperties v:langID="1033" v:metric="true" v:viewMarkup="false"/>

	<style type="text/css" xml:space="preserve">
	
		.st1 {fill:#e8eef7;stroke:#000000;stroke-linecap:round;stroke-linejoin:round;stroke-width:0.24}
		.st2 {fill:#000000;font-family:Arial;font-size:0.666664em;font-style:italic}
		.st3 {marker-end:url(#mrkr2-23);stroke:#4677bf;stroke-linecap:round;stroke-linejoin:round;stroke-width:0.24}
		.st4 {fill:#4677bf;fill-opacity:1;stroke:#4677bf;stroke-opacity:1;stroke-width:0.08695652173913}
		.st5 {fill:none;fill-rule:evenodd;font-size:12;overflow:visible;stroke-linecap:square;stroke-miterlimit:3}
	
	</style>

	<defs id="Markers">
		<g id="lend2">
			<path d="M 1 1 L 0 0 L 1 -1 L 1 1 " style="stroke:none"/>
		</g>
		<marker xmlns="http://www.w3.org/TR/xhtml1/transitional" overflow="visible" id="mrkr2-23" class="st4" v:arrowType="2" v:arrowSize="2" v:setback="11.5" refX="-11.5" orient="auto" markerUnits="strokeWidth" preserveAspectRatio="xMidYMid meet">
			<use xmlns="http://www.w3.org/2000/svg" xlink:href="#lend2" transform="scale(-11.5,-11.5) " xlink:type="simple" xlink:show="embed" xlink:actuate="onLoad"/>
		</marker>
	</defs>
	<g v:mID="0" v:index="1" v:groupContext="foregroundPage">
		<title content="structured text">Page-1</title>
		<v:pageProperties v:drawingScale="0.0393701" v:pageScale="0.0393701" v:drawingUnits="24" v:shadowOffsetX="8.50394" v:shadowOffsetY="-8.50394"/>
		<v:layer v:name="Flowchart" v:index="0"/>
		<v:layer v:name="Connector" v:index="1"/>
		<g id="shape83-1" v:mID="83" v:groupContext="shape" v:layerMember="0" transform="translate(61.5185,-69.2093)">
			<title content="structured text">Process.83</title>
			<desc content="structured text">eval</desc>
			<v:custProps>
				<v:cp v:nameU="Cost" v:lbl="Cost" v:type="7" v:format="@" v:langID="1033"/>
				<v:cp v:nameU="Duration" v:lbl="Duration" v:type="2" v:langID="1033"/>
				<v:cp v:nameU="Resources" v:lbl="Resources" v:langID="1033"/>
			</v:custProps>
			<v:userDefs>
				<v:ud v:nameU="visVersion" v:val="VT0(11):26"/>
			</v:userDefs>
			<v:textBlock v:margins="rect(2,2,2,2)" v:tabSpace="42.5197"/>
			<v:textRect cx="21.4689" cy="100.999" width="42.94" height="13.3396"/>
			<rect x="0" y="94.3293" width="42.9378" height="13.3396" rx="2.83465" ry="2.83465" class="st1"/>
			<text x="14.14" y="103.4" class="st2" v:langID="2057"><v:paragraph v:horizAlign="1"/><v:tabList/>eval</text>		</g>
		<g id="shape94-4" v:mID="94" v:groupContext="shape" v:layerMember="0" transform="translate(61.9366,-46.2196)">
			<title content="structured text">Process.94</title>
			<desc content="structured text">and</desc>
			<v:custProps>
				<v:cp v:nameU="Cost" v:lbl="Cost" v:type="7" v:format="@" v:langID="1033"/>
				<v:cp v:nameU="Duration" v:lbl="Duration" v:type="2" v:langID="1033"/>
				<v:cp v:nameU="Resources" v:lbl="Resources" v:langID="1033"/>
			</v:custProps>
			<v:userDefs>
				<v:ud v:nameU="visVersion" v:val="VT0(11):26"/>
			</v:userDefs>
			<v:textBlock v:margins="rect(2,2,2,2)" v:tabSpace="42.5197"/>
			<v:textRect cx="21.4689" cy="100.999" width="42.94" height="13.3396"/>
			<rect x="0" y="94.3293" width="42.9378" height="13.3396" rx="2.83465" ry="2.83465" class="st1"/>
			<text x="14.8" y="103.4" class="st2" v:langID="2057"><v:paragraph v:horizAlign="1"/><v:tabList/>and</text>		</g>
		<g id="shape93-7" v:mID="93" v:groupContext="shape" v:layerMember="0" transform="translate(61.9366,-92.1991)">
			<title content="structured text">Process.93</title>
			<desc content="structured text">column</desc>
			<v:custProps>
				<v:cp v:nameU="Cost" v:lbl="Cost" v:type="7" v:format="@" v:langID="1033"/>
				<v:cp v:nameU="Duration" v:lbl="Duration" v:type="2" v:langID="1033"/>
				<v:cp v:nameU="Resources" v:lbl="Resources" v:langID="1033"/>
			</v:custProps>
			<v:userDefs>
				<v:ud v:nameU="visVersion" v:val="VT0(11):26"/>
			</v:userDefs>
			<v:textBlock v:margins="rect(2,2,2,2)" v:tabSpace="42.5197"/>
			<v:textRect cx="21.4689" cy="100.999" width="42.94" height="13.3396"/>
			<rect x="0" y="94.3293" width="42.9378" height="13.3396" rx="2.83465" ry="2.83465" class="st1"/>
			<text x="8.58" y="103.4" class="st2" v:langID="2057"><v:paragraph v:horizAlign="1"/><v:tabList/>column</text>		</g>
		<g id="shape96-10" v:mID="96" v:groupContext="shape" v:layerMember="0" transform="translate(64.3531,-23.2298)">
			<title content="structured text">Process.96</title>
			<desc content="structured text">or</desc>
			<v:custProps>
				<v:cp v:nameU="Cost" v:lbl="Cost" v:type="7" v:format="@" v:langID="1033"/>
				<v:cp v:nameU="Duration" v:lbl="Duration" v:type="2" v:langID="1033"/>
				<v:cp v:nameU="Resources" v:lbl="Resources" v:langID="1033"/>
			</v:custProps>
			<v:userDefs>
				<v:ud v:nameU="visVersion" v:val="VT0(11):26"/>
			</v:userDefs>
			<v:textBlock v:margins="rect(2,2,2,2)" v:tabSpace="42.5197"/>
			<v:textRect cx="21.4689" cy="100.999" width="42.94" height="13.3396"/>
			<rect x="0" y="94.3293" width="42.9378" height="13.3396" rx="2.83465" ry="2.83465" class="st1"/>
			<text x="17.92" y="103.4" class="st2" v:langID="2057"><v:paragraph v:horizAlign="1"/><v:tabList/>or</text>		</g>
		<g id="shape106-13" v:mID="106" v:groupContext="shape" v:layerMember="0" transform="translate(64.3531,-0.24)">
			<title content="structured text">Process.106</title>
			<desc content="structured text">group</desc>
			<v:custProps>
				<v:cp v:nameU="Cost" v:lbl="Cost" v:type="7" v:format="@" v:langID="1033"/>
				<v:cp v:nameU="Duration" v:lbl="Duration" v:type="2" v:langID="1033"/>
				<v:cp v:nameU="Resources" v:lbl="Resources" v:langID="1033"/>
			</v:custProps>
			<v:userDefs>
				<v:ud v:nameU="visVersion" v:val="VT0(11):26"/>
			</v:userDefs>
			<v:textBlock v:margins="rect(2,2,2,2)" v:tabSpace="42.5197"/>
			<v:textRect cx="21.4689" cy="100.999" width="42.94" height="13.3396"/>
			<rect x="0" y="94.3293" width="42.9378" height="13.3396" rx="2.83465" ry="2.83465" class="st1"/>
			<text x="11.24" y="103.4" class="st2" v:langID="2057"><v:paragraph v:horizAlign="1"/><v:tabList/>group</text>		</g>
		<g id="shape107-16" v:mID="107" v:groupContext="shape" v:layerMember="1;0" transform="translate(0.24,-93.0328)">
			<title content="structured text">On-page reference.107</title>
			<v:userDefs>
				<v:ud v:nameU="visVersion" v:val="VT0(11):26"/>
			</v:userDefs>
			<v:textBlock v:margins="rect(2,2,2,2)" v:tabSpace="42.5197"/>
			<path d="M0 101.83 A5.83609 5.83609 0 1 1 11.67 101.83 A5.83609 5.83609 0 0 1 0 101.83 Z" class="st1"/>
		</g>
		<g id="shape109-18" v:mID="109" v:groupContext="shape" v:layerMember="1" transform="translate(11.9122,-91.7823)">
			<title content="structured text">Dynamic connector.109</title>
			<path d="M0 100.58 L47.26 100.58" class="st3"/>
		</g>
		<g id="shape90-24" v:mID="90" v:groupContext="shape" v:layerMember="1" transform="translate(11.9122,-98.8689)">
			<title content="structured text">Dynamic connector.90</title>
			<path d="M0 107.67 L23.76 107.67 A5.66929 5.66929 0 0 1 29.43 113.34 L29.43 124.99 A5.66929 5.66929 -180 0 0 35.1 130.66        L46.85 130.66" class="st3"/>
		</g>
		<g id="shape95-29" v:mID="95" v:groupContext="shape" v:layerMember="1" transform="translate(11.9122,-98.8689)">
			<title content="structured text">Dynamic connector.95</title>
			<path d="M0 107.67 L23.76 107.67 A5.66929 5.66929 0 0 1 29.43 113.34 L29.43 147.98 A5.66929 5.66929 -180 0 0 35.1 153.65        L47.26 153.65" class="st3"/>
		</g>
		<g id="shape101-34" v:mID="101" v:groupContext="shape" v:layerMember="1" transform="translate(11.9122,-98.8689)">
			<title content="structured text">Dynamic connector.101</title>
			<path d="M0 107.67 L24.09 107.67 A5.66929 5.66929 0 0 1 29.76 113.34 L29.76 170.97 A5.66929 5.66929 -180 0 0 35.43 176.64        L49.68 176.64" class="st3"/>
		</g>
		<g id="shape102-39" v:mID="102" v:groupContext="shape" v:layerMember="1" transform="translate(11.9122,-98.8689)">
			<title content="structured text">Dynamic connector.102</title>
			<path d="M0 107.67 L24.09 107.67 A5.66929 5.66929 0 0 1 29.76 113.34 L29.76 193.96 A5.66929 5.66929 -180 0 0 35.43 199.63        L49.68 199.63" class="st3"/>
		</g>
		<g id="shape103-44" v:mID="103" v:groupContext="shape" v:layerMember="1;0" transform="translate(149.226,-93.0328)">
			<title content="structured text">On-page reference.103</title>
			<v:userDefs>
				<v:ud v:nameU="visVersion" v:val="VT0(11):26"/>
			</v:userDefs>
			<v:textBlock v:margins="rect(2,2,2,2)" v:tabSpace="42.5197"/>
			<path d="M0 101.83 A5.83609 5.83609 0 1 1 11.67 101.83 A5.83609 5.83609 0 0 1 0 101.83 Z" class="st1"/>
		</g>
		<g id="shape125-46" v:mID="125" v:groupContext="shape" v:layerMember="1" transform="translate(107.291,-6.90982)">
			<title content="structured text">Dynamic connector.125</title>
			<path d="M0 107.67 L13.76 107.67 A5.66929 5.66929 -180 0 0 19.42 102 L19.42 21.38 A5.66929 5.66929 0 0 1 25.09 15.71        L39.17 15.71" class="st3"/>
		</g>
		<g id="shape126-51" v:mID="126" v:groupContext="shape" v:layerMember="1" transform="translate(107.291,-29.8996)">
			<title content="structured text">Dynamic connector.126</title>
			<path d="M0 107.67 L13.76 107.67 A5.66929 5.66929 -180 0 0 19.42 102 L19.42 44.37 A5.66929 5.66929 0 0 1 25.09 38.7 L39.17        38.7" class="st3"/>
		</g>
		<g id="shape127-56" v:mID="127" v:groupContext="shape" v:layerMember="1" transform="translate(104.874,-52.8894)">
			<title content="structured text">Dynamic connector.127</title>
			<path d="M0 107.67 L16.17 107.67 A5.66929 5.66929 -180 0 0 21.84 102 L21.84 67.36 A5.66929 5.66929 0 0 1 27.51 61.69        L41.59 61.69" class="st3"/>
		</g>
		<g id="shape128-61" v:mID="128" v:groupContext="shape" v:layerMember="1" transform="translate(104.456,-75.8792)">
			<title content="structured text">Dynamic connector.128</title>
			<path d="M0 107.67 L16.59 107.67 A5.66929 5.66929 -180 0 0 22.26 102 L22.26 90.35 A5.66929 5.66929 0 0 1 27.93 84.68        L42.01 84.68" class="st3"/>
		</g>
		<g id="shape129-66" v:mID="129" v:groupContext="shape" v:layerMember="1" transform="translate(104.874,-105.956)">
			<title content="structured text">Dynamic connector.129</title>
			<path d="M0 114.76 L41.59 114.76" class="st3"/>
		</g>
	</g>
</svg>