<?xml version="1.0" encoding="UTF-8" standalone="no"?>
<!-- Created with Inkscape (http://www.inkscape.org/) -->
<svg
   xmlns:dc="http://purl.org/dc/elements/1.1/"
   xmlns:cc="http://creativecommons.org/ns#"
   xmlns:rdf="http://www.w3.org/1999/02/22-rdf-syntax-ns#"
   xmlns:svg="http://www.w3.org/2000/svg"
   xmlns="http://www.w3.org/2000/svg"
   xmlns:xlink="http://www.w3.org/1999/xlink"
   xmlns:sodipodi="http://sodipodi.sourceforge.net/DTD/sodipodi-0.dtd"
   xmlns:inkscape="http://www.inkscape.org/namespaces/inkscape"
   width="540"
   height="299.96765"
   id="svg2539"
   sodipodi:version="0.32"
   inkscape:version="0.46"
   version="1.0"
   sodipodi:docname="rule-engine-inkscape.svg"
   inkscape:output_extension="org.inkscape.output.svg.inkscape"
   inkscape:export-filename="/mnt/data/images/inkscape/rule-engine/rule-engine-inkscape.png"
   inkscape:export-xdpi="90"
   inkscape:export-ydpi="90">
  <defs
     id="defs2541">
    <marker
       inkscape:stockid="Arrow1Send"
       orient="auto"
       refY="0"
       refX="0"
       id="Arrow1Send"
       style="overflow:visible">
      <path
         id="path5756"
         d="M 0,0 L 5,-5 L -12.5,0 L 5,5 L 0,0 z"
         style="fill-rule:evenodd;stroke:#000000;stroke-width:1pt;marker-start:none"
         transform="matrix(-0.2,0,0,-0.2,-1.2,0)" />
    </marker>
    <marker
       inkscape:stockid="TriangleOutS"
       orient="auto"
       refY="0"
       refX="0"
       id="TriangleOutS"
       style="overflow:visible">
      <path
         id="path5890"
         d="M 5.77,0 L -2.88,5 L -2.88,-5 L 5.77,0 z"
         style="fill-rule:evenodd;stroke:#000000;stroke-width:1pt;marker-start:none"
         transform="scale(0.2,0.2)" />
    </marker>
    <marker
       inkscape:stockid="Arrow2Send"
       orient="auto"
       refY="0"
       refX="0"
       id="Arrow2Send"
       style="overflow:visible">
      <path
         id="path5774"
         style="font-size:12px;fill-rule:evenodd;stroke-width:0.625;stroke-linejoin:round"
         d="M 8.7185878,4.0337352 L -2.2072895,0.016013256 L 8.7185884,-4.0017078 C 6.97309,-1.6296469 6.9831476,1.6157441 8.7185878,4.0337352 z"
         transform="matrix(-0.3,0,0,-0.3,0.69,0)" />
    </marker>
    <marker
       inkscape:stockid="Arrow2Mend"
       orient="auto"
       refY="0"
       refX="0"
       id="Arrow2Mend"
       style="overflow:visible">
      <path
         id="path5768"
         style="font-size:12px;fill-rule:evenodd;stroke-width:0.625;stroke-linejoin:round"
         d="M 8.7185878,4.0337352 L -2.2072895,0.016013256 L 8.7185884,-4.0017078 C 6.97309,-1.6296469 6.9831476,1.6157441 8.7185878,4.0337352 z"
         transform="scale(-0.6,-0.6)" />
    </marker>
    <marker
       inkscape:stockid="Arrow1Lend"
       orient="auto"
       refY="0"
       refX="0"
       id="Arrow1Lend"
       style="overflow:visible">
      <path
         id="path5744"
         d="M 0,0 L 5,-5 L -12.5,0 L 5,5 L 0,0 z"
         style="fill-rule:evenodd;stroke:#000000;stroke-width:1pt;marker-start:none"
         transform="matrix(-0.8,0,0,-0.8,-10,0)" />
    </marker>
    <linearGradient
       id="linearGradient5702">
      <stop
         style="stop-color:#dde9af;stop-opacity:1;"
         offset="0"
         id="stop5704" />
      <stop
         id="stop5710"
         offset="0.5"
         style="stop-color:#ffffff;stop-opacity:1;" />
      <stop
         style="stop-color:#dde9af;stop-opacity:1"
         offset="1"
         id="stop5706" />
    </linearGradient>
    <linearGradient
       id="linearGradient5669">
      <stop
         style="stop-color:#ffb380;stop-opacity:1;"
         offset="0"
         id="stop5671" />
      <stop
         id="stop5677"
         offset="0.5"
         style="stop-color:#ffffff;stop-opacity:1" />
      <stop
         style="stop-color:#ffb380;stop-opacity:1"
         offset="1"
         id="stop5673" />
    </linearGradient>
    <linearGradient
       id="linearGradient5627">
      <stop
         style="stop-color:#ffaaee;stop-opacity:1;"
         offset="0"
         id="stop5629" />
      <stop
         id="stop5637"
         offset="0.5"
         style="stop-color:#ffffff;stop-opacity:1" />
      <stop
         style="stop-color:#ffaaee;stop-opacity:1"
         offset="1"
         id="stop5631" />
    </linearGradient>
    <inkscape:perspective
       sodipodi:type="inkscape:persp3d"
       inkscape:vp_x="0 : 526.18109 : 1"
       inkscape:vp_y="0 : 1000 : 0"
       inkscape:vp_z="744.09448 : 526.18109 : 1"
       inkscape:persp3d-origin="372.04724 : 350.78739 : 1"
       id="perspective2547" />
    <linearGradient
       y2="92.25666"
       x2="195.02586"
       y1="92.25666"
       x1="49.5"
       gradientUnits="userSpaceOnUse"
       id="linearGradient2508"
       xlink:href="#linearGradient4343"
       inkscape:collect="always" />
    <linearGradient
       x1="49.5"
       y1="92.25666"
       x2="195.02586"
       y2="92.25666"
       id="linearGradient4349"
       xlink:href="#linearGradient4343"
       gradientUnits="userSpaceOnUse" />
    <linearGradient
       id="linearGradient4343">
      <stop
         id="stop4345"
         style="stop-color:#2c5aa0;stop-opacity:1"
         offset="0" />
      <stop
         id="stop4355"
         style="stop-color:#ffffff;stop-opacity:1"
         offset="0.50135446" />
      <stop
         id="stop4347"
         style="stop-color:#2c5aa0;stop-opacity:1"
         offset="1" />
    </linearGradient>
    <inkscape:perspective
       sodipodi:type="inkscape:persp3d"
       inkscape:vp_x="0 : 100 : 1"
       inkscape:vp_y="0 : 1000 : 0"
       inkscape:vp_z="200 : 100 : 1"
       inkscape:persp3d-origin="100 : 66.666667 : 1"
       id="perspective3166" />
    <linearGradient
       inkscape:collect="always"
       xlink:href="#linearGradient4619"
       id="linearGradient4625"
       x1="49.5"
       y1="92.25666"
       x2="200.01692"
       y2="92.25666"
       gradientUnits="userSpaceOnUse" />
    <inkscape:perspective
       sodipodi:type="inkscape:persp3d"
       inkscape:vp_x="0 : 526.18109 : 1"
       inkscape:vp_y="0 : 1000 : 0"
       inkscape:vp_z="744.09448 : 526.18109 : 1"
       inkscape:persp3d-origin="372.04724 : 350.78739 : 1"
       id="perspective4087" />
    <linearGradient
       id="linearGradient4619">
      <stop
         style="stop-color:#2ca05a;stop-opacity:1"
         offset="0"
         id="stop4621" />
      <stop
         id="stop4627"
         offset="0.5"
         style="stop-color:#ffffff;stop-opacity:1" />
      <stop
         style="stop-color:#2ca05a;stop-opacity:1"
         offset="1"
         id="stop4623" />
    </linearGradient>
    <linearGradient
       inkscape:collect="always"
       xlink:href="#linearGradient5627"
       id="linearGradient5635"
       x1="390"
       y1="260"
       x2="580"
       y2="260"
       gradientUnits="userSpaceOnUse" />
    <linearGradient
       inkscape:collect="always"
       xlink:href="#linearGradient5669"
       id="linearGradient5684"
       gradientUnits="userSpaceOnUse"
       x1="399.5"
       y1="349.83334"
       x2="550"
       y2="350" />
    <linearGradient
       inkscape:collect="always"
       xlink:href="#linearGradient5702"
       id="linearGradient5712"
       gradientUnits="userSpaceOnUse"
       x1="349.49982"
       y1="259.98383"
       x2="680"
       y2="260"
       gradientTransform="translate(5.0200959,20)" />
    <linearGradient
       inkscape:collect="always"
       xlink:href="#linearGradient5702"
       id="linearGradient12426"
       gradientUnits="userSpaceOnUse"
       gradientTransform="translate(5.0200959,20)"
       x1="349.49982"
       y1="259.98383"
       x2="680"
       y2="260" />
  </defs>
  <sodipodi:namedview
     id="base"
     pagecolor="#ffffff"
     bordercolor="#666666"
     borderopacity="1.0"
     gridtolerance="10000"
     guidetolerance="10"
     objecttolerance="10"
     inkscape:pageopacity="0.0"
     inkscape:pageshadow="2"
     inkscape:zoom="1.2583333"
     inkscape:cx="484.93681"
     inkscape:cy="109.27152"
     inkscape:document-units="px"
     inkscape:current-layer="layer1"
     showgrid="true"
     showborder="true"
     inkscape:showpageshadow="true"
     inkscape:window-width="1680"
     inkscape:window-height="977"
     inkscape:window-x="0"
     inkscape:window-y="25">
    <inkscape:grid
       type="xygrid"
       id="grid2549"
       visible="true"
       enabled="true"
       spacingx="1px"
       spacingy="1px" />
  </sodipodi:namedview>
  <metadata
     id="metadata2544">
    <rdf:RDF>
      <cc:Work
         rdf:about="">
        <dc:format>image/svg+xml</dc:format>
        <dc:type
           rdf:resource="http://purl.org/dc/dcmitype/StillImage" />
      </cc:Work>
    </rdf:RDF>
  </metadata>
  <g
     inkscape:label="Layer 1"
     inkscape:groupmode="layer"
     id="layer1"
     transform="translate(-200,-130)">
    <g
       id="g12419">
      <rect
         ry="6.7218855e-07"
         y="130"
         x="355.01993"
         height="299.96765"
         width="229.96016"
         id="rect2795"
         style="opacity:1;fill:url(#linearGradient12426);fill-opacity:1;fill-rule:nonzero;stroke:none;stroke-width:1;stroke-linejoin:round;stroke-miterlimit:4;stroke-dasharray:none;stroke-opacity:1" />
      <text
         id="text2825"
         y="180"
         x="402.22931"
         style="font-size:18px;font-style:normal;font-variant:normal;font-weight:bold;font-stretch:normal;fill:#445016;fill-opacity:1;stroke:none;stroke-width:1px;stroke-linecap:butt;stroke-linejoin:miter;stroke-opacity:1;font-family:UnBom;-inkscape-font-specification:UnBom Bold"
         xml:space="preserve"><tspan
           y="180"
           x="402.22931"
           id="tspan2827"
           sodipodi:role="line">Inference Engine</tspan></text>
      <text
         id="text2829"
         y="200"
         x="414.17029"
         style="font-size:14px;font-style:normal;font-variant:normal;font-weight:bold;font-stretch:normal;fill:#445016;fill-opacity:1;stroke:none;stroke-width:1px;stroke-linecap:butt;stroke-linejoin:miter;stroke-opacity:1;font-family:UnBom;-inkscape-font-specification:UnBom Bold"
         xml:space="preserve"><tspan
           y="200"
           x="414.17029"
           id="tspan2831"
           sodipodi:role="line">(ReteOO / Leaps)</tspan></text>
    </g>
    <g
       id="g2729"
       transform="translate(150,190)">
      <path
         style="fill:url(#linearGradient2508);fill-opacity:1;fill-rule:nonzero;stroke:none;stroke-width:1;stroke-linejoin:round;stroke-miterlimit:4;stroke-opacity:1"
         id="path3825"
         d="M 150,35 C 150,26.72 150,126.72 150,135 C 150,143.28 127.6,150 100,150 C 72.4,150 50,143.28 50,135 C 50,126.72 50,26.72 50,35 C 50,43.28 72.4,50 100,50 C 127.6,50 150,43.28 150,35 z" />
      <path
         style="fill:#87aade;fill-opacity:1;fill-rule:nonzero;stroke:none;stroke-width:1;stroke-linejoin:round;stroke-miterlimit:4;stroke-dasharray:none;stroke-opacity:1"
         id="path3823"
         d="M 150,35 C 150,43.284271 127.61424,50 100,50 C 72.385763,50 50,43.284271 50,35 C 50,26.715729 72.385763,20 100,20 C 127.61424,20 150,26.715729 150,35 L 150,35 z" />
      <path
         style="font-size:13px;font-style:normal;font-variant:normal;font-weight:bold;font-stretch:normal;text-align:center;text-anchor:middle;fill:#214478;fill-opacity:1;stroke:none;stroke-width:1px;stroke-linecap:butt;stroke-linejoin:miter;stroke-opacity:1;font-family:UnBom;-inkscape-font-specification:UnBom Bold"
         d="M 75.837143,74.144061 C 75.837133,75.071399 75.550379,75.754242 74.978483,76.182532 C 74.952866,76.20404 74.922994,76.224797 74.888857,76.244802 C 74.368166,76.595422 73.510313,76.661529 72.315297,76.443126 C 72.315297,76.443126 71.080706,76.160811 71.080706,76.160811 C 71.080706,76.160811 71.080706,79.462811 71.080706,79.462811 C 71.080706,79.462811 69.044753,79.037498 69.044753,79.037498 C 69.044753,79.037498 69.044753,76.807998 69.044753,74.578498 C 69.044753,72.348998 69.044753,70.119498 69.044753,70.119498 C 69.044753,70.119498 72.49455,70.832586 72.49455,70.832586 C 73.365207,70.985401 74.022464,71.222087 74.466332,71.542646 C 74.543145,71.599469 74.619968,71.660619 74.6968,71.726095 C 75.456488,72.3881 75.837133,73.190734 75.837143,74.144061 M 73.762124,73.863053 C 73.762114,73.074391 73.271306,72.593918 72.289689,72.421631 C 72.289689,72.421631 71.080706,72.169811 71.080706,72.169811 C 71.080706,72.169811 71.080706,74.535811 71.080706,74.535811 C 71.080706,74.535811 72.302493,74.789878 72.302493,74.789878 C 73.27558,74.960667 73.762114,74.651723 73.762124,73.863053 M 80.436283,76.166744 C 80.436283,76.166744 80.307155,76.151741 80.307155,76.151741 C 79.47213,76.054722 78.990953,76.468523 78.8623,77.403218 C 78.827989,77.623586 78.810839,77.902768 78.810839,78.240765 C 78.810839,78.240765 78.810839,80.762765 78.810839,80.762765 C 78.810839,80.762765 76.919639,80.488848 76.919639,80.488848 C 76.919639,80.488848 76.919639,78.837848 76.919639,77.186848 C 76.919639,75.535848 76.919639,73.884848 76.919639,73.884848 C 76.919639,73.884848 78.682186,74.140131 78.682186,74.140131 C 78.682186,74.140131 78.682186,75.375131 78.682186,75.375131 C 78.682186,75.375131 78.707916,75.378858 78.707916,75.378858 C 78.956642,74.504888 79.390352,74.108222 80.010163,74.180232 C 80.104853,74.191242 80.246893,74.216413 80.436283,74.255744 C 80.436283,74.255744 80.436283,76.166744 80.436283,76.166744 M 87.174169,78.372165 C 87.174159,79.464166 86.819505,80.308971 86.111666,80.887286 C 85.541926,81.356563 84.838399,81.55393 84.001075,81.479385 C 82.852979,81.377172 81.996705,80.820054 81.428546,79.844038 C 81.066989,79.221363 80.886211,78.507026 80.886211,77.701023 C 80.886211,76.531028 81.247767,75.671705 81.97088,75.123054 C 82.513214,74.709409 83.189638,74.543151 84.001075,74.615385 C 85.183693,74.720678 86.059862,75.262347 86.629602,76.240397 C 86.992148,76.853345 87.174159,77.557502 87.174169,78.372165 M 85.127586,78.212676 C 85.127576,77.354679 85.04126,76.761995 84.868618,76.43462 C 84.635537,76.119208 84.350672,75.933515 84.014023,75.877537 C 83.314799,75.815293 82.952236,76.385418 82.926421,77.587081 C 82.926421,77.587081 82.926421,77.795081 82.926421,77.795081 C 82.926411,78.878416 83.08605,79.586591 83.405448,79.918357 C 83.560819,80.088191 83.759368,80.183867 84.001075,80.205385 C 84.726176,80.26994 85.10168,79.679371 85.127586,78.433676 C 85.127576,78.364345 85.127576,78.290678 85.127586,78.212676 M 93.873501,81.964882 C 93.873501,81.964882 92.054826,81.896726 92.054826,81.896726 C 92.054826,81.896726 92.054826,80.869726 92.054826,80.869726 C 92.054826,80.869726 92.028845,80.868753 92.028845,80.868753 C 91.639129,81.625482 91.054202,81.996251 90.275763,81.94728 C 89.159999,81.87709 88.433455,81.211718 88.096131,79.951164 C 87.966391,79.492338 87.901521,78.989924 87.901521,78.443921 C 87.901521,76.987926 88.251819,75.991631 88.952415,75.455031 C 89.315687,75.174557 89.769777,75.051457 90.314685,75.085729 C 91.006628,75.129265 91.539531,75.399088 91.91193,75.924371 C 91.929247,75.942359 91.946565,75.964675 91.963892,75.991318 C 91.963892,75.991318 91.963892,72.975318 91.963892,72.975318 C 91.963892,72.975318 93.873501,73.046882 93.873501,73.046882 C 93.873501,73.046882 93.873501,75.276382 93.873501,77.505882 C 93.873501,79.735382 93.873501,81.964882 93.873501,81.964882 M 91.963892,79.137318 C 91.963892,79.137318 91.963892,78.227318 91.963892,78.227318 C 91.963892,77.074656 91.656446,76.486803 91.041564,76.463754 C 90.30543,76.436172 89.929786,77.080854 89.912491,78.440428 C 89.912491,78.492431 89.912491,78.553098 89.912491,78.622428 C 89.912491,79.905097 90.262132,80.581545 90.963621,80.607833 C 91.59582,80.631526 91.929247,80.189022 91.963892,79.280318 C 91.963892,79.228321 91.963892,79.180654 91.963892,79.137318 M 100.82798,82.031749 C 100.82798,82.031749 99.060159,82.053716 99.060159,82.053716 C 99.060159,82.053716 99.060159,80.922716 99.060159,80.922716 C 99.060159,80.922716 99.034161,80.922798 99.034161,80.922798 C 98.678858,81.73305 98.050593,82.145577 97.149355,82.160378 C 96.100793,82.147349 95.481197,81.671651 95.290546,80.733281 C 95.238552,80.48997 95.212554,80.207981 95.212554,79.887312 C 95.212554,79.887312 95.212554,75.402312 95.212554,75.402312 C 95.212554,75.402312 97.123357,75.426055 97.123357,75.426055 C 97.123357,75.426055 97.123357,79.586055 97.123357,79.586055 C 97.123357,80.088724 97.227347,80.406349 97.435325,80.538931 C 97.539314,80.600892 97.67797,80.632948 97.851282,80.6351 C 98.475219,80.642855 98.821843,80.274495 98.891176,79.530021 C 98.908504,79.382907 98.917173,79.205347 98.917173,78.997344 C 98.917173,78.997344 98.917173,75.448344 98.917173,75.448344 C 98.917173,75.448344 100.82798,75.427749 100.82798,75.427749 C 100.82798,75.427749 100.82798,77.078749 100.82798,78.729749 C 100.82798,80.380749 100.82798,82.031749 100.82798,82.031749 M 108.06505,79.318358 C 107.9699,80.338346 107.51175,81.108973 106.68902,81.599137 C 106.21269,81.885655 105.67143,82.040272 105.0652,82.062991 C 103.90471,82.106481 103.03423,81.696669 102.45362,80.82855 C 102.07233,80.26129 101.88168,79.578993 101.88168,78.781657 C 101.88168,77.559662 102.27164,76.62315 103.05156,75.97212 C 103.6235,75.49702 104.3334,75.226423 105.18211,75.19461 C 106.13475,75.158916 106.88874,75.466365 107.4423,76.081534 C 107.80557,76.492021 108.01315,76.998961 108.06505,77.602358 C 108.06505,77.602358 106.24734,77.793689 106.24734,77.793689 C 106.24734,77.273694 106.0698,76.920681 105.71473,76.734649 C 105.57616,76.670514 105.42027,76.641689 105.24707,76.648175 C 104.48495,76.676741 104.09091,77.267841 104.06493,78.421477 C 104.06493,78.473481 104.06493,78.525481 104.06493,78.577477 C 104.06493,79.38348 104.17319,79.916756 104.38969,80.177306 C 104.57156,80.395826 104.83137,80.498756 105.16912,80.486096 C 105.66276,80.467599 105.99619,80.195103 106.16939,79.66861 C 106.20404,79.554648 106.23002,79.432341 106.24734,79.301689 C 106.24734,79.301689 108.06505,79.318358 108.06505,79.318358 M 113.08325,81.425714 C 112.60847,81.563315 112.21139,81.646334 111.892,81.674768 C 110.93381,81.760074 110.30604,81.578049 110.01197,81.171881 C 109.77844,80.865906 109.66167,80.314253 109.66167,79.516918 C 109.66167,79.516918 109.66167,76.604918 109.66167,76.604918 C 109.66167,76.604918 108.58483,76.67266 108.58483,76.67266 C 108.58483,76.67266 108.58483,75.15166 108.58483,75.15166 C 108.58483,75.15166 109.73951,75.079021 109.73951,75.079021 C 109.73951,75.079021 109.90818,73.13141 109.90818,73.13141 C 109.90818,73.13141 111.56829,72.889588 111.56829,72.889588 C 111.56829,72.889588 111.56829,74.956588 111.56829,74.956588 C 111.56829,74.956588 112.97967,74.830936 112.97967,74.830936 C 112.97967,74.830936 112.97967,76.351936 112.97967,76.351936 C 112.97967,76.351936 111.56829,76.477588 111.56829,76.477588 C 111.56829,76.477588 111.56829,79.220588 111.56829,79.220588 C 111.56828,79.645257 111.63734,79.903442 111.77546,79.995143 C 111.88768,80.071821 112.07759,80.098248 112.34519,80.074421 C 112.5092,80.059822 112.75522,80.029253 113.08325,79.982714 C 113.08325,79.982714 113.08325,81.425714 113.08325,81.425714 M 116.06994,73.945502 C 116.06994,73.945502 114.1691,74.140043 114.1691,74.140043 C 114.1691,74.140043 114.1691,72.294043 114.1691,72.294043 C 114.1691,72.294043 116.06994,72.099502 116.06994,72.099502 C 116.06994,72.099502 116.06994,73.945502 116.06994,73.945502 M 116.06994,81.147502 C 116.06994,81.147502 114.1691,81.342043 114.1691,81.342043 C 114.1691,81.342043 114.1691,79.691043 114.1691,78.040043 C 114.1691,76.389043 114.1691,74.738043 114.1691,74.738043 C 114.1691,74.738043 116.06994,74.543502 116.06994,74.543502 C 116.06994,74.543502 116.06994,76.194502 116.06994,77.845502 C 116.06994,79.496502 116.06994,81.147502 116.06994,81.147502 M 123.41843,76.882264 C 123.41843,77.974266 123.07157,78.921816 122.36827,79.665012 C 121.8022,80.267001 121.10318,80.628246 120.27123,80.748743 C 119.1305,80.913964 118.27498,80.566292 117.70682,79.722308 C 117.34527,79.183653 117.16449,78.511326 117.16449,77.705323 C 117.16449,76.535328 117.52604,75.591985 118.24916,74.875292 C 118.79149,74.335617 119.465,74.001523 120.27123,73.884743 C 121.44626,73.714562 122.3173,74.055192 122.88067,74.883645 C 123.23917,75.401396 123.41843,76.067602 123.41843,76.882264 M 121.39051,77.219629 C 121.39051,76.361633 121.30474,75.789057 121.1332,75.501897 C 120.90163,75.240777 120.61859,75.121438 120.2841,75.14388 C 119.58937,75.244509 119.22914,75.899015 119.20341,77.107404 C 119.20341,77.107404 119.20341,77.315404 119.20341,77.315404 C 119.20341,78.39874 119.36208,79.069092 119.67943,79.326459 C 119.83381,79.460099 120.03107,79.509528 120.27123,79.474743 C 120.99169,79.370395 121.36478,78.692358 121.39051,77.440629 C 121.39051,77.371299 121.39051,77.297632 121.39051,77.219629 M 130,78.837568 C 130,78.837568 128.12947,79.228325 128.12947,79.228325 C 128.12947,79.228325 128.12947,75.341325 128.12947,75.341325 C 128.12947,74.682663 127.99374,74.303684 127.72228,74.204387 C 127.72228,74.204387 127.46778,74.166551 127.46778,74.166551 C 127.46778,74.166551 127.27691,74.193424 127.27691,74.193424 C 126.60674,74.333429 126.27166,74.958094 126.27166,76.067423 C 126.27166,76.067423 126.27166,79.616423 126.27166,79.616423 C 126.27166,79.616423 124.39231,79.961341 124.39231,79.961341 C 124.39231,79.961341 124.39231,78.310341 124.39231,76.659341 C 124.39231,75.008341 124.39231,73.357341 124.39231,73.357341 C 124.39231,73.357341 126.16986,73.033688 126.16986,73.033688 C 126.16986,73.033688 126.16986,74.151688 126.16986,74.151688 C 126.16986,74.151688 126.19531,74.146372 126.19531,74.146372 C 126.52616,73.340599 127.03091,72.827823 127.70955,72.608045 C 127.81984,72.567681 127.93436,72.53509 128.05312,72.510274 C 129.04565,72.302941 129.65643,72.617346 129.88548,73.453492 C 129.96183,73.758215 130,74.161906 130,74.664568 C 130,74.664568 130,78.837568 130,78.837568 M 86.606335,97.831325 C 86.606335,97.831325 84.534589,97.646882 84.534589,97.646882 C 84.534589,97.646882 84.534589,95.830132 84.534589,94.013382 C 84.534589,92.196632 84.534589,90.379882 84.534589,90.379882 C 84.534589,90.379882 84.482795,90.375271 84.482795,90.375271 C 84.482795,90.375271 83.932488,92.143029 83.382181,93.910786 C 82.831873,95.678543 82.283407,97.428367 82.283407,97.428367 C 82.283407,97.428367 80.863008,97.263327 80.863008,97.263327 C 80.863008,97.263327 80.323902,95.383937 79.784796,93.504546 C 79.24569,91.625156 78.70852,89.730945 78.70852,89.730945 C 78.70852,89.730945 78.68279,89.727218 78.68279,89.727218 C 78.68279,89.727218 78.68279,91.543968 78.68279,93.360718 C 78.68279,95.177468 78.68279,96.994218 78.68279,96.994218 C 78.68279,96.994218 76.945974,96.742662 76.945974,96.742662 C 76.945974,96.742662 76.945974,94.513162 76.945974,92.283662 C 76.945974,90.054162 76.945974,87.824662 76.945974,87.824662 C 76.945974,87.824662 80.178634,88.265808 80.178634,88.265808 C 80.178634,88.265808 80.566016,89.646568 80.953397,91.027329 C 81.340779,92.40809 81.72816,93.788851 81.72816,93.788851 C 81.72816,93.788851 82.134911,92.500363 82.541662,91.211874 C 82.948412,89.923386 83.356284,88.62398 83.356284,88.62398 C 83.356284,88.62398 86.606335,88.913325 86.606335,88.913325 C 86.606335,88.913325 86.606335,91.142825 86.606335,93.372325 C 86.606335,95.601825 86.606335,97.831325 86.606335,97.831325 M 94.133312,95.247619 C 94.133312,95.247619 89.899517,95.066611 89.899517,95.066611 C 89.899517,95.066611 89.886543,95.455795 89.886543,95.455795 C 89.886543,95.455795 89.886543,95.468795 89.886543,95.468795 C 89.886543,96.023464 90.098448,96.431128 90.522269,96.691788 C 90.712547,96.807759 90.924649,96.869373 91.158479,96.878135 C 91.565512,96.89339 91.890276,96.749562 92.132769,96.446647 C 92.262675,96.278185 92.327627,96.089952 92.327627,95.88195 C 92.327627,95.88195 94.09434,96.078159 94.09434,96.078159 C 94.09433,96.26016 94.007733,96.486582 93.83453,96.757422 C 93.340879,97.631589 92.591765,98.119182 91.587167,98.2202 C 91.422616,98.240034 91.258066,98.246867 91.093526,98.240701 C 89.959012,98.198184 89.090797,97.715403 88.485351,96.862649 C 88.052888,96.254778 87.836651,95.534843 87.836651,94.70284 C 87.836651,93.524178 88.199923,92.628365 88.926467,92.015399 C 89.48867,91.539439 90.192842,91.342954 91.041564,91.374754 C 92.297309,91.421821 93.18933,91.996916 93.717615,93.100041 C 93.994743,93.691097 94.133302,94.37229 94.133312,95.143619 C 94.133312,95.143619 94.133312,95.247619 94.133312,95.247619 M 92.223703,94.045055 C 92.171741,93.124447 91.803669,92.65132 91.119507,92.625674 C 90.37471,92.597769 89.964387,93.021031 89.886543,93.934795 C 89.886543,93.934795 92.223703,94.045055 92.223703,94.045055 M 104.51879,98.203468 C 104.51879,98.203468 102.60879,98.259622 102.60879,98.259622 C 102.60879,98.259622 102.60879,94.268622 102.60879,94.268622 C 102.60878,93.748627 102.53513,93.415875 102.38782,93.270367 C 102.24916,93.142095 102.03684,93.079733 101.75088,93.083282 C 101.17894,93.090394 100.86263,93.449657 100.80198,94.161073 C 100.79331,94.291184 100.78898,94.499238 100.78898,94.785234 C 100.78898,94.785234 100.78898,98.282234 100.78898,98.282234 C 100.78898,98.282234 98.878177,98.30186 98.878177,98.30186 C 98.878177,98.30186 98.878177,94.34986 98.878177,94.34986 C 98.878177,93.691198 98.713524,93.294819 98.384228,93.160722 C 98.384228,93.160722 98.098258,93.092169 98.098258,93.092169 C 98.098258,93.092169 98.020265,93.0912 98.020265,93.0912 C 97.465652,93.084313 97.153684,93.40977 97.084361,94.06757 C 97.067033,94.197359 97.058364,94.435584 97.058364,94.782247 C 97.058364,94.782247 97.058364,98.279247 97.058364,98.279247 C 97.058364,98.279247 95.147561,98.255504 95.147561,98.255504 C 95.147561,98.255504 95.147561,96.604504 95.147561,94.953504 C 95.147561,93.302504 95.147561,91.651504 95.147561,91.651504 C 95.147561,91.651504 96.967373,91.674117 96.967373,91.674117 C 96.967373,91.674117 96.967373,92.688117 96.967373,92.688117 C 96.967373,92.688117 96.993371,92.68844 96.993371,92.68844 C 97.322667,91.929872 97.933604,91.55613 98.826183,91.567214 C 99.62343,91.577127 100.2127,91.915068 100.594,92.629657 C 100.61133,92.64678 100.62433,92.668286 100.633,92.694172 C 100.9103,92.0494 101.43024,91.670273 102.19284,91.55679 C 102.31415,91.537957 102.43547,91.527782 102.5568,91.526268 C 103.67467,91.512384 104.31959,91.975273 104.49281,92.965442 C 104.51878,93.129141 104.53177,93.30632 104.53178,93.496981 C 104.53178,93.496981 104.51879,98.203468 104.51879,98.203468 M 111.82968,94.550317 C 111.82968,95.642319 111.47612,96.545442 110.76688,97.231391 C 110.19603,97.787302 109.49111,98.091647 108.65212,98.144426 C 107.50177,98.216793 106.6403,97.798963 106.06872,96.910383 C 105.70498,96.34335 105.52311,95.656833 105.52311,94.85083 C 105.52311,93.680835 105.88685,92.765871 106.61432,92.105936 C 107.15992,91.60883 107.83909,91.33158 108.65212,91.280426 C 109.83708,91.20589 110.71611,91.629128 111.28584,92.505733 C 111.6484,93.054128 111.82968,93.735655 111.82968,94.550317 M 109.78086,94.70642 C 109.78086,93.848424 109.69436,93.268866 109.52138,92.967743 C 109.28785,92.687773 109.00242,92.545396 108.6651,92.54061 C 107.9645,92.584689 107.60123,93.209874 107.57528,94.416169 C 107.57528,94.416169 107.57528,94.624169 107.57528,94.624169 C 107.57528,95.707505 107.7353,96.390771 108.05532,96.67397 C 108.21101,96.820177 108.40994,96.885663 108.65212,96.870426 C 109.37867,96.824722 109.75491,96.177054 109.78086,94.92742 C 109.78086,94.85809 109.78086,94.784423 109.78086,94.70642 M 116.46236,92.554905 C 116.46236,92.554905 116.33324,92.569909 116.33324,92.569909 C 115.49821,92.666938 115.01579,93.196335 114.88632,94.16119 C 114.85179,94.389602 114.83451,94.672805 114.83452,95.010802 C 114.83452,95.010802 114.83452,97.532802 114.83452,97.532802 C 114.83452,97.532802 112.93111,97.702259 112.93111,97.702259 C 112.93111,97.702259 112.93111,96.051259 112.93111,94.400259 C 112.93111,92.749259 112.93111,91.098259 112.93111,91.098259 C 112.93111,91.098259 114.70504,90.940329 114.70504,90.940329 C 114.70504,90.940329 114.70504,92.175329 114.70504,92.175329 C 114.70504,92.175329 114.73094,92.173024 114.73094,92.173024 C 114.98127,91.240743 115.41642,90.739443 116.03624,90.667417 C 116.13093,90.656422 116.27297,90.648585 116.46236,90.643905 C 116.46236,90.643905 116.46236,92.554905 116.46236,92.554905 M 122.6306,89.916533 C 122.6306,89.916533 122.13309,91.542076 121.63456,93.161282 C 121.13603,94.780488 120.63749,96.399694 120.63749,96.399694 C 120.37161,97.278871 120.19578,97.811337 120.11002,97.997093 C 119.75836,98.802024 119.21506,99.294059 118.47473,99.432082 C 118.42307,99.438083 118.36712,99.444584 118.30687,99.451587 C 118.12608,99.472591 117.72578,99.488769 117.10598,99.500121 C 117.10598,99.500121 117.10598,98.005121 117.10598,98.005121 C 117.10598,98.005121 118.06152,97.985094 118.06152,97.985094 C 118.50055,97.934081 118.79775,97.762492 118.95214,97.462797 C 119.01217,97.350103 119.06363,97.208316 119.10652,97.037437 C 119.10652,97.037437 118.51024,95.462956 117.91303,93.881348 C 117.31582,92.29974 116.7186,90.718132 116.7186,90.718132 C 116.7186,90.718132 118.77172,90.479574 118.77172,90.479574 C 118.77172,90.479574 120.01996,94.227137 120.01996,94.227137 C 120.01996,94.227137 121.21643,90.127842 121.21643,90.127842 C 121.21643,90.127842 122.6306,89.916533 122.6306,89.916533 M 84.185988,121.19785 C 83.662763,121.98822 83.273912,122.85686 83.019456,123.80378 C 82.778536,124.70029 82.658879,125.65915 82.658879,126.696 C 82.658879,127.68869 82.780119,128.65852 83.024187,129.58984 C 83.272348,130.53674 83.646667,131.45193 84.147143,132.33539 C 84.147143,132.33539 82.736356,132.204 82.736356,132.204 C 82.156177,131.33505 81.711413,130.44932 81.402065,129.54681 C 81.082594,128.61475 80.907547,127.66479 80.876924,126.69695 C 80.876924,126.61895 80.876924,126.53662 80.876924,126.44995 C 80.876924,125.49696 81.007988,124.60426 81.270126,123.77183 C 81.534827,122.93125 81.933184,122.15214 82.465188,121.43449 C 82.559878,121.30683 82.658879,121.18401 82.762181,121.066 C 82.762181,121.066 84.185988,121.19785 84.185988,121.19785 M 89.615107,125.72872 C 89.615107,125.72872 89.485367,125.72056 89.485367,125.72056 C 88.646378,125.66778 88.162009,126.11398 88.032279,127.05915 C 87.997678,127.2823 87.980373,127.56288 87.980383,127.90089 C 87.980383,127.90089 87.980383,130.42289 87.980383,130.42289 C 87.980383,130.42289 86.074643,130.28399 86.074643,130.28399 C 86.074643,130.28399 86.074643,128.63299 86.074643,126.98199 C 86.074643,125.33099 86.074643,123.67999 86.074643,123.67999 C 86.074643,123.67999 87.850643,123.81072 87.850643,123.81072 C 87.850643,123.81072 87.850643,125.04572 87.850643,125.04572 C 87.850643,125.04572 87.876591,125.04736 87.876591,125.04736 C 88.127418,124.15313 88.564203,123.72561 89.186965,123.76479 C 89.282094,123.77077 89.424808,123.78842 89.615107,123.81772 C 89.615107,123.81772 89.615107,125.72872 89.615107,125.72872 M 96.02964,130.76647 C 96.02964,130.76647 94.262198,130.72945 94.262198,130.72945 C 94.262198,130.72945 94.262198,129.59845 94.262198,129.59845 C 94.262198,129.59845 94.236217,129.59748 94.236217,129.59748 C 93.881146,130.39883 93.253263,130.79564 92.352589,130.78789 C 91.304692,130.74862 90.685591,130.25506 90.495303,129.30709 C 90.443407,129.06116 90.417459,128.77787 90.417459,128.4572 C 90.417459,128.4572 90.417459,123.9722 90.417459,123.9722 C 90.417459,123.9722 92.326608,124.05291 92.326608,124.05291 C 92.326608,124.05291 92.326608,128.21291 92.326608,128.21291 C 92.326608,128.71558 92.430532,129.03581 92.638381,129.1736 C 92.742305,129.23816 92.880874,129.27369 93.054078,129.28018 C 93.677624,129.30354 94.024042,128.94386 94.093321,128.20112 C 94.110639,128.05444 94.119302,127.8771 94.119302,127.6691 C 94.119302,127.6691 94.119302,124.1201 94.119302,124.1201 C 94.119302,124.1201 96.02964,124.16247 96.02964,124.16247 C 96.02964,124.16247 96.02964,125.81347 96.02964,127.46447 C 96.02964,129.11547 96.02964,130.76647 96.02964,130.76647 M 99.345119,130.80018 C 99.345119,130.80018 97.434315,130.78392 97.434315,130.78392 C 97.434315,130.78392 97.434315,128.55442 97.434315,126.32492 C 97.434315,124.09542 97.434315,121.86592 97.434315,121.86592 C 97.434315,121.86592 99.345119,121.88218 99.345119,121.88218 C 99.345119,121.88218 99.345119,124.11168 99.345119,126.34118 C 99.345119,128.57068 99.345119,130.80018 99.345119,130.80018 M 106.72312,127.64386 C 106.72312,127.64386 102.48775,127.78413 102.48775,127.78413 C 102.48775,127.78413 102.47475,128.17429 102.47475,128.17429 C 102.47475,128.17429 102.47475,128.18729 102.47475,128.18729 C 102.47475,128.74196 102.68705,129.13365 103.11168,129.36238 C 103.30232,129.46401 103.51446,129.50611 103.74829,129.49735 C 104.15532,129.48209 104.48008,129.31392 104.72258,128.99283 C 104.85247,128.81464 104.91743,128.62153 104.91744,128.41353 C 104.91744,128.41353 106.68415,128.47732 106.68415,128.47732 C 106.68414,128.65932 106.59754,128.89224 106.42434,129.17606 C 105.93069,130.08722 105.18157,130.63096 104.17698,130.80728 C 104.01243,130.83945 103.84788,130.85861 103.68333,130.86478 C 102.54882,130.9073 101.67749,130.49386 101.07089,129.68673 C 100.63761,129.11145 100.42096,128.40781 100.42096,127.57581 C 100.42096,126.39714 100.78492,125.47396 101.51285,124.80624 C 102.07612,124.28791 102.78265,124.03453 103.63137,124.00273 C 104.88712,123.95567 105.77914,124.46391 106.30742,125.52744 C 106.58455,126.09773 106.72311,126.76853 106.72312,127.53986 C 106.72312,127.53986 106.72312,127.64386 106.72312,127.64386 M 104.81351,126.58443 C 104.76154,125.66771 104.39348,125.22217 103.70932,125.24781 C 102.96452,125.27572 102.55274,125.73366 102.47475,126.65329 C 102.47475,126.65329 104.81351,126.58443 104.81351,126.58443 M 113.16903,128.06208 C 113.16903,129.02408 112.68562,129.73012 111.71881,130.18019 C 111.27856,130.39271 110.78554,130.51022 110.24063,130.5445 C 108.72699,130.63972 107.7626,130.17605 107.34743,129.15351 C 107.30418,129.0349 107.26521,128.91055 107.23056,128.78185 C 107.23056,128.78185 108.87836,128.4462 108.87836,128.4462 C 108.9735,128.94288 109.36705,129.20845 110.05899,129.24293 C 110.14549,129.24615 110.23631,129.24477 110.33145,129.23879 C 110.82446,129.20777 111.17065,129.07632 111.3692,128.83331 C 111.44689,128.7484 111.48574,128.64961 111.48574,128.53694 C 111.48574,128.25961 111.30017,128.09885 110.92825,128.04424 C 110.92825,128.04424 110.74662,128.02967 110.74662,128.02967 C 109.72599,127.9552 109.01675,127.83949 108.61888,127.68252 C 107.86639,127.39186 107.49014,126.8522 107.49014,126.06353 C 107.49014,125.07553 107.97883,124.37745 108.9562,123.9693 C 109.36272,123.80507 109.81249,123.70743 110.3055,123.67642 C 111.50775,123.60079 112.32738,123.99868 112.76763,124.91282 C 112.76763,124.91282 112.89711,125.20029 112.89711,125.20029 C 112.89711,125.20029 111.48574,125.70294 111.48574,125.70294 C 111.33036,125.12744 110.9023,124.86087 110.20171,124.90495 C 109.57896,124.97879 109.25028,125.19447 109.21568,125.55198 C 109.21568,125.82932 109.45354,126.00068 109.92925,126.06609 C 109.92925,126.06609 111.45984,126.21225 111.45984,126.21225 C 112.38349,126.33801 112.93164,126.75288 113.10429,127.45684 C 113.14745,127.635 113.16903,127.83675 113.16903,128.06208 M 117.44857,126.42232 C 117.44857,127.39148 117.29955,128.3466 117.00151,129.2877 C 116.7132,130.19805 116.28545,131.09527 115.71826,131.97937 C 115.67522,132.04503 115.63218,132.1107 115.58914,132.17637 C 115.58914,132.17637 114.17901,132.31416 114.17901,132.31416 C 114.6807,131.43294 115.05584,130.51985 115.30331,129.56378 C 115.54551,128.62804 115.66661,127.66291 115.66661,126.66837 C 115.66661,125.63152 115.54648,124.66807 115.30624,123.77802 C 115.05247,122.83794 114.6634,121.96699 114.14016,121.17662 C 114.14016,121.17662 115.56331,121.03837 115.56331,121.03837 C 116.12344,121.69895 116.55873,122.43025 116.86918,123.23229 C 117.17422,124.02035 117.35875,124.87668 117.42274,125.80132 C 117.43996,126.00732 117.44857,126.21432 117.44857,126.42232"
         id="text3172" />
    </g>
    <g
       inkscape:label="Layer 1"
       id="g2790"
       transform="translate(590,190)">
      <path
         id="path4103"
         style="fill:url(#linearGradient4625);fill-opacity:1;fill-rule:nonzero;stroke:none;stroke-width:1;stroke-linejoin:round;stroke-miterlimit:4;stroke-opacity:1"
         d="M 150,35 C 150,26.72 150,126.72 150,135 C 150,143.28 127.6,150 100,150 C 72.4,150 50,143.28 50,135 C 50,126.72 50,26.72 50,35 C 50,43.28 72.4,50 100,50 C 127.6,50 150,43.28 150,35 z"
         sodipodi:nodetypes="ccsccsc" />
      <path
         sodipodi:type="arc"
         style="opacity:1;fill:#87deaa;fill-opacity:1;fill-rule:nonzero;stroke:none;stroke-width:1;stroke-linejoin:round;stroke-miterlimit:4;stroke-dasharray:none;stroke-opacity:1"
         id="path4101"
         sodipodi:cx="90"
         sodipodi:cy="67.5"
         sodipodi:rx="50"
         sodipodi:ry="15"
         d="M 140,67.5 A 50,15 0 1 1 40,67.5 A 50,15 0 1 1 140,67.5 z"
         transform="translate(10,-32.5)" />
      <path
         style="font-size:13px;font-style:normal;font-variant:normal;font-weight:bold;font-stretch:normal;text-align:center;text-anchor:middle;fill:#16502d;fill-opacity:1;stroke:none;stroke-width:1px;stroke-linecap:butt;stroke-linejoin:miter;stroke-opacity:1;font-family:UnBom;-inkscape-font-specification:UnBom Bold"
         d="M 88.62623,69.538312 C 88.62623,69.538312 88.070257,71.710149 87.514283,73.881986 C 86.95831,76.053823 86.402336,78.22566 86.402336,78.22566 C 86.402336,78.22566 84.359457,78.013782 84.359457,78.013782 C 84.359457,78.013782 83.997428,76.500734 83.635399,74.987686 C 83.273369,73.474639 82.911569,71.959667 82.911569,71.959667 C 82.911569,71.959667 82.885813,71.956116 82.885813,71.956116 C 82.885813,71.956116 82.53811,73.383678 82.190407,74.81124 C 81.842704,76.238802 81.495001,77.666364 81.495001,77.666364 C 81.495001,77.666364 79.488014,77.376295 79.488014,77.376295 C 79.488014,77.376295 78.920188,75.054763 78.352362,72.733231 C 77.784536,70.411699 77.21671,68.090167 77.21671,68.090167 C 77.21671,68.090167 79.321195,68.431257 79.321195,68.431257 C 79.321195,68.431257 79.658041,69.987353 79.994887,71.543448 C 80.331733,73.099543 80.670816,74.640733 80.670816,74.640733 C 80.670816,74.640733 80.696571,74.644284 80.696571,74.644284 C 80.696571,74.644284 81.053933,73.192054 81.411295,71.739823 C 81.768656,70.287593 82.126018,68.835363 82.126018,68.835363 C 82.126018,68.835363 84.036217,69.062257 84.036217,69.062257 C 84.036217,69.062257 84.407943,70.602311 84.77967,72.142365 C 85.151396,73.682419 85.523122,75.222472 85.523122,75.222472 C 85.523122,75.222472 85.548982,75.225154 85.548982,75.225154 C 85.548982,75.225154 85.626559,74.8432 85.626559,74.8432 C 85.626559,74.8432 85.9498,73.472725 86.27304,72.10225 C 86.59628,70.731775 86.919521,69.3613 86.919521,69.3613 C 86.919521,69.3613 88.62623,69.538312 88.62623,69.538312 M 95.441433,75.642992 C 95.441426,76.734993 95.086779,77.580013 94.377489,78.178053 C 93.806588,78.663208 93.101617,78.880179 92.262577,78.828968 C 91.112131,78.758749 90.251461,78.251218 89.680567,77.306373 C 89.317268,76.703534 89.135619,75.999113 89.13562,75.193111 C 89.135619,74.023115 89.498917,73.143958 90.225514,72.555634 C 90.770458,72.112235 91.449479,71.915347 92.262577,71.964968 C 93.447615,72.037304 94.325584,72.554558 94.896486,73.51673 C 95.259777,74.119575 95.441426,74.828328 95.441433,75.642992 M 93.391395,75.530866 C 93.39139,74.67287 93.304891,74.082591 93.131897,73.760027 C 92.898344,73.451111 92.612896,73.273355 92.275552,73.22676 C 91.574903,73.184 91.211605,73.764159 91.185658,74.967237 C 91.185658,74.967237 91.185658,75.175237 91.185658,75.175237 C 91.185655,76.258573 91.34568,76.961672 91.66573,77.284539 C 91.821426,77.450043 92.020375,77.540186 92.262577,77.554968 C 92.989168,77.599317 93.36544,76.998284 93.391395,75.751866 C 93.39139,75.682536 93.39139,75.608869 93.391395,75.530866 M 100.09475,74.19547 C 100.09475,74.19547 99.964781,74.192857 99.964781,74.192857 C 99.124338,74.175967 98.639136,74.64288 98.509175,75.593596 C 98.474515,75.818235 98.457187,76.099554 98.457189,76.437551 C 98.457189,76.437551 98.457189,78.959551 98.457189,78.959551 C 98.457189,78.959551 96.546705,78.921146 96.546705,78.921146 C 96.546705,78.921146 96.546705,77.270146 96.546705,75.619146 C 96.546705,73.968146 96.546705,72.317146 96.546705,72.317146 C 96.546705,72.317146 98.327224,72.352938 98.327224,72.352938 C 98.327224,72.352938 98.327224,73.587938 98.327224,73.587938 C 98.327224,73.587938 98.353217,73.588461 98.353217,73.588461 C 98.60448,72.683518 99.042028,72.237315 99.665862,72.249848 C 99.761166,72.251771 99.904127,72.263311 100.09475,72.28447 C 100.09475,72.28447 100.09475,74.19547 100.09475,74.19547 M 107.43573,78.934958 C 107.43573,78.934958 105.29131,78.978066 105.29131,78.978066 C 105.29131,78.978066 103.90068,76.016021 103.90068,76.016021 C 103.90068,76.016021 102.83497,77.337444 102.83497,77.337444 C 102.83497,77.337444 102.83497,79.027444 102.83497,79.027444 C 102.83497,79.027444 100.92449,79.00915 100.92449,79.00915 C 100.92449,79.00915 100.92449,76.77965 100.92449,74.55015 C 100.92449,72.32065 100.92449,70.09115 100.92449,70.09115 C 100.92449,70.09115 102.83497,70.109444 102.83497,70.109444 C 102.83497,70.109444 102.83497,71.445194 102.83497,72.780944 C 102.83497,74.116694 102.83497,75.452444 102.83497,75.452444 C 103.18154,74.890814 103.96567,73.904387 105.18734,72.493156 C 105.22199,72.449133 105.25665,72.409436 105.29131,72.374066 C 105.29131,72.374066 107.1758,72.336183 107.1758,72.336183 C 107.1758,72.336183 105.29131,74.623066 105.29131,74.623066 C 105.29131,74.623066 107.43573,78.934958 107.43573,78.934958 M 110.10542,71.637444 C 110.10542,71.637444 108.19663,71.717662 108.19663,71.717662 C 108.19663,71.717662 108.19663,69.871662 108.19663,69.871662 C 108.19663,69.871662 110.10542,69.791444 110.10542,69.791444 C 110.10542,69.791444 110.10542,71.637444 110.10542,71.637444 M 110.10542,78.839444 C 110.10542,78.839444 108.19663,78.919662 108.19663,78.919662 C 108.19663,78.919662 108.19663,77.268662 108.19663,75.617662 C 108.19663,73.966662 108.19663,72.315662 108.19663,72.315662 C 108.19663,72.315662 110.10542,72.235444 110.10542,72.235444 C 110.10542,72.235444 110.10542,73.886444 110.10542,75.537444 C 110.10542,77.188444 110.10542,78.839444 110.10542,78.839444 M 117.20685,78.335635 C 117.20685,78.335635 115.30532,78.522064 115.30532,78.522064 C 115.30532,78.522064 115.30532,74.635064 115.30532,74.635064 C 115.30532,73.976402 115.16692,73.577517 114.89012,73.438406 C 114.89012,73.438406 114.63062,73.363245 114.63062,73.363245 C 114.63062,73.363245 114.436,73.362124 114.436,73.362124 C 113.75265,73.403838 113.41098,73.979358 113.41098,75.088687 C 113.41098,75.088687 113.41098,78.637687 113.41098,78.637687 C 113.41098,78.637687 111.50367,78.754101 111.50367,78.754101 C 111.50367,78.754101 111.50367,77.103101 111.50367,75.452101 C 111.50367,73.801101 111.50367,72.150101 111.50367,72.150101 C 111.50367,72.150101 113.30718,72.040022 113.30718,72.040022 C 113.30718,72.040022 113.30718,73.158022 113.30718,73.158022 C 113.30718,73.158022 113.33313,73.156438 113.33313,73.156438 C 113.67048,72.399187 114.18515,71.960442 114.87715,71.840198 C 114.9896,71.816008 115.10637,71.800214 115.22747,71.792816 C 116.23951,71.731052 116.85775,72.079848 117.09049,72.939704 C 117.16807,73.25233 117.20685,73.659973 117.20685,74.162635 C 117.20685,74.162635 117.20685,78.335635 117.20685,78.335635 M 125.11805,70.938583 C 124.84429,70.939626 124.67765,70.946136 124.61756,70.954415 C 124.2398,71.006503 123.99941,71.182645 123.89639,71.482842 C 123.87922,71.528549 123.86634,71.577992 123.85776,71.631168 C 124.19257,72.001012 124.36428,72.40634 124.37288,72.847149 C 124.37287,73.653154 123.96506,74.290044 123.14948,74.75782 C 122.72878,75.00649 122.26518,75.165741 121.75866,75.235572 C 121.65563,75.24978 121.18998,75.26186 120.3625,75.278347 C 120.147,75.422033 120.03925,75.593542 120.03926,75.792872 C 120.03925,76.044208 120.16424,76.200244 120.41421,76.260983 C 120.66418,76.321725 121.24784,76.328668 122.15788,76.220532 C 123.23961,76.097394 123.98653,76.133083 124.39863,76.327598 C 124.85364,76.550867 125.07955,76.959491 125.07956,77.574822 C 125.07955,78.727489 124.22262,79.54553 122.50558,80.007594 C 122.13641,80.11049 121.73303,80.1932 121.29343,80.238795 C 119.35398,80.439944 118.24635,80.182155 117.97052,79.465431 C 117.92741,79.339901 117.90587,79.203468 117.90587,79.056136 C 117.90587,78.553469 118.17307,78.161756 118.70751,77.880994 C 118.81094,77.826934 118.92299,77.780645 119.04368,77.742129 C 118.48339,77.51424 118.20325,77.148961 118.20325,76.646293 C 118.20325,76.065628 118.58252,75.562627 119.34106,75.137286 C 119.40139,75.105031 119.46173,75.072773 119.52207,75.040512 C 118.81525,74.845157 118.43167,74.408273 118.37134,73.72986 C 118.36271,73.670093 118.35841,73.609872 118.35841,73.549201 C 118.35841,72.647873 118.8799,71.974121 119.92289,71.527941 C 120.36249,71.343688 120.8452,71.22429 121.37101,71.169749 C 121.99162,71.105389 122.56996,71.111058 123.11084,71.227146 C 123.1881,70.601169 123.40273,70.18591 123.75474,69.981372 C 123.95218,69.867491 124.23121,69.785689 124.5918,69.735966 C 124.5918,69.735966 125.11805,69.703583 125.11805,69.703583 C 125.11805,69.703583 125.11805,70.938583 125.11805,70.938583 M 122.47982,73.056145 C 122.47981,72.588151 122.24372,72.317368 121.77154,72.243796 C 121.64275,72.218225 121.50029,72.209346 121.34515,72.225431 C 120.86243,72.275501 120.53919,72.499692 120.37543,72.898006 C 120.3237,73.033376 120.29784,73.174724 120.29785,73.322052 C 120.29784,73.842057 120.53057,74.138585 120.99605,74.211638 C 121.1081,74.22602 121.22446,74.226951 121.34515,74.214431 C 121.87957,74.159007 122.23085,73.909476 122.40256,73.495798 C 122.45406,73.358701 122.47981,73.21215 122.47982,73.056145 M 123.27825,78.172065 C 123.27824,77.894732 123.04644,77.775025 122.58285,77.812941 C 122.58285,77.812941 120.0134,78.005554 120.0134,78.005554 C 119.73756,78.138162 119.59964,78.330133 119.59965,78.581466 C 119.59964,79.040799 120.21595,79.197877 121.44858,79.052703 C 121.57787,79.039293 121.65114,79.031693 121.66839,79.029906 C 122.74584,78.918156 123.27824,78.596732 123.27825,78.172065 M 88.274605,94.669843 C 88.274605,94.669843 86.205867,94.455283 86.205867,94.455283 C 86.205867,94.455283 86.205867,92.638533 86.205867,90.821783 C 86.205867,89.005033 86.205867,87.188283 86.205867,87.188283 C 86.205867,87.188283 86.154148,87.182919 86.154148,87.182919 C 86.154148,87.182919 85.60464,88.942677 85.055131,90.702435 C 84.505622,92.462192 83.956114,94.22195 83.956114,94.22195 C 83.956114,94.22195 82.535595,94.059831 82.535595,94.059831 C 82.535595,94.059831 81.997943,92.168955 81.460291,90.278079 C 80.922639,88.387202 80.384987,86.496326 80.384987,86.496326 C 80.384987,86.496326 80.359231,86.492775 80.359231,86.492775 C 80.359231,86.492775 80.359231,88.309525 80.359231,90.126275 C 80.359231,91.943025 80.359231,93.759775 80.359231,93.759775 C 80.359231,93.759775 78.625749,93.486541 78.625749,93.486541 C 78.625749,93.486541 78.625749,91.257041 78.625749,89.027541 C 78.625749,86.798041 78.625749,84.568541 78.625749,84.568541 C 78.625749,84.568541 81.853067,85.047731 81.853067,85.047731 C 81.853067,85.047731 82.239404,86.436745 82.62574,87.82576 C 83.012077,89.214774 83.40014,90.589287 83.40014,90.589287 C 83.40014,90.589287 83.807423,89.295778 84.214706,88.00227 C 84.621989,86.708761 85.029272,85.415253 85.029272,85.415253 C 85.029272,85.415253 88.274605,85.751843 88.274605,85.751843 C 88.274605,85.751843 88.274605,87.981343 88.274605,90.210843 C 88.274605,92.440343 88.274605,94.669843 88.274605,94.669843 M 95.795651,92.179048 C 95.795651,92.179048 91.565479,91.92942 91.565479,91.92942 C 91.565479,91.92942 91.552504,92.318628 91.552504,92.318628 C 91.552504,92.318628 91.552504,92.331628 91.552504,92.331628 C 91.552501,92.886297 91.764424,93.293565 92.188275,93.553433 C 92.378571,93.669048 92.590494,93.733983 92.824047,93.748237 C 93.23059,93.773052 93.554962,93.63685 93.797166,93.339632 C 93.92691,93.17422 93.991785,92.987513 93.99179,92.779511 C 93.99179,92.779511 95.756662,93.010264 95.756662,93.010264 C 95.756655,93.192266 95.669873,93.423603 95.496881,93.690376 C 95.003828,94.552949 94.255608,95.022947 93.252219,95.100371 C 93.087866,95.11634 92.923516,95.119309 92.759172,95.109278 C 91.626026,95.040115 90.756707,94.579723 90.151212,93.728099 C 89.718714,93.121036 89.502465,92.401504 89.502466,91.569502 C 89.502465,90.39084 89.865763,89.494348 90.59236,88.880025 C 91.154604,88.403015 91.859575,88.190377 92.707272,88.24211 C 93.961509,88.31867 94.852453,88.914716 95.380107,90.030248 C 95.656898,90.627814 95.795644,91.303718 95.795651,92.075048 C 95.795651,92.075048 95.795651,92.179048 95.795651,92.179048 M 93.88799,90.940176 C 93.836086,90.018346 93.468463,89.536575 92.785122,89.494862 C 92.041222,89.449462 91.630351,89.883717 91.552504,90.797628 C 91.552504,90.797628 93.88799,90.940176 93.88799,90.940176 M 106.18066,95.210188 C 106.18066,95.210188 104.27017,95.248593 104.27017,95.248593 C 104.27017,95.248593 104.27017,91.257593 104.27017,91.257593 C 104.27016,90.737597 104.19651,90.405412 104.04923,90.261035 C 103.91059,90.133827 103.69832,90.073094 103.41241,90.078836 C 102.84055,90.090337 102.52431,90.452027 102.46366,91.163908 C 102.45499,91.294087 102.45066,91.502174 102.45067,91.78817 C 102.45067,91.78817 102.45067,95.28517 102.45067,95.28517 C 102.45067,95.28517 100.54018,95.251424 100.54018,95.251424 C 100.54018,95.251424 100.54018,91.299424 100.54018,91.299424 C 100.54018,90.640762 100.37555,90.24312 100.04631,90.106496 C 100.04631,90.106496 99.760391,90.035748 99.760391,90.035748 C 99.760391,90.035748 99.682412,90.034181 99.682412,90.034181 C 99.127892,90.023039 98.815978,90.346101 98.746665,91.00337 C 98.729334,91.133026 98.720669,91.371185 98.720672,91.717848 C 98.720672,91.717848 98.720672,95.214848 98.720672,95.214848 C 98.720672,95.214848 96.810189,95.176442 96.810189,95.176442 C 96.810189,95.176442 96.810189,93.525442 96.810189,91.874442 C 96.810189,90.223442 96.810189,88.572442 96.810189,88.572442 C 96.810189,88.572442 98.629697,88.609019 98.629697,88.609019 C 98.629697,88.609019 98.629697,89.623019 98.629697,89.623019 C 98.629697,89.623019 98.65569,89.623541 98.65569,89.623541 C 98.984932,88.8675 99.595766,88.498446 100.48819,88.516379 C 101.28531,88.53241 101.87448,88.90392 102.25572,89.63091 C 102.27303,89.648597 102.28603,89.670526 102.29471,89.696694 C 102.57195,89.06094 103.09181,88.668288 103.85429,88.548954 C 103.97557,88.529188 104.09688,88.518084 104.21819,88.515638 C 105.33588,88.493177 105.98136,88.978534 106.15467,89.971711 C 106.18065,90.13586 106.19364,90.313265 106.19365,90.503927 C 106.19365,90.503927 106.18066,95.210188 106.18066,95.210188 M 113.49441,91.632595 C 113.4944,92.724597 113.13975,93.612909 112.43046,94.297533 C 111.85956,94.852379 111.15459,95.155407 110.31555,95.206619 C 109.16511,95.276837 108.30314,94.842521 107.7313,93.944016 C 107.3674,93.370667 107.18545,92.680991 107.18545,91.874989 C 107.18545,90.704993 107.54935,89.796346 108.27715,89.149044 C 108.823,88.661411 109.50245,88.392254 110.31555,88.342619 C 111.50059,88.270296 112.37855,88.680375 112.94946,89.572856 C 113.31275,90.131353 113.4944,90.817932 113.49441,91.632595 M 111.44437,91.77072 C 111.44436,90.912725 111.35787,90.333005 111.18487,90.031559 C 110.95132,89.751153 110.66587,89.608241 110.32853,89.602827 C 109.62788,89.645596 109.26458,90.270103 109.23863,91.476349 C 109.23863,91.476349 109.23863,91.684349 109.23863,91.684349 C 109.23863,92.767685 109.39865,93.45125 109.71871,93.735048 C 109.8744,93.881545 110.07335,93.947403 110.31555,93.932619 C 111.04215,93.888271 111.41841,93.241307 111.44437,91.99172 C 111.44436,91.922391 111.44436,91.848724 111.44437,91.77072 M 118.13122,89.692764 C 118.13122,89.692764 118.00193,89.706174 118.00193,89.706174 C 117.16581,89.792897 116.68311,90.319627 116.55381,91.286366 C 116.51933,91.515278 116.50209,91.798733 116.50209,92.13673 C 116.50209,92.13673 116.50209,94.65873 116.50209,94.65873 C 116.50209,94.65873 114.59809,94.815231 114.59809,94.815231 C 114.59809,94.815231 114.59809,93.164231 114.59809,91.513231 C 114.59809,89.862231 114.59809,88.211231 114.59809,88.211231 C 114.59809,88.211231 116.37279,88.06814 116.37279,88.06814 C 116.37279,88.06814 116.37279,89.30314 116.37279,89.30314 C 116.37279,89.30314 116.39865,89.300458 116.39865,89.300458 C 116.64862,88.364538 117.08392,87.864392 117.70455,87.800017 C 117.79936,87.79019 117.94158,87.784105 118.13122,87.781764 C 118.13122,87.781764 118.13122,89.692764 118.13122,89.692764 M 124.312,87.155542 C 124.312,87.155542 123.81298,88.771342 123.31397,90.387141 C 122.81495,92.002941 122.31593,93.618741 122.31593,93.618741 C 122.04978,94.496101 121.87378,95.027366 121.78794,95.212536 C 121.43593,96.015065 120.88752,96.465892 120.14622,96.594777 C 120.0945,96.600139 120.03848,96.60595 119.97814,96.61221 C 119.79712,96.630982 119.39631,96.642219 118.77568,96.645923 C 118.77568,96.645923 118.77568,95.150923 118.77568,95.150923 C 118.77568,95.150923 119.73248,95.142689 119.73248,95.142689 C 120.17208,95.097094 120.46946,94.927585 120.62462,94.63416 C 120.68495,94.523903 120.73667,94.384205 120.77977,94.215068 C 120.77977,94.215068 120.18178,92.62609 119.58379,91.037111 C 118.98579,89.448132 118.3878,87.859153 118.3878,87.859153 C 118.3878,87.859153 120.4436,87.645934 120.4436,87.645934 C 120.4436,87.645934 121.69778,91.441857 121.69778,91.441857 C 121.69778,91.441857 122.89543,87.350845 122.89543,87.350845 C 122.89543,87.350845 124.312,87.155542 124.312,87.155542 M 85.327461,117.94618 C 84.804988,118.72894 84.416706,119.59193 84.162614,120.53515 C 83.922048,121.42816 83.801765,122.39309 83.801766,123.42994 C 83.801765,124.42263 83.923625,125.38641 84.167345,126.32128 C 84.415146,127.27179 84.788921,128.19242 85.288672,129.08316 C 85.288672,129.08316 83.879344,128.93699 83.879344,128.93699 C 83.298405,128.0752 82.853522,127.19108 82.545009,126.28198 C 82.226391,125.34311 82.051816,124.38942 82.021284,123.42092 C 82.021284,123.34292 82.021284,123.26059 82.021284,123.17392 C 82.021284,122.22093 82.151996,121.33102 82.413421,120.50419 C 82.677411,119.66924 83.075119,118.89504 83.607822,118.17083 C 83.702637,118.042 83.801764,117.91795 83.905203,117.79867 C 83.905203,117.79867 85.327461,117.94618 85.327461,117.94618 M 90.580195,119.84528 C 90.087144,119.7892 89.840621,119.76115 89.840624,119.76114 C 89.494623,119.74003 89.299999,119.89716 89.256753,120.23251 C 89.256753,120.23251 89.243778,120.68671 89.243778,120.68671 C 89.243778,120.68671 89.243778,120.82971 89.243778,120.82971 C 89.243778,120.82971 90.411521,120.90099 90.411521,120.90099 C 90.411521,120.90099 90.411521,122.38299 90.411521,122.38299 C 90.411521,122.38299 89.243778,122.31171 89.243778,122.31171 C 89.243778,122.31171 89.243778,127.26471 89.243778,127.26471 C 89.243778,127.26471 87.342662,127.07319 87.342662,127.07319 C 87.342662,127.07319 87.342662,122.12019 87.342662,122.12019 C 87.342662,122.12019 86.579815,122.04107 86.579815,122.04107 C 86.579815,122.04107 86.579815,120.55907 86.579815,120.55907 C 86.579815,120.55907 87.342662,120.63819 87.342662,120.63819 C 87.342661,119.95353 87.38576,119.49 87.471959,119.2476 C 87.515056,119.12208 87.571085,119.01089 87.640044,118.91403 C 87.984832,118.4298 88.521505,118.22464 89.256753,118.21751 C 89.325949,118.21307 89.395149,118.21296 89.464352,118.21718 C 89.464352,118.21718 90.580195,118.37628 90.580195,118.37628 C 90.580195,118.37628 90.580195,119.84528 90.580195,119.84528 M 96.898321,127.67821 C 96.898321,127.67821 95.001806,127.61616 95.001806,127.61616 C 94.932601,127.30861 94.902327,126.99042 94.910981,126.66162 C 94.910977,126.63562 94.910977,126.60962 94.910981,126.58362 C 94.46118,127.20616 93.924884,127.5461 93.302091,127.60342 C 93.146389,127.61991 92.98204,127.62288 92.809044,127.61232 C 91.935397,127.559 91.325577,127.22711 90.979579,126.61666 C 90.81523,126.3293 90.733056,125.99494 90.733056,125.61361 C 90.733056,124.53895 91.386127,123.88114 92.692269,123.6402 C 93.029615,123.58279 93.73891,123.53075 94.820157,123.48407 C 94.820157,123.48407 94.820157,123.32807 94.820157,123.32807 C 94.820153,122.76474 94.694728,122.40176 94.443884,122.23911 C 94.296831,122.15213 94.106533,122.10152 93.872987,122.08726 C 93.328038,122.054 92.97339,122.22302 92.809044,122.59432 C 92.757142,122.70382 92.731192,122.83224 92.731194,122.97957 C 92.731194,122.97957 90.92768,122.70049 90.92768,122.70049 C 91.057429,121.67708 91.723474,121.06773 92.925818,120.87245 C 93.280463,120.81611 93.661061,120.80034 94.067611,120.82514 C 94.975852,120.88059 95.672315,121.11891 96.157521,121.52732 C 96.538745,121.85566 96.742357,122.33642 96.768356,122.9696 C 96.768356,122.9696 96.768356,123.6066 96.768356,123.6066 C 96.768356,123.6066 96.768356,126.6876 96.768356,126.6876 C 96.76835,127.0776 96.811672,127.4078 96.898321,127.67821 M 94.820157,124.44607 C 93.73026,124.50089 93.077189,124.72536 92.860943,125.11949 C 92.791741,125.24527 92.757142,125.38182 92.757144,125.52915 C 92.757142,125.97115 92.943115,126.25984 93.315066,126.39521 C 93.401562,126.42649 93.496712,126.4453 93.600514,126.45163 C 94.162757,126.48595 94.539029,126.19691 94.729332,125.58453 C 94.789877,125.38022 94.820153,125.15674 94.820157,124.91407 C 94.820157,124.91407 94.820157,124.44607 94.820157,124.44607 M 103.89125,125.27321 C 103.79593,126.28913 103.33672,127.03503 102.51362,127.51091 C 102.03707,127.78916 101.49556,127.90063 100.88906,127.88844 C 99.728033,127.8651 98.857269,127.40992 98.276761,126.52292 C 97.895531,125.94326 97.704915,125.25476 97.704916,124.45743 C 97.704915,123.23543 98.09481,122.31161 98.8746,121.68594 C 99.446443,121.22945 100.15692,121.00973 101.00602,121.02679 C 101.95909,121.04596 102.71289,121.37091 103.26742,122.00975 C 103.63131,122.43578 103.83925,122.9516 103.89125,123.55721 C 103.89125,123.55721 102.07174,123.68721 102.07174,123.68721 C 102.07173,123.16721 101.89411,122.80398 101.53888,122.5975 C 101.40025,122.52538 101.24429,122.48758 101.07101,122.4841 C 100.30854,122.46877 99.914316,123.03718 99.888326,124.18932 C 99.888323,124.24132 99.888323,124.29332 99.888326,124.34532 C 99.888323,125.15132 99.996626,125.69083 100.21324,125.96385 C 100.39519,126.19284 100.65511,126.31074 100.99303,126.31753 C 101.48689,126.32746 101.82047,126.07416 101.99376,125.55765 C 102.02841,125.44567 102.0544,125.32486 102.07174,125.19521 C 102.07174,125.19521 103.89125,125.27321 103.89125,125.27321 M 108.9217,127.64209 C 108.44516,127.747 108.04659,127.80268 107.72602,127.80912 C 106.76428,127.82846 106.13611,127.62875 105.84153,127.21001 C 105.60759,126.89404 105.49062,126.33739 105.49062,125.54006 C 105.49062,125.54006 105.49062,122.62806 105.49062,122.62806 C 105.49062,122.62806 104.41192,122.64974 104.41192,122.64974 C 104.41192,122.64974 104.41192,121.12874 104.41192,121.12874 C 104.41192,121.12874 105.5686,121.10549 105.5686,121.10549 C 105.5686,121.10549 105.73756,119.1651 105.73756,119.1651 C 105.73756,119.1651 107.40111,119.00166 107.40111,119.00166 C 107.40111,119.00166 107.40111,121.06866 107.40111,121.06866 C 107.40111,121.06866 108.81773,121.04018 108.81773,121.04018 C 108.81773,121.04018 108.81773,122.56118 108.81773,122.56118 C 108.81773,122.56118 107.40111,122.58966 107.40111,122.58966 C 107.40111,122.58966 107.40111,125.33266 107.40111,125.33266 C 107.40111,125.75733 107.47042,126.02026 107.60905,126.12147 C 107.72168,126.20588 107.9123,126.24538 108.1809,126.23998 C 108.34551,126.23667 108.59245,126.22304 108.9217,126.19909 C 108.9217,126.19909 108.9217,127.64209 108.9217,127.64209 M 115.36868,125.1492 C 115.36867,126.1112 114.88427,126.80376 113.91548,127.22689 C 113.47434,127.42715 112.98129,127.54391 112.43634,127.57718 C 110.9226,127.66957 109.95813,127.2041 109.54293,126.18078 C 109.49969,126.06209 109.46076,125.93879 109.42616,125.8109 C 109.42616,125.8109 111.07398,125.47633 111.07398,125.47633 C 111.16912,125.97319 111.56269,126.2395 112.25469,126.27526 C 112.34119,126.27865 112.43201,126.27744 112.52717,126.27163 C 113.02021,126.24154 113.36621,126.10775 113.56516,125.87028 C 113.64301,125.78753 113.68194,125.68982 113.68194,125.57715 C 113.68194,125.29982 113.49596,125.1335 113.12401,125.0782 C 113.12401,125.0782 112.94237,125.06329 112.94237,125.06329 C 111.92167,124.98692 111.21237,124.86988 110.81448,124.71217 C 110.06193,124.4201 109.68566,123.87974 109.68566,123.09107 C 109.68566,122.10307 110.17438,121.40591 111.15183,120.99958 C 111.55837,120.8361 112.00817,120.73932 112.50122,120.70922 C 113.70355,120.63584 114.5253,121.06234 114.96645,121.98875 C 114.96645,121.98875 115.0962,122.27983 115.0962,122.27983 C 115.0962,122.27983 113.68194,122.74315 113.68194,122.74315 C 113.52624,122.16332 113.09806,121.89479 112.39742,121.93755 C 111.77462,122.01023 111.44592,122.2253 111.41132,122.58274 C 111.41132,122.86008 111.64919,123.03189 112.12494,123.09818 C 112.12494,123.09818 113.65599,123.25173 113.65599,123.25173 C 114.58153,123.40324 115.1308,123.83339 115.3038,124.54216 C 115.34705,124.72152 115.36867,124.92387 115.36868,125.1492 M 119.64904,123.51734 C 119.64904,124.48651 119.49982,125.43979 119.2014,126.37721 C 118.91271,127.284 118.4844,128.17595 117.91647,129.05304 C 117.87337,129.11817 117.83027,129.18331 117.78718,129.24845 C 117.78718,129.24845 116.37785,129.39462 116.37785,129.39462 C 116.87881,128.5061 117.25318,127.58534 117.50097,126.63233 C 117.74349,125.69958 117.86475,124.73594 117.86475,123.7414 C 117.86475,122.70455 117.74447,121.73962 117.5039,120.84661 C 117.24981,119.90339 116.86153,119.0404 116.33906,118.25764 C 116.33906,118.25764 117.76132,118.11013 117.76132,118.11013 C 118.32218,118.77762 118.75804,119.51429 119.0689,120.32016 C 119.37434,121.11198 119.5591,121.97061 119.62318,122.89603 C 119.64042,123.10224 119.64904,123.30934 119.64904,123.51734"
         id="text4629" />
    </g>
    <g
       id="g5679"
       transform="translate(15.076923,35.603668)">
      <rect
         ry="5.0369772e-07"
         y="330"
         x="400"
         height="39.666664"
         width="109.84615"
         id="rect2799"
         style="opacity:1;fill:url(#linearGradient5684);fill-opacity:1;fill-rule:nonzero;stroke:none;stroke-width:0.99999994;stroke-linejoin:round;stroke-miterlimit:4;stroke-dasharray:none;stroke-opacity:1" />
      <text
         id="text2821"
         y="354.39633"
         x="424.95883"
         style="font-size:18px;font-style:normal;font-variant:normal;font-weight:bold;font-stretch:normal;fill:#803300;fill-opacity:1;stroke:none;stroke-width:1px;stroke-linecap:butt;stroke-linejoin:miter;stroke-opacity:1;font-family:UnBom;-inkscape-font-specification:UnBom Bold"
         xml:space="preserve"><tspan
           y="354.39633"
           x="424.95883"
           id="tspan2823"
           sodipodi:role="line">Agenda</tspan></text>
    </g>
    <g
       id="g5639"
       transform="translate(10,15)">
      <rect
         ry="7.6189576e-07"
         y="220"
         x="390"
         height="80"
         width="140"
         id="rect2797"
         style="fill:url(#linearGradient5635);fill-opacity:1;fill-rule:nonzero;stroke:none;stroke-width:1;stroke-linejoin:round;stroke-miterlimit:4;stroke-dasharray:none;stroke-opacity:1" />
      <text
         id="text2815"
         y="254.834"
         x="459.5036"
         style="font-size:18px;font-style:normal;font-variant:normal;font-weight:bold;font-stretch:normal;text-align:center;text-anchor:middle;fill:#800066;fill-opacity:1;stroke:none;stroke-width:1px;stroke-linecap:butt;stroke-linejoin:miter;stroke-opacity:1;font-family:UnBom;-inkscape-font-specification:UnBom Bold"
         xml:space="preserve"><tspan
           y="254.834"
           x="459.5036"
           id="tspan2817"
           sodipodi:role="line"
           style="fill:#800066;fill-opacity:1">Pattern</tspan><tspan
           id="tspan2819"
           y="277.33398"
           x="459.5036"
           sodipodi:role="line"
           style="fill:#800066;fill-opacity:1">Matcher</tspan></text>
    </g>
    <path
       style="fill:none;fill-rule:evenodd;stroke:#a0a0a0;stroke-width:6.80000019;stroke-linecap:butt;stroke-linejoin:miter;marker-end:url(#Arrow2Send);stroke-miterlimit:4;stroke-dasharray:none;stroke-opacity:1"
       d="M 300,275 L 400,275"
       id="path5734"
       inkscape:connector-type="polyline"
       inkscape:connection-start="#g2729"
       inkscape:connection-end="#g5639" />
    <path
       style="fill:none;fill-rule:evenodd;stroke:#a0a0a0;stroke-width:6.80000019;stroke-linecap:butt;stroke-linejoin:miter;marker-end:url(#Arrow2Send);stroke-miterlimit:4;stroke-dasharray:none;stroke-opacity:1"
       d="M 640,275 L 540,275"
       id="path5736"
       inkscape:connector-type="polyline"
       inkscape:connection-start="#g2790"
       inkscape:connection-end="#g5639" />
    <path
       style="fill:none;fill-rule:evenodd;stroke:#a0a0a0;stroke-width:6.80000019;stroke-linecap:butt;stroke-linejoin:miter;marker-end:url(#Arrow2Send);stroke-miterlimit:4;stroke-dasharray:none;stroke-opacity:1"
       d="M 470,315 L 470,365.60367"
       id="path11858"
       inkscape:connector-type="polyline"
       inkscape:connection-start="#g5639"
       inkscape:connection-end="#g5679" />
  </g>
</svg>
