<?xml version="1.0" encoding="UTF-8" standalone="no"?>
<!DOCTYPE svg PUBLIC "-//W3C//DTD SVG 1.0//EN" "http://www.w3.org/TR/2001/REC-SVG-20010904/DTD/svg10.dtd">
<!-- Generated by Microsoft Visio 11.0, SVG Export, v1.0 prefixOr.svg Page-1 -->
<svg xmlns="http://www.w3.org/2000/svg" xmlns:v="http://schemas.microsoft.com/visio/2003/SVGExtensions/" width="4.81213in"
		height="0.474097in" viewBox="0 0 346.474 34.135" xml:space="preserve" color-interpolation-filters="sRGB" class="st7">
	<v:documentProperties v:langID="1033" v:metric="true" v:viewMarkup="false"/>

	<style type="text/css">
	<![CDATA[
		.st1 {fill:#e8eef7;stroke:#000000;stroke-linecap:round;stroke-linejoin:round;stroke-width:0.24}
		.st2 {fill:#000000;font-family:Arial;font-size:0.666664em}
		.st3 {font-size:1em}
		.st4 {fill:#000000;font-family:Arial;font-size:0.666664em;font-style:italic}
		.st5 {marker-end:url(#mrkr2-19);stroke:#4677bf;stroke-linecap:round;stroke-linejoin:round;stroke-width:0.24}
		.st6 {fill:#4677bf;fill-opacity:1;stroke:#4677bf;stroke-opacity:1;stroke-width:0.08695652173913}
		.st7 {fill:none;fill-rule:evenodd;font-size:12;overflow:visible;stroke-linecap:square;stroke-miterlimit:3}
	]]>
	</style>

	<defs id="Markers">
		<g id="lend2">
			<path d="M 1 1 L 0 0 L 1 -1 L 1 1 " style="stroke:none"/>
		</g>
		<marker id="mrkr2-19" class="st6" v:arrowType="2" v:arrowSize="2" v:setback="11.5" refX="-11.5" orient="auto"
				markerUnits="strokeWidth">
			<use xlink:href="#lend2" transform="scale(-11.5,-11.5) "/>
		</marker>
	</defs>
	<g v:mID="0" v:index="1" v:groupContext="foregroundPage">
		<title>Page-1</title>
		<v:pageProperties v:drawingScale="0.0393701" v:pageScale="0.0393701" v:drawingUnits="24" v:shadowOffsetX="8.50394"
				v:shadowOffsetY="-8.50394"/>
		<v:layer v:name="Flowchart" v:index="0"/>
		<v:layer v:name="Connector" v:index="1"/>
		<g id="shape121-1" v:mID="121" v:groupContext="shape" v:layerMember="0" transform="translate(120.712,-2.13018)">
			<title>Process.121</title>
			<desc>‘(’</desc>
			<v:custProps>
				<v:cp v:nameU="Cost" v:lbl="Cost" v:type="7" v:format="@" v:langID="1033"/>
				<v:cp v:nameU="Duration" v:lbl="Duration" v:type="2" v:langID="1033"/>
				<v:cp v:nameU="Resources" v:lbl="Resources" v:langID="1033"/>
			</v:custProps>
			<v:userDefs>
				<v:ud v:nameU="visVersion" v:val="VT0(11):26"/>
			</v:userDefs>
			<v:textBlock v:margins="rect(2,2,2,2)" v:tabSpace="42.5197"/>
			<v:textRect cx="9.49589" cy="27.4652" width="19" height="13.3396"/>
			<rect x="0" y="20.7954" width="18.9918" height="13.3396" rx="2.83465" ry="2.83465" class="st1"/>
			<text x="6.39" y="29.87" class="st2" v:langID="1033"><v:paragraph v:horizAlign="1"/><v:tabList/>‘<tspan class="st3"
						v:langID="2057">(</tspan>’</text>		</g>
		<g id="shape122-5" v:mID="122" v:groupContext="shape" v:layerMember="0" transform="translate(156.146,-2.13018)">
			<title>Process.122</title>
			<desc>‘or’</desc>
			<v:custProps>
				<v:cp v:nameU="Cost" v:lbl="Cost" v:type="7" v:format="@" v:langID="1033"/>
				<v:cp v:nameU="Duration" v:lbl="Duration" v:type="2" v:langID="1033"/>
				<v:cp v:nameU="Resources" v:lbl="Resources" v:langID="1033"/>
			</v:custProps>
			<v:userDefs>
				<v:ud v:nameU="visVersion" v:val="VT0(11):26"/>
			</v:userDefs>
			<v:textBlock v:margins="rect(2,2,2,2)" v:tabSpace="42.5197"/>
			<v:textRect cx="11.9052" cy="27.4652" width="23.82" height="13.3396"/>
			<rect x="0" y="20.7954" width="23.8103" height="13.3396" rx="2.83465" ry="2.83465" class="st1"/>
			<text x="6.57" y="29.87" class="st2" v:langID="1033"><v:paragraph v:horizAlign="1"/><v:tabList/>‘<tspan class="st3"
						v:langID="2057">or</tspan>’</text>		</g>
		<g id="shape123-9" v:mID="123" v:groupContext="shape" v:layerMember="0" transform="translate(212.838,-2.13018)">
			<title>Process.123</title>
			<desc>CE</desc>
			<v:custProps>
				<v:cp v:nameU="Cost" v:lbl="Cost" v:type="7" v:format="@" v:langID="1033"/>
				<v:cp v:nameU="Duration" v:lbl="Duration" v:type="2" v:langID="1033"/>
				<v:cp v:nameU="Resources" v:lbl="Resources" v:langID="1033"/>
			</v:custProps>
			<v:userDefs>
				<v:ud v:nameU="visVersion" v:val="VT0(11):26"/>
			</v:userDefs>
			<v:textBlock v:margins="rect(2,2,2,2)" v:tabSpace="42.5197"/>
			<v:textRect cx="21.4689" cy="27.4652" width="42.94" height="13.3396"/>
			<rect x="0" y="20.7954" width="42.9378" height="13.3396" rx="2.83465" ry="2.83465" class="st1"/>
			<text x="15.92" y="29.87" class="st4" v:langID="2057"><v:paragraph v:horizAlign="1"/><v:tabList/>CE</text>		</g>
		<g id="shape124-12" v:mID="124" v:groupContext="shape" v:layerMember="1;0" transform="translate(0.24,-2.96391)">
			<title>On-page reference.124</title>
			<v:userDefs>
				<v:ud v:nameU="visVersion" v:val="VT0(11):26"/>
			</v:userDefs>
			<v:textBlock v:margins="rect(2,2,2,2)" v:tabSpace="42.5197"/>
			<path d="M0 28.3 A5.83609 5.83609 0 1 1 11.67 28.3 A5.83609 5.83609 0 0 1 0 28.3 Z" class="st1"/>
		</g>
		<g id="shape140-14" v:mID="140" v:groupContext="shape" v:layerMember="1" transform="translate(11.9122,-1.71339)">
			<title>Dynamic connector.140</title>
			<path d="M0 27.05 L106.04 27.05" class="st5"/>
		</g>
		<g id="shape141-20" v:mID="141" v:groupContext="shape" v:layerMember="1" transform="translate(139.704,-1.71339)">
			<title>Dynamic connector.141</title>
			<path d="M0 27.05 L13.68 27.05" class="st5"/>
		</g>
		<g id="shape142-25" v:mID="142" v:groupContext="shape" v:layerMember="1" transform="translate(179.956,-1.71339)">
			<title>Dynamic connector.142</title>
			<path d="M0 27.05 L30.12 27.05" class="st5"/>
		</g>
		<g id="shape143-30" v:mID="143" v:groupContext="shape" v:layerMember="1" transform="translate(255.776,-1.71339)">
			<title>Dynamic connector.143</title>
			<path d="M0 27.05 L5.31 27.05 A5.31496 5.31496 -180 0 0 10.63 21.73 L10.63 16.48 A5.66929 5.66929 -180 0 0 4.96 10.81
						 L-47.9 10.81 A5.66929 5.66929 -180 0 0 -53.57 16.48 L-53.57 21.73 A5.31496 5.31496 -180 0 0 -48.25 27.05
						 L-45.7 27.05" class="st5"/>
		</g>
		<g id="shape144-35" v:mID="144" v:groupContext="shape" v:layerMember="0" transform="translate(290.791,-2.13018)">
			<title>Process.144</title>
			<desc>‘)’</desc>
			<v:custProps>
				<v:cp v:nameU="Cost" v:lbl="Cost" v:type="7" v:format="@" v:langID="1033"/>
				<v:cp v:nameU="Duration" v:lbl="Duration" v:type="2" v:langID="1033"/>
				<v:cp v:nameU="Resources" v:lbl="Resources" v:langID="1033"/>
			</v:custProps>
			<v:userDefs>
				<v:ud v:nameU="visVersion" v:val="VT0(11):26"/>
			</v:userDefs>
			<v:textBlock v:margins="rect(2,2,2,2)" v:tabSpace="42.5197"/>
			<v:textRect cx="9.49589" cy="27.4652" width="19" height="13.3396"/>
			<rect x="0" y="20.7954" width="18.9918" height="13.3396" rx="2.83465" ry="2.83465" class="st1"/>
			<text x="6.39" y="29.87" class="st2" v:langID="1033"><v:paragraph v:horizAlign="1"/><v:tabList/>‘<tspan class="st3"
						v:langID="2057">)</tspan>’</text>		</g>
		<g id="shape145-39" v:mID="145" v:groupContext="shape" v:layerMember="1;0" transform="translate(334.561,-2.96391)">
			<title>On-page reference.145</title>
			<v:userDefs>
				<v:ud v:nameU="visVersion" v:val="VT0(11):26"/>
			</v:userDefs>
			<v:textBlock v:margins="rect(2,2,2,2)" v:tabSpace="42.5197"/>
			<path d="M0 28.3 A5.83609 5.83609 0 1 1 11.67 28.3 A5.83609 5.83609 0 0 1 0 28.3 Z" class="st1"/>
		</g>
		<g id="shape146-41" v:mID="146" v:groupContext="shape" v:layerMember="1" transform="translate(255.776,-1.71339)">
			<title>Dynamic connector.146</title>
			<path d="M0 27.05 L32.25 27.05" class="st5"/>
		</g>
		<g id="shape147-46" v:mID="147" v:groupContext="shape" v:layerMember="1" transform="translate(309.783,-1.71339)">
			<title>Dynamic connector.147</title>
			<path d="M0 27.05 L22.02 27.05" class="st5"/>
		</g>
		<g id="shape148-51" v:mID="148" v:groupContext="shape" v:layerMember="0" transform="translate(37.7568,-20.5554)">
			<title>Process.148</title>
			<desc>patternBinding</desc>
			<v:custProps>
				<v:cp v:nameU="Cost" v:lbl="Cost" v:type="7" v:format="@" v:langID="1033"/>
				<v:cp v:nameU="Duration" v:lbl="Duration" v:type="2" v:langID="1033"/>
				<v:cp v:nameU="Resources" v:lbl="Resources" v:langID="1033"/>
			</v:custProps>
			<v:userDefs>
				<v:ud v:nameU="visVersion" v:val="VT0(11):26"/>
			</v:userDefs>
			<v:textBlock v:margins="rect(2,2,2,2)" v:tabSpace="42.5197"/>
			<v:textRect cx="27.8469" cy="27.4652" width="55.7" height="13.3396"/>
			<rect x="0" y="20.7954" width="55.6937" height="13.3396" rx="2.83465" ry="2.83465" class="st1"/>
			<text x="2.05" y="29.87" class="st4" v:langID="2057"><v:paragraph v:horizAlign="1"/><v:tabList/>patternBinding</text>		</g>
		<g id="shape149-54" v:mID="149" v:groupContext="shape" v:layerMember="1" transform="translate(11.9122,-8.8)">
			<title>Dynamic connector.149</title>
			<path d="M0 34.14 L5.31 34.14 A5.31496 5.31496 -180 0 0 10.63 28.82 L10.63 21.38 A5.66929 5.66929 0 0 1 16.3 15.71 L23.08
						 15.71" class="st5"/>
		</g>
		<g id="shape150-59" v:mID="150" v:groupContext="shape" v:layerMember="1" transform="translate(93.4505,-27.2252)">
			<title>Dynamic connector.150</title>
			<path d="M0 34.14 L6.17 34.14 A5.66929 5.66929 0 0 1 11.84 39.8 L11.84 46.89 A5.66929 5.66929 -180 0 0 17.51 52.56 L24.5
						 52.56" class="st5"/>
		</g>
	</g>
</svg>
