<?xml version="1.0" encoding="UTF-8" standalone="no"?>
<!DOCTYPE svg PUBLIC "-//W3C//DTD SVG 1.0//EN" "http://www.w3.org/TR/2001/REC-SVG-20010904/DTD/svg10.dtd">
<!-- Generated by Microsoft Visio 11.0, SVG Export, v1.0 restriction.svg Page-1 -->
<svg xmlns="http://www.w3.org/2000/svg" xmlns:v="http://schemas.microsoft.com/visio/2003/SVGExtensions/" width="2.33093in"
		height="0.93203in" viewBox="0 0 167.827 67.1061" xml:space="preserve" color-interpolation-filters="sRGB" class="st5">
	<v:documentProperties v:langID="1033" v:metric="true" v:viewMarkup="false"/>

	<style type="text/css">
	<![CDATA[
		.st1 {fill:#e8eef7;stroke:#000000;stroke-linecap:round;stroke-linejoin:round;stroke-width:0.24}
		.st2 {fill:#000000;font-family:Arial;font-size:0.666664em;font-style:italic}
		.st3 {marker-end:url(#mrkr2-17);stroke:#4677bf;stroke-linecap:round;stroke-linejoin:round;stroke-width:0.24}
		.st4 {fill:#4677bf;fill-opacity:1;stroke:#4677bf;stroke-opacity:1;stroke-width:0.08695652173913}
		.st5 {fill:none;fill-rule:evenodd;font-size:12;overflow:visible;stroke-linecap:square;stroke-miterlimit:3}
	]]>
	</style>

	<defs id="Markers">
		<g id="lend2">
			<path d="M 1 1 L 0 0 L 1 -1 L 1 1 " style="stroke:none"/>
		</g>
		<marker id="mrkr2-17" class="st4" v:arrowType="2" v:arrowSize="2" v:setback="11.5" refX="-11.5" orient="auto"
				markerUnits="strokeWidth">
			<use xlink:href="#lend2" transform="scale(-11.5,-11.5) "/>
		</marker>
	</defs>
	<g v:mID="0" v:index="1" v:groupContext="foregroundPage">
		<title>Page-1</title>
		<v:pageProperties v:drawingScale="0.0393701" v:pageScale="0.0393701" v:drawingUnits="24" v:shadowOffsetX="8.50394"
				v:shadowOffsetY="-8.50394"/>
		<v:layer v:name="Connector" v:index="0"/>
		<v:layer v:name="Flowchart" v:index="1"/>
		<g id="shape63-1" v:mID="63" v:groupContext="shape" v:layerMember="0;1" transform="translate(156.122,-54.2872)">
			<title>On-page reference.63</title>
			<v:userDefs>
				<v:ud v:nameU="visVersion" v:val="VT0(11):26"/>
			</v:userDefs>
			<v:textBlock v:margins="rect(2,2,2,2)" v:tabSpace="42.5197"/>
			<path d="M0 61.37 A5.73228 5.73228 0 0 1 11.46 61.37 A5.73228 5.73228 0 1 1 0 61.37 Z" class="st1"/>
		</g>
		<g id="shape70-3" v:mID="70" v:groupContext="shape" v:layerMember="1" transform="translate(36.3498,-53.4683)">
			<title>Process.70</title>
			<desc>singleValueRestrion</desc>
			<v:custProps>
				<v:cp v:nameU="Cost" v:lbl="Cost" v:type="7" v:format="@" v:langID="1033"/>
				<v:cp v:nameU="Duration" v:lbl="Duration" v:type="2" v:langID="1033"/>
				<v:cp v:nameU="Resources" v:lbl="Resources" v:langID="1033"/>
			</v:custProps>
			<v:userDefs>
				<v:ud v:nameU="visVersion" v:val="VT0(11):26"/>
			</v:userDefs>
			<v:textBlock v:margins="rect(2,2,2,2)" v:tabSpace="42.5197"/>
			<v:textRect cx="47.5636" cy="60.555" width="95.13" height="13.1024"/>
			<rect x="0" y="54.0038" width="95.1273" height="13.1024" rx="2.83465" ry="2.83465" class="st1"/>
			<text x="12" y="62.95" class="st2" v:langID="2057"><v:paragraph v:horizAlign="1"/><v:tabList/>singleValueRestrion</text>		</g>
		<g id="shape116-6" v:mID="116" v:groupContext="shape" v:layerMember="1" transform="translate(35.6093,-26.8542)">
			<title>Process.116</title>
			<desc>compoundValueRestrion</desc>
			<v:custProps>
				<v:cp v:nameU="Cost" v:lbl="Cost" v:type="7" v:format="@" v:langID="1033"/>
				<v:cp v:nameU="Duration" v:lbl="Duration" v:type="2" v:langID="1033"/>
				<v:cp v:nameU="Resources" v:lbl="Resources" v:langID="1033"/>
			</v:custProps>
			<v:userDefs>
				<v:ud v:nameU="visVersion" v:val="VT0(11):26"/>
			</v:userDefs>
			<v:textBlock v:margins="rect(2,2,2,2)" v:tabSpace="42.5197"/>
			<v:textRect cx="47.5636" cy="60.555" width="95.13" height="13.1024"/>
			<rect x="0" y="54.0038" width="95.1273" height="13.1024" rx="2.83465" ry="2.83465" class="st1"/>
			<text x="3.77" y="62.95" class="st2" v:langID="2057"><v:paragraph v:horizAlign="1"/><v:tabList/>compoundValueRestrion</text>		</g>
		<g id="shape117-9" v:mID="117" v:groupContext="shape" v:layerMember="1" transform="translate(35.6093,-0.24)">
			<title>Process.117</title>
			<desc>multiRestriction</desc>
			<v:custProps>
				<v:cp v:nameU="Cost" v:lbl="Cost" v:type="7" v:format="@" v:langID="1033"/>
				<v:cp v:nameU="Duration" v:lbl="Duration" v:type="2" v:langID="1033"/>
				<v:cp v:nameU="Resources" v:lbl="Resources" v:langID="1033"/>
			</v:custProps>
			<v:userDefs>
				<v:ud v:nameU="visVersion" v:val="VT0(11):26"/>
			</v:userDefs>
			<v:textBlock v:margins="rect(2,2,2,2)" v:tabSpace="42.5197"/>
			<v:textRect cx="47.5636" cy="60.555" width="95.13" height="13.1024"/>
			<rect x="0" y="54.0038" width="95.1273" height="13.1024" rx="2.83465" ry="2.83465" class="st1"/>
			<text x="20.24" y="62.95" class="st2" v:langID="2057"><v:paragraph v:horizAlign="1"/><v:tabList/>multiRestriction</text>		</g>
		<g id="shape124-12" v:mID="124" v:groupContext="shape" v:layerMember="0" transform="translate(11.7046,-60.0195)">
			<title>Dynamic connector.124</title>
			<path d="M0 67.11 L7.5 67.11 A5.66929 5.66929 0 0 1 13.17 72.78 L13.17 114.97 A5.36783 5.36783 -180 0 0 18.54 120.33
						 L21.14 120.33" class="st3"/>
		</g>
		<g id="shape138-18" v:mID="138" v:groupContext="shape" v:layerMember="0" transform="translate(11.7046,-60.0195)">
			<title>Dynamic connector.138</title>
			<path d="M0 67.11 L7.4 67.11 A5.66929 5.66929 0 0 1 13.07 72.78 L13.07 88.3 A5.41668 5.41668 -180 0 0 18.49 93.72 L21.14
						 93.72" class="st3"/>
		</g>
		<g id="shape139-23" v:mID="139" v:groupContext="shape" v:layerMember="0" transform="translate(11.7046,-52.9329)">
			<title>Dynamic connector.139</title>
			<path d="M0 60.02 L21.89 60.02" class="st3"/>
		</g>
		<g id="shape140-28" v:mID="140" v:groupContext="shape" v:layerMember="0" transform="translate(131.477,-67.1061)">
			<title>Dynamic connector.140</title>
			<path d="M0 74.19 L21.89 74.19" class="st3"/>
		</g>
		<g id="shape141-33" v:mID="141" v:groupContext="shape" v:layerMember="0" transform="translate(130.737,-33.4054)">
			<title>Dynamic connector.141</title>
			<path d="M0 67.11 L5.31 67.11 A5.31496 5.31496 -180 0 0 10.63 61.79 L10.63 46.16 A5.66929 5.66929 0 0 1 16.3 40.49 L22.63
						 40.49" class="st3"/>
		</g>
		<g id="shape142-38" v:mID="142" v:groupContext="shape" v:layerMember="0" transform="translate(130.737,-6.79118)">
			<title>Dynamic connector.142</title>
			<path d="M0 67.11 L5.31 67.11 A5.31496 5.31496 -180 0 0 10.63 61.79 L10.63 19.55 A5.66929 5.66929 0 0 1 16.3 13.88 L22.63
						 13.88" class="st3"/>
		</g>
		<g id="shape143-43" v:mID="143" v:groupContext="shape" v:layerMember="0;1" transform="translate(0.24,-54.2872)">
			<title>On-page reference.143</title>
			<v:userDefs>
				<v:ud v:nameU="visVersion" v:val="VT0(11):26"/>
			</v:userDefs>
			<v:textBlock v:margins="rect(2,2,2,2)" v:tabSpace="42.5197"/>
			<path d="M0 61.37 A5.73228 5.73228 0 0 1 11.46 61.37 A5.73228 5.73228 0 1 1 0 61.37 Z" class="st1"/>
		</g>
	</g>
</svg>
