<?xml version="1.0" encoding="UTF-8"?>
<!-- Generated by Microsoft Visio 11.0, SVG Export, v1.0 rule.svg Page-1 --><svg xmlns="http://www.w3.org/2000/svg" xmlns:v="http://schemas.microsoft.com/visio/2003/SVGExtensions/" xmlns:xlink="http://www.w3.org/1999/xlink" width="1.73077in" height="3.19794in" viewBox="0 0 124.616 230.252" xml:space="preserve" color-interpolation-filters="sRGB" class="st7" preserveAspectRatio="xMidYMid meet" zoomAndPan="magnify" version="1.0" contentScriptType="text/ecmascript" contentStyleType="text/css">
	<v:documentProperties v:langID="1033" v:metric="true" v:viewMarkup="false"/>

	<style type="text/css" xml:space="preserve">
	
		.st1 {marker-end:url(#mrkr2-6);stroke:#4677bf;stroke-linecap:round;stroke-linejoin:round;stroke-width:0.24}
		.st2 {fill:#4677bf;fill-opacity:1;stroke:#4677bf;stroke-opacity:1;stroke-width:0.08695652173913}
		.st3 {fill:#e8eef7;stroke:#000000;stroke-linecap:round;stroke-linejoin:round;stroke-width:0.24}
		.st4 {fill:#000000;font-family:Arial;font-size:0.666664em}
		.st5 {font-size:1em}
		.st6 {fill:#000000;font-family:Arial;font-size:0.666664em;font-style:italic}
		.st7 {fill:none;fill-rule:evenodd;font-size:12;overflow:visible;stroke-linecap:square;stroke-miterlimit:3}
	
	</style>

	<defs id="Markers">
		<g id="lend2">
			<path d="M 1 1 L 0 0 L 1 -1 L 1 1 " style="stroke:none"/>
		</g>
		<marker xmlns="http://www.w3.org/TR/xhtml1/transitional" overflow="visible" id="mrkr2-6" class="st2" v:arrowType="2" v:arrowSize="2" v:setback="11.5" refX="-11.5" orient="auto" markerUnits="strokeWidth" preserveAspectRatio="xMidYMid meet">
			<use xmlns="http://www.w3.org/2000/svg" xlink:href="#lend2" transform="scale(-11.5,-11.5) " xlink:type="simple" xlink:show="embed" xlink:actuate="onLoad"/>
		</marker>
	</defs>
	<g v:mID="0" v:index="1" v:groupContext="foregroundPage">
		<title content="structured text">Page-1</title>
		<v:pageProperties v:drawingScale="0.0393701" v:pageScale="0.0393701" v:drawingUnits="24" v:shadowOffsetX="8.50394" v:shadowOffsetY="-8.50394"/>
		<v:layer v:name="Connector" v:index="0"/>
		<v:layer v:name="Flowchart" v:index="1"/>
		<g id="shape2-1" v:mID="2" v:groupContext="shape" v:layerMember="0" transform="translate(61.8374,-205.988)">
			<title content="structured text">Dynamic connector.4</title>
			<path d="M0.15 237.1 L6.96 237.1 L6.96 237.57 L11.26 237.57" class="st1"/>
		</g>
		<g id="shape3-7" v:mID="3" v:groupContext="shape" v:layerMember="1" transform="translate(28.9186,-192.523)">
			<title content="structured text">Process.1</title>
			<desc content="structured text">‘rule’</desc>
			<v:custProps>
				<v:cp v:nameU="Cost" v:lbl="Cost" v:type="7" v:format="@" v:langID="1033"/>
				<v:cp v:nameU="Duration" v:lbl="Duration" v:type="2" v:langID="1033"/>
				<v:cp v:nameU="Resources" v:lbl="Resources" v:langID="1033"/>
			</v:custProps>
			<v:userDefs>
				<v:ud v:nameU="visVersion" v:val="VT0(11):26"/>
			</v:userDefs>
			<v:textBlock v:margins="rect(2,2,2,2)" v:tabSpace="42.5197"/>
			<v:textRect cx="16.5354" cy="223.637" width="33.08" height="13.2283"/>
			<rect x="0" y="217.023" width="33.0709" height="13.2283" rx="2.83465" ry="2.83465" class="st3"/>
			<text x="8.08" y="226.04" class="st4" v:langID="1033"><v:paragraph v:horizAlign="1"/><v:tabList/>‘<tspan class="st5" v:langID="2057">rule</tspan>’</text>		</g>
		<g id="shape4-11" v:mID="4" v:groupContext="shape" v:layerMember="1" transform="translate(49.8906,-163.705)">
			<title content="structured text">Process.4</title>
			<desc content="structured text">attributes</desc>
			<v:custProps>
				<v:cp v:nameU="Cost" v:lbl="Cost" v:type="7" v:format="@" v:langID="1033"/>
				<v:cp v:nameU="Duration" v:lbl="Duration" v:type="2" v:langID="1033"/>
				<v:cp v:nameU="Resources" v:lbl="Resources" v:langID="1033"/>
			</v:custProps>
			<v:userDefs>
				<v:ud v:nameU="visVersion" v:val="VT0(11):26"/>
			</v:userDefs>
			<v:textBlock v:margins="rect(2,2,2,2)" v:tabSpace="42.5197"/>
			<v:textRect cx="22.6329" cy="223.637" width="45.27" height="13.2283"/>
			<rect x="0" y="217.023" width="45.2657" height="13.2283" rx="2.83465" ry="2.83465" class="st3"/>
			<text x="6.17" y="226.04" class="st6" v:langID="2057"><v:paragraph v:horizAlign="1"/><v:tabList/>attribute<tspan class="st5" v:langID="1033">s</tspan></text>		</g>
		<g id="shape7-15" v:mID="7" v:groupContext="shape" v:layerMember="0" transform="translate(108.929,-198.665)">
			<title content="structured text">Dynamic connector.3</title>
			<path d="M0 230.25 L6.11 230.25 A5.66929 5.66929 0 0 1 11.78 235.92 L11.78 238.76 A5.66929 5.66929 0 0 1 6.11 244.42        L-67.23 244.42 A5.66929 5.66929 -180 0 0 -72.9 250.09 L-72.9 252.93 A5.66929 5.66929 -180 0 0 -67.23 258.6        L-61.8 258.6" class="st1"/>
		</g>
		<g id="shape9-20" v:mID="9" v:groupContext="shape" v:layerMember="1" transform="translate(28.5865,-21.9723)">
			<title content="structured text">Process.58</title>
			<desc content="structured text">‘end’</desc>
			<v:custProps>
				<v:cp v:nameU="Cost" v:lbl="Cost" v:type="7" v:format="@" v:langID="1033"/>
				<v:cp v:nameU="Duration" v:lbl="Duration" v:type="2" v:langID="1033"/>
				<v:cp v:nameU="Resources" v:lbl="Resources" v:langID="1033"/>
			</v:custProps>
			<v:userDefs>
				<v:ud v:nameU="visVersion" v:val="VT0(11):26"/>
			</v:userDefs>
			<v:textBlock v:margins="rect(2,2,2,2)" v:tabSpace="42.5197"/>
			<v:textRect cx="20.6693" cy="223.637" width="41.34" height="13.2283"/>
			<rect x="0" y="217.023" width="41.3386" height="13.2283" rx="2.83465" ry="2.83465" class="st3"/>
			<text x="12.22" y="226.04" class="st4" v:langID="1033"><v:paragraph v:horizAlign="1"/><v:tabList/>‘<tspan class="st5" v:langID="2057">end</tspan>’</text>		</g>
		<g id="shape11-24" v:mID="11" v:groupContext="shape" v:layerMember="0" transform="translate(95.1563,-163.232)">
			<title content="structured text">Dynamic connector.60</title>
			<path d="M0 223.17 L12.8 223.17 A5.66929 5.66929 -180 0 0 18.47 217.5 L18.47 214.66 A5.66929 5.66929 -180 0 0 12.8 208.99        L-53.46 208.99 A5.66929 5.66929 -180 0 0 -59.13 214.66 L-59.13 217.5 A5.66929 5.66929 -180 0 0 -53.46 223.17        L-48.03 223.17" class="st1"/>
		</g>
		<g id="shape12-29" v:mID="12" v:groupContext="shape" v:layerMember="1" transform="translate(50.5254,-134.886)">
			<title content="structured text">Process.61</title>
			<desc content="structured text">‘when’</desc>
			<v:custProps>
				<v:cp v:nameU="Cost" v:lbl="Cost" v:type="7" v:format="@" v:langID="1033"/>
				<v:cp v:nameU="Duration" v:lbl="Duration" v:type="2" v:langID="1033"/>
				<v:cp v:nameU="Resources" v:lbl="Resources" v:langID="1033"/>
			</v:custProps>
			<v:userDefs>
				<v:ud v:nameU="visVersion" v:val="VT0(11):26"/>
			</v:userDefs>
			<v:textBlock v:margins="rect(2,2,2,2)" v:tabSpace="42.5197"/>
			<v:textRect cx="18.0856" cy="223.637" width="36.18" height="13.2283"/>
			<rect x="0" y="217.023" width="36.1713" height="13.2283" rx="2.83465" ry="2.83465" class="st3"/>
			<text x="6.74" y="226.04" class="st4" v:langID="1033"><v:paragraph v:horizAlign="1"/><v:tabList/>‘<tspan class="st5" v:langID="2057">when</tspan>’</text>		</g>
		<g id="shape13-33" v:mID="13" v:groupContext="shape" v:layerMember="0" transform="translate(95.1563,-170.319)">
			<title content="structured text">Dynamic connector.62</title>
			<path d="M0 230.25 L12.8 230.25 A5.66929 5.66929 0 0 1 18.47 235.92 L18.47 238.76 A5.66929 5.66929 0 0 1 12.8 244.42        L-53.81 244.42 A5.66929 5.66929 -180 0 0 -59.48 250.09 L-59.48 253.4 A5.66929 5.66929 -180 0 0 -53.81 259.07        L-47.39 259.07" class="st1"/>
		</g>
		<g id="shape14-38" v:mID="14" v:groupContext="shape" v:layerMember="0" transform="translate(108.929,-198.665)">
			<title content="structured text">Dynamic connector.64</title>
			<path d="M0 230.25 L6.11 230.25 A5.66929 5.66929 0 0 1 11.78 235.92 L11.78 238.76 A5.66929 5.66929 0 0 1 6.11 244.42        L-67.59 244.42 A5.66929 5.66929 -180 0 0 -73.26 250.09 L-73.26 281.75 A5.66929 5.66929 -180 0 0 -67.59 287.42        L-61.16 287.42" class="st1"/>
		</g>
		<g id="shape19-43" v:mID="19" v:groupContext="shape" v:layerMember="1" transform="translate(50.5254,-78.6652)">
			<title content="structured text">Process.62</title>
			<desc content="structured text">‘then’</desc>
			<v:custProps>
				<v:cp v:nameU="Cost" v:lbl="Cost" v:type="7" v:format="@" v:langID="1033"/>
				<v:cp v:nameU="Duration" v:lbl="Duration" v:type="2" v:langID="1033"/>
				<v:cp v:nameU="Resources" v:lbl="Resources" v:langID="1033"/>
			</v:custProps>
			<v:userDefs>
				<v:ud v:nameU="visVersion" v:val="VT0(11):26"/>
			</v:userDefs>
			<v:textBlock v:margins="rect(2,2,2,2)" v:tabSpace="42.5197"/>
			<v:textRect cx="18.0856" cy="223.637" width="36.18" height="13.2283"/>
			<rect x="0" y="217.023" width="36.1713" height="13.2283" rx="2.83465" ry="2.83465" class="st3"/>
			<text x="8.51" y="226.04" class="st4" v:langID="1033"><v:paragraph v:horizAlign="1"/><v:tabList/>‘<tspan class="st5" v:langID="2057">then</tspan>’</text>		</g>
		<g id="shape20-47" v:mID="20" v:groupContext="shape" v:layerMember="1" transform="translate(71.7853,-106.539)">
			<title content="structured text">Process.69</title>
			<desc content="structured text">LHS</desc>
			<v:custProps>
				<v:cp v:nameU="Cost" v:lbl="Cost" v:type="7" v:format="@" v:langID="1033"/>
				<v:cp v:nameU="Duration" v:lbl="Duration" v:type="2" v:langID="1033"/>
				<v:cp v:nameU="Resources" v:lbl="Resources" v:langID="1033"/>
			</v:custProps>
			<v:userDefs>
				<v:ud v:nameU="visVersion" v:val="VT0(11):26"/>
			</v:userDefs>
			<v:textBlock v:margins="rect(2,2,2,2)" v:tabSpace="42.5197"/>
			<v:textRect cx="18.0856" cy="223.637" width="36.18" height="13.2283"/>
			<rect x="0" y="217.023" width="36.1713" height="13.2283" rx="2.83465" ry="2.83465" class="st3"/>
			<text x="10.29" y="226.04" class="st6" v:langID="2057"><v:paragraph v:horizAlign="1"/><v:tabList/>LHS</text>		</g>
		<g id="shape24-50" v:mID="24" v:groupContext="shape" v:layerMember="0" transform="translate(107.957,-113.153)">
			<title content="structured text">Dynamic connector.73</title>
			<path d="M0 230.25 L7.09 230.25 A5.66929 5.66929 0 0 1 12.76 235.92 L12.76 238.28 A5.66929 5.66929 0 0 1 7.09 243.95        L-66.61 243.95 A5.66929 5.66929 -180 0 0 -72.28 249.62 L-72.28 252.46 A5.66929 5.66929 -180 0 0 -66.61 258.13        L-60.19 258.13" class="st1"/>
		</g>
		<g id="shape31-55" v:mID="31" v:groupContext="shape" v:layerMember="0;1" transform="translate(0.24,-218.437)">
			<title content="structured text">On-page reference.135</title>
			<v:userDefs>
				<v:ud v:nameU="visVersion" v:val="VT0(11):26"/>
			</v:userDefs>
			<v:textBlock v:margins="rect(2,2,2,2)" v:tabSpace="42.5197"/>
			<path d="M0 224.46 A5.7874 5.7874 0 0 1 11.57 224.46 A5.7874 5.7874 0 1 1 0 224.46 Z" class="st3"/>
		</g>
		<g id="shape32-57" v:mID="32" v:groupContext="shape" v:layerMember="0" transform="translate(11.8148,-224.224)">
			<title content="structured text">Dynamic connector.136</title>
			<path d="M0 230.25 L3.07 230.25 A3.06684 3.06684 0 0 1 6.13 233.32 L6.13 249.85 A5.48508 5.48508 -180 0 0 11.62 255.34        L14.34 255.34" class="st1"/>
		</g>
		<g id="shape34-62" v:mID="34" v:groupContext="shape" v:layerMember="0;1" transform="translate(89.5313,-0.24)">
			<title content="structured text">On-page reference.138</title>
			<v:userDefs>
				<v:ud v:nameU="visVersion" v:val="VT0(11):26"/>
			</v:userDefs>
			<v:textBlock v:margins="rect(2,2,2,2)" v:tabSpace="42.5197"/>
			<path d="M0 224.46 A5.7874 5.7874 0 0 1 11.57 224.46 A5.7874 5.7874 0 1 1 0 224.46 Z" class="st3"/>
		</g>
		<g id="shape36-64" v:mID="36" v:groupContext="shape" v:layerMember="0" transform="translate(69.925,-28.5865)">
			<title content="structured text">Dynamic connector.140</title>
			<path d="M0 230.25 L5.31 230.25 A5.31496 5.31496 0 0 1 10.63 235.57 L10.63 248.32 A4.48819 4.48819 -180 0 0 15.12 252.81        L16.85 252.81" class="st1"/>
		</g>
		<g id="shape6-69" v:mID="6" v:groupContext="shape" v:layerMember="1" transform="translate(75.8586,-192.051)">
			<title content="structured text">Process.6</title>
			<desc content="structured text">name</desc>
			<v:custProps>
				<v:cp v:nameU="Cost" v:lbl="Cost" v:type="7" v:format="@" v:langID="1033"/>
				<v:cp v:nameU="Duration" v:lbl="Duration" v:type="2" v:langID="1033"/>
				<v:cp v:nameU="Resources" v:lbl="Resources" v:langID="1033"/>
			</v:custProps>
			<v:userDefs>
				<v:ud v:nameU="visVersion" v:val="VT0(11):26"/>
			</v:userDefs>
			<v:textBlock v:margins="rect(2,2,2,2)" v:tabSpace="42.5197"/>
			<v:textRect cx="16.5354" cy="223.637" width="33.08" height="13.2283"/>
			<rect x="0" y="217.023" width="33.0709" height="13.2283" rx="2.83465" ry="2.83465" class="st3"/>
			<text x="6.52" y="226.04" class="st6" v:langID="2057"><v:paragraph v:horizAlign="1"/><v:tabList/>name</text>		</g>
		<g id="shape37-72" v:mID="37" v:groupContext="shape" v:layerMember="0" transform="translate(86.6967,-141.5)">
			<title content="structured text">Dynamic connector.37</title>
			<path d="M0 230.25 L21.26 230.25 A5.66929 5.66929 0 0 1 26.93 235.92 L26.93 238.28 A5.66929 5.66929 0 0 1 21.26 243.95        L-24.45 243.95 A5.66929 5.66929 -180 0 0 -30.12 249.62 L-30.12 252.93 A5.66929 5.66929 -180 0 0 -24.45 258.6        L-17.67 258.6" class="st1"/>
		</g>
		<g id="shape28-77" v:mID="28" v:groupContext="shape" v:layerMember="1" transform="translate(71.7853,-50.3187)">
			<title content="structured text">Process.28</title>
			<desc content="structured text">RHS</desc>
			<v:custProps>
				<v:cp v:nameU="Cost" v:lbl="Cost" v:type="7" v:format="@" v:langID="1033"/>
				<v:cp v:nameU="Duration" v:lbl="Duration" v:type="2" v:langID="1033"/>
				<v:cp v:nameU="Resources" v:lbl="Resources" v:langID="1033"/>
			</v:custProps>
			<v:userDefs>
				<v:ud v:nameU="visVersion" v:val="VT0(11):26"/>
			</v:userDefs>
			<v:textBlock v:margins="rect(2,2,2,2)" v:tabSpace="42.5197"/>
			<v:textRect cx="18.0856" cy="223.637" width="36.18" height="13.2283"/>
			<rect x="0" y="217.023" width="36.1713" height="13.2283" rx="2.83465" ry="2.83465" class="st3"/>
			<text x="9.63" y="226.04" class="st6" v:langID="2057"><v:paragraph v:horizAlign="1"/><v:tabList/>RHS</text>		</g>
		<g id="shape38-80" v:mID="38" v:groupContext="shape" v:layerMember="0" transform="translate(107.957,-56.9329)">
			<title content="structured text">Dynamic connector.38</title>
			<path d="M0 230.25 L5.31 230.25 A5.31496 5.31496 0 0 1 10.63 235.57 L10.63 238.76 A5.66929 5.66929 0 0 1 4.96 244.42        L-84.33 244.42 A5.66929 5.66929 -180 0 0 -90 250.09 L-90 253.28 A5.31496 5.31496 -180 0 0 -84.69 258.6 L-82.13        258.6" class="st1"/>
		</g>
		<g id="shape39-85" v:mID="39" v:groupContext="shape" v:layerMember="0" transform="translate(86.6967,-85.2794)">
			<title content="structured text">Dynamic connector.39</title>
			<path d="M0 230.25 L21.26 230.25 A5.66929 5.66929 0 0 1 26.93 235.92 L26.93 238.76 A5.66929 5.66929 0 0 1 21.26 244.42        L-31.18 244.42 A5.66929 5.66929 -180 0 0 -36.85 250.09 L-36.85 252.93 A5.66929 5.66929 -180 0 0 -31.18 258.6        L-17.67 258.6" class="st1"/>
		</g>
	</g>
</svg>