<?xml version="1.0" encoding="UTF-8"?>
<!-- Generated by Microsoft Visio 11.0, SVG Export, v1.0 or.svg Page-1 --><svg xmlns="http://www.w3.org/2000/svg" xmlns:v="http://schemas.microsoft.com/visio/2003/SVGExtensions/" xmlns:xlink="http://www.w3.org/1999/xlink" width="2.32372in" height="1.20322in" viewBox="0 0 167.308 86.632" xml:space="preserve" color-interpolation-filters="sRGB" class="st7" preserveAspectRatio="xMidYMid meet" zoomAndPan="magnify" version="1.0" contentScriptType="text/ecmascript" contentStyleType="text/css">
	<v:documentProperties v:langID="1033" v:metric="true" v:viewMarkup="false"/>

	<style type="text/css" xml:space="preserve">
	
		.st1 {fill:#e8eef7;stroke:#000000;stroke-linecap:round;stroke-linejoin:round;stroke-width:0.24}
		.st2 {fill:#000000;font-family:Arial;font-size:0.666664em}
		.st3 {font-size:1em}
		.st4 {fill:#000000;font-family:Arial;font-size:0.666664em;font-style:italic}
		.st5 {marker-end:url(#mrkr2-13);stroke:#4677bf;stroke-linecap:round;stroke-linejoin:round;stroke-width:0.24}
		.st6 {fill:#4677bf;fill-opacity:1;stroke:#4677bf;stroke-opacity:1;stroke-width:0.08695652173913}
		.st7 {fill:none;fill-rule:evenodd;font-size:12;overflow:visible;stroke-linecap:square;stroke-miterlimit:3}
	
	</style>

	<defs id="Markers">
		<g id="lend2">
			<path d="M 1 1 L 0 0 L 1 -1 L 1 1 " style="stroke:none"/>
		</g>
		<marker xmlns="http://www.w3.org/TR/xhtml1/transitional" overflow="visible" id="mrkr2-13" class="st6" v:arrowType="2" v:arrowSize="2" v:setback="11.5" refX="-11.5" orient="auto" markerUnits="strokeWidth" preserveAspectRatio="xMidYMid meet">
			<use xmlns="http://www.w3.org/2000/svg" xlink:href="#lend2" transform="scale(-11.5,-11.5) " xlink:type="simple" xlink:show="embed" xlink:actuate="onLoad"/>
		</marker>
	</defs>
	<g v:mID="0" v:index="1" v:groupContext="foregroundPage">
		<title content="structured text">Page-1</title>
		<v:pageProperties v:drawingScale="0.0393701" v:pageScale="0.0393701" v:drawingUnits="24" v:shadowOffsetX="8.50394" v:shadowOffsetY="-8.50394"/>
		<v:layer v:name="Flowchart" v:index="0"/>
		<v:layer v:name="Connector" v:index="1"/>
		<g id="shape39-1" v:mID="39" v:groupContext="shape" v:layerMember="0" transform="translate(110.375,-53.8625)">
			<title content="structured text">Process.39</title>
			<desc content="structured text">‘||’</desc>
			<v:custProps>
				<v:cp v:nameU="Cost" v:lbl="Cost" v:type="7" v:format="@" v:langID="1033"/>
				<v:cp v:nameU="Duration" v:lbl="Duration" v:type="2" v:langID="1033"/>
				<v:cp v:nameU="Resources" v:lbl="Resources" v:langID="1033"/>
			</v:custProps>
			<v:userDefs>
				<v:ud v:nameU="visVersion" v:val="VT0(11):26"/>
			</v:userDefs>
			<v:textBlock v:margins="rect(2,2,2,2)" v:tabSpace="42.5197"/>
			<v:textRect cx="9.63712" cy="79.9622" width="19.28" height="13.3396"/>
			<rect x="0" y="73.2924" width="19.2742" height="13.3396" rx="2.83465" ry="2.83465" class="st1"/>
			<text x="5.77" y="82.36" class="st2" v:langID="1033"><v:paragraph v:horizAlign="1"/><v:tabList/>‘<tspan class="st3" v:langID="2057">||</tspan>’</text>		</g>
		<g id="shape40-5" v:mID="40" v:groupContext="shape" v:layerMember="0" transform="translate(38.7995,-36.1041)">
			<title content="structured text">Process.40</title>
			<desc content="structured text">column</desc>
			<v:custProps>
				<v:cp v:nameU="Cost" v:lbl="Cost" v:type="7" v:format="@" v:langID="1033"/>
				<v:cp v:nameU="Duration" v:lbl="Duration" v:type="2" v:langID="1033"/>
				<v:cp v:nameU="Resources" v:lbl="Resources" v:langID="1033"/>
			</v:custProps>
			<v:userDefs>
				<v:ud v:nameU="visVersion" v:val="VT0(11):26"/>
			</v:userDefs>
			<v:textBlock v:margins="rect(2,2,2,2)" v:tabSpace="42.5197"/>
			<v:textRect cx="21.4689" cy="79.9622" width="42.94" height="13.3396"/>
			<rect x="0" y="73.2924" width="42.9378" height="13.3396" rx="2.83465" ry="2.83465" class="st1"/>
			<text x="8.58" y="82.36" class="st4" v:langID="2057"><v:paragraph v:horizAlign="1"/><v:tabList/>column</text>		</g>
		<g id="shape41-8" v:mID="41" v:groupContext="shape" v:layerMember="1" transform="translate(81.7374,-42.7739)">
			<title content="structured text">Dynamic connector.41</title>
			<path d="M0 86.63 L5.46 86.63 A5.46021 5.46021 -180 0 0 10.92 81.17 L10.92 74.54 A5.66929 5.66929 0 0 1 16.59 68.87 L25.88        68.87" class="st5"/>
		</g>
		<g id="shape42-14" v:mID="42" v:groupContext="shape" v:layerMember="1;0" transform="translate(0.24,-36.9378)">
			<title content="structured text">On-page reference.42</title>
			<v:userDefs>
				<v:ud v:nameU="visVersion" v:val="VT0(11):26"/>
			</v:userDefs>
			<v:textBlock v:margins="rect(2,2,2,2)" v:tabSpace="42.5197"/>
			<path d="M0 80.8 A5.83609 5.83609 0 1 1 11.67 80.8 A5.83609 5.83609 0 0 1 0 80.8 Z" class="st1"/>
		</g>
		<g id="shape43-16" v:mID="43" v:groupContext="shape" v:layerMember="1;0" transform="translate(155.395,-36.9378)">
			<title content="structured text">On-page reference.43</title>
			<v:userDefs>
				<v:ud v:nameU="visVersion" v:val="VT0(11):26"/>
			</v:userDefs>
			<v:textBlock v:margins="rect(2,2,2,2)" v:tabSpace="42.5197"/>
			<path d="M0 80.8 A5.83609 5.83609 0 1 1 11.67 80.8 A5.83609 5.83609 0 0 1 0 80.8 Z" class="st1"/>
		</g>
		<g id="shape44-18" v:mID="44" v:groupContext="shape" v:layerMember="1" transform="translate(11.9122,-35.6873)">
			<title content="structured text">Dynamic connector.44</title>
			<path d="M0 79.55 L24.13 79.55" class="st5"/>
		</g>
		<g id="shape45-23" v:mID="45" v:groupContext="shape" v:layerMember="0" transform="translate(108.391,-19.4299)">
			<title content="structured text">Process.45</title>
			<desc content="structured text">‘or’</desc>
			<v:custProps>
				<v:cp v:nameU="Cost" v:lbl="Cost" v:type="7" v:format="@" v:langID="1033"/>
				<v:cp v:nameU="Duration" v:lbl="Duration" v:type="2" v:langID="1033"/>
				<v:cp v:nameU="Resources" v:lbl="Resources" v:langID="1033"/>
			</v:custProps>
			<v:userDefs>
				<v:ud v:nameU="visVersion" v:val="VT0(11):26"/>
			</v:userDefs>
			<v:textBlock v:margins="rect(2,2,2,2)" v:tabSpace="42.5197"/>
			<v:textRect cx="11.9052" cy="79.9622" width="23.82" height="13.3396"/>
			<rect x="0" y="73.2924" width="23.8103" height="13.3396" rx="2.83465" ry="2.83465" class="st1"/>
			<text x="6.57" y="82.36" class="st2" v:langID="1033"><v:paragraph v:horizAlign="1"/><v:tabList/>‘<tspan class="st3" v:langID="2057">or</tspan>’</text>		</g>
		<g id="shape46-27" v:mID="46" v:groupContext="shape" v:layerMember="1" transform="translate(81.7374,-42.7739)">
			<title content="structured text">Dynamic connector.46</title>
			<path d="M0 86.63 L5.46 86.63 A5.46021 5.46021 0 0 1 10.92 92.09 L10.92 97.64 A5.66929 5.66929 -180 0 0 16.59 103.31        L23.89 103.31" class="st5"/>
		</g>
		<g id="shape47-32" v:mID="47" v:groupContext="shape" v:layerMember="1" transform="translate(120.012,-67.2021)">
			<title content="structured text">Dynamic connector.47</title>
			<path d="M0 86.63 L0 81.32 A5.31496 5.31496 -180 0 0 -5.31 76 L-86.17 76 A5.66929 5.66929 -180 0 0 -91.84 81.67 L-91.84        105.75 A5.31496 5.31496 -180 0 0 -86.53 111.06 L-83.97 111.06" class="st5"/>
		</g>
		<g id="shape48-37" v:mID="48" v:groupContext="shape" v:layerMember="1" transform="translate(120.296,-19.4299)">
			<title content="structured text">Dynamic connector.48</title>
			<path d="M0 86.63 L0 91.95 A5.31496 5.31496 0 0 1 -5.31 97.26 L-86.46 97.26 A5.66929 5.66929 0 0 1 -92.13 91.59 L-92.13        68.6 A5.31496 5.31496 0 0 1 -86.81 63.29 L-84.26 63.29" class="st5"/>
		</g>
		<g id="shape67-42" v:mID="67" v:groupContext="shape" v:layerMember="1" transform="translate(81.7374,-49.8605)">
			<title content="structured text">Dynamic connector.67</title>
			<path d="M0 93.72 L70.9 93.72" class="st5"/>
		</g>
	</g>
</svg>