<?xml version="1.0" encoding="UTF-8" standalone="no"?>
<!DOCTYPE svg PUBLIC "-//W3C//DTD SVG 1.0//EN" "http://www.w3.org/TR/2001/REC-SVG-20010904/DTD/svg10.dtd">
<!-- Generated by Microsoft Visio 11.0, SVG Export, v1.0 patternER.svg Page-1 -->
<svg xmlns="http://www.w3.org/2000/svg" xmlns:v="http://schemas.microsoft.com/visio/2003/SVGExtensions/" width="5.17377in"
		height="6.98627in" viewBox="0 0 372.511 503.012" xml:space="preserve" color-interpolation-filters="sRGB" class="st7">
	<v:documentProperties v:langID="1033" v:metric="true" v:viewMarkup="false"/>

	<style type="text/css">
	<![CDATA[
		.st1 {marker-start:url(#mrkr13-6);stroke:#4677bf;stroke-linecap:round;stroke-linejoin:round;stroke-width:0.24}
		.st2 {fill:#4677bf;fill-opacity:1;stroke:#4677bf;stroke-opacity:1;stroke-width:0.08695652173913}
		.st3 {marker-end:url(#mrkr13-12);stroke:#4677bf;stroke-linecap:round;stroke-linejoin:round;stroke-width:0.24}
		.st4 {fill:#e8eef7;stroke:#000000;stroke-linecap:round;stroke-linejoin:round;stroke-width:0.24}
		.st5 {fill:#000000;font-family:Arial;font-size:0.666664em}
		.st6 {fill:none;stroke:none;stroke-linecap:round;stroke-linejoin:round;stroke-width:0.72}
		.st7 {fill:none;fill-rule:evenodd;font-size:12;overflow:visible;stroke-linecap:square;stroke-miterlimit:3}
	]]>
	</style>

	<defs id="Markers">
		<g id="lend13">
			<path d="M 3 1 L 0 0 L 3 -1 L 3 1 " style="stroke:none"/>
		</g>
		<marker id="mrkr13-6" class="st2" v:arrowType="13" v:arrowSize="2" v:setback="33" refX="33" orient="auto"
				markerUnits="strokeWidth">
			<use xlink:href="#lend13" transform="scale(11.5) "/>
		</marker>
		<marker id="mrkr13-12" class="st2" v:arrowType="13" v:arrowSize="2" v:setback="34.5" refX="-34.5" orient="auto"
				markerUnits="strokeWidth">
			<use xlink:href="#lend13" transform="scale(-11.5,-11.5) "/>
		</marker>
	</defs>
	<g v:mID="0" v:index="1" v:groupContext="foregroundPage">
		<title>Page-1</title>
		<v:pageProperties v:drawingScale="0.0393701" v:pageScale="0.0393701" v:drawingUnits="24" v:shadowOffsetX="8.50394"
				v:shadowOffsetY="-8.50394"/>
		<v:layer v:name="Connector" v:index="0"/>
		<g id="shape20-1" v:mID="20" v:groupContext="shape" v:layerMember="0" transform="translate(160.382,-480.838)">
			<title>Dynamic connector.7</title>
			<v:userDefs>
				<v:ud v:nameU="visVersion" v:val="VT0(11):26"/>
			</v:userDefs>
			<path d="M7.92 495.93 L8.28 495.93 L43.24 495.93" class="st1"/>
		</g>
		<g id="shape21-7" v:mID="21" v:groupContext="shape" v:layerMember="0" transform="translate(231.972,-479.421)">
			<title>Dynamic connector.21</title>
			<v:userDefs>
				<v:ud v:nameU="visVersion" v:val="VT0(11):26"/>
			</v:userDefs>
			<path d="M-7.09 503.01 L-7.09 534.67" class="st3"/>
		</g>
		<g id="shape22-13" v:mID="22" v:groupContext="shape" v:layerMember="0" transform="translate(224.886,-422.476)">
			<title>Dynamic connector.22</title>
			<v:userDefs>
				<v:ud v:nameU="visVersion" v:val="VT0(11):26"/>
			</v:userDefs>
			<path d="M0 503.01 L0 524.15 L-116.22 524.15 L-116.22 536.62" class="st3"/>
		</g>
		<g id="shape24-18" v:mID="24" v:groupContext="shape" v:layerMember="0" transform="translate(227.012,-323.846)">
			<title>Dynamic connector.24</title>
			<v:userDefs>
				<v:ud v:nameU="visVersion" v:val="VT0(11):26"/>
			</v:userDefs>
			<path d="M0 495.09 L0 494.73 L0 484.84 L-38.27 484.84 L-38.27 461.25" class="st1"/>
		</g>
		<g id="shape25-23" v:mID="25" v:groupContext="shape" v:layerMember="0" transform="translate(151.894,-325.012)">
			<title>Dynamic connector.25</title>
			<v:userDefs>
				<v:ud v:nameU="visVersion" v:val="VT0(11):26"/>
			</v:userDefs>
			<path d="M0 495.09 L0 494.73 L0 486 L36.85 486 L36.85 462.41" class="st1"/>
		</g>
		<g id="shape26-28" v:mID="26" v:groupContext="shape" v:layerMember="0" transform="translate(76.0668,-372.083)">
			<title>Dynamic connector.26</title>
			<v:userDefs>
				<v:ud v:nameU="visVersion" v:val="VT0(11):26"/>
			</v:userDefs>
			<path d="M0 503.01 L-10.63 503.01 L-10.63 444.11 L107.94 444.11" class="st3"/>
		</g>
		<g id="shape27-33" v:mID="27" v:groupContext="shape" v:layerMember="0" transform="translate(172.445,-282.492)">
			<title>Dynamic connector.27</title>
			<v:userDefs>
				<v:ud v:nameU="visVersion" v:val="VT0(11):26"/>
			</v:userDefs>
			<path d="M0 495.09 L0 494.73 L0 489.55 L54.57 489.55 L54.57 478.67" class="st1"/>
		</g>
		<g id="shape28-38" v:mID="28" v:groupContext="shape" v:layerMember="0" transform="translate(95.9093,-237.232)">
			<title>Dynamic connector.28</title>
			<v:userDefs>
				<v:ud v:nameU="visVersion" v:val="VT0(11):26"/>
			</v:userDefs>
			<path d="M0 495.09 L0 494.73 L0 489.14 L77.95 489.14 L77.95 474.76" class="st1"/>
		</g>
		<g id="shape29-43" v:mID="29" v:groupContext="shape" v:layerMember="0" transform="translate(156.854,-237.736)">
			<title>Dynamic connector.29</title>
			<v:userDefs>
				<v:ud v:nameU="visVersion" v:val="VT0(11):26"/>
			</v:userDefs>
			<path d="M0 495.09 L0 494.73 L0 489.14 L17.01 489.14 L17.01 475.26" class="st1"/>
		</g>
		<g id="shape30-48" v:mID="30" v:groupContext="shape" v:layerMember="0" transform="translate(162.523,-220.728)">
			<title>Dynamic connector.30</title>
			<v:userDefs>
				<v:ud v:nameU="visVersion" v:val="VT0(11):26"/>
			</v:userDefs>
			<path d="M-5.67 503.01 L-5.67 514.38 L-8.5 514.38 L-8.5 528.54" class="st3"/>
		</g>
		<g id="shape31-53" v:mID="31" v:groupContext="shape" v:layerMember="0" transform="translate(156.854,-220.728)">
			<title>Dynamic connector.31</title>
			<v:userDefs>
				<v:ud v:nameU="visVersion" v:val="VT0(11):26"/>
			</v:userDefs>
			<path d="M0 503.01 L0 514.38 L43.94 514.38 L43.94 529.55" class="st3"/>
		</g>
		<g id="shape32-58" v:mID="32" v:groupContext="shape" v:layerMember="0" transform="translate(234.098,-158.067)">
			<title>Dynamic connector.32</title>
			<v:userDefs>
				<v:ud v:nameU="visVersion" v:val="VT0(11):26"/>
			</v:userDefs>
			<path d="M-7.09 495.09 L-7.09 494.73 L-7.09 354.24" class="st1"/>
		</g>
		<g id="shape33-63" v:mID="33" v:groupContext="shape" v:layerMember="0" transform="translate(283.705,-278.24)">
			<title>Dynamic connector.33</title>
			<v:userDefs>
				<v:ud v:nameU="visVersion" v:val="VT0(11):26"/>
			</v:userDefs>
			<path d="M0 495.09 L0 494.73 L0 485.04 L-56.69 485.04 L-56.69 474.41" class="st1"/>
		</g>
		<g id="shape35-68" v:mID="35" v:groupContext="shape" v:layerMember="0" transform="translate(290.791,-224.177)">
			<title>Dynamic connector.35</title>
			<v:userDefs>
				<v:ud v:nameU="visVersion" v:val="VT0(11):26"/>
			</v:userDefs>
			<path d="M-7.09 495.09 L-7.09 494.73 L-7.09 481.55 L-7.09 465.96" class="st1"/>
		</g>
		<g id="shape16-73" v:mID="16" v:groupContext="shape" v:layerMember="0" transform="translate(316.303,-215.673)">
			<title>Dynamic connector.16</title>
			<v:userDefs>
				<v:ud v:nameU="visVersion" v:val="VT0(11):26"/>
			</v:userDefs>
			<path d="M0 503.01 L47.48 503.01 L47.48 403.34 L-48.41 403.34" class="st3"/>
		</g>
		<g id="shape37-78" v:mID="37" v:groupContext="shape" v:layerMember="0" transform="translate(234.098,-114.13)">
			<title>Dynamic connector.37</title>
			<v:userDefs>
				<v:ud v:nameU="visVersion" v:val="VT0(11):26"/>
			</v:userDefs>
			<path d="M-7.09 495.09 L-7.09 494.73 L-7.09 476.08" class="st1"/>
		</g>
		<g id="group40-83" transform="translate(95.1849,-479.421)" v:mID="40" v:groupContext="group">
			<title>Sheet.40</title>
			<g id="shape2-84" v:mID="2" v:groupContext="shape">
				<title>Rounded rectangle.2</title>
				<desc>patternBinding</desc>
				<v:userDefs>
					<v:ud v:nameU="visVersion" v:val="VT0(11):26"/>
				</v:userDefs>
				<v:textBlock v:margins="rect(4,4,4,4)" v:tabSpace="42.5197"/>
				<v:textRect cx="32.5984" cy="494.508" width="65.2" height="17.0079"/>
				<path d="M56.69 503.01 A8.504 8.504 -180 0 0 65.2 494.51 A8.504 8.504 -180 0 0 56.69 486 L8.5 486 A8.504 8.504 -180
							 0 0 0 494.51 A8.504 8.504 -180 0 0 8.5 503.01 L56.69 503.01 Z" class="st4"/>
				<text x="6.8" y="496.91" class="st5" v:langID="2057"><v:paragraph v:horizAlign="1"/><v:tabList/>patternBinding</text>			</g>
			<g id="shape39-87" v:mID="39" v:groupContext="shape" transform="translate(62.7244,-6.04724)">
				<title>Sheet.39</title>
				<desc>0..1</desc>
				<v:textBlock v:margins="rect(4,4,4,4)" v:tabSpace="42.5197"/>
				<v:textRect cx="13.1181" cy="495.012" width="26.24" height="16"/>
				<rect x="0" y="487.012" width="26.2362" height="16" class="st6"/>
				<text x="6.45" y="497.41" class="st5" v:langID="2057"><v:paragraph v:horizAlign="1"/><v:tabList/>0..1</text>			</g>
		</g>
		<g id="group41-90" transform="translate(189.453,-463.421)" v:mID="41" v:groupContext="group">
			<title>Sheet.41</title>
			<g id="shape42-91" v:mID="42" v:groupContext="shape" transform="translate(32.5984,5.68434E-014)">
				<title>Sheet.42</title>
				<desc>1</desc>
				<v:textBlock v:margins="rect(4,4,4,4)" v:tabSpace="42.5197"/>
				<v:textRect cx="9.22835" cy="495.012" width="18.46" height="16"/>
				<rect x="0" y="487.012" width="18.4567" height="16" class="st6"/>
				<text x="7" y="497.41" class="st5" v:langID="2057"><v:paragraph v:horizAlign="1"/><v:tabList/>1</text>			</g>
			<g id="shape1-94" v:mID="1" v:groupContext="shape" transform="translate(14.1732,-16)">
				<title>Rounded rectangle</title>
				<desc>pattern</desc>
				<v:userDefs>
					<v:ud v:nameU="visVersion" v:val="VT0(11):26"/>
				</v:userDefs>
				<v:textBlock v:margins="rect(4,4,4,4)" v:tabSpace="42.5197"/>
				<v:textRect cx="21.2598" cy="494.508" width="42.52" height="17.0079"/>
				<path d="M34.02 503.01 A8.504 8.504 -180 0 0 42.52 494.51 A8.504 8.504 -180 0 0 34.02 486 L8.5 486 A8.504 8.504 -180
							 0 0 0 494.51 A8.504 8.504 -180 0 0 8.5 503.01 L34.02 503.01 Z" class="st4"/>
				<text x="8.8" y="496.91" class="st5" v:langID="2057"><v:paragraph v:horizAlign="1"/><v:tabList/>pattern</text>			</g>
			<g id="shape38-97" v:mID="38" v:groupContext="shape" transform="translate(0,-22.1732)">
				<title>Sheet.38</title>
				<desc>1</desc>
				<v:textBlock v:margins="rect(4,4,4,4)" v:tabSpace="42.5197"/>
				<v:textRect cx="9.22835" cy="495.012" width="18.46" height="16"/>
				<rect x="0" y="487.012" width="18.4567" height="16" class="st6"/>
				<text x="7" y="497.41" class="st5" v:langID="2057"><v:paragraph v:horizAlign="1"/><v:tabList/>1</text>			</g>
		</g>
		<g id="shape62-100" v:mID="62" v:groupContext="shape" v:layerMember="0" transform="translate(156.854,-220.728)">
			<title>Dynamic connector.62</title>
			<v:userDefs>
				<v:ud v:nameU="visVersion" v:val="VT0(11):26"/>
			</v:userDefs>
			<path d="M0 503.01 L0 514.38 L-54.21 514.38 L-54.21 528.54" class="st3"/>
		</g>
		<g id="shape66-105" v:mID="66" v:groupContext="shape" v:layerMember="0" transform="translate(227.012,-56.8857)">
			<title>Dynamic connector.66</title>
			<v:userDefs>
				<v:ud v:nameU="visVersion" v:val="VT0(11):26"/>
			</v:userDefs>
			<path d="M0 503.01 L-0 524.67 L24.09 524.67 L24.09 533.87" class="st3"/>
		</g>
		<g id="shape67-110" v:mID="67" v:groupContext="shape" v:layerMember="0" transform="translate(227.012,-56.8857)">
			<title>Dynamic connector.67</title>
			<v:userDefs>
				<v:ud v:nameU="visVersion" v:val="VT0(11):26"/>
			</v:userDefs>
			<path d="M0 503.01 L-0 524.67 L66.61 524.67 L66.61 534.37" class="st3"/>
		</g>
		<g id="shape69-115" v:mID="69" v:groupContext="shape" v:layerMember="0" transform="translate(227.012,-56.8857)">
			<title>Dynamic connector.69</title>
			<v:userDefs>
				<v:ud v:nameU="visVersion" v:val="VT0(11):26"/>
			</v:userDefs>
			<path d="M0 503.01 L0 524.67 L-29.41 524.67 L-29.41 533.46" class="st3"/>
		</g>
		<g id="shape70-120" v:mID="70" v:groupContext="shape" v:layerMember="0" transform="translate(219.925,-73.8935)">
			<title>Dynamic connector.70</title>
			<v:userDefs>
				<v:ud v:nameU="visVersion" v:val="VT0(11):26"/>
			</v:userDefs>
			<path d="M7.09 495.09 L7.09 494.73 L7.09 479.78" class="st1"/>
		</g>
		<g id="shape4-125" v:mID="4" v:groupContext="shape" transform="translate(76.0668,-363.579)">
			<title>Rounded rectangle.4</title>
			<desc>constraintGroup</desc>
			<v:userDefs>
				<v:ud v:nameU="visVersion" v:val="VT0(11):26"/>
			</v:userDefs>
			<v:textBlock v:margins="rect(4,4,4,4)" v:tabSpace="42.5197"/>
			<v:textRect cx="32.5984" cy="494.508" width="65.2" height="17.0079"/>
			<path d="M56.69 503.01 A8.504 8.504 -180 0 0 65.2 494.51 A8.504 8.504 -180 0 0 56.69 486 L8.5 486 A8.504 8.504 -180 0
						 0 0 494.51 A8.504 8.504 -180 0 0 8.5 503.01 L56.69 503.01 Z" class="st4"/>
			<text x="4.14" y="496.91" class="st5" v:langID="2057"><v:paragraph v:horizAlign="1"/><v:tabList/>constraintGroup</text>		</g>
		<g id="shape44-128" v:mID="44" v:groupContext="shape" transform="translate(224.161,-437.657)">
			<title>Sheet.44</title>
			<desc>0..n</desc>
			<v:textBlock v:margins="rect(4,4,4,4)" v:tabSpace="42.5197"/>
			<v:textRect cx="12.063" cy="495.012" width="24.13" height="16"/>
			<rect x="0" y="487.012" width="24.126" height="16" class="st6"/>
			<text x="5.4" y="497.41" class="st5" v:langID="2057"><v:paragraph v:horizAlign="1"/><v:tabList/>0..n</text>		</g>
		<g id="shape48-131" v:mID="48" v:groupContext="shape" transform="translate(63.2794,-369.752)">
			<title>Sheet.48</title>
			<desc>1</desc>
			<v:textBlock v:margins="rect(4,4,4,4)" v:tabSpace="42.5197"/>
			<v:textRect cx="9.22835" cy="495.012" width="18.46" height="16"/>
			<rect x="0" y="487.012" width="18.4567" height="16" class="st6"/>
			<text x="7" y="497.41" class="st5" v:langID="2057"><v:paragraph v:horizAlign="1"/><v:tabList/>1</text>		</g>
		<g id="shape5-134" v:mID="5" v:groupContext="shape" transform="translate(156.146,-365.61)">
			<title>Rounded rectangle.5</title>
			<desc>fieldConstraint</desc>
			<v:userDefs>
				<v:ud v:nameU="visVersion" v:val="VT0(11):26"/>
			</v:userDefs>
			<v:textBlock v:margins="rect(4,4,4,4)" v:tabSpace="42.5197"/>
			<v:textRect cx="32.5984" cy="494.508" width="65.2" height="17.0079"/>
			<path d="M56.69 503.01 A8.504 8.504 -180 0 0 65.2 494.51 A8.504 8.504 -180 0 0 56.69 486 L8.5 486 A8.504 8.504 -180 0
						 0 0 494.51 A8.504 8.504 -180 0 0 8.5 503.01 L56.69 503.01 Z" class="st4"/>
			<text x="7.03" y="496.91" class="st5" v:langID="2057"><v:paragraph v:horizAlign="1"/><v:tabList/>fieldConstraint</text>		</g>
		<g id="shape47-137" v:mID="47" v:groupContext="shape" transform="translate(173.122,-343.437)">
			<title>Sheet.47</title>
			<desc>1</desc>
			<v:textBlock v:margins="rect(4,4,4,4)" v:tabSpace="42.5197"/>
			<v:textRect cx="9.22835" cy="495.012" width="18.46" height="16"/>
			<rect x="0" y="487.012" width="18.4567" height="16" class="st6"/>
			<text x="7" y="497.41" class="st5" v:langID="2057"><v:paragraph v:horizAlign="1"/><v:tabList/>1</text>		</g>
		<g id="group89-140" transform="translate(119.295,-308.004)" v:mID="89" v:groupContext="group">
			<title>Sheet.89</title>
			<g id="shape6-141" v:mID="6" v:groupContext="shape">
				<title>Rounded rectangle.6</title>
				<desc>fieldName</desc>
				<v:userDefs>
					<v:ud v:nameU="visVersion" v:val="VT0(11):26"/>
				</v:userDefs>
				<v:textBlock v:margins="rect(4,4,4,4)" v:tabSpace="42.5197"/>
				<v:textRect cx="32.5984" cy="494.508" width="65.2" height="17.0079"/>
				<path d="M56.69 503.01 A8.504 8.504 -180 0 0 65.2 494.51 A8.504 8.504 -180 0 0 56.69 486 L8.5 486 A8.504 8.504 -180
							 0 0 0 494.51 A8.504 8.504 -180 0 0 8.5 503.01 L56.69 503.01 Z" class="st4"/>
				<text x="14.59" y="496.91" class="st5" v:langID="2057"><v:paragraph v:horizAlign="1"/><v:tabList/>fieldName</text>			</g>
			<g id="shape50-144" v:mID="50" v:groupContext="shape" transform="translate(14.8661,-13.2598)">
				<title>Sheet.50</title>
				<desc>1</desc>
				<v:textBlock v:margins="rect(4,4,4,4)" v:tabSpace="42.5197"/>
				<v:textRect cx="9.22835" cy="495.012" width="18.46" height="16"/>
				<rect x="0" y="487.012" width="18.4567" height="16" class="st6"/>
				<text x="7" y="497.41" class="st5" v:langID="2057"><v:paragraph v:horizAlign="1"/><v:tabList/>1</text>			</g>
		</g>
		<g id="group90-147" transform="translate(194.413,-306.838)" v:mID="90" v:groupContext="group">
			<title>Sheet.90</title>
			<g id="shape7-148" v:mID="7" v:groupContext="shape">
				<title>Rounded rectangle.7</title>
				<desc>restriction</desc>
				<v:userDefs>
					<v:ud v:nameU="visVersion" v:val="VT0(11):26"/>
				</v:userDefs>
				<v:textBlock v:margins="rect(4,4,4,4)" v:tabSpace="42.5197"/>
				<v:textRect cx="32.5984" cy="494.508" width="65.2" height="17.0079"/>
				<path d="M56.69 503.01 A8.504 8.504 -180 0 0 65.2 494.51 A8.504 8.504 -180 0 0 56.69 486 L8.5 486 A8.504 8.504 -180
							 0 0 0 494.51 A8.504 8.504 -180 0 0 8.5 503.01 L56.69 503.01 Z" class="st4"/>
				<text x="15.26" y="496.91" class="st5" v:langID="2057"><v:paragraph v:horizAlign="1"/><v:tabList/>restriction</text>			</g>
			<g id="shape51-151" v:mID="51" v:groupContext="shape" transform="translate(28.3465,-14.6772)">
				<title>Sheet.51</title>
				<desc>1</desc>
				<v:textBlock v:margins="rect(4,4,4,4)" v:tabSpace="42.5197"/>
				<v:textRect cx="9.22835" cy="495.012" width="18.46" height="16"/>
				<rect x="0" y="487.012" width="18.4567" height="16" class="st6"/>
				<text x="7" y="497.41" class="st5" v:langID="2057"><v:paragraph v:horizAlign="1"/><v:tabList/>1</text>			</g>
		</g>
		<g id="group92-154" transform="translate(128.508,-250.397)" v:mID="92" v:groupContext="group">
			<title>Sheet.92</title>
			<g id="shape83-155" v:mID="83" v:groupContext="shape" transform="translate(29.7323,0)">
				<title>Sheet.83</title>
				<desc>1</desc>
				<v:textBlock v:margins="rect(4,4,4,4)" v:tabSpace="42.5197"/>
				<v:textRect cx="9.22835" cy="495.012" width="18.46" height="16"/>
				<rect x="0" y="487.012" width="18.4567" height="16" class="st6"/>
				<text x="7" y="497.41" class="st5" v:langID="2057"><v:paragraph v:horizAlign="1"/><v:tabList/>1</text>			</g>
			<g id="group91-158" transform="translate(0,-15.0866)" v:mID="91" v:groupContext="group">
				<title>Sheet.91</title>
				<g id="shape8-159" v:mID="8" v:groupContext="shape">
					<title>Rounded rectangle.8</title>
					<desc>singleValueRestriction</desc>
					<v:userDefs>
						<v:ud v:nameU="visVersion" v:val="VT0(11):26"/>
					</v:userDefs>
					<v:textBlock v:margins="rect(4,4,4,4)" v:tabSpace="42.5197"/>
					<v:textRect cx="43.937" cy="494.508" width="87.88" height="17.0079"/>
					<path d="M79.37 503.01 A8.504 8.504 -180 0 0 87.87 494.51 A8.504 8.504 -180 0 0 79.37 486 L8.5 486 A8.504 8.504
								 -180 0 0 0 494.51 A8.504 8.504 -180 0 0 8.5 503.01 L79.37 503.01 Z" class="st4"/>
					<text x="4.35" y="496.91" class="st5" v:langID="2057"><v:paragraph v:horizAlign="1"/><v:tabList/>singleValueRestriction</text>				</g>
				<g id="shape52-162" v:mID="52" v:groupContext="shape" transform="translate(24.7874,-14.1732)">
					<title>Sheet.52</title>
					<desc>1</desc>
					<v:textBlock v:margins="rect(4,4,4,4)" v:tabSpace="42.5197"/>
					<v:textRect cx="9.22835" cy="495.012" width="18.46" height="16"/>
					<rect x="0" y="487.012" width="18.4567" height="16" class="st6"/>
					<text x="7" y="497.41" class="st5" v:langID="2057"><v:paragraph v:horizAlign="1"/><v:tabList/>1</text>				</g>
			</g>
		</g>
		<g id="group93-165" transform="translate(70.3975,-220.224)" v:mID="93" v:groupContext="group">
			<title>Sheet.93</title>
			<g id="shape11-166" v:mID="11" v:groupContext="shape">
				<title>Rounded rectangle.11</title>
				<desc>operator</desc>
				<v:userDefs>
					<v:ud v:nameU="visVersion" v:val="VT0(11):26"/>
				</v:userDefs>
				<v:textBlock v:margins="rect(4,4,4,4)" v:tabSpace="42.5197"/>
				<v:textRect cx="25.5118" cy="494.508" width="51.03" height="17.0079"/>
				<path d="M42.52 503.01 A8.504 8.504 -180 0 0 51.02 494.51 A8.504 8.504 -180 0 0 42.52 486 L8.5 486 A8.504 8.504 -180
							 0 0 0 494.51 A8.504 8.504 -180 0 0 8.5 503.01 L42.52 503.01 Z" class="st4"/>
				<text x="10.6" y="496.91" class="st5" v:langID="2057"><v:paragraph v:horizAlign="1"/><v:tabList/>operator</text>			</g>
			<g id="shape84-169" v:mID="84" v:groupContext="shape" transform="translate(7.77953,-15.5906)">
				<title>Sheet.84</title>
				<desc>1</desc>
				<v:textBlock v:margins="rect(4,4,4,4)" v:tabSpace="42.5197"/>
				<v:textRect cx="9.22835" cy="495.012" width="18.46" height="16"/>
				<rect x="0" y="487.012" width="18.4567" height="16" class="st6"/>
				<text x="7" y="497.41" class="st5" v:langID="2057"><v:paragraph v:horizAlign="1"/><v:tabList/>1</text>			</g>
		</g>
		<g id="group95-172" transform="translate(239.768,-261.232)" v:mID="95" v:groupContext="group">
			<title>Sheet.95</title>
			<g id="shape10-173" v:mID="10" v:groupContext="shape">
				<title>Rounded rectangle.10</title>
				<desc>multiRestriction</desc>
				<v:userDefs>
					<v:ud v:nameU="visVersion" v:val="VT0(11):26"/>
				</v:userDefs>
				<v:textBlock v:margins="rect(4,4,4,4)" v:tabSpace="42.5197"/>
				<v:textRect cx="43.937" cy="494.508" width="87.88" height="17.0079"/>
				<path d="M79.37 503.01 A8.504 8.504 -180 0 0 87.87 494.51 A8.504 8.504 -180 0 0 79.37 486 L8.5 486 A8.504 8.504 -180
							 0 0 0 494.51 A8.504 8.504 -180 0 0 8.5 503.01 L79.37 503.01 Z" class="st4"/>
				<text x="16.59" y="496.91" class="st5" v:langID="2057"><v:paragraph v:horizAlign="1"/><v:tabList/>multiRestriction</text>			</g>
			<g id="shape53-176" v:mID="53" v:groupContext="shape" transform="translate(41.0709,-13.7638)">
				<title>Sheet.53</title>
				<desc>1</desc>
				<v:textBlock v:margins="rect(4,4,4,4)" v:tabSpace="42.5197"/>
				<v:textRect cx="9.22835" cy="495.012" width="18.46" height="16"/>
				<rect x="0" y="487.012" width="18.4567" height="16" class="st6"/>
				<text x="7" y="497.41" class="st5" v:langID="2057"><v:paragraph v:horizAlign="1"/><v:tabList/>1</text>			</g>
		</g>
		<g id="shape14-179" v:mID="14" v:groupContext="shape" transform="translate(251.106,-207.169)">
			<title>Rounded rectangle.14</title>
			<desc>restrictionGroup</desc>
			<v:userDefs>
				<v:ud v:nameU="visVersion" v:val="VT0(11):26"/>
			</v:userDefs>
			<v:textBlock v:margins="rect(4,4,4,4)" v:tabSpace="42.5197"/>
			<v:textRect cx="32.5984" cy="494.508" width="65.2" height="17.0079"/>
			<path d="M56.69 503.01 A8.504 8.504 -180 0 0 65.2 494.51 A8.504 8.504 -180 0 0 56.69 486 L8.5 486 A8.504 8.504 -180 0
						 0 0 494.51 A8.504 8.504 -180 0 0 8.5 503.01 L56.69 503.01 Z" class="st4"/>
			<text x="4.14" y="496.91" class="st5" v:langID="2057"><v:paragraph v:horizAlign="1"/><v:tabList/>restrictionGroup</text>		</g>
		<g id="shape55-182" v:mID="55" v:groupContext="shape" transform="translate(281.579,-222.555)">
			<title>Sheet.55</title>
			<desc>0..n</desc>
			<v:textBlock v:margins="rect(4,4,4,4)" v:tabSpace="42.5197"/>
			<v:textRect cx="12.7559" cy="495.012" width="25.52" height="16"/>
			<rect x="0" y="487.012" width="25.5118" height="16" class="st6"/>
			<text x="6.08" y="497.41" class="st5" v:langID="2057"><v:paragraph v:horizAlign="1"/><v:tabList/>0..n</text>		</g>
		<g id="group99-185" transform="translate(174.571,-125.972)" v:mID="99" v:groupContext="group">
			<title>Sheet.99</title>
			<g id="shape9-186" v:mID="9" v:groupContext="shape" transform="translate(0,-15.0866)">
				<title>Rounded rectangle.9</title>
				<desc>compoundValueRestriction</desc>
				<v:userDefs>
					<v:ud v:nameU="visVersion" v:val="VT0(11):26"/>
				</v:userDefs>
				<v:textBlock v:margins="rect(4,4,4,4)" v:tabSpace="42.5197"/>
				<v:textRect cx="52.4409" cy="494.508" width="104.89" height="17.0079"/>
				<path d="M96.38 503.01 A8.504 8.504 -180 0 0 104.88 494.51 A8.504 8.504 -180 0 0 96.38 486 L8.5 486 A8.504 8.504
							 -180 0 0 0 494.51 A8.504 8.504 -180 0 0 8.5 503.01 L96.38 503.01 Z" class="st4"/>
				<text x="4.65" y="496.91" class="st5" v:langID="2057"><v:paragraph v:horizAlign="1"/><v:tabList/>compoundValueRestriction</text>			</g>
			<g id="shape60-189" v:mID="60" v:groupContext="shape" transform="translate(51.0236,-30.6772)">
				<title>Sheet.60</title>
				<desc>1</desc>
				<v:textBlock v:margins="rect(4,4,4,4)" v:tabSpace="42.5197"/>
				<v:textRect cx="9.22835" cy="495.012" width="18.46" height="16"/>
				<rect x="0" y="487.012" width="18.4567" height="16" class="st6"/>
				<text x="7" y="497.41" class="st5" v:langID="2057"><v:paragraph v:horizAlign="1"/><v:tabList/>1</text>			</g>
			<g id="shape71-192" v:mID="71" v:groupContext="shape" transform="translate(50.2992,0)">
				<title>Sheet.71</title>
				<desc>1</desc>
				<v:textBlock v:margins="rect(4,4,4,4)" v:tabSpace="42.5197"/>
				<v:textRect cx="9.22835" cy="495.012" width="18.46" height="16"/>
				<rect x="0" y="487.012" width="18.4567" height="16" class="st6"/>
				<text x="7" y="497.41" class="st5" v:langID="2057"><v:paragraph v:horizAlign="1"/><v:tabList/>1</text>			</g>
		</g>
		<g id="group100-195" transform="translate(194.413,-82.9487)" v:mID="100" v:groupContext="group">
			<title>Sheet.100</title>
			<g id="shape17-196" v:mID="17" v:groupContext="shape" transform="translate(5.19584E-014,-14.1732)">
				<title>Rounded rectangle.17</title>
				<desc>‘in’ | ‘not in’</desc>
				<v:userDefs>
					<v:ud v:nameU="visVersion" v:val="VT0(11):26"/>
				</v:userDefs>
				<v:textBlock v:margins="rect(4,4,4,4)" v:tabSpace="42.5197"/>
				<v:textRect cx="32.5984" cy="494.508" width="65.2" height="17.0079"/>
				<path d="M56.69 503.01 A8.504 8.504 -180 0 0 65.2 494.51 A8.504 8.504 -180 0 0 56.69 486 L8.5 486 A8.504 8.504 -180
							 0 0 0 494.51 A8.504 8.504 -180 0 0 8.5 503.01 L56.69 503.01 Z" class="st4"/>
				<text x="12.89" y="496.91" class="st5" v:langID="2057"><v:paragraph v:horizAlign="1"/><v:tabList/>‘in’ | ‘not in’</text>			</g>
			<g id="shape72-199" v:mID="72" v:groupContext="shape" transform="translate(29.7638,-28.3465)">
				<title>Sheet.72</title>
				<desc>1</desc>
				<v:textBlock v:margins="rect(4,4,4,4)" v:tabSpace="42.5197"/>
				<v:textRect cx="9.22835" cy="495.012" width="18.46" height="16"/>
				<rect x="0" y="487.012" width="18.4567" height="16" class="st6"/>
				<text x="7" y="497.41" class="st5" v:langID="2057"><v:paragraph v:horizAlign="1"/><v:tabList/>1</text>			</g>
			<g id="shape73-202" v:mID="73" v:groupContext="shape" transform="translate(29.0394,0)">
				<title>Sheet.73</title>
				<desc>1</desc>
				<v:textBlock v:margins="rect(4,4,4,4)" v:tabSpace="42.5197"/>
				<v:textRect cx="9.22835" cy="495.012" width="18.46" height="16"/>
				<rect x="0" y="487.012" width="18.4567" height="16" class="st6"/>
				<text x="7" y="497.41" class="st5" v:langID="2057"><v:paragraph v:horizAlign="1"/><v:tabList/>1</text>			</g>
		</g>
		<g id="group101-205" transform="translate(201.5,-42.303)" v:mID="101" v:groupContext="group">
			<title>Sheet.101</title>
			<g id="shape63-206" v:mID="63" v:groupContext="shape" transform="translate(3.9968E-015,-14.5827)">
				<title>Rounded rectangle.63</title>
				<desc>value</desc>
				<v:userDefs>
					<v:ud v:nameU="visVersion" v:val="VT0(11):26"/>
				</v:userDefs>
				<v:textBlock v:margins="rect(4,4,4,4)" v:tabSpace="42.5197"/>
				<v:textRect cx="25.5118" cy="494.508" width="51.03" height="17.0079"/>
				<path d="M42.52 503.01 A8.504 8.504 -180 0 0 51.02 494.51 A8.504 8.504 -180 0 0 42.52 486 L8.5 486 A8.504 8.504 -180
							 0 0 0 494.51 A8.504 8.504 -180 0 0 8.5 503.01 L42.52 503.01 Z" class="st4"/>
				<text x="15.94" y="496.91" class="st5" v:langID="2057"><v:paragraph v:horizAlign="1"/><v:tabList/>value</text>			</g>
			<g id="shape74-209" v:mID="74" v:groupContext="shape" transform="translate(24.0945,-29.2598)">
				<title>Sheet.74</title>
				<desc>0..n</desc>
				<v:textBlock v:margins="rect(4,4,4,4)" v:tabSpace="42.5197"/>
				<v:textRect cx="12.7559" cy="495.012" width="25.52" height="16"/>
				<rect x="0" y="487.012" width="25.5118" height="16" class="st6"/>
				<text x="6.08" y="497.41" class="st5" v:langID="2057"><v:paragraph v:horizAlign="1"/><v:tabList/>0..n</text>			</g>
			<g id="shape79-212" v:mID="79" v:groupContext="shape" transform="translate(22.6457,0)">
				<title>Sheet.79</title>
				<desc>1</desc>
				<v:textBlock v:margins="rect(4,4,4,4)" v:tabSpace="42.5197"/>
				<v:textRect cx="9.22835" cy="495.012" width="18.46" height="16"/>
				<rect x="0" y="487.012" width="18.4567" height="16" class="st6"/>
				<text x="7" y="497.41" class="st5" v:langID="2057"><v:paragraph v:horizAlign="1"/><v:tabList/>1</text>			</g>
		</g>
		<g id="group102-215" transform="translate(76.0668,-169.909)" v:mID="102" v:groupContext="group">
			<title>Sheet.102</title>
			<g id="shape61-216" v:mID="61" v:groupContext="shape">
				<title>Rounded rectangle.61</title>
				<desc>returnValue</desc>
				<v:userDefs>
					<v:ud v:nameU="visVersion" v:val="VT0(11):26"/>
				</v:userDefs>
				<v:textBlock v:margins="rect(4,4,4,4)" v:tabSpace="42.5197"/>
				<v:textRect cx="26.5748" cy="494.508" width="53.15" height="17.0079"/>
				<path d="M44.65 503.01 A8.504 8.504 -180 0 0 53.15 494.51 A8.504 8.504 -180 0 0 44.65 486 L8.5 486 A8.504 8.504 -180
							 0 0 0 494.51 A8.504 8.504 -180 0 0 8.5 503.01 L44.65 503.01 Z" class="st4"/>
				<text x="5.9" y="496.91" class="st5" v:langID="2057"><v:paragraph v:horizAlign="1"/><v:tabList/>returnValue</text>			</g>
			<g id="shape76-219" v:mID="76" v:groupContext="shape" transform="translate(24.7874,-14.6772)">
				<title>Sheet.76</title>
				<desc>1</desc>
				<v:textBlock v:margins="rect(4,4,4,4)" v:tabSpace="42.5197"/>
				<v:textRect cx="9.22835" cy="495.012" width="18.46" height="16"/>
				<rect x="0" y="487.012" width="18.4567" height="16" class="st6"/>
				<text x="7" y="497.41" class="st5" v:langID="2057"><v:paragraph v:horizAlign="1"/><v:tabList/>1</text>			</g>
		</g>
		<g id="group103-222" transform="translate(134.886,-169.909)" v:mID="103" v:groupContext="group">
			<title>Sheet.103</title>
			<g id="shape18-223" v:mID="18" v:groupContext="shape">
				<title>Rounded rectangle.18</title>
				<desc>literal</desc>
				<v:userDefs>
					<v:ud v:nameU="visVersion" v:val="VT0(11):26"/>
				</v:userDefs>
				<v:textBlock v:margins="rect(4,4,4,4)" v:tabSpace="42.5197"/>
				<v:textRect cx="19.1339" cy="494.508" width="38.27" height="17.0079"/>
				<path d="M29.76 503.01 A8.504 8.504 -180 0 0 38.27 494.51 A8.504 8.504 -180 0 0 29.76 486 L8.5 486 A8.504 8.504 -180
							 0 0 0 494.51 A8.504 8.504 -180 0 0 8.5 503.01 L29.76 503.01 Z" class="st4"/>
				<text x="9.57" y="496.91" class="st5" v:langID="2057"><v:paragraph v:horizAlign="1"/><v:tabList/>literal</text>			</g>
			<g id="shape77-226" v:mID="77" v:groupContext="shape" transform="translate(16.9764,-13.7638)">
				<title>Sheet.77</title>
				<desc>1</desc>
				<v:textBlock v:margins="rect(4,4,4,4)" v:tabSpace="42.5197"/>
				<v:textRect cx="9.22835" cy="495.012" width="18.46" height="16"/>
				<rect x="0" y="487.012" width="18.4567" height="16" class="st6"/>
				<text x="7" y="497.41" class="st5" v:langID="2057"><v:paragraph v:horizAlign="1"/><v:tabList/>1</text>			</g>
		</g>
		<g id="group104-229" transform="translate(181.657,-168.901)" v:mID="104" v:groupContext="group">
			<title>Sheet.104</title>
			<g id="shape19-230" v:mID="19" v:groupContext="shape">
				<title>Rounded rectangle.19</title>
				<desc>variable</desc>
				<v:userDefs>
					<v:ud v:nameU="visVersion" v:val="VT0(11):26"/>
				</v:userDefs>
				<v:textBlock v:margins="rect(4,4,4,4)" v:tabSpace="42.5197"/>
				<v:textRect cx="19.1339" cy="494.508" width="38.27" height="17.0079"/>
				<path d="M29.76 503.01 A8.504 8.504 -180 0 0 38.27 494.51 A8.504 8.504 -180 0 0 29.76 486 L8.5 486 A8.504 8.504 -180
							 0 0 0 494.51 A8.504 8.504 -180 0 0 8.5 503.01 L29.76 503.01 Z" class="st4"/>
				<text x="5.12" y="496.91" class="st5" v:langID="2057"><v:paragraph v:horizAlign="1"/><v:tabList/>variable</text>			</g>
			<g id="shape78-233" v:mID="78" v:groupContext="shape" transform="translate(16.2992,-13.7638)">
				<title>Sheet.78</title>
				<desc>1</desc>
				<v:textBlock v:margins="rect(4,4,4,4)" v:tabSpace="42.5197"/>
				<v:textRect cx="9.22835" cy="495.012" width="18.46" height="16"/>
				<rect x="0" y="487.012" width="18.4567" height="16" class="st6"/>
				<text x="7" y="497.41" class="st5" v:langID="2057"><v:paragraph v:horizAlign="1"/><v:tabList/>1</text>			</g>
		</g>
		<g id="group105-236" transform="translate(131.342,-206.146)" v:mID="105" v:groupContext="group">
			<title>Sheet.105</title>
			<g id="shape75-237" v:mID="75" v:groupContext="shape" transform="translate(21.9528,0)">
				<title>Sheet.75</title>
				<desc>1</desc>
				<v:textBlock v:margins="rect(4,4,4,4)" v:tabSpace="42.5197"/>
				<v:textRect cx="9.22835" cy="495.012" width="18.46" height="16"/>
				<rect x="0" y="487.012" width="18.4567" height="16" class="st6"/>
				<text x="7" y="497.41" class="st5" v:langID="2057"><v:paragraph v:horizAlign="1"/><v:tabList/>1</text>			</g>
			<g id="group94-240" transform="translate(0,-14.5827)" v:mID="94" v:groupContext="group">
				<title>Sheet.94</title>
				<g id="shape12-241" v:mID="12" v:groupContext="shape">
					<title>Rounded rectangle.12</title>
					<desc>value</desc>
					<v:userDefs>
						<v:ud v:nameU="visVersion" v:val="VT0(11):26"/>
					</v:userDefs>
					<v:textBlock v:margins="rect(4,4,4,4)" v:tabSpace="42.5197"/>
					<v:textRect cx="25.5118" cy="494.508" width="51.03" height="17.0079"/>
					<path d="M42.52 503.01 A8.504 8.504 -180 0 0 51.02 494.51 A8.504 8.504 -180 0 0 42.52 486 L8.5 486 A8.504 8.504
								 -180 0 0 0 494.51 A8.504 8.504 -180 0 0 8.5 503.01 L42.52 503.01 Z" class="st4"/>
					<text x="15.94" y="496.91" class="st5" v:langID="2057"><v:paragraph v:horizAlign="1"/><v:tabList/>value</text>				</g>
				<g id="shape85-244" v:mID="85" v:groupContext="shape" transform="translate(20.5354,-13.2598)">
					<title>Sheet.85</title>
					<desc>1</desc>
					<v:textBlock v:margins="rect(4,4,4,4)" v:tabSpace="42.5197"/>
					<v:textRect cx="9.22835" cy="495.012" width="18.46" height="16"/>
					<rect x="0" y="487.012" width="18.4567" height="16" class="st6"/>
					<text x="7" y="497.41" class="st5" v:langID="2057"><v:paragraph v:horizAlign="1"/><v:tabList/>1</text>				</g>
			</g>
		</g>
		<g id="group106-247" transform="translate(274.492,-0.24)" v:mID="106" v:groupContext="group">
			<title>Sheet.106</title>
			<g id="shape65-248" v:mID="65" v:groupContext="shape">
				<title>Rounded rectangle.65</title>
				<desc>variable</desc>
				<v:userDefs>
					<v:ud v:nameU="visVersion" v:val="VT0(11):26"/>
				</v:userDefs>
				<v:textBlock v:margins="rect(4,4,4,4)" v:tabSpace="42.5197"/>
				<v:textRect cx="19.1339" cy="494.508" width="38.27" height="17.0079"/>
				<path d="M29.76 503.01 A8.504 8.504 -180 0 0 38.27 494.51 A8.504 8.504 -180 0 0 29.76 486 L8.5 486 A8.504 8.504 -180
							 0 0 0 494.51 A8.504 8.504 -180 0 0 8.5 503.01 L29.76 503.01 Z" class="st4"/>
				<text x="5.12" y="496.91" class="st5" v:langID="2057"><v:paragraph v:horizAlign="1"/><v:tabList/>variable</text>			</g>
			<g id="shape82-251" v:mID="82" v:groupContext="shape" transform="translate(16.2677,-14.6772)">
				<title>Sheet.82</title>
				<desc>1</desc>
				<v:textBlock v:margins="rect(4,4,4,4)" v:tabSpace="42.5197"/>
				<v:textRect cx="9.22835" cy="495.012" width="18.46" height="16"/>
				<rect x="0" y="487.012" width="18.4567" height="16" class="st6"/>
				<text x="7" y="497.41" class="st5" v:langID="2057"><v:paragraph v:horizAlign="1"/><v:tabList/>1</text>			</g>
		</g>
		<g id="group107-254" transform="translate(231.972,-0.743937)" v:mID="107" v:groupContext="group">
			<title>Sheet.107</title>
			<g id="shape64-255" v:mID="64" v:groupContext="shape">
				<title>Rounded rectangle.64</title>
				<desc>literal</desc>
				<v:userDefs>
					<v:ud v:nameU="visVersion" v:val="VT0(11):26"/>
				</v:userDefs>
				<v:textBlock v:margins="rect(4,4,4,4)" v:tabSpace="42.5197"/>
				<v:textRect cx="19.1339" cy="494.508" width="38.27" height="17.0079"/>
				<path d="M29.76 503.01 A8.504 8.504 -180 0 0 38.27 494.51 A8.504 8.504 -180 0 0 29.76 486 L8.5 486 A8.504 8.504 -180
							 0 0 0 494.51 A8.504 8.504 -180 0 0 8.5 503.01 L29.76 503.01 Z" class="st4"/>
				<text x="9.57" y="496.91" class="st5" v:langID="2057"><v:paragraph v:horizAlign="1"/><v:tabList/>literal</text>			</g>
			<g id="shape81-258" v:mID="81" v:groupContext="shape" transform="translate(15.5591,-15.5906)">
				<title>Sheet.81</title>
				<desc>1</desc>
				<v:textBlock v:margins="rect(4,4,4,4)" v:tabSpace="42.5197"/>
				<v:textRect cx="9.22835" cy="495.012" width="18.46" height="16"/>
				<rect x="0" y="487.012" width="18.4567" height="16" class="st6"/>
				<text x="7" y="497.41" class="st5" v:langID="2057"><v:paragraph v:horizAlign="1"/><v:tabList/>1</text>			</g>
		</g>
		<g id="group108-261" transform="translate(171.027,-1.15339)" v:mID="108" v:groupContext="group">
			<title>Sheet.108</title>
			<g id="shape68-262" v:mID="68" v:groupContext="shape">
				<title>Rounded rectangle.68</title>
				<desc>returnValue</desc>
				<v:userDefs>
					<v:ud v:nameU="visVersion" v:val="VT0(11):26"/>
				</v:userDefs>
				<v:textBlock v:margins="rect(4,4,4,4)" v:tabSpace="42.5197"/>
				<v:textRect cx="26.5748" cy="494.508" width="53.15" height="17.0079"/>
				<path d="M44.65 503.01 A8.504 8.504 -180 0 0 53.15 494.51 A8.504 8.504 -180 0 0 44.65 486 L8.5 486 A8.504 8.504 -180
							 0 0 0 494.51 A8.504 8.504 -180 0 0 8.5 503.01 L44.65 503.01 Z" class="st4"/>
				<text x="5.9" y="496.91" class="st5" v:langID="2057"><v:paragraph v:horizAlign="1"/><v:tabList/>returnValue</text>			</g>
			<g id="shape80-265" v:mID="80" v:groupContext="shape" transform="translate(23.3701,-14.6772)">
				<title>Sheet.80</title>
				<desc>1</desc>
				<v:textBlock v:margins="rect(4,4,4,4)" v:tabSpace="42.5197"/>
				<v:textRect cx="9.22835" cy="495.012" width="18.46" height="16"/>
				<rect x="0" y="487.012" width="18.4567" height="16" class="st6"/>
				<text x="7" y="497.41" class="st5" v:langID="2057"><v:paragraph v:horizAlign="1"/><v:tabList/>1</text>			</g>
		</g>
		<g id="shape46-268" v:mID="46" v:groupContext="shape" transform="translate(192.287,-422.476)">
			<title>Rounded rectangle.46</title>
			<desc>constraint</desc>
			<v:userDefs>
				<v:ud v:nameU="visVersion" v:val="VT0(11):26"/>
			</v:userDefs>
			<v:textBlock v:margins="rect(4,4,4,4)" v:tabSpace="42.5197"/>
			<v:textRect cx="32.5984" cy="494.508" width="65.2" height="17.0079"/>
			<path d="M56.69 503.01 A8.504 8.504 -180 0 0 65.2 494.51 A8.504 8.504 -180 0 0 56.69 486 L8.5 486 A8.504 8.504 -180 0
						 0 0 494.51 A8.504 8.504 -180 0 0 8.5 503.01 L56.69 503.01 Z" class="st4"/>
			<text x="15.26" y="496.91" class="st5" v:langID="2057"><v:paragraph v:horizAlign="1"/><v:tabList/>constraint</text>		</g>
		<g id="shape87-271" v:mID="87" v:groupContext="shape" transform="translate(227.012,-366.413)">
			<title>Rounded rectangle.87</title>
			<desc>InlineEval</desc>
			<v:userDefs>
				<v:ud v:nameU="visVersion" v:val="VT0(11):26"/>
			</v:userDefs>
			<v:textBlock v:margins="rect(4,4,4,4)" v:tabSpace="42.5197"/>
			<v:textRect cx="32.5984" cy="494.508" width="65.2" height="17.0079"/>
			<path d="M56.69 503.01 A8.504 8.504 -180 0 0 65.2 494.51 A8.504 8.504 -180 0 0 56.69 486 L8.5 486 A8.504 8.504 -180 0
						 0 0 494.51 A8.504 8.504 -180 0 0 8.5 503.01 L56.69 503.01 Z" class="st4"/>
			<text x="15.26" y="496.91" class="st5" v:langID="2057"><v:paragraph v:horizAlign="1"/><v:tabList/>InlineEval</text>		</g>
		<g id="shape88-274" v:mID="88" v:groupContext="shape" v:layerMember="0" transform="translate(259.61,-383.421)">
			<title>Dynamic connector.88</title>
			<v:userDefs>
				<v:ud v:nameU="visVersion" v:val="VT0(11):26"/>
			</v:userDefs>
			<path d="M0 495.09 L0 494.73 L0 485.09 L-34.72 485.09 L-34.72 463.96" class="st1"/>
		</g>
		<g id="shape97-279" v:mID="97" v:groupContext="shape" v:layerMember="0" transform="translate(188.744,-382.618)">
			<title>Dynamic connector.97</title>
			<v:userDefs>
				<v:ud v:nameU="visVersion" v:val="VT0(11):26"/>
			</v:userDefs>
			<path d="M0 495.09 L0 494.73 L0 484.29 L36.14 484.29 L36.14 463.15" class="st1"/>
		</g>
		<g id="shape109-284" v:mID="109" v:groupContext="shape" v:layerMember="0" transform="translate(156.854,-220.728)">
			<title>Dynamic connector.109</title>
			<v:userDefs>
				<v:ud v:nameU="visVersion" v:val="VT0(11):26"/>
			</v:userDefs>
			<path d="M0 503.01 L0 514.38 L-121.18 514.38 L-121.18 528.34" class="st3"/>
		</g>
		<g id="group112-289" transform="translate(0.24,-170.114)" v:mID="112" v:groupContext="group">
			<title>Sheet.112</title>
			<g id="shape110-290" v:mID="110" v:groupContext="shape">
				<title>Rounded rectangle.61</title>
				<desc>qualifiedIdentifier</desc>
				<v:userDefs>
					<v:ud v:nameU="visVersion" v:val="VT0(11):26"/>
				</v:userDefs>
				<v:textBlock v:margins="rect(4,4,4,4)" v:tabSpace="42.5197"/>
				<v:textRect cx="35.4331" cy="494.508" width="70.87" height="17.0079"/>
				<path d="M62.36 503.01 A8.504 8.504 -180 0 0 70.87 494.51 A8.504 8.504 -180 0 0 62.36 486 L8.5 486 A8.504 8.504 -180
							 0 0 0 494.51 A8.504 8.504 -180 0 0 8.5 503.01 L62.36 503.01 Z" class="st4"/>
				<text x="5.18" y="496.91" class="st5" v:langID="2057"><v:paragraph v:horizAlign="1"/><v:tabList/>qualifiedIdentifier</text>			</g>
			<g id="shape111-293" v:mID="111" v:groupContext="shape" transform="translate(31.1811,-14.1732)">
				<title>Sheet.111</title>
				<desc>1</desc>
				<v:textBlock v:margins="rect(4,4,4,4)" v:tabSpace="42.5197"/>
				<v:textRect cx="9.22835" cy="495.012" width="18.46" height="16"/>
				<rect x="0" y="487.012" width="18.4567" height="16" class="st6"/>
				<text x="7" y="497.41" class="st5" v:langID="2057"><v:paragraph v:horizAlign="1"/><v:tabList/>1</text>			</g>
		</g>
		<g id="shape113-296" v:mID="113" v:groupContext="shape" v:layerMember="0" transform="translate(227.012,-56.8857)">
			<title>Dynamic connector.113</title>
			<v:userDefs>
				<v:ud v:nameU="visVersion" v:val="VT0(11):26"/>
			</v:userDefs>
			<path d="M0 503.01 L0 524.67 L-95.67 524.67 L-95.67 533.96" class="st3"/>
		</g>
		<g id="group114-301" transform="translate(95.9093,-0.649449)" v:mID="114" v:groupContext="group">
			<title>Sheet.114</title>
			<g id="shape115-302" v:mID="115" v:groupContext="shape">
				<title>Rounded rectangle.61</title>
				<desc>qualifiedIdentifier</desc>
				<v:userDefs>
					<v:ud v:nameU="visVersion" v:val="VT0(11):26"/>
				</v:userDefs>
				<v:textBlock v:margins="rect(4,4,4,4)" v:tabSpace="42.5197"/>
				<v:textRect cx="35.4331" cy="494.508" width="70.87" height="17.0079"/>
				<path d="M62.36 503.01 A8.504 8.504 -180 0 0 70.87 494.51 A8.504 8.504 -180 0 0 62.36 486 L8.5 486 A8.504 8.504 -180
							 0 0 0 494.51 A8.504 8.504 -180 0 0 8.5 503.01 L62.36 503.01 Z" class="st4"/>
				<text x="5.18" y="496.91" class="st5" v:langID="2057"><v:paragraph v:horizAlign="1"/><v:tabList/>qualifiedIdentifier</text>			</g>
			<g id="shape116-305" v:mID="116" v:groupContext="shape" transform="translate(31.1811,-14.1732)">
				<title>Sheet.116</title>
				<desc>1</desc>
				<v:textBlock v:margins="rect(4,4,4,4)" v:tabSpace="42.5197"/>
				<v:textRect cx="9.22835" cy="495.012" width="18.46" height="16"/>
				<rect x="0" y="487.012" width="18.4567" height="16" class="st6"/>
				<text x="7" y="497.41" class="st5" v:langID="2057"><v:paragraph v:horizAlign="1"/><v:tabList/>1</text>			</g>
		</g>
		<g id="shape3-308" v:mID="3" v:groupContext="shape" transform="translate(210.681,-406.886)">
			<title>Sheet.3</title>
			<desc>1</desc>
			<v:textBlock v:margins="rect(4,4,4,4)" v:tabSpace="42.5197"/>
			<v:textRect cx="9.22835" cy="495.012" width="18.46" height="16"/>
			<rect x="0" y="487.012" width="18.4567" height="16" class="st6"/>
			<text x="7" y="497.41" class="st5" v:langID="2057"><v:paragraph v:horizAlign="1"/><v:tabList/>1</text>		</g>
		<g id="shape43-311" v:mID="43" v:groupContext="shape" transform="translate(105.799,-377.752)">
			<title>Sheet.43</title>
			<desc>0..n</desc>
			<v:textBlock v:margins="rect(4,4,4,4)" v:tabSpace="42.5197"/>
			<v:textRect cx="12.063" cy="495.012" width="24.13" height="16"/>
			<rect x="0" y="487.012" width="24.126" height="16" class="st6"/>
			<text x="5.4" y="497.41" class="st5" v:langID="2057"><v:paragraph v:horizAlign="1"/><v:tabList/>0..n</text>		</g>
		<g id="shape45-314" v:mID="45" v:groupContext="shape" transform="translate(186.618,-380.586)">
			<title>Sheet.45</title>
			<desc>0..n</desc>
			<v:textBlock v:margins="rect(4,4,4,4)" v:tabSpace="42.5197"/>
			<v:textRect cx="12.063" cy="495.012" width="24.13" height="16"/>
			<rect x="0" y="487.012" width="24.126" height="16" class="st6"/>
			<text x="5.4" y="497.41" class="st5" v:langID="2057"><v:paragraph v:horizAlign="1"/><v:tabList/>0..n</text>		</g>
		<g id="shape49-317" v:mID="49" v:groupContext="shape" transform="translate(257.484,-381.09)">
			<title>Sheet.49</title>
			<desc>0..n</desc>
			<v:textBlock v:margins="rect(4,4,4,4)" v:tabSpace="42.5197"/>
			<v:textRect cx="12.063" cy="495.012" width="24.13" height="16"/>
			<rect x="0" y="487.012" width="24.126" height="16" class="st6"/>
			<text x="5.4" y="497.41" class="st5" v:langID="2057"><v:paragraph v:horizAlign="1"/><v:tabList/>0..n</text>		</g>
		<g id="shape86-320" v:mID="86" v:groupContext="shape" transform="translate(167.468,-415.232)">
			<title>Sheet.86</title>
			<desc>0..n</desc>
			<v:textBlock v:margins="rect(4,4,4,4)" v:tabSpace="42.5197"/>
			<v:textRect cx="12.063" cy="495.012" width="24.13" height="16"/>
			<rect x="0" y="487.012" width="24.126" height="16" class="st6"/>
			<text x="5.4" y="497.41" class="st5" v:langID="2057"><v:paragraph v:horizAlign="1"/><v:tabList/>0..n</text>		</g>
		<g id="shape23-323" v:mID="23" v:groupContext="shape" transform="translate(278.744,-245.437)">
			<title>Sheet.23</title>
			<desc>1</desc>
			<v:textBlock v:margins="rect(4,4,4,4)" v:tabSpace="42.5197"/>
			<v:textRect cx="9.22835" cy="495.012" width="18.46" height="16"/>
			<rect x="0" y="487.012" width="18.4567" height="16" class="st6"/>
			<text x="7" y="497.41" class="st5" v:langID="2057"><v:paragraph v:horizAlign="1"/><v:tabList/>1</text>		</g>
		<g id="shape117-326" v:mID="117" v:groupContext="shape" v:layerMember="0" transform="translate(327.642,-269.736)">
			<title>Dynamic connector.117</title>
			<v:userDefs>
				<v:ud v:nameU="visVersion" v:val="VT0(11):26"/>
			</v:userDefs>
			<path d="M0 503.01 L36.14 503.01 L36.14 457.41 L-59.75 457.41" class="st3"/>
		</g>
		<g id="shape118-331" v:mID="118" v:groupContext="shape" transform="translate(324.067,-266.697)">
			<title>Sheet.118</title>
			<desc>1</desc>
			<v:textBlock v:margins="rect(4,4,4,4)" v:tabSpace="42.5197"/>
			<v:textRect cx="9.22835" cy="495.012" width="18.46" height="16"/>
			<rect x="0" y="487.012" width="18.4567" height="16" class="st6"/>
			<text x="7" y="497.41" class="st5" v:langID="2057"><v:paragraph v:horizAlign="1"/><v:tabList/>1</text>		</g>
		<g id="shape119-334" v:mID="119" v:groupContext="shape" transform="translate(256.067,-301.72)">
			<title>Sheet.119</title>
			<desc>0..n</desc>
			<v:textBlock v:margins="rect(4,4,4,4)" v:tabSpace="42.5197"/>
			<v:textRect cx="12.7559" cy="495.012" width="25.52" height="16"/>
			<rect x="0" y="487.012" width="25.5118" height="16" class="st6"/>
			<text x="6.08" y="497.41" class="st5" v:langID="2057"><v:paragraph v:horizAlign="1"/><v:tabList/>0..n</text>		</g>
		<g id="shape13-337" v:mID="13" v:groupContext="shape" transform="translate(309.925,-211.925)">
			<title>Sheet.13</title>
			<desc>1</desc>
			<v:textBlock v:margins="rect(4,4,4,4)" v:tabSpace="42.5197"/>
			<v:textRect cx="9.22835" cy="495.012" width="18.46" height="16"/>
			<rect x="0" y="487.012" width="18.4567" height="16" class="st6"/>
			<text x="7" y="497.41" class="st5" v:langID="2057"><v:paragraph v:horizAlign="1"/><v:tabList/>1</text>		</g>
	</g>
</svg>
