<?xml version="1.0" encoding="UTF-8" standalone="no"?>
<!DOCTYPE svg PUBLIC "-//W3C//DTD SVG 1.0//EN" "http://www.w3.org/TR/2001/REC-SVG-20010904/DTD/svg10.dtd">
<!-- Generated by Microsoft Visio 11.0, SVG Export, v1.0 compoundValueRestriction.svg Page-1 -->
<svg xmlns="http://www.w3.org/2000/svg" xmlns:v="http://schemas.microsoft.com/visio/2003/SVGExtensions/" width="6.35367in"
		height="2.35807in" viewBox="0 0 457.464 169.781" xml:space="preserve" color-interpolation-filters="sRGB" class="st7">
	<v:documentProperties v:langID="1033" v:metric="true" v:viewMarkup="false"/>

	<style type="text/css">
	<![CDATA[
		.st1 {fill:#e8eef7;stroke:#000000;stroke-linecap:round;stroke-linejoin:round;stroke-width:0.24}
		.st2 {marker-end:url(#mrkr2-8);stroke:#4677bf;stroke-linecap:round;stroke-linejoin:round;stroke-width:0.24}
		.st3 {fill:#4677bf;fill-opacity:1;stroke:#4677bf;stroke-opacity:1;stroke-width:0.08695652173913}
		.st4 {fill:#000000;font-family:Arial;font-size:0.666664em;font-style:italic}
		.st5 {fill:#000000;font-family:Arial;font-size:0.666664em}
		.st6 {font-size:1em}
		.st7 {fill:none;fill-rule:evenodd;font-size:12;overflow:visible;stroke-linecap:square;stroke-miterlimit:3}
	]]>
	</style>

	<defs id="Markers">
		<g id="lend2">
			<path d="M 1 1 L 0 0 L 1 -1 L 1 1 " style="stroke:none"/>
		</g>
		<marker id="mrkr2-8" class="st3" v:arrowType="2" v:arrowSize="2" v:setback="11.5" refX="-11.5" orient="auto"
				markerUnits="strokeWidth">
			<use xlink:href="#lend2" transform="scale(-11.5,-11.5) "/>
		</marker>
	</defs>
	<g v:mID="0" v:index="1" v:groupContext="foregroundPage">
		<title>Page-1</title>
		<v:pageProperties v:drawingScale="0.0393701" v:pageScale="0.0393701" v:drawingUnits="24" v:shadowOffsetX="8.50394"
				v:shadowOffsetY="-8.50394"/>
		<v:layer v:name="Connector" v:index="0"/>
		<v:layer v:name="Flowchart" v:index="1"/>
		<g id="shape81-1" v:mID="81" v:groupContext="shape" v:layerMember="0;1" transform="translate(445.76,-142.801)">
			<title>On-page reference.66</title>
			<v:userDefs>
				<v:ud v:nameU="visVersion" v:val="VT0(11):26"/>
			</v:userDefs>
			<v:textBlock v:margins="rect(2,2,2,2)" v:tabSpace="42.5197"/>
			<path d="M0 164.05 A5.73228 5.73228 0 0 1 11.46 164.05 A5.73228 5.73228 0 1 1 0 164.05 Z" class="st1"/>
		</g>
		<g id="shape82-3" v:mID="82" v:groupContext="shape" v:layerMember="0" transform="translate(96.618,-129.163)">
			<title>Dynamic connector.83</title>
			<path d="M0 162.69 L26.07 162.69" class="st2"/>
		</g>
		<g id="shape83-9" v:mID="83" v:groupContext="shape" v:layerMember="1" transform="translate(40.2069,-129.699)">
			<title>Process.95</title>
			<desc>‘in’ | ‘not in’</desc>
			<v:custProps>
				<v:cp v:nameU="Cost" v:lbl="Cost" v:type="7" v:format="@" v:langID="1033"/>
				<v:cp v:nameU="Duration" v:lbl="Duration" v:type="2" v:langID="1033"/>
				<v:cp v:nameU="Resources" v:lbl="Resources" v:langID="1033"/>
			</v:custProps>
			<v:userDefs>
				<v:ud v:nameU="visVersion" v:val="VT0(11):26"/>
			</v:userDefs>
			<v:textBlock v:margins="rect(2,2,2,2)" v:tabSpace="42.5197"/>
			<v:textRect cx="28.2055" cy="163.23" width="56.42" height="13.1024"/>
			<rect x="0" y="156.679" width="56.4111" height="13.1024" rx="2.83465" ry="2.83465" class="st1"/>
			<text x="8.49" y="165.63" class="st4" v:langID="2057"><v:paragraph v:horizAlign="1"/><v:tabList/>‘in’ | ‘not in’</text>		</g>
		<g id="shape84-12" v:mID="84" v:groupContext="shape" v:layerMember="0;1" transform="translate(0.24,-130.517)">
			<title>On-page reference.96</title>
			<v:userDefs>
				<v:ud v:nameU="visVersion" v:val="VT0(11):26"/>
			</v:userDefs>
			<v:textBlock v:margins="rect(2,2,2,2)" v:tabSpace="42.5197"/>
			<path d="M0 164.05 A5.73228 5.73228 0 0 1 11.46 164.05 A5.73228 5.73228 0 1 1 0 164.05 Z" class="st1"/>
		</g>
		<g id="shape85-14" v:mID="85" v:groupContext="shape" v:layerMember="0" transform="translate(11.7046,-129.163)">
			<title>Dynamic connector.85</title>
			<path d="M0 162.69 L25.74 162.69" class="st2"/>
		</g>
		<g id="shape86-19" v:mID="86" v:groupContext="shape" v:layerMember="1" transform="translate(406.119,-141.557)">
			<title>Process.67</title>
			<desc>‘)‘</desc>
			<v:custProps>
				<v:cp v:nameU="Cost" v:lbl="Cost" v:type="7" v:format="@" v:langID="1033"/>
				<v:cp v:nameU="Duration" v:lbl="Duration" v:type="2" v:langID="1033"/>
				<v:cp v:nameU="Resources" v:lbl="Resources" v:langID="1033"/>
			</v:custProps>
			<v:userDefs>
				<v:ud v:nameU="visVersion" v:val="VT0(11):26"/>
			</v:userDefs>
			<v:textBlock v:margins="rect(2,2,2,2)" v:tabSpace="42.5197"/>
			<v:textRect cx="10.6844" cy="162.658" width="21.37" height="14.2459"/>
			<rect x="0" y="155.535" width="21.3689" height="14.2459" rx="2.83465" ry="2.83465" class="st1"/>
			<text x="7.57" y="165.06" class="st5" v:langID="1033"><v:paragraph v:horizAlign="1"/><v:tabList/>‘<tspan class="st6"
						v:langID="2057">)</tspan>‘</text>		</g>
		<g id="shape87-23" v:mID="87" v:groupContext="shape" v:layerMember="1" transform="translate(125.446,-129.127)">
			<title>Process.87</title>
			<desc>‘(‘</desc>
			<v:custProps>
				<v:cp v:nameU="Cost" v:lbl="Cost" v:type="7" v:format="@" v:langID="1033"/>
				<v:cp v:nameU="Duration" v:lbl="Duration" v:type="2" v:langID="1033"/>
				<v:cp v:nameU="Resources" v:lbl="Resources" v:langID="1033"/>
			</v:custProps>
			<v:userDefs>
				<v:ud v:nameU="visVersion" v:val="VT0(11):26"/>
			</v:userDefs>
			<v:textBlock v:margins="rect(2,2,2,2)" v:tabSpace="42.5197"/>
			<v:textRect cx="10.6844" cy="162.658" width="21.37" height="14.2459"/>
			<rect x="0" y="155.535" width="21.3689" height="14.2459" rx="2.83465" ry="2.83465" class="st1"/>
			<text x="7.57" y="165.06" class="st5" v:langID="1033"><v:paragraph v:horizAlign="1"/><v:tabList/>‘<tspan class="st6"
						v:langID="2057">(</tspan>‘</text>		</g>
		<g id="shape88-27" v:mID="88" v:groupContext="shape" v:layerMember="1" transform="translate(264.386,-117.39)">
			<title>Process.98</title>
			<desc>‘,‘</desc>
			<v:custProps>
				<v:cp v:nameU="Cost" v:lbl="Cost" v:type="7" v:format="@" v:langID="1033"/>
				<v:cp v:nameU="Duration" v:lbl="Duration" v:type="2" v:langID="1033"/>
				<v:cp v:nameU="Resources" v:lbl="Resources" v:langID="1033"/>
			</v:custProps>
			<v:userDefs>
				<v:ud v:nameU="visVersion" v:val="VT0(11):26"/>
			</v:userDefs>
			<v:textBlock v:margins="rect(2,2,2,2)" v:tabSpace="42.5197"/>
			<v:textRect cx="10.6844" cy="162.658" width="21.37" height="14.2459"/>
			<rect x="0" y="155.535" width="21.3689" height="14.2459" rx="2.83465" ry="2.83465" class="st1"/>
			<text x="7.79" y="165.06" class="st5" v:langID="1033"><v:paragraph v:horizAlign="1"/><v:tabList/>‘<tspan class="st6"
						v:langID="2057">,</tspan>‘</text>		</g>
		<g id="shape89-31" v:mID="89" v:groupContext="shape" v:layerMember="1" transform="translate(178.693,-156.439)">
			<title>Process.40</title>
			<desc>variable</desc>
			<v:custProps>
				<v:cp v:nameU="Cost" v:lbl="Cost" v:type="7" v:format="@" v:langID="1033"/>
				<v:cp v:nameU="Duration" v:lbl="Duration" v:type="2" v:langID="1033"/>
				<v:cp v:nameU="Resources" v:lbl="Resources" v:langID="1033"/>
			</v:custProps>
			<v:userDefs>
				<v:ud v:nameU="visVersion" v:val="VT0(11):26"/>
			</v:userDefs>
			<v:textBlock v:margins="rect(2,2,2,2)" v:tabSpace="42.5197"/>
			<v:textRect cx="20.6255" cy="163.23" width="41.26" height="13.1024"/>
			<rect x="0" y="156.679" width="41.2511" height="13.1024" rx="2.83465" ry="2.83465" class="st1"/>
			<text x="6.62" y="165.63" class="st4" v:langID="2057"><v:paragraph v:horizAlign="1"/><v:tabList/>variable</text>		</g>
		<g id="shape90-34" v:mID="90" v:groupContext="shape" v:layerMember="1" transform="translate(180.204,-129.777)">
			<title>Process.41</title>
			<desc>literal</desc>
			<v:custProps>
				<v:cp v:nameU="Cost" v:lbl="Cost" v:type="7" v:format="@" v:langID="1033"/>
				<v:cp v:nameU="Duration" v:lbl="Duration" v:type="2" v:langID="1033"/>
				<v:cp v:nameU="Resources" v:lbl="Resources" v:langID="1033"/>
			</v:custProps>
			<v:userDefs>
				<v:ud v:nameU="visVersion" v:val="VT0(11):26"/>
			</v:userDefs>
			<v:textBlock v:margins="rect(2,2,2,2)" v:tabSpace="42.5197"/>
			<v:textRect cx="20.6255" cy="163.23" width="41.26" height="13.1024"/>
			<rect x="0" y="156.679" width="41.2511" height="13.1024" rx="2.83465" ry="2.83465" class="st1"/>
			<text x="11.07" y="165.63" class="st4" v:langID="2057"><v:paragraph v:horizAlign="1"/><v:tabList/>literal</text>		</g>
		<g id="shape91-37" v:mID="91" v:groupContext="shape" v:layerMember="1" transform="translate(178.693,-103.116)">
			<title>Process.4</title>
			<desc>returnValue</desc>
			<v:custProps>
				<v:cp v:nameU="Cost" v:lbl="Cost" v:type="7" v:format="@" v:langID="1033"/>
				<v:cp v:nameU="Duration" v:lbl="Duration" v:type="2" v:langID="1033"/>
				<v:cp v:nameU="Resources" v:lbl="Resources" v:langID="1033"/>
			</v:custProps>
			<v:userDefs>
				<v:ud v:nameU="visVersion" v:val="VT0(11):26"/>
			</v:userDefs>
			<v:textBlock v:margins="rect(2,2,2,2)" v:tabSpace="42.5197"/>
			<v:textRect cx="24.1688" cy="163.23" width="48.34" height="13.1024"/>
			<rect x="0" y="156.679" width="48.3377" height="13.1024" rx="2.83465" ry="2.83465" class="st1"/>
			<text x="3.5" y="165.63" class="st4" v:langID="2057"><v:paragraph v:horizAlign="1"/><v:tabList/>returnValue</text>		</g>
		<g id="shape92-40" v:mID="92" v:groupContext="shape" v:layerMember="1" transform="translate(313.338,-117.824)">
			<title>Process.5</title>
			<desc>variable</desc>
			<v:custProps>
				<v:cp v:nameU="Cost" v:lbl="Cost" v:type="7" v:format="@" v:langID="1033"/>
				<v:cp v:nameU="Duration" v:lbl="Duration" v:type="2" v:langID="1033"/>
				<v:cp v:nameU="Resources" v:lbl="Resources" v:langID="1033"/>
			</v:custProps>
			<v:userDefs>
				<v:ud v:nameU="visVersion" v:val="VT0(11):26"/>
			</v:userDefs>
			<v:textBlock v:margins="rect(2,2,2,2)" v:tabSpace="42.5197"/>
			<v:textRect cx="20.6255" cy="163.23" width="41.26" height="13.1024"/>
			<rect x="0" y="156.679" width="41.2511" height="13.1024" rx="2.83465" ry="2.83465" class="st1"/>
			<text x="6.62" y="165.63" class="st4" v:langID="2057"><v:paragraph v:horizAlign="1"/><v:tabList/>variable</text>		</g>
		<g id="shape93-43" v:mID="93" v:groupContext="shape" v:layerMember="1" transform="translate(316.807,-73.8875)">
			<title>Process.11</title>
			<desc>literal</desc>
			<v:custProps>
				<v:cp v:nameU="Cost" v:lbl="Cost" v:type="7" v:format="@" v:langID="1033"/>
				<v:cp v:nameU="Duration" v:lbl="Duration" v:type="2" v:langID="1033"/>
				<v:cp v:nameU="Resources" v:lbl="Resources" v:langID="1033"/>
			</v:custProps>
			<v:userDefs>
				<v:ud v:nameU="visVersion" v:val="VT0(11):26"/>
			</v:userDefs>
			<v:textBlock v:margins="rect(2,2,2,2)" v:tabSpace="42.5197"/>
			<v:textRect cx="20.6255" cy="163.23" width="41.26" height="13.1024"/>
			<rect x="0" y="156.679" width="41.2511" height="13.1024" rx="2.83465" ry="2.83465" class="st1"/>
			<text x="11.07" y="165.63" class="st4" v:langID="2057"><v:paragraph v:horizAlign="1"/><v:tabList/>literal</text>		</g>
		<g id="shape94-46" v:mID="94" v:groupContext="shape" v:layerMember="1" transform="translate(321.768,-46.4229)">
			<title>Process.12</title>
			<desc>returnValue</desc>
			<v:custProps>
				<v:cp v:nameU="Cost" v:lbl="Cost" v:type="7" v:format="@" v:langID="1033"/>
				<v:cp v:nameU="Duration" v:lbl="Duration" v:type="2" v:langID="1033"/>
				<v:cp v:nameU="Resources" v:lbl="Resources" v:langID="1033"/>
			</v:custProps>
			<v:userDefs>
				<v:ud v:nameU="visVersion" v:val="VT0(11):26"/>
			</v:userDefs>
			<v:textBlock v:margins="rect(2,2,2,2)" v:tabSpace="42.5197"/>
			<v:textRect cx="24.1688" cy="163.23" width="48.34" height="13.1024"/>
			<rect x="0" y="156.679" width="48.3377" height="13.1024" rx="2.83465" ry="2.83465" class="st1"/>
			<text x="3.5" y="165.63" class="st4" v:langID="2057"><v:paragraph v:horizAlign="1"/><v:tabList/>returnValue</text>		</g>
		<g id="shape95-49" v:mID="95" v:groupContext="shape" v:layerMember="0" transform="translate(146.815,-136.25)">
			<title>Dynamic connector.33</title>
			<path d="M0 169.78 L5.31 169.78 A5.31496 5.31496 -180 0 0 10.63 164.47 L10.63 148.71 A5.66929 5.66929 0 0 1 16.3 143.04
						 L29.12 143.04" class="st2"/>
		</g>
		<g id="shape96-54" v:mID="96" v:groupContext="shape" v:layerMember="0" transform="translate(146.815,-129.202)">
			<title>Dynamic connector.53</title>
			<path d="M0 162.73 L10.59 162.73 a0.0393701 0.0393701 -180 0 0 0.0393701 -0.0393701 L10.63 162.69 a0.0393701 0.0393701
						 0 0 1 0.0393701 -0.0393701 L30.63 162.66" class="st2"/>
		</g>
		<g id="shape97-59" v:mID="97" v:groupContext="shape" v:layerMember="0" transform="translate(146.815,-136.25)">
			<title>Dynamic connector.54</title>
			<path d="M0 169.78 L5.31 169.78 A5.31496 5.31496 0 0 1 10.63 175.1 L10.63 190.69 A5.66929 5.66929 -180 0 0 16.3 196.36
						 L29.12 196.36" class="st2"/>
		</g>
		<g id="shape98-64" v:mID="98" v:groupContext="shape" v:layerMember="0" transform="translate(285.755,-131.531)">
			<title>Dynamic connector.114</title>
			<path d="M0 176.8 L10.56 176.8 a0.0684434 0.0684434 0 0 1 0.0684434 0.0684434 L10.63 176.87 a0.0684434 0.0684434 -180
						 0 0 0.0684434 0.0684434 L24.82 176.94" class="st2"/>
		</g>
		<g id="shape99-69" v:mID="99" v:groupContext="shape" v:layerMember="0" transform="translate(285.755,-124.513)">
			<title>Dynamic connector.99</title>
			<path d="M0 169.78 L5.31 169.78 A5.31496 5.31496 0 0 1 10.63 175.1 L10.63 235.65 A5.66929 5.66929 -180 0 0 16.3 241.32
						 L33.25 241.32" class="st2"/>
		</g>
		<g id="shape100-74" v:mID="100" v:groupContext="shape" v:layerMember="0" transform="translate(285.755,-124.513)">
			<title>Dynamic connector.116</title>
			<path d="M0 169.78 L5.31 169.78 A5.31496 5.31496 0 0 1 10.63 175.1 L10.63 208.19 A5.66929 5.66929 -180 0 0 16.3 213.85
						 L28.29 213.85" class="st2"/>
		</g>
		<g id="shape101-79" v:mID="101" v:groupContext="shape" v:layerMember="0" transform="translate(219.944,-162.99)">
			<title>Dynamic connector.101</title>
			<path d="M0 169.78 L12.61 169.78 A5.66929 5.66929 0 0 1 18.28 175.45 L18.28 178.42 A5.66929 5.66929 -180 0 0 23.95 184.09
						 L183.41 184.09" class="st2"/>
		</g>
		<g id="shape102-84" v:mID="102" v:groupContext="shape" v:layerMember="0" transform="translate(354.589,-124.376)">
			<title>Dynamic connector.102</title>
			<path d="M0 169.78 L20.48 169.78 A5.66929 5.66929 -180 0 0 26.15 164.11 L26.15 151.15 A5.66929 5.66929 0 0 1 31.82 145.48
						 L48.77 145.48" class="st2"/>
		</g>
		<g id="shape103-89" v:mID="103" v:groupContext="shape" v:layerMember="0" transform="translate(358.058,-80.4387)">
			<title>Dynamic connector.103</title>
			<path d="M0 169.78 L17.01 169.78 A5.66929 5.66929 -180 0 0 22.68 164.11 L22.68 107.21 A5.66929 5.66929 0 0 1 28.35 101.54
						 L45.3 101.54" class="st2"/>
		</g>
		<g id="shape104-94" v:mID="104" v:groupContext="shape" v:layerMember="0" transform="translate(370.106,-52.9741)">
			<title>Dynamic connector.104</title>
			<path d="M0 169.78 L12.05 169.78 A5.66929 5.66929 -180 0 0 17.72 164.11 L17.72 79.74 A5.66929 5.66929 0 0 1 23.39 74.08
						 L33.25 74.08" class="st2"/>
		</g>
		<g id="shape105-99" v:mID="105" v:groupContext="shape" v:layerMember="0" transform="translate(354.589,-120.919)">
			<title>Dynamic connector.105</title>
			<path d="M0 166.32 L5.31 166.32 A5.31496 5.31496 -180 0 0 10.63 161.01 L10.63 147.69 A5.66929 5.66929 -180 0 0 4.96 142.02
						 L-73.85 142.02 A5.66929 5.66929 -180 0 0 -79.52 147.69 L-79.52 156.3" class="st2"/>
		</g>
		<g id="shape106-104" v:mID="106" v:groupContext="shape" v:layerMember="0" transform="translate(370.106,-52.9741)">
			<title>Dynamic connector.106</title>
			<path d="M0 169.78 L5.6 169.78 A5.60486 5.60486 0 0 1 11.21 175.39 L11.21 178.82 A5.66929 5.66929 0 0 1 5.54 184.49 L-68.37
						 184.49 A5.66929 5.66929 0 0 1 -72.39 182.82 A2.3622 2.3622 -180 0 0 -75.73 182.82 A5.66929 5.66929 0 0 1
						 -79.75 184.49 L-89.37 184.49 A5.66929 5.66929 0 0 1 -95.03 178.82 L-95.03 108.13" class="st2"/>
		</g>
		<g id="shape107-109" v:mID="107" v:groupContext="shape" v:layerMember="0" transform="translate(358.058,-80.4387)">
			<title>Dynamic connector.107</title>
			<path d="M0 169.78 L5.74 169.78 A5.66929 5.66929 -180 0 0 11.41 164.11 L11.41 153.25 A5.66929 5.66929 -180 0 0 5.74 147.58
						 L-55.92 147.58 A5.66929 5.66929 0 0 1 -60.01 145.83 A2.53119 2.53119 -180 0 0 -63.67 145.83 A5.66929 5.66929
						 0 0 1 -67.77 147.58 L-77.32 147.58 A5.66929 5.66929 0 0 1 -82.99 141.91 L-82.99 135.59" class="st2"/>
		</g>
		<g id="shape108-114" v:mID="108" v:groupContext="shape" v:layerMember="0" transform="translate(221.455,-137.507)">
			<title>Dynamic connector.125</title>
			<path d="M0 170.96 L10.62 170.96 A5.66929 5.66929 0 0 1 16.29 176.63 L16.29 177.11 A5.66929 5.66929 -180 0 0 21.96 182.78
						 L40.17 182.78" class="st2"/>
		</g>
		<g id="shape109-119" v:mID="109" v:groupContext="shape" v:layerMember="0" transform="translate(221.455,-135.417)">
			<title>Dynamic connector.127</title>
			<path d="M0 168.87 L10.62 168.87 A5.66929 5.66929 -180 0 0 16.29 163.2 L16.29 162.19 A5.66929 5.66929 0 0 1 21.96 156.52
						 L181.9 156.52" class="st2"/>
		</g>
		<g id="shape110-124" v:mID="110" v:groupContext="shape" v:layerMember="0" transform="translate(227.03,-109.667)">
			<title>Dynamic connector.128</title>
			<path d="M0 169.78 L5.36 169.78 A5.35872 5.35872 -180 0 0 10.72 164.42 L10.72 136.44 A5.66929 5.66929 0 0 1 16.39 130.77
						 L176.33 130.77" class="st2"/>
		</g>
		<g id="shape111-129" v:mID="111" v:groupContext="shape" v:layerMember="0" transform="translate(227.03,-109.667)">
			<title>Dynamic connector.126</title>
			<path d="M0 169.78 L5.31 169.78 A5.31496 5.31496 -180 0 0 10.63 164.47 L10.63 160.6 A5.66929 5.66929 0 0 1 16.3 154.94
						 L34.6 154.94" class="st2"/>
		</g>
		<g id="shape137-134" v:mID="137" v:groupContext="shape" v:layerMember="0" transform="translate(427.487,-155.693)">
			<title>Dynamic connector.137</title>
			<path d="M0 176.79 L10.56 176.79 a0.0732889 0.0732889 0 0 1 0.0732889 0.0732889 L10.63 176.87 a0.0732889 0.0732889 -180
						 0 0 0.0732889 0.0732889 L15.51 176.94" class="st2"/>
		</g>
		<g id="shape155-139" v:mID="155" v:groupContext="shape" v:layerMember="1" transform="translate(303.134,-15.2418)">
			<title>Process.155</title>
			<desc>qualifiedIdentifier</desc>
			<v:custProps>
				<v:cp v:nameU="Cost" v:lbl="Cost" v:type="7" v:format="@" v:langID="1033"/>
				<v:cp v:nameU="Duration" v:lbl="Duration" v:type="2" v:langID="1033"/>
				<v:cp v:nameU="Resources" v:lbl="Resources" v:langID="1033"/>
			</v:custProps>
			<v:userDefs>
				<v:ud v:nameU="visVersion" v:val="VT0(11):26"/>
			</v:userDefs>
			<v:textBlock v:margins="rect(2,2,2,2)" v:tabSpace="42.5197"/>
			<v:textRect cx="35.4331" cy="163.23" width="70.87" height="13.1024"/>
			<rect x="0" y="156.679" width="70.8661" height="13.1024" rx="2.83465" ry="2.83465" class="st1"/>
			<text x="5.18" y="165.63" class="st4" v:langID="2057"><v:paragraph v:horizAlign="1"/><v:tabList/>qualifiedIdentifier</text>		</g>
		<g id="shape156-142" v:mID="156" v:groupContext="shape" v:layerMember="0" transform="translate(374,-21.793)">
			<title>Dynamic connector.156</title>
			<path d="M0 169.78 L3.66 169.78 A3.65778 3.65778 0 0 1 7.32 173.44 L7.32 182 A5.66929 5.66929 0 0 1 1.65 187.67 L-93.26
						 187.67 A5.66929 5.66929 0 0 1 -98.93 182 L-98.93 76.94" class="st2"/>
		</g>
		<g id="shape157-147" v:mID="157" v:groupContext="shape" v:layerMember="0" transform="translate(374,-21.793)">
			<title>Dynamic connector.157</title>
			<path d="M0 169.78 L8.15 169.78 A5.66929 5.66929 -180 0 0 13.82 164.11 L13.82 48.56 A5.66929 5.66929 0 0 1 19.49 42.89
						 L29.36 42.89" class="st2"/>
		</g>
		<g id="shape158-152" v:mID="158" v:groupContext="shape" v:layerMember="0" transform="translate(285.755,-124.513)">
			<title>Dynamic connector.158</title>
			<path d="M0 169.78 L5.15 169.78 A5.14597 5.14597 0 0 1 10.29 174.93 L10.29 268.96 A3.54331 3.54331 -180 0 0 13.84 272.5
						 L14.62 272.5" class="st2"/>
		</g>
		<g id="shape159-157" v:mID="159" v:groupContext="shape" v:layerMember="1" transform="translate(168.488,-75.8402)">
			<title>Process.159</title>
			<desc>qualifiedIdentifier</desc>
			<v:custProps>
				<v:cp v:nameU="Cost" v:lbl="Cost" v:type="7" v:format="@" v:langID="1033"/>
				<v:cp v:nameU="Duration" v:lbl="Duration" v:type="2" v:langID="1033"/>
				<v:cp v:nameU="Resources" v:lbl="Resources" v:langID="1033"/>
			</v:custProps>
			<v:userDefs>
				<v:ud v:nameU="visVersion" v:val="VT0(11):26"/>
			</v:userDefs>
			<v:textBlock v:margins="rect(2,2,2,2)" v:tabSpace="42.5197"/>
			<v:textRect cx="35.4331" cy="163.23" width="70.87" height="13.1024"/>
			<rect x="0" y="156.679" width="70.8661" height="13.1024" rx="2.83465" ry="2.83465" class="st1"/>
			<text x="5.18" y="165.63" class="st4" v:langID="2057"><v:paragraph v:horizAlign="1"/><v:tabList/>qualifiedIdentifier</text>		</g>
		<g id="shape160-160" v:mID="160" v:groupContext="shape" v:layerMember="0" transform="translate(146.815,-136.25)">
			<title>Dynamic connector.160</title>
			<path d="M0 169.78 L5.31 169.78 A5.31496 5.31496 0 0 1 10.63 175.1 L10.63 218.12 A5.52165 5.52165 -180 0 0 16.15 223.64
						 L18.91 223.64" class="st2"/>
		</g>
		<g id="shape161-165" v:mID="161" v:groupContext="shape" v:layerMember="0" transform="translate(239.354,-82.3914)">
			<title>Dynamic connector.161</title>
			<path d="M0 169.78 L5.31 169.78 A5.31496 5.31496 -180 0 0 10.63 164.47 L10.63 133.33 A5.66929 5.66929 0 0 1 16.3 127.66
						 L22.27 127.66" class="st2"/>
		</g>
	</g>
</svg>
