<?xml version="1.0" encoding="UTF-8"?>
<!-- Generated by Microsoft Visio 11.0, SVG Export, v1.0 group.svg Page-1 --><svg xmlns="http://www.w3.org/2000/svg" xmlns:v="http://schemas.microsoft.com/visio/2003/SVGExtensions/" xmlns:xlink="http://www.w3.org/1999/xlink" width="2.8008in" height="1.0672in" viewBox="0 0 201.657 76.8385" xml:space="preserve" color-interpolation-filters="sRGB" class="st7" preserveAspectRatio="xMidYMid meet" zoomAndPan="magnify" version="1.0" contentScriptType="text/ecmascript" contentStyleType="text/css">
	<v:documentProperties v:langID="1033" v:metric="true" v:viewMarkup="false"/>

	<style type="text/css" xml:space="preserve">
	
		.st1 {fill:#e8eef7;stroke:#000000;stroke-linecap:round;stroke-linejoin:round;stroke-width:0.24}
		.st2 {fill:#000000;font-family:Arial;font-size:0.666664em;font-style:italic}
		.st3 {marker-end:url(#mrkr2-9);stroke:#4677bf;stroke-linecap:round;stroke-linejoin:round;stroke-width:0.24}
		.st4 {fill:#4677bf;fill-opacity:1;stroke:#4677bf;stroke-opacity:1;stroke-width:0.08695652173913}
		.st5 {fill:#000000;font-family:Arial;font-size:0.666664em}
		.st6 {font-size:1em}
		.st7 {fill:none;fill-rule:evenodd;font-size:12;overflow:visible;stroke-linecap:square;stroke-miterlimit:3}
	
	</style>

	<defs id="Markers">
		<g id="lend2">
			<path d="M 1 1 L 0 0 L 1 -1 L 1 1 " style="stroke:none"/>
		</g>
		<marker xmlns="http://www.w3.org/TR/xhtml1/transitional" overflow="visible" id="mrkr2-9" class="st4" v:arrowType="2" v:arrowSize="2" v:setback="11.5" refX="-11.5" orient="auto" markerUnits="strokeWidth" preserveAspectRatio="xMidYMid meet">
			<use xmlns="http://www.w3.org/2000/svg" xlink:href="#lend2" transform="scale(-11.5,-11.5) " xlink:type="simple" xlink:show="embed" xlink:actuate="onLoad"/>
		</marker>
	</defs>
	<g v:mID="0" v:index="1" v:groupContext="foregroundPage">
		<title content="structured text">Page-1</title>
		<v:pageProperties v:drawingScale="0.0393701" v:pageScale="0.0393701" v:drawingUnits="24" v:shadowOffsetX="8.50394" v:shadowOffsetY="-8.50394"/>
		<v:layer v:name="Flowchart" v:index="0"/>
		<v:layer v:name="Connector" v:index="1"/>
		<g id="shape51-1" v:mID="51" v:groupContext="shape" v:layerMember="0" transform="translate(83.6951,-48.9657)">
			<title content="structured text">Process.51</title>
			<desc content="structured text">and</desc>
			<v:custProps>
				<v:cp v:nameU="Cost" v:lbl="Cost" v:type="7" v:format="@" v:langID="1033"/>
				<v:cp v:nameU="Duration" v:lbl="Duration" v:type="2" v:langID="1033"/>
				<v:cp v:nameU="Resources" v:lbl="Resources" v:langID="1033"/>
			</v:custProps>
			<v:userDefs>
				<v:ud v:nameU="visVersion" v:val="VT0(11):26"/>
			</v:userDefs>
			<v:textBlock v:margins="rect(2,2,2,2)" v:tabSpace="42.5197"/>
			<v:textRect cx="21.4689" cy="70.1687" width="42.94" height="13.3396"/>
			<rect x="0" y="63.4988" width="42.9378" height="13.3396" rx="2.83465" ry="2.83465" class="st1"/>
			<text x="14.8" y="72.57" class="st2" v:langID="2057"><v:paragraph v:horizAlign="1"/><v:tabList/>and</text>		</g>
		<g id="shape52-4" v:mID="52" v:groupContext="shape" v:layerMember="1" transform="translate(105.164,-66.057)">
			<title content="structured text">Dynamic connector.52</title>
			<path d="M0 80.59 L0 75.28 A5.31496 5.31496 -180 0 0 -5.31 69.96 L-26.43 69.96 A5.66929 5.66929 -180 0 0 -32.1 75.63        L-32.1 81.95 A5.31496 5.31496 -180 0 0 -26.78 87.26 L-24.23 87.26" class="st3"/>
		</g>
		<g id="shape53-10" v:mID="53" v:groupContext="shape" v:layerMember="0" transform="translate(28.2526,-31.9578)">
			<title content="structured text">Process.53</title>
			<desc content="structured text">‘(‘</desc>
			<v:custProps>
				<v:cp v:nameU="Cost" v:lbl="Cost" v:type="7" v:format="@" v:langID="1033"/>
				<v:cp v:nameU="Duration" v:lbl="Duration" v:type="2" v:langID="1033"/>
				<v:cp v:nameU="Resources" v:lbl="Resources" v:langID="1033"/>
			</v:custProps>
			<v:userDefs>
				<v:ud v:nameU="visVersion" v:val="VT0(11):26"/>
			</v:userDefs>
			<v:textBlock v:margins="rect(2,2,2,2)" v:tabSpace="42.5197"/>
			<v:textRect cx="10.0047" cy="70.1687" width="20.01" height="13.3396"/>
			<rect x="0" y="63.4988" width="20.0095" height="13.3396" rx="2.83465" ry="2.83465" class="st1"/>
			<text x="6.89" y="72.57" class="st5" v:langID="1033"><v:paragraph v:horizAlign="1"/><v:tabList/>‘<tspan class="st6" v:langID="2057">(</tspan>‘</text>		</g>
		<g id="shape54-14" v:mID="54" v:groupContext="shape" v:layerMember="0" transform="translate(83.277,-14.5332)">
			<title content="structured text">Process.54</title>
			<desc content="structured text">or</desc>
			<v:custProps>
				<v:cp v:nameU="Cost" v:lbl="Cost" v:type="7" v:format="@" v:langID="1033"/>
				<v:cp v:nameU="Duration" v:lbl="Duration" v:type="2" v:langID="1033"/>
				<v:cp v:nameU="Resources" v:lbl="Resources" v:langID="1033"/>
			</v:custProps>
			<v:userDefs>
				<v:ud v:nameU="visVersion" v:val="VT0(11):26"/>
			</v:userDefs>
			<v:textBlock v:margins="rect(2,2,2,2)" v:tabSpace="42.5197"/>
			<v:textRect cx="21.4689" cy="70.1687" width="42.94" height="13.3396"/>
			<rect x="0" y="63.4988" width="42.9378" height="13.3396" rx="2.83465" ry="2.83465" class="st1"/>
			<text x="17.92" y="72.57" class="st2" v:langID="2057"><v:paragraph v:horizAlign="1"/><v:tabList/>or</text>		</g>
		<g id="shape55-17" v:mID="55" v:groupContext="shape" v:layerMember="0" transform="translate(154.561,-31.9578)">
			<title content="structured text">Process.55</title>
			<desc content="structured text">‘)’</desc>
			<v:custProps>
				<v:cp v:nameU="Cost" v:lbl="Cost" v:type="7" v:format="@" v:langID="1033"/>
				<v:cp v:nameU="Duration" v:lbl="Duration" v:type="2" v:langID="1033"/>
				<v:cp v:nameU="Resources" v:lbl="Resources" v:langID="1033"/>
			</v:custProps>
			<v:userDefs>
				<v:ud v:nameU="visVersion" v:val="VT0(11):26"/>
			</v:userDefs>
			<v:textBlock v:margins="rect(2,2,2,2)" v:tabSpace="42.5197"/>
			<v:textRect cx="10.0047" cy="70.1687" width="20.01" height="13.3396"/>
			<rect x="0" y="63.4988" width="20.0095" height="13.3396" rx="2.83465" ry="2.83465" class="st1"/>
			<text x="6.89" y="72.57" class="st5" v:langID="1033"><v:paragraph v:horizAlign="1"/><v:tabList/>‘<tspan class="st6" v:langID="2057">)</tspan>’</text>		</g>
		<g id="shape57-21" v:mID="57" v:groupContext="shape" v:layerMember="1" transform="translate(104.746,-10.7814)">
			<title content="structured text">Dynamic connector.57</title>
			<path d="M0 73.09 L0 78.4 A5.31496 5.31496 0 0 1 -5.31 83.72 L-26.43 83.72 A5.66929 5.66929 0 0 1 -32.1 78.05 L-32.1        71.73 A5.31496 5.31496 0 0 1 -26.78 66.42 L-24.23 66.42" class="st3"/>
		</g>
		<g id="shape58-26" v:mID="58" v:groupContext="shape" v:layerMember="1" transform="translate(126.633,-55.6355)">
			<title content="structured text">Dynamic connector.58</title>
			<path d="M0 76.84 L8.44 76.84 A5.66929 5.66929 0 0 1 14.11 82.51 L14.11 88.18 A5.66929 5.66929 -180 0 0 19.78 93.85 L25.17        93.85" class="st3"/>
		</g>
		<g id="shape59-31" v:mID="59" v:groupContext="shape" v:layerMember="1" transform="translate(126.215,-21.203)">
			<title content="structured text">Dynamic connector.59</title>
			<path d="M0 76.84 L8.86 76.84 A5.66929 5.66929 -180 0 0 14.53 71.17 L14.53 65.08 A5.66929 5.66929 0 0 1 20.2 59.41 L25.59        59.41" class="st3"/>
		</g>
		<g id="shape60-36" v:mID="60" v:groupContext="shape" v:layerMember="1" transform="translate(48.262,-38.6276)">
			<title content="structured text">Dynamic connector.60</title>
			<path d="M0 76.84 L8.5 76.84 A5.66929 5.66929 -180 0 0 14.17 71.17 L14.17 65.5 A5.66929 5.66929 0 0 1 19.84 59.83 L32.67        59.83" class="st3"/>
		</g>
		<g id="shape61-41" v:mID="61" v:groupContext="shape" v:layerMember="1" transform="translate(48.262,-38.6276)">
			<title content="structured text">Dynamic connector.61</title>
			<path d="M0 76.84 L7.09 76.84 A5.66929 5.66929 0 0 1 12.76 82.51 L12.76 88.59 A5.66929 5.66929 -180 0 0 18.43 94.26 L32.25        94.26" class="st3"/>
		</g>
		<g id="shape56-46" v:mID="56" v:groupContext="shape" v:layerMember="1" transform="translate(104.746,-27.8728)">
			<title content="structured text">Dynamic connector.56</title>
			<path d="M0 76.84 L0 73.62 A3.22021 3.22021 -180 0 0 -3.22 70.4 L-26.01 70.4 A5.66929 5.66929 0 0 1 -31.68 64.73 L-31.68        54.39 A5.31496 5.31496 0 0 1 -26.37 49.08 L-23.81 49.08" class="st3"/>
		</g>
		<g id="shape62-51" v:mID="62" v:groupContext="shape" v:layerMember="1" transform="translate(105.164,-48.9657)">
			<title content="structured text">Dynamic connector.62</title>
			<path d="M0 76.84 L0 79.74 A2.89711 2.89711 0 0 1 -2.9 82.63 L-26.85 82.63 A5.66929 5.66929 -180 0 0 -32.52 88.3 L-32.52        99.29 A5.31496 5.31496 -180 0 0 -27.2 104.6 L-24.65 104.6" class="st3"/>
		</g>
		<g id="shape65-56" v:mID="65" v:groupContext="shape" v:layerMember="1;0" transform="translate(0.24,-32.7915)">
			<title content="structured text">On-page reference.65</title>
			<v:userDefs>
				<v:ud v:nameU="visVersion" v:val="VT0(11):26"/>
			</v:userDefs>
			<v:textBlock v:margins="rect(2,2,2,2)" v:tabSpace="42.5197"/>
			<path d="M0 71 A5.83609 5.83609 0 1 1 11.67 71 A5.83609 5.83609 0 0 1 0 71 Z" class="st1"/>
		</g>
		<g id="shape66-58" v:mID="66" v:groupContext="shape" v:layerMember="1;0" transform="translate(188.744,-32.7915)">
			<title content="structured text">On-page reference.66</title>
			<v:userDefs>
				<v:ud v:nameU="visVersion" v:val="VT0(11):26"/>
			</v:userDefs>
			<v:textBlock v:margins="rect(2,2,2,2)" v:tabSpace="42.5197"/>
			<path d="M0 71 A5.83609 5.83609 0 1 1 11.67 71 A5.83609 5.83609 0 0 1 0 71 Z" class="st1"/>
		</g>
		<g id="shape68-60" v:mID="68" v:groupContext="shape" v:layerMember="1" transform="translate(11.9122,-31.541)">
			<title content="structured text">Dynamic connector.68</title>
			<path d="M0 69.75 L13.58 69.75" class="st3"/>
		</g>
		<g id="shape69-65" v:mID="69" v:groupContext="shape" v:layerMember="1" transform="translate(174.571,-31.541)">
			<title content="structured text">Dynamic connector.69</title>
			<path d="M0 69.75 L11.41 69.75" class="st3"/>
		</g>
	</g>
</svg>