<?xml version="1.0" encoding="UTF-8" standalone="no"?>
<!-- Adapted from public domain here: https://freesvg.org/oil-well-silhouette-vector-image -->
<svg
   xmlns:dc="http://purl.org/dc/elements/1.1/"
   xmlns:cc="http://creativecommons.org/ns#"
   xmlns:rdf="http://www.w3.org/1999/02/22-rdf-syntax-ns#"
   xmlns:svg="http://www.w3.org/2000/svg"
   xmlns="http://www.w3.org/2000/svg"
   xmlns:sodipodi="http://sodipodi.sourceforge.net/DTD/sodipodi-0.dtd"
   xmlns:inkscape="http://www.inkscape.org/namespaces/inkscape"
   id="svg2"
   sodipodi:docname="batchSchedulingLogo.svg"
   sodipodi:version="0.32"
   version="1.0"
   inkscape:output_extension="org.inkscape.output.svg.inkscape"
   inkscape:version="1.0.2 (e86c870879, 2021-01-15)"
   viewBox="0 0 64 64"
   width="64"
   height="64">
  <defs
     id="defs6128" />
  <sodipodi:namedview
     id="base"
     bordercolor="#666666"
     inkscape:pageshadow="2"
     guidetolerance="10.0"
     pagecolor="#ffffff"
     gridtolerance="10.0"
     objecttolerance="10.0"
     borderopacity="1.0"
     inkscape:window-height="1369"
     inkscape:pageopacity="0.0"
     inkscape:window-width="2560"
     inkscape:document-rotation="0"
     showgrid="false"
     inkscape:zoom="0.088388348"
     inkscape:cx="-21.2794"
     inkscape:cy="-613.64142"
     inkscape:window-x="0"
     inkscape:window-y="0"
     inkscape:window-maximized="1"
     inkscape:current-layer="svg2" />
  <g
     id="g6"
     style="fill:#000000"
     transform="matrix(1.1544,0,0,1.1544,-300.11,-47.332)">
    <polygon
       id="polygon8"
       points="1549,837 843,2530 702,2471 1408,778 " />
    <polygon
       id="polygon10"
       points="1549,778 2254,2471 2113,2530 1408,837 " />
    <polygon
       id="polygon12"
       points="1085,1727 2072,2149 2013,2288 1026,1866 " />
    <polygon
       id="polygon14"
       points="1027,1726 1733,1443 1790,1584 1084,1867 " />
    <polygon
       id="polygon16"
       points="2445,1164 471,599 512,452 2486,1017 " />
    <polygon
       id="polygon18"
       points="452,991 552,976 564,1029 365,1072 351,1005 " />
    <polygon
       id="polygon20"
       points="341,939 443,930 544,920 552,976 452,991 351,1005 " />
    <polygon
       id="polygon22"
       points="335,869 437,868 538,866 544,920 443,930 341,939 " />
    <polygon
       id="polygon24"
       points="334,795 436,805 537,814 538,866 437,868 335,869 " />
    <polygon
       id="polygon26"
       points="352,597 356,579 454,607 555,616 537,814 436,805 334,795 352,597 " />
    <polygon
       id="polygon28"
       points="408,394 415,377 506,422 603,449 551,634 454,607 356,579 408,394 " />
    <polygon
       id="polygon30"
       points="499,207 508,191 590,252 680,296 596,466 506,422 415,377 499,207 " />
    <polygon
       id="polygon32"
       points="620,41 783,162 671,312 590,252 508,191 " />
    <polygon
       id="polygon34"
       points="380,2501 380,808 431,808 431,2501 " />
    <polygon
       id="polygon36"
       points="203,2501 203,2078 609,2078 609,2501 " />
    <polygon
       id="polygon38"
       points="2605,1384 2047,1164 2135,840 2723,944 " />
  </g>
  <g
     id="g40"
     style="fill:none;stroke:#000000"
     transform="matrix(1.1544,0,0,1.1544,-300.11,-47.332)">
    <polyline
       id="polyline42"
       style="fill:none"
       points="2135 840 2723 944 2605 1384 2047 1164 2135 840" />
  </g>
  <metadata
     id="metadata6125">
    <rdf:RDF>
      <cc:Work>
        <dc:format>image/svg+xml</dc:format>
        <dc:type
           rdf:resource="http://purl.org/dc/dcmitype/StillImage" />
        <cc:license
           rdf:resource="http://creativecommons.org/publicdomain/zero/1.0/" />
        <dc:publisher>
          <cc:Agent
             rdf:about="http://openclipart.org/">
            <dc:title>Openclipart</dc:title>
          </cc:Agent>
        </dc:publisher>
        <dc:title>nodding donkey</dc:title>
        <dc:date>2008-02-07T15:14:34</dc:date>
        <dc:description />
        <dc:source>https://openclipart.org/detail/13061/nodding-donkey-by-anonymous-13061</dc:source>
        <dc:creator>
          <cc:Agent>
            <dc:title>Anonymous</dc:title>
          </cc:Agent>
        </dc:creator>
        <dc:subject>
          <rdf:Bag>
            <rdf:li>industry</rdf:li>
            <rdf:li>oil</rdf:li>
            <rdf:li>oilwell</rdf:li>
            <rdf:li>pump</rdf:li>
          </rdf:Bag>
        </dc:subject>
      </cc:Work>
      <cc:License
         rdf:about="http://creativecommons.org/publicdomain/zero/1.0/">
        <cc:permits
           rdf:resource="http://creativecommons.org/ns#Reproduction" />
        <cc:permits
           rdf:resource="http://creativecommons.org/ns#Distribution" />
        <cc:permits
           rdf:resource="http://creativecommons.org/ns#DerivativeWorks" />
      </cc:License>
    </rdf:RDF>
  </metadata>
</svg>
