<?xml version="1.0" encoding="UTF-8" standalone="no"?>
<!DOCTYPE svg PUBLIC "-//W3C//DTD SVG 1.0//EN" "http://www.w3.org/TR/2001/REC-SVG-20010904/DTD/svg10.dtd">
<!-- Generated by Microsoft Visio 11.0, SVG Export, v1.0 constraint.svg Page-1 -->
<svg xmlns="http://www.w3.org/2000/svg" xmlns:v="http://schemas.microsoft.com/visio/2003/SVGExtensions/" width="2.50842in"
		height="1.03264in" viewBox="0 0 180.606 74.3502" xml:space="preserve" color-interpolation-filters="sRGB" class="st5">
	<v:documentProperties v:langID="1033" v:metric="true" v:viewMarkup="false"/>

	<style type="text/css">
	<![CDATA[
		.st1 {fill:#e8eef7;stroke:#000000;stroke-linecap:round;stroke-linejoin:round;stroke-width:0.24}
		.st2 {fill:#000000;font-family:Arial;font-size:0.666664em;font-style:italic}
		.st3 {marker-end:url(#mrkr2-12);stroke:#4677bf;stroke-linecap:round;stroke-linejoin:round;stroke-width:0.24}
		.st4 {fill:#4677bf;fill-opacity:1;stroke:#4677bf;stroke-opacity:1;stroke-width:0.08695652173913}
		.st5 {fill:none;fill-rule:evenodd;font-size:12;overflow:visible;stroke-linecap:square;stroke-miterlimit:3}
	]]>
	</style>

	<defs id="Markers">
		<g id="lend2">
			<path d="M 1 1 L 0 0 L 1 -1 L 1 1 " style="stroke:none"/>
		</g>
		<marker id="mrkr2-12" class="st4" v:arrowType="2" v:arrowSize="2" v:setback="11.5" refX="-11.5" orient="auto"
				markerUnits="strokeWidth">
			<use xlink:href="#lend2" transform="scale(-11.5,-11.5) "/>
		</marker>
	</defs>
	<g v:mID="0" v:index="1" v:groupContext="foregroundPage">
		<title>Page-1</title>
		<v:pageProperties v:drawingScale="0.0393701" v:pageScale="0.0393701" v:drawingUnits="24" v:shadowOffsetX="8.50394"
				v:shadowOffsetY="-8.50394"/>
		<v:layer v:name="Flowchart" v:index="0"/>
		<v:layer v:name="Connector" v:index="1"/>
		<g id="shape18-1" v:mID="18" v:groupContext="shape" v:layerMember="0" transform="translate(48.3656,-60.7124)">
			<title>Process.18</title>
			<desc>fieldConstraint</desc>
			<v:custProps>
				<v:cp v:nameU="Cost" v:lbl="Cost" v:type="7" v:format="@" v:langID="1033"/>
				<v:cp v:nameU="Duration" v:lbl="Duration" v:type="2" v:langID="1033"/>
				<v:cp v:nameU="Resources" v:lbl="Resources" v:langID="1033"/>
			</v:custProps>
			<v:userDefs>
				<v:ud v:nameU="visVersion" v:val="VT0(11):26"/>
			</v:userDefs>
			<v:textBlock v:margins="rect(2,2,2,2)" v:tabSpace="42.5197"/>
			<v:textRect cx="31.0372" cy="67.7991" width="62.08" height="13.1024"/>
			<rect x="0" y="61.2479" width="62.0744" height="13.1024" rx="2.83465" ry="2.83465" class="st1"/>
			<text x="5.46" y="70.2" class="st2" v:langID="2057"><v:paragraph v:horizAlign="1"/><v:tabList/>fieldConstraint</text>		</g>
		<g id="shape19-4" v:mID="19" v:groupContext="shape" v:layerMember="0" transform="translate(48.3656,-32.6442)">
			<title>Process.19</title>
			<desc>inlineEvalConstraint</desc>
			<v:custProps>
				<v:cp v:nameU="Cost" v:lbl="Cost" v:type="7" v:format="@" v:langID="1033"/>
				<v:cp v:nameU="Duration" v:lbl="Duration" v:type="2" v:langID="1033"/>
				<v:cp v:nameU="Resources" v:lbl="Resources" v:langID="1033"/>
			</v:custProps>
			<v:userDefs>
				<v:ud v:nameU="visVersion" v:val="VT0(11):26"/>
			</v:userDefs>
			<v:textBlock v:margins="rect(2,2,2,2)" v:tabSpace="42.5197"/>
			<v:textRect cx="39.0711" cy="67.7991" width="78.15" height="13.1024"/>
			<rect x="0" y="61.2479" width="78.1421" height="13.1024" rx="2.83465" ry="2.83465" class="st1"/>
			<text x="3.72" y="70.2" class="st2" v:langID="2057"><v:paragraph v:horizAlign="1"/><v:tabList/>inlineEvalConstraint</text>		</g>
		<g id="shape20-7" v:mID="20" v:groupContext="shape" v:layerMember="1" transform="translate(11.7046,-67.2636)">
			<title>Dynamic connector.20</title>
			<path d="M0 74.35 L12.76 74.35 A5.66929 5.66929 0 0 1 18.43 80.02 L18.43 96.75 A5.66929 5.66929 -180 0 0 24.09 102.42
						 L33.9 102.42" class="st3"/>
		</g>
		<g id="shape21-13" v:mID="21" v:groupContext="shape" v:layerMember="1" transform="translate(11.7046,-60.177)">
			<title>Dynamic connector.21</title>
			<path d="M0 67.26 L33.9 67.26" class="st3"/>
		</g>
		<g id="shape22-18" v:mID="22" v:groupContext="shape" v:layerMember="1;0" transform="translate(0.24,-61.5313)">
			<title>On-page reference.22</title>
			<v:userDefs>
				<v:ud v:nameU="visVersion" v:val="VT0(11):26"/>
			</v:userDefs>
			<v:textBlock v:margins="rect(2,2,2,2)" v:tabSpace="42.5197"/>
			<path d="M0 68.62 A5.73228 5.73228 0 0 1 11.46 68.62 A5.73228 5.73228 0 1 1 0 68.62 Z" class="st1"/>
		</g>
		<g id="shape23-20" v:mID="23" v:groupContext="shape" v:layerMember="0" transform="translate(48.7168,-0.24)">
			<title>Process.23</title>
			<desc>constraintGroup</desc>
			<v:custProps>
				<v:cp v:nameU="Cost" v:lbl="Cost" v:type="7" v:format="@" v:langID="1033"/>
				<v:cp v:nameU="Duration" v:lbl="Duration" v:type="2" v:langID="1033"/>
				<v:cp v:nameU="Resources" v:lbl="Resources" v:langID="1033"/>
			</v:custProps>
			<v:userDefs>
				<v:ud v:nameU="visVersion" v:val="VT0(11):26"/>
			</v:userDefs>
			<v:textBlock v:margins="rect(2,2,2,2)" v:tabSpace="42.5197"/>
			<v:textRect cx="31.0372" cy="67.7991" width="62.08" height="13.1024"/>
			<rect x="0" y="61.2479" width="62.0744" height="13.1024" rx="2.83465" ry="2.83465" class="st1"/>
			<text x="2.57" y="70.2" class="st2" v:langID="2057"><v:paragraph v:horizAlign="1"/><v:tabList/>constraintGroup</text>		</g>
		<g id="shape24-23" v:mID="24" v:groupContext="shape" v:layerMember="1" transform="translate(11.7046,-67.2636)">
			<title>Dynamic connector.24</title>
			<path d="M0 74.35 L12.76 74.35 A5.66929 5.66929 0 0 1 18.43 80.02 L18.43 129.15 A5.66929 5.66929 -180 0 0 24.09 134.82
						 L34.25 134.82" class="st3"/>
		</g>
		<g id="shape26-28" v:mID="26" v:groupContext="shape" v:layerMember="1" transform="translate(110.44,-60.177)">
			<title>Dynamic connector.26</title>
			<path d="M0 67.26 L55.7 67.26" class="st3"/>
		</g>
		<g id="shape27-33" v:mID="27" v:groupContext="shape" v:layerMember="1" transform="translate(110.791,-6.79118)">
			<title>Dynamic connector.27</title>
			<path d="M0 74.35 L21.39 74.35 A5.66929 5.66929 -180 0 0 27.06 68.68 L27.06 19.55 A5.66929 5.66929 0 0 1 32.72 13.88
						 L55.35 13.88" class="st3"/>
		</g>
		<g id="shape28-38" v:mID="28" v:groupContext="shape" v:layerMember="1;0" transform="translate(168.901,-61.5313)">
			<title>On-page reference.28</title>
			<v:userDefs>
				<v:ud v:nameU="visVersion" v:val="VT0(11):26"/>
			</v:userDefs>
			<v:textBlock v:margins="rect(2,2,2,2)" v:tabSpace="42.5197"/>
			<path d="M0 68.62 A5.73228 5.73228 0 0 1 11.46 68.62 A5.73228 5.73228 0 1 1 0 68.62 Z" class="st1"/>
		</g>
		<g id="shape153-40" v:mID="153" v:groupContext="shape" v:layerMember="1" transform="translate(126.508,-39.1954)">
			<title>Dynamic connector.153</title>
			<path d="M0 74.35 L5.67 74.35 A5.66929 5.66929 -180 0 0 11.34 68.68 L11.34 51.95 A5.66929 5.66929 0 0 1 17.01 46.28 L39.63
						 46.28" class="st3"/>
		</g>
		<g id="shape154-45" v:mID="154" v:groupContext="shape" v:layerMember="1" transform="translate(110.791,-6.79118)">
			<title>Dynamic connector.154</title>
			<path d="M0 74.35 L21.39 74.35 A5.66929 5.66929 -180 0 0 27.06 68.68 L27.06 19.55 A5.66929 5.66929 0 0 1 32.72 13.88
						 L55.35 13.88" class="st3"/>
		</g>
	</g>
</svg>
