<?xml version="1.0" encoding="UTF-8" standalone="no"?>
<!DOCTYPE svg PUBLIC "-//W3C//DTD SVG 1.0//EN" "http://www.w3.org/TR/2001/REC-SVG-20010904/DTD/svg10.dtd">
<!-- Generated by Microsoft Visio 11.0, SVG Export, v1.0 infixOr.svg Page-1 -->
<svg xmlns="http://www.w3.org/2000/svg" xmlns:v="http://schemas.microsoft.com/visio/2003/SVGExtensions/" width="5.09525in"
		height="0.474097in" viewBox="0 0 366.858 34.135" xml:space="preserve" color-interpolation-filters="sRGB" class="st7">
	<v:documentProperties v:langID="1033" v:metric="true" v:viewMarkup="false"/>

	<style type="text/css">
	<![CDATA[
		.st1 {fill:#e8eef7;stroke:#000000;stroke-linecap:round;stroke-linejoin:round;stroke-width:0.24}
		.st2 {fill:#000000;font-family:Arial;font-size:0.666664em;font-style:italic}
		.st3 {marker-end:url(#mrkr2-9);stroke:#4677bf;stroke-linecap:round;stroke-linejoin:round;stroke-width:0.24}
		.st4 {fill:#4677bf;fill-opacity:1;stroke:#4677bf;stroke-opacity:1;stroke-width:0.08695652173913}
		.st5 {fill:#000000;font-family:Arial;font-size:0.666664em}
		.st6 {font-size:1em}
		.st7 {fill:none;fill-rule:evenodd;font-size:12;overflow:visible;stroke-linecap:square;stroke-miterlimit:3}
	]]>
	</style>

	<defs id="Markers">
		<g id="lend2">
			<path d="M 1 1 L 0 0 L 1 -1 L 1 1 " style="stroke:none"/>
		</g>
		<marker id="mrkr2-9" class="st4" v:arrowType="2" v:arrowSize="2" v:setback="11.5" refX="-11.5" orient="auto"
				markerUnits="strokeWidth">
			<use xlink:href="#lend2" transform="scale(-11.5,-11.5) "/>
		</marker>
	</defs>
	<g v:mID="0" v:index="1" v:groupContext="foregroundPage">
		<title>Page-1</title>
		<v:pageProperties v:drawingScale="0.0393701" v:pageScale="0.0393701" v:drawingUnits="24" v:shadowOffsetX="8.50394"
				v:shadowOffsetY="-8.50394"/>
		<v:layer v:name="Flowchart" v:index="0"/>
		<v:layer v:name="Connector" v:index="1"/>
		<g id="shape39-1" v:mID="39" v:groupContext="shape" v:layerMember="0" transform="translate(211.629,-2.13018)">
			<title>Process.39</title>
			<desc>CE</desc>
			<v:custProps>
				<v:cp v:nameU="Cost" v:lbl="Cost" v:type="7" v:format="@" v:langID="1033"/>
				<v:cp v:nameU="Duration" v:lbl="Duration" v:type="2" v:langID="1033"/>
				<v:cp v:nameU="Resources" v:lbl="Resources" v:langID="1033"/>
			</v:custProps>
			<v:userDefs>
				<v:ud v:nameU="visVersion" v:val="VT0(11):26"/>
			</v:userDefs>
			<v:textBlock v:margins="rect(2,2,2,2)" v:tabSpace="42.5197"/>
			<v:textRect cx="21.4689" cy="27.4652" width="42.94" height="13.3396"/>
			<rect x="0" y="20.7954" width="42.9378" height="13.3396" rx="2.83465" ry="2.83465" class="st1"/>
			<text x="15.92" y="29.87" class="st2" v:langID="2057"><v:paragraph v:horizAlign="1"/><v:tabList/>CE</text>		</g>
		<g id="shape40-4" v:mID="40" v:groupContext="shape" v:layerMember="1" transform="translate(256.296,-8.8)">
			<title>Dynamic connector.40</title>
			<path d="M-1.73 34.14 L3.59 34.14 A5.31496 5.31496 -180 0 0 8.9 28.82 L8.9 21.38 A5.66929 5.66929 -180 0 0 3.23 15.71
						 L-9.68 15.71" class="st3"/>
		</g>
		<g id="shape42-10" v:mID="42" v:groupContext="shape" v:layerMember="1;0" transform="translate(354.946,-2.96391)">
			<title>On-page reference.42</title>
			<v:userDefs>
				<v:ud v:nameU="visVersion" v:val="VT0(11):26"/>
			</v:userDefs>
			<v:textBlock v:margins="rect(2,2,2,2)" v:tabSpace="42.5197"/>
			<path d="M0 28.3 A5.83609 5.83609 0 1 1 11.67 28.3 A5.83609 5.83609 0 0 1 0 28.3 Z" class="st1"/>
		</g>
		<g id="shape43-12" v:mID="43" v:groupContext="shape" v:layerMember="1" transform="translate(11.9122,-1.71339)">
			<title>Dynamic connector.43</title>
			<path d="M0 27.05 L196.96 27.05" class="st3"/>
		</g>
		<g id="shape44-17" v:mID="44" v:groupContext="shape" v:layerMember="1" transform="translate(173.103,-27.2252)">
			<title>Dynamic connector.44</title>
			<path d="M0 34.14 L3.76 34.14 A3.75599 3.75599 0 0 1 7.51 37.89 L7.51 46.89 A5.66929 5.66929 -180 0 0 13.18 52.56 L35.77
						 52.56" class="st3"/>
		</g>
		<g id="shape45-22" v:mID="45" v:groupContext="shape" v:layerMember="1" transform="translate(254.567,-15.8866)">
			<title>Dynamic connector.45</title>
			<path d="M0 41.22 L97.62 41.22" class="st3"/>
		</g>
		<g id="shape46-27" v:mID="46" v:groupContext="shape" v:layerMember="0" transform="translate(220.042,-20.5554)">
			<title>Process.46</title>
			<desc>‘or’</desc>
			<v:custProps>
				<v:cp v:nameU="Cost" v:lbl="Cost" v:type="7" v:format="@" v:langID="1033"/>
				<v:cp v:nameU="Duration" v:lbl="Duration" v:type="2" v:langID="1033"/>
				<v:cp v:nameU="Resources" v:lbl="Resources" v:langID="1033"/>
			</v:custProps>
			<v:userDefs>
				<v:ud v:nameU="visVersion" v:val="VT0(11):26"/>
			</v:userDefs>
			<v:textBlock v:margins="rect(2,2,2,2)" v:tabSpace="42.5197"/>
			<v:textRect cx="11.9052" cy="27.4652" width="23.82" height="13.3396"/>
			<rect x="0" y="20.7954" width="23.8103" height="13.3396" rx="2.83465" ry="2.83465" class="st1"/>
			<text x="6.57" y="29.87" class="st5" v:langID="1033"><v:paragraph v:horizAlign="1"/><v:tabList/>‘<tspan class="st6"
						v:langID="2057">or</tspan>’</text>		</g>
		<g id="shape47-31" v:mID="47" v:groupContext="shape" v:layerMember="1" transform="translate(222.922,-27.2252)">
			<title>Dynamic connector.47</title>
			<path d="M-2.88 34.14 L-18.21 34.14 A5.66929 5.66929 -180 0 0 -23.88 39.8 L-23.88 46.89 A5.66929 5.66929 -180 0 0 -18.21
						 52.56 L-14.05 52.56" class="st3"/>
		</g>
		<g id="shape67-36" v:mID="67" v:groupContext="shape" v:layerMember="1" transform="translate(11.9122,-8.8)">
			<title>Dynamic connector.67</title>
			<path d="M0 34.14 L125.9 34.14 A5.66929 5.66929 -180 0 0 131.57 28.47 L131.57 21.02 A5.31496 5.31496 0 0 1 136.88 15.71
						 L139.44 15.71" class="st3"/>
		</g>
		<g id="shape87-41" v:mID="87" v:groupContext="shape" v:layerMember="0" transform="translate(154.111,-20.5554)">
			<title>Process.87</title>
			<desc>‘(’</desc>
			<v:custProps>
				<v:cp v:nameU="Cost" v:lbl="Cost" v:type="7" v:format="@" v:langID="1033"/>
				<v:cp v:nameU="Duration" v:lbl="Duration" v:type="2" v:langID="1033"/>
				<v:cp v:nameU="Resources" v:lbl="Resources" v:langID="1033"/>
			</v:custProps>
			<v:userDefs>
				<v:ud v:nameU="visVersion" v:val="VT0(11):26"/>
			</v:userDefs>
			<v:textBlock v:margins="rect(2,2,2,2)" v:tabSpace="42.5197"/>
			<v:textRect cx="9.49589" cy="27.4652" width="19" height="13.3396"/>
			<rect x="0" y="20.7954" width="18.9918" height="13.3396" rx="2.83465" ry="2.83465" class="st1"/>
			<text x="6.39" y="29.87" class="st5" v:langID="1033"><v:paragraph v:horizAlign="1"/><v:tabList/>‘<tspan class="st6"
						v:langID="2057">(</tspan>’</text>		</g>
		<g id="shape88-45" v:mID="88" v:groupContext="shape" v:layerMember="0" transform="translate(300.521,-20.5554)">
			<title>Process.88</title>
			<desc>‘)’</desc>
			<v:custProps>
				<v:cp v:nameU="Cost" v:lbl="Cost" v:type="7" v:format="@" v:langID="1033"/>
				<v:cp v:nameU="Duration" v:lbl="Duration" v:type="2" v:langID="1033"/>
				<v:cp v:nameU="Resources" v:lbl="Resources" v:langID="1033"/>
			</v:custProps>
			<v:userDefs>
				<v:ud v:nameU="visVersion" v:val="VT0(11):26"/>
			</v:userDefs>
			<v:textBlock v:margins="rect(2,2,2,2)" v:tabSpace="42.5197"/>
			<v:textRect cx="9.49589" cy="27.4652" width="19" height="13.3396"/>
			<rect x="0" y="20.7954" width="18.9918" height="13.3396" rx="2.83465" ry="2.83465" class="st1"/>
			<text x="6.39" y="29.87" class="st5" v:langID="1033"><v:paragraph v:horizAlign="1"/><v:tabList/>‘<tspan class="st6"
						v:langID="2057">)</tspan>’</text>		</g>
		<g id="shape104-49" v:mID="104" v:groupContext="shape" v:layerMember="1" transform="translate(254.567,-8.8)">
			<title>Dynamic connector.104</title>
			<path d="M0 34.14 L30.93 34.14 A5.66929 5.66929 -180 0 0 36.6 28.47 L36.6 20.39 A4.67733 4.67733 0 0 1 41.28 15.71 L43.19
						 15.71" class="st3"/>
		</g>
		<g id="shape105-54" v:mID="105" v:groupContext="shape" v:layerMember="1" transform="translate(319.513,-27.2252)">
			<title>Dynamic connector.105</title>
			<path d="M0 34.14 L8.5 34.14 A5.66929 5.66929 0 0 1 14.17 39.8 L14.17 46.89 A5.66929 5.66929 -180 0 0 19.84 52.56 L32.67
						 52.56" class="st3"/>
		</g>
		<g id="shape151-59" v:mID="151" v:groupContext="shape" v:layerMember="1;0" transform="translate(0.24,-2.96391)">
			<title>On-page reference.151</title>
			<v:userDefs>
				<v:ud v:nameU="visVersion" v:val="VT0(11):26"/>
			</v:userDefs>
			<v:textBlock v:margins="rect(2,2,2,2)" v:tabSpace="42.5197"/>
			<path d="M0 28.3 A5.83609 5.83609 0 1 1 11.67 28.3 A5.83609 5.83609 0 0 1 0 28.3 Z" class="st1"/>
		</g>
		<g id="shape153-61" v:mID="153" v:groupContext="shape" v:layerMember="0" transform="translate(37.7568,-20.5554)">
			<title>Process.153</title>
			<desc>patternBinding</desc>
			<v:custProps>
				<v:cp v:nameU="Cost" v:lbl="Cost" v:type="7" v:format="@" v:langID="1033"/>
				<v:cp v:nameU="Duration" v:lbl="Duration" v:type="2" v:langID="1033"/>
				<v:cp v:nameU="Resources" v:lbl="Resources" v:langID="1033"/>
			</v:custProps>
			<v:userDefs>
				<v:ud v:nameU="visVersion" v:val="VT0(11):26"/>
			</v:userDefs>
			<v:textBlock v:margins="rect(2,2,2,2)" v:tabSpace="42.5197"/>
			<v:textRect cx="27.8469" cy="27.4652" width="55.7" height="13.3396"/>
			<rect x="0" y="20.7954" width="55.6937" height="13.3396" rx="2.83465" ry="2.83465" class="st1"/>
			<text x="2.05" y="29.87" class="st2" v:langID="2057"><v:paragraph v:horizAlign="1"/><v:tabList/>patternBinding</text>		</g>
		<g id="shape154-64" v:mID="154" v:groupContext="shape" v:layerMember="1" transform="translate(11.9122,-8.8)">
			<title>Dynamic connector.154</title>
			<path d="M0 34.14 L5.31 34.14 A5.31496 5.31496 -180 0 0 10.63 28.82 L10.63 21.38 A5.66929 5.66929 0 0 1 16.3 15.71 L23.08
						 15.71" class="st3"/>
		</g>
		<g id="shape155-69" v:mID="155" v:groupContext="shape" v:layerMember="1" transform="translate(93.4505,-27.2252)">
			<title>Dynamic connector.155</title>
			<path d="M0 34.14 L6.17 34.14 A5.66929 5.66929 0 0 1 11.84 39.8 L11.84 46.89 A5.66929 5.66929 -180 0 0 17.51 52.56 L115.42
						 52.56" class="st3"/>
		</g>
	</g>
</svg>
