<?xml version="1.0" encoding="UTF-8" standalone="no"?>
<!DOCTYPE svg PUBLIC "-//W3C//DTD SVG 1.0//EN" "http://www.w3.org/TR/2001/REC-SVG-20010904/DTD/svg10.dtd">
<!-- Generated by Microsoft Visio 11.0, SVG Export, v1.0 infixAnd.svg Page-1 -->
<svg xmlns="http://www.w3.org/2000/svg" xmlns:v="http://schemas.microsoft.com/visio/2003/SVGExtensions/" width="3.41681in"
		height="0.519256in" viewBox="0 0 246.01 37.3865" xml:space="preserve" color-interpolation-filters="sRGB" class="st7">
	<v:documentProperties v:langID="1033" v:metric="true" v:viewMarkup="false"/>

	<style type="text/css">
	<![CDATA[
		.st1 {fill:#e8eef7;stroke:#000000;stroke-linecap:round;stroke-linejoin:round;stroke-width:0.24}
		.st2 {fill:#000000;font-family:Arial;font-size:0.666664em;font-style:italic}
		.st3 {marker-end:url(#mrkr2-9);stroke:#4677bf;stroke-linecap:round;stroke-linejoin:round;stroke-width:0.24}
		.st4 {fill:#4677bf;fill-opacity:1;stroke:#4677bf;stroke-opacity:1;stroke-width:0.08695652173913}
		.st5 {fill:#000000;font-family:Arial;font-size:0.666664em}
		.st6 {font-size:1em}
		.st7 {fill:none;fill-rule:evenodd;font-size:12;overflow:visible;stroke-linecap:square;stroke-miterlimit:3}
	]]>
	</style>

	<defs id="Markers">
		<g id="lend2">
			<path d="M 1 1 L 0 0 L 1 -1 L 1 1 " style="stroke:none"/>
		</g>
		<marker id="mrkr2-9" class="st4" v:arrowType="2" v:arrowSize="2" v:setback="11.5" refX="-11.5" orient="auto"
				markerUnits="strokeWidth">
			<use xlink:href="#lend2" transform="scale(-11.5,-11.5) "/>
		</marker>
	</defs>
	<g v:mID="0" v:index="1" v:groupContext="foregroundPage">
		<title>Page-1</title>
		<v:pageProperties v:drawingScale="0.0393701" v:pageScale="0.0393701" v:drawingUnits="24" v:shadowOffsetX="8.50394"
				v:shadowOffsetY="-8.50394"/>
		<v:layer v:name="Flowchart" v:index="0"/>
		<v:layer v:name="Connector" v:index="1"/>
		<g id="shape89-1" v:mID="89" v:groupContext="shape" v:layerMember="0" transform="translate(90.7815,-2.13018)">
			<title>Process.89</title>
			<desc>CE</desc>
			<v:custProps>
				<v:cp v:nameU="Cost" v:lbl="Cost" v:type="7" v:format="@" v:langID="1033"/>
				<v:cp v:nameU="Duration" v:lbl="Duration" v:type="2" v:langID="1033"/>
				<v:cp v:nameU="Resources" v:lbl="Resources" v:langID="1033"/>
			</v:custProps>
			<v:userDefs>
				<v:ud v:nameU="visVersion" v:val="VT0(11):26"/>
			</v:userDefs>
			<v:textBlock v:margins="rect(2,2,2,2)" v:tabSpace="42.5197"/>
			<v:textRect cx="21.4689" cy="30.7166" width="42.94" height="13.3396"/>
			<rect x="0" y="24.0468" width="42.9378" height="13.3396" rx="2.83465" ry="2.83465" class="st1"/>
			<text x="15.92" y="33.12" class="st2" v:langID="2057"><v:paragraph v:horizAlign="1"/><v:tabList/>CE</text>		</g>
		<g id="shape97-4" v:mID="97" v:groupContext="shape" v:layerMember="1" transform="translate(135.887,-8.8)">
			<title>Dynamic connector.97</title>
			<path d="M-2.17 37.39 L3.15 37.39 A5.31496 5.31496 -180 0 0 8.46 32.07 L8.46 21.38 A5.66929 5.66929 -180 0 0 2.79 15.71
						 L-9.25 15.71" class="st3"/>
		</g>
		<g id="shape98-10" v:mID="98" v:groupContext="shape" v:layerMember="1;0" transform="translate(0.24,-2.96391)">
			<title>On-page reference.98</title>
			<v:userDefs>
				<v:ud v:nameU="visVersion" v:val="VT0(11):26"/>
			</v:userDefs>
			<v:textBlock v:margins="rect(2,2,2,2)" v:tabSpace="42.5197"/>
			<path d="M0 31.55 A5.83609 5.83609 0 1 1 11.67 31.55 A5.83609 5.83609 0 0 1 0 31.55 Z" class="st1"/>
		</g>
		<g id="shape99-12" v:mID="99" v:groupContext="shape" v:layerMember="1;0" transform="translate(234.098,-2.96391)">
			<title>On-page reference.99</title>
			<v:userDefs>
				<v:ud v:nameU="visVersion" v:val="VT0(11):26"/>
			</v:userDefs>
			<v:textBlock v:margins="rect(2,2,2,2)" v:tabSpace="42.5197"/>
			<path d="M0 31.55 A5.83609 5.83609 0 1 1 11.67 31.55 A5.83609 5.83609 0 0 1 0 31.55 Z" class="st1"/>
		</g>
		<g id="shape100-14" v:mID="100" v:groupContext="shape" v:layerMember="1" transform="translate(11.9122,-1.71339)">
			<title>Dynamic connector.100</title>
			<path d="M0 30.3 L55.03 30.3 L76.11 30.3" class="st3"/>
		</g>
		<g id="shape91-19" v:mID="91" v:groupContext="shape" v:layerMember="1" transform="translate(52.2556,-29.7679)">
			<title>Dynamic connector.91</title>
			<path d="M0 37.39 L3.76 37.39 A3.75599 3.75599 0 0 1 7.51 41.14 L7.51 52.69 A5.66929 5.66929 -180 0 0 13.18 58.35 L35.77
						 58.35" class="st3"/>
		</g>
		<g id="shape37-24" v:mID="37" v:groupContext="shape" v:layerMember="1" transform="translate(133.719,-15.8866)">
			<title>Dynamic connector.37</title>
			<path d="M0 44.47 L24.51 44.47 L97.62 44.47" class="st3"/>
		</g>
		<g id="shape79-29" v:mID="79" v:groupContext="shape" v:layerMember="0" transform="translate(100.07,-23.8068)">
			<title>Process.79</title>
			<desc>‘and’</desc>
			<v:custProps>
				<v:cp v:nameU="Cost" v:lbl="Cost" v:type="7" v:format="@" v:langID="1033"/>
				<v:cp v:nameU="Duration" v:lbl="Duration" v:type="2" v:langID="1033"/>
				<v:cp v:nameU="Resources" v:lbl="Resources" v:langID="1033"/>
			</v:custProps>
			<v:userDefs>
				<v:ud v:nameU="visVersion" v:val="VT0(11):26"/>
			</v:userDefs>
			<v:textBlock v:margins="rect(2,2,2,2)" v:tabSpace="42.5197"/>
			<v:textRect cx="11.9052" cy="30.7166" width="23.82" height="13.3396"/>
			<rect x="0" y="24.0468" width="23.8103" height="13.3396" rx="2.83465" ry="2.83465" class="st1"/>
			<text x="3.45" y="33.12" class="st5" v:langID="1033"><v:paragraph v:horizAlign="1"/><v:tabList/>‘<tspan class="st6"
						v:langID="2057">and</tspan>’</text>		</g>
		<g id="shape80-33" v:mID="80" v:groupContext="shape" v:layerMember="1" transform="translate(102.513,-30.4766)">
			<title>Dynamic connector.80</title>
			<path d="M-2.44 37.39 L-18.65 37.39 A5.66929 5.66929 -180 0 0 -24.32 43.06 L-24.32 53.39 A5.66929 5.66929 -180 0 0 -18.65
						 59.06 L-14.49 59.06" class="st3"/>
		</g>
		<g id="shape81-38" v:mID="81" v:groupContext="shape" v:layerMember="1" transform="translate(11.9122,-8.8)">
			<title>Dynamic connector.81</title>
			<path d="M0 37.39 L5.31 37.39 A5.31496 5.31496 -180 0 0 10.63 32.07 L10.63 21.78 A5.36084 5.36084 0 0 1 15.99 16.42 L18.59
						 16.42" class="st3"/>
		</g>
		<g id="shape48-43" v:mID="48" v:groupContext="shape" v:layerMember="0" transform="translate(33.2638,-23.0981)">
			<title>Process.48</title>
			<desc>‘(’</desc>
			<v:custProps>
				<v:cp v:nameU="Cost" v:lbl="Cost" v:type="7" v:format="@" v:langID="1033"/>
				<v:cp v:nameU="Duration" v:lbl="Duration" v:type="2" v:langID="1033"/>
				<v:cp v:nameU="Resources" v:lbl="Resources" v:langID="1033"/>
			</v:custProps>
			<v:userDefs>
				<v:ud v:nameU="visVersion" v:val="VT0(11):26"/>
			</v:userDefs>
			<v:textBlock v:margins="rect(2,2,2,2)" v:tabSpace="42.5197"/>
			<v:textRect cx="9.49589" cy="30.7166" width="19" height="13.3396"/>
			<rect x="0" y="24.0468" width="18.9918" height="13.3396" rx="2.83465" ry="2.83465" class="st1"/>
			<text x="6.39" y="33.12" class="st5" v:langID="1033"><v:paragraph v:horizAlign="1"/><v:tabList/>‘<tspan class="st6"
						v:langID="2057">(</tspan>’</text>		</g>
		<g id="shape82-47" v:mID="82" v:groupContext="shape" v:layerMember="0" transform="translate(179.673,-23.0981)">
			<title>Process.82</title>
			<desc>‘)’</desc>
			<v:custProps>
				<v:cp v:nameU="Cost" v:lbl="Cost" v:type="7" v:format="@" v:langID="1033"/>
				<v:cp v:nameU="Duration" v:lbl="Duration" v:type="2" v:langID="1033"/>
				<v:cp v:nameU="Resources" v:lbl="Resources" v:langID="1033"/>
			</v:custProps>
			<v:userDefs>
				<v:ud v:nameU="visVersion" v:val="VT0(11):26"/>
			</v:userDefs>
			<v:textBlock v:margins="rect(2,2,2,2)" v:tabSpace="42.5197"/>
			<v:textRect cx="9.49589" cy="30.7166" width="19" height="13.3396"/>
			<rect x="0" y="24.0468" width="18.9918" height="13.3396" rx="2.83465" ry="2.83465" class="st1"/>
			<text x="6.39" y="33.12" class="st5" v:langID="1033"><v:paragraph v:horizAlign="1"/><v:tabList/>‘<tspan class="st6"
						v:langID="2057">)</tspan>’</text>		</g>
		<g id="shape85-51" v:mID="85" v:groupContext="shape" v:layerMember="1" transform="translate(133.719,-8.8)">
			<title>Dynamic connector.85</title>
			<path d="M0 37.39 L30.93 37.39 A5.66929 5.66929 -180 0 0 36.6 31.72 L36.6 21.1 A4.67733 4.67733 0 0 1 41.28 16.42 L43.19
						 16.42" class="st3"/>
		</g>
		<g id="shape86-56" v:mID="86" v:groupContext="shape" v:layerMember="1" transform="translate(198.665,-29.7679)">
			<title>Dynamic connector.86</title>
			<path d="M0 37.39 L8.5 37.39 A5.66929 5.66929 0 0 1 14.17 43.06 L14.17 52.69 A5.66929 5.66929 -180 0 0 19.84 58.35 L32.67
						 58.35" class="st3"/>
		</g>
	</g>
</svg>
