<?xml version="1.0" encoding="UTF-8"?>
<!-- Generated by Microsoft Visio 11.0, SVG Export, v1.0 package.svg Page-1 --><svg xmlns="http://www.w3.org/2000/svg" xmlns:v="http://schemas.microsoft.com/visio/2003/SVGExtensions/" xmlns:xlink="http://www.w3.org/1999/xlink" width="3.19807in" height="3.63542in" viewBox="0 0 230.261 261.75" xml:space="preserve" color-interpolation-filters="sRGB" class="st7" preserveAspectRatio="xMidYMid meet" zoomAndPan="magnify" version="1.0" contentScriptType="text/ecmascript" contentStyleType="text/css">
	<v:documentProperties v:langID="1033" v:metric="true" v:viewMarkup="false"/>

	<style type="text/css" xml:space="preserve">
	
		.st1 {fill:#e8eef7;stroke:#000000;stroke-linecap:round;stroke-linejoin:round;stroke-width:0.24}
		.st2 {fill:#000000;font-family:Arial;font-size:0.666664em;font-style:italic}
		.st3 {marker-end:url(#mrkr2-12);stroke:#4677bf;stroke-linecap:round;stroke-linejoin:round;stroke-width:0.24}
		.st4 {fill:#4677bf;fill-opacity:1;stroke:#4677bf;stroke-opacity:1;stroke-width:0.08695652173913}
		.st5 {fill:#000000;font-family:Arial;font-size:0.666664em}
		.st6 {font-size:1em}
		.st7 {fill:none;fill-rule:evenodd;font-size:12;overflow:visible;stroke-linecap:square;stroke-miterlimit:3}
	
	</style>

	<defs id="Markers">
		<g id="lend2">
			<path d="M 1 1 L 0 0 L 1 -1 L 1 1 " style="stroke:none"/>
		</g>
		<marker xmlns="http://www.w3.org/TR/xhtml1/transitional" overflow="visible" id="mrkr2-12" class="st4" v:arrowType="2" v:arrowSize="2" v:setback="11.5" refX="-11.5" orient="auto" markerUnits="strokeWidth" preserveAspectRatio="xMidYMid meet">
			<use xmlns="http://www.w3.org/2000/svg" xlink:href="#lend2" transform="scale(-11.5,-11.5) " xlink:type="simple" xlink:show="embed" xlink:actuate="onLoad"/>
		</marker>
	</defs>
	<g v:mID="0" v:index="1" v:groupContext="foregroundPage">
		<title content="structured text">Page-1</title>
		<v:pageProperties v:drawingScale="0.0393701" v:pageScale="0.0393701" v:drawingUnits="24" v:shadowOffsetX="8.50394" v:shadowOffsetY="-8.50394"/>
		<v:layer v:name="Flowchart" v:index="0"/>
		<v:layer v:name="Connector" v:index="1"/>
		<g id="shape1-1" v:mID="1" v:groupContext="shape" v:layerMember="0" transform="translate(42.236,-194.795)">
			<title content="structured text">Process.1</title>
			<desc content="structured text">import</desc>
			<v:custProps>
				<v:cp v:nameU="Cost" v:lbl="Cost" v:type="7" v:format="@" v:langID="1033"/>
				<v:cp v:nameU="Duration" v:lbl="Duration" v:type="2" v:langID="1033"/>
				<v:cp v:nameU="Resources" v:lbl="Resources" v:langID="1033"/>
			</v:custProps>
			<v:userDefs>
				<v:ud v:nameU="visVersion" v:val="VT0(11):26"/>
			</v:userDefs>
			<v:textBlock v:margins="rect(2,2,2,2)" v:tabSpace="42.5197"/>
			<v:textRect cx="26.9193" cy="254.663" width="53.84" height="14.1732"/>
			<rect x="0" y="247.577" width="53.8386" height="14.1732" rx="2.83465" ry="2.83465" class="st1"/>
			<text x="15.81" y="257.06" class="st2" v:langID="2057"><v:paragraph v:horizAlign="1"/><v:tabList/>import</text>		</g>
		<g id="shape3-4" v:mID="3" v:groupContext="shape" v:layerMember="0" transform="translate(47.8955,-52.7819)">
			<title content="structured text">Process.97</title>
			<desc content="structured text">rule</desc>
			<v:custProps>
				<v:cp v:nameU="Cost" v:lbl="Cost" v:type="7" v:format="@" v:langID="1033"/>
				<v:cp v:nameU="Duration" v:lbl="Duration" v:type="2" v:langID="1033"/>
				<v:cp v:nameU="Resources" v:lbl="Resources" v:langID="1033"/>
			</v:custProps>
			<v:userDefs>
				<v:ud v:nameU="visVersion" v:val="VT0(11):26"/>
			</v:userDefs>
			<v:textBlock v:margins="rect(2,2,2,2)" v:tabSpace="42.5197"/>
			<v:textRect cx="19.4451" cy="254.318" width="38.9" height="14.8647"/>
			<rect x="0" y="246.885" width="38.8902" height="14.8647" rx="2.83465" ry="2.83465" class="st1"/>
			<text x="12.78" y="256.72" class="st2" v:langID="2057"><v:paragraph v:horizAlign="1"/><v:tabList/>rule</text>		</g>
		<g id="shape4-7" v:mID="4" v:groupContext="shape" v:layerMember="1" transform="translate(86.7857,-53.1276)">
			<title content="structured text">Dynamic connector.102</title>
			<path d="M0 254.66 L20.16 254.66 A5.66929 5.66929 -180 0 0 25.83 248.99 L25.83 246.22 A5.66929 5.66929 -180 0 0 20.16        240.56 L-53.18 240.56 A5.66929 5.66929 -180 0 0 -58.85 246.22 L-58.85 248.99 A5.66929 5.66929 -180 0 0 -53.18        254.66 L-41.65 254.66" class="st3"/>
		</g>
		<g id="shape5-13" v:mID="5" v:groupContext="shape" v:layerMember="0" transform="translate(45.8971,-109.475)">
			<title content="structured text">Process.103</title>
			<desc content="structured text">function</desc>
			<v:custProps>
				<v:cp v:nameU="Cost" v:lbl="Cost" v:type="7" v:format="@" v:langID="1033"/>
				<v:cp v:nameU="Duration" v:lbl="Duration" v:type="2" v:langID="1033"/>
				<v:cp v:nameU="Resources" v:lbl="Resources" v:langID="1033"/>
			</v:custProps>
			<v:userDefs>
				<v:ud v:nameU="visVersion" v:val="VT0(11):26"/>
			</v:userDefs>
			<v:textBlock v:margins="rect(2,2,2,2)" v:tabSpace="42.5197"/>
			<v:textRect cx="23.2582" cy="254.663" width="46.52" height="14.1732"/>
			<rect x="0" y="247.577" width="46.5163" height="14.1732" rx="2.83465" ry="2.83465" class="st1"/>
			<text x="9.24" y="257.06" class="st2" v:langID="2057"><v:paragraph v:horizAlign="1"/><v:tabList/>function</text>		</g>
		<g id="shape6-16" v:mID="6" v:groupContext="shape" v:layerMember="0" transform="translate(45.2971,-138.102)">
			<title content="structured text">Process.104</title>
			<desc content="structured text">global</desc>
			<v:custProps>
				<v:cp v:nameU="Cost" v:lbl="Cost" v:type="7" v:format="@" v:langID="1033"/>
				<v:cp v:nameU="Duration" v:lbl="Duration" v:type="2" v:langID="1033"/>
				<v:cp v:nameU="Resources" v:lbl="Resources" v:langID="1033"/>
			</v:custProps>
			<v:userDefs>
				<v:ud v:nameU="visVersion" v:val="VT0(11):26"/>
			</v:userDefs>
			<v:textBlock v:margins="rect(2,2,2,2)" v:tabSpace="42.5197"/>
			<v:textRect cx="23.8582" cy="254.663" width="47.72" height="14.1732"/>
			<rect x="0" y="247.577" width="47.7165" height="14.1732" rx="2.83465" ry="2.83465" class="st1"/>
			<text x="13.17" y="257.06" class="st2" v:langID="2057"><v:paragraph v:horizAlign="1"/><v:tabList/>global</text>		</g>
		<g id="shape7-19" v:mID="7" v:groupContext="shape" v:layerMember="1" transform="translate(93.0135,-138.102)">
			<title content="structured text">Dynamic connector.105</title>
			<path d="M0 254.66 L14.29 254.66 A5.66929 5.66929 -180 0 0 19.96 248.99 L19.96 246.16 A5.66929 5.66929 -180 0 0 14.29        240.49 L-59.41 240.49 A5.66929 5.66929 -180 0 0 -65.08 246.16 L-65.08 248.99 A5.66929 5.66929 -180 0 0 -59.41        254.66 L-50.48 254.66" class="st3"/>
		</g>
		<g id="shape8-24" v:mID="8" v:groupContext="shape" v:layerMember="1" transform="translate(92.4135,-109.475)">
			<title content="structured text">Dynamic connector.39</title>
			<path d="M0 254.66 L14.89 254.66 A5.66929 5.66929 -180 0 0 20.56 248.99 L20.56 245.88 A5.66929 5.66929 -180 0 0 14.89        240.21 L-58.81 240.21 A5.66929 5.66929 -180 0 0 -64.48 245.88 L-64.48 248.99 A5.66929 5.66929 -180 0 0 -58.81        254.66 L-49.28 254.66" class="st3"/>
		</g>
		<g id="shape15-29" v:mID="15" v:groupContext="shape" v:layerMember="1" transform="translate(11.7804,-255.74)">
			<title content="structured text">Dynamic connector.113</title>
			<path d="M0 261.75 L10.48 261.75 A5.66929 5.66929 0 0 1 16.15 267.42 L16.15 281.59 A5.66929 5.66929 -180 0 0 21.82 287.26        L27.57 287.26" class="st3"/>
		</g>
		<g id="shape36-34" v:mID="36" v:groupContext="shape" v:layerMember="0" transform="translate(42.3879,-166.449)">
			<title content="structured text">Process.175</title>
			<desc content="structured text">expander</desc>
			<v:custProps>
				<v:cp v:nameU="Cost" v:lbl="Cost" v:type="7" v:format="@" v:langID="1033"/>
				<v:cp v:nameU="Duration" v:lbl="Duration" v:type="2" v:langID="1033"/>
				<v:cp v:nameU="Resources" v:lbl="Resources" v:langID="1033"/>
			</v:custProps>
			<v:userDefs>
				<v:ud v:nameU="visVersion" v:val="VT0(11):26"/>
			</v:userDefs>
			<v:textBlock v:margins="rect(2,2,2,2)" v:tabSpace="42.5197"/>
			<v:textRect cx="27.5569" cy="254.663" width="55.12" height="14.1732"/>
			<rect x="0" y="247.577" width="55.1139" height="14.1732" rx="2.83465" ry="2.83465" class="st1"/>
			<text x="10.87" y="257.06" class="st2" v:langID="1033"><v:paragraph v:horizAlign="1"/><v:tabList/>expander</text>		</g>
		<g id="shape58-37" v:mID="58" v:groupContext="shape" v:layerMember="0" transform="translate(47.7197,-24.4354)">
			<title content="structured text">Process.17</title>
			<desc content="structured text">EOF</desc>
			<v:custProps>
				<v:cp v:nameU="Cost" v:lbl="Cost" v:type="7" v:format="@" v:langID="1033"/>
				<v:cp v:nameU="Duration" v:lbl="Duration" v:type="2" v:langID="1033"/>
				<v:cp v:nameU="Resources" v:lbl="Resources" v:langID="1033"/>
			</v:custProps>
			<v:userDefs>
				<v:ud v:nameU="visVersion" v:val="VT0(11):26"/>
			</v:userDefs>
			<v:textBlock v:margins="rect(2,2,2,2)" v:tabSpace="42.5197"/>
			<v:textRect cx="17.8044" cy="254.663" width="35.61" height="14.1732"/>
			<rect x="0" y="247.577" width="35.6089" height="14.1732" rx="2.83465" ry="2.83465" class="st1"/>
			<text x="9.58" y="257.06" class="st2" v:langID="1033"><v:paragraph v:horizAlign="1"/><v:tabList/>EOF</text>		</g>
		<g id="shape59-40" v:mID="59" v:groupContext="shape" v:layerMember="1" transform="translate(83.3285,-31.522)">
			<title content="structured text">Dynamic connector.78</title>
			<path d="M0 261.75 L10.16 261.75 A5.66929 5.66929 0 0 1 15.82 267.42 L15.82 281.59 A5.66929 5.66929 -180 0 0 21.49 287.26        L26.88 287.26" class="st3"/>
		</g>
		<g id="shape60-45" v:mID="60" v:groupContext="shape" v:layerMember="1" transform="translate(173.291,-229.977)">
			<title content="structured text">Dynamic connector.11</title>
			<path d="M0 261.75 L47.4 261.75 A5.66929 5.66929 0 0 1 53.07 267.42 L53.07 270 A5.66929 5.66929 0 0 1 47.4 275.67 L-139.69        275.67 A5.66929 5.66929 -180 0 0 -145.36 281.34 L-145.36 425.84 A5.66929 5.66929 -180 0 0 -139.69 431.51        L-128.16 431.51" class="st3"/>
		</g>
		<g id="shape61-50" v:mID="61" v:groupContext="shape" v:layerMember="0" transform="translate(42.1058,-223.141)">
			<title content="structured text">Process.23</title>
			<desc content="structured text">‘package’</desc>
			<v:custProps>
				<v:cp v:nameU="Cost" v:lbl="Cost" v:type="7" v:format="@" v:langID="1033"/>
				<v:cp v:nameU="Duration" v:lbl="Duration" v:type="2" v:langID="1033"/>
				<v:cp v:nameU="Resources" v:lbl="Resources" v:langID="1033"/>
			</v:custProps>
			<v:userDefs>
				<v:ud v:nameU="visVersion" v:val="VT0(11):26"/>
			</v:userDefs>
			<v:textBlock v:margins="rect(2,2,2,2)" v:tabSpace="42.5197"/>
			<v:textRect cx="27.5099" cy="254.663" width="55.02" height="14.1732"/>
			<rect x="0" y="247.577" width="55.0198" height="14.1732" rx="2.83465" ry="2.83465" class="st1"/>
			<text x="10.6" y="257.06" class="st5" v:langID="2057"><v:paragraph v:horizAlign="1"/><v:tabList/>‘package’</text>		</g>
		<g id="shape62-53" v:mID="62" v:groupContext="shape" v:layerMember="1" transform="translate(86.7857,-60.2142)">
			<title content="structured text">Dynamic connector.18</title>
			<path d="M0 261.75 L20.16 261.75 A5.66929 5.66929 0 0 1 25.83 267.42 L25.83 270.6 A5.66929 5.66929 0 0 1 20.16 276.27        L-53.18 276.27 A5.66929 5.66929 -180 0 0 -58.85 281.94 L-58.85 284.77 A5.66929 5.66929 -180 0 0 -53.18 290.44        L-41.83 290.44" class="st3"/>
		</g>
		<g id="shape64-58" v:mID="64" v:groupContext="shape" v:layerMember="1" transform="translate(92.4135,-116.561)">
			<title content="structured text">Dynamic connector.223</title>
			<path d="M0 261.75 L14.89 261.75 A5.66929 5.66929 0 0 1 20.56 267.42 L20.56 270.25 A5.66929 5.66929 0 0 1 14.89 275.92        L-58.81 275.92 A5.66929 5.66929 -180 0 0 -64.48 281.59 L-64.48 284.43 A5.66929 5.66929 -180 0 0 -58.81 290.1        L-47.28 290.1" class="st3"/>
		</g>
		<g id="shape65-63" v:mID="65" v:groupContext="shape" v:layerMember="0" transform="translate(47.8955,-81.1283)">
			<title content="structured text">Process.224</title>
			<desc content="structured text">query</desc>
			<v:custProps>
				<v:cp v:nameU="Cost" v:lbl="Cost" v:type="7" v:format="@" v:langID="1033"/>
				<v:cp v:nameU="Duration" v:lbl="Duration" v:type="2" v:langID="1033"/>
				<v:cp v:nameU="Resources" v:lbl="Resources" v:langID="1033"/>
			</v:custProps>
			<v:userDefs>
				<v:ud v:nameU="visVersion" v:val="VT0(11):26"/>
			</v:userDefs>
			<v:textBlock v:margins="rect(2,2,2,2)" v:tabSpace="42.5197"/>
			<v:textRect cx="19.4451" cy="254.663" width="38.9" height="14.1732"/>
			<rect x="0" y="247.577" width="38.8902" height="14.1732" rx="2.83465" ry="2.83465" class="st1"/>
			<text x="9.44" y="257.06" class="st2" v:langID="2057"><v:paragraph v:horizAlign="1"/><v:tabList/>query</text>		</g>
		<g id="shape66-66" v:mID="66" v:groupContext="shape" v:layerMember="1" transform="translate(86.7857,-81.1283)">
			<title content="structured text">Dynamic connector.225</title>
			<path d="M0 254.66 L20.16 254.66 A5.66929 5.66929 -180 0 0 25.83 248.99 L25.83 246.16 A5.66929 5.66929 -180 0 0 20.16        240.49 L-53.12 240.49 A5.66929 5.66929 -180 0 0 -58.79 246.16 L-58.79 248.99 A5.66929 5.66929 -180 0 0 -53.12        254.66 L-41.65 254.66" class="st3"/>
		</g>
		<g id="shape67-71" v:mID="67" v:groupContext="shape" v:layerMember="1" transform="translate(173.291,-229.977)">
			<title content="structured text">Dynamic connector.30</title>
			<path d="M0 261.75 L47.4 261.75 A5.66929 5.66929 0 0 1 53.07 267.42 L53.07 270 A5.66929 5.66929 0 0 1 47.4 275.67 L-139.69        275.67 A5.66929 5.66929 -180 0 0 -145.36 281.34 L-145.36 284.18 A5.66929 5.66929 -180 0 0 -139.69 289.85        L-133.82 289.85" class="st3"/>
		</g>
		<g id="shape83-76" v:mID="83" v:groupContext="shape" v:layerMember="1" transform="translate(97.5018,-166.449)">
			<title content="structured text">Dynamic connector.83</title>
			<path d="M0 254.66 L9.8 254.66 A5.66929 5.66929 -180 0 0 15.47 248.99 L15.47 246.16 A5.66929 5.66929 -180 0 0 9.8 240.49        L-63.9 240.49 A5.66929 5.66929 -180 0 0 -69.57 246.16 L-69.57 248.99 A5.66929 5.66929 -180 0 0 -63.9 254.66        L-57.87 254.66" class="st3"/>
		</g>
		<g id="shape84-81" v:mID="84" v:groupContext="shape" v:layerMember="1" transform="translate(96.0746,-201.882)">
			<title content="structured text">Dynamic connector.84</title>
			<path d="M0 261.75 L11.23 261.75 A5.66929 5.66929 0 0 1 16.9 267.42 L16.9 270.25 A5.66929 5.66929 0 0 1 11.23 275.92        L-62.47 275.92 A5.66929 5.66929 -180 0 0 -68.14 281.59 L-68.14 284.43 A5.66929 5.66929 -180 0 0 -62.47 290.1        L-56.45 290.1" class="st3"/>
		</g>
		<g id="shape85-86" v:mID="85" v:groupContext="shape" v:layerMember="1" transform="translate(97.5018,-173.535)">
			<title content="structured text">Dynamic connector.106</title>
			<path d="M0 261.75 L9.8 261.75 A5.66929 5.66929 0 0 1 15.47 267.42 L15.47 270.25 A5.66929 5.66929 0 0 1 9.8 275.92 L-63.9        275.92 A5.66929 5.66929 -180 0 0 -69.57 281.59 L-69.57 284.43 A5.66929 5.66929 -180 0 0 -63.9 290.1 L-54.96        290.1" class="st3"/>
		</g>
		<g id="shape86-91" v:mID="86" v:groupContext="shape" v:layerMember="1" transform="translate(86.7857,-88.2149)">
			<title content="structured text">Dynamic connector.115</title>
			<path d="M0 261.75 L20.52 261.75 A5.66929 5.66929 0 0 1 26.19 267.42 L26.19 269.97 A5.66929 5.66929 0 0 1 20.52 275.64        L-53.18 275.64 A5.66929 5.66929 -180 0 0 -58.85 281.31 L-58.85 312.77 A5.66929 5.66929 -180 0 0 -53.18 318.44        L-41.83 318.44" class="st3"/>
		</g>
		<g id="shape63-96" v:mID="63" v:groupContext="shape" v:layerMember="1" transform="translate(96.0746,-194.795)">
			<title content="structured text">Dynamic connector.63</title>
			<path d="M0 254.66 L10.87 254.66 A5.66929 5.66929 -180 0 0 16.54 248.99 L16.54 246.16 A5.66929 5.66929 -180 0 0 10.87        240.49 L-62.47 240.49 A5.66929 5.66929 -180 0 0 -68.14 246.16 L-68.14 248.99 A5.66929 5.66929 -180 0 0 -62.47        254.66 L-56.6 254.66" class="st3"/>
		</g>
		<g id="shape79-101" v:mID="79" v:groupContext="shape" v:layerMember="1" transform="translate(93.0135,-145.189)">
			<title content="structured text">Dynamic connector.79</title>
			<path d="M0 261.75 L14.29 261.75 A5.66929 5.66929 0 0 1 19.96 267.42 L19.96 270.25 A5.66929 5.66929 0 0 1 14.29 275.92        L-59.41 275.92 A5.66929 5.66929 -180 0 0 -65.08 281.59 L-65.08 284.71 A5.66929 5.66929 -180 0 0 -59.41 290.38        L-49.88 290.38" class="st3"/>
		</g>
		<g id="shape80-106" v:mID="80" v:groupContext="shape" v:layerMember="1" transform="translate(86.7857,-88.2149)">
			<title content="structured text">Dynamic connector.80</title>
			<path d="M0 261.75 L20.52 261.75 A5.66929 5.66929 0 0 1 26.19 267.42 L26.19 269.97 A5.66929 5.66929 0 0 1 20.52 275.64        L-53.18 275.64 A5.66929 5.66929 -180 0 0 -58.85 281.31 L-58.85 284.08 A5.66929 5.66929 -180 0 0 -53.18 289.75        L-41.65 289.75" class="st3"/>
		</g>
		<g id="shape82-111" v:mID="82" v:groupContext="shape" v:layerMember="0" transform="translate(112.972,-223.141)">
			<title content="structured text">Process.82</title>
			<desc content="structured text">namespace</desc>
			<v:custProps>
				<v:cp v:nameU="Cost" v:lbl="Cost" v:type="7" v:format="@" v:langID="1033"/>
				<v:cp v:nameU="Duration" v:lbl="Duration" v:type="2" v:langID="1033"/>
				<v:cp v:nameU="Resources" v:lbl="Resources" v:langID="1033"/>
			</v:custProps>
			<v:userDefs>
				<v:ud v:nameU="visVersion" v:val="VT0(11):26"/>
			</v:userDefs>
			<v:textBlock v:margins="rect(2,2,2,2)" v:tabSpace="42.5197"/>
			<v:textRect cx="30.1596" cy="254.915" width="60.32" height="13.6703"/>
			<rect x="0" y="248.08" width="60.3191" height="13.6703" rx="2.83465" ry="2.83465" class="st1"/>
			<text x="9.47" y="257.31" class="st2" v:langID="2057"><v:paragraph v:horizAlign="1"/><v:tabList/>namespace</text>		</g>
		<g id="shape87-114" v:mID="87" v:groupContext="shape" v:layerMember="0" transform="translate(190.925,-240.149)">
			<title content="structured text">Process.87</title>
			<desc content="structured text">‘;’</desc>
			<v:custProps>
				<v:cp v:nameU="Cost" v:lbl="Cost" v:type="7" v:format="@" v:langID="1033"/>
				<v:cp v:nameU="Duration" v:lbl="Duration" v:type="2" v:langID="1033"/>
				<v:cp v:nameU="Resources" v:lbl="Resources" v:langID="1033"/>
			</v:custProps>
			<v:userDefs>
				<v:ud v:nameU="visVersion" v:val="VT0(11):26"/>
			</v:userDefs>
			<v:textBlock v:margins="rect(2,2,2,2)" v:tabSpace="42.5197"/>
			<v:textRect cx="10.2527" cy="254.915" width="20.51" height="13.6703"/>
			<rect x="0" y="248.08" width="20.5054" height="13.6703" rx="2.83465" ry="2.83465" class="st1"/>
			<text x="7.36" y="257.31" class="st5" v:langID="1033"><v:paragraph v:horizAlign="1"/><v:tabList/>‘<tspan class="st6" v:langID="2057">;</tspan>’</text>		</g>
		<g id="shape88-118" v:mID="88" v:groupContext="shape" v:layerMember="1" transform="translate(173.291,-229.977)">
			<title content="structured text">Dynamic connector.88</title>
			<path d="M0 261.75 L5.27 261.75 A5.27351 5.27351 -180 0 0 10.55 256.48 L10.55 248.29 A3.54331 3.54331 0 0 1 14.09 244.74        L14.87 244.74" class="st3"/>
		</g>
		<g id="shape89-123" v:mID="89" v:groupContext="shape" v:layerMember="1" transform="translate(211.43,-246.984)">
			<title content="structured text">Dynamic connector.89</title>
			<path d="M0 261.75 L9.26 261.75 A5.66929 5.66929 0 0 1 14.93 267.42 L14.93 287.01 A5.66929 5.66929 0 0 1 9.26 292.68        L-177.83 292.68 A5.66929 5.66929 -180 0 0 -183.5 298.35 L-183.5 301.18 A5.66929 5.66929 -180 0 0 -177.83        306.85 L-171.95 306.85" class="st3"/>
		</g>
		<g id="shape91-128" v:mID="91" v:groupContext="shape" v:layerMember="1" transform="translate(97.1256,-237.189)">
			<title content="structured text">Dynamic connector.91</title>
			<path d="M0 268.71 L8.5 268.71 L8.5 268.96 L13.09 268.96" class="st3"/>
		</g>
		<g id="shape14-133" v:mID="14" v:groupContext="shape" v:layerMember="1;0" transform="translate(0.24,-249.97)">
			<title content="structured text">On-page reference.14</title>
			<v:userDefs>
				<v:ud v:nameU="visVersion" v:val="VT0(11):26"/>
			</v:userDefs>
			<v:textBlock v:margins="rect(2,2,2,2)" v:tabSpace="42.5197"/>
			<path d="M0 255.98 A5.7702 5.7702 0 1 1 11.54 255.98 A5.7702 5.7702 0 0 1 0 255.98 Z" class="st1"/>
		</g>
		<g id="shape81-135" v:mID="81" v:groupContext="shape" v:layerMember="1;0" transform="translate(112.972,-0.24)">
			<title content="structured text">On-page reference.81</title>
			<v:userDefs>
				<v:ud v:nameU="visVersion" v:val="VT0(11):26"/>
			</v:userDefs>
			<v:textBlock v:margins="rect(2,2,2,2)" v:tabSpace="42.5197"/>
			<path d="M0 255.98 A5.7702 5.7702 0 1 1 11.54 255.98 A5.7702 5.7702 0 0 1 0 255.98 Z" class="st1"/>
		</g>
	</g>
</svg>