<?xml version="1.0" encoding="UTF-8"?>
<!-- Generated by Microsoft Visio 11.0, SVG Export, v1.0 single_line_comment.svg Page-1 --><svg xmlns="http://www.w3.org/2000/svg" xmlns:v="http://schemas.microsoft.com/visio/2003/SVGExtensions/" xmlns:xlink="http://www.w3.org/1999/xlink" width="2.13202in" height="0.536847in" viewBox="0 0 153.505 38.653" xml:space="preserve" color-interpolation-filters="sRGB" class="st5" preserveAspectRatio="xMidYMid meet" zoomAndPan="magnify" version="1.0" contentScriptType="text/ecmascript" contentStyleType="text/css">
	<v:documentProperties v:langID="1033" v:metric="true" v:viewMarkup="false"/>

	<style type="text/css" xml:space="preserve">
	
		.st1 {fill:#e8eef7;stroke:#000000;stroke-linecap:round;stroke-linejoin:round;stroke-width:0.24}
		.st2 {fill:#000000;font-family:Arial;font-size:0.666664em}
		.st3 {marker-end:url(#mrkr2-14);stroke:#4677bf;stroke-linecap:round;stroke-linejoin:round;stroke-width:0.24}
		.st4 {fill:#4677bf;fill-opacity:1;stroke:#4677bf;stroke-opacity:1;stroke-width:0.08695652173913}
		.st5 {fill:none;fill-rule:evenodd;font-size:12;overflow:visible;stroke-linecap:square;stroke-miterlimit:3}
	
	</style>

	<defs id="Markers">
		<g id="lend2">
			<path d="M 1 1 L 0 0 L 1 -1 L 1 1 " style="stroke:none"/>
		</g>
		<marker xmlns="http://www.w3.org/TR/xhtml1/transitional" overflow="visible" id="mrkr2-14" class="st4" v:arrowType="2" v:arrowSize="2" v:setback="11.5" refX="-11.5" orient="auto" markerUnits="strokeWidth" preserveAspectRatio="xMidYMid meet">
			<use xmlns="http://www.w3.org/2000/svg" xlink:href="#lend2" transform="scale(-11.5,-11.5) " xlink:type="simple" xlink:show="embed" xlink:actuate="onLoad"/>
		</marker>
	</defs>
	<g v:mID="0" v:index="1" v:groupContext="foregroundPage">
		<title content="structured text">Page-1</title>
		<v:pageProperties v:drawingScale="0.0393701" v:pageScale="0.0393701" v:drawingUnits="24" v:shadowOffsetX="8.50394" v:shadowOffsetY="-8.50394"/>
		<v:layer v:name="Flowchart" v:index="0"/>
		<v:layer v:name="Connector" v:index="1"/>
		<g id="shape47-1" v:mID="47" v:groupContext="shape" v:layerMember="0" transform="translate(38.9519,-0.24)">
			<title content="structured text">Process.43</title>
			<desc content="structured text">‘//’</desc>
			<v:custProps>
				<v:cp v:nameU="Cost" v:lbl="Cost" v:type="7" v:format="@" v:langID="1033"/>
				<v:cp v:nameU="Duration" v:lbl="Duration" v:type="2" v:langID="1033"/>
				<v:cp v:nameU="Resources" v:lbl="Resources" v:langID="1033"/>
			</v:custProps>
			<v:userDefs>
				<v:ud v:nameU="visVersion" v:val="VT0(11):26"/>
			</v:userDefs>
			<v:textBlock v:margins="rect(2,2,2,2)" v:tabSpace="42.5197"/>
			<v:textRect cx="10.8944" cy="31.39" width="21.79" height="14.5259"/>
			<rect x="0" y="24.1271" width="21.7889" height="14.5259" rx="2.83465" ry="2.83465" class="st1"/>
			<text x="6.9" y="33.79" class="st2" v:langID="1033"><v:paragraph v:horizAlign="1"/><v:tabList/>‘//’</text>		</g>
		<g id="shape48-4" v:mID="48" v:groupContext="shape" v:layerMember="1;0" transform="translate(0.24,-18.3974)">
			<title content="structured text">On-page reference.44</title>
			<v:userDefs>
				<v:ud v:nameU="visVersion" v:val="VT0(11):26"/>
			</v:userDefs>
			<v:textBlock v:margins="rect(2,2,2,2)" v:tabSpace="42.5197"/>
			<path d="M0 32.3 A6.35509 6.35509 0 0 1 12.71 32.3 A6.35509 6.35509 0 1 1 0 32.3 Z" class="st1"/>
		</g>
		<g id="shape49-6" v:mID="49" v:groupContext="shape" v:layerMember="0" transform="translate(90.9487,-23.8871)">
			<title content="structured text">Process.46</title>
			<desc content="structured text">EOL</desc>
			<v:custProps>
				<v:cp v:nameU="Cost" v:lbl="Cost" v:type="7" v:format="@" v:langID="1033"/>
				<v:cp v:nameU="Duration" v:lbl="Duration" v:type="2" v:langID="1033"/>
				<v:cp v:nameU="Resources" v:lbl="Resources" v:langID="1033"/>
			</v:custProps>
			<v:userDefs>
				<v:ud v:nameU="visVersion" v:val="VT0(11):26"/>
			</v:userDefs>
			<v:textBlock v:margins="rect(2,2,2,2)" v:tabSpace="42.5197"/>
			<v:textRect cx="15.5971" cy="31.39" width="31.2" height="14.5259"/>
			<rect x="0" y="24.1271" width="31.1942" height="14.5259" rx="2.83465" ry="2.83465" class="st1"/>
			<text x="7.6" y="33.79" class="st2" v:langID="1033"><v:paragraph v:horizAlign="1"/><v:tabList/>EOL</text>		</g>
		<g id="shape50-9" v:mID="50" v:groupContext="shape" v:layerMember="1" transform="translate(122.143,-38.1485)">
			<title content="structured text">Dynamic connector.191</title>
			<path d="M0 45.65 L10.63 45.65 L10.63 45.83 L15.65 45.83" class="st3"/>
		</g>
		<g id="shape52-15" v:mID="52" v:groupContext="shape" v:layerMember="1;0" transform="translate(140.555,-24.6186)">
			<title content="structured text">On-page reference.197</title>
			<v:userDefs>
				<v:ud v:nameU="visVersion" v:val="VT0(11):26"/>
			</v:userDefs>
			<v:textBlock v:margins="rect(2,2,2,2)" v:tabSpace="42.5197"/>
			<path d="M0 32.3 A6.35509 6.35509 0 0 1 12.71 32.3 A6.35509 6.35509 0 1 1 0 32.3 Z" class="st1"/>
		</g>
		<g id="shape53-17" v:mID="53" v:groupContext="shape" v:layerMember="0" transform="translate(38.9519,-23.8446)">
			<title content="structured text">Process.198</title>
			<desc content="structured text">‘#’</desc>
			<v:custProps>
				<v:cp v:nameU="Cost" v:lbl="Cost" v:type="7" v:format="@" v:langID="1033"/>
				<v:cp v:nameU="Duration" v:lbl="Duration" v:type="2" v:langID="1033"/>
				<v:cp v:nameU="Resources" v:lbl="Resources" v:langID="1033"/>
			</v:custProps>
			<v:userDefs>
				<v:ud v:nameU="visVersion" v:val="VT0(11):26"/>
			</v:userDefs>
			<v:textBlock v:margins="rect(2,2,2,2)" v:tabSpace="42.5197"/>
			<v:textRect cx="10.8944" cy="31.39" width="21.79" height="14.5259"/>
			<rect x="0" y="24.1271" width="21.7889" height="14.5259" rx="2.83465" ry="2.83465" class="st1"/>
			<text x="6.9" y="33.79" class="st2" v:langID="1033"><v:paragraph v:horizAlign="1"/><v:tabList/>‘#’</text>		</g>
		<g id="shape54-20" v:mID="54" v:groupContext="shape" v:layerMember="1" transform="translate(12.9502,-20.8434)">
			<title content="structured text">Dynamic connector.45</title>
			<path d="M0 34.74 L7.45 34.74 A3.17755 3.17755 -180 0 0 10.63 31.57 L10.63 31.57 A3.17755 3.17755 0 0 1 13.81 28.39 L23.24        28.39" class="st3"/>
		</g>
		<g id="shape55-25" v:mID="55" v:groupContext="shape" v:layerMember="1" transform="translate(12.9502,-24.7525)">
			<title content="structured text">Dynamic connector.48</title>
			<path d="M0 38.65 L5.31 38.65 A5.31496 5.31496 0 0 1 10.63 43.97 L10.63 50.23 A5.66929 5.66929 -180 0 0 16.3 55.9 L23.24        55.9" class="st3"/>
		</g>
		<g id="shape56-30" v:mID="56" v:groupContext="shape" v:layerMember="1" transform="translate(60.7407,-24.0422)">
			<title content="structured text">Dynamic connector.199</title>
			<path d="M0 31.59 L10.61 31.59 a0.0212272 0.0212272 -180 0 0 0.0212272 -0.0212272 L10.63 31.57 a0.0212272 0.0212272 0        0 1 0.0212272 -0.0212272 L27.45 31.55" class="st3"/>
		</g>
		<g id="shape57-35" v:mID="57" v:groupContext="shape" v:layerMember="1" transform="translate(60.7407,-7.50296)">
			<title content="structured text">Dynamic connector.200</title>
			<path d="M0 38.65 L5.31 38.65 A5.31496 5.31496 -180 0 0 10.63 33.34 L10.63 20.68 A5.66929 5.66929 0 0 1 16.3 15.01 L27.45        15.01" class="st3"/>
		</g>
	</g>
</svg>