<?xml version="1.0" encoding="UTF-8"?>
<!-- Generated by Microsoft Visio 11.0, SVG Export, v1.0 and.svg Page-1 --><svg xmlns="http://www.w3.org/2000/svg" xmlns:v="http://schemas.microsoft.com/visio/2003/SVGExtensions/" xmlns:xlink="http://www.w3.org/1999/xlink" width="2.32372in" height="1.22638in" viewBox="0 0 167.308 88.2995" xml:space="preserve" color-interpolation-filters="sRGB" class="st7" preserveAspectRatio="xMidYMid meet" zoomAndPan="magnify" version="1.0" contentScriptType="text/ecmascript" contentStyleType="text/css">
	<v:documentProperties v:langID="1033" v:metric="true" v:viewMarkup="false"/>

	<style type="text/css" xml:space="preserve">
	
		.st1 {fill:#e8eef7;stroke:#000000;stroke-linecap:round;stroke-linejoin:round;stroke-width:0.24}
		.st2 {fill:#000000;font-family:Arial;font-size:0.666664em}
		.st3 {font-size:1em}
		.st4 {fill:#000000;font-family:Arial;font-size:0.666664em;font-style:italic}
		.st5 {marker-end:url(#mrkr2-13);stroke:#4677bf;stroke-linecap:round;stroke-linejoin:round;stroke-width:0.24}
		.st6 {fill:#4677bf;fill-opacity:1;stroke:#4677bf;stroke-opacity:1;stroke-width:0.08695652173913}
		.st7 {fill:none;fill-rule:evenodd;font-size:12;overflow:visible;stroke-linecap:square;stroke-miterlimit:3}
	
	</style>

	<defs id="Markers">
		<g id="lend2">
			<path d="M 1 1 L 0 0 L 1 -1 L 1 1 " style="stroke:none"/>
		</g>
		<marker xmlns="http://www.w3.org/TR/xhtml1/transitional" overflow="visible" id="mrkr2-13" class="st6" v:arrowType="2" v:arrowSize="2" v:setback="11.5" refX="-11.5" orient="auto" markerUnits="strokeWidth" preserveAspectRatio="xMidYMid meet">
			<use xmlns="http://www.w3.org/2000/svg" xlink:href="#lend2" transform="scale(-11.5,-11.5) " xlink:type="simple" xlink:show="embed" xlink:actuate="onLoad"/>
		</marker>
	</defs>
	<g v:mID="0" v:index="1" v:groupContext="foregroundPage">
		<title content="structured text">Page-1</title>
		<v:pageProperties v:drawingScale="0.0393701" v:pageScale="0.0393701" v:drawingUnits="24" v:shadowOffsetX="8.50394" v:shadowOffsetY="-8.50394"/>
		<v:layer v:name="Flowchart" v:index="0"/>
		<v:layer v:name="Connector" v:index="1"/>
		<g id="shape88-1" v:mID="88" v:groupContext="shape" v:layerMember="0" transform="translate(110.375,-55.5299)">
			<title content="structured text">Process.88</title>
			<desc content="structured text">‘&amp;&amp;’</desc>
			<v:custProps>
				<v:cp v:nameU="Cost" v:lbl="Cost" v:type="7" v:format="@" v:langID="1033"/>
				<v:cp v:nameU="Duration" v:lbl="Duration" v:type="2" v:langID="1033"/>
				<v:cp v:nameU="Resources" v:lbl="Resources" v:langID="1033"/>
			</v:custProps>
			<v:userDefs>
				<v:ud v:nameU="visVersion" v:val="VT0(11):26"/>
			</v:userDefs>
			<v:textBlock v:margins="rect(2,2,2,2)" v:tabSpace="42.5197"/>
			<v:textRect cx="9.63712" cy="81.6297" width="19.28" height="13.3396"/>
			<rect x="0" y="74.9598" width="19.2742" height="13.3396" rx="2.83465" ry="2.83465" class="st1"/>
			<text x="2.51" y="84.03" class="st2" v:langID="1033"><v:paragraph v:horizAlign="1"/><v:tabList/>‘<tspan class="st3" v:langID="2057">&amp;&amp;</tspan>’</text>		</g>
		<g id="shape89-5" v:mID="89" v:groupContext="shape" v:layerMember="0" transform="translate(38.7995,-37.7715)">
			<title content="structured text">Process.89</title>
			<desc content="structured text">column</desc>
			<v:custProps>
				<v:cp v:nameU="Cost" v:lbl="Cost" v:type="7" v:format="@" v:langID="1033"/>
				<v:cp v:nameU="Duration" v:lbl="Duration" v:type="2" v:langID="1033"/>
				<v:cp v:nameU="Resources" v:lbl="Resources" v:langID="1033"/>
			</v:custProps>
			<v:userDefs>
				<v:ud v:nameU="visVersion" v:val="VT0(11):26"/>
			</v:userDefs>
			<v:textBlock v:margins="rect(2,2,2,2)" v:tabSpace="42.5197"/>
			<v:textRect cx="21.4689" cy="81.6297" width="42.94" height="13.3396"/>
			<rect x="0" y="74.9598" width="42.9378" height="13.3396" rx="2.83465" ry="2.83465" class="st1"/>
			<text x="8.58" y="84.03" class="st4" v:langID="2057"><v:paragraph v:horizAlign="1"/><v:tabList/>column</text>		</g>
		<g id="shape97-8" v:mID="97" v:groupContext="shape" v:layerMember="1" transform="translate(81.7374,-44.4413)">
			<title content="structured text">Dynamic connector.97</title>
			<path d="M0 88.3 L5.46 88.3 A5.46021 5.46021 -180 0 0 10.92 82.84 L10.92 76.21 A5.66929 5.66929 0 0 1 16.59 70.54 L25.88        70.54" class="st5"/>
		</g>
		<g id="shape98-14" v:mID="98" v:groupContext="shape" v:layerMember="1;0" transform="translate(0.24,-38.6052)">
			<title content="structured text">On-page reference.98</title>
			<v:userDefs>
				<v:ud v:nameU="visVersion" v:val="VT0(11):26"/>
			</v:userDefs>
			<v:textBlock v:margins="rect(2,2,2,2)" v:tabSpace="42.5197"/>
			<path d="M0 82.46 A5.83609 5.83609 0 1 1 11.67 82.46 A5.83609 5.83609 0 0 1 0 82.46 Z" class="st1"/>
		</g>
		<g id="shape99-16" v:mID="99" v:groupContext="shape" v:layerMember="1;0" transform="translate(155.395,-38.6052)">
			<title content="structured text">On-page reference.99</title>
			<v:userDefs>
				<v:ud v:nameU="visVersion" v:val="VT0(11):26"/>
			</v:userDefs>
			<v:textBlock v:margins="rect(2,2,2,2)" v:tabSpace="42.5197"/>
			<path d="M0 82.46 A5.83609 5.83609 0 1 1 11.67 82.46 A5.83609 5.83609 0 0 1 0 82.46 Z" class="st1"/>
		</g>
		<g id="shape100-18" v:mID="100" v:groupContext="shape" v:layerMember="1" transform="translate(11.9122,-37.3547)">
			<title content="structured text">Dynamic connector.100</title>
			<path d="M0 81.21 L24.13 81.21" class="st5"/>
		</g>
		<g id="shape110-23" v:mID="110" v:groupContext="shape" v:layerMember="0" transform="translate(108.391,-21.0974)">
			<title content="structured text">Process.110</title>
			<desc content="structured text">‘and’</desc>
			<v:custProps>
				<v:cp v:nameU="Cost" v:lbl="Cost" v:type="7" v:format="@" v:langID="1033"/>
				<v:cp v:nameU="Duration" v:lbl="Duration" v:type="2" v:langID="1033"/>
				<v:cp v:nameU="Resources" v:lbl="Resources" v:langID="1033"/>
			</v:custProps>
			<v:userDefs>
				<v:ud v:nameU="visVersion" v:val="VT0(11):26"/>
			</v:userDefs>
			<v:textBlock v:margins="rect(2,2,2,2)" v:tabSpace="42.5197"/>
			<v:textRect cx="11.9052" cy="81.6297" width="23.82" height="13.3396"/>
			<rect x="0" y="74.9598" width="23.8103" height="13.3396" rx="2.83465" ry="2.83465" class="st1"/>
			<text x="3.45" y="84.03" class="st2" v:langID="1033"><v:paragraph v:horizAlign="1"/><v:tabList/>‘<tspan class="st3" v:langID="2057">and</tspan>’</text>		</g>
		<g id="shape111-27" v:mID="111" v:groupContext="shape" v:layerMember="1" transform="translate(81.7374,-44.4413)">
			<title content="structured text">Dynamic connector.111</title>
			<path d="M0 88.3 L5.46 88.3 A5.46021 5.46021 0 0 1 10.92 93.76 L10.92 99.3 A5.66929 5.66929 -180 0 0 16.59 104.97 L23.89        104.97" class="st5"/>
		</g>
		<g id="shape91-32" v:mID="91" v:groupContext="shape" v:layerMember="1" transform="translate(120.012,-68.8696)">
			<title content="structured text">Dynamic connector.91</title>
			<path d="M0 88.3 L0 82.98 A5.31496 5.31496 -180 0 0 -5.31 77.67 L-86.17 77.67 A5.66929 5.66929 -180 0 0 -91.84 83.34        L-91.84 107.41 A5.31496 5.31496 -180 0 0 -86.53 112.73 L-83.97 112.73" class="st5"/>
		</g>
		<g id="shape112-37" v:mID="112" v:groupContext="shape" v:layerMember="1" transform="translate(120.296,-21.0974)">
			<title content="structured text">Dynamic connector.112</title>
			<path d="M0 88.3 L0.63 92.03 A5.66929 5.66929 0 0 1 0.71 92.97 L0.71 94.93 A5.66929 5.66929 0 0 1 -4.96 100.6 L-86.81        100.6 A5.66929 5.66929 0 0 1 -92.48 94.93 L-92.48 70.45 A5.49195 5.49195 0 0 1 -86.99 64.96 L-84.26 64.96" class="st5"/>
		</g>
		<g id="shape37-42" v:mID="37" v:groupContext="shape" v:layerMember="1" transform="translate(81.7374,-51.5279)">
			<title content="structured text">Dynamic connector.37</title>
			<path d="M0 95.39 L70.9 95.39" class="st5"/>
		</g>
	</g>
</svg>