<?xml version="1.0" encoding="UTF-8" standalone="no"?>
<!DOCTYPE svg PUBLIC "-//W3C//DTD SVG 1.0//EN" "http://www.w3.org/TR/2001/REC-SVG-20010904/DTD/svg10.dtd">
<!-- Generated by Microsoft Visio 11.0, SVG Export, v1.0 qualifiedIdentifier.svg Page-1 -->
<svg xmlns="http://www.w3.org/2000/svg" xmlns:v="http://schemas.microsoft.com/visio/2003/SVGExtensions/" width="2.13265in"
		height="0.574199in" viewBox="0 0 153.551 41.3424" xml:space="preserve" color-interpolation-filters="sRGB" class="st5">
	<v:documentProperties v:langID="1033" v:metric="true" v:viewMarkup="false"/>

	<style type="text/css">
	<![CDATA[
		.st1 {marker-end:url(#mrkr2-6);stroke:#4677bf;stroke-linecap:round;stroke-linejoin:round;stroke-width:0.24}
		.st2 {fill:#4677bf;fill-opacity:1;stroke:#4677bf;stroke-opacity:1;stroke-width:0.08695652173913}
		.st3 {fill:#e8eef7;stroke:#000000;stroke-linecap:round;stroke-linejoin:round;stroke-width:0.24}
		.st4 {fill:#000000;font-family:Arial;font-size:0.666664em;font-style:italic}
		.st5 {fill:none;fill-rule:evenodd;font-size:12;overflow:visible;stroke-linecap:square;stroke-miterlimit:3}
	]]>
	</style>

	<defs id="Markers">
		<g id="lend2">
			<path d="M 1 1 L 0 0 L 1 -1 L 1 1 " style="stroke:none"/>
		</g>
		<marker id="mrkr2-6" class="st2" v:arrowType="2" v:arrowSize="2" v:setback="11.5" refX="-11.5" orient="auto"
				markerUnits="strokeWidth">
			<use xlink:href="#lend2" transform="scale(-11.5,-11.5) "/>
		</marker>
	</defs>
	<g v:mID="0" v:index="1" v:groupContext="foregroundPage">
		<title>Page-1</title>
		<v:pageProperties v:drawingScale="0.0393701" v:pageScale="0.0393701" v:drawingUnits="24" v:shadowOffsetX="8.50394"
				v:shadowOffsetY="-8.50394"/>
		<v:layer v:name="Connector" v:index="0"/>
		<v:layer v:name="Flowchart" v:index="1"/>
		<g id="shape30-1" v:mID="30" v:groupContext="shape" v:layerMember="0" transform="translate(109.23,1.42109E-014)">
			<title>Dynamic connector.30</title>
			<path d="M0 34.26 L29.86 34.26" class="st1"/>
		</g>
		<g id="shape31-7" v:mID="31" v:groupContext="shape" v:layerMember="0;1" transform="translate(141.846,-1.35433)">
			<title>On-page reference.31</title>
			<v:userDefs>
				<v:ud v:nameU="visVersion" v:val="VT0(11):26"/>
			</v:userDefs>
			<v:textBlock v:margins="rect(2,2,2,2)" v:tabSpace="42.5197"/>
			<path d="M0 35.61 A5.73228 5.73228 0 0 1 11.46 35.61 A5.73228 5.73228 0 1 1 0 35.61 Z" class="st3"/>
		</g>
		<g id="shape32-9" v:mID="32" v:groupContext="shape" v:layerMember="0" transform="translate(109.23,-7.08661)">
			<title>Dynamic connector.32</title>
			<path d="M0 41.34 L5.31 41.34 A5.31496 5.31496 -180 0 0 10.63 36.03 L10.63 19.55 A5.66929 5.66929 -180 0 0 4.96 13.88
						 L-16.77 13.88" class="st1"/>
		</g>
		<g id="shape33-14" v:mID="33" v:groupContext="shape" v:layerMember="1" transform="translate(63.8462,-28)">
			<title>Process.33</title>
			<desc>.</desc>
			<v:custProps>
				<v:cp v:nameU="Cost" v:lbl="Cost" v:type="7" v:format="@" v:langID="1033"/>
				<v:cp v:nameU="Duration" v:lbl="Duration" v:type="2" v:langID="1033"/>
				<v:cp v:nameU="Resources" v:lbl="Resources" v:langID="1033"/>
			</v:custProps>
			<v:userDefs>
				<v:ud v:nameU="visVersion" v:val="VT0(11):26"/>
			</v:userDefs>
			<v:textBlock v:margins="rect(2,2,2,2)" v:tabSpace="42.5197"/>
			<v:textRect cx="12.9292" cy="34.7912" width="25.86" height="13.1024"/>
			<rect x="0" y="28.24" width="25.8585" height="13.1024" rx="2.83465" ry="2.83465" class="st3"/>
			<text x="11.81" y="37.19" class="st4" v:langID="2057"><v:paragraph v:horizAlign="1"/><v:tabList/>.</text>		</g>
		<g id="shape34-17" v:mID="34" v:groupContext="shape" v:layerMember="1" transform="translate(47.1556,-0.535433)">
			<title>Process.34</title>
			<desc>identifier</desc>
			<v:custProps>
				<v:cp v:nameU="Cost" v:lbl="Cost" v:type="7" v:format="@" v:langID="1033"/>
				<v:cp v:nameU="Duration" v:lbl="Duration" v:type="2" v:langID="1033"/>
				<v:cp v:nameU="Resources" v:lbl="Resources" v:langID="1033"/>
			</v:custProps>
			<v:userDefs>
				<v:ud v:nameU="visVersion" v:val="VT0(11):26"/>
			</v:userDefs>
			<v:textBlock v:margins="rect(2,2,2,2)" v:tabSpace="42.5197"/>
			<v:textRect cx="31.0372" cy="34.7912" width="62.08" height="13.1024"/>
			<rect x="0" y="28.24" width="62.0744" height="13.1024" rx="2.83465" ry="2.83465" class="st3"/>
			<text x="15.91" y="37.19" class="st4" v:langID="2057"><v:paragraph v:horizAlign="1"/><v:tabList/>identifier</text>		</g>
		<g id="shape35-20" v:mID="35" v:groupContext="shape" v:layerMember="0;1" transform="translate(0.24,-1.35433)">
			<title>On-page reference.35</title>
			<v:userDefs>
				<v:ud v:nameU="visVersion" v:val="VT0(11):26"/>
			</v:userDefs>
			<v:textBlock v:margins="rect(2,2,2,2)" v:tabSpace="42.5197"/>
			<path d="M0 35.61 A5.73228 5.73228 0 0 1 11.46 35.61 A5.73228 5.73228 0 1 1 0 35.61 Z" class="st3"/>
		</g>
		<g id="shape36-22" v:mID="36" v:groupContext="shape" v:layerMember="0" transform="translate(11.7046,1.42109E-014)">
			<title>Dynamic connector.36</title>
			<path d="M0 34.26 L32.69 34.26" class="st1"/>
		</g>
		<g id="shape70-27" v:mID="70" v:groupContext="shape" v:layerMember="0" transform="translate(63.8462,-34.5512)">
			<title>Dynamic connector.70</title>
			<path d="M0 41.34 L-21.65 41.34 A5.66929 5.66929 -180 0 0 -27.32 47.01 L-27.32 63.49 A5.31496 5.31496 -180 0 0 -22.01
						 68.81 L-19.45 68.81" class="st1"/>
		</g>
	</g>
</svg>
