<?xml version="1.0" encoding="UTF-8" standalone="no"?>
<!DOCTYPE svg PUBLIC "-//W3C//DTD SVG 1.0//EN" "http://www.w3.org/TR/2001/REC-SVG-20010904/DTD/svg10.dtd">
<!-- Generated by Microsoft Visio 11.0, SVG Export, v1.0 rule_attributes.svg Page-1 -->
<svg xmlns="http://www.w3.org/2000/svg" xmlns:v="http://schemas.microsoft.com/visio/2003/SVGExtensions/" width="3.90316in"
		height="4.06922in" viewBox="0 0 281.027 292.984" xml:space="preserve" color-interpolation-filters="sRGB" class="st7">
	<v:documentProperties v:langID="1033" v:metric="true" v:viewMarkup="false"/>

	<style type="text/css">
	<![CDATA[
		.st1 {fill:#e8eef7;stroke:#000000;stroke-linecap:round;stroke-linejoin:round;stroke-width:0.24}
		.st2 {fill:#000000;font-family:Arial;font-size:0.666664em}
		.st3 {font-size:1em}
		.st4 {marker-end:url(#mrkr2-16);stroke:#4677bf;stroke-linecap:round;stroke-linejoin:round;stroke-width:0.24}
		.st5 {fill:#4677bf;fill-opacity:1;stroke:#4677bf;stroke-opacity:1;stroke-width:0.08695652173913}
		.st6 {fill:#000000;font-family:Arial;font-size:0.666664em;font-style:italic}
		.st7 {fill:none;fill-rule:evenodd;font-size:12;overflow:visible;stroke-linecap:square;stroke-miterlimit:3}
	]]>
	</style>

	<defs id="Markers">
		<g id="lend2">
			<path d="M 1 1 L 0 0 L 1 -1 L 1 1 " style="stroke:none"/>
		</g>
		<marker id="mrkr2-16" class="st5" v:arrowType="2" v:arrowSize="2" v:setback="11.5" refX="-11.5" orient="auto"
				markerUnits="strokeWidth">
			<use xlink:href="#lend2" transform="scale(-11.5,-11.5) "/>
		</marker>
	</defs>
	<g v:mID="0" v:index="1" v:groupContext="foregroundPage">
		<title>Page-1</title>
		<v:pageProperties v:drawingScale="0.0393701" v:pageScale="0.0393701" v:drawingUnits="24" v:shadowOffsetX="8.50394"
				v:shadowOffsetY="-8.50394"/>
		<v:layer v:name="Flowchart" v:index="0"/>
		<v:layer v:name="Connector" v:index="1"/>
		<g id="shape5-1" v:mID="5" v:groupContext="shape" v:layerMember="0" transform="translate(64.9004,-263.849)">
			<title>Process.89</title>
			<desc>‘no-loop’</desc>
			<v:custProps>
				<v:cp v:nameU="Cost" v:lbl="Cost" v:type="7" v:format="@" v:langID="1033"/>
				<v:cp v:nameU="Duration" v:lbl="Duration" v:type="2" v:langID="1033"/>
				<v:cp v:nameU="Resources" v:lbl="Resources" v:langID="1033"/>
			</v:custProps>
			<v:userDefs>
				<v:ud v:nameU="visVersion" v:val="VT0(11):26"/>
			</v:userDefs>
			<v:textBlock v:margins="rect(2,2,2,2)" v:tabSpace="42.5197"/>
			<v:textRect cx="23.2137" cy="286.277" width="46.43" height="13.4147"/>
			<rect x="0" y="279.569" width="46.4273" height="13.4147" rx="2.83465" ry="2.83465" class="st1"/>
			<text x="8.1" y="288.68" class="st2" v:langID="1033"><v:paragraph v:horizAlign="1"/><v:tabList/>‘n<tspan class="st3"
						v:langID="2057">o</tspan><tspan class="st3" v:langID="2057">-</tspan>l<tspan class="st3" v:langID="2057">oop</tspan>’</text>		</g>
		<g id="shape8-7" v:mID="8" v:groupContext="shape" v:layerMember="0" transform="translate(64.9004,-216.257)">
			<title>Process.90</title>
			<desc>‘salience’</desc>
			<v:custProps>
				<v:cp v:nameU="Cost" v:lbl="Cost" v:type="7" v:format="@" v:langID="1033"/>
				<v:cp v:nameU="Duration" v:lbl="Duration" v:type="2" v:langID="1033"/>
				<v:cp v:nameU="Resources" v:lbl="Resources" v:langID="1033"/>
			</v:custProps>
			<v:userDefs>
				<v:ud v:nameU="visVersion" v:val="VT0(11):26"/>
			</v:userDefs>
			<v:textBlock v:margins="rect(2,2,2,2)" v:tabSpace="42.5197"/>
			<v:textRect cx="23.2137" cy="286.277" width="46.43" height="13.4147"/>
			<rect x="0" y="279.569" width="46.4273" height="13.4147" rx="2.83465" ry="2.83465" class="st1"/>
			<text x="6.77" y="288.68" class="st2" v:langID="1033"><v:paragraph v:horizAlign="1"/><v:tabList/>‘<tspan class="st3"
						v:langID="2057">salience</tspan>’</text>		</g>
		<g id="shape10-11" v:mID="10" v:groupContext="shape" v:layerMember="1" transform="translate(11.9778,-263.469)">
			<title>Dynamic connector.91</title>
			<path d="M0 285.9 L50.16 285.9" class="st4"/>
		</g>
		<g id="shape27-17" v:mID="27" v:groupContext="shape" v:layerMember="1" transform="translate(18.3206,-270.556)">
			<title>Dynamic connector.92</title>
			<path d="M0 292.98 L11.64 292.98 A5.66929 5.66929 0 0 1 17.31 298.65 L17.31 334.91 A5.66929 5.66929 -180 0 0 22.98 340.58
						 L43.82 340.58" class="st4"/>
		</g>
		<g id="shape35-22" v:mID="35" v:groupContext="shape" v:layerMember="0" transform="translate(51.2499,-192.461)">
			<title>Process.93</title>
			<desc>‘agenda-group’</desc>
			<v:custProps>
				<v:cp v:nameU="Cost" v:lbl="Cost" v:type="7" v:format="@" v:langID="1033"/>
				<v:cp v:nameU="Duration" v:lbl="Duration" v:type="2" v:langID="1033"/>
				<v:cp v:nameU="Resources" v:lbl="Resources" v:langID="1033"/>
			</v:custProps>
			<v:userDefs>
				<v:ud v:nameU="visVersion" v:val="VT0(11):26"/>
			</v:userDefs>
			<v:textBlock v:margins="rect(2,2,2,2)" v:tabSpace="42.5197"/>
			<v:textRect cx="36.8641" cy="286.277" width="73.73" height="13.4147"/>
			<rect x="0" y="279.569" width="73.7282" height="13.4147" rx="2.83465" ry="2.83465" class="st1"/>
			<text x="10.19" y="288.68" class="st2" v:langID="1033"><v:paragraph v:horizAlign="1"/><v:tabList/>‘a<tspan class="st3"
						v:langID="2057">genda</tspan><tspan class="st3" v:langID="2057">-</tspan>g<tspan class="st3"
						v:langID="2057">roup</tspan>’</text>		</g>
		<g id="shape41-28" v:mID="41" v:groupContext="shape" v:layerMember="0" transform="translate(58.7694,-2.09267)">
			<title>Process.94</title>
			<desc>‘duration’</desc>
			<v:custProps>
				<v:cp v:nameU="Cost" v:lbl="Cost" v:type="7" v:format="@" v:langID="1033"/>
				<v:cp v:nameU="Duration" v:lbl="Duration" v:type="2" v:langID="1033"/>
				<v:cp v:nameU="Resources" v:lbl="Resources" v:langID="1033"/>
			</v:custProps>
			<v:userDefs>
				<v:ud v:nameU="visVersion" v:val="VT0(11):26"/>
			</v:userDefs>
			<v:textBlock v:margins="rect(2,2,2,2)" v:tabSpace="42.5197"/>
			<v:textRect cx="29.3446" cy="286.277" width="58.69" height="13.4147"/>
			<rect x="0" y="279.569" width="58.6892" height="13.4147" rx="2.83465" ry="2.83465" class="st1"/>
			<text x="13.12" y="288.68" class="st2" v:langID="1033"><v:paragraph v:horizAlign="1"/><v:tabList/>‘<tspan class="st3"
						v:langID="2057">duration</tspan>’</text>		</g>
		<g id="shape42-32" v:mID="42" v:groupContext="shape" v:layerMember="1" transform="translate(18.3206,-270.556)">
			<title>Dynamic connector.95</title>
			<path d="M0 292.98 L11.64 292.98 A5.66929 5.66929 0 0 1 17.31 298.65 L17.31 358.7 A5.66929 5.66929 -180 0 0 22.98 364.37
						 L30.17 364.37" class="st4"/>
		</g>
		<g id="shape43-37" v:mID="43" v:groupContext="shape" v:layerMember="1" transform="translate(18.3206,-270.556)">
			<title>Dynamic connector.96</title>
			<path d="M0 292.98 L11.64 292.98 A5.66929 5.66929 0 0 1 17.31 298.65 L17.31 549.07 A5.66929 5.66929 -180 0 0 22.98 554.74
						 L37.69 554.74" class="st4"/>
		</g>
		<g id="shape44-42" v:mID="44" v:groupContext="shape" v:layerMember="1" transform="translate(111.328,-277.643)">
			<title>Dynamic connector.98</title>
			<v:textBlock v:margins="rect(4,4,4,4)" v:tabSpace="42.5197"/>
			<path d="M0 300.07 L32.06 300.07" class="st4"/>
		</g>
		<g id="shape45-47" v:mID="45" v:groupContext="shape" v:layerMember="1" transform="translate(117.459,-1.71339)">
			<title>Dynamic connector.99</title>
			<path d="M0 285.9 L25.13 285.9" class="st4"/>
		</g>
		<g id="shape46-52" v:mID="46" v:groupContext="shape" v:layerMember="1" transform="translate(111.328,-222.964)">
			<title>Dynamic connector.100</title>
			<path d="M0 292.98 L22.5 292.98 A5.66929 5.66929 -180 0 0 28.17 287.31 L28.17 248.72 A3.32794 3.32794 0 0 1 31.5 245.39
						 L32.06 245.39" class="st4"/>
		</g>
		<g id="shape47-57" v:mID="47" v:groupContext="shape" v:layerMember="1" transform="translate(124.978,-199.168)">
			<title>Dynamic connector.101</title>
			<path d="M0 292.98 L8.71 292.98 A5.66929 5.66929 -180 0 0 14.38 287.31 L14.38 224.99 A3.39596 3.39596 0 0 1 17.78 221.6
						 L18.41 221.6" class="st4"/>
		</g>
		<g id="shape48-62" v:mID="48" v:groupContext="shape" v:layerMember="0" transform="translate(146.152,-263.849)">
			<title>Process.156</title>
			<desc>value</desc>
			<v:custProps>
				<v:cp v:nameU="Cost" v:lbl="Cost" v:type="7" v:format="@" v:langID="1033"/>
				<v:cp v:nameU="Duration" v:lbl="Duration" v:type="2" v:langID="1033"/>
				<v:cp v:nameU="Resources" v:lbl="Resources" v:langID="1033"/>
			</v:custProps>
			<v:userDefs>
				<v:ud v:nameU="visVersion" v:val="VT0(11):26"/>
			</v:userDefs>
			<v:textBlock v:margins="rect(2,2,2,2)" v:tabSpace="42.5197"/>
			<v:textRect cx="18.4976" cy="286.277" width="37" height="13.4147"/>
			<rect x="0" y="279.569" width="36.9953" height="13.4147" rx="2.83465" ry="2.83465" class="st1"/>
			<text x="8.94" y="288.68" class="st6" v:langID="2057"><v:paragraph v:horizAlign="1"/><v:tabList/>value</text>		</g>
		<g id="shape49-65" v:mID="49" v:groupContext="shape" v:layerMember="1;0" transform="translate(255.158,-264.687)">
			<title>On-page reference.157</title>
			<v:userDefs>
				<v:ud v:nameU="visVersion" v:val="VT0(11):26"/>
			</v:userDefs>
			<v:textBlock v:margins="rect(2,2,2,2)" v:tabSpace="42.5197"/>
			<path d="M0 287.12 A5.86892 5.86892 0 0 1 11.74 287.12 A5.86892 5.86892 0 0 1 0 287.12 Z" class="st1"/>
		</g>
		<g id="shape50-67" v:mID="50" v:groupContext="shape" v:layerMember="0" transform="translate(206.89,-279.329)">
			<title>Process.160</title>
			<desc>;</desc>
			<v:custProps>
				<v:cp v:nameU="Cost" v:lbl="Cost" v:type="7" v:format="@" v:langID="1033"/>
				<v:cp v:nameU="Duration" v:lbl="Duration" v:type="2" v:langID="1033"/>
				<v:cp v:nameU="Resources" v:lbl="Resources" v:langID="1033"/>
			</v:custProps>
			<v:userDefs>
				<v:ud v:nameU="visVersion" v:val="VT0(11):26"/>
			</v:userDefs>
			<v:textBlock v:margins="rect(2,2,2,2)" v:tabSpace="42.5197"/>
			<v:textRect cx="10.061" cy="286.277" width="20.13" height="13.4147"/>
			<rect x="0" y="279.569" width="20.122" height="13.4147" rx="2.83465" ry="2.83465" class="st1"/>
			<text x="8.94" y="288.68" class="st2" v:langID="2057"><v:paragraph v:horizAlign="1"/><v:tabList/>;</text>		</g>
		<g id="shape51-70" v:mID="51" v:groupContext="shape" v:layerMember="1" transform="translate(183.147,-270.556)">
			<title>Dynamic connector.161</title>
			<path d="M0 292.98 L5.31 292.98 A5.31496 5.31496 -180 0 0 10.63 287.67 L10.63 283.17 A5.66929 5.66929 0 0 1 16.3 277.5
						 L20.98 277.5" class="st4"/>
		</g>
		<g id="shape52-75" v:mID="52" v:groupContext="shape" v:layerMember="1" transform="translate(227.012,-286.037)">
			<title>Dynamic connector.162</title>
			<path d="M0 292.98 L5.31 292.98 A5.31496 5.31496 0 0 1 10.63 298.3 L10.63 302.8 A5.66929 5.66929 -180 0 0 16.3 308.46
						 L25.39 308.46" class="st4"/>
		</g>
		<g id="shape53-80" v:mID="53" v:groupContext="shape" v:layerMember="1" transform="translate(183.147,-263.469)">
			<title>Dynamic connector.163</title>
			<path d="M0 285.9 L69.25 285.9" class="st4"/>
		</g>
		<g id="shape54-85" v:mID="54" v:groupContext="shape" v:layerMember="1;0" transform="translate(0.24,-264.687)">
			<title>On-page reference.164</title>
			<v:userDefs>
				<v:ud v:nameU="visVersion" v:val="VT0(11):26"/>
			</v:userDefs>
			<v:textBlock v:margins="rect(2,2,2,2)" v:tabSpace="42.5197"/>
			<path d="M0 287.12 A5.86892 5.86892 0 0 1 11.74 287.12 A5.86892 5.86892 0 0 1 0 287.12 Z" class="st1"/>
		</g>
		<g id="shape58-87" v:mID="58" v:groupContext="shape" v:layerMember="0" transform="translate(145.346,-2.09267)">
			<title>Process.201</title>
			<desc>duration-value (ms)</desc>
			<v:custProps>
				<v:cp v:nameU="Cost" v:lbl="Cost" v:type="7" v:format="@" v:langID="1033"/>
				<v:cp v:nameU="Duration" v:lbl="Duration" v:type="2" v:langID="1033"/>
				<v:cp v:nameU="Resources" v:lbl="Resources" v:langID="1033"/>
			</v:custProps>
			<v:userDefs>
				<v:ud v:nameU="visVersion" v:val="VT0(11):26"/>
			</v:userDefs>
			<v:textBlock v:margins="rect(2,2,2,2)" v:tabSpace="42.5197"/>
			<v:textRect cx="48.6282" cy="286.277" width="97.26" height="13.4147"/>
			<rect x="0" y="279.569" width="97.2563" height="13.4147" rx="2.83465" ry="2.83465" class="st1"/>
			<text x="14.17" y="288.68" class="st2" v:langID="1033"><v:paragraph v:horizAlign="1"/><v:tabList/>duration-value (ms)</text>		</g>
		<g id="shape59-90" v:mID="59" v:groupContext="shape" v:layerMember="1" transform="translate(242.602,-8.8)">
			<title>Dynamic connector.202</title>
			<path d="M0 292.98 L12.76 292.98 A5.66929 5.66929 -180 0 0 18.43 287.31 L18.43 39.86" class="st4"/>
		</g>
		<g id="shape60-95" v:mID="60" v:groupContext="shape" v:layerMember="0" transform="translate(51.4584,-168.665)">
			<title>Process.60</title>
			<desc>‘auto-focus’</desc>
			<v:custProps>
				<v:cp v:nameU="Cost" v:lbl="Cost" v:type="7" v:format="@" v:langID="1033"/>
				<v:cp v:nameU="Duration" v:lbl="Duration" v:type="2" v:langID="1033"/>
				<v:cp v:nameU="Resources" v:lbl="Resources" v:langID="1033"/>
			</v:custProps>
			<v:userDefs>
				<v:ud v:nameU="visVersion" v:val="VT0(11):26"/>
			</v:userDefs>
			<v:textBlock v:margins="rect(2,2,2,2)" v:tabSpace="42.5197"/>
			<v:textRect cx="36.8641" cy="286.277" width="73.73" height="13.4147"/>
			<rect x="0" y="279.569" width="73.7282" height="13.4147" rx="2.83465" ry="2.83465" class="st1"/>
			<text x="16.42" y="288.68" class="st2" v:langID="1033"><v:paragraph v:horizAlign="1"/><v:tabList/>‘<tspan class="st3"
						v:langID="2057">auto</tspan><tspan class="st3" v:langID="2057">-</tspan><tspan class="st3" v:langID="2057">focus</tspan>’</text>		</g>
		<g id="shape61-101" v:mID="61" v:groupContext="shape" v:layerMember="1" transform="translate(11.9778,-270.556)">
			<title>Dynamic connector.61</title>
			<path d="M0 292.98 L18.19 292.98 A5.66929 5.66929 0 0 1 23.86 298.65 L23.86 382.5 A5.66929 5.66929 -180 0 0 29.53 388.17
						 L36.72 388.17" class="st4"/>
		</g>
		<g id="shape62-106" v:mID="62" v:groupContext="shape" v:layerMember="1" transform="translate(125.187,-175.372)">
			<title>Dynamic connector.62</title>
			<path d="M0 292.98 L8.5 292.98 A5.66929 5.66929 -180 0 0 14.17 287.31 L14.17 201.2 A3.39596 3.39596 0 0 1 17.57 197.8
						 L18.21 197.8" class="st4"/>
		</g>
		<g id="shape63-111" v:mID="63" v:groupContext="shape" v:layerMember="0" transform="translate(56.9329,-240.053)">
			<title>Process.63</title>
			<desc>‘lock-on-active’</desc>
			<v:custProps>
				<v:cp v:nameU="Cost" v:lbl="Cost" v:type="7" v:format="@" v:langID="1033"/>
				<v:cp v:nameU="Duration" v:lbl="Duration" v:type="2" v:langID="1033"/>
				<v:cp v:nameU="Resources" v:lbl="Resources" v:langID="1033"/>
			</v:custProps>
			<v:userDefs>
				<v:ud v:nameU="visVersion" v:val="VT0(11):26"/>
			</v:userDefs>
			<v:textBlock v:margins="rect(2,2,2,2)" v:tabSpace="42.5197"/>
			<v:textRect cx="30.4724" cy="286.277" width="60.95" height="13.4147"/>
			<rect x="0" y="279.569" width="60.9449" height="13.4147" rx="2.83465" ry="2.83465" class="st1"/>
			<text x="4.02" y="288.68" class="st2" v:langID="1033"><v:paragraph v:horizAlign="1"/><v:tabList/>‘<tspan class="st3"
						v:langID="2057">lock</tspan><tspan class="st3" v:langID="2057">-</tspan><tspan class="st3" v:langID="2057">on</tspan><tspan
						class="st3" v:langID="2057">-</tspan><tspan class="st3" v:langID="2057">active</tspan>’</text>		</g>
		<g id="shape64-119" v:mID="64" v:groupContext="shape" v:layerMember="1" transform="translate(11.9778,-270.556)">
			<title>Dynamic connector.64</title>
			<path d="M0 292.98 L18.19 292.98 A5.66929 5.66929 0 0 1 23.86 298.65 L23.86 311.11 A5.66929 5.66929 -180 0 0 29.53 316.78
						 L42.2 316.78" class="st4"/>
		</g>
		<g id="shape65-124" v:mID="65" v:groupContext="shape" v:layerMember="1" transform="translate(117.878,-246.76)">
			<title>Dynamic connector.65</title>
			<path d="M0 292.98 L15.81 292.98 A5.66929 5.66929 -180 0 0 21.48 287.31 L21.48 272.58 A3.39596 3.39596 0 0 1 24.88 269.19
						 L25.51 269.19" class="st4"/>
		</g>
		<g id="shape66-129" v:mID="66" v:groupContext="shape" v:layerMember="0" transform="translate(51.5944,-144.869)">
			<title>Process.66</title>
			<desc>‘ruleflow-group’</desc>
			<v:custProps>
				<v:cp v:nameU="Cost" v:lbl="Cost" v:type="7" v:format="@" v:langID="1033"/>
				<v:cp v:nameU="Duration" v:lbl="Duration" v:type="2" v:langID="1033"/>
				<v:cp v:nameU="Resources" v:lbl="Resources" v:langID="1033"/>
			</v:custProps>
			<v:userDefs>
				<v:ud v:nameU="visVersion" v:val="VT0(11):26"/>
			</v:userDefs>
			<v:textBlock v:margins="rect(2,2,2,2)" v:tabSpace="42.5197"/>
			<v:textRect cx="36.8641" cy="286.277" width="73.73" height="13.4147"/>
			<rect x="0" y="279.569" width="73.7282" height="13.4147" rx="2.83465" ry="2.83465" class="st1"/>
			<text x="9.75" y="288.68" class="st2" v:langID="2057"><v:paragraph v:horizAlign="1"/><v:tabList/>‘ruleflow-<tspan
						class="st3" v:langID="1033">g</tspan>roup<tspan class="st3" v:langID="1033">’</tspan></text>		</g>
		<g id="shape67-134" v:mID="67" v:groupContext="shape" v:layerMember="1" transform="translate(11.9778,-270.556)">
			<title>Dynamic connector.67</title>
			<path d="M0 292.98 L18.19 292.98 A5.66929 5.66929 0 0 1 23.86 298.65 L23.86 406.29 A5.66929 5.66929 -180 0 0 29.53 411.96
						 L36.86 411.96" class="st4"/>
		</g>
		<g id="shape68-139" v:mID="68" v:groupContext="shape" v:layerMember="1" transform="translate(125.323,-151.576)">
			<title>Dynamic connector.68</title>
			<path d="M0 292.98 L8.5 292.98 A5.66929 5.66929 -180 0 0 14.17 287.31 L14.17 177.33 A3.32794 3.32794 0 0 1 17.5 174 L18.07
						 174" class="st4"/>
		</g>
		<g id="shape69-144" v:mID="69" v:groupContext="shape" v:layerMember="0" transform="translate(50.7224,-121.073)">
			<title>Process.69</title>
			<desc>‘activation-group’</desc>
			<v:custProps>
				<v:cp v:nameU="Cost" v:lbl="Cost" v:type="7" v:format="@" v:langID="1033"/>
				<v:cp v:nameU="Duration" v:lbl="Duration" v:type="2" v:langID="1033"/>
				<v:cp v:nameU="Resources" v:lbl="Resources" v:langID="1033"/>
			</v:custProps>
			<v:userDefs>
				<v:ud v:nameU="visVersion" v:val="VT0(11):26"/>
			</v:userDefs>
			<v:textBlock v:margins="rect(2,2,2,2)" v:tabSpace="42.5197"/>
			<v:textRect cx="36.8641" cy="286.277" width="73.73" height="13.4147"/>
			<rect x="0" y="279.569" width="73.7282" height="13.4147" rx="2.83465" ry="2.83465" class="st1"/>
			<text x="6.64" y="288.68" class="st2" v:langID="2057"><v:paragraph v:horizAlign="1"/><v:tabList/>‘activation-<tspan
						class="st3" v:langID="1033">g</tspan>roup<tspan class="st3" v:langID="1033">’</tspan></text>		</g>
		<g id="shape70-149" v:mID="70" v:groupContext="shape" v:layerMember="1" transform="translate(11.9778,-270.556)">
			<title>Dynamic connector.70</title>
			<path d="M0 292.98 L18.19 292.98 A5.66929 5.66929 0 0 1 23.86 298.65 L23.86 430.09 A5.66929 5.66929 -180 0 0 29.53 435.76
						 L35.98 435.76" class="st4"/>
		</g>
		<g id="shape71-154" v:mID="71" v:groupContext="shape" v:layerMember="1" transform="translate(124.451,-127.78)">
			<title>Dynamic connector.71</title>
			<path d="M0 292.98 L9.24 292.98 A5.66929 5.66929 -180 0 0 14.91 287.31 L14.91 153.6 A3.39596 3.39596 0 0 1 18.31 150.21
						 L18.94 150.21" class="st4"/>
		</g>
		<g id="shape72-159" v:mID="72" v:groupContext="shape" v:layerMember="0" transform="translate(53.1578,-97.2767)">
			<title>Process.72</title>
			<desc>‘dialect’</desc>
			<v:custProps>
				<v:cp v:nameU="Cost" v:lbl="Cost" v:type="7" v:format="@" v:langID="1033"/>
				<v:cp v:nameU="Duration" v:lbl="Duration" v:type="2" v:langID="1033"/>
				<v:cp v:nameU="Resources" v:lbl="Resources" v:langID="1033"/>
			</v:custProps>
			<v:userDefs>
				<v:ud v:nameU="visVersion" v:val="VT0(11):26"/>
			</v:userDefs>
			<v:textBlock v:margins="rect(2,2,2,2)" v:tabSpace="42.5197"/>
			<v:textRect cx="36.8641" cy="286.277" width="73.73" height="13.4147"/>
			<rect x="0" y="279.569" width="73.7282" height="13.4147" rx="2.83465" ry="2.83465" class="st1"/>
			<text x="23.54" y="288.68" class="st2" v:langID="2057"><v:paragraph v:horizAlign="1"/><v:tabList/>‘dialect’</text>		</g>
		<g id="shape73-162" v:mID="73" v:groupContext="shape" v:layerMember="1" transform="translate(11.9778,-270.556)">
			<title>Dynamic connector.73</title>
			<path d="M0 292.98 L18.19 292.98 A5.66929 5.66929 0 0 1 23.86 298.65 L23.86 453.89 A5.66929 5.66929 -180 0 0 29.53 459.56
						 L38.42 459.56" class="st4"/>
		</g>
		<g id="shape74-167" v:mID="74" v:groupContext="shape" v:layerMember="1" transform="translate(126.886,-103.984)">
			<title>Dynamic connector.74</title>
			<path d="M0 292.98 L6.8 292.98 A5.66929 5.66929 -180 0 0 12.47 287.31 L12.47 129.81 A3.39596 3.39596 0 0 1 15.87 126.41
						 L16.51 126.41" class="st4"/>
		</g>
		<g id="shape75-172" v:mID="75" v:groupContext="shape" v:layerMember="0" transform="translate(52.2857,-73.4807)">
			<title>Process.75</title>
			<desc>‘date-effective’</desc>
			<v:custProps>
				<v:cp v:nameU="Cost" v:lbl="Cost" v:type="7" v:format="@" v:langID="1033"/>
				<v:cp v:nameU="Duration" v:lbl="Duration" v:type="2" v:langID="1033"/>
				<v:cp v:nameU="Resources" v:lbl="Resources" v:langID="1033"/>
			</v:custProps>
			<v:userDefs>
				<v:ud v:nameU="visVersion" v:val="VT0(11):26"/>
			</v:userDefs>
			<v:textBlock v:margins="rect(2,2,2,2)" v:tabSpace="42.5197"/>
			<v:textRect cx="36.8641" cy="286.277" width="73.73" height="13.4147"/>
			<rect x="0" y="279.569" width="73.7282" height="13.4147" rx="2.83465" ry="2.83465" class="st1"/>
			<text x="11.08" y="288.68" class="st2" v:langID="2057"><v:paragraph v:horizAlign="1"/><v:tabList/>‘date-effective’</text>		</g>
		<g id="shape76-175" v:mID="76" v:groupContext="shape" v:layerMember="1" transform="translate(11.9778,-270.556)">
			<title>Dynamic connector.76</title>
			<path d="M0 292.98 L17.99 292.98 A5.66929 5.66929 0 0 1 23.66 298.65 L23.66 477.68 A5.66929 5.66929 -180 0 0 29.32 483.35
						 L37.55 483.35" class="st4"/>
		</g>
		<g id="shape77-180" v:mID="77" v:groupContext="shape" v:layerMember="1" transform="translate(126.014,-80.188)">
			<title>Dynamic connector.77</title>
			<path d="M0 292.98 L7.81 292.98 A5.66929 5.66929 -180 0 0 13.48 287.31 L13.48 105.94 A3.32794 3.32794 0 0 1 16.81 102.62
						 L17.38 102.62" class="st4"/>
		</g>
		<g id="shape78-185" v:mID="78" v:groupContext="shape" v:layerMember="0" transform="translate(55.1928,-49.6847)">
			<title>Process.78</title>
			<desc>‘date-expires’</desc>
			<v:custProps>
				<v:cp v:nameU="Cost" v:lbl="Cost" v:type="7" v:format="@" v:langID="1033"/>
				<v:cp v:nameU="Duration" v:lbl="Duration" v:type="2" v:langID="1033"/>
				<v:cp v:nameU="Resources" v:lbl="Resources" v:langID="1033"/>
			</v:custProps>
			<v:userDefs>
				<v:ud v:nameU="visVersion" v:val="VT0(11):26"/>
			</v:userDefs>
			<v:textBlock v:margins="rect(2,2,2,2)" v:tabSpace="42.5197"/>
			<v:textRect cx="36.8641" cy="286.277" width="73.73" height="13.4147"/>
			<rect x="0" y="279.569" width="73.7282" height="13.4147" rx="2.83465" ry="2.83465" class="st1"/>
			<text x="13.09" y="288.68" class="st2" v:langID="2057"><v:paragraph v:horizAlign="1"/><v:tabList/>‘date-expires’</text>		</g>
		<g id="shape79-188" v:mID="79" v:groupContext="shape" v:layerMember="1" transform="translate(11.9778,-270.556)">
			<title>Dynamic connector.79</title>
			<path d="M0 292.98 L18.19 292.98 A5.66929 5.66929 0 0 1 23.86 298.65 L23.86 501.48 A5.66929 5.66929 -180 0 0 29.53 507.15
						 L40.45 507.15" class="st4"/>
		</g>
		<g id="shape80-193" v:mID="80" v:groupContext="shape" v:layerMember="1" transform="translate(128.921,-56.392)">
			<title>Dynamic connector.80</title>
			<path d="M0 292.98 L5.22 292.98 A5.2194 5.2194 -180 0 0 10.44 287.76 L10.44 82.22 A3.39596 3.39596 0 0 1 13.83 78.82
						 L14.47 78.82" class="st4"/>
		</g>
		<g id="shape81-198" v:mID="81" v:groupContext="shape" v:layerMember="0" transform="translate(54.3208,-25.8887)">
			<title>Process.81</title>
			<desc>‘enabled’</desc>
			<v:custProps>
				<v:cp v:nameU="Cost" v:lbl="Cost" v:type="7" v:format="@" v:langID="1033"/>
				<v:cp v:nameU="Duration" v:lbl="Duration" v:type="2" v:langID="1033"/>
				<v:cp v:nameU="Resources" v:lbl="Resources" v:langID="1033"/>
			</v:custProps>
			<v:userDefs>
				<v:ud v:nameU="visVersion" v:val="VT0(11):26"/>
			</v:userDefs>
			<v:textBlock v:margins="rect(2,2,2,2)" v:tabSpace="42.5197"/>
			<v:textRect cx="36.8641" cy="286.277" width="73.73" height="13.4147"/>
			<rect x="0" y="279.569" width="73.7282" height="13.4147" rx="2.83465" ry="2.83465" class="st1"/>
			<text x="20.86" y="288.68" class="st2" v:langID="2057"><v:paragraph v:horizAlign="1"/><v:tabList/>‘enabled’</text>		</g>
		<g id="shape82-201" v:mID="82" v:groupContext="shape" v:layerMember="1" transform="translate(11.9778,-270.556)">
			<title>Dynamic connector.82</title>
			<path d="M0 292.98 L17.99 292.98 A5.66929 5.66929 0 0 1 23.66 298.65 L23.66 525.27 A5.66929 5.66929 -180 0 0 29.32 530.94
						 L39.58 530.94" class="st4"/>
		</g>
		<g id="shape83-206" v:mID="83" v:groupContext="shape" v:layerMember="1" transform="translate(128.049,-32.596)">
			<title>Dynamic connector.83</title>
			<path d="M0 292.98 L5.78 292.98 A5.66929 5.66929 -180 0 0 11.45 287.31 L11.45 58.35 A3.32794 3.32794 0 0 1 14.77 55.02
						 L15.34 55.02" class="st4"/>
		</g>
	</g>
</svg>
