<?xml version="1.0" encoding="UTF-8" standalone="no"?>
<!-- Created with Inkscape (http://www.inkscape.org/) -->

<svg
   xmlns:dc="http://purl.org/dc/elements/1.1/"
   xmlns:cc="http://creativecommons.org/ns#"
   xmlns:rdf="http://www.w3.org/1999/02/22-rdf-syntax-ns#"
   xmlns:svg="http://www.w3.org/2000/svg"
   xmlns="http://www.w3.org/2000/svg"
   xmlns:xlink="http://www.w3.org/1999/xlink"
   xmlns:sodipodi="http://sodipodi.sourceforge.net/DTD/sodipodi-0.dtd"
   xmlns:inkscape="http://www.inkscape.org/namespaces/inkscape"
   id="svg2"
   sodipodi:version="0.32"
   inkscape:version="0.92.3 (2405546, 2018-03-11)"
   width="64"
   height="64"
   sodipodi:docname="flightCrewSchedulingLogo.svg"
   inkscape:output_extension="org.inkscape.output.svg.inkscape"
   inkscape:export-filename="flightCrewSchedulingLogo.png"
   inkscape:export-xdpi="96"
   inkscape:export-ydpi="96"
   version="1.1">
  <metadata
     id="metadata7">
    <rdf:RDF>
      <cc:Work
         rdf:about="">
        <dc:format>image/svg+xml</dc:format>
        <dc:type
           rdf:resource="http://purl.org/dc/dcmitype/StillImage" />
        <dc:creator>
          <cc:Agent>
            <dc:title>www.optaplanner.org</dc:title>
          </cc:Agent>
        </dc:creator>
        <dc:title />
        <dc:rights>
          <cc:Agent>
            <dc:title>www.optaplanner.org</dc:title>
          </cc:Agent>
        </dc:rights>
        <dc:language>en</dc:language>
        <cc:license
           rdf:resource="https://www.optaplanner.org/code/license.html" />
      </cc:Work>
    </rdf:RDF>
  </metadata>
  <defs
     id="defs5">
    <linearGradient
       id="linearGradient3889">
      <stop
         style="stop-color:#ffffff;stop-opacity:1;"
         offset="0"
         id="stop3891" />
      <stop
         style="stop-color:#f7f7f7;stop-opacity:1;"
         offset="1"
         id="stop3893" />
    </linearGradient>
    <linearGradient
       id="linearGradient3863">
      <stop
         id="stop3879"
         offset="0"
         style="stop-color:#ffffff;stop-opacity:1;" />
      <stop
         style="stop-color:#eeeeec;stop-opacity:1;"
         offset="1"
         id="stop3867" />
    </linearGradient>
    <linearGradient
       id="linearGradient3855">
      <stop
         style="stop-color:#eeeeec;stop-opacity:1;"
         offset="0"
         id="stop3857" />
      <stop
         style="stop-color:#eeeeec;stop-opacity:0;"
         offset="1"
         id="stop3859" />
    </linearGradient>
    <linearGradient
       id="linearGradient3063">
      <stop
         style="stop-color:#ffffff;stop-opacity:1;"
         offset="0"
         id="stop3065" />
      <stop
         style="stop-color:#ffffff;stop-opacity:0;"
         offset="1"
         id="stop3067" />
    </linearGradient>
    <linearGradient
       inkscape:collect="always"
       xlink:href="#linearGradient1322"
       id="linearGradient4975"
       x1="34.892849"
       y1="36.422989"
       x2="45.918697"
       y2="48.547989"
       gradientUnits="userSpaceOnUse"
       gradientTransform="translate(-18.01785,2.428811)" />
    <linearGradient
       id="linearGradient1322">
      <stop
         id="stop1324"
         offset="0.0000000"
         style="stop-color:#729fcf" />
      <stop
         id="stop1326"
         offset="1.0000000"
         style="stop-color:#5187d6;stop-opacity:1.0000000;" />
    </linearGradient>
    <linearGradient
       gradientTransform="translate(-1.9043922e-7,16.000001)"
       inkscape:collect="always"
       xlink:href="#linearGradient7916"
       id="linearGradient7922"
       x1="16.874998"
       y1="22.851799"
       x2="27.900846"
       y2="34.976799"
       gradientUnits="userSpaceOnUse" />
    <linearGradient
       id="linearGradient7916">
      <stop
         style="stop-color:#ffffff;stop-opacity:1;"
         offset="0"
         id="stop7918" />
      <stop
         style="stop-color:#ffffff;stop-opacity:0.34020618;"
         offset="1.0000000"
         id="stop7920" />
    </linearGradient>
    <radialGradient
       inkscape:collect="always"
       xlink:href="#linearGradient2091"
       id="radialGradient2097"
       cx="23.070683"
       cy="35.127438"
       fx="23.070683"
       fy="35.127438"
       r="10.31934"
       gradientTransform="matrix(0.914812,0.01265023,-0.00821502,0.213562,2.253914,27.18889)"
       gradientUnits="userSpaceOnUse" />
    <linearGradient
       inkscape:collect="always"
       id="linearGradient2091">
      <stop
         style="stop-color:#000000;stop-opacity:1;"
         offset="0"
         id="stop2093" />
      <stop
         style="stop-color:#000000;stop-opacity:0;"
         offset="1"
         id="stop2095" />
    </linearGradient>
    <radialGradient
       r="10.31934"
       fy="35.127438"
       fx="23.070683"
       cy="35.127438"
       cx="23.070683"
       gradientTransform="matrix(0.914812,0.01265023,-0.00821502,0.213562,2.253914,27.18889)"
       gradientUnits="userSpaceOnUse"
       id="radialGradient3083"
       xlink:href="#linearGradient2091"
       inkscape:collect="always" />
    <radialGradient
       inkscape:collect="always"
       xlink:href="#linearGradient2091"
       id="radialGradient3037"
       gradientUnits="userSpaceOnUse"
       gradientTransform="matrix(0.914812,0.01265023,-0.00821502,0.213562,2.253914,27.18889)"
       cx="23.070683"
       cy="35.127438"
       fx="23.070683"
       fy="35.127438"
       r="10.31934" />
    <linearGradient
       id="linearGradient2667">
      <stop
         id="stop2669"
         offset="0.0000000"
         style="stop-color:#ffffff;stop-opacity:1.0000000;" />
      <stop
         id="stop2671"
         offset="1.0000000"
         style="stop-color:#fcfcff;stop-opacity:0.0000000;" />
    </linearGradient>
    <linearGradient
       inkscape:collect="always"
       id="linearGradient3816">
      <stop
         style="stop-color:#000000;stop-opacity:1;"
         offset="0"
         id="stop3818" />
      <stop
         style="stop-color:#000000;stop-opacity:0;"
         offset="1"
         id="stop3820" />
    </linearGradient>
    <radialGradient
       inkscape:collect="always"
       xlink:href="#linearGradient4163"
       id="radialGradient4169"
       cx="28.089741"
       cy="27.203083"
       fx="28.089741"
       fy="27.203083"
       r="13.56536"
       gradientTransform="matrix(0.93681229,0,0,0.76909961,-6.4342365,-5.6763437)"
       gradientUnits="userSpaceOnUse" />
    <linearGradient
       id="linearGradient4163">
      <stop
         style="stop-color:#3b74bc;stop-opacity:1.0000000;"
         offset="0.0000000"
         id="stop4165" />
      <stop
         style="stop-color:#2d5990;stop-opacity:1.0000000;"
         offset="1.0000000"
         id="stop4167" />
    </linearGradient>
    <linearGradient
       id="linearGradient3824">
      <stop
         style="stop-color:#ffffff;stop-opacity:1;"
         offset="0"
         id="stop3826" />
      <stop
         style="stop-color:#c9c9c9;stop-opacity:1.0000000;"
         offset="1.0000000"
         id="stop3828" />
    </linearGradient>
    <radialGradient
       inkscape:collect="always"
       xlink:href="#linearGradient3816"
       id="radialGradient3822"
       cx="31.112698"
       cy="19.008621"
       fx="31.112698"
       fy="19.008621"
       r="8.6620579"
       gradientUnits="userSpaceOnUse"
       gradientTransform="matrix(0.87778782,0,0,0.86920509,-5.4654217,-6.9284067)" />
    <radialGradient
       inkscape:collect="always"
       xlink:href="#linearGradient3800"
       id="radialGradient4171"
       gradientUnits="userSpaceOnUse"
       cx="29.344931"
       cy="17.064077"
       fx="29.344931"
       fy="17.064077"
       r="9.1620579"
       gradientTransform="matrix(0.69169505,0,0,0.68493187,0.10519363,-6.8261647)" />
    <linearGradient
       id="linearGradient3800">
      <stop
         style="stop-color:#f4d9b1;stop-opacity:1.0000000;"
         offset="0.0000000"
         id="stop3802" />
      <stop
         style="stop-color:#df9725;stop-opacity:1.0000000;"
         offset="1.0000000"
         id="stop3804" />
    </linearGradient>
    <linearGradient
       inkscape:collect="always"
       xlink:href="#linearGradient4356"
       id="linearGradient4362"
       x1="20.661695"
       y1="35.817974"
       x2="22.626925"
       y2="36.217758"
       gradientUnits="userSpaceOnUse"
       gradientTransform="matrix(0.983375,0.181588,-0.181588,0.983375,6.231716,-2.651466)" />
    <linearGradient
       inkscape:collect="always"
       id="linearGradient4356">
      <stop
         style="stop-color:#000000;stop-opacity:1;"
         offset="0"
         id="stop4358" />
      <stop
         style="stop-color:#000000;stop-opacity:0;"
         offset="1"
         id="stop4360" />
    </linearGradient>
    <linearGradient
       inkscape:collect="always"
       xlink:href="#linearGradient4356"
       id="linearGradient4366"
       gradientUnits="userSpaceOnUse"
       x1="22.686766"
       y1="36.3904"
       x2="21.408455"
       y2="35.739632"
       gradientTransform="matrix(-0.977685,0.210075,0.210075,0.977685,55.1096,-3.945209)" />
    <radialGradient
       inkscape:collect="always"
       xlink:href="#linearGradient3800"
       id="radialGradient3180"
       gradientUnits="userSpaceOnUse"
       gradientTransform="matrix(0.787998,0,0,0.787998,6.221198,3.617627)"
       cx="29.344931"
       cy="17.064077"
       fx="29.344931"
       fy="17.064077"
       r="9.1620579" />
    <linearGradient
       id="linearGradient2152-7">
      <stop
         id="stop2154-1"
         offset="0.0000000"
         style="stop-color:#9aa29a;stop-opacity:1.0000000;" />
      <stop
         id="stop2156-9"
         offset="1.0000000"
         style="stop-color:#b5beb5;stop-opacity:1.0000000;" />
    </linearGradient>
    <linearGradient
       id="linearGradient37935-4">
      <stop
         id="stop37937-7"
         offset="0.0000000"
         style="stop-color:#9497b3;stop-opacity:1.0000000;" />
      <stop
         id="stop37939-5"
         offset="1.0000000"
         style="stop-color:#4c4059;stop-opacity:1.0000000;" />
    </linearGradient>
    <linearGradient
       id="linearGradient2145-1">
      <stop
         style="stop-color:#fffffd;stop-opacity:1.0000000;"
         offset="0.0000000"
         id="stop2147-3" />
      <stop
         style="stop-color:#cbcbc9;stop-opacity:1.0000000;"
         offset="1.0000000"
         id="stop2149-6" />
    </linearGradient>
    <linearGradient
       id="linearGradient42174-0">
      <stop
         style="stop-color:#a0a0a0;stop-opacity:1.0000000;"
         offset="0.0000000"
         id="stop42176-3" />
      <stop
         style="stop-color:#ffffff;stop-opacity:1.0000000;"
         offset="1.0000000"
         id="stop42178-0" />
    </linearGradient>
    <linearGradient
       id="linearGradient10653-0">
      <stop
         style="stop-color:#f3f4ff;stop-opacity:1.0000000;"
         offset="0.0000000"
         id="stop10655-6" />
      <stop
         style="stop-color:#9193af;stop-opacity:1.0000000;"
         offset="1.0000000"
         id="stop10657-1" />
    </linearGradient>
    <radialGradient
       inkscape:collect="always"
       xlink:href="#linearGradient4163"
       id="radialGradient206"
       gradientUnits="userSpaceOnUse"
       gradientTransform="matrix(0.93681229,0,0,0.76909961,-6.4342365,-5.6763437)"
       cx="28.089741"
       cy="27.203083"
       fx="28.089741"
       fy="27.203083"
       r="13.56536" />
    <radialGradient
       inkscape:collect="always"
       xlink:href="#linearGradient3816"
       id="radialGradient208"
       gradientUnits="userSpaceOnUse"
       gradientTransform="matrix(0.87778782,0,0,0.86920509,-5.4654217,-6.9284067)"
       cx="31.112698"
       cy="19.008621"
       fx="31.112698"
       fy="19.008621"
       r="8.6620579" />
    <radialGradient
       inkscape:collect="always"
       xlink:href="#linearGradient3800"
       id="radialGradient210"
       gradientUnits="userSpaceOnUse"
       gradientTransform="matrix(0.69169505,0,0,0.68493187,0.10519363,-6.8261647)"
       cx="29.344931"
       cy="17.064077"
       fx="29.344931"
       fy="17.064077"
       r="9.1620579" />
  </defs>
  <sodipodi:namedview
     inkscape:window-height="709"
     inkscape:window-width="1366"
     inkscape:pageshadow="2"
     inkscape:pageopacity="0.0"
     guidetolerance="10.0"
     gridtolerance="10.0"
     objecttolerance="10.0"
     borderopacity="1.0"
     bordercolor="#666666"
     pagecolor="#ffffff"
     id="base"
     inkscape:zoom="8.5073785"
     inkscape:cx="9.0712453"
     inkscape:cy="37.086747"
     inkscape:window-x="0"
     inkscape:window-y="27"
     inkscape:current-layer="svg2"
     inkscape:grid-points="true"
     inkscape:object-nodes="true"
     inkscape:guide-points="true"
     inkscape:object-points="true"
     inkscape:object-bbox="true"
     showgrid="true"
     inkscape:window-maximized="1"
     inkscape:snap-global="true"
     showguides="false"
     inkscape:guide-bbox="true"
     inkscape:snap-smooth-nodes="true"
     inkscape:snap-object-midpoints="true"
     inkscape:snap-center="true"
     inkscape:snap-intersection-paths="true" />
  <g
     style="stroke-width:1.53785205"
     transform="matrix(0.64709963,0,0,0.653431,30.373069,8.470459)"
     id="g204">
    <g
       style="stroke-width:1.53785205"
       id="g202"
       transform="translate(8.4275584,4.6178402)">
      <path
         inkscape:connector-curvature="0"
         sodipodi:nodetypes="cczcccc"
         id="path190"
         d="m 18.361856,26.219633 h 7.65773 c 2.16969,0 4.317776,-0.957805 5.105152,-3.687726 0.747709,-2.592383 0.12763,-7.529105 -4.722266,-11.52414 h -9.061647 c -3.138494,4.537187 -4.424683,7.829097 -3.071344,12.502017 0.660315,1.916703 1.795053,2.709849 4.092375,2.709849 z"
         style="color:#000000;display:inline;overflow:visible;visibility:visible;fill:url(#radialGradient206);fill-opacity:1;fill-rule:evenodd;stroke:#204a87;stroke-width:2.24984646px;stroke-linecap:round;stroke-linejoin:round;stroke-miterlimit:4;stroke-dasharray:none;stroke-dashoffset:0;stroke-opacity:1;marker:none" />
      <path
         inkscape:connector-curvature="0"
         style="color:#000000;display:inline;overflow:visible;visibility:visible;fill:#729fcf;fill-opacity:1;fill-rule:evenodd;stroke:none;stroke-width:1.53785205px;marker:none"
         d="m 20.076203,13.312596 c 0,0 -1.888405,1.443171 -1.725723,3.181754 -1.791763,-1.56526 -1.843242,-4.564652 -1.843242,-4.564652 z"
         id="path192"
         sodipodi:nodetypes="cccc" />
      <path
         inkscape:connector-curvature="0"
         sodipodi:nodetypes="cccc"
         id="path194"
         d="m 23.971891,13.312596 c 0,0 1.888405,1.443171 1.725723,3.181754 1.791763,-1.56526 1.843243,-4.564652 1.843243,-4.564652 z"
         style="color:#000000;display:inline;overflow:visible;visibility:visible;fill:#729fcf;fill-opacity:1;fill-rule:evenodd;stroke:none;stroke-width:1.53785205px;marker:none" />
      <ellipse
         ry="7.5291047"
         rx="7.6034489"
         cy="9.5939837"
         cx="21.844925"
         style="color:#000000;display:inline;overflow:visible;visibility:visible;fill:url(#radialGradient208);fill-opacity:1;fill-rule:evenodd;stroke:none;stroke-width:1.53785205px;marker:none"
         id="ellipse196" />
      <ellipse
         ry="7.5291047"
         rx="7.6034489"
         cy="6.5517659"
         cx="21.954649"
         id="ellipse198"
         style="color:#000000;display:inline;overflow:visible;visibility:visible;fill:url(#radialGradient210);fill-opacity:1;fill-rule:evenodd;stroke:#c17d11;stroke-width:2.24984646px;stroke-linecap:round;stroke-linejoin:round;stroke-miterlimit:4;stroke-dasharray:none;stroke-dashoffset:0;stroke-opacity:1;marker:none" />
      <ellipse
         ry="6.6037402"
         rx="6.6689472"
         cy="6.5517769"
         cx="21.954668"
         style="color:#000000;display:inline;overflow:visible;visibility:visible;opacity:0.19620254;fill:none;stroke:#ffffff;stroke-width:2.24984813px;stroke-linecap:round;stroke-linejoin:round;stroke-miterlimit:4;stroke-dasharray:none;stroke-dashoffset:0;stroke-opacity:1;marker:none"
         id="ellipse200" />
    </g>
  </g>
  <g
     style="stroke-width:1.53785205"
     id="g3613"
     transform="matrix(0.64709963,0,0,0.653431,35.60875,13.73732)">
    <g
       style="stroke-width:1.53785205"
       transform="translate(8.4275584,4.6178402)"
       id="g3605">
      <path
         style="color:#000000;display:inline;overflow:visible;visibility:visible;fill:url(#radialGradient4169);fill-opacity:1;fill-rule:evenodd;stroke:#204a87;stroke-width:2.24984646px;stroke-linecap:round;stroke-linejoin:round;stroke-miterlimit:4;stroke-dasharray:none;stroke-dashoffset:0;stroke-opacity:1;marker:none"
         d="m 18.361856,26.219633 h 7.65773 c 2.16969,0 4.317776,-0.957805 5.105152,-3.687726 0.747709,-2.592383 0.12763,-7.529105 -4.722266,-11.52414 h -9.061647 c -3.138494,4.537187 -4.424683,7.829097 -3.071344,12.502017 0.660315,1.916703 1.795053,2.709849 4.092375,2.709849 z"
         id="path4308"
         sodipodi:nodetypes="cczcccc"
         inkscape:connector-curvature="0" />
      <path
         sodipodi:nodetypes="cccc"
         id="path4312"
         d="m 20.076203,13.312596 c 0,0 -1.888405,1.443171 -1.725723,3.181754 -1.791763,-1.56526 -1.843242,-4.564652 -1.843242,-4.564652 z"
         style="color:#000000;display:inline;overflow:visible;visibility:visible;fill:#729fcf;fill-opacity:1;fill-rule:evenodd;stroke:none;stroke-width:1.53785205px;marker:none"
         inkscape:connector-curvature="0" />
      <path
         style="color:#000000;display:inline;overflow:visible;visibility:visible;fill:#729fcf;fill-opacity:1;fill-rule:evenodd;stroke:none;stroke-width:1.53785205px;marker:none"
         d="m 23.971891,13.312596 c 0,0 1.888405,1.443171 1.725723,3.181754 1.791763,-1.56526 1.843243,-4.564652 1.843243,-4.564652 z"
         id="path4316"
         sodipodi:nodetypes="cccc"
         inkscape:connector-curvature="0" />
      <ellipse
         id="path4318"
         style="color:#000000;display:inline;overflow:visible;visibility:visible;fill:url(#radialGradient3822);fill-opacity:1;fill-rule:evenodd;stroke:none;stroke-width:1.53785205px;marker:none"
         cx="21.844925"
         cy="9.5939837"
         rx="7.6034489"
         ry="7.5291047" />
      <ellipse
         style="color:#000000;display:inline;overflow:visible;visibility:visible;fill:url(#radialGradient4171);fill-opacity:1;fill-rule:evenodd;stroke:#c17d11;stroke-width:2.24984646px;stroke-linecap:round;stroke-linejoin:round;stroke-miterlimit:4;stroke-dasharray:none;stroke-dashoffset:0;stroke-opacity:1;marker:none"
         id="path4320"
         cx="21.954649"
         cy="6.5517659"
         rx="7.6034489"
         ry="7.5291047" />
      <ellipse
         id="path4322"
         style="color:#000000;display:inline;overflow:visible;visibility:visible;opacity:0.19620254;fill:none;stroke:#ffffff;stroke-width:2.24984813px;stroke-linecap:round;stroke-linejoin:round;stroke-miterlimit:4;stroke-dasharray:none;stroke-dashoffset:0;stroke-opacity:1;marker:none"
         cx="21.954668"
         cy="6.5517769"
         rx="6.6689472"
         ry="6.6037402" />
    </g>
  </g>
  <g
     id="g166"
     transform="matrix(0.83961529,0,0,0.83961527,104.03101,11.508056)"
     style="stroke-width:1.19102168">
    <path
       sodipodi:nodetypes="ccccccccccc"
       inkscape:connector-curvature="0"
       id="path153"
       d="m -98.03267,11.900712 0.98377,-0.983776 c 0.16528,-0.165135 -0.35006,-0.9436571 -1.15258,-1.7463462 -0.8027,-0.8026891 -1.58122,-1.3177036 -1.74636,-1.152591 l -2.69519,2.6951982 18.49977,18.499633 2.6952,-2.695198 c 0.16528,-0.165135 -0.34969,-0.943665 -1.15258,-1.746354 -0.8027,-0.802689 -1.58122,-1.317708 -1.74636,-1.152591 l -0.98376,0.983775 z"
       style="color:#000000;display:inline;overflow:visible;visibility:visible;opacity:1;fill:#000000;fill-opacity:1;fill-rule:nonzero;stroke:#000000;stroke-width:1.19102168;stroke-linecap:round;stroke-linejoin:round;stroke-miterlimit:4;stroke-dasharray:none;stroke-dashoffset:0;stroke-opacity:1;marker:none;enable-background:accumulate" />
    <path
       sodipodi:nodetypes="csccccccccccccccccccccccccccccccccccccc"
       style="color:#000000;display:inline;overflow:visible;visibility:visible;opacity:1;fill:#729fcf;fill-opacity:1;fill-rule:nonzero;stroke:#000000;stroke-width:1.19102168;stroke-linecap:round;stroke-linejoin:round;stroke-miterlimit:4;stroke-dasharray:none;stroke-dashoffset:0;stroke-opacity:1;marker:none;enable-background:accumulate"
       d="m -75.77257,2.3423784 c -1.38307,-1.38305676 -4.70234,-1.47971666 -6.59536,0.4133024 l -9.93089,9.9308952 c -0.29496,0.29504 -0.79543,0.477794 -1.19916,0.372547 -1.66638,-0.43435 -2.9987,-0.762117 -4.53469,-1.158411 l -4.61036,-1.187515 c -4.2738,-1.0931744 -8.57766,-2.2019968 -13.23731,-3.3879147 -0.62939,-0.1601878 -1.47339,-0.2496891 -1.93263,0.2095484 -1.32925,1.3292511 -1.87683,1.9583085 -2.9688,3.0502843 -0.2781,0.278211 -0.10569,0.972947 0.24437,1.152591 6.01634,3.087134 13.50659,6.821229 18.51128,9.360422 0.37105,0.188148 0.45706,0.940022 0.16304,1.234087 -2.48951,2.489529 -5.07927,4.997802 -7.50345,7.421978 -0.34444,0.344625 -0.88164,0.61682 -1.36216,0.53555 -1.36984,-0.231662 -2.18165,-0.351896 -3.38209,-0.576298 -0.5569,-0.104081 -1.24679,0.01274 -1.64741,0.413303 l -2.18292,2.182931 c -0.3748,0.374814 -0.24062,0.837279 0.13979,1.071091 1.65675,1.018246 5.69694,3.11491 6.24028,3.422843 0.55961,0.317189 0.93066,0.660442 1.32723,1.327227 0.31932,0.536756 2.40458,4.583514 3.42282,6.240284 0.23387,0.380466 0.6963,0.514523 1.07109,0.139724 l 2.18296,-2.182935 c 0.40059,-0.400604 0.51741,-1.090491 0.41329,-1.647389 -0.2245,-1.20043 -0.34481,-2.012272 -0.57628,-3.382095 -0.0813,-0.480533 0.19077,-1.01754 0.53554,-1.362154 2.42418,-2.424176 4.93243,-5.013941 7.42197,-7.50347 0.29422,-0.294065 1.05175,-0.202052 1.2399,0.168808 2.53921,5.004717 6.26749,12.489144 9.35461,18.505468 0.17952,0.35006 0.8744,0.522698 1.15261,0.24448 1.09196,-1.091976 1.72683,-1.633724 3.05608,-2.962975 0.45924,-0.459234 0.36393,-1.30905 0.20389,-1.938445 -1.18593,-4.659653 -2.29472,-8.963506 -3.38793,-13.237311 l -1.1875,-4.610368 c -0.39627,-1.535981 -0.72407,-2.868331 -1.15842,-4.534681 -0.10532,-0.403738 0.0776,-0.904132 0.37255,-1.19916 l 9.93093,-9.9308956 c 1.89298,-1.8930191 1.79635,-5.2123164 0.41328,-6.5953732 z"
       id="path149"
       inkscape:connector-curvature="0" />
    <path
       sodipodi:nodetypes="csccccccccccc"
       style="color:#000000;display:inline;overflow:visible;visibility:visible;opacity:1;fill:#3465a4;fill-opacity:1;fill-rule:nonzero;stroke:#000000;stroke-width:1.19102168;stroke-linecap:round;stroke-linejoin:round;stroke-miterlimit:4;stroke-dasharray:none;stroke-dashoffset:0;stroke-opacity:1;marker:none;enable-background:accumulate"
       d="m -75.77257,2.3423784 c -1.38307,-1.38305676 -4.70234,-1.47971666 -6.59536,0.4133024 l -9.93089,9.9308952 -9.56426,9.645639 c -2.48951,2.489529 -5.07927,4.997802 -7.50345,7.421978 l -2.19451,7.04942 c 0.55961,0.317189 0.93066,0.660442 1.32723,1.327227 l 7.04942,-2.194565 c 2.42418,-2.424176 4.93243,-5.013941 7.42197,-7.50347 l 9.64579,-9.564184 9.93093,-9.9308956 c 1.89298,-1.8930191 1.79635,-5.2123164 0.41328,-6.5953732 z"
       id="path147"
       inkscape:connector-curvature="0" />
    <path
       inkscape:connector-curvature="0"
       id="path145"
       d="m -111.56104,36.803613 c 0,0 5.70293,-6.882825 6.96736,-5.612982 1.26443,1.269843 -5.64013,6.940209 -5.64013,6.940209"
       style="color:#000000;display:inline;overflow:visible;visibility:visible;opacity:1;fill:#729fcf;fill-opacity:1;fill-rule:nonzero;stroke:#000000;stroke-width:1.19102168;stroke-linecap:round;stroke-linejoin:bevel;stroke-miterlimit:4;stroke-dasharray:none;stroke-dashoffset:0;stroke-opacity:1;marker:none;enable-background:accumulate"
       sodipodi:nodetypes="czc" />
    <path
       inkscape:connector-curvature="0"
       id="path117"
       d="m -95.76242,28.432805 9.64579,-9.564184"
       style="color:#000000;display:inline;overflow:visible;visibility:visible;opacity:1;fill:none;fill-opacity:1;fill-rule:nonzero;stroke:#000000;stroke-width:1.19102168;stroke-linecap:round;stroke-linejoin:bevel;stroke-miterlimit:4;stroke-dasharray:none;stroke-dashoffset:0;stroke-opacity:1;marker:none;enable-background:accumulate" />
    <path
       inkscape:connector-curvature="0"
       id="path119"
       d="m -101.86308,22.332215 9.56426,-9.645639"
       style="color:#000000;display:inline;overflow:visible;visibility:visible;opacity:1;fill:none;fill-opacity:1;fill-rule:nonzero;stroke:#000000;stroke-width:1.19102168;stroke-linecap:round;stroke-linejoin:bevel;stroke-miterlimit:4;stroke-dasharray:none;stroke-dashoffset:0;stroke-opacity:1;marker:none;enable-background:accumulate" />
    <path
       inkscape:connector-curvature="0"
       id="path121"
       d="m -98.03267,11.900712 -4.61036,-1.187515"
       style="color:#000000;display:inline;overflow:visible;visibility:visible;opacity:1;fill:none;fill-opacity:1;fill-rule:nonzero;stroke:#000000;stroke-width:1.19102168;stroke-linecap:round;stroke-linejoin:bevel;stroke-miterlimit:4;stroke-dasharray:none;stroke-dashoffset:0;stroke-opacity:1;marker:none;enable-background:accumulate" />
    <path
       inkscape:connector-curvature="0"
       id="path123"
       d="m -85.33076,24.602462 1.1875,4.610368"
       style="color:#000000;display:inline;overflow:visible;visibility:visible;opacity:1;fill:none;fill-opacity:1;fill-rule:nonzero;stroke:#000000;stroke-width:1.19102168;stroke-linecap:round;stroke-linejoin:bevel;stroke-miterlimit:4;stroke-dasharray:none;stroke-dashoffset:0;stroke-opacity:1;marker:none;enable-background:accumulate" />
    <path
       sodipodi:nodetypes="cc"
       inkscape:connector-curvature="0"
       id="path125"
       d="m -109.36653,29.754193 -2.19451,7.04942"
       style="color:#000000;display:inline;overflow:visible;visibility:visible;opacity:1;fill:none;fill-opacity:1;fill-rule:nonzero;stroke:#000000;stroke-width:1.19102168;stroke-linecap:round;stroke-linejoin:bevel;stroke-miterlimit:4;stroke-dasharray:none;stroke-dashoffset:0;stroke-opacity:1;marker:none;enable-background:accumulate" />
    <path
       inkscape:connector-curvature="0"
       id="path127"
       d="m -110.23381,38.13084 7.04942,-2.194565"
       style="color:#000000;display:inline;overflow:visible;visibility:visible;opacity:1;fill:none;fill-opacity:1;fill-rule:nonzero;stroke:#000000;stroke-width:1.19102168;stroke-linecap:round;stroke-linejoin:bevel;stroke-miterlimit:4;stroke-dasharray:none;stroke-dashoffset:0;stroke-opacity:1;marker:none;enable-background:accumulate" />
    <path
       style="color:#000000;display:inline;overflow:visible;visibility:visible;opacity:1;fill:none;fill-opacity:1;fill-rule:nonzero;stroke:#000000;stroke-width:1.19102168;stroke-linecap:round;stroke-linejoin:round;stroke-miterlimit:4;stroke-dasharray:none;stroke-dashoffset:0;stroke-opacity:1;marker:none;enable-background:accumulate"
       d="m -75.77257,2.3423784 c -1.38307,-1.38305676 -4.70234,-1.47971666 -6.59536,0.4133024 l -9.93089,9.9308952 c -0.29496,0.29504 -0.79543,0.477794 -1.19916,0.372547 -1.66638,-0.43435 -2.9987,-0.762117 -4.53469,-1.158411 l 0.98377,-0.983776 c 0.16528,-0.165135 -0.35006,-0.9436571 -1.15258,-1.7463462 -0.8027,-0.8026891 -1.58122,-1.3177036 -1.74636,-1.152591 l -2.69519,2.6951982 c -4.2738,-1.0931744 -8.57766,-2.2019968 -13.23731,-3.3879147 -0.62939,-0.1601878 -1.47339,-0.2496891 -1.93263,0.2095484 -1.32925,1.3292511 -1.87683,1.9583085 -2.9688,3.0502843 -0.2781,0.278211 -0.10569,0.972947 0.24437,1.152591 6.01634,3.087134 13.50659,6.821229 18.51128,9.360422 0.37105,0.188148 0.45706,0.940022 0.16304,1.234087 -2.48951,2.489529 -5.07927,4.997802 -7.50345,7.421978 -0.34444,0.344625 -0.88164,0.61682 -1.36216,0.53555 -1.36984,-0.231662 -2.18165,-0.351896 -3.38209,-0.576298 -0.5569,-0.104081 -1.24679,0.01274 -1.64741,0.413303 l -2.18292,2.182931 c -0.3748,0.374814 -0.24062,0.837279 0.13979,1.071091 1.65675,1.018246 5.69694,3.11491 6.24028,3.422843 0.55961,0.317189 0.93066,0.660442 1.32723,1.327227 0.31932,0.536756 2.40458,4.583514 3.42282,6.240284 0.23387,0.380466 0.6963,0.514523 1.07109,0.139724 l 2.18296,-2.182935 c 0.40059,-0.400604 0.51741,-1.090491 0.41329,-1.647389 -0.2245,-1.20043 -0.34481,-2.012272 -0.57628,-3.382095 -0.0813,-0.480533 0.19077,-1.01754 0.53554,-1.362154 2.42418,-2.424176 4.93243,-5.013941 7.42197,-7.50347 0.29422,-0.294065 1.05175,-0.202052 1.2399,0.168808 2.53921,5.004717 6.26749,12.489144 9.35461,18.505468 0.17952,0.35006 0.8744,0.522698 1.15261,0.24448 1.09196,-1.091976 1.72683,-1.633724 3.05608,-2.962975 0.45924,-0.459234 0.36393,-1.30905 0.20389,-1.938445 -1.18593,-4.659653 -2.29472,-8.963506 -3.38793,-13.237311 l 2.6952,-2.695198 c 0.16528,-0.165135 -0.34969,-0.943665 -1.15258,-1.746354 -0.8027,-0.802689 -1.58122,-1.317708 -1.74636,-1.152591 l -0.98376,0.983775 c -0.39627,-1.535981 -0.72407,-2.868331 -1.15842,-4.534681 -0.10532,-0.403738 0.0776,-0.904132 0.37255,-1.19916 l 9.93093,-9.9308956 c 1.89298,-1.8930191 1.79635,-5.2123164 0.41328,-6.5953732 z"
       id="path151"
       inkscape:connector-curvature="0" />
  </g>
</svg>
