<?xml version="1.0" encoding="UTF-8" standalone="no"?>
<!DOCTYPE svg PUBLIC "-//W3C//DTD SVG 1.0//EN" "http://www.w3.org/TR/2001/REC-SVG-20010904/DTD/svg10.dtd">
<!-- Generated by Microsoft Visio 11.0, SVG Export, v1.0 singleValueRestriction.svg Page-1 -->
<svg xmlns="http://www.w3.org/2000/svg" xmlns:v="http://schemas.microsoft.com/visio/2003/SVGExtensions/" width="2.80282in"
		height="1.34127in" viewBox="0 0 201.803 96.5711" xml:space="preserve" color-interpolation-filters="sRGB" class="st5">
	<v:documentProperties v:langID="1033" v:metric="true" v:viewMarkup="false"/>

	<style type="text/css">
	<![CDATA[
		.st1 {fill:#e8eef7;stroke:#000000;stroke-linecap:round;stroke-linejoin:round;stroke-width:0.24}
		.st2 {fill:#000000;font-family:Arial;font-size:0.666664em;font-style:italic}
		.st3 {marker-end:url(#mrkr2-17);stroke:#4677bf;stroke-linecap:round;stroke-linejoin:round;stroke-width:0.24}
		.st4 {fill:#4677bf;fill-opacity:1;stroke:#4677bf;stroke-opacity:1;stroke-width:0.08695652173913}
		.st5 {fill:none;fill-rule:evenodd;font-size:12;overflow:visible;stroke-linecap:square;stroke-miterlimit:3}
	]]>
	</style>

	<defs id="Markers">
		<g id="lend2">
			<path d="M 1 1 L 0 0 L 1 -1 L 1 1 " style="stroke:none"/>
		</g>
		<marker id="mrkr2-17" class="st4" v:arrowType="2" v:arrowSize="2" v:setback="11.5" refX="-11.5" orient="auto"
				markerUnits="strokeWidth">
			<use xlink:href="#lend2" transform="scale(-11.5,-11.5) "/>
		</marker>
	</defs>
	<g v:mID="0" v:index="1" v:groupContext="foregroundPage">
		<title>Page-1</title>
		<v:pageProperties v:drawingScale="0.0393701" v:pageScale="0.0393701" v:drawingUnits="24" v:shadowOffsetX="8.50394"
				v:shadowOffsetY="-8.50394"/>
		<v:layer v:name="Connector" v:index="0"/>
		<v:layer v:name="Flowchart" v:index="1"/>
		<g id="shape112-1" v:mID="112" v:groupContext="shape" v:layerMember="0;1" transform="translate(190.098,-83.7522)">
			<title>On-page reference.129</title>
			<v:userDefs>
				<v:ud v:nameU="visVersion" v:val="VT0(11):26"/>
			</v:userDefs>
			<v:textBlock v:margins="rect(2,2,2,2)" v:tabSpace="42.5197"/>
			<path d="M0 90.84 A5.73228 5.73228 0 0 1 11.46 90.84 A5.73228 5.73228 0 1 1 0 90.84 Z" class="st1"/>
		</g>
		<g id="shape113-3" v:mID="113" v:groupContext="shape" v:layerMember="1" transform="translate(56.9644,-82.9333)">
			<title>Process.130</title>
			<desc>literalRestriction</desc>
			<v:custProps>
				<v:cp v:nameU="Cost" v:lbl="Cost" v:type="7" v:format="@" v:langID="1033"/>
				<v:cp v:nameU="Duration" v:lbl="Duration" v:type="2" v:langID="1033"/>
				<v:cp v:nameU="Resources" v:lbl="Resources" v:langID="1033"/>
			</v:custProps>
			<v:userDefs>
				<v:ud v:nameU="visVersion" v:val="VT0(11):26"/>
			</v:userDefs>
			<v:textBlock v:margins="rect(2,2,2,2)" v:tabSpace="42.5197"/>
			<v:textRect cx="43.937" cy="90.0199" width="87.88" height="13.1024"/>
			<rect x="0" y="83.4687" width="87.874" height="13.1024" rx="2.83465" ry="2.83465" class="st1"/>
			<text x="15.47" y="92.42" class="st2" v:langID="2057"><v:paragraph v:horizAlign="1"/><v:tabList/>literalRestriction</text>		</g>
		<g id="shape114-6" v:mID="114" v:groupContext="shape" v:layerMember="1" transform="translate(56.9644,-53.8519)">
			<title>Process.131</title>
			<desc>variableRestriction</desc>
			<v:custProps>
				<v:cp v:nameU="Cost" v:lbl="Cost" v:type="7" v:format="@" v:langID="1033"/>
				<v:cp v:nameU="Duration" v:lbl="Duration" v:type="2" v:langID="1033"/>
				<v:cp v:nameU="Resources" v:lbl="Resources" v:langID="1033"/>
			</v:custProps>
			<v:userDefs>
				<v:ud v:nameU="visVersion" v:val="VT0(11):26"/>
			</v:userDefs>
			<v:textBlock v:margins="rect(2,2,2,2)" v:tabSpace="42.5197"/>
			<v:textRect cx="43.937" cy="90.0199" width="87.88" height="13.1024"/>
			<rect x="0" y="83.4687" width="87.874" height="13.1024" rx="2.83465" ry="2.83465" class="st1"/>
			<text x="11.02" y="92.42" class="st2" v:langID="2057"><v:paragraph v:horizAlign="1"/><v:tabList/>variableRestriction</text>		</g>
		<g id="shape115-9" v:mID="115" v:groupContext="shape" v:layerMember="1" transform="translate(56.9644,-26.0983)">
			<title>Process.115</title>
			<desc>returnValueRestriction</desc>
			<v:custProps>
				<v:cp v:nameU="Cost" v:lbl="Cost" v:type="7" v:format="@" v:langID="1033"/>
				<v:cp v:nameU="Duration" v:lbl="Duration" v:type="2" v:langID="1033"/>
				<v:cp v:nameU="Resources" v:lbl="Resources" v:langID="1033"/>
			</v:custProps>
			<v:userDefs>
				<v:ud v:nameU="visVersion" v:val="VT0(11):26"/>
			</v:userDefs>
			<v:textBlock v:margins="rect(2,2,2,2)" v:tabSpace="42.5197"/>
			<v:textRect cx="43.937" cy="90.0199" width="87.88" height="13.1024"/>
			<rect x="0" y="83.4687" width="87.874" height="13.1024" rx="2.83465" ry="2.83465" class="st1"/>
			<text x="4.35" y="92.42" class="st2" v:langID="2057"><v:paragraph v:horizAlign="1"/><v:tabList/>returnValueRestriction</text>		</g>
		<g id="shape118-12" v:mID="118" v:groupContext="shape" v:layerMember="0" transform="translate(11.7046,-89.4845)">
			<title>Dynamic connector.135</title>
			<path d="M0 96.57 L17.38 96.57 A5.66929 5.66929 0 0 1 23.05 102.24 L23.05 147.74 A5.66929 5.66929 -180 0 0 28.72 153.41
						 L42.5 153.41" class="st3"/>
		</g>
		<g id="shape119-18" v:mID="119" v:groupContext="shape" v:layerMember="0" transform="translate(11.7046,-89.4845)">
			<title>Dynamic connector.136</title>
			<path d="M0 96.57 L17.28 96.57 A5.66929 5.66929 0 0 1 22.95 102.24 L22.95 119.98 A5.66929 5.66929 -180 0 0 28.62 125.65
						 L42.5 125.65" class="st3"/>
		</g>
		<g id="shape120-23" v:mID="120" v:groupContext="shape" v:layerMember="0" transform="translate(11.7046,-82.3979)">
			<title>Dynamic connector.137</title>
			<path d="M0 89.48 L42.5 89.48" class="st3"/>
		</g>
		<g id="shape121-28" v:mID="121" v:groupContext="shape" v:layerMember="0" transform="translate(144.838,-82.3979)">
			<title>Dynamic connector.138</title>
			<path d="M0 89.48 L42.5 89.48" class="st3"/>
		</g>
		<g id="shape122-33" v:mID="122" v:groupContext="shape" v:layerMember="0" transform="translate(144.838,-60.4031)">
			<title>Dynamic connector.142</title>
			<path d="M0 96.57 L15.25 96.57 A5.66929 5.66929 -180 0 0 20.92 90.9 L20.92 73.16 A5.66929 5.66929 0 0 1 26.59 67.49 L42.5
						 67.49" class="st3"/>
		</g>
		<g id="shape123-38" v:mID="123" v:groupContext="shape" v:layerMember="0" transform="translate(144.838,-32.6494)">
			<title>Dynamic connector.143</title>
			<path d="M0 96.57 L15.25 96.57 A5.66929 5.66929 -180 0 0 20.92 90.9 L20.92 45.41 A5.66929 5.66929 0 0 1 26.59 39.74 L42.5
						 39.74" class="st3"/>
		</g>
		<g id="shape125-43" v:mID="125" v:groupContext="shape" v:layerMember="0;1" transform="translate(0.24,-83.7522)">
			<title>On-page reference.145</title>
			<v:userDefs>
				<v:ud v:nameU="visVersion" v:val="VT0(11):26"/>
			</v:userDefs>
			<v:textBlock v:margins="rect(2,2,2,2)" v:tabSpace="42.5197"/>
			<path d="M0 90.84 A5.73228 5.73228 0 0 1 11.46 90.84 A5.73228 5.73228 0 1 1 0 90.84 Z" class="st1"/>
		</g>
		<g id="shape162-45" v:mID="162" v:groupContext="shape" v:layerMember="1" transform="translate(50.9565,-0.24)">
			<title>Process.162</title>
			<desc>qualifiedIdentifierRestriction</desc>
			<v:custProps>
				<v:cp v:nameU="Cost" v:lbl="Cost" v:type="7" v:format="@" v:langID="1033"/>
				<v:cp v:nameU="Duration" v:lbl="Duration" v:type="2" v:langID="1033"/>
				<v:cp v:nameU="Resources" v:lbl="Resources" v:langID="1033"/>
			</v:custProps>
			<v:userDefs>
				<v:ud v:nameU="visVersion" v:val="VT0(11):26"/>
			</v:userDefs>
			<v:textBlock v:margins="rect(2,2,2,2)" v:tabSpace="42.5197"/>
			<v:textRect cx="53.1496" cy="90.0199" width="106.3" height="13.1024"/>
			<rect x="0" y="83.4687" width="106.299" height="13.1024" rx="2.83465" ry="2.83465" class="st1"/>
			<text x="4.01" y="92.42" class="st2" v:langID="2057"><v:paragraph v:horizAlign="1"/><v:tabList/>qualifiedIdentifierRestriction</text>		</g>
		<g id="shape163-48" v:mID="163" v:groupContext="shape" v:layerMember="0" transform="translate(11.7046,-89.4845)">
			<title>Dynamic connector.163</title>
			<path d="M0 96.57 L17.38 96.57 A5.66929 5.66929 0 0 1 23.05 102.24 L23.05 173.6 A5.66929 5.66929 -180 0 0 28.72 179.26
						 L36.49 179.26" class="st3"/>
		</g>
		<g id="shape164-53" v:mID="164" v:groupContext="shape" v:layerMember="0" transform="translate(157.256,-6.79118)">
			<title>Dynamic connector.164</title>
			<path d="M0 96.57 L4.25 96.57 A4.25197 4.25197 -180 0 0 8.5 92.32 L8.5 19.55 A5.66929 5.66929 0 0 1 14.17 13.88 L30.08
						 13.88" class="st3"/>
		</g>
	</g>
</svg>
