<svg id="Layer_1" data-name="Layer 1" xmlns="http://www.w3.org/2000/svg" viewBox="0 0 1024 1024">
  <!--
	- Licensed to the Apache Software Foundation (ASF) under one
	- or more contributor license agreements.  See the NOTICE file
	- distributed with this work for additional information
	- regarding copyright ownership.  The ASF licenses this file
	- to you under the Apache License, Version 2.0 (the
	- "License"); you may not use this file except in compliance
	- with the License.  You may obtain a copy of the License at
	-
	-   http://www.apache.org/licenses/LICENSE-2.0
	-
	- Unless required by applicable law or agreed to in writing,
	- software distributed under the License is distributed on an
	- "AS IS" BASIS, WITHOUT WARRANTIES OR CONDITIONS OF ANY
	- KIND, either express or implied.  See the License for the
	- specific language governing permissions and limitations
	- under the License.
	-->
  <defs>
    <style>
			.cls-1{fill:#f5891f;}.cls-2{fill:#97d4e8;}.cls-3{fill:#fff;}.cls-4{fill:#085870;}
		</style>
  </defs>
  <title>
		kie_icon_rgb_fullcolor_default
	</title>
  <path
    class="cls-1"
    d="M921.17,381.72V280.19l-251.84,85.9a188.74,188.74,0,0,0-102.28,96.54l-46.6,101.14,45.25,30.1L512,719.41,458.29,593.87l45.26-30.1L456.94,462.63a188.62,188.62,0,0,0-101.47-96.22l-252.65-81v96.29a247.75,247.75,0,0,0,0,333.86V886.13l295.12,93.34v28.38A15.2,15.2,0,0,0,413.1,1023h197a15.2,15.2,0,0,0,15.15-15.15V977.91l295.91-97.66V715.58a247.72,247.72,0,0,0,0-333.86Z"
  />
  <path
    class="cls-2"
    d="M648.57,309.12l272.6-93V1L512,211.81,102.82,6.62V221.77l273,87.49A249.38,249.38,0,0,1,512,437.26,249.35,249.35,0,0,1,648.57,309.12Z"
  />
  <circle class="cls-3" cx="737.68" cy="548.65" r="145.89" />
  <path class="cls-4" d="M787.05,463.14a98.74,98.74,0,1,0,49.37,85.51H737.68Z" />
  <circle class="cls-3" cx="286.32" cy="548.65" r="145.89" />
  <path class="cls-4" d="M335.68,463.14a98.74,98.74,0,1,0,49.38,85.51H286.32Z" />
  <path
    class="cls-3"
    d="M414.88,404.23a187.59,187.59,0,0,1,42.06,58.4l46.61,101.14-45.26,30.1L512,719.41l53.7-125.54-45.25-30.1,46.6-101.14a188.74,188.74,0,0,1,102.28-96.54l251.84-85.9v-64l-272.6,93A249.35,249.35,0,0,0,512,437.26a249.38,249.38,0,0,0-136.21-128l-273-87.49v63.66l252.65,81A187.13,187.13,0,0,1,414.88,404.23Z"
  />
</svg>
