<?xml version="1.0" encoding="UTF-8" standalone="no"?>
<!DOCTYPE svg PUBLIC "-//W3C//DTD SVG 1.0//EN" "http://www.w3.org/TR/2001/REC-SVG-20010904/DTD/svg10.dtd">
<!-- Generated by Microsoft Visio 11.0, SVG Export, v1.0 query.svg Page-1 -->
<svg xmlns="http://www.w3.org/2000/svg" xmlns:v="http://schemas.microsoft.com/visio/2003/SVGExtensions/" width="1.71476in"
		height="1.60509in" viewBox="0 0 123.463 115.567" xml:space="preserve" color-interpolation-filters="sRGB" class="st7">
	<v:documentProperties v:langID="1033" v:metric="true" v:viewMarkup="false"/>

	<style type="text/css">
	<![CDATA[
		.st1 {marker-end:url(#mrkr2-6);stroke:#4677bf;stroke-linecap:round;stroke-linejoin:round;stroke-width:0.24}
		.st2 {fill:#4677bf;fill-opacity:1;stroke:#4677bf;stroke-opacity:1;stroke-width:0.08695652173913}
		.st3 {fill:#e8eef7;stroke:#000000;stroke-linecap:round;stroke-linejoin:round;stroke-width:0.24}
		.st4 {fill:#000000;font-family:Arial;font-size:0.666664em}
		.st5 {font-size:1em}
		.st6 {fill:#000000;font-family:Arial;font-size:0.666664em;font-style:italic}
		.st7 {fill:none;fill-rule:evenodd;font-size:12;overflow:visible;stroke-linecap:square;stroke-miterlimit:3}
	]]>
	</style>

	<defs id="Markers">
		<g id="lend2">
			<path d="M 1 1 L 0 0 L 1 -1 L 1 1 " style="stroke:none"/>
		</g>
		<marker id="mrkr2-6" class="st2" v:arrowType="2" v:arrowSize="2" v:setback="11.5" refX="-11.5" orient="auto"
				markerUnits="strokeWidth">
			<use xlink:href="#lend2" transform="scale(-11.5,-11.5) "/>
		</marker>
	</defs>
	<g v:mID="0" v:index="1" v:groupContext="foregroundPage">
		<title>Page-1</title>
		<v:pageProperties v:drawingScale="0.0393701" v:pageScale="0.0393701" v:drawingUnits="24" v:shadowOffsetX="8.50394"
				v:shadowOffsetY="-8.50394"/>
		<v:layer v:name="Connector" v:index="0"/>
		<v:layer v:name="Flowchart" v:index="1"/>
		<g id="shape2-1" v:mID="2" v:groupContext="shape" v:layerMember="0" transform="translate(61.8374,-91.303)">
			<title>Dynamic connector.4</title>
			<path d="M0.15 122.42 L6.96 122.42 L6.96 122.89 L11.26 122.89" class="st1"/>
		</g>
		<g id="shape3-7" v:mID="3" v:groupContext="shape" v:layerMember="1" transform="translate(28.9186,-77.8384)">
			<title>Process.1</title>
			<desc>‘query’</desc>
			<v:custProps>
				<v:cp v:nameU="Cost" v:lbl="Cost" v:type="7" v:format="@" v:langID="1033"/>
				<v:cp v:nameU="Duration" v:lbl="Duration" v:type="2" v:langID="1033"/>
				<v:cp v:nameU="Resources" v:lbl="Resources" v:langID="1033"/>
			</v:custProps>
			<v:userDefs>
				<v:ud v:nameU="visVersion" v:val="VT0(11):26"/>
			</v:userDefs>
			<v:textBlock v:margins="rect(2,2,2,2)" v:tabSpace="42.5197"/>
			<v:textRect cx="16.5354" cy="108.952" width="33.08" height="13.2283"/>
			<rect x="0" y="102.338" width="33.0709" height="13.2283" rx="2.83465" ry="2.83465" class="st3"/>
			<text x="4.74" y="111.35" class="st4" v:langID="1033"><v:paragraph v:horizAlign="1"/><v:tabList/>‘<tspan class="st5"
						v:langID="2057">query</tspan>’</text>		</g>
		<g id="shape9-11" v:mID="9" v:groupContext="shape" v:layerMember="1" transform="translate(28.5865,-21.1455)">
			<title>Process.58</title>
			<desc>‘end’</desc>
			<v:custProps>
				<v:cp v:nameU="Cost" v:lbl="Cost" v:type="7" v:format="@" v:langID="1033"/>
				<v:cp v:nameU="Duration" v:lbl="Duration" v:type="2" v:langID="1033"/>
				<v:cp v:nameU="Resources" v:lbl="Resources" v:langID="1033"/>
			</v:custProps>
			<v:userDefs>
				<v:ud v:nameU="visVersion" v:val="VT0(11):26"/>
			</v:userDefs>
			<v:textBlock v:margins="rect(2,2,2,2)" v:tabSpace="42.5197"/>
			<v:textRect cx="20.6693" cy="108.952" width="41.34" height="13.2283"/>
			<rect x="0" y="102.338" width="41.3386" height="13.2283" rx="2.83465" ry="2.83465" class="st3"/>
			<text x="12.22" y="111.35" class="st4" v:langID="1033"><v:paragraph v:horizAlign="1"/><v:tabList/>‘<tspan class="st5"
						v:langID="2057">end</tspan>’</text>		</g>
		<g id="shape20-15" v:mID="20" v:groupContext="shape" v:layerMember="1" transform="translate(49.1081,-48.5471)">
			<title>Process.69</title>
			<desc>LHS</desc>
			<v:custProps>
				<v:cp v:nameU="Cost" v:lbl="Cost" v:type="7" v:format="@" v:langID="1033"/>
				<v:cp v:nameU="Duration" v:lbl="Duration" v:type="2" v:langID="1033"/>
				<v:cp v:nameU="Resources" v:lbl="Resources" v:langID="1033"/>
			</v:custProps>
			<v:userDefs>
				<v:ud v:nameU="visVersion" v:val="VT0(11):26"/>
			</v:userDefs>
			<v:textBlock v:margins="rect(2,2,2,2)" v:tabSpace="42.5197"/>
			<v:textRect cx="18.0856" cy="108.952" width="36.18" height="13.2283"/>
			<rect x="0" y="102.338" width="36.1713" height="13.2283" rx="2.83465" ry="2.83465" class="st3"/>
			<text x="10.29" y="111.35" class="st6" v:langID="2057"><v:paragraph v:horizAlign="1"/><v:tabList/>LHS</text>		</g>
		<g id="shape24-18" v:mID="24" v:groupContext="shape" v:layerMember="0" transform="translate(85.2794,-55.1613)">
			<title>Dynamic connector.73</title>
			<path d="M0 115.57 L5.31 115.57 A5.31496 5.31496 0 0 1 10.63 120.88 L10.63 123.6 A5.66929 5.66929 0 0 1 4.96 129.27 L-61.65
						 129.27 A5.66929 5.66929 -180 0 0 -67.32 134.94 L-67.32 137.65 A5.31496 5.31496 -180 0 0 -62.01 142.97 L-59.45
						 142.97" class="st1"/>
		</g>
		<g id="shape31-23" v:mID="31" v:groupContext="shape" v:layerMember="0;1" transform="translate(0.24,-103.752)">
			<title>On-page reference.135</title>
			<v:userDefs>
				<v:ud v:nameU="visVersion" v:val="VT0(11):26"/>
			</v:userDefs>
			<v:textBlock v:margins="rect(2,2,2,2)" v:tabSpace="42.5197"/>
			<path d="M0 109.78 A5.7874 5.7874 0 0 1 11.57 109.78 A5.7874 5.7874 0 1 1 0 109.78 Z" class="st3"/>
		</g>
		<g id="shape32-25" v:mID="32" v:groupContext="shape" v:layerMember="0" transform="translate(11.8148,-109.539)">
			<title>Dynamic connector.136</title>
			<path d="M0 115.57 L3.07 115.57 A3.06684 3.06684 0 0 1 6.13 118.63 L6.13 135.17 A5.48508 5.48508 -180 0 0 11.62 140.65
						 L14.34 140.65" class="st1"/>
		</g>
		<g id="shape34-30" v:mID="34" v:groupContext="shape" v:layerMember="0;1" transform="translate(90.7124,-0.24)">
			<title>On-page reference.138</title>
			<v:userDefs>
				<v:ud v:nameU="visVersion" v:val="VT0(11):26"/>
			</v:userDefs>
			<v:textBlock v:margins="rect(2,2,2,2)" v:tabSpace="42.5197"/>
			<path d="M0 109.78 A5.7874 5.7874 0 0 1 11.57 109.78 A5.7874 5.7874 0 1 1 0 109.78 Z" class="st3"/>
		</g>
		<g id="shape36-32" v:mID="36" v:groupContext="shape" v:layerMember="0" transform="translate(69.925,-27.7597)">
			<title>Dynamic connector.140</title>
			<path d="M0 115.57 L5.31 115.57 A5.31496 5.31496 0 0 1 10.63 120.88 L10.63 132.22 A5.07874 5.07874 -180 0 0 15.71 137.3
						 L18.03 137.3" class="st1"/>
		</g>
		<g id="shape6-37" v:mID="6" v:groupContext="shape" v:layerMember="1" transform="translate(75.8586,-77.366)">
			<title>Process.6</title>
			<desc>name</desc>
			<v:custProps>
				<v:cp v:nameU="Cost" v:lbl="Cost" v:type="7" v:format="@" v:langID="1033"/>
				<v:cp v:nameU="Duration" v:lbl="Duration" v:type="2" v:langID="1033"/>
				<v:cp v:nameU="Resources" v:lbl="Resources" v:langID="1033"/>
			</v:custProps>
			<v:userDefs>
				<v:ud v:nameU="visVersion" v:val="VT0(11):26"/>
			</v:userDefs>
			<v:textBlock v:margins="rect(2,2,2,2)" v:tabSpace="42.5197"/>
			<v:textRect cx="16.5354" cy="108.952" width="33.08" height="13.2283"/>
			<rect x="0" y="102.338" width="33.0709" height="13.2283" rx="2.83465" ry="2.83465" class="st3"/>
			<text x="6.52" y="111.35" class="st6" v:langID="2057"><v:paragraph v:horizAlign="1"/><v:tabList/>name</text>		</g>
		<g id="shape37-40" v:mID="37" v:groupContext="shape" v:layerMember="0" transform="translate(108.929,-83.9802)">
			<title>Dynamic connector.37</title>
			<path d="M0 115.57 L5.31 115.57 A5.31496 5.31496 0 0 1 10.63 120.88 L10.63 124.07 A5.66929 5.66929 0 0 1 4.96 129.74
						 L-64.78 129.74 A5.66929 5.66929 -180 0 0 -70.45 135.41 L-70.45 139.07 A5.31496 5.31496 -180 0 0 -65.14 144.39
						 L-62.58 144.39" class="st1"/>
		</g>
	</g>
</svg>
