<?xml version="1.0" encoding="UTF-8" standalone="no"?>
<!DOCTYPE svg PUBLIC "-//W3C//DTD SVG 1.0//EN" "http://www.w3.org/TR/2001/REC-SVG-20010904/DTD/svg10.dtd">
<!-- Generated by Microsoft Visio 11.0, SVG Export, v1.0 rule_attributes.svg Page-1 -->
<svg xmlns="http://www.w3.org/2000/svg" xmlns:v="http://schemas.microsoft.com/visio/2003/SVGExtensions/" width="3.98857in"
		height="1.61701in" viewBox="0 0 287.177 116.425" xml:space="preserve" color-interpolation-filters="sRGB" class="st9">
	<v:documentProperties v:langID="1033" v:metric="true" v:viewMarkup="false"/>

	<style type="text/css">
	<![CDATA[
		.st1 {fill:none;stroke:none;stroke-linecap:round;stroke-linejoin:round;stroke-width:0.72}
		.st2 {fill:#000000;font-family:Arial;font-size:1.00001em;font-weight:bold}
		.st3 {font-size:1em}
		.st4 {fill:#e8eef7;stroke:#000000;stroke-linecap:round;stroke-linejoin:round;stroke-width:0.24}
		.st5 {fill:#000000;font-family:Arial;font-size:0.666664em}
		.st6 {marker-end:url(#mrkr2-20);stroke:#4677bf;stroke-linecap:round;stroke-linejoin:round;stroke-width:0.24}
		.st7 {fill:#4677bf;fill-opacity:1;stroke:#4677bf;stroke-opacity:1;stroke-width:0.08695652173913}
		.st8 {fill:#000000;font-family:Arial;font-size:0.666664em;font-style:italic}
		.st9 {fill:none;fill-rule:evenodd;font-size:12;overflow:visible;stroke-linecap:square;stroke-miterlimit:3}
	]]>
	</style>

	<defs id="Markers">
		<g id="lend2">
			<path d="M 1 1 L 0 0 L 1 -1 L 1 1 " style="stroke:none"/>
		</g>
		<marker id="mrkr2-20" class="st7" v:arrowType="2" v:arrowSize="2" v:setback="11.5" refX="-11.5" orient="auto"
				markerUnits="strokeWidth">
			<use xlink:href="#lend2" transform="scale(-11.5,-11.5) "/>
		</marker>
	</defs>
	<g v:mID="0" v:index="1" v:groupContext="foregroundPage">
		<title>Page-1</title>
		<v:pageProperties v:drawingScale="0.0393701" v:pageScale="0.0393701" v:drawingUnits="24" v:shadowOffsetX="8.50394"
				v:shadowOffsetY="-8.50394"/>
		<v:layer v:name="Flowchart" v:index="0"/>
		<v:layer v:name="Connector" v:index="1"/>
		<g id="shape1-1" v:mID="1" v:groupContext="shape" transform="translate(0.72,-103.225)">
			<title>Sheet.1</title>
			<desc>attributes</desc>
			<v:textBlock v:margins="rect(2,2,2,2)" v:tabSpace="42.5197"/>
			<v:textRect cx="32.4614" cy="110.425" width="64.93" height="12"/>
			<rect x="0" y="104.425" width="64.9228" height="12" class="st1"/>
			<text x="5.11" y="114.03" class="st2" v:langID="2057"><v:paragraph v:horizAlign="1"/><v:tabList/>attribute<tspan
						class="st3" v:langID="1033">s</tspan></text>		</g>
		<g id="shape5-5" v:mID="5" v:groupContext="shape" v:layerMember="0" transform="translate(71.0497,-83.6437)">
			<title>Process.89</title>
			<desc>‘no-loop’</desc>
			<v:custProps>
				<v:cp v:nameU="Cost" v:lbl="Cost" v:type="7" v:format="@" v:langID="1033"/>
				<v:cp v:nameU="Duration" v:lbl="Duration" v:type="2" v:langID="1033"/>
				<v:cp v:nameU="Resources" v:lbl="Resources" v:langID="1033"/>
			</v:custProps>
			<v:userDefs>
				<v:ud v:nameU="visVersion" v:val="VT0(11):26"/>
			</v:userDefs>
			<v:textBlock v:margins="rect(2,2,2,2)" v:tabSpace="42.5197"/>
			<v:textRect cx="23.2137" cy="109.718" width="46.43" height="13.4147"/>
			<rect x="0" y="103.01" width="46.4273" height="13.4147" rx="2.83465" ry="2.83465" class="st4"/>
			<text x="8.1" y="112.12" class="st5" v:langID="1033"><v:paragraph v:horizAlign="1"/><v:tabList/>‘n<tspan class="st3"
						v:langID="2057">o</tspan><tspan class="st3" v:langID="2057">-</tspan>l<tspan class="st3" v:langID="2057">oop</tspan>’</text>		</g>
		<g id="shape8-11" v:mID="8" v:groupContext="shape" v:layerMember="0" transform="translate(71.0497,-56.2555)">
			<title>Process.90</title>
			<desc>‘salience’</desc>
			<v:custProps>
				<v:cp v:nameU="Cost" v:lbl="Cost" v:type="7" v:format="@" v:langID="1033"/>
				<v:cp v:nameU="Duration" v:lbl="Duration" v:type="2" v:langID="1033"/>
				<v:cp v:nameU="Resources" v:lbl="Resources" v:langID="1033"/>
			</v:custProps>
			<v:userDefs>
				<v:ud v:nameU="visVersion" v:val="VT0(11):26"/>
			</v:userDefs>
			<v:textBlock v:margins="rect(2,2,2,2)" v:tabSpace="42.5197"/>
			<v:textRect cx="23.2137" cy="109.718" width="46.43" height="13.4147"/>
			<rect x="0" y="103.01" width="46.4273" height="13.4147" rx="2.83465" ry="2.83465" class="st4"/>
			<text x="6.77" y="112.12" class="st5" v:langID="1033"><v:paragraph v:horizAlign="1"/><v:tabList/>‘<tspan class="st3"
						v:langID="2057">salience</tspan>’</text>		</g>
		<g id="shape10-15" v:mID="10" v:groupContext="shape" v:layerMember="1" transform="translate(18.1271,-83.2645)">
			<title>Dynamic connector.91</title>
			<path d="M0 109.34 L50.16 109.34" class="st6"/>
		</g>
		<g id="shape27-21" v:mID="27" v:groupContext="shape" v:layerMember="1" transform="translate(24.4699,-90.3511)">
			<title>Dynamic connector.92</title>
			<path d="M0 116.42 L11.64 116.42 A5.66929 5.66929 0 0 1 17.31 122.09 L17.31 138.14 A5.66929 5.66929 -180 0 0 22.98 143.81
						 L43.82 143.81" class="st6"/>
		</g>
		<g id="shape35-26" v:mID="35" v:groupContext="shape" v:layerMember="0" transform="translate(57.3992,-28.8672)">
			<title>Process.93</title>
			<desc>‘agenda-group’</desc>
			<v:custProps>
				<v:cp v:nameU="Cost" v:lbl="Cost" v:type="7" v:format="@" v:langID="1033"/>
				<v:cp v:nameU="Duration" v:lbl="Duration" v:type="2" v:langID="1033"/>
				<v:cp v:nameU="Resources" v:lbl="Resources" v:langID="1033"/>
			</v:custProps>
			<v:userDefs>
				<v:ud v:nameU="visVersion" v:val="VT0(11):26"/>
			</v:userDefs>
			<v:textBlock v:margins="rect(2,2,2,2)" v:tabSpace="42.5197"/>
			<v:textRect cx="36.8641" cy="109.718" width="73.73" height="13.4147"/>
			<rect x="0" y="103.01" width="73.7282" height="13.4147" rx="2.83465" ry="2.83465" class="st4"/>
			<text x="10.19" y="112.12" class="st5" v:langID="1033"><v:paragraph v:horizAlign="1"/><v:tabList/>‘a<tspan class="st3"
						v:langID="2057">genda</tspan><tspan class="st3" v:langID="2057">-</tspan>g<tspan class="st3"
						v:langID="2057">roup</tspan>’</text>		</g>
		<g id="shape41-32" v:mID="41" v:groupContext="shape" v:layerMember="0" transform="translate(64.9187,-2.09267)">
			<title>Process.94</title>
			<desc>‘duration’</desc>
			<v:custProps>
				<v:cp v:nameU="Cost" v:lbl="Cost" v:type="7" v:format="@" v:langID="1033"/>
				<v:cp v:nameU="Duration" v:lbl="Duration" v:type="2" v:langID="1033"/>
				<v:cp v:nameU="Resources" v:lbl="Resources" v:langID="1033"/>
			</v:custProps>
			<v:userDefs>
				<v:ud v:nameU="visVersion" v:val="VT0(11):26"/>
			</v:userDefs>
			<v:textBlock v:margins="rect(2,2,2,2)" v:tabSpace="42.5197"/>
			<v:textRect cx="29.3446" cy="109.718" width="58.69" height="13.4147"/>
			<rect x="0" y="103.01" width="58.6892" height="13.4147" rx="2.83465" ry="2.83465" class="st4"/>
			<text x="13.12" y="112.12" class="st5" v:langID="1033"><v:paragraph v:horizAlign="1"/><v:tabList/>‘<tspan class="st3"
						v:langID="2057">duration</tspan>’</text>		</g>
		<g id="shape42-36" v:mID="42" v:groupContext="shape" v:layerMember="1" transform="translate(24.4699,-90.3511)">
			<title>Dynamic connector.95</title>
			<path d="M0 116.42 L11.64 116.42 A5.66929 5.66929 0 0 1 17.31 122.09 L17.31 165.53 A5.66929 5.66929 -180 0 0 22.98 171.2
						 L30.17 171.2" class="st6"/>
		</g>
		<g id="shape43-41" v:mID="43" v:groupContext="shape" v:layerMember="1" transform="translate(24.4699,-90.3511)">
			<title>Dynamic connector.96</title>
			<path d="M0 116.42 L11.64 116.42 A5.66929 5.66929 0 0 1 17.31 122.09 L17.31 192.31 A5.66929 5.66929 -180 0 0 22.98 197.98
						 L37.69 197.98" class="st6"/>
		</g>
		<g id="shape44-46" v:mID="44" v:groupContext="shape" v:layerMember="1" transform="translate(117.477,-97.4377)">
			<title>Dynamic connector.98</title>
			<v:textBlock v:margins="rect(4,4,4,4)" v:tabSpace="42.5197"/>
			<path d="M0 123.51 L32.06 123.51" class="st6"/>
		</g>
		<g id="shape45-51" v:mID="45" v:groupContext="shape" v:layerMember="1" transform="translate(123.608,-1.71339)">
			<title>Dynamic connector.99</title>
			<path d="M0 109.34 L25.13 109.34" class="st6"/>
		</g>
		<g id="shape46-56" v:mID="46" v:groupContext="shape" v:layerMember="1" transform="translate(117.477,-62.9628)">
			<title>Dynamic connector.100</title>
			<path d="M0 116.42 L9.6 116.42 A5.66929 5.66929 -180 0 0 15.27 110.76 L15.27 94.71 A5.66929 5.66929 0 0 1 20.94 89.04
						 L58.66 89.04" class="st6"/>
		</g>
		<g id="shape47-61" v:mID="47" v:groupContext="shape" v:layerMember="1" transform="translate(131.127,-35.5745)">
			<title>Dynamic connector.101</title>
			<path d="M0 116.42 L5.31 116.42 A5.31496 5.31496 -180 0 0 10.63 111.11 L10.63 66.92 A5.27187 5.27187 0 0 1 15.9 61.65
						 L18.41 61.65" class="st6"/>
		</g>
		<g id="shape48-66" v:mID="48" v:groupContext="shape" v:layerMember="0" transform="translate(152.301,-83.6437)">
			<title>Process.156</title>
			<desc>value</desc>
			<v:custProps>
				<v:cp v:nameU="Cost" v:lbl="Cost" v:type="7" v:format="@" v:langID="1033"/>
				<v:cp v:nameU="Duration" v:lbl="Duration" v:type="2" v:langID="1033"/>
				<v:cp v:nameU="Resources" v:lbl="Resources" v:langID="1033"/>
			</v:custProps>
			<v:userDefs>
				<v:ud v:nameU="visVersion" v:val="VT0(11):26"/>
			</v:userDefs>
			<v:textBlock v:margins="rect(2,2,2,2)" v:tabSpace="42.5197"/>
			<v:textRect cx="18.4976" cy="109.718" width="37" height="13.4147"/>
			<rect x="0" y="103.01" width="36.9953" height="13.4147" rx="2.83465" ry="2.83465" class="st4"/>
			<text x="8.94" y="112.12" class="st8" v:langID="2057"><v:paragraph v:horizAlign="1"/><v:tabList/>value</text>		</g>
		<g id="shape49-69" v:mID="49" v:groupContext="shape" v:layerMember="1;0" transform="translate(261.308,-84.4822)">
			<title>On-page reference.157</title>
			<v:userDefs>
				<v:ud v:nameU="visVersion" v:val="VT0(11):26"/>
			</v:userDefs>
			<v:textBlock v:margins="rect(2,2,2,2)" v:tabSpace="42.5197"/>
			<path d="M0 110.56 A5.86892 5.86892 0 0 1 11.74 110.56 A5.86892 5.86892 0 0 1 0 110.56 Z" class="st4"/>
		</g>
		<g id="shape50-71" v:mID="50" v:groupContext="shape" v:layerMember="0" transform="translate(213.039,-99.1243)">
			<title>Process.160</title>
			<desc>;</desc>
			<v:custProps>
				<v:cp v:nameU="Cost" v:lbl="Cost" v:type="7" v:format="@" v:langID="1033"/>
				<v:cp v:nameU="Duration" v:lbl="Duration" v:type="2" v:langID="1033"/>
				<v:cp v:nameU="Resources" v:lbl="Resources" v:langID="1033"/>
			</v:custProps>
			<v:userDefs>
				<v:ud v:nameU="visVersion" v:val="VT0(11):26"/>
			</v:userDefs>
			<v:textBlock v:margins="rect(2,2,2,2)" v:tabSpace="42.5197"/>
			<v:textRect cx="10.061" cy="109.718" width="20.13" height="13.4147"/>
			<rect x="0" y="103.01" width="20.122" height="13.4147" rx="2.83465" ry="2.83465" class="st4"/>
			<text x="8.94" y="112.12" class="st5" v:langID="2057"><v:paragraph v:horizAlign="1"/><v:tabList/>;</text>		</g>
		<g id="shape51-74" v:mID="51" v:groupContext="shape" v:layerMember="1" transform="translate(189.296,-90.3511)">
			<title>Dynamic connector.161</title>
			<path d="M0 116.42 L5.31 116.42 A5.31496 5.31496 -180 0 0 10.63 111.11 L10.63 106.61 A5.66929 5.66929 0 0 1 16.3 100.94
						 L20.98 100.94" class="st6"/>
		</g>
		<g id="shape52-79" v:mID="52" v:groupContext="shape" v:layerMember="1" transform="translate(233.161,-105.832)">
			<title>Dynamic connector.162</title>
			<path d="M0 116.42 L5.31 116.42 A5.31496 5.31496 0 0 1 10.63 121.74 L10.63 126.24 A5.66929 5.66929 -180 0 0 16.3 131.91
						 L25.39 131.91" class="st6"/>
		</g>
		<g id="shape53-84" v:mID="53" v:groupContext="shape" v:layerMember="1" transform="translate(189.296,-83.2645)">
			<title>Dynamic connector.163</title>
			<path d="M0 109.34 L69.25 109.34" class="st6"/>
		</g>
		<g id="shape54-89" v:mID="54" v:groupContext="shape" v:layerMember="1;0" transform="translate(6.38929,-84.4822)">
			<title>On-page reference.164</title>
			<v:userDefs>
				<v:ud v:nameU="visVersion" v:val="VT0(11):26"/>
			</v:userDefs>
			<v:textBlock v:margins="rect(2,2,2,2)" v:tabSpace="42.5197"/>
			<path d="M0 110.56 A5.86892 5.86892 0 0 1 11.74 110.56 A5.86892 5.86892 0 0 1 0 110.56 Z" class="st4"/>
		</g>
		<g id="shape58-91" v:mID="58" v:groupContext="shape" v:layerMember="0" transform="translate(151.495,-2.09267)">
			<title>Process.201</title>
			<desc>duration-value (ms)</desc>
			<v:custProps>
				<v:cp v:nameU="Cost" v:lbl="Cost" v:type="7" v:format="@" v:langID="1033"/>
				<v:cp v:nameU="Duration" v:lbl="Duration" v:type="2" v:langID="1033"/>
				<v:cp v:nameU="Resources" v:lbl="Resources" v:langID="1033"/>
			</v:custProps>
			<v:userDefs>
				<v:ud v:nameU="visVersion" v:val="VT0(11):26"/>
			</v:userDefs>
			<v:textBlock v:margins="rect(2,2,2,2)" v:tabSpace="42.5197"/>
			<v:textRect cx="48.6282" cy="109.718" width="97.26" height="13.4147"/>
			<rect x="0" y="103.01" width="97.2563" height="13.4147" rx="2.83465" ry="2.83465" class="st4"/>
			<text x="14.17" y="112.12" class="st5" v:langID="1033"><v:paragraph v:horizAlign="1"/><v:tabList/>duration-value (ms)</text>		</g>
		<g id="shape59-94" v:mID="59" v:groupContext="shape" v:layerMember="1" transform="translate(248.751,-8.8)">
			<title>Dynamic connector.202</title>
			<path d="M0 116.42 L12.76 116.42 A5.66929 5.66929 -180 0 0 18.43 110.76 L18.43 43.5" class="st6"/>
		</g>
	</g>
</svg>
