<?xml version="1.0" encoding="UTF-8" standalone="no"?>
<!-- Created with Inkscape (http://www.inkscape.org/) -->

<svg
   xmlns:dc="http://purl.org/dc/elements/1.1/"
   xmlns:cc="http://creativecommons.org/ns#"
   xmlns:rdf="http://www.w3.org/1999/02/22-rdf-syntax-ns#"
   xmlns:svg="http://www.w3.org/2000/svg"
   xmlns="http://www.w3.org/2000/svg"
   xmlns:xlink="http://www.w3.org/1999/xlink"
   xmlns:sodipodi="http://sodipodi.sourceforge.net/DTD/sodipodi-0.dtd"
   xmlns:inkscape="http://www.inkscape.org/namespaces/inkscape"
   id="svg2"
   sodipodi:version="0.32"
   inkscape:version="0.48.3.1 r9886"
   width="16"
   height="16"
   sodipodi:docname="deleteCloudProcess.svg"
   inkscape:output_extension="org.inkscape.output.svg.inkscape"
   inkscape:export-filename="deleteCloudProcess.png"
   inkscape:export-xdpi="90"
   inkscape:export-ydpi="90"
   version="1.1">
  <metadata
     id="metadata7">
    <rdf:RDF>
      <cc:Work
         rdf:about="">
        <dc:format>image/svg+xml</dc:format>
        <dc:type
           rdf:resource="http://purl.org/dc/dcmitype/StillImage" />
        <dc:creator>
          <cc:Agent>
            <dc:title>www.optaplanner.org</dc:title>
          </cc:Agent>
        </dc:creator>
        <dc:title />
        <dc:rights>
          <cc:Agent>
            <dc:title>www.optaplanner.org</dc:title>
          </cc:Agent>
        </dc:rights>
        <dc:language>en</dc:language>
        <cc:license
            rdf:resource="https://www.optaplanner.org/code/license.html" />
      </cc:Work>
    </rdf:RDF>
  </metadata>
  <defs
     id="defs5">
    <linearGradient
       inkscape:collect="always"
       xlink:href="#aigrd1"
       id="linearGradient3773"
       gradientUnits="userSpaceOnUse"
       gradientTransform="matrix(0.200685,0,0,0.200685,-54.33576,-1.050787)"
       x1="99.777298"
       y1="15.4238"
       x2="153.0005"
       y2="248.6311" />
    <linearGradient
       id="aigrd1"
       gradientUnits="userSpaceOnUse"
       x1="99.777298"
       y1="15.4238"
       x2="153.0005"
       y2="248.6311">
      <stop
         offset="0"
         style="stop-color:#184375"
         id="stop53300" />
      <stop
         offset="1"
         style="stop-color:#C8BDDC"
         id="stop53302" />
    </linearGradient>
  </defs>
  <sodipodi:namedview
     inkscape:window-height="991"
     inkscape:window-width="1680"
     inkscape:pageshadow="2"
     inkscape:pageopacity="0.0"
     guidetolerance="10.0"
     gridtolerance="10.0"
     objecttolerance="10.0"
     borderopacity="1.0"
     bordercolor="#666666"
     pagecolor="#ffffff"
     id="base"
     inkscape:zoom="32"
     inkscape:cx="9.9387365"
     inkscape:cy="10.286794"
     inkscape:window-x="1680"
     inkscape:window-y="27"
     inkscape:current-layer="svg2"
     inkscape:grid-points="true"
     inkscape:object-nodes="true"
     inkscape:guide-points="true"
     inkscape:object-points="true"
     inkscape:object-bbox="true"
     showgrid="true"
     inkscape:window-maximized="1" />
  <g
     transform="matrix(0.32548797,0,0,0.32548797,0.22897716,0.39173275)"
     id="g3028">
    <path
       inkscape:connector-curvature="0"
       id="path3243"
       d="M 22.699525,0.94746963 C 22.22635,0.97984519 21.766437,1.0531317 21.301673,1.1063165 l -0.03177,0 -1.111928,6.0679506 C 18.345621,7.5870046 16.640562,8.2874574 15.106644,9.2392765 L 10.118853,5.6493371 C 8.770521,6.6961412 7.543552,7.9170049 6.465374,9.2392765 l 3.462862,5.0513305 c -1.051422,1.606783 -1.842083,3.441487 -2.287395,5.369025 -7.6e-5,0.0091 -6.2e-5,0.03018 0,0.03177 l -6.036181,0.95308 c -0.110357,0.901369 -0.158847,1.832904 -0.158847,2.763936 0,0.761753 0.021033,1.513329 0.095308,2.255625 l 6.036182,1.080159 c 0.429297,2.096161 1.244809,4.053785 2.382703,5.782026 l -3.58994,4.924254 c 1.028135,1.276384 2.215105,2.43848 3.494632,3.462861 l 5.0831,-3.494631 c 1.776475,1.133244 3.759545,1.927892 5.909103,2.319165 l 0.953082,6.004411 c 0.677254,0.06165 1.371775,0.06354 2.065009,0.06354 0.978685,-10e-7 1.91352,-0.03709 2.859244,-0.158847 l 1.143697,-6.131489 c 2.040927,-0.507904 3.958179,-1.388998 5.62318,-2.573319 l 4.892483,3.55817 c 1.26877,-1.079445 2.428987,-2.320188 3.431093,-3.653479 l -3.55817,-5.146638 c 0.963606,-1.664197 1.631298,-3.500366 1.969701,-5.464333 l 6.004412,-0.953081 c 0.05266,-0.62659 0.06354,-1.234265 0.06354,-1.874393 0,-1.1124 -0.129295,-2.203101 -0.285924,-3.272246 l -6.09972,-1.111928 c -0.478008,-1.76508 -1.262312,-3.41188 -2.255625,-4.892484 L 41.25284,9.2075071 C 40.140075,7.8466524 38.870718,6.5895264 37.472284,5.5222596 l -5.178408,3.55817 C 30.805549,8.200202 29.203897,7.5248159 27.464931,7.1424978 L 26.51185,1.1063165 C 25.644369,1.0042729 24.769749,0.94746963 23.874992,0.94746963 c -0.241826,1e-8 -0.490706,-0.007609 -0.730696,0 -0.116995,0.003709 -0.232771,-0.006806 -0.349463,0 -0.0316,0.001843 -0.06376,-0.002158 -0.09531,0 z M 23.525529,16.387386 c 0.116063,-0.0059 0.231944,0 0.349463,0 3.760606,0 6.830416,3.06981 6.830416,6.830416 1e-6,3.760605 -3.069811,6.798646 -6.830416,6.798646 -3.760605,1e-6 -6.798646,-3.038041 -6.798646,-6.798646 10e-7,-3.643086 2.851212,-6.647839 6.449183,-6.830416 z"
       style="color:#000000;fill:url(#linearGradient3773);fill-opacity:1;fill-rule:nonzero;stroke:#3f4561;stroke-width:1;stroke-linecap:round;stroke-linejoin:round;stroke-miterlimit:4;stroke-opacity:1;stroke-dasharray:none;stroke-dashoffset:0;marker:none;visibility:visible;display:inline;overflow:visible"
       inkscape:r_cx="true"
       inkscape:r_cy="true" />
    <path
       transform="matrix(0.616598,0,0,0.616598,9.38202,8.539674)"
       d="m 36.239223,23.781593 c 0,7.029438 -5.698484,12.727923 -12.727922,12.727923 -7.029437,0 -12.727922,-5.698485 -12.727922,-12.727923 0,-7.029437 5.698485,-12.727922 12.727922,-12.727922 7.029438,0 12.727922,5.698485 12.727922,12.727922 z"
       sodipodi:ry="12.727922"
       sodipodi:rx="12.727922"
       sodipodi:cy="23.781593"
       sodipodi:cx="23.511301"
       id="path3283"
       style="opacity:0.64772728;color:#000000;fill:none;stroke:#ffffff;stroke-width:1.62180054;stroke-linecap:butt;stroke-linejoin:miter;stroke-miterlimit:4;stroke-opacity:1;stroke-dasharray:none;stroke-dashoffset:0;marker:none;visibility:visible;display:inline;overflow:visible"
       sodipodi:type="arc"
       inkscape:r_cx="true"
       inkscape:r_cy="true" />
    <path
       inkscape:connector-curvature="0"
       sodipodi:nodetypes="ccccccccccccccccccccccccccccccccc"
       style="opacity:0.34659089;color:#000000;fill:none;stroke:#ffffff;stroke-width:0.99999923;stroke-linecap:butt;stroke-linejoin:miter;stroke-miterlimit:4;stroke-opacity:1;stroke-dasharray:none;stroke-dashoffset:0;marker:none;visibility:visible;display:inline;overflow:visible"
       d="m 21.995808,2.1484671 -0.892784,5.8750572 c -1.69877,0.3868703 -4.823582,1.5700792 -6.261367,2.4622467 L 10.091975,6.9406268 C 8.828145,7.9218257 8.741474,7.9883656 7.730867,9.2277688 l 3.434196,5.0932192 c -0.985526,1.506083 -2.169267,4.189994 -2.594285,6.107942 0,0 -6.01779,1.014425 -6.01779,1.014425 -0.103441,0.844879 -0.053728,2.653173 0.015892,3.348948 l 5.748217,1.035517 c 0.402393,1.96479 1.908227,5.127412 2.974807,6.747341 l -3.635002,4.802558 c 0.963699,1.196391 1.156572,1.30587 2.355908,2.266051 l 4.860631,-3.561037 c 1.66514,1.062221 4.970289,2.354376 6.98513,2.721127 l 0.797728,5.801092 c 0.63481,0.05778 2.38853,0.219875 3.274984,0.105749 l 0.892783,-6.03888 c 1.913018,-0.476072 5.218473,-1.832925 6.779125,-2.943023 l 4.855433,3.50816 c 1.189254,-1.011792 1.199909,-1.164249 2.139211,-2.41398 l -3.59802,-5.114311 c 0.903215,-1.5599 2.071087,-4.610599 2.388282,-6.45148 l 5.890949,-0.977443 c 0.04935,-0.58732 0.05176,-2.225166 -0.09506,-3.227305 L 39.182092,20.016922 C 38.73404,18.362463 37.196418,15.381153 36.265359,13.993342 L 40.080075,9.1907857 C 39.037052,7.915218 38.64924,7.7402002 37.338448,6.7398212 L 32.313994,10.337839 C 30.918941,9.5127782 28.137095,8.2550417 26.507114,7.8966842 L 25.619528,2.1484671 c -0.813114,-0.095648 -3.15904,-0.053175 -3.62372,0 z"
       id="path3285"
       inkscape:r_cx="true"
       inkscape:r_cy="true" />
    <path
       inkscape:connector-curvature="0"
       sodipodi:nodetypes="cccccccccsccccccccccccccccccccsccccc"
       inkscape:r_cy="true"
       inkscape:r_cx="true"
       id="path3767"
       d="M 10.102903,6.2970655 C 8.7545689,7.3438694 8.1656464,7.9719226 7.0874684,9.2941942 l 3.4024586,4.9649588 c -1.0514198,1.598602 -2.1582995,4.166961 -2.3475411,5.728553 0,0 -6.0625,1.044194 -6.0625,1.044194 C 2.0109129,21.595256 1.90625,22.884803 1.90625,22.884803 l 0.1767767,1.5625 c 0.42773,0.08833 0.840155,0.170515 1.28125,0.21875 l 0.5,-1.53125 c 0.344041,0.02848 0.679653,0.0625 1.03125,0.0625 0.351208,0 0.718458,-0.03383 1.0625,-0.0625 l 0.46875,1.53125 c 0.441288,-0.04824 0.884772,-0.130415 1.3125,-0.21875 l 0,-1.5625 c 0.685757,-0.159623 1.332001,-0.387758 1.96875,-0.65625 l 0.9375003,1.28125 c 0.402351,-0.182094 0.775596,-0.375819 1.15625,-0.59375 l -0.5,-1.5 c 0.597233,-0.36225 1.161752,-0.795347 1.6875,-1.25 l 1.28125,0.9375 c 0.325635,-0.29658 0.641113,-0.611862 0.9375,-0.9375 l -0.9375,-1.25 c 0.454846,-0.525748 0.8565,-1.089882 1.21875,-1.6875 l 1.5,0.46875 c 0.217931,-0.380847 0.443294,-0.754094 0.625,-1.15625 l -1.28125,-0.9375 c 0.26849,-0.636749 0.464989,-1.282992 0.625,-1.96875 l 1.59375,0 c 0.08833,-0.427727 0.139459,-0.871212 0.1875,-1.3125 l -1.5,-0.46875 c 0.02886,-0.343848 0.0625,-0.711097 0.0625,-1.0625 -1e-6,-0.351403 -0.03402,-0.687014 -0.0625,-1.0312496 l 1.5,-0.46875 c -0.04555,-0.4198872 -0.105591,-0.8419986 -0.1875,-1.25 -1.147428,0.399301 -2.55266,1.1531195 -3.568512,1.7834709 L 10.102903,6.2970655 z"
       style="opacity:0.5;color:#000000;fill:#ffffff;fill-opacity:1;fill-rule:nonzero;stroke:none;stroke-width:1;marker:none;visibility:visible;display:inline;overflow:visible" />
    <path
       inkscape:connector-curvature="0"
       inkscape:r_cy="true"
       inkscape:r_cx="true"
       id="path3770"
       d="m 37.236641,17.217754 c -0.383781,0.181376 -0.746638,0.385755 -1.113405,0.595541 l 0.56965,1.734841 c -0.697094,0.4223 -1.35473,0.919689 -1.967878,1.450015 l -1.475909,-1.087512 c -0.380086,0.345899 -0.741772,0.707584 -1.087511,1.087512 l 1.087511,1.475908 c -0.530326,0.613312 -1.027552,1.270943 -1.450015,1.967878 l -0.543756,-0.181252 c -0.04768,0.700283 -0.236379,1.361485 -0.517862,1.967878 l 0.103572,0.07768 c -0.313157,0.74268 -0.564548,1.530398 -0.750901,2.330382 l -1.475908,0 c -0.136283,0.08545 -0.270553,0.18506 -0.414291,0.258931 -0.07837,0.415267 -0.134912,0.817326 -0.181251,1.242871 l 1.760733,0.569648 c -0.03339,0.401276 -0.05179,0.807195 -0.05179,1.216978 -2e-6,0.409941 0.0184,0.815701 0.05179,1.216977 l -1.760733,0.569648 c 0.05602,0.514755 0.129991,1.02867 0.233038,1.527695 l 1.838412,-0.02589 c 0.128118,0.549987 0.303065,1.107439 0.49197,1.631267 0.744916,-0.28728 1.473833,-0.630185 2.149129,-1.035725 -0.411587,-1.216041 -0.647328,-2.529108 -0.647328,-3.883969 10e-7,-5.197933 3.292381,-9.636655 7.897405,-11.341191 l -1.087511,-0.181253 c -0.222788,-0.822662 -0.511324,-1.628591 -0.880367,-2.382167 -0.01085,-0.02216 -0.01492,-0.05558 -0.02589,-0.07768 l -0.05179,-0.05179 -0.699115,-0.673221 z"
       style="opacity:0.5;color:#000000;fill:#ffffff;fill-opacity:1;fill-rule:nonzero;stroke:none;stroke-width:1;marker:none;visibility:visible;display:inline;overflow:visible" />
  </g>
  <g
     id="g2254"
     transform="matrix(1.0451787,0,0,1.0451787,-5.5873231,-30.671612)"
     inkscape:r_cx="true"
     inkscape:r_cy="true"
     style="stroke:#a40000;stroke-width:1.91354835;stroke-miterlimit:4;stroke-dasharray:none">
    <path
       inkscape:r_cy="true"
       inkscape:r_cx="true"
       id="path1377"
       d="M 8,32 18,42"
       style="color:#000000;fill:none;stroke:#a40000;stroke-width:1.91354835;stroke-linecap:round;stroke-linejoin:round;stroke-miterlimit:4;stroke-opacity:1;stroke-dasharray:none;stroke-dashoffset:0;marker:none;visibility:visible;display:inline;overflow:visible"
       inkscape:connector-curvature="0" />
    <path
       style="color:#000000;fill:none;stroke:#a40000;stroke-width:1.91354835;stroke-linecap:round;stroke-linejoin:round;stroke-miterlimit:4;stroke-opacity:1;stroke-dasharray:none;stroke-dashoffset:0;marker:none;visibility:visible;display:inline;overflow:visible"
       d="M 18,32 8,42"
       id="path2252"
       inkscape:r_cx="true"
       inkscape:r_cy="true"
       inkscape:connector-curvature="0" />
  </g>
</svg>
