<?xml version="1.0" encoding="UTF-8" standalone="no"?>
<!DOCTYPE svg PUBLIC "-//W3C//DTD SVG 1.0//EN" "http://www.w3.org/TR/2001/REC-SVG-20010904/DTD/svg10.dtd">
<!-- Generated by Microsoft Visio 11.0, SVG Export, v1.0 function.svg function -->
<svg xmlns="http://www.w3.org/2000/svg" xmlns:v="http://schemas.microsoft.com/visio/2003/SVGExtensions/" width="8.26772in"
		height="11.6929in" viewBox="0 0 595.276 841.89" xml:space="preserve" color-interpolation-filters="sRGB" class="st9">
	<v:documentProperties v:langID="1033" v:viewMarkup="false"/>

	<style type="text/css">
	<![CDATA[
		.st1 {fill:#e8eef7;stroke:#000000;stroke-linecap:round;stroke-linejoin:round;stroke-width:0.24}
		.st2 {fill:#000000;font-family:Arial;font-size:0.666664em}
		.st3 {font-size:1em}
		.st4 {fill:#000000;font-family:Arial;font-size:0.666664em;font-style:italic}
		.st5 {marker-end:url(#mrkr2-17);stroke:#4677bf;stroke-linecap:round;stroke-linejoin:round;stroke-width:0.24}
		.st6 {fill:#4677bf;fill-opacity:1;stroke:#4677bf;stroke-opacity:1;stroke-width:0.08695652173913}
		.st7 {fill:none;stroke:none;stroke-linecap:round;stroke-linejoin:round;stroke-width:0.72}
		.st8 {fill:#000000;font-family:Arial;font-size:1.00001em;font-weight:bold}
		.st9 {fill:none;fill-rule:evenodd;font-size:12;overflow:visible;stroke-linecap:square;stroke-miterlimit:3}
	]]>
	</style>

	<defs id="Markers">
		<g id="lend2">
			<path d="M 1 1 L 0 0 L 1 -1 L 1 1 " style="stroke:none"/>
		</g>
		<marker id="mrkr2-17" class="st6" v:arrowType="2" v:arrowSize="2" v:setback="11.5" refX="-11.5" orient="auto"
				markerUnits="strokeWidth">
			<use xlink:href="#lend2" transform="scale(-11.5,-11.5) "/>
		</marker>
	</defs>
	<g v:mID="0" v:index="1" v:groupContext="foregroundPage">
		<v:userDefs>
			<v:ud v:nameU="SchemeName" v:val="VT4(Default)"/>
		</v:userDefs>
		<title>function</title>
		<v:pageProperties v:drawingScale="0.0393701" v:pageScale="0.0393701" v:drawingUnits="24" v:shadowOffsetX="8.50394"
				v:shadowOffsetY="-8.50394"/>
		<v:layer v:name="Connector" v:index="0"/>
		<v:layer v:name="Flowchart" v:index="1"/>
		<g id="shape1-1" v:mID="1" v:groupContext="shape" v:layerMember="1" transform="translate(208.366,-715.856)">
			<title>Process.1</title>
			<desc>‘{‘</desc>
			<v:custProps>
				<v:cp v:nameU="Cost" v:lbl="Cost" v:type="7" v:format="@" v:langID="1033"/>
				<v:cp v:nameU="Duration" v:lbl="Duration" v:type="2" v:langID="1033"/>
				<v:cp v:nameU="Resources" v:lbl="Resources" v:langID="1033"/>
			</v:custProps>
			<v:userDefs>
				<v:ud v:nameU="visVersion" v:val="VT0(11):26"/>
			</v:userDefs>
			<v:textBlock v:margins="rect(2,2,2,2)" v:tabSpace="42.5197"/>
			<v:textRect cx="9.7884" cy="835.364" width="19.58" height="13.0512"/>
			<rect x="0" y="828.839" width="19.5768" height="13.0512" rx="2.83465" ry="2.83465" class="st1"/>
			<text x="6.69" y="837.76" class="st2" v:langID="1033"><v:paragraph v:horizAlign="1"/><v:tabList/>‘<tspan class="st3"
						v:langID="2057">{</tspan>‘</text>		</g>
		<g id="shape2-5" v:mID="2" v:groupContext="shape" v:layerMember="1" transform="translate(42.6279,-744.764)">
			<title>Process.34</title>
			<desc>‘function’</desc>
			<v:custProps>
				<v:cp v:nameU="Cost" v:lbl="Cost" v:type="7" v:format="@" v:langID="1033"/>
				<v:cp v:nameU="Duration" v:lbl="Duration" v:type="2" v:langID="1033"/>
				<v:cp v:nameU="Resources" v:lbl="Resources" v:langID="1033"/>
			</v:custProps>
			<v:userDefs>
				<v:ud v:nameU="visVersion" v:val="VT0(11):26"/>
			</v:userDefs>
			<v:textBlock v:margins="rect(2,2,2,2)" v:tabSpace="42.5197"/>
			<v:textRect cx="22.5847" cy="835.364" width="45.17" height="13.0512"/>
			<rect x="0" y="828.839" width="45.1694" height="13.0512" rx="2.83465" ry="2.83465" class="st1"/>
			<text x="6.79" y="837.76" class="st2" v:langID="1033"><v:paragraph v:horizAlign="1"/><v:tabList/>‘<tspan class="st3"
						v:langID="2057">function</tspan>’</text>		</g>
		<g id="shape3-9" v:mID="3" v:groupContext="shape" v:layerMember="1" transform="translate(43.8486,-715.856)">
			<title>Process.36</title>
			<desc>name</desc>
			<v:custProps>
				<v:cp v:nameU="Cost" v:lbl="Cost" v:type="7" v:format="@" v:langID="1033"/>
				<v:cp v:nameU="Duration" v:lbl="Duration" v:type="2" v:langID="1033"/>
				<v:cp v:nameU="Resources" v:lbl="Resources" v:langID="1033"/>
			</v:custProps>
			<v:userDefs>
				<v:ud v:nameU="visVersion" v:val="VT0(11):26"/>
			</v:userDefs>
			<v:textBlock v:margins="rect(2,2,2,2)" v:tabSpace="42.5197"/>
			<v:textRect cx="16.314" cy="835.364" width="32.63" height="13.0512"/>
			<rect x="0" y="828.839" width="32.628" height="13.0512" rx="2.83465" ry="2.83465" class="st1"/>
			<text x="6.32" y="837.76" class="st4" v:langID="2057"><v:paragraph v:horizAlign="1"/><v:tabList/>name</text>		</g>
		<g id="shape4-12" v:mID="4" v:groupContext="shape" v:layerMember="0" transform="translate(76.4766,-715.295)">
			<title>Dynamic connector.37</title>
			<path d="M0 834.8 L13.05 834.8" class="st5"/>
		</g>
		<g id="shape5-18" v:mID="5" v:groupContext="shape" v:layerMember="1" transform="translate(42.5788,-659.561)">
			<title>Process.37</title>
			<desc>‘}’</desc>
			<v:custProps>
				<v:cp v:nameU="Cost" v:lbl="Cost" v:type="7" v:format="@" v:langID="1033"/>
				<v:cp v:nameU="Duration" v:lbl="Duration" v:type="2" v:langID="1033"/>
				<v:cp v:nameU="Resources" v:lbl="Resources" v:langID="1033"/>
			</v:custProps>
			<v:userDefs>
				<v:ud v:nameU="visVersion" v:val="VT0(11):26"/>
			</v:userDefs>
			<v:textBlock v:margins="rect(2,2,2,2)" v:tabSpace="42.5197"/>
			<v:textRect cx="9.7884" cy="835.364" width="19.58" height="13.0512"/>
			<rect x="0" y="828.839" width="19.5768" height="13.0512" rx="2.83465" ry="2.83465" class="st1"/>
			<text x="6.69" y="837.76" class="st2" v:langID="1033"><v:paragraph v:horizAlign="1"/><v:tabList/>‘<tspan class="st3"
						v:langID="2057">}</tspan>’</text>		</g>
		<g id="shape6-22" v:mID="6" v:groupContext="shape" v:layerMember="0" transform="translate(218.155,-715.856)">
			<title>Dynamic connector.52</title>
			<path d="M0 841.89 L0 857.64 A5.66929 5.66929 0 0 1 -5.67 863.31 L-96.97 863.31" class="st5"/>
		</g>
		<g id="shape7-27" v:mID="7" v:groupContext="shape" v:layerMember="0" transform="translate(62.1557,-659)">
			<title>Dynamic connector.55</title>
			<path d="M0 834.8 L20.18 834.8" class="st5"/>
		</g>
		<g id="shape8-32" v:mID="8" v:groupContext="shape" v:layerMember="0" transform="translate(18.5064,-800.787)">
			<title>Dynamic connector.123</title>
			<path d="M0 841.89 L4.92 841.89 A4.92002 4.92002 0 0 1 9.84 846.81 L9.84 885.72 A5.66929 5.66929 -180 0 0 15.51 891.39
						 L21.36 891.39" class="st5"/>
		</g>
		<g id="shape9-37" v:mID="9" v:groupContext="shape" v:layerMember="1" transform="translate(42.5197,-773.057)">
			<title>Process.124</title>
			<desc>documentation</desc>
			<v:custProps>
				<v:cp v:nameU="Cost" v:lbl="Cost" v:type="7" v:format="@" v:langID="1033"/>
				<v:cp v:nameU="Duration" v:lbl="Duration" v:type="2" v:langID="1033"/>
				<v:cp v:nameU="Resources" v:lbl="Resources" v:langID="1033"/>
			</v:custProps>
			<v:userDefs>
				<v:ud v:nameU="visVersion" v:val="VT0(11):26"/>
			</v:userDefs>
			<v:textBlock v:margins="rect(2,2,2,2)" v:tabSpace="42.5197"/>
			<v:textRect cx="32.628" cy="835.364" width="65.26" height="13.0512"/>
			<rect x="0" y="828.839" width="65.256" height="13.0512" rx="2.83465" ry="2.83465" class="st1"/>
			<text x="6.38" y="837.76" class="st4" v:langID="2057"><v:paragraph v:horizAlign="1"/><v:tabList/>documentation</text>		</g>
		<g id="shape10-40" v:mID="10" v:groupContext="shape" v:layerMember="0" transform="translate(18.5064,-800.787)">
			<title>Dynamic connector.127</title>
			<path d="M0 841.89 L4.92 841.89 A4.92002 4.92002 0 0 1 9.84 846.81 L9.84 857.43 A5.66929 5.66929 -180 0 0 15.51 863.09
						 L21.25 863.09" class="st5"/>
		</g>
		<g id="shape12-45" v:mID="12" v:groupContext="shape" v:layerMember="0;1" transform="translate(7.08661,-795.078)">
			<title>On-page reference.130</title>
			<v:userDefs>
				<v:ud v:nameU="visVersion" v:val="VT0(11):26"/>
			</v:userDefs>
			<v:textBlock v:margins="rect(2,2,2,2)" v:tabSpace="42.5197"/>
			<path d="M0 836.18 A5.7099 5.7099 0 0 1 11.42 836.18 A5.7099 5.7099 0 1 1 -0 836.18 Z" class="st1"/>
		</g>
		<g id="shape13-47" v:mID="13" v:groupContext="shape" v:layerMember="0;1" transform="translate(85.0985,-660.377)">
			<title>On-page reference.132</title>
			<v:userDefs>
				<v:ud v:nameU="visVersion" v:val="VT0(11):26"/>
			</v:userDefs>
			<v:textBlock v:margins="rect(2,2,2,2)" v:tabSpace="42.5197"/>
			<path d="M0 836.18 A5.7099 5.7099 0 0 1 11.42 836.18 A5.7099 5.7099 0 1 1 -0 836.18 Z" class="st1"/>
		</g>
		<g id="shape14-49" v:mID="14" v:groupContext="shape" transform="translate(-1.77671,-817.795)">
			<title>Sheet.14</title>
			<desc>function</desc>
			<v:textBlock v:margins="rect(2,2,2,2)" v:tabSpace="42.5197"/>
			<v:textRect cx="32.7781" cy="834.984" width="65.56" height="13.8125"/>
			<rect x="0" y="828.077" width="65.5562" height="13.8125" class="st7"/>
			<text x="9.11" y="838.58" class="st8" v:langID="2057"><v:paragraph v:horizAlign="1"/><v:tabList/>function</text>		</g>
		<g id="shape15-52" v:mID="15" v:groupContext="shape" v:layerMember="1" transform="translate(85.7924,-687.907)">
			<title>Process.5</title>
			<desc>code</desc>
			<v:custProps>
				<v:cp v:nameU="Cost" v:lbl="Cost" v:type="7" v:format="@" v:langID="1033"/>
				<v:cp v:nameU="Duration" v:lbl="Duration" v:type="2" v:langID="1033"/>
				<v:cp v:nameU="Resources" v:lbl="Resources" v:langID="1033"/>
			</v:custProps>
			<v:userDefs>
				<v:ud v:nameU="visVersion" v:val="VT0(11):26"/>
			</v:userDefs>
			<v:textBlock v:margins="rect(2,2,2,2)" v:tabSpace="42.5197"/>
			<v:textRect cx="16.314" cy="835.364" width="32.63" height="13.0512"/>
			<rect x="0" y="828.839" width="32.628" height="13.0512" rx="2.83465" ry="2.83465" class="st1"/>
			<text x="7.65" y="837.76" class="st4" v:langID="2057"><v:paragraph v:horizAlign="1"/><v:tabList/>code</text>		</g>
		<g id="shape16-55" v:mID="16" v:groupContext="shape" v:layerMember="0" transform="translate(85.7924,-694.433)">
			<title>Dynamic connector.8</title>
			<path d="M0 841.89 L-51.78 841.89 A5.66929 5.66929 -180 0 0 -57.45 847.56 L-57.45 864.57 A5.66929 5.66929 -180 0 0 -51.78
						 870.24 L-45.97 870.24" class="st5"/>
		</g>
		<g id="shape20-60" v:mID="20" v:groupContext="shape" v:layerMember="0" transform="translate(107.776,-779.583)">
			<title>Dynamic connector.167</title>
			<path d="M0 841.89 L14.17 841.89 A5.66929 5.66929 0 0 1 19.84 847.56 L19.84 850.42 A5.66929 5.66929 0 0 1 14.17 856.09
						 L-73.7 856.09 A5.66929 5.66929 -180 0 0 -79.37 861.76 L-79.37 864.51 A5.66929 5.66929 -180 0 0 -73.7 870.18
						 L-67.91 870.18" class="st5"/>
		</g>
		<g id="shape21-65" v:mID="21" v:groupContext="shape" v:layerMember="1" transform="translate(92.2819,-715.856)">
			<title>Process.9</title>
			<desc>‘(‘</desc>
			<v:custProps>
				<v:cp v:nameU="Cost" v:lbl="Cost" v:type="7" v:format="@" v:langID="1033"/>
				<v:cp v:nameU="Duration" v:lbl="Duration" v:type="2" v:langID="1033"/>
				<v:cp v:nameU="Resources" v:lbl="Resources" v:langID="1033"/>
			</v:custProps>
			<v:userDefs>
				<v:ud v:nameU="visVersion" v:val="VT0(11):26"/>
			</v:userDefs>
			<v:textBlock v:margins="rect(2,2,2,2)" v:tabSpace="42.5197"/>
			<v:textRect cx="9.7884" cy="835.364" width="19.58" height="13.0512"/>
			<rect x="0" y="828.839" width="19.5768" height="13.0512" rx="2.83465" ry="2.83465" class="st1"/>
			<text x="6.69" y="837.76" class="st2" v:langID="1033"><v:paragraph v:horizAlign="1"/><v:tabList/>‘(‘</text>		</g>
		<g id="shape22-68" v:mID="22" v:groupContext="shape" v:layerMember="1" transform="translate(169.468,-715.856)">
			<title>Process.12</title>
			<desc>‘)’</desc>
			<v:custProps>
				<v:cp v:nameU="Cost" v:lbl="Cost" v:type="7" v:format="@" v:langID="1033"/>
				<v:cp v:nameU="Duration" v:lbl="Duration" v:type="2" v:langID="1033"/>
				<v:cp v:nameU="Resources" v:lbl="Resources" v:langID="1033"/>
			</v:custProps>
			<v:userDefs>
				<v:ud v:nameU="visVersion" v:val="VT0(11):26"/>
			</v:userDefs>
			<v:textBlock v:margins="rect(2,2,2,2)" v:tabSpace="42.5197"/>
			<v:textRect cx="9.7884" cy="835.364" width="19.58" height="13.0512"/>
			<rect x="0" y="828.839" width="19.5768" height="13.0512" rx="2.83465" ry="2.83465" class="st1"/>
			<text x="6.69" y="837.76" class="st2" v:langID="1033"><v:paragraph v:horizAlign="1"/><v:tabList/>‘)’</text>		</g>
		<g id="shape23-71" v:mID="23" v:groupContext="shape" v:layerMember="0" transform="translate(189.044,-715.295)">
			<title>Dynamic connector.35</title>
			<path d="M0 834.8 L16.56 834.8" class="st5"/>
		</g>
		<g id="shape24-76" v:mID="24" v:groupContext="shape" v:layerMember="1" transform="translate(124.043,-715.856)">
			<title>Process.53</title>
			<desc>params</desc>
			<v:custProps>
				<v:cp v:nameU="Cost" v:lbl="Cost" v:type="7" v:format="@" v:langID="1033"/>
				<v:cp v:nameU="Duration" v:lbl="Duration" v:type="2" v:langID="1033"/>
				<v:cp v:nameU="Resources" v:lbl="Resources" v:langID="1033"/>
			</v:custProps>
			<v:userDefs>
				<v:ud v:nameU="visVersion" v:val="VT0(11):26"/>
			</v:userDefs>
			<v:textBlock v:margins="rect(2,2,2,2)" v:tabSpace="42.5197"/>
			<v:textRect cx="18.9857" cy="835.364" width="37.98" height="13.0512"/>
			<rect x="0" y="828.839" width="37.9715" height="13.0512" rx="2.83465" ry="2.83465" class="st1"/>
			<text x="5.64" y="837.76" class="st4" v:langID="1033"><v:paragraph v:horizAlign="1"/><v:tabList/>params</text>		</g>
		<g id="shape25-79" v:mID="25" v:groupContext="shape" v:layerMember="0" transform="translate(110.864,-715.295)">
			<title>Dynamic connector.7</title>
			<path d="M0.99 834.8 L10.42 834.8" class="st5"/>
		</g>
		<g id="shape26-84" v:mID="26" v:groupContext="shape" v:layerMember="0" transform="translate(158.654,-715.295)">
			<title>Dynamic connector.41</title>
			<path d="M3.36 834.8 L8.05 834.8" class="st5"/>
		</g>
		<g id="shape27-89" v:mID="27" v:groupContext="shape" v:layerMember="1" transform="translate(107.3,-744.764)">
			<title>Process.54</title>
			<desc>return-type</desc>
			<v:custProps>
				<v:cp v:nameU="Cost" v:lbl="Cost" v:type="7" v:format="@" v:langID="1033"/>
				<v:cp v:nameU="Duration" v:lbl="Duration" v:type="2" v:langID="1033"/>
				<v:cp v:nameU="Resources" v:lbl="Resources" v:langID="1033"/>
			</v:custProps>
			<v:userDefs>
				<v:ud v:nameU="visVersion" v:val="VT0(11):26"/>
			</v:userDefs>
			<v:textBlock v:margins="rect(2,2,2,2)" v:tabSpace="42.5197"/>
			<v:textRect cx="29.9722" cy="835.364" width="59.95" height="13.0512"/>
			<rect x="0" y="828.839" width="59.9444" height="13.0512" rx="2.83465" ry="2.83465" class="st1"/>
			<text x="10.63" y="837.76" class="st4" v:langID="1033"><v:paragraph v:horizAlign="1"/><v:tabList/>return-type</text>		</g>
		<g id="shape28-92" v:mID="28" v:groupContext="shape" v:layerMember="0" transform="translate(167.244,-751.289)">
			<title>Dynamic connector.82</title>
			<path d="M0 841.89 L16.66 841.89 A5.66929 5.66929 0 0 1 22.33 847.56 L22.33 850.95 A5.66929 5.66929 0 0 1 16.66 856.62
						 L-132.87 856.62 A5.66929 5.66929 -180 0 0 -138.54 862.29 L-138.54 865.13 A5.66929 5.66929 -180 0 0 -132.87
						 870.8 L-126.16 870.8" class="st5"/>
		</g>
		<g id="shape29-97" v:mID="29" v:groupContext="shape" v:layerMember="0" transform="translate(87.7973,-744.203)">
			<title>Dynamic connector.25</title>
			<path d="M0 834.8 L16.74 834.8" class="st5"/>
		</g>
	</g>
</svg>
