<?xml version="1.0" encoding="UTF-8" standalone="no"?>
<!DOCTYPE svg PUBLIC "-//W3C//DTD SVG 1.0//EN" "http://www.w3.org/TR/2001/REC-SVG-20010904/DTD/svg10.dtd">
<!-- Generated by Microsoft Visio 11.0, SVG Export, v1.0 package.svg Page-1 -->
<svg xmlns="http://www.w3.org/2000/svg" xmlns:v="http://schemas.microsoft.com/visio/2003/SVGExtensions/" width="1.83559in"
		height="4.00372in" viewBox="0 0 132.162 288.268" xml:space="preserve" color-interpolation-filters="sRGB" class="st5">
	<v:documentProperties v:langID="1033" v:metric="true" v:viewMarkup="false"/>

	<style type="text/css">
	<![CDATA[
		.st1 {fill:#e8eef7;stroke:#000000;stroke-linecap:round;stroke-linejoin:round;stroke-width:0.24}
		.st2 {fill:#000000;font-family:Arial;font-size:0.666664em}
		.st3 {marker-end:url(#mrkr2-12);stroke:#4677bf;stroke-linecap:round;stroke-linejoin:round;stroke-width:0.24}
		.st4 {fill:#4677bf;fill-opacity:1;stroke:#4677bf;stroke-opacity:1;stroke-width:0.08695652173913}
		.st5 {fill:none;fill-rule:evenodd;font-size:12;overflow:visible;stroke-linecap:square;stroke-miterlimit:3}
	]]>
	</style>

	<defs id="Markers">
		<g id="lend2">
			<path d="M 1 1 L 0 0 L 1 -1 L 1 1 " style="stroke:none"/>
		</g>
		<marker id="mrkr2-12" class="st4" v:arrowType="2" v:arrowSize="2" v:setback="11.5" refX="-11.5" orient="auto"
				markerUnits="strokeWidth">
			<use xlink:href="#lend2" transform="scale(-11.5,-11.5) "/>
		</marker>
	</defs>
	<g v:mID="0" v:index="1" v:groupContext="foregroundPage">
		<title>Page-1</title>
		<v:pageProperties v:drawingScale="0.0393701" v:pageScale="0.0393701" v:drawingUnits="24" v:shadowOffsetX="8.50394"
				v:shadowOffsetY="-8.50394"/>
		<v:layer v:name="Flowchart" v:index="0"/>
		<v:layer v:name="Connector" v:index="1"/>
		<g id="shape1-1" v:mID="1" v:groupContext="shape" v:layerMember="0" transform="translate(40.0165,-212.192)">
			<title>Process.1</title>
			<desc>import</desc>
			<v:custProps>
				<v:cp v:nameU="Cost" v:lbl="Cost" v:type="7" v:format="@" v:langID="1033"/>
				<v:cp v:nameU="Duration" v:lbl="Duration" v:type="2" v:langID="1033"/>
				<v:cp v:nameU="Resources" v:lbl="Resources" v:langID="1033"/>
			</v:custProps>
			<v:userDefs>
				<v:ud v:nameU="visVersion" v:val="VT0(11):26"/>
			</v:userDefs>
			<v:textBlock v:margins="rect(2,2,2,2)" v:tabSpace="42.5197"/>
			<v:textRect cx="26.9193" cy="280.49" width="53.84" height="15.5561"/>
			<rect x="0" y="272.712" width="53.8386" height="15.5561" rx="2.83465" ry="2.83465" class="st1"/>
			<text x="15.81" y="282.89" class="st2" v:langID="2057"><v:paragraph v:horizAlign="1"/><v:tabList/>import</text>		</g>
		<g id="shape3-4" v:mID="3" v:groupContext="shape" v:layerMember="0" transform="translate(47.4907,-56.6308)">
			<title>Process.97</title>
			<desc>rule</desc>
			<v:custProps>
				<v:cp v:nameU="Cost" v:lbl="Cost" v:type="7" v:format="@" v:langID="1033"/>
				<v:cp v:nameU="Duration" v:lbl="Duration" v:type="2" v:langID="1033"/>
				<v:cp v:nameU="Resources" v:lbl="Resources" v:langID="1033"/>
			</v:custProps>
			<v:userDefs>
				<v:ud v:nameU="visVersion" v:val="VT0(11):26"/>
			</v:userDefs>
			<v:textBlock v:margins="rect(2,2,2,2)" v:tabSpace="42.5197"/>
			<v:textRect cx="19.4451" cy="280.49" width="38.9" height="15.5561"/>
			<rect x="0" y="272.712" width="38.8902" height="15.5561" rx="2.83465" ry="2.83465" class="st1"/>
			<text x="12.78" y="282.89" class="st2" v:langID="2057"><v:paragraph v:horizAlign="1"/><v:tabList/>rule</text>		</g>
		<g id="shape4-7" v:mID="4" v:groupContext="shape" v:layerMember="1" transform="translate(86.3809,-57.3222)">
			<title>Dynamic connector.102</title>
			<path d="M0 281.18 L3.54 281.18 A3.54331 3.54331 0 0 1 7.09 284.72 L7.09 290.38 A5.66929 5.66929 0 0 1 1.42 296.05 L-38.65
						 296.05 A5.66929 5.66929 0 0 1 -42.66 294.38 A2.3622 2.3622 -180 0 0 -46.53 295.16 A1.41732 1.41732 0 0 1
						 -47.84 296.05 L-47.84 296.05 A1.68027 1.68027 0 0 1 -49.52 294.37 L-49.52 286.5 A5.31496 5.31496 0 0 1 -44.21
						 281.18 L-41.65 281.18" class="st3"/>
		</g>
		<g id="shape5-13" v:mID="5" v:groupContext="shape" v:layerMember="0" transform="translate(43.6777,-118.855)">
			<title>Process.103</title>
			<desc>function</desc>
			<v:custProps>
				<v:cp v:nameU="Cost" v:lbl="Cost" v:type="7" v:format="@" v:langID="1033"/>
				<v:cp v:nameU="Duration" v:lbl="Duration" v:type="2" v:langID="1033"/>
				<v:cp v:nameU="Resources" v:lbl="Resources" v:langID="1033"/>
			</v:custProps>
			<v:userDefs>
				<v:ud v:nameU="visVersion" v:val="VT0(11):26"/>
			</v:userDefs>
			<v:textBlock v:margins="rect(2,2,2,2)" v:tabSpace="42.5197"/>
			<v:textRect cx="23.2582" cy="280.49" width="46.52" height="15.5561"/>
			<rect x="0" y="272.712" width="46.5163" height="15.5561" rx="2.83465" ry="2.83465" class="st1"/>
			<text x="9.24" y="282.89" class="st2" v:langID="2057"><v:paragraph v:horizAlign="1"/><v:tabList/>function</text>		</g>
		<g id="shape6-16" v:mID="6" v:groupContext="shape" v:layerMember="0" transform="translate(43.0776,-149.967)">
			<title>Process.104</title>
			<desc>global</desc>
			<v:custProps>
				<v:cp v:nameU="Cost" v:lbl="Cost" v:type="7" v:format="@" v:langID="1033"/>
				<v:cp v:nameU="Duration" v:lbl="Duration" v:type="2" v:langID="1033"/>
				<v:cp v:nameU="Resources" v:lbl="Resources" v:langID="1033"/>
			</v:custProps>
			<v:userDefs>
				<v:ud v:nameU="visVersion" v:val="VT0(11):26"/>
			</v:userDefs>
			<v:textBlock v:margins="rect(2,2,2,2)" v:tabSpace="42.5197"/>
			<v:textRect cx="23.8582" cy="280.49" width="47.72" height="15.5561"/>
			<rect x="0" y="272.712" width="47.7165" height="15.5561" rx="2.83465" ry="2.83465" class="st1"/>
			<text x="13.17" y="282.89" class="st2" v:langID="2057"><v:paragraph v:horizAlign="1"/><v:tabList/>global</text>		</g>
		<g id="shape7-19" v:mID="7" v:groupContext="shape" v:layerMember="1" transform="translate(90.7941,-150.659)">
			<title>Dynamic connector.105</title>
			<path d="M0 281.18 L5.31 281.18 A5.31496 5.31496 -180 0 0 10.63 275.87 L10.63 270.6 A5.66929 5.66929 -180 0 0 4.96 264.93
						 L-52.68 264.93 A5.66929 5.66929 -180 0 0 -58.35 270.6 L-58.35 275.87 A5.31496 5.31496 -180 0 0 -53.03 281.18
						 L-50.48 281.18" class="st3"/>
		</g>
		<g id="shape8-24" v:mID="8" v:groupContext="shape" v:layerMember="1" transform="translate(90.194,-119.547)">
			<title>Dynamic connector.39</title>
			<path d="M0 281.18 L3.54 281.18 A3.54331 3.54331 0 0 1 7.09 284.72 L7.09 290.38 A5.66929 5.66929 0 0 1 1.42 296.05 L-47.64
						 296.05 A5.66929 5.66929 0 0 1 -51.66 294.38 A2.3622 2.3622 -180 0 0 -55.7 296.05 L-55.7 296.05 A1.45086
						 1.45086 0 0 1 -57.15 294.59 L-57.15 286.5 A5.31496 5.31496 0 0 1 -51.83 281.18 L-49.28 281.18" class="st3"/>
		</g>
		<g id="shape14-29" v:mID="14" v:groupContext="shape" v:layerMember="1;0" transform="translate(3.05371,-274.416)">
			<title>On-page reference.112</title>
			<v:userDefs>
				<v:ud v:nameU="visVersion" v:val="VT0(11):26"/>
			</v:userDefs>
			<v:textBlock v:margins="rect(2,2,2,2)" v:tabSpace="42.5197"/>
			<path d="M0 281.46 A6.80579 6.80579 0 1 1 13.61 281.46 A6.80579 6.80579 0 0 1 0 281.46 Z" class="st1"/>
		</g>
		<g id="shape15-31" v:mID="15" v:groupContext="shape" v:layerMember="1" transform="translate(16.6653,-281.222)">
			<title>Dynamic connector.113</title>
			<path d="M0 288.27 L1.67 288.27 A1.66736 1.66736 0 0 1 3.33 289.93 L3.33 312.74 A5.66929 5.66929 -180 0 0 9 318.41 L20
						 318.41" class="st3"/>
		</g>
		<g id="shape16-36" v:mID="16" v:groupContext="shape" v:layerMember="1;0" transform="translate(110.974,-0.24)">
			<title>On-page reference.114</title>
			<v:userDefs>
				<v:ud v:nameU="visVersion" v:val="VT0(11):26"/>
			</v:userDefs>
			<v:textBlock v:margins="rect(2,2,2,2)" v:tabSpace="42.5197"/>
			<path d="M0 281.46 A6.80579 6.80579 0 1 1 13.61 281.46 A6.80579 6.80579 0 0 1 0 281.46 Z" class="st1"/>
		</g>
		<g id="shape36-38" v:mID="36" v:groupContext="shape" v:layerMember="0" transform="translate(39.3789,-181.079)">
			<title>Process.175</title>
			<desc>expander</desc>
			<v:custProps>
				<v:cp v:nameU="Cost" v:lbl="Cost" v:type="7" v:format="@" v:langID="1033"/>
				<v:cp v:nameU="Duration" v:lbl="Duration" v:type="2" v:langID="1033"/>
				<v:cp v:nameU="Resources" v:lbl="Resources" v:langID="1033"/>
			</v:custProps>
			<v:userDefs>
				<v:ud v:nameU="visVersion" v:val="VT0(11):26"/>
			</v:userDefs>
			<v:textBlock v:margins="rect(2,2,2,2)" v:tabSpace="42.5197"/>
			<v:textRect cx="27.5569" cy="280.49" width="55.12" height="15.5561"/>
			<rect x="0" y="272.712" width="55.1139" height="15.5561" rx="2.83465" ry="2.83465" class="st1"/>
			<text x="10.87" y="282.89" class="st2" v:langID="1033"><v:paragraph v:horizAlign="1"/><v:tabList/>expander</text>		</g>
		<g id="shape58-41" v:mID="58" v:groupContext="shape" v:layerMember="0" transform="translate(49.1314,-25.5186)">
			<title>Process.17</title>
			<desc>EOF</desc>
			<v:custProps>
				<v:cp v:nameU="Cost" v:lbl="Cost" v:type="7" v:format="@" v:langID="1033"/>
				<v:cp v:nameU="Duration" v:lbl="Duration" v:type="2" v:langID="1033"/>
				<v:cp v:nameU="Resources" v:lbl="Resources" v:langID="1033"/>
			</v:custProps>
			<v:userDefs>
				<v:ud v:nameU="visVersion" v:val="VT0(11):26"/>
			</v:userDefs>
			<v:textBlock v:margins="rect(2,2,2,2)" v:tabSpace="42.5197"/>
			<v:textRect cx="17.8044" cy="280.49" width="35.61" height="15.5561"/>
			<rect x="0" y="272.712" width="35.6089" height="15.5561" rx="2.83465" ry="2.83465" class="st1"/>
			<text x="9.58" y="282.89" class="st2" v:langID="1033"><v:paragraph v:horizAlign="1"/><v:tabList/>EOF</text>		</g>
		<g id="shape59-44" v:mID="59" v:groupContext="shape" v:layerMember="1" transform="translate(84.7403,-33.2967)">
			<title>Dynamic connector.78</title>
			<path d="M0 288.27 L5.31 288.27 A5.31496 5.31496 0 0 1 10.63 293.58 L10.63 308.85 A5.66929 5.66929 -180 0 0 16.3 314.52
						 L23.47 314.52" class="st3"/>
		</g>
		<g id="shape60-49" v:mID="60" v:groupContext="shape" v:layerMember="1" transform="translate(94.4457,-251.082)">
			<title>Dynamic connector.11</title>
			<path d="M0 288.27 L3.25 288.27 A3.24802 3.24802 0 0 1 6.5 291.52 L6.5 328.58 A5.66929 5.66929 0 0 1 0.83 334.24 L-60.03
						 334.24 A5.66929 5.66929 -180 0 0 -65.7 339.91 L-65.7 345.18 A5.31496 5.31496 -180 0 0 -60.38 350.49 L-57.83
						 350.49" class="st3"/>
		</g>
		<g id="shape61-54" v:mID="61" v:groupContext="shape" v:layerMember="0" transform="translate(39.4259,-243.304)">
			<title>Process.23</title>
			<desc>package</desc>
			<v:custProps>
				<v:cp v:nameU="Cost" v:lbl="Cost" v:type="7" v:format="@" v:langID="1033"/>
				<v:cp v:nameU="Duration" v:lbl="Duration" v:type="2" v:langID="1033"/>
				<v:cp v:nameU="Resources" v:lbl="Resources" v:langID="1033"/>
			</v:custProps>
			<v:userDefs>
				<v:ud v:nameU="visVersion" v:val="VT0(11):26"/>
			</v:userDefs>
			<v:textBlock v:margins="rect(2,2,2,2)" v:tabSpace="42.5197"/>
			<v:textRect cx="27.5099" cy="280.49" width="55.02" height="15.5561"/>
			<rect x="0" y="272.712" width="55.0198" height="15.5561" rx="2.83465" ry="2.83465" class="st1"/>
			<text x="12.38" y="282.89" class="st2" v:langID="2057"><v:paragraph v:horizAlign="1"/><v:tabList/>package</text>		</g>
		<g id="shape62-57" v:mID="62" v:groupContext="shape" v:layerMember="1" transform="translate(86.3809,-64.4089)">
			<title>Dynamic connector.18</title>
			<path d="M0 288.27 L3.54 288.27 A3.54331 3.54331 0 0 1 7.09 291.81 L7.09 297.46 A5.66929 5.66929 0 0 1 1.42 303.13 L-38.65
						 303.13 A5.66929 5.66929 0 0 1 -42.66 301.46 A2.3622 2.3622 -180 0 0 -46.7 303.13 L-46.7 303.13 A1.1811 1.1811
						 -180 0 0 -47.88 304.31 L-47.88 314.06 A5.31496 5.31496 -180 0 0 -42.56 319.38 L-40.01 319.38" class="st3"/>
		</g>
		<g id="shape63-62" v:mID="63" v:groupContext="shape" v:layerMember="1" transform="translate(90.7941,-157.745)">
			<title>Dynamic connector.222</title>
			<path d="M0 288.27 L3.54 288.27 A3.54331 3.54331 0 0 1 7.09 291.81 L7.09 297.46 A5.66929 5.66929 0 0 1 1.42 303.13 L-52.08
						 303.13 A5.66929 5.66929 -180 0 0 -57.75 308.8 L-57.75 314.06 A5.31496 5.31496 -180 0 0 -52.43 319.38 L-49.88
						 319.38" class="st3"/>
		</g>
		<g id="shape64-67" v:mID="64" v:groupContext="shape" v:layerMember="1" transform="translate(90.194,-126.633)">
			<title>Dynamic connector.223</title>
			<path d="M0 288.27 L3.41 288.27 A3.40843 3.40843 0 0 1 6.82 291.68 L6.82 297.46 A5.66929 5.66929 0 0 1 1.15 303.13 L-47.66
						 303.13 A5.66929 5.66929 -180 0 0 -53.33 308.8 L-53.33 314.06 A5.31496 5.31496 -180 0 0 -48.02 319.38 L-45.46
						 319.38" class="st3"/>
		</g>
		<g id="shape65-72" v:mID="65" v:groupContext="shape" v:layerMember="0" transform="translate(47.4907,-87.743)">
			<title>Process.224</title>
			<desc>query</desc>
			<v:custProps>
				<v:cp v:nameU="Cost" v:lbl="Cost" v:type="7" v:format="@" v:langID="1033"/>
				<v:cp v:nameU="Duration" v:lbl="Duration" v:type="2" v:langID="1033"/>
				<v:cp v:nameU="Resources" v:lbl="Resources" v:langID="1033"/>
			</v:custProps>
			<v:userDefs>
				<v:ud v:nameU="visVersion" v:val="VT0(11):26"/>
			</v:userDefs>
			<v:textBlock v:margins="rect(2,2,2,2)" v:tabSpace="42.5197"/>
			<v:textRect cx="19.4451" cy="280.49" width="38.9" height="15.5561"/>
			<rect x="0" y="272.712" width="38.8902" height="15.5561" rx="2.83465" ry="2.83465" class="st1"/>
			<text x="9.44" y="282.89" class="st2" v:langID="2057"><v:paragraph v:horizAlign="1"/><v:tabList/>query</text>		</g>
		<g id="shape66-75" v:mID="66" v:groupContext="shape" v:layerMember="1" transform="translate(86.3809,-88.4344)">
			<title>Dynamic connector.225</title>
			<path d="M0 281.18 L12.05 281.18 A5.66929 5.66929 -180 0 0 17.72 275.51 L17.72 263.62 A2.22733 2.22733 -180 0 0 15.49
						 261.39 L15.28 261.39 A2.83465 2.83465 0 0 1 12.88 260.06 A2.49708 2.49708 -180 0 0 8.97 259.66 A5.66929
						 5.66929 0 0 1 4.89 261.39 L-43.85 261.39 A5.66929 5.66929 -180 0 0 -49.52 267.06 L-49.52 275.87 A5.31496
						 5.31496 -180 0 0 -44.21 281.18 L-41.65 281.18" class="st3"/>
		</g>
		<g id="shape67-80" v:mID="67" v:groupContext="shape" v:layerMember="1" transform="translate(94.4457,-251.082)">
			<title>Dynamic connector.30</title>
			<path d="M0 288.27 L3.54 288.27 A3.54331 3.54331 0 0 1 7.09 291.81 L7.09 297.46 A5.66929 5.66929 0 0 1 1.42 303.13 L-59.39
						 303.13 A5.66929 5.66929 -180 0 0 -65.06 308.8 L-65.06 314.06 A5.31496 5.31496 -180 0 0 -59.74 319.38 L-57.19
						 319.38" class="st3"/>
		</g>
		<g id="shape79-85" v:mID="79" v:groupContext="shape" v:layerMember="1" transform="translate(94.4457,-251.082)">
			<title>Dynamic connector.27</title>
			<path d="M0 288.27 L5.31 288.27 A5.31496 5.31496 0 0 1 10.63 293.58 L10.63 392.18 A5.66929 5.66929 0 0 1 4.96 397.85
						 L-56.33 397.85 A5.66929 5.66929 0 0 1 -62 392.18 L-62 386.92 A5.31496 5.31496 0 0 1 -56.68 381.6 L-54.13
						 381.6" class="st3"/>
		</g>
		<g id="shape80-90" v:mID="80" v:groupContext="shape" v:layerMember="1" transform="translate(94.4457,-251.082)">
			<title>Dynamic connector.28</title>
			<path d="M0 288.27 L12.05 288.27 A5.66929 5.66929 0 0 1 17.72 293.94 L17.72 390.8 A5.66929 5.66929 0 0 1 12.05 396.47
						 L-55.73 396.47 A5.66929 5.66929 -180 0 0 -61.4 402.14 L-61.4 407.4 A5.31496 5.31496 -180 0 0 -56.08 412.72
						 L-53.53 412.72" class="st3"/>
		</g>
		<g id="shape81-95" v:mID="81" v:groupContext="shape" v:layerMember="1" transform="translate(94.4457,-251.082)">
			<title>Dynamic connector.33</title>
			<path d="M0 288.27 L12.05 288.27 A5.66929 5.66929 0 0 1 17.72 293.94 L17.72 454.07 A4.62294 4.62294 0 0 1 13.09 458.69
						 L11.8 458.69 A5.66929 5.66929 0 0 1 7.78 457.03 A2.3622 2.3622 -180 0 0 4.44 457.03 A5.66929 5.66929 0 0
						 1 0.42 458.69 L-51.92 458.69 A5.66929 5.66929 -180 0 0 -57.58 464.36 L-57.58 469.63 A5.31496 5.31496 -180
						 0 0 -52.27 474.94 L-49.71 474.94" class="st3"/>
		</g>
		<g id="shape82-100" v:mID="82" v:groupContext="shape" v:layerMember="1" transform="translate(94.4457,-251.082)">
			<title>Dynamic connector.38</title>
			<path d="M0 288.27 L12.05 288.27 A5.66929 5.66929 0 0 1 17.72 293.94 L17.72 454.07 A4.62294 4.62294 0 0 1 13.09 458.69
						 L11.8 458.69 A5.66929 5.66929 0 0 1 7.78 457.03 A2.3622 2.3622 -180 0 0 4.44 457.03 A5.66929 5.66929 0 0
						 1 0.42 458.69 L-51.92 458.69 A5.66929 5.66929 -180 0 0 -57.58 464.36 L-57.58 469.63 A5.31496 5.31496 -180
						 0 0 -52.27 474.94 L-49.71 474.94" class="st3"/>
		</g>
		<g id="shape83-105" v:mID="83" v:groupContext="shape" v:layerMember="1" transform="translate(94.4928,-181.771)">
			<title>Dynamic connector.83</title>
			<path d="M0 281.18 L1.77 281.18 A1.77165 1.77165 0 0 1 3.54 282.95 L3.54 286.83 A5.66929 5.66929 0 0 1 -2.13 292.5 L-67.17
						 292.5 A5.66067 5.66067 0 0 1 -72.83 286.84 L-72.83 286.84 A5.66067 5.66067 0 0 1 -67.17 281.18 L-57.87 281.18"
					class="st3"/>
		</g>
		<g id="shape84-110" v:mID="84" v:groupContext="shape" v:layerMember="1" transform="translate(93.8551,-219.97)">
			<title>Dynamic connector.88</title>
			<path d="M0 288.27 L3.54 288.27 A3.54331 3.54331 0 0 1 7.09 291.81 L7.09 297.46 A5.66929 5.66929 0 0 1 1.42 303.13 L-59.44
						 303.13 A5.66929 5.66929 -180 0 0 -65.11 308.8 L-65.11 314.06 A5.31496 5.31496 -180 0 0 -59.79 319.38 L-57.24
						 319.38" class="st3"/>
		</g>
		<g id="shape85-115" v:mID="85" v:groupContext="shape" v:layerMember="1" transform="translate(94.4928,-188.858)">
			<title>Dynamic connector.106</title>
			<path d="M0 288.27 L3.47 288.27 A3.46561 3.46561 0 0 1 6.93 291.73 L6.93 297.46 A5.66929 5.66929 0 0 1 1.26 303.13 L-56.38
						 303.13 A5.66929 5.66929 -180 0 0 -62.05 308.8 L-62.05 314.06 A5.31496 5.31496 -180 0 0 -56.73 319.38 L-54.18
						 319.38" class="st3"/>
		</g>
		<g id="shape86-120" v:mID="86" v:groupContext="shape" v:layerMember="1" transform="translate(86.3809,-95.521)">
			<title>Dynamic connector.115</title>
			<path d="M0 288.27 L3.54 288.27 A3.54331 3.54331 0 0 1 7.09 291.81 L7.09 297.46 A5.66929 5.66929 0 0 1 1.42 303.13 L-43.85
						 303.13 A5.66929 5.66929 -180 0 0 -49.52 308.8 L-49.52 314.06 A5.31496 5.31496 -180 0 0 -44.21 319.38 L-41.65
						 319.38" class="st3"/>
		</g>
		<g id="shape87-125" v:mID="87" v:groupContext="shape" v:layerMember="1" transform="translate(86.3809,-95.521)">
			<title>Dynamic connector.116</title>
			<path d="M0 288.27 L8.5 288.27 A5.66929 5.66929 0 0 1 14.17 293.94 L14.17 328.34 A2.3622 2.3622 0 0 1 11.81 330.7 L11.44
						 330.7 A2.83465 2.83465 0 0 1 9.07 329.41 A2.3622 2.3622 -180 0 0 5.41 329.03 A5.66929 5.66929 0 0 1 1.4
						 330.7 L-38.67 330.7 A5.66929 5.66929 -180 0 0 -44.34 336.37 L-44.34 346.95 A3.54331 3.54331 -180 0 0 -40.79
						 350.49 L-40.01 350.49" class="st3"/>
		</g>
	</g>
</svg>
