<?xml version="1.0" encoding="UTF-8" standalone="no"?>
<!DOCTYPE svg PUBLIC "-//W3C//DTD SVG 1.0//EN" "http://www.w3.org/TR/2001/REC-SVG-20010904/DTD/svg10.dtd">
<!-- Generated by Microsoft Visio 11.0, SVG Export, v1.0 single_line_comment.svg Page-1 -->
<svg xmlns="http://www.w3.org/2000/svg" xmlns:v="http://schemas.microsoft.com/visio/2003/SVGExtensions/" width="2.25556in"
		height="0.938983in" viewBox="0 0 162.4 67.6068" xml:space="preserve" color-interpolation-filters="sRGB" class="st7">
	<v:documentProperties v:langID="1033" v:metric="true" v:viewMarkup="false"/>

	<style type="text/css">
	<![CDATA[
		.st1 {fill:#e8eef7;stroke:#000000;stroke-linecap:round;stroke-linejoin:round;stroke-width:0.24}
		.st2 {fill:#000000;font-family:Arial;font-size:0.666664em}
		.st3 {marker-end:url(#mrkr2-14);stroke:#4677bf;stroke-linecap:round;stroke-linejoin:round;stroke-width:0.24}
		.st4 {fill:#4677bf;fill-opacity:1;stroke:#4677bf;stroke-opacity:1;stroke-width:0.08695652173913}
		.st5 {fill:none;stroke:none;stroke-linecap:round;stroke-linejoin:round;stroke-width:0.72}
		.st6 {fill:#000000;font-family:Arial;font-size:1.00001em;font-weight:bold}
		.st7 {fill:none;fill-rule:evenodd;font-size:12;overflow:visible;stroke-linecap:square;stroke-miterlimit:3}
	]]>
	</style>

	<defs id="Markers">
		<g id="lend2">
			<path d="M 1 1 L 0 0 L 1 -1 L 1 1 " style="stroke:none"/>
		</g>
		<marker id="mrkr2-14" class="st4" v:arrowType="2" v:arrowSize="2" v:setback="11.5" refX="-11.5" orient="auto"
				markerUnits="strokeWidth">
			<use xlink:href="#lend2" transform="scale(-11.5,-11.5) "/>
		</marker>
	</defs>
	<g v:mID="0" v:index="1" v:groupContext="foregroundPage">
		<title>Page-1</title>
		<v:pageProperties v:drawingScale="0.0393701" v:pageScale="0.0393701" v:drawingUnits="24" v:shadowOffsetX="8.50394"
				v:shadowOffsetY="-8.50394"/>
		<v:layer v:name="Flowchart" v:index="0"/>
		<v:layer v:name="Connector" v:index="1"/>
		<g id="shape47-1" v:mID="47" v:groupContext="shape" v:layerMember="0" transform="translate(47.847,-0.24)">
			<title>Process.43</title>
			<desc>‘//’</desc>
			<v:custProps>
				<v:cp v:nameU="Cost" v:lbl="Cost" v:type="7" v:format="@" v:langID="1033"/>
				<v:cp v:nameU="Duration" v:lbl="Duration" v:type="2" v:langID="1033"/>
				<v:cp v:nameU="Resources" v:lbl="Resources" v:langID="1033"/>
			</v:custProps>
			<v:userDefs>
				<v:ud v:nameU="visVersion" v:val="VT0(11):26"/>
			</v:userDefs>
			<v:textBlock v:margins="rect(2,2,2,2)" v:tabSpace="42.5197"/>
			<v:textRect cx="10.8944" cy="60.3438" width="21.79" height="14.5259"/>
			<rect x="0" y="53.0808" width="21.7889" height="14.5259" rx="2.83465" ry="2.83465" class="st1"/>
			<text x="6.9" y="62.74" class="st2" v:langID="1033"><v:paragraph v:horizAlign="1"/><v:tabList/>‘//’</text>		</g>
		<g id="shape48-4" v:mID="48" v:groupContext="shape" v:layerMember="1;0" transform="translate(9.13511,-18.3974)">
			<title>On-page reference.44</title>
			<v:userDefs>
				<v:ud v:nameU="visVersion" v:val="VT0(11):26"/>
			</v:userDefs>
			<v:textBlock v:margins="rect(2,2,2,2)" v:tabSpace="42.5197"/>
			<path d="M0 61.25 A6.35509 6.35509 0 0 1 12.71 61.25 A6.35509 6.35509 0 1 1 0 61.25 Z" class="st1"/>
		</g>
		<g id="shape49-6" v:mID="49" v:groupContext="shape" v:layerMember="0" transform="translate(99.8438,-23.8871)">
			<title>Process.46</title>
			<desc>EOL</desc>
			<v:custProps>
				<v:cp v:nameU="Cost" v:lbl="Cost" v:type="7" v:format="@" v:langID="1033"/>
				<v:cp v:nameU="Duration" v:lbl="Duration" v:type="2" v:langID="1033"/>
				<v:cp v:nameU="Resources" v:lbl="Resources" v:langID="1033"/>
			</v:custProps>
			<v:userDefs>
				<v:ud v:nameU="visVersion" v:val="VT0(11):26"/>
			</v:userDefs>
			<v:textBlock v:margins="rect(2,2,2,2)" v:tabSpace="42.5197"/>
			<v:textRect cx="15.5971" cy="60.3438" width="31.2" height="14.5259"/>
			<rect x="0" y="53.0808" width="31.1942" height="14.5259" rx="2.83465" ry="2.83465" class="st1"/>
			<text x="7.6" y="62.74" class="st2" v:langID="1033"><v:paragraph v:horizAlign="1"/><v:tabList/>EOL</text>		</g>
		<g id="shape50-9" v:mID="50" v:groupContext="shape" v:layerMember="1" transform="translate(131.038,-38.1485)">
			<title>Dynamic connector.191</title>
			<path d="M0 74.61 L10.63 74.61 L10.63 74.78 L15.65 74.78" class="st3"/>
		</g>
		<g id="shape51-15" v:mID="51" v:groupContext="shape" transform="translate(0.72,-54.4068)">
			<title>Sheet.51</title>
			<desc>single-line comment</desc>
			<v:textBlock v:margins="rect(2,2,2,2)" v:tabSpace="42.5197"/>
			<v:textRect cx="64.3786" cy="61.6068" width="128.76" height="12"/>
			<rect x="0" y="55.6068" width="128.757" height="12" class="st5"/>
			<text x="6.36" y="65.21" class="st6" v:langID="1033"><v:paragraph v:horizAlign="1"/><v:tabList/>single-line comment</text>		</g>
		<g id="shape52-18" v:mID="52" v:groupContext="shape" v:layerMember="1;0" transform="translate(149.45,-24.6186)">
			<title>On-page reference.197</title>
			<v:userDefs>
				<v:ud v:nameU="visVersion" v:val="VT0(11):26"/>
			</v:userDefs>
			<v:textBlock v:margins="rect(2,2,2,2)" v:tabSpace="42.5197"/>
			<path d="M0 61.25 A6.35509 6.35509 0 0 1 12.71 61.25 A6.35509 6.35509 0 1 1 0 61.25 Z" class="st1"/>
		</g>
		<g id="shape53-20" v:mID="53" v:groupContext="shape" v:layerMember="0" transform="translate(47.847,-23.8446)">
			<title>Process.198</title>
			<desc>‘#’</desc>
			<v:custProps>
				<v:cp v:nameU="Cost" v:lbl="Cost" v:type="7" v:format="@" v:langID="1033"/>
				<v:cp v:nameU="Duration" v:lbl="Duration" v:type="2" v:langID="1033"/>
				<v:cp v:nameU="Resources" v:lbl="Resources" v:langID="1033"/>
			</v:custProps>
			<v:userDefs>
				<v:ud v:nameU="visVersion" v:val="VT0(11):26"/>
			</v:userDefs>
			<v:textBlock v:margins="rect(2,2,2,2)" v:tabSpace="42.5197"/>
			<v:textRect cx="10.8944" cy="60.3438" width="21.79" height="14.5259"/>
			<rect x="0" y="53.0808" width="21.7889" height="14.5259" rx="2.83465" ry="2.83465" class="st1"/>
			<text x="6.9" y="62.74" class="st2" v:langID="1033"><v:paragraph v:horizAlign="1"/><v:tabList/>‘#’</text>		</g>
		<g id="shape54-23" v:mID="54" v:groupContext="shape" v:layerMember="1" transform="translate(21.8453,-20.8434)">
			<title>Dynamic connector.45</title>
			<path d="M0 63.7 L7.45 63.7 A3.17755 3.17755 -180 0 0 10.63 60.52 L10.63 60.52 A3.17755 3.17755 0 0 1 13.81 57.34 L23.24
						 57.34" class="st3"/>
		</g>
		<g id="shape55-28" v:mID="55" v:groupContext="shape" v:layerMember="1" transform="translate(21.8453,-24.7525)">
			<title>Dynamic connector.48</title>
			<path d="M0 67.61 L5.31 67.61 A5.31496 5.31496 0 0 1 10.63 72.92 L10.63 79.19 A5.66929 5.66929 -180 0 0 16.3 84.86 L23.24
						 84.86" class="st3"/>
		</g>
		<g id="shape56-33" v:mID="56" v:groupContext="shape" v:layerMember="1" transform="translate(69.6359,-24.0422)">
			<title>Dynamic connector.199</title>
			<path d="M0 60.54 L10.61 60.54 a0.0212272 0.0212272 -180 0 0 0.0212272 -0.0212272 L10.63 60.52 a0.0212272 0.0212272 0
						 0 1 0.0212272 -0.0212272 L27.45 60.5" class="st3"/>
		</g>
		<g id="shape57-38" v:mID="57" v:groupContext="shape" v:layerMember="1" transform="translate(69.6359,-7.50296)">
			<title>Dynamic connector.200</title>
			<path d="M0 67.61 L5.31 67.61 A5.31496 5.31496 -180 0 0 10.63 62.29 L10.63 49.63 A5.66929 5.66929 0 0 1 16.3 43.96 L27.45
						 43.96" class="st3"/>
		</g>
	</g>
</svg>
