<?xml version="1.0" encoding="UTF-8" standalone="no"?>
<!DOCTYPE svg PUBLIC "-//W3C//DTD SVG 1.0//EN" "http://www.w3.org/TR/2001/REC-SVG-20010904/DTD/svg10.dtd">
<!-- Generated by Microsoft Visio 11.0, SVG Export, v1.0 collect.svg Page-1 -->
<svg xmlns="http://www.w3.org/2000/svg" xmlns:v="http://schemas.microsoft.com/visio/2003/SVGExtensions/" width="5.37613in"
		height="1.28041in" viewBox="0 0 387.081 92.1892" xml:space="preserve" color-interpolation-filters="sRGB" class="st7">
	<v:documentProperties v:langID="1033" v:metric="true" v:viewMarkup="false"/>

	<style type="text/css">
	<![CDATA[
		.st1 {fill:#e8eef7;stroke:#000000;stroke-linecap:round;stroke-linejoin:round;stroke-width:0.24}
		.st2 {fill:#000000;font-family:Arial;font-size:0.666664em;font-style:italic}
		.st3 {fill:#000000;font-family:Arial;font-size:0.666664em}
		.st4 {font-size:1em}
		.st5 {marker-end:url(#mrkr2-17);stroke:#4677bf;stroke-linecap:round;stroke-linejoin:round;stroke-width:0.24}
		.st6 {fill:#4677bf;fill-opacity:1;stroke:#4677bf;stroke-opacity:1;stroke-width:0.08695652173913}
		.st7 {fill:none;fill-rule:evenodd;font-size:12;overflow:visible;stroke-linecap:square;stroke-miterlimit:3}
	]]>
	</style>

	<defs id="Markers">
		<g id="lend2">
			<path d="M 1 1 L 0 0 L 1 -1 L 1 1 " style="stroke:none"/>
		</g>
		<marker id="mrkr2-17" class="st6" v:arrowType="2" v:arrowSize="2" v:setback="11.5" refX="-11.5" orient="auto"
				markerUnits="strokeWidth">
			<use xlink:href="#lend2" transform="scale(-11.5,-11.5) "/>
		</marker>
	</defs>
	<g v:mID="0" v:index="1" v:groupContext="foregroundPage">
		<title>Page-1</title>
		<v:pageProperties v:drawingScale="0.0393701" v:pageScale="0.0393701" v:drawingUnits="24" v:shadowOffsetX="8.50394"
				v:shadowOffsetY="-8.50394"/>
		<v:layer v:name="Flowchart" v:index="0"/>
		<v:layer v:name="Connector" v:index="1"/>
		<g id="shape17-1" v:mID="17" v:groupContext="shape" v:layerMember="0" transform="translate(27.3422,-38.327)">
			<title>Process.17</title>
			<desc>pattern</desc>
			<v:custProps>
				<v:cp v:nameU="Cost" v:lbl="Cost" v:type="7" v:format="@" v:langID="1033"/>
				<v:cp v:nameU="Duration" v:lbl="Duration" v:type="2" v:langID="1033"/>
				<v:cp v:nameU="Resources" v:lbl="Resources" v:langID="1033"/>
			</v:custProps>
			<v:userDefs>
				<v:ud v:nameU="visVersion" v:val="VT0(11):26"/>
			</v:userDefs>
			<v:textBlock v:margins="rect(2,2,2,2)" v:tabSpace="42.5197"/>
			<v:textRect cx="14.8963" cy="85.5194" width="29.8" height="13.3396"/>
			<rect x="0" y="78.8496" width="29.7926" height="13.3396" rx="2.83465" ry="2.83465" class="st1"/>
			<text x="2.45" y="87.92" class="st2" v:langID="2057"><v:paragraph v:horizAlign="1"/><v:tabList/>pattern</text>		</g>
		<g id="shape18-4" v:mID="18" v:groupContext="shape" v:layerMember="0" transform="translate(188.824,-38.327)">
			<title>Process.18</title>
			<desc>‘(‘</desc>
			<v:custProps>
				<v:cp v:nameU="Cost" v:lbl="Cost" v:type="7" v:format="@" v:langID="1033"/>
				<v:cp v:nameU="Duration" v:lbl="Duration" v:type="2" v:langID="1033"/>
				<v:cp v:nameU="Resources" v:lbl="Resources" v:langID="1033"/>
			</v:custProps>
			<v:userDefs>
				<v:ud v:nameU="visVersion" v:val="VT0(11):26"/>
			</v:userDefs>
			<v:textBlock v:margins="rect(2,2,2,2)" v:tabSpace="42.5197"/>
			<v:textRect cx="10.0047" cy="85.5194" width="20.01" height="13.3396"/>
			<rect x="0" y="78.8496" width="20.0095" height="13.3396" rx="2.83465" ry="2.83465" class="st1"/>
			<text x="6.89" y="87.92" class="st3" v:langID="1033"><v:paragraph v:horizAlign="1"/><v:tabList/>‘<tspan class="st4"
						v:langID="2057">(</tspan>‘</text>		</g>
		<g id="shape19-8" v:mID="19" v:groupContext="shape" v:layerMember="0" transform="translate(332.595,-38.4242)">
			<title>Process.19</title>
			<desc>‘)’</desc>
			<v:custProps>
				<v:cp v:nameU="Cost" v:lbl="Cost" v:type="7" v:format="@" v:langID="1033"/>
				<v:cp v:nameU="Duration" v:lbl="Duration" v:type="2" v:langID="1033"/>
				<v:cp v:nameU="Resources" v:lbl="Resources" v:langID="1033"/>
			</v:custProps>
			<v:userDefs>
				<v:ud v:nameU="visVersion" v:val="VT0(11):26"/>
			</v:userDefs>
			<v:textBlock v:margins="rect(2,2,2,2)" v:tabSpace="42.5197"/>
			<v:textRect cx="10.0047" cy="85.5194" width="20.01" height="13.3396"/>
			<rect x="0" y="78.8496" width="20.0095" height="13.3396" rx="2.83465" ry="2.83465" class="st1"/>
			<text x="6.89" y="87.92" class="st3" v:langID="1033"><v:paragraph v:horizAlign="1"/><v:tabList/>‘<tspan class="st4"
						v:langID="2057">)</tspan>’</text>		</g>
		<g id="shape20-12" v:mID="20" v:groupContext="shape" v:layerMember="1" transform="translate(168.953,-37.9102)">
			<title>Dynamic connector.20</title>
			<path d="M0 85.1 L17.11 85.1" class="st5"/>
		</g>
		<g id="shape21-18" v:mID="21" v:groupContext="shape" v:layerMember="1;0" transform="translate(0.985572,-39.1608)">
			<title>On-page reference.21</title>
			<v:userDefs>
				<v:ud v:nameU="visVersion" v:val="VT0(11):26"/>
			</v:userDefs>
			<v:textBlock v:margins="rect(2,2,2,2)" v:tabSpace="42.5197"/>
			<path d="M0 86.35 A5.83609 5.83609 0 1 1 11.67 86.35 A5.83609 5.83609 0 0 1 0 86.35 Z" class="st1"/>
		</g>
		<g id="shape22-20" v:mID="22" v:groupContext="shape" v:layerMember="1;0" transform="translate(375.169,-39.258)">
			<title>On-page reference.22</title>
			<v:userDefs>
				<v:ud v:nameU="visVersion" v:val="VT0(11):26"/>
			</v:userDefs>
			<v:textBlock v:margins="rect(2,2,2,2)" v:tabSpace="42.5197"/>
			<path d="M0 86.35 A5.83609 5.83609 0 1 1 11.67 86.35 A5.83609 5.83609 0 0 1 0 86.35 Z" class="st1"/>
		</g>
		<g id="shape23-22" v:mID="23" v:groupContext="shape" v:layerMember="1" transform="translate(12.6578,-37.9102)">
			<title>Dynamic connector.23</title>
			<path d="M0 85.1 L11.92 85.1" class="st5"/>
		</g>
		<g id="shape24-27" v:mID="24" v:groupContext="shape" v:layerMember="1" transform="translate(352.605,-38.0075)">
			<title>Dynamic connector.24</title>
			<path d="M0 85.1 L19.8 85.1" class="st5"/>
		</g>
		<g id="shape29-32" v:mID="29" v:groupContext="shape" v:layerMember="0" transform="translate(80.3557,-38.327)">
			<title>Process.29</title>
			<desc>‘from’</desc>
			<v:custProps>
				<v:cp v:nameU="Cost" v:lbl="Cost" v:type="7" v:format="@" v:langID="1033"/>
				<v:cp v:nameU="Duration" v:lbl="Duration" v:type="2" v:langID="1033"/>
				<v:cp v:nameU="Resources" v:lbl="Resources" v:langID="1033"/>
			</v:custProps>
			<v:userDefs>
				<v:ud v:nameU="visVersion" v:val="VT0(11):26"/>
			</v:userDefs>
			<v:textBlock v:margins="rect(2,2,2,2)" v:tabSpace="42.5197"/>
			<v:textRect cx="14.8963" cy="85.5194" width="29.8" height="13.3396"/>
			<rect x="0" y="78.8496" width="29.7926" height="13.3396" rx="2.83465" ry="2.83465" class="st1"/>
			<text x="5.12" y="87.92" class="st3" v:langID="2057"><v:paragraph v:horizAlign="1"/><v:tabList/>‘from’</text>		</g>
		<g id="shape30-35" v:mID="30" v:groupContext="shape" v:layerMember="0" transform="translate(125.71,-38.327)">
			<title>Process.30</title>
			<desc>‘collect’</desc>
			<v:custProps>
				<v:cp v:nameU="Cost" v:lbl="Cost" v:type="7" v:format="@" v:langID="1033"/>
				<v:cp v:nameU="Duration" v:lbl="Duration" v:type="2" v:langID="1033"/>
				<v:cp v:nameU="Resources" v:lbl="Resources" v:langID="1033"/>
			</v:custProps>
			<v:userDefs>
				<v:ud v:nameU="visVersion" v:val="VT0(11):26"/>
			</v:userDefs>
			<v:textBlock v:margins="rect(2,2,2,2)" v:tabSpace="42.5197"/>
			<v:textRect cx="21.6214" cy="85.5194" width="43.25" height="13.3396"/>
			<rect x="0" y="78.8496" width="43.2427" height="13.3396" rx="2.83465" ry="2.83465" class="st1"/>
			<text x="8.51" y="87.92" class="st3" v:langID="2057"><v:paragraph v:horizAlign="1"/><v:tabList/>‘collect’</text>		</g>
		<g id="shape28-38" v:mID="28" v:groupContext="shape" v:layerMember="1" transform="translate(297.162,-6.90982)">
			<title>Dynamic connector.28</title>
			<path d="M0 92.19 L9.45 92.19 A5.66929 5.66929 -180 0 0 15.12 86.52 L15.12 59.67 A5.66929 5.66929 0 0 1 20.79 54 L32.67
						 54" class="st5"/>
		</g>
		<g id="shape31-43" v:mID="31" v:groupContext="shape" v:layerMember="1" transform="translate(208.834,-44.9969)">
			<title>Dynamic connector.31</title>
			<path d="M0 92.19 L5.31 92.19 A5.31496 5.31496 -180 0 0 10.63 86.87 L10.63 57.58 A5.66929 5.66929 0 0 1 16.3 51.91 L40.21
						 51.91" class="st5"/>
		</g>
		<g id="shape32-48" v:mID="32" v:groupContext="shape" v:layerMember="1" transform="translate(110.148,-37.9102)">
			<title>Dynamic connector.32</title>
			<path d="M0 85.1 L12.8 85.1" class="st5"/>
		</g>
		<g id="shape33-53" v:mID="33" v:groupContext="shape" v:layerMember="1" transform="translate(57.1348,-37.9102)">
			<title>Dynamic connector.33</title>
			<path d="M0 85.1 L20.46 85.1" class="st5"/>
		</g>
		<g id="shape1-58" v:mID="1" v:groupContext="shape" v:layerMember="0" transform="translate(251.808,-78.6096)">
			<title>Process.1</title>
			<desc>pattern</desc>
			<v:custProps>
				<v:cp v:nameU="Cost" v:lbl="Cost" v:type="7" v:format="@" v:langID="1033"/>
				<v:cp v:nameU="Duration" v:lbl="Duration" v:type="2" v:langID="1033"/>
				<v:cp v:nameU="Resources" v:lbl="Resources" v:langID="1033"/>
			</v:custProps>
			<v:userDefs>
				<v:ud v:nameU="visVersion" v:val="VT0(11):26"/>
			</v:userDefs>
			<v:textBlock v:margins="rect(2,2,2,2)" v:tabSpace="42.5197"/>
			<v:textRect cx="19.8425" cy="85.5194" width="39.69" height="13.3396"/>
			<rect x="0" y="78.8496" width="39.685" height="13.3396" rx="2.83465" ry="2.83465" class="st1"/>
			<text x="7.4" y="87.92" class="st2" v:langID="2057"><v:paragraph v:horizAlign="1"/><v:tabList/>pattern</text>		</g>
		<g id="shape10-61" v:mID="10" v:groupContext="shape" v:layerMember="0" transform="translate(251.808,-26.3632)">
			<title>Process.10</title>
			<desc>collect</desc>
			<v:custProps>
				<v:cp v:nameU="Cost" v:lbl="Cost" v:type="7" v:format="@" v:langID="1033"/>
				<v:cp v:nameU="Duration" v:lbl="Duration" v:type="2" v:langID="1033"/>
				<v:cp v:nameU="Resources" v:lbl="Resources" v:langID="1033"/>
			</v:custProps>
			<v:userDefs>
				<v:ud v:nameU="visVersion" v:val="VT0(11):26"/>
			</v:userDefs>
			<v:textBlock v:margins="rect(2,2,2,2)" v:tabSpace="42.5197"/>
			<v:textRect cx="19.8425" cy="85.5194" width="39.69" height="13.3396"/>
			<rect x="0" y="78.8496" width="39.685" height="13.3396" rx="2.83465" ry="2.83465" class="st1"/>
			<text x="8.51" y="87.92" class="st2" v:langID="2057"><v:paragraph v:horizAlign="1"/><v:tabList/>collect</text>		</g>
		<g id="shape35-64" v:mID="35" v:groupContext="shape" v:layerMember="0" transform="translate(246.139,-0.24)">
			<title>Process.35</title>
			<desc>accumulate</desc>
			<v:custProps>
				<v:cp v:nameU="Cost" v:lbl="Cost" v:type="7" v:format="@" v:langID="1033"/>
				<v:cp v:nameU="Duration" v:lbl="Duration" v:type="2" v:langID="1033"/>
				<v:cp v:nameU="Resources" v:lbl="Resources" v:langID="1033"/>
			</v:custProps>
			<v:userDefs>
				<v:ud v:nameU="visVersion" v:val="VT0(11):26"/>
			</v:userDefs>
			<v:textBlock v:margins="rect(2,2,2,2)" v:tabSpace="42.5197"/>
			<v:textRect cx="25.5118" cy="85.5194" width="51.03" height="13.3396"/>
			<rect x="0" y="78.8496" width="51.0236" height="13.3396" rx="2.83465" ry="2.83465" class="st1"/>
			<text x="5.04" y="87.92" class="st2" v:langID="2057"><v:paragraph v:horizAlign="1"/><v:tabList/>accumulate</text>		</g>
		<g id="shape14-67" v:mID="14" v:groupContext="shape" v:layerMember="0" transform="translate(256.754,-52.4864)">
			<title>Process.14</title>
			<desc>from</desc>
			<v:custProps>
				<v:cp v:nameU="Cost" v:lbl="Cost" v:type="7" v:format="@" v:langID="1033"/>
				<v:cp v:nameU="Duration" v:lbl="Duration" v:type="2" v:langID="1033"/>
				<v:cp v:nameU="Resources" v:lbl="Resources" v:langID="1033"/>
			</v:custProps>
			<v:userDefs>
				<v:ud v:nameU="visVersion" v:val="VT0(11):26"/>
			</v:userDefs>
			<v:textBlock v:margins="rect(2,2,2,2)" v:tabSpace="42.5197"/>
			<v:textRect cx="14.8963" cy="85.5194" width="29.8" height="13.3396"/>
			<rect x="0" y="78.8496" width="29.7926" height="13.3396" rx="2.83465" ry="2.83465" class="st1"/>
			<text x="6.9" y="87.92" class="st2" v:langID="2057"><v:paragraph v:horizAlign="1"/><v:tabList/>from</text>		</g>
		<g id="shape25-70" v:mID="25" v:groupContext="shape" v:layerMember="1" transform="translate(208.834,-44.9899)">
			<title>Dynamic connector.25</title>
			<path d="M0 92.18 L5.31 92.18 A5.31496 5.31496 -180 0 0 10.63 86.87 L10.63 83.69 A5.66929 5.66929 0 0 1 16.3 78.02 L45.16
						 78.02" class="st5"/>
		</g>
		<g id="shape26-75" v:mID="26" v:groupContext="shape" v:layerMember="1" transform="translate(208.834,-46.1015)">
			<title>Dynamic connector.26</title>
			<path d="M0 93.29 L5.31 93.29 A5.31496 5.31496 0 0 1 10.63 98.61 L10.63 99.59 A5.66929 5.66929 -180 0 0 16.3 105.26 L40.21
						 105.26" class="st5"/>
		</g>
		<g id="shape27-80" v:mID="27" v:groupContext="shape" v:layerMember="1" transform="translate(208.834,-44.9969)">
			<title>Dynamic connector.27</title>
			<path d="M0 92.19 L5.31 92.19 A5.31496 5.31496 0 0 1 10.63 97.5 L10.63 124.61 A5.66929 5.66929 -180 0 0 16.3 130.28 L34.54
						 130.28" class="st5"/>
		</g>
		<g id="shape36-85" v:mID="36" v:groupContext="shape" v:layerMember="1" transform="translate(291.493,-31.9769)">
			<title>Dynamic connector.36</title>
			<path d="M0 91.13 L15.12 91.13 A5.66929 5.66929 -180 0 0 20.79 85.46 L20.79 84.74 A5.66929 5.66929 0 0 1 26.46 79.07
						 L38.34 79.07" class="st5"/>
		</g>
		<g id="shape38-90" v:mID="38" v:groupContext="shape" v:layerMember="1" transform="translate(286.547,-59.2117)">
			<title>Dynamic connector.38</title>
			<path d="M0 92.24 L20.54 92.24 A5.66929 5.66929 0 0 1 26.21 97.91 L26.21 100.64 A5.66929 5.66929 -180 0 0 31.88 106.31
						 L43.29 106.31" class="st5"/>
		</g>
		<g id="shape39-95" v:mID="39" v:groupContext="shape" v:layerMember="1" transform="translate(291.493,-85.2794)">
			<title>Dynamic connector.39</title>
			<path d="M0 92.19 L15.59 92.19 A5.66929 5.66929 0 0 1 21.26 97.86 L21.26 126.71 A5.66929 5.66929 -180 0 0 26.93 132.37
						 L38.34 132.37" class="st5"/>
		</g>
	</g>
</svg>
