<?xml version="1.0" encoding="UTF-8" standalone="no"?>
<!DOCTYPE svg PUBLIC "-//W3C//DTD SVG 1.0//EN" "http://www.w3.org/TR/2001/REC-SVG-20010904/DTD/svg10.dtd">
<!-- Generated by Microsoft Visio 11.0, SVG Export, v1.0 not.svg Page-1 -->
<svg xmlns="http://www.w3.org/2000/svg" xmlns:v="http://schemas.microsoft.com/visio/2003/SVGExtensions/" width="3.6165in"
		height="0.538941in" viewBox="0 0 260.388 38.8038" xml:space="preserve" color-interpolation-filters="sRGB" class="st6">
	<v:documentProperties v:langID="1033" v:metric="true" v:viewMarkup="false"/>

	<style type="text/css">
	<![CDATA[
		.st1 {fill:#e8eef7;stroke:#000000;stroke-linecap:round;stroke-linejoin:round;stroke-width:0.24}
		.st2 {fill:#000000;font-family:Arial;font-size:0.666664em}
		.st3 {font-size:1em}
		.st4 {marker-end:url(#mrkr2-18);stroke:#4677bf;stroke-linecap:round;stroke-linejoin:round;stroke-width:0.24}
		.st5 {fill:#4677bf;fill-opacity:1;stroke:#4677bf;stroke-opacity:1;stroke-width:0.08695652173913}
		.st6 {fill:none;fill-rule:evenodd;font-size:12;overflow:visible;stroke-linecap:square;stroke-miterlimit:3}
	]]>
	</style>

	<defs id="Markers">
		<g id="lend2">
			<path d="M 1 1 L 0 0 L 1 -1 L 1 1 " style="stroke:none"/>
		</g>
		<marker id="mrkr2-18" class="st5" v:arrowType="2" v:arrowSize="2" v:setback="11.5" refX="-11.5" orient="auto"
				markerUnits="strokeWidth">
			<use xlink:href="#lend2" transform="scale(-11.5,-11.5) "/>
		</marker>
	</defs>
	<g v:mID="0" v:index="1" v:groupContext="foregroundPage">
		<title>Page-1</title>
		<v:pageProperties v:drawingScale="0.0393701" v:pageScale="0.0393701" v:drawingUnits="24" v:shadowOffsetX="8.50394"
				v:shadowOffsetY="-8.50394"/>
		<v:layer v:name="Flowchart" v:index="0"/>
		<v:layer v:name="Connector" v:index="1"/>
		<g id="shape12-1" v:mID="12" v:groupContext="shape" v:layerMember="0" transform="translate(27.6709,-2.13018)">
			<title>Process.141</title>
			<desc>‘not’</desc>
			<v:custProps>
				<v:cp v:nameU="Cost" v:lbl="Cost" v:type="7" v:format="@" v:langID="1033"/>
				<v:cp v:nameU="Duration" v:lbl="Duration" v:type="2" v:langID="1033"/>
				<v:cp v:nameU="Resources" v:lbl="Resources" v:langID="1033"/>
			</v:custProps>
			<v:userDefs>
				<v:ud v:nameU="visVersion" v:val="VT0(11):26"/>
			</v:userDefs>
			<v:textBlock v:margins="rect(2,2,2,2)" v:tabSpace="42.5197"/>
			<v:textRect cx="14.8963" cy="32.134" width="29.8" height="13.3396"/>
			<rect x="0" y="25.4641" width="29.7926" height="13.3396" rx="2.83465" ry="2.83465" class="st1"/>
			<text x="7.56" y="34.53" class="st2" v:langID="1033"><v:paragraph v:horizAlign="1"/><v:tabList/>‘<tspan class="st3"
						v:langID="2057">not</tspan>’</text>		</g>
		<g id="shape13-5" v:mID="13" v:groupContext="shape" v:layerMember="0" transform="translate(75.8054,-25.2241)">
			<title>Process.142</title>
			<desc>‘(‘</desc>
			<v:custProps>
				<v:cp v:nameU="Cost" v:lbl="Cost" v:type="7" v:format="@" v:langID="1033"/>
				<v:cp v:nameU="Duration" v:lbl="Duration" v:type="2" v:langID="1033"/>
				<v:cp v:nameU="Resources" v:lbl="Resources" v:langID="1033"/>
			</v:custProps>
			<v:userDefs>
				<v:ud v:nameU="visVersion" v:val="VT0(11):26"/>
			</v:userDefs>
			<v:textBlock v:margins="rect(2,2,2,2)" v:tabSpace="42.5197"/>
			<v:textRect cx="10.0047" cy="32.134" width="20.01" height="13.3396"/>
			<rect x="0" y="25.4641" width="20.0095" height="13.3396" rx="2.83465" ry="2.83465" class="st1"/>
			<text x="6.89" y="34.53" class="st2" v:langID="1033"><v:paragraph v:horizAlign="1"/><v:tabList/>‘<tspan class="st3"
						v:langID="2057">(</tspan>‘</text>		</g>
		<g id="shape14-9" v:mID="14" v:groupContext="shape" v:layerMember="0" transform="translate(203.408,-24.8073)">
			<title>Process.143</title>
			<desc>‘)’</desc>
			<v:custProps>
				<v:cp v:nameU="Cost" v:lbl="Cost" v:type="7" v:format="@" v:langID="1033"/>
				<v:cp v:nameU="Duration" v:lbl="Duration" v:type="2" v:langID="1033"/>
				<v:cp v:nameU="Resources" v:lbl="Resources" v:langID="1033"/>
			</v:custProps>
			<v:userDefs>
				<v:ud v:nameU="visVersion" v:val="VT0(11):26"/>
			</v:userDefs>
			<v:textBlock v:margins="rect(2,2,2,2)" v:tabSpace="42.5197"/>
			<v:textRect cx="10.0047" cy="32.134" width="20.01" height="13.3396"/>
			<rect x="0" y="25.4641" width="20.0095" height="13.3396" rx="2.83465" ry="2.83465" class="st1"/>
			<text x="6.89" y="34.53" class="st2" v:langID="1033"><v:paragraph v:horizAlign="1"/><v:tabList/>‘<tspan class="st3"
						v:langID="2057">)</tspan>’</text>		</g>
		<g id="shape15-13" v:mID="15" v:groupContext="shape" v:layerMember="1" transform="translate(57.4634,-8.8)">
			<title>Dynamic connector.144</title>
			<path d="M0 38.8 L5.31 38.8 A5.31496 5.31496 -180 0 0 10.63 33.49 L10.63 19.57 A3.85604 3.85604 0 0 1 14.49 15.71 L15.58
						 15.71" class="st4"/>
		</g>
		<g id="shape16-19" v:mID="16" v:groupContext="shape" v:layerMember="1;0" transform="translate(0.656943,-2.96391)">
			<title>On-page reference.145</title>
			<v:userDefs>
				<v:ud v:nameU="visVersion" v:val="VT0(11):26"/>
			</v:userDefs>
			<v:textBlock v:margins="rect(2,2,2,2)" v:tabSpace="42.5197"/>
			<path d="M0 32.97 A5.83609 5.83609 0 1 1 11.67 32.97 A5.83609 5.83609 0 0 1 0 32.97 Z" class="st1"/>
		</g>
		<g id="shape17-21" v:mID="17" v:groupContext="shape" v:layerMember="1;0" transform="translate(248.476,-2.96391)">
			<title>On-page reference.146</title>
			<v:userDefs>
				<v:ud v:nameU="visVersion" v:val="VT0(11):26"/>
			</v:userDefs>
			<v:textBlock v:margins="rect(2,2,2,2)" v:tabSpace="42.5197"/>
			<path d="M0 32.97 A5.83609 5.83609 0 1 1 11.67 32.97 A5.83609 5.83609 0 0 1 0 32.97 Z" class="st1"/>
		</g>
		<g id="shape18-23" v:mID="18" v:groupContext="shape" v:layerMember="1" transform="translate(12.3291,-1.71339)">
			<title>Dynamic connector.147</title>
			<path d="M0 31.72 L12.58 31.72" class="st4"/>
		</g>
		<g id="shape19-28" v:mID="19" v:groupContext="shape" v:layerMember="1" transform="translate(223.417,-31.4772)">
			<title>Dynamic connector.148</title>
			<path d="M0 38.8 L5.31 38.8 A5.31496 5.31496 0 0 1 10.63 44.12 L10.63 55.81 A5.66929 5.66929 -180 0 0 16.3 61.48 L22.3
						 61.48" class="st4"/>
		</g>
		<g id="shape20-33" v:mID="20" v:groupContext="shape" v:layerMember="0" transform="translate(112.676,-2.13018)">
			<title>Process.149</title>
			<desc>conditionalElement</desc>
			<v:custProps>
				<v:cp v:nameU="Cost" v:lbl="Cost" v:type="7" v:format="@" v:langID="1033"/>
				<v:cp v:nameU="Duration" v:lbl="Duration" v:type="2" v:langID="1033"/>
				<v:cp v:nameU="Resources" v:lbl="Resources" v:langID="1033"/>
			</v:custProps>
			<v:userDefs>
				<v:ud v:nameU="visVersion" v:val="VT0(11):26"/>
			</v:userDefs>
			<v:textBlock v:margins="rect(2,2,2,2)" v:tabSpace="42.5197"/>
			<v:textRect cx="36.2367" cy="32.134" width="72.48" height="13.3396"/>
			<rect x="0" y="25.4641" width="72.4735" height="13.3396" rx="2.83465" ry="2.83465" class="st1"/>
			<text x="2.43" y="34.53" class="st2" v:langID="2057"><v:paragraph v:horizAlign="1"/><v:tabList/>conditionalElement</text>		</g>
		<g id="shape21-36" v:mID="21" v:groupContext="shape" v:layerMember="1" transform="translate(95.8149,-31.894)">
			<title>Dynamic connector.150</title>
			<path d="M0 38.8 L4.89 38.8 A4.8872 4.8872 0 0 1 9.77 43.69 L9.77 58.35 A3.54331 3.54331 -180 0 0 13.32 61.9 L14.1 61.9"
					class="st4"/>
		</g>
		<g id="shape22-41" v:mID="22" v:groupContext="shape" v:layerMember="1" transform="translate(185.149,-8.8)">
			<title>Dynamic connector.151</title>
			<path d="M0 38.8 L5.31 38.8 A5.31496 5.31496 -180 0 0 10.63 33.49 L10.63 19.94 A3.81417 3.81417 0 0 1 14.44 16.13 L15.5
						 16.13" class="st4"/>
		</g>
		<g id="shape41-46" v:mID="41" v:groupContext="shape" v:layerMember="1" transform="translate(57.4634,-1.71339)">
			<title>Dynamic connector.41</title>
			<path d="M0 31.72 L52.45 31.72" class="st4"/>
		</g>
		<g id="shape152-51" v:mID="152" v:groupContext="shape" v:layerMember="1" transform="translate(185.149,-1.71339)">
			<title>Dynamic connector.152</title>
			<path d="M0 31.72 L60.57 31.72" class="st4"/>
		</g>
	</g>
</svg>
