<?xml version="1.0" encoding="UTF-8" standalone="no"?>
<!DOCTYPE svg PUBLIC "-//W3C//DTD SVG 1.0//EN" "http://www.w3.org/TR/2001/REC-SVG-20010904/DTD/svg10.dtd">
<!-- Generated by Microsoft Visio 11.0, SVG Export, v1.0 query.svg Page-1 -->
<svg xmlns="http://www.w3.org/2000/svg" xmlns:v="http://schemas.microsoft.com/visio/2003/SVGExtensions/" width="4.6136in"
		height="2.52947in" viewBox="0 0 332.179 182.122" xml:space="preserve" color-interpolation-filters="sRGB" class="st7">
	<v:documentProperties v:langID="1033" v:metric="true" v:viewMarkup="false"/>

	<style type="text/css">
	<![CDATA[
		.st1 {marker-end:url(#mrkr2-6);stroke:#4677bf;stroke-linecap:round;stroke-linejoin:round;stroke-width:0.24}
		.st2 {fill:#4677bf;fill-opacity:1;stroke:#4677bf;stroke-opacity:1;stroke-width:0.08695652173913}
		.st3 {fill:#e8eef7;stroke:#000000;stroke-linecap:round;stroke-linejoin:round;stroke-width:0.24}
		.st4 {fill:#000000;font-family:Arial;font-size:0.666664em}
		.st5 {font-size:1em}
		.st6 {fill:#000000;font-family:Arial;font-size:0.666664em;font-style:italic}
		.st7 {fill:none;fill-rule:evenodd;font-size:12;overflow:visible;stroke-linecap:square;stroke-miterlimit:3}
	]]>
	</style>

	<defs id="Markers">
		<g id="lend2">
			<path d="M 1 1 L 0 0 L 1 -1 L 1 1 " style="stroke:none"/>
		</g>
		<marker id="mrkr2-6" class="st2" v:arrowType="2" v:arrowSize="2" v:setback="11.5" refX="-11.5" orient="auto"
				markerUnits="strokeWidth">
			<use xlink:href="#lend2" transform="scale(-11.5,-11.5) "/>
		</marker>
	</defs>
	<g v:mID="0" v:index="1" v:groupContext="foregroundPage">
		<title>Page-1</title>
		<v:pageProperties v:drawingScale="0.0393701" v:pageScale="0.0393701" v:drawingUnits="24" v:shadowOffsetX="8.50394"
				v:shadowOffsetY="-8.50394"/>
		<v:layer v:name="Connector" v:index="0"/>
		<v:layer v:name="Flowchart" v:index="1"/>
		<g id="shape2-1" v:mID="2" v:groupContext="shape" v:layerMember="0" transform="translate(63.889,-143.921)">
			<title>Dynamic connector.4</title>
			<path d="M0.15 175.04 L11.26 175.04" class="st1"/>
		</g>
		<g id="shape3-7" v:mID="3" v:groupContext="shape" v:layerMember="1" transform="translate(30.9702,-144.394)">
			<title>Process.1</title>
			<desc>‘query’</desc>
			<v:custProps>
				<v:cp v:nameU="Cost" v:lbl="Cost" v:type="7" v:format="@" v:langID="1033"/>
				<v:cp v:nameU="Duration" v:lbl="Duration" v:type="2" v:langID="1033"/>
				<v:cp v:nameU="Resources" v:lbl="Resources" v:langID="1033"/>
			</v:custProps>
			<v:userDefs>
				<v:ud v:nameU="visVersion" v:val="VT0(11):26"/>
			</v:userDefs>
			<v:textBlock v:margins="rect(2,2,2,2)" v:tabSpace="42.5197"/>
			<v:textRect cx="16.5354" cy="175.508" width="33.08" height="13.2283"/>
			<rect x="0" y="168.893" width="33.0709" height="13.2283" rx="2.83465" ry="2.83465" class="st3"/>
			<text x="4.74" y="177.91" class="st4" v:langID="1033"><v:paragraph v:horizAlign="1"/><v:tabList/>‘<tspan class="st5"
						v:langID="2057">query</tspan>’</text>		</g>
		<g id="shape9-11" v:mID="9" v:groupContext="shape" v:layerMember="1" transform="translate(61.8191,-21.1455)">
			<title>Process.58</title>
			<desc>‘end’</desc>
			<v:custProps>
				<v:cp v:nameU="Cost" v:lbl="Cost" v:type="7" v:format="@" v:langID="1033"/>
				<v:cp v:nameU="Duration" v:lbl="Duration" v:type="2" v:langID="1033"/>
				<v:cp v:nameU="Resources" v:lbl="Resources" v:langID="1033"/>
			</v:custProps>
			<v:userDefs>
				<v:ud v:nameU="visVersion" v:val="VT0(11):26"/>
			</v:userDefs>
			<v:textBlock v:margins="rect(2,2,2,2)" v:tabSpace="42.5197"/>
			<v:textRect cx="20.6693" cy="175.508" width="41.34" height="13.2283"/>
			<rect x="0" y="168.893" width="41.3386" height="13.2283" rx="2.83465" ry="2.83465" class="st3"/>
			<text x="12.22" y="177.91" class="st4" v:langID="1033"><v:paragraph v:horizAlign="1"/><v:tabList/>‘<tspan class="st5"
						v:langID="2057">end</tspan>’</text>		</g>
		<g id="shape20-15" v:mID="20" v:groupContext="shape" v:layerMember="1" transform="translate(82.3407,-48.5471)">
			<title>Process.69</title>
			<desc>LHS</desc>
			<v:custProps>
				<v:cp v:nameU="Cost" v:lbl="Cost" v:type="7" v:format="@" v:langID="1033"/>
				<v:cp v:nameU="Duration" v:lbl="Duration" v:type="2" v:langID="1033"/>
				<v:cp v:nameU="Resources" v:lbl="Resources" v:langID="1033"/>
			</v:custProps>
			<v:userDefs>
				<v:ud v:nameU="visVersion" v:val="VT0(11):26"/>
			</v:userDefs>
			<v:textBlock v:margins="rect(2,2,2,2)" v:tabSpace="42.5197"/>
			<v:textRect cx="18.0856" cy="175.508" width="36.18" height="13.2283"/>
			<rect x="0" y="168.893" width="36.1713" height="13.2283" rx="2.83465" ry="2.83465" class="st3"/>
			<text x="10.29" y="177.91" class="st6" v:langID="2057"><v:paragraph v:horizAlign="1"/><v:tabList/>LHS</text>		</g>
		<g id="shape24-18" v:mID="24" v:groupContext="shape" v:layerMember="0" transform="translate(118.512,-55.1613)">
			<title>Dynamic connector.73</title>
			<path d="M0 182.12 L5.31 182.12 A5.31496 5.31496 0 0 1 10.63 187.44 L10.63 190.15 A5.66929 5.66929 0 0 1 4.96 195.82
						 L-61.65 195.82 A5.66929 5.66929 -180 0 0 -67.32 201.49 L-67.32 204.21 A5.31496 5.31496 -180 0 0 -62.01 209.52
						 L-59.45 209.52" class="st1"/>
		</g>
		<g id="shape31-23" v:mID="31" v:groupContext="shape" v:layerMember="0;1" transform="translate(2.29152,-170.307)">
			<title>On-page reference.135</title>
			<v:userDefs>
				<v:ud v:nameU="visVersion" v:val="VT0(11):26"/>
			</v:userDefs>
			<v:textBlock v:margins="rect(2,2,2,2)" v:tabSpace="42.5197"/>
			<path d="M0 176.33 A5.7874 5.7874 0 0 1 11.57 176.33 A5.7874 5.7874 0 1 1 0 176.33 Z" class="st3"/>
		</g>
		<g id="shape32-25" v:mID="32" v:groupContext="shape" v:layerMember="0" transform="translate(13.8663,-176.094)">
			<title>Dynamic connector.136</title>
			<path d="M0 182.12 L3.07 182.12 A3.06684 3.06684 0 0 1 6.13 185.19 L6.13 201.72 A5.48508 5.48508 -180 0 0 11.62 207.21
						 L14.34 207.21" class="st1"/>
		</g>
		<g id="shape34-30" v:mID="34" v:groupContext="shape" v:layerMember="0;1" transform="translate(123.945,-0.24)">
			<title>On-page reference.138</title>
			<v:userDefs>
				<v:ud v:nameU="visVersion" v:val="VT0(11):26"/>
			</v:userDefs>
			<v:textBlock v:margins="rect(2,2,2,2)" v:tabSpace="42.5197"/>
			<path d="M0 176.33 A5.7874 5.7874 0 0 1 11.57 176.33 A5.7874 5.7874 0 1 1 0 176.33 Z" class="st3"/>
		</g>
		<g id="shape36-32" v:mID="36" v:groupContext="shape" v:layerMember="0" transform="translate(103.158,-27.7597)">
			<title>Dynamic connector.140</title>
			<path d="M0 182.12 L5.31 182.12 A5.31496 5.31496 0 0 1 10.63 187.44 L10.63 198.78 A5.07874 5.07874 -180 0 0 15.71 203.85
						 L18.03 203.85" class="st1"/>
		</g>
		<g id="shape6-37" v:mID="6" v:groupContext="shape" v:layerMember="1" transform="translate(77.9101,-144.394)">
			<title>Process.6</title>
			<desc>name</desc>
			<v:custProps>
				<v:cp v:nameU="Cost" v:lbl="Cost" v:type="7" v:format="@" v:langID="1033"/>
				<v:cp v:nameU="Duration" v:lbl="Duration" v:type="2" v:langID="1033"/>
				<v:cp v:nameU="Resources" v:lbl="Resources" v:langID="1033"/>
			</v:custProps>
			<v:userDefs>
				<v:ud v:nameU="visVersion" v:val="VT0(11):26"/>
			</v:userDefs>
			<v:textBlock v:margins="rect(2,2,2,2)" v:tabSpace="42.5197"/>
			<v:textRect cx="16.5354" cy="175.508" width="33.08" height="13.2283"/>
			<rect x="0" y="168.893" width="33.0709" height="13.2283" rx="2.83465" ry="2.83465" class="st3"/>
			<text x="6.52" y="177.91" class="st6" v:langID="2057"><v:paragraph v:horizAlign="1"/><v:tabList/>name</text>		</g>
		<g id="shape37-40" v:mID="37" v:groupContext="shape" v:layerMember="0" transform="translate(110.981,-151.008)">
			<title>Dynamic connector.37</title>
			<path d="M0 182.12 L5.31 182.12 A5.31496 5.31496 0 0 1 10.63 187.44 L10.63 191.1 A5.66929 5.66929 0 0 1 4.96 196.77 L-64.78
						 196.77 A5.66929 5.66929 -180 0 0 -70.45 202.44 L-70.45 272.3 A5.66929 5.66929 -180 0 0 -64.78 277.97 L-31.4
						 277.97" class="st1"/>
		</g>
		<g id="shape38-45" v:mID="38" v:groupContext="shape" v:layerMember="1" transform="translate(151.288,-111.854)">
			<title>Process.38</title>
			<desc>type</desc>
			<v:custProps>
				<v:cp v:nameU="Cost" v:lbl="Cost" v:type="7" v:format="@" v:langID="1033"/>
				<v:cp v:nameU="Duration" v:lbl="Duration" v:type="2" v:langID="1033"/>
				<v:cp v:nameU="Resources" v:lbl="Resources" v:langID="1033"/>
			</v:custProps>
			<v:userDefs>
				<v:ud v:nameU="visVersion" v:val="VT0(11):26"/>
			</v:userDefs>
			<v:textBlock v:margins="rect(2,2,2,2)" v:tabSpace="42.5197"/>
			<v:textRect cx="16.5354" cy="175.508" width="33.08" height="13.2283"/>
			<rect x="0" y="168.893" width="33.0709" height="13.2283" rx="2.83465" ry="2.83465" class="st3"/>
			<text x="8.96" y="177.91" class="st6" v:langID="2057"><v:paragraph v:horizAlign="1"/><v:tabList/>type</text>		</g>
		<g id="shape39-48" v:mID="39" v:groupContext="shape" v:layerMember="1" transform="translate(220.264,-111.854)">
			<title>Process.39</title>
			<desc>identifier</desc>
			<v:custProps>
				<v:cp v:nameU="Cost" v:lbl="Cost" v:type="7" v:format="@" v:langID="1033"/>
				<v:cp v:nameU="Duration" v:lbl="Duration" v:type="2" v:langID="1033"/>
				<v:cp v:nameU="Resources" v:lbl="Resources" v:langID="1033"/>
			</v:custProps>
			<v:userDefs>
				<v:ud v:nameU="visVersion" v:val="VT0(11):26"/>
			</v:userDefs>
			<v:textBlock v:margins="rect(2,2,2,2)" v:tabSpace="42.5197"/>
			<v:textRect cx="21.2598" cy="175.508" width="42.52" height="13.2283"/>
			<rect x="0" y="168.893" width="42.5197" height="13.2283" rx="2.83465" ry="2.83465" class="st3"/>
			<text x="6.13" y="177.91" class="st6" v:langID="2057"><v:paragraph v:horizAlign="1"/><v:tabList/>identifier</text>		</g>
		<g id="shape40-51" v:mID="40" v:groupContext="shape" v:layerMember="0" transform="translate(110.981,-143.921)">
			<title>Dynamic connector.40</title>
			<path d="M0 175.04 L23.2 175.04" class="st1"/>
		</g>
		<g id="shape41-56" v:mID="41" v:groupContext="shape" v:layerMember="0" transform="translate(154.536,-151.008)">
			<title>Dynamic connector.41</title>
			<path d="M0 182.12 L49.43 182.12 A5.66929 5.66929 0 0 1 55.1 187.79 L55.1 209.35 A5.31496 5.31496 -180 0 0 60.41 214.66
						 L62.97 214.66" class="st1"/>
		</g>
		<g id="shape42-61" v:mID="42" v:groupContext="shape" v:layerMember="0" transform="translate(184.358,-111.382)">
			<title>Dynamic connector.42</title>
			<path d="M0 175.04 L33.15 175.04" class="st1"/>
		</g>
		<g id="shape43-66" v:mID="43" v:groupContext="shape" v:layerMember="1" transform="translate(287.705,-111.854)">
			<title>Process.43</title>
			<desc>‘,’</desc>
			<v:custProps>
				<v:cp v:nameU="Cost" v:lbl="Cost" v:type="7" v:format="@" v:langID="1033"/>
				<v:cp v:nameU="Duration" v:lbl="Duration" v:type="2" v:langID="1033"/>
				<v:cp v:nameU="Resources" v:lbl="Resources" v:langID="1033"/>
			</v:custProps>
			<v:userDefs>
				<v:ud v:nameU="visVersion" v:val="VT0(11):26"/>
			</v:userDefs>
			<v:textBlock v:margins="rect(2,2,2,2)" v:tabSpace="42.5197"/>
			<v:textRect cx="8.79921" cy="175.508" width="17.6" height="13.2283"/>
			<rect x="0" y="168.893" width="17.5984" height="13.2283" rx="2.83465" ry="2.83465" class="st3"/>
			<text x="5.91" y="177.91" class="st4" v:langID="1033"><v:paragraph v:horizAlign="1"/><v:tabList/>‘<tspan class="st5"
						v:langID="2057">,</tspan>’</text>		</g>
		<g id="shape44-70" v:mID="44" v:groupContext="shape" v:layerMember="1" transform="translate(136.937,-144.394)">
			<title>Process.44</title>
			<desc>‘(’</desc>
			<v:custProps>
				<v:cp v:nameU="Cost" v:lbl="Cost" v:type="7" v:format="@" v:langID="1033"/>
				<v:cp v:nameU="Duration" v:lbl="Duration" v:type="2" v:langID="1033"/>
				<v:cp v:nameU="Resources" v:lbl="Resources" v:langID="1033"/>
			</v:custProps>
			<v:userDefs>
				<v:ud v:nameU="visVersion" v:val="VT0(11):26"/>
			</v:userDefs>
			<v:textBlock v:margins="rect(2,2,2,2)" v:tabSpace="42.5197"/>
			<v:textRect cx="8.79921" cy="175.508" width="17.6" height="13.2283"/>
			<rect x="0" y="168.893" width="17.5984" height="13.2283" rx="2.83465" ry="2.83465" class="st3"/>
			<text x="5.69" y="177.91" class="st4" v:langID="1033"><v:paragraph v:horizAlign="1"/><v:tabList/>‘<tspan class="st5"
						v:langID="2057">(</tspan>’</text>		</g>
		<g id="shape45-74" v:mID="45" v:groupContext="shape" v:layerMember="0" transform="translate(159.998,-151.008)">
			<title>Dynamic connector.45</title>
			<path d="M-5.46 182.12 L-0.15 182.12 A5.31496 5.31496 0 0 1 5.17 187.44 L5.17 191.75 A5.66929 5.66929 0 0 1 -0.5 197.42
						 L-13.67 197.42 A5.66929 5.66929 -180 0 0 -19.34 203.09 L-19.34 209.35 A5.31496 5.31496 -180 0 0 -14.03 214.66
						 L-11.47 214.66" class="st1"/>
		</g>
		<g id="shape46-79" v:mID="46" v:groupContext="shape" v:layerMember="0" transform="translate(138.059,-80.2006)">
			<title>Dynamic connector.46</title>
			<path d="M0 182.12 L-60.68 182.12 A5.66929 5.66929 -180 0 0 -66.35 187.79 L-66.35 201.85 A5.31496 5.31496 -180 0 0 -61.03
						 207.16 L-58.48 207.16" class="st1"/>
		</g>
		<g id="shape47-84" v:mID="47" v:groupContext="shape" v:layerMember="1" transform="translate(138.059,-73.5865)">
			<title>Process.47</title>
			<desc>‘)’</desc>
			<v:custProps>
				<v:cp v:nameU="Cost" v:lbl="Cost" v:type="7" v:format="@" v:langID="1033"/>
				<v:cp v:nameU="Duration" v:lbl="Duration" v:type="2" v:langID="1033"/>
				<v:cp v:nameU="Resources" v:lbl="Resources" v:langID="1033"/>
			</v:custProps>
			<v:userDefs>
				<v:ud v:nameU="visVersion" v:val="VT0(11):26"/>
			</v:userDefs>
			<v:textBlock v:margins="rect(2,2,2,2)" v:tabSpace="42.5197"/>
			<v:textRect cx="8.79921" cy="175.508" width="17.6" height="13.2283"/>
			<rect x="0" y="168.893" width="17.5984" height="13.2283" rx="2.83465" ry="2.83465" class="st3"/>
			<text x="5.69" y="177.91" class="st4" v:langID="1033"><v:paragraph v:horizAlign="1"/><v:tabList/>‘<tspan class="st5"
						v:langID="2057">)</tspan>’</text>		</g>
		<g id="shape48-88" v:mID="48" v:groupContext="shape" v:layerMember="0" transform="translate(305.303,-111.382)">
			<title>Dynamic connector.48</title>
			<path d="M0 175.04 L5.31 175.04 A5.31496 5.31496 0 0 1 10.63 180.35 L10.63 190.98 A5.66929 5.66929 0 0 1 4.96 196.65
						 L-90 196.65 A5.66929 5.66929 0 0 1 -95.67 190.98 L-95.67 180.35 A5.31496 5.31496 0 0 1 -90.35 175.04 L-87.8
						 175.04" class="st1"/>
		</g>
		<g id="shape49-93" v:mID="49" v:groupContext="shape" v:layerMember="0" transform="translate(305.303,-111.382)">
			<title>Dynamic connector.49</title>
			<path d="M0 175.04 L5.31 175.04 A5.31496 5.31496 0 0 1 10.63 180.35 L10.63 190.98 A5.66929 5.66929 0 0 1 4.96 196.65
						 L-171.5 196.65 A5.66929 5.66929 0 0 1 -177.17 190.98 L-177.17 180.7 A5.66929 5.66929 0 0 1 -171.5 175.04
						 L-156.78 175.04" class="st1"/>
		</g>
		<g id="shape50-98" v:mID="50" v:groupContext="shape" v:layerMember="0" transform="translate(262.784,-118.468)">
			<title>Dynamic connector.50</title>
			<path d="M0 182.12 L4.4 182.12 A4.39961 4.39961 -180 0 0 8.8 177.72 L8.8 173.62 A5.66929 5.66929 0 0 1 14.47 167.95 L59.82
						 167.95 A5.66929 5.66929 0 0 1 65.49 173.62 L65.49 214.72 A5.66929 5.66929 0 0 1 59.82 220.39 L-104.37 220.39"
					class="st1"/>
		</g>
		<g id="shape51-103" v:mID="51" v:groupContext="shape" v:layerMember="0" transform="translate(262.784,-111.382)">
			<title>Dynamic connector.51</title>
			<path d="M0 175.04 L22.16 175.04" class="st1"/>
		</g>
	</g>
</svg>
