<svg id="artwork" xmlns="http://www.w3.org/2000/svg" viewBox="0 0 1280 364"><defs><style>.cls-1{fill:#00586f;}.cls-2{fill:#fff;}.cls-3{fill:#f88d2b;}.cls-4{fill:#b8d8eb;}</style></defs><title>kogito_logo_rgb_color_horizontal_reverse</title><path class="cls-1" d="M297.28,11.31A24.55,24.55,0,0,0,277.3,1c-1.43,0-46.91,7.92-46.91,7.92a24.56,24.56,0,0,0-16.81,11.62l-7.66,12.88C189,18.58,170.36,10.81,151.4,10.81s-37.6,7.77-54.52,22.61L89.23,20.54A24.56,24.56,0,0,0,72.42,8.92S26.94,1,25.51,1A24.53,24.53,0,0,0,4.09,37.49L21.65,68.94a40.24,40.24,0,0,0,21.08,59.38L10.3,278.38l141.1,79.83,141.11-79.83L260.08,128.32a40.24,40.24,0,0,0,21.07-59.38l17.56-31.45A24.61,24.61,0,0,0,297.28,11.31Z"/><path class="cls-2" d="M140.25,97.92l3,0,8.15,8.11,8.1-8.11,3,0c22.1.22,43.28,1.1,61.61,2.54-16.05-34.77-42.63-65.12-72.71-65.12S94.75,65.69,78.69,100.46C97,99,118.18,98.14,140.25,97.92Z"/><path class="cls-3" d="M129.28,244a40.66,40.66,0,0,0,45.85.18,203,203,0,0,0-45.85-.18Z"/><path class="cls-4" d="M214.17,238.23a64.92,64.92,0,0,0-6-14.49c-.42-.74-.87-1.46-1.32-2.19-.26-.41-.5-.84-.77-1.25-.42-.64-.87-1.26-1.31-1.89-.33-.47-.64-.95-1-1.41s-.81-1-1.22-1.55-.83-1.07-1.27-1.6-.71-.8-1.07-1.2a65.19,65.19,0,0,0-28.26-18.71c-6,4-13.61,7.93-20.53,7.93s-14.49-3.89-20.52-7.93a65.15,65.15,0,0,0-28.28,18.73c-.35.4-.71.78-1,1.18s-.86,1.07-1.28,1.61-.82,1-1.21,1.54-.66.94-1,1.41c-.44.63-.89,1.25-1.3,1.89-.27.41-.52.84-.78,1.27-.45.71-.89,1.43-1.31,2.16a65.19,65.19,0,0,0-6,14.5c4.49-1.54,9.24-2.88,14.14-4.08a.08.08,0,0,1,0-.05l1.54-.35,5.92-16.52v15.21l1.06-.19q3.28-.65,6.68-1.19l.83-.13q4.11-.65,8.34-1.12l4.85-19.4v18.9c3-.26,6-.45,9.09-.6l1.38-.06c1.14,0,2.28-.09,3.43-.12,1.83-.05,3.67-.08,5.52-.08s3.82,0,5.71.09l3,.11q1,0,2,.09c2.92.14,5.82.33,8.67.58V210.41l4.85,19.41.58.07c2.55.3,5.08.63,7.56,1,1,.15,1.89.33,2.83.49,1.38.23,2.76.47,4.12.73.6.11,1.22.2,1.82.32V217.23l5.92,16.53c.43.1.84.23,1.27.33l1.93.46,0,0C206,235.68,210.2,236.87,214.17,238.23Z"/><path class="cls-3" d="M230.25,115.32l-3.49-.3c-18-1.53-39.19-2.48-61.4-2.76l-13.94,13.95-14-13.95c-22.19.29-43.34,1.24-61.35,2.77l-3.49.29c-6.35,17.39-9.94,35-9.94,49.69,0,24.44,9.9,36.41,25.88,42.27a80.21,80.21,0,0,1,30.14-23.83A7.14,7.14,0,0,1,129.89,175c5.63,5.21,16,12.55,21.51,12.55s16.06-7.49,21.51-12.55a7.14,7.14,0,0,1,11.25,8.44,80.14,80.14,0,0,1,30.14,23.83c16-5.86,25.88-17.82,25.88-42.27C240.18,150.28,236.59,132.71,230.25,115.32ZM113.48,162.4c-10.25.23-19.59-5.66-26.15-15.21,6.13-9.83,15.19-16.14,25.44-16.37s19.58,5.66,26.15,15.21C132.79,155.86,123.72,162.17,113.48,162.4Zm102-4.61L204.3,169l-11.19-11.18L181.93,169l-11.18-11.18,11.18-11.18-11.18-11.18,11.18-11.18,11.18,11.18,11.19-11.18,11.18,11.18L204.3,146.61Z"/><path class="cls-4" d="M185,279.21l7,27.85L218.67,292V261l6.78,27.1,39.26-22.21L249.1,193.68c-5.22,11.86-14.22,20.54-27,25.91A78.33,78.33,0,0,1,228,234.38a14.32,14.32,0,0,1-18.43,17.39,152.84,152.84,0,0,0-16.33-4.54,54.89,54.89,0,0,1-82-.35,154.2,154.2,0,0,0-17.91,4.89,14.31,14.31,0,0,1-18.42-17.39,78.69,78.69,0,0,1,5.83-14.8c-12.77-5.36-21.76-14.05-27-25.9L38.09,265.92l39.27,22.21L84.14,261V292l26.67,15.09,7-27.85V311l33.63,19L185,311Z"/><path class="cls-2" d="M61.2,105A202.22,202.22,0,0,1,76.42,74.33q4.17-6.83,8.63-12.81L68.14,33.08,25.51,25.53,53,74.83l0,0A15.66,15.66,0,1,0,61.2,105Z"/><path class="cls-2" d="M249.74,74.85l0,0,27.53-49.3-42.62,7.55L217.76,61.52q4.45,6,8.63,12.81A202.22,202.22,0,0,1,241.61,105a15.66,15.66,0,1,0,8.13-30.11Z"/><path class="cls-2" d="M462.85,163.88l3.87-6.13,95.49-99.36h40.32l-96.45,100L608,291.63H568.34L483.17,178.4l-19.67,19,.32,94.2H431.88V58.39h31.94v93.88Z"/><path class="cls-2" d="M625.6,187.59A68.22,68.22,0,0,1,652.05,162q16.94-9.36,38.23-9.36t37.9,9.36A66.82,66.82,0,0,1,754,187.43a71.67,71.67,0,0,1,9.19,36.13A72.48,72.48,0,0,1,754,259.85a66.18,66.18,0,0,1-26,25.65q-16.77,9.35-38.39,9.35-21,0-37.74-8.87a65.27,65.27,0,0,1-26.29-25q-9.52-16.13-9.52-37.42A70,70,0,0,1,625.6,187.59Zm26.45,59.52a43.15,43.15,0,0,0,15.48,16.78A40.43,40.43,0,0,0,689.31,270q18.71,0,31-13.23t12.26-32.91q0-19.66-12.26-33.06t-31-13.39a39.41,39.41,0,0,0-21.94,6.29,44.86,44.86,0,0,0-15.32,16.94,50.64,50.64,0,0,0,0,46.45Z"/><path class="cls-2" d="M931.58,158.08V292.6a61,61,0,0,1-9.36,33.22q-9.36,14.83-26.61,23.55t-40.49,8.71q-20.32,0-35-6.77t-29.52-20l17.75-20.65a89.33,89.33,0,0,0,21.93,15.65,54.66,54.66,0,0,0,24.2,5.32q22.26,0,34.35-10.65t12.42-28.71l.33-25.16q-7.43,12.58-21.78,20.16t-33.07,7.58a64.38,64.38,0,0,1-33.87-9.35A69.33,69.33,0,0,1,788.18,260a74.76,74.76,0,0,1,.33-72.42A69.91,69.91,0,0,1,814.15,162a67.65,67.65,0,0,1,34.52-9.36,73.72,73.72,0,0,1,31.61,6.78q14.52,6.76,21.62,17.42l2.26-18.71ZM885.12,260.66a43,43,0,0,0,16.46-24.52V209.69a43.92,43.92,0,0,0-17.1-23.39,49.16,49.16,0,0,0-29-8.87q-19.68,0-32.9,12.9t-13.23,32.91a46.3,46.3,0,0,0,22.91,40.48,44.76,44.76,0,0,0,23.22,6.3Q872.54,270,885.12,260.66Z"/><path class="cls-2" d="M974.16,98.07a18.48,18.48,0,0,1,12.58-4.84,17.92,17.92,0,0,1,12.42,4.84,16.06,16.06,0,0,1,0,23.88,17.91,17.91,0,0,1-12.42,4.83A18.47,18.47,0,0,1,974.16,122a15.73,15.73,0,0,1,0-23.88Zm26.77,60V291.63h-30V158.08Z"/><path class="cls-2" d="M1083.51,99.36v59H1120v23.87h-36.46V291.63h-30.32V182.27h-24.52V158.4h24.52v-59Z"/><path class="cls-2" d="M1141.41,187.59A68.32,68.32,0,0,1,1167.87,162q16.94-9.36,38.22-9.36T1244,162a66.89,66.89,0,0,1,25.81,25.48,71.67,71.67,0,0,1,9.19,36.13,72.48,72.48,0,0,1-9.19,36.29,66.18,66.18,0,0,1-26,25.65q-16.78,9.35-38.39,9.35-21,0-37.74-8.87a65.36,65.36,0,0,1-26.3-25q-9.51-16.13-9.51-37.42A70.1,70.1,0,0,1,1141.41,187.59Zm26.46,59.52a43.15,43.15,0,0,0,15.48,16.78,40.43,40.43,0,0,0,21.78,6.13q18.7,0,31-13.23t12.26-32.91q0-19.66-12.26-33.06t-31-13.39a39.38,39.38,0,0,0-21.94,6.29,44.86,44.86,0,0,0-15.32,16.94,50.56,50.56,0,0,0,0,46.45Z"/></svg>