<?xml version="1.0" encoding="UTF-8" standalone="no"?>
<!DOCTYPE svg PUBLIC "-//W3C//DTD SVG 1.0//EN" "http://www.w3.org/TR/2001/REC-SVG-20010904/DTD/svg10.dtd">
<!-- Generated by Microsoft Visio 11.0, SVG Export, v1.0 accumulate.svg Page-1 -->
<svg xmlns="http://www.w3.org/2000/svg" xmlns:v="http://schemas.microsoft.com/visio/2003/SVGExtensions/" width="4.51445in"
		height="2.72591in" viewBox="0 0 325.04 196.266" xml:space="preserve" color-interpolation-filters="sRGB" class="st7">
	<v:documentProperties v:langID="1033" v:metric="true" v:viewMarkup="false"/>

	<style type="text/css">
	<![CDATA[
		.st1 {fill:#e8eef7;stroke:#000000;stroke-linecap:round;stroke-linejoin:round;stroke-width:0.24}
		.st2 {fill:#000000;font-family:Arial;font-size:0.666664em;font-style:italic}
		.st3 {marker-end:url(#mrkr2-9);stroke:#4677bf;stroke-linecap:round;stroke-linejoin:round;stroke-width:0.24}
		.st4 {fill:#4677bf;fill-opacity:1;stroke:#4677bf;stroke-opacity:1;stroke-width:0.08695652173913}
		.st5 {fill:#000000;font-family:Arial;font-size:0.666664em}
		.st6 {font-size:1em}
		.st7 {fill:none;fill-rule:evenodd;font-size:12;overflow:visible;stroke-linecap:square;stroke-miterlimit:3}
	]]>
	</style>

	<defs id="Markers">
		<g id="lend2">
			<path d="M 1 1 L 0 0 L 1 -1 L 1 1 " style="stroke:none"/>
		</g>
		<marker id="mrkr2-9" class="st4" v:arrowType="2" v:arrowSize="2" v:setback="11.5" refX="-11.5" orient="auto"
				markerUnits="strokeWidth">
			<use xlink:href="#lend2" transform="scale(-11.5,-11.5) "/>
		</marker>
	</defs>
	<g v:mID="0" v:index="1" v:groupContext="foregroundPage">
		<title>Page-1</title>
		<v:pageProperties v:drawingScale="0.0393701" v:pageScale="0.0393701" v:drawingUnits="24" v:shadowOffsetX="8.50394"
				v:shadowOffsetY="-8.50394"/>
		<v:layer v:name="Flowchart" v:index="0"/>
		<v:layer v:name="Connector" v:index="1"/>
		<g id="shape49-1" v:mID="49" v:groupContext="shape" v:layerMember="0" transform="translate(27.3422,-180.796)">
			<title>Process.49</title>
			<desc>pattern</desc>
			<v:custProps>
				<v:cp v:nameU="Cost" v:lbl="Cost" v:type="7" v:format="@" v:langID="1033"/>
				<v:cp v:nameU="Duration" v:lbl="Duration" v:type="2" v:langID="1033"/>
				<v:cp v:nameU="Resources" v:lbl="Resources" v:langID="1033"/>
			</v:custProps>
			<v:userDefs>
				<v:ud v:nameU="visVersion" v:val="VT0(11):26"/>
			</v:userDefs>
			<v:textBlock v:margins="rect(2,2,2,2)" v:tabSpace="42.5197"/>
			<v:textRect cx="14.8963" cy="189.596" width="29.8" height="13.3396"/>
			<rect x="0" y="182.926" width="29.7926" height="13.3396" rx="2.83465" ry="2.83465" class="st1"/>
			<text x="2.45" y="192" class="st2" v:langID="2057"><v:paragraph v:horizAlign="1"/><v:tabList/>pattern</text>		</g>
		<g id="shape52-4" v:mID="52" v:groupContext="shape" v:layerMember="1" transform="translate(177.399,-187.466)">
			<title>Dynamic connector.52</title>
			<path d="M0 196.27 L28.35 196.27 A5.66929 5.66929 0 0 1 34.02 201.93 L34.02 209.13 A5.66929 5.66929 0 0 1 28.35 214.8
						 L-167.24 214.8 A5.66929 5.66929 -180 0 0 -172.91 220.47 L-172.91 269.79 A4.25197 4.25197 -180 0 0 -168.66
						 274.04 L-167.17 274.04" class="st3"/>
		</g>
		<g id="shape53-10" v:mID="53" v:groupContext="shape" v:layerMember="1;0" transform="translate(0.985572,-181.629)">
			<title>On-page reference.53</title>
			<v:userDefs>
				<v:ud v:nameU="visVersion" v:val="VT0(11):26"/>
			</v:userDefs>
			<v:textBlock v:margins="rect(2,2,2,2)" v:tabSpace="42.5197"/>
			<path d="M0 190.43 A5.83609 5.83609 0 1 1 11.67 190.43 A5.83609 5.83609 0 0 1 0 190.43 Z" class="st1"/>
		</g>
		<g id="shape55-12" v:mID="55" v:groupContext="shape" v:layerMember="1" transform="translate(12.6578,-180.379)">
			<title>Dynamic connector.55</title>
			<path d="M0 189.18 L11.92 189.18" class="st3"/>
		</g>
		<g id="shape60-17" v:mID="60" v:groupContext="shape" v:layerMember="0" transform="translate(80.3557,-180.796)">
			<title>Process.60</title>
			<desc>‘from’</desc>
			<v:custProps>
				<v:cp v:nameU="Cost" v:lbl="Cost" v:type="7" v:format="@" v:langID="1033"/>
				<v:cp v:nameU="Duration" v:lbl="Duration" v:type="2" v:langID="1033"/>
				<v:cp v:nameU="Resources" v:lbl="Resources" v:langID="1033"/>
			</v:custProps>
			<v:userDefs>
				<v:ud v:nameU="visVersion" v:val="VT0(11):26"/>
			</v:userDefs>
			<v:textBlock v:margins="rect(2,2,2,2)" v:tabSpace="42.5197"/>
			<v:textRect cx="14.8963" cy="189.596" width="29.8" height="13.3396"/>
			<rect x="0" y="182.926" width="29.7926" height="13.3396" rx="2.83465" ry="2.83465" class="st1"/>
			<text x="5.12" y="192" class="st5" v:langID="2057"><v:paragraph v:horizAlign="1"/><v:tabList/>‘from’</text>		</g>
		<g id="shape61-20" v:mID="61" v:groupContext="shape" v:layerMember="0" transform="translate(125.71,-180.796)">
			<title>Process.61</title>
			<desc>‘accumulate’</desc>
			<v:custProps>
				<v:cp v:nameU="Cost" v:lbl="Cost" v:type="7" v:format="@" v:langID="1033"/>
				<v:cp v:nameU="Duration" v:lbl="Duration" v:type="2" v:langID="1033"/>
				<v:cp v:nameU="Resources" v:lbl="Resources" v:langID="1033"/>
			</v:custProps>
			<v:userDefs>
				<v:ud v:nameU="visVersion" v:val="VT0(11):26"/>
			</v:userDefs>
			<v:textBlock v:margins="rect(2,2,2,2)" v:tabSpace="42.5197"/>
			<v:textRect cx="25.8443" cy="189.596" width="51.69" height="13.3396"/>
			<rect x="0" y="182.926" width="51.6887" height="13.3396" rx="2.83465" ry="2.83465" class="st1"/>
			<text x="3.62" y="192" class="st5" v:langID="2057"><v:paragraph v:horizAlign="1"/><v:tabList/>‘accumulate’</text>		</g>
		<g id="shape65-23" v:mID="65" v:groupContext="shape" v:layerMember="1" transform="translate(110.148,-180.379)">
			<title>Dynamic connector.65</title>
			<path d="M0 189.18 L12.8 189.18" class="st3"/>
		</g>
		<g id="shape66-28" v:mID="66" v:groupContext="shape" v:layerMember="1" transform="translate(57.1348,-180.379)">
			<title>Dynamic connector.66</title>
			<path d="M0 189.18 L20.46 189.18" class="st3"/>
		</g>
		<g id="shape45-33" v:mID="45" v:groupContext="shape" v:layerMember="0" transform="translate(12.9892,-103.024)">
			<title>Process.45</title>
			<desc>‘(‘</desc>
			<v:custProps>
				<v:cp v:nameU="Cost" v:lbl="Cost" v:type="7" v:format="@" v:langID="1033"/>
				<v:cp v:nameU="Duration" v:lbl="Duration" v:type="2" v:langID="1033"/>
				<v:cp v:nameU="Resources" v:lbl="Resources" v:langID="1033"/>
			</v:custProps>
			<v:userDefs>
				<v:ud v:nameU="visVersion" v:val="VT0(11):26"/>
			</v:userDefs>
			<v:textBlock v:margins="rect(2,2,2,2)" v:tabSpace="42.5197"/>
			<v:textRect cx="10.0047" cy="189.596" width="20.01" height="13.3396"/>
			<rect x="0" y="182.926" width="20.0095" height="13.3396" rx="2.83465" ry="2.83465" class="st1"/>
			<text x="6.89" y="192" class="st5" v:langID="1033"><v:paragraph v:horizAlign="1"/><v:tabList/>‘<tspan class="st6"
						v:langID="2057">(</tspan>‘</text>		</g>
		<g id="shape74-37" v:mID="74" v:groupContext="shape" v:layerMember="1" transform="translate(121.327,-71.6064)">
			<title>Dynamic connector.74</title>
			<path d="M0 196.27 L9.45 196.27 A5.66929 5.66929 -180 0 0 15.12 190.6 L15.12 163.25 A5.66929 5.66929 0 0 1 20.79 157.58
						 L27.53 157.58 A5.66929 5.66929 -180 0 0 33.2 151.91 L33.2 134.29 A5.06012 5.06012 0 0 1 38.26 129.23 L40.56
						 129.23" class="st3"/>
		</g>
		<g id="shape75-42" v:mID="75" v:groupContext="shape" v:layerMember="1" transform="translate(32.9986,-109.693)">
			<title>Dynamic connector.75</title>
			<path d="M0 196.27 L5.31 196.27 A5.31496 5.31496 -180 0 0 10.63 190.95 L10.63 161.65 A5.66929 5.66929 0 0 1 16.3 155.98
						 L40.21 155.98" class="st3"/>
		</g>
		<g id="shape76-47" v:mID="76" v:groupContext="shape" v:layerMember="0" transform="translate(75.9728,-143.306)">
			<title>Process.76</title>
			<desc>pattern</desc>
			<v:custProps>
				<v:cp v:nameU="Cost" v:lbl="Cost" v:type="7" v:format="@" v:langID="1033"/>
				<v:cp v:nameU="Duration" v:lbl="Duration" v:type="2" v:langID="1033"/>
				<v:cp v:nameU="Resources" v:lbl="Resources" v:langID="1033"/>
			</v:custProps>
			<v:userDefs>
				<v:ud v:nameU="visVersion" v:val="VT0(11):26"/>
			</v:userDefs>
			<v:textBlock v:margins="rect(2,2,2,2)" v:tabSpace="42.5197"/>
			<v:textRect cx="19.8425" cy="189.596" width="39.69" height="13.3396"/>
			<rect x="0" y="182.926" width="39.685" height="13.3396" rx="2.83465" ry="2.83465" class="st1"/>
			<text x="7.4" y="192" class="st2" v:langID="2057"><v:paragraph v:horizAlign="1"/><v:tabList/>pattern</text>		</g>
		<g id="shape77-50" v:mID="77" v:groupContext="shape" v:layerMember="0" transform="translate(75.9728,-91.0598)">
			<title>Process.77</title>
			<desc>collect</desc>
			<v:custProps>
				<v:cp v:nameU="Cost" v:lbl="Cost" v:type="7" v:format="@" v:langID="1033"/>
				<v:cp v:nameU="Duration" v:lbl="Duration" v:type="2" v:langID="1033"/>
				<v:cp v:nameU="Resources" v:lbl="Resources" v:langID="1033"/>
			</v:custProps>
			<v:userDefs>
				<v:ud v:nameU="visVersion" v:val="VT0(11):26"/>
			</v:userDefs>
			<v:textBlock v:margins="rect(2,2,2,2)" v:tabSpace="42.5197"/>
			<v:textRect cx="19.8425" cy="189.596" width="39.69" height="13.3396"/>
			<rect x="0" y="182.926" width="39.685" height="13.3396" rx="2.83465" ry="2.83465" class="st1"/>
			<text x="8.51" y="192" class="st2" v:langID="2057"><v:paragraph v:horizAlign="1"/><v:tabList/>collect</text>		</g>
		<g id="shape78-53" v:mID="78" v:groupContext="shape" v:layerMember="0" transform="translate(70.3035,-64.9366)">
			<title>Process.78</title>
			<desc>accumulate</desc>
			<v:custProps>
				<v:cp v:nameU="Cost" v:lbl="Cost" v:type="7" v:format="@" v:langID="1033"/>
				<v:cp v:nameU="Duration" v:lbl="Duration" v:type="2" v:langID="1033"/>
				<v:cp v:nameU="Resources" v:lbl="Resources" v:langID="1033"/>
			</v:custProps>
			<v:userDefs>
				<v:ud v:nameU="visVersion" v:val="VT0(11):26"/>
			</v:userDefs>
			<v:textBlock v:margins="rect(2,2,2,2)" v:tabSpace="42.5197"/>
			<v:textRect cx="25.5118" cy="189.596" width="51.03" height="13.3396"/>
			<rect x="0" y="182.926" width="51.0236" height="13.3396" rx="2.83465" ry="2.83465" class="st1"/>
			<text x="5.04" y="192" class="st2" v:langID="2057"><v:paragraph v:horizAlign="1"/><v:tabList/>accumulate</text>		</g>
		<g id="shape79-56" v:mID="79" v:groupContext="shape" v:layerMember="0" transform="translate(80.919,-117.183)">
			<title>Process.79</title>
			<desc>from</desc>
			<v:custProps>
				<v:cp v:nameU="Cost" v:lbl="Cost" v:type="7" v:format="@" v:langID="1033"/>
				<v:cp v:nameU="Duration" v:lbl="Duration" v:type="2" v:langID="1033"/>
				<v:cp v:nameU="Resources" v:lbl="Resources" v:langID="1033"/>
			</v:custProps>
			<v:userDefs>
				<v:ud v:nameU="visVersion" v:val="VT0(11):26"/>
			</v:userDefs>
			<v:textBlock v:margins="rect(2,2,2,2)" v:tabSpace="42.5197"/>
			<v:textRect cx="14.8963" cy="189.596" width="29.8" height="13.3396"/>
			<rect x="0" y="182.926" width="29.7926" height="13.3396" rx="2.83465" ry="2.83465" class="st1"/>
			<text x="6.9" y="192" class="st2" v:langID="2057"><v:paragraph v:horizAlign="1"/><v:tabList/>from</text>		</g>
		<g id="shape80-59" v:mID="80" v:groupContext="shape" v:layerMember="1" transform="translate(32.9986,-109.686)">
			<title>Dynamic connector.80</title>
			<path d="M0 196.26 L5.31 196.26 A5.31496 5.31496 -180 0 0 10.63 190.94 L10.63 187.77 A5.66929 5.66929 0 0 1 16.3 182.1
						 L45.16 182.1" class="st3"/>
		</g>
		<g id="shape81-64" v:mID="81" v:groupContext="shape" v:layerMember="1" transform="translate(32.9986,-110.798)">
			<title>Dynamic connector.81</title>
			<path d="M0 197.37 L5.31 197.37 A5.31496 5.31496 0 0 1 10.63 202.69 L10.63 203.66 A5.66929 5.66929 -180 0 0 16.3 209.33
						 L40.21 209.33" class="st3"/>
		</g>
		<g id="shape82-69" v:mID="82" v:groupContext="shape" v:layerMember="1" transform="translate(32.9986,-109.693)">
			<title>Dynamic connector.82</title>
			<path d="M0 196.27 L5.31 196.27 A5.31496 5.31496 0 0 1 10.63 201.58 L10.63 228.68 A5.66929 5.66929 -180 0 0 16.3 234.35
						 L34.54 234.35" class="st3"/>
		</g>
		<g id="shape83-74" v:mID="83" v:groupContext="shape" v:layerMember="1" transform="translate(115.658,-97.7296)">
			<title>Dynamic connector.83</title>
			<path d="M0 196.27 L15.12 196.27 A5.66929 5.66929 -180 0 0 20.79 190.6 L20.79 189.37 A5.66929 5.66929 0 0 1 26.46 183.7
						 L33.08 183.7 A5.66929 5.66929 -180 0 0 38.75 178.03 L38.75 160.48 A5.11918 5.11918 0 0 1 43.87 155.36 L46.22
						 155.36" class="st3"/>
		</g>
		<g id="shape84-79" v:mID="84" v:groupContext="shape" v:layerMember="1" transform="translate(110.712,-123.853)">
			<title>Dynamic connector.84</title>
			<path d="M0 196.27 L20.54 196.27 A5.66929 5.66929 0 0 1 26.21 201.93 L26.21 204.16 A5.66929 5.66929 -180 0 0 31.88 209.83
						 L38.14 209.83 A5.66929 5.66929 -180 0 0 43.81 204.16 L43.81 186.54 A5.06012 5.06012 0 0 1 48.87 181.48 L51.17
						 181.48" class="st3"/>
		</g>
		<g id="shape85-84" v:mID="85" v:groupContext="shape" v:layerMember="1" transform="translate(115.658,-151.393)">
			<title>Dynamic connector.85</title>
			<path d="M0 197.68 L15.59 197.68 A5.66929 5.66929 0 0 1 21.26 203.35 L21.26 231.7 A5.66929 5.66929 -180 0 0 26.93 237.37
						 L33.2 237.37 A5.66929 5.66929 -180 0 0 38.86 231.7 L38.86 214.08 A5.06012 5.06012 0 0 1 43.92 209.02 L46.22
						 209.02" class="st3"/>
		</g>
		<g id="shape86-89" v:mID="86" v:groupContext="shape" v:layerMember="0" transform="translate(165.809,-80.9439)">
			<title>Process.86</title>
			<desc>init</desc>
			<v:custProps>
				<v:cp v:nameU="Cost" v:lbl="Cost" v:type="7" v:format="@" v:langID="1033"/>
				<v:cp v:nameU="Duration" v:lbl="Duration" v:type="2" v:langID="1033"/>
				<v:cp v:nameU="Resources" v:lbl="Resources" v:langID="1033"/>
			</v:custProps>
			<v:userDefs>
				<v:ud v:nameU="visVersion" v:val="VT0(11):26"/>
			</v:userDefs>
			<v:textBlock v:margins="rect(2,2,2,2)" v:tabSpace="42.5197"/>
			<v:textRect cx="24.3453" cy="189.596" width="48.7" height="13.3396"/>
			<rect x="0" y="182.926" width="48.6906" height="13.3396" rx="2.83465" ry="2.83465" class="st1"/>
			<text x="19.24" y="192" class="st2" v:langID="2057"><v:paragraph v:horizAlign="1"/><v:tabList/>init</text>		</g>
		<g id="shape87-92" v:mID="87" v:groupContext="shape" v:layerMember="0" transform="translate(165.809,-56.2657)">
			<title>Process.87</title>
			<desc>action</desc>
			<v:custProps>
				<v:cp v:nameU="Cost" v:lbl="Cost" v:type="7" v:format="@" v:langID="1033"/>
				<v:cp v:nameU="Duration" v:lbl="Duration" v:type="2" v:langID="1033"/>
				<v:cp v:nameU="Resources" v:lbl="Resources" v:langID="1033"/>
			</v:custProps>
			<v:userDefs>
				<v:ud v:nameU="visVersion" v:val="VT0(11):26"/>
			</v:userDefs>
			<v:textBlock v:margins="rect(2,2,2,2)" v:tabSpace="42.5197"/>
			<v:textRect cx="24.3453" cy="189.596" width="48.7" height="13.3396"/>
			<rect x="0" y="182.926" width="48.6906" height="13.3396" rx="2.83465" ry="2.83465" class="st1"/>
			<text x="13.68" y="192" class="st2" v:langID="2057"><v:paragraph v:horizAlign="1"/><v:tabList/>action</text>		</g>
		<g id="shape88-95" v:mID="88" v:groupContext="shape" v:layerMember="0" transform="translate(167.477,-29.587)">
			<title>Process.88</title>
			<desc>reverse</desc>
			<v:custProps>
				<v:cp v:nameU="Cost" v:lbl="Cost" v:type="7" v:format="@" v:langID="1033"/>
				<v:cp v:nameU="Duration" v:lbl="Duration" v:type="2" v:langID="1033"/>
				<v:cp v:nameU="Resources" v:lbl="Resources" v:langID="1033"/>
			</v:custProps>
			<v:userDefs>
				<v:ud v:nameU="visVersion" v:val="VT0(11):26"/>
			</v:userDefs>
			<v:textBlock v:margins="rect(2,2,2,2)" v:tabSpace="42.5197"/>
			<v:textRect cx="24.3453" cy="189.596" width="48.7" height="13.3396"/>
			<rect x="0" y="182.926" width="48.6906" height="13.3396" rx="2.83465" ry="2.83465" class="st1"/>
			<text x="11.01" y="192" class="st2" v:langID="2057"><v:paragraph v:horizAlign="1"/><v:tabList/>reverse</text>		</g>
		<g id="shape89-98" v:mID="89" v:groupContext="shape" v:layerMember="0" transform="translate(169.146,-0.24)">
			<title>Process.89</title>
			<desc>result</desc>
			<v:custProps>
				<v:cp v:nameU="Cost" v:lbl="Cost" v:type="7" v:format="@" v:langID="1033"/>
				<v:cp v:nameU="Duration" v:lbl="Duration" v:type="2" v:langID="1033"/>
				<v:cp v:nameU="Resources" v:lbl="Resources" v:langID="1033"/>
			</v:custProps>
			<v:userDefs>
				<v:ud v:nameU="visVersion" v:val="VT0(11):26"/>
			</v:userDefs>
			<v:textBlock v:margins="rect(2,2,2,2)" v:tabSpace="42.5197"/>
			<v:textRect cx="24.3453" cy="189.596" width="48.7" height="13.3396"/>
			<rect x="0" y="182.926" width="48.6906" height="13.3396" rx="2.83465" ry="2.83465" class="st1"/>
			<text x="14.57" y="192" class="st2" v:langID="2057"><v:paragraph v:horizAlign="1"/><v:tabList/>result</text>		</g>
		<g id="shape90-101" v:mID="90" v:groupContext="shape" v:layerMember="1" transform="translate(207.413,-87.6138)">
			<title>Dynamic connector.90</title>
			<path d="M7.09 196.27 L12.4 196.27 A5.31496 5.31496 0 0 1 17.72 201.58 L17.72 215.63 A5.31496 5.31496 0 0 1 12.4 220.94
						 L9.85 220.94" class="st3"/>
		</g>
		<g id="shape91-106" v:mID="91" v:groupContext="shape" v:layerMember="1" transform="translate(159.557,-62.9355)">
			<title>Dynamic connector.91</title>
			<path d="M6.25 196.27 L-4.08 196.27 A5.66929 5.66929 -180 0 0 -9.75 201.93 L-9.75 217.27 A5.66929 5.66929 -180 0 0 -4.08
						 222.94 L5.16 222.94" class="st3"/>
		</g>
		<g id="shape92-111" v:mID="92" v:groupContext="shape" v:layerMember="1" transform="translate(160.391,-62.9355)">
			<title>Dynamic connector.92</title>
			<path d="M5.42 196.27 L-4.92 196.27 A5.66929 5.66929 -180 0 0 -10.59 201.93 L-10.59 246.62 A5.66929 5.66929 -180 0 0
						 -4.92 252.29 L5.99 252.29" class="st3"/>
		</g>
		<g id="shape93-116" v:mID="93" v:groupContext="shape" v:layerMember="1" transform="translate(216.168,-36.2568)">
			<title>Dynamic connector.93</title>
			<path d="M0 196.27 L3.54 196.27 A3.54331 3.54331 0 0 1 7.09 199.81 L7.09 204.35 A5.66929 5.66929 0 0 1 1.42 210.02 L-51.98
						 210.02 A5.66929 5.66929 -180 0 0 -57.65 215.69 L-57.65 220.3 A5.31496 5.31496 -180 0 0 -52.34 225.61 L-49.78
						 225.61" class="st3"/>
		</g>
		<g id="shape94-121" v:mID="94" v:groupContext="shape" v:layerMember="0" transform="translate(164.643,-131.968)">
			<title>Process.94</title>
			<desc>accumulateFunction</desc>
			<v:custProps>
				<v:cp v:nameU="Cost" v:lbl="Cost" v:type="7" v:format="@" v:langID="1033"/>
				<v:cp v:nameU="Duration" v:lbl="Duration" v:type="2" v:langID="1033"/>
				<v:cp v:nameU="Resources" v:lbl="Resources" v:langID="1033"/>
			</v:custProps>
			<v:userDefs>
				<v:ud v:nameU="visVersion" v:val="VT0(11):26"/>
			</v:userDefs>
			<v:textBlock v:margins="rect(2,2,2,2)" v:tabSpace="42.5197"/>
			<v:textRect cx="42.0472" cy="189.596" width="84.1" height="13.3396"/>
			<rect x="0" y="182.926" width="84.0945" height="13.3396" rx="2.83465" ry="2.83465" class="st1"/>
			<text x="6.25" y="192" class="st2" v:langID="2057"><v:paragraph v:horizAlign="1"/><v:tabList/>accumulateFunction</text>		</g>
		<g id="shape95-124" v:mID="95" v:groupContext="shape" v:layerMember="1" transform="translate(115.658,-99.7583)">
			<title>Dynamic connector.95</title>
			<path d="M0 198.29 L15.12 198.29 A5.66929 5.66929 -180 0 0 20.79 192.62 L20.79 191.4 A5.66929 5.66929 0 0 1 26.46 185.73
						 L33.39 185.73 A5.66929 5.66929 0 0 1 39.06 191.4 L39.06 202.87 A5.54388 5.54388 -180 0 0 44.61 208.41 L47.39
						 208.41" class="st3"/>
		</g>
		<g id="shape97-129" v:mID="97" v:groupContext="shape" v:layerMember="0" transform="translate(270.554,-97.9518)">
			<title>Process.97</title>
			<desc>‘)’</desc>
			<v:custProps>
				<v:cp v:nameU="Cost" v:lbl="Cost" v:type="7" v:format="@" v:langID="1033"/>
				<v:cp v:nameU="Duration" v:lbl="Duration" v:type="2" v:langID="1033"/>
				<v:cp v:nameU="Resources" v:lbl="Resources" v:langID="1033"/>
			</v:custProps>
			<v:userDefs>
				<v:ud v:nameU="visVersion" v:val="VT0(11):26"/>
			</v:userDefs>
			<v:textBlock v:margins="rect(2,2,2,2)" v:tabSpace="42.5197"/>
			<v:textRect cx="10.0047" cy="189.596" width="20.01" height="13.3396"/>
			<rect x="0" y="182.926" width="20.0095" height="13.3396" rx="2.83465" ry="2.83465" class="st1"/>
			<text x="6.89" y="192" class="st5" v:langID="1033"><v:paragraph v:horizAlign="1"/><v:tabList/>‘<tspan class="st6"
						v:langID="2057">)</tspan>’</text>		</g>
		<g id="shape98-133" v:mID="98" v:groupContext="shape" v:layerMember="1;0" transform="translate(313.128,-98.7855)">
			<title>On-page reference.98</title>
			<v:userDefs>
				<v:ud v:nameU="visVersion" v:val="VT0(11):26"/>
			</v:userDefs>
			<v:textBlock v:margins="rect(2,2,2,2)" v:tabSpace="42.5197"/>
			<path d="M0 190.43 A5.83609 5.83609 0 1 1 11.67 190.43 A5.83609 5.83609 0 0 1 0 190.43 Z" class="st1"/>
		</g>
		<g id="shape99-135" v:mID="99" v:groupContext="shape" v:layerMember="1" transform="translate(290.564,-97.535)">
			<title>Dynamic connector.99</title>
			<path d="M0 189.18 L19.8 189.18" class="st3"/>
		</g>
		<g id="shape100-140" v:mID="100" v:groupContext="shape" v:layerMember="1" transform="translate(248.737,-138.637)">
			<title>Dynamic connector.100</title>
			<path d="M0 196.27 L5.31 196.27 A5.31496 5.31496 0 0 1 10.63 201.58 L10.63 224.69 A5.59364 5.59364 -180 0 0 16.22 230.28
						 L19.06 230.28" class="st3"/>
		</g>
		<g id="shape101-145" v:mID="101" v:groupContext="shape" v:layerMember="1" transform="translate(217.836,-6.90982)">
			<title>Dynamic connector.101</title>
			<path d="M0 196.27 L38.3 196.27 A5.66929 5.66929 -180 0 0 43.97 190.6 L43.97 102.93 A4.37522 4.37522 0 0 1 48.34 98.55
						 L49.96 98.55" class="st3"/>
		</g>
	</g>
</svg>
