<?xml version="1.0" encoding="UTF-8" standalone="no"?>
<!DOCTYPE svg PUBLIC "-//W3C//DTD SVG 1.0//EN" "http://www.w3.org/TR/2001/REC-SVG-20010904/DTD/svg10.dtd">
<!-- Generated by Microsoft Visio 11.0, SVG Export, v1.0 constraints.svg Page-1 -->
<svg xmlns="http://www.w3.org/2000/svg" xmlns:v="http://schemas.microsoft.com/visio/2003/SVGExtensions/" width="2.36887in"
		height="0.561951in" viewBox="0 0 170.559 40.4605" xml:space="preserve" color-interpolation-filters="sRGB" class="st6">
	<v:documentProperties v:langID="1033" v:metric="true" v:viewMarkup="false"/>

	<style type="text/css">
	<![CDATA[
		.st1 {fill:#e8eef7;stroke:#000000;stroke-linecap:round;stroke-linejoin:round;stroke-width:0.24}
		.st2 {fill:#000000;font-family:Arial;font-size:0.666664em;font-style:italic}
		.st3 {marker-end:url(#mrkr2-11);stroke:#4677bf;stroke-linecap:round;stroke-linejoin:round;stroke-width:0.24}
		.st4 {fill:#4677bf;fill-opacity:1;stroke:#4677bf;stroke-opacity:1;stroke-width:0.08695652173913}
		.st5 {fill:#000000;font-family:Arial;font-size:0.666664em}
		.st6 {fill:none;fill-rule:evenodd;font-size:12;overflow:visible;stroke-linecap:square;stroke-miterlimit:3}
	]]>
	</style>

	<defs id="Markers">
		<g id="lend2">
			<path d="M 1 1 L 0 0 L 1 -1 L 1 1 " style="stroke:none"/>
		</g>
		<marker id="mrkr2-11" class="st4" v:arrowType="2" v:arrowSize="2" v:setback="11.5" refX="-11.5" orient="auto"
				markerUnits="strokeWidth">
			<use xlink:href="#lend2" transform="scale(-11.5,-11.5) "/>
		</marker>
	</defs>
	<g v:mID="0" v:index="1" v:groupContext="foregroundPage">
		<title>Page-1</title>
		<v:pageProperties v:drawingScale="0.0393701" v:pageScale="0.0393701" v:drawingUnits="24" v:shadowOffsetX="8.50394"
				v:shadowOffsetY="-8.50394"/>
		<v:layer v:name="Connector" v:index="0"/>
		<v:layer v:name="Flowchart" v:index="1"/>
		<g id="shape49-1" v:mID="49" v:groupContext="shape" v:layerMember="0;1" transform="translate(158.854,-1.35433)">
			<title>On-page reference.25</title>
			<v:userDefs>
				<v:ud v:nameU="visVersion" v:val="VT0(11):26"/>
			</v:userDefs>
			<v:textBlock v:margins="rect(2,2,2,2)" v:tabSpace="42.5197"/>
			<path d="M0 34.73 A5.73228 5.73228 0 0 1 11.46 34.73 A5.73228 5.73228 0 1 1 0 34.73 Z" class="st1"/>
		</g>
		<g id="shape50-3" v:mID="50" v:groupContext="shape" v:layerMember="1" transform="translate(48.3656,-0.535433)">
			<title>Process.73</title>
			<desc>constraint</desc>
			<v:custProps>
				<v:cp v:nameU="Cost" v:lbl="Cost" v:type="7" v:format="@" v:langID="1033"/>
				<v:cp v:nameU="Duration" v:lbl="Duration" v:type="2" v:langID="1033"/>
				<v:cp v:nameU="Resources" v:lbl="Resources" v:langID="1033"/>
			</v:custProps>
			<v:userDefs>
				<v:ud v:nameU="visVersion" v:val="VT0(11):26"/>
			</v:userDefs>
			<v:textBlock v:margins="rect(2,2,2,2)" v:tabSpace="42.5197"/>
			<v:textRect cx="31.0372" cy="33.9093" width="62.08" height="13.1024"/>
			<rect x="0" y="27.3581" width="62.0744" height="13.1024" rx="2.83465" ry="2.83465" class="st1"/>
			<text x="13.68" y="36.31" class="st2" v:langID="2057"><v:paragraph v:horizAlign="1"/><v:tabList/>constraint</text>		</g>
		<g id="shape53-6" v:mID="53" v:groupContext="shape" v:layerMember="0" transform="translate(11.7046,-4.9738E-014)">
			<title>Dynamic connector.79</title>
			<path d="M0 33.37 L33.9 33.37" class="st3"/>
		</g>
		<g id="shape54-12" v:mID="54" v:groupContext="shape" v:layerMember="0" transform="translate(110.44,-4.9738E-014)">
			<title>Dynamic connector.88</title>
			<path d="M0 33.37 L22.14 33.37 L45.65 33.37" class="st3"/>
		</g>
		<g id="shape56-17" v:mID="56" v:groupContext="shape" v:layerMember="0;1" transform="translate(0.24,-1.35433)">
			<title>On-page reference.93</title>
			<v:userDefs>
				<v:ud v:nameU="visVersion" v:val="VT0(11):26"/>
			</v:userDefs>
			<v:textBlock v:margins="rect(2,2,2,2)" v:tabSpace="42.5197"/>
			<path d="M0 34.73 A5.73228 5.73228 0 0 1 11.46 34.73 A5.73228 5.73228 0 1 1 0 34.73 Z" class="st1"/>
		</g>
		<g id="shape148-19" v:mID="148" v:groupContext="shape" v:layerMember="1" transform="translate(55.5156,-25.9746)">
			<title>Process.148</title>
			<desc>‘,’ | ‘&#38;&#38;’ | ‘||’</desc>
			<v:custProps>
				<v:cp v:nameU="Cost" v:lbl="Cost" v:type="7" v:format="@" v:langID="1033"/>
				<v:cp v:nameU="Duration" v:lbl="Duration" v:type="2" v:langID="1033"/>
				<v:cp v:nameU="Resources" v:lbl="Resources" v:langID="1033"/>
			</v:custProps>
			<v:userDefs>
				<v:ud v:nameU="visVersion" v:val="VT0(11):26"/>
			</v:userDefs>
			<v:textBlock v:margins="rect(2,2,2,2)" v:tabSpace="42.5197"/>
			<v:textRect cx="22.6772" cy="33.3375" width="45.36" height="14.2459"/>
			<rect x="0" y="26.2146" width="45.3543" height="14.2459" rx="2.83465" ry="2.83465" class="st1"/>
			<text x="2.29" y="35.74" class="st5" v:langID="2057"><v:paragraph v:horizAlign="1"/><v:tabList/>‘,’ | ‘&#38;&#38;’ | ‘||’</text>		</g>
		<g id="shape152-22" v:mID="152" v:groupContext="shape" v:layerMember="0" transform="translate(110.44,-4.9738E-014)">
			<title>Dynamic connector.152</title>
			<path d="M0 33.37 L45.65 33.37" class="st3"/>
		</g>
		<g id="shape51-27" v:mID="51" v:groupContext="shape" v:layerMember="0" transform="translate(112.742,-7.08661)">
			<title>Dynamic connector.51</title>
			<path d="M-2.3 40.46 L3.01 40.46 A5.31496 5.31496 -180 0 0 8.33 35.15 L8.33 20.12 A5.66929 5.66929 -180 0 0 2.66 14.45
						 L-9.11 14.45" class="st3"/>
		</g>
		<g id="shape52-32" v:mID="52" v:groupContext="shape" v:layerMember="0" transform="translate(59.0272,-33.0975)">
			<title>Dynamic connector.52</title>
			<path d="M-3.51 40.46 L-15.62 40.46 A5.66929 5.66929 -180 0 0 -21.29 46.13 L-21.29 61.16 A5.31496 5.31496 -180 0 0 -15.98
						 66.47 L-13.42 66.47" class="st3"/>
		</g>
	</g>
</svg>
